<?xml version="1.0" standalone="no"?>
<!DOCTYPE svg PUBLIC "-//W3C//DTD SVG 1.1//EN" "http://www.w3.org/Graphics/SVG/1.1/DTD/svg11.dtd" >
<svg xmlns="http://www.w3.org/2000/svg" xmlns:xlink="http://www.w3.org/1999/xlink" version="1.1">
<metadata>
Created by FontForge 20170731 at Thu Jan 20 04:13:53 2022
 By Aleksey,,,
Copyright (c) 2022 Sunn.
</metadata>
<defs>
<font id="SUIT-Regular" horiz-adv-x="874" >
  <font-face 
    font-family="SUIT"
    font-weight="400"
    font-stretch="normal"
    units-per-em="1000"
    panose-1="0 0 0 0 0 0 0 0 0 0"
    ascent="800"
    descent="-200"
    x-height="509"
    cap-height="722"
    bbox="-78 -260 1150 873"
    underline-thickness="50"
    underline-position="-175"
    unicode-range="U+0020-FFE6"
  />
<missing-glyph horiz-adv-x="1000" 
 />
    <glyph glyph-name=".notdef" horiz-adv-x="1000" 
 />
    <glyph glyph-name=".null" horiz-adv-x="0" 
 />
    <glyph glyph-name="nonmarkingreturn" horiz-adv-x="333" 
 />
    <glyph glyph-name="space" unicode=" " horiz-adv-x="230" 
 />
    <glyph glyph-name="space" unicode="&#xa0;" horiz-adv-x="230" 
 />
    <glyph glyph-name="exclam" unicode="!" horiz-adv-x="315" 
d="M191 163h-66l-13 559h91zM118 77h79v-77h-79v77z" />
    <glyph glyph-name="quotedbl" unicode="&#x22;" horiz-adv-x="356" 
d="M136 604h-52l-9 164h71zM281 769l-9 -165h-53l-8 165h70z" />
    <glyph glyph-name="numbersign" unicode="#" horiz-adv-x="764" 
d="M563 540h147v-70h-153l-14 -219h143v-71h-149l-13 -180h-73l14 180h-196l-13 -180h-73l13 180h-142v71h148l15 219h-138v70h143l13 182h73l-13 -182h196l11 182h74zM470 251l15 219h-195l-16 -219h196z" />
    <glyph glyph-name="dollar" unicode="$" horiz-adv-x="698" 
d="M491 614q-41 27 -95 37v-264q79 -22 121.5 -45t65.5 -47q17 -20 29.5 -49t12.5 -62q0 -38 -18 -75q-32 -54 -99 -86q-25 -12 -53.5 -21t-51.5 -10l-7 -1v-71h-72v73q-72 10 -140 54q-47 29 -75 68t-37 67l70 24q7 -20 27 -47.5t55 -49.5q54 -33 100 -40v261l-21 6
q-45 14 -94 44q-37 25 -60 50q-18 21 -30 50.5t-12 62.5q0 41 18 78q30 55 82.5 79t104.5 28l12 1v78h72v-82q76 -10 135 -49q58 -38 87 -88l-64 -38q-21 36 -63 64zM180 541q0 -34 25 -61q18 -21 44 -38q23 -13 38.5 -21t35.5 -13h1v246h-6q-94 -9 -127 -67
q-11 -23 -11 -46zM397 66q34 3 79 23q24 12 39 25t26 31q11 21 11 42q0 31 -25 58q-15 16 -44 31.5t-87 33.5v-244h1z" />
    <glyph glyph-name="percent" unicode="%" horiz-adv-x="1050" 
d="M714 722h82l-453 -720h-80zM123.5 646q25.5 45 69.5 71.5t96 26.5t96 -26.5t69 -71.5t25 -98q0 -52 -25 -97.5t-69 -72t-96 -26.5t-96 26.5t-69.5 72t-25.5 97.5q0 53 25.5 98zM188 485.5q16 -28.5 43 -45t58 -16.5q48 0 82.5 36t34.5 88t-34.5 88t-82.5 36
q-31 0 -58 -16.5t-43 -45t-16 -62.5t16 -62.5zM596.5 277q25.5 45 69.5 71.5t96 26.5t96 -26.5t69 -71.5t25 -98q0 -52 -25 -97.5t-69 -72t-96 -26.5t-96 26.5t-69.5 72t-25.5 97.5q0 53 25.5 98zM661 116.5q16 -28.5 43 -45t58 -16.5q48 0 82.5 36t34.5 88t-34.5 88
t-82.5 36q-31 0 -58 -16.5t-43 -45t-16 -62.5t16 -62.5z" />
    <glyph glyph-name="ampersand" unicode="&#x26;" horiz-adv-x="697" 
d="M567 0l-70 80q-88 -86 -202 -86q-93 0 -142 40.5t-63.5 85.5t-14.5 75q0 22 9.5 58.5t39 79.5t83.5 74q-39 38 -60 71t-21 80q0 35 19 73.5t58.5 65.5t96.5 27q53 0 92 -25.5t59.5 -64t20.5 -76.5q0 -53 -36.5 -94t-107.5 -80l168 -189q28 41 73 129l66 -34
q-4 -8 -30 -57.5t-59 -95.5l121 -137h-100zM178 111.5q29 -43.5 117 -43.5q86 0 153 67l-190 215q-63 -31 -86 -77t-23 -78q0 -40 29 -83.5zM213.5 514.5q13.5 -19.5 41.5 -46.5l25 -26q64 31 91 57.5t27 58.5q0 36 -25 64t-73 28q-50 0 -75 -28t-25 -64q0 -24 13.5 -43.5z
" />
    <glyph glyph-name="quotesingle" unicode="'" horiz-adv-x="215" 
d="M134 604h-53l-9 164h71z" />
    <glyph glyph-name="parenleft" unicode="(" horiz-adv-x="371" 
d="M135.5 149.5q31.5 -102.5 89.5 -194.5h81q-66 90 -101 193t-35 213t35 213t101 193h-81q-58 -92 -89.5 -194.5t-31.5 -211.5t31.5 -211.5z" />
    <glyph glyph-name="parenright" unicode=")" horiz-adv-x="370" 
d="M235 572.5q-31 102.5 -89 194.5h-81q65 -90 100 -193t35 -213t-35 -213t-100 -193h81q58 92 89 194.5t31 211.5t-31 211.5z" />
    <glyph glyph-name="asterisk" unicode="*" horiz-adv-x="536" 
d="M303 417l143 46l22 -67l-143 -46l91 -126l-56 -44l-92 128l-92 -128l-55 44l91 126l-144 46l22 67l143 -46v154h70v-154z" />
    <glyph glyph-name="plus" unicode="+" horiz-adv-x="725" 
d="M397 400h256v-70h-256v-255h-69v255h-256v70h256v256h69v-256z" />
    <glyph glyph-name="comma" unicode="," horiz-adv-x="273" 
d="M97 -109h-53l30 185h78z" />
    <glyph glyph-name="hyphen" unicode="-" horiz-adv-x="602" 
d="M532 404v-71h-462v71h462z" />
    <glyph glyph-name="period" unicode="." horiz-adv-x="264" 
d="M143 77v-77h-80v77h80z" />
    <glyph glyph-name="slash" unicode="/" horiz-adv-x="393" 
d="M118 -48h-72l210 812h71z" />
    <glyph glyph-name="zero" unicode="0" horiz-adv-x="582" 
d="M453.5 231.5q6.5 46.5 6.5 130.5q0 83 -6.5 129t-29.5 82q-15 31 -47 53t-86 22t-86 -21.5t-47 -52.5q-23 -37 -29.5 -83t-6.5 -129t6.5 -129.5t29.5 -82.5q15 -31 46.5 -53t86.5 -22q54 0 86 21.5t47 52.5q23 36 29.5 82.5zM58.5 503.5q7.5 54.5 35.5 102.5
q23 46 72 79.5t125 33.5q77 0 125 -33.5t73 -79.5q28 -48 35 -101.5t7 -142.5q0 -91 -7 -144.5t-35 -101.5q-25 -46 -73 -79.5t-125 -33.5q-76 0 -124.5 34t-72.5 79q-28 48 -35.5 103t-7.5 143q0 87 7.5 141.5z" />
    <glyph glyph-name="one" unicode="1" horiz-adv-x="331" 
d="M248 11h-69v619l-105 -57l-31 62l136 76h69v-700z" />
    <glyph glyph-name="two" unicode="2" horiz-adv-x="553" 
d="M189.5 628q33.5 20 74.5 20q32 0 62 -13q40 -18 62.5 -50.5t22.5 -70.5q0 -27 -12 -53q-4 -8 -11.5 -18l-10.5 -14l-326 -339v-70h451v70h-351l276 284q17 17 38 55q21 44 21 89q0 60 -34.5 109t-94.5 71q-43 18 -91 18q-63 0 -117 -31.5t-80 -86.5q-8 -14 -13 -31
l73 -15q1 3 3 8t5 13q19 35 52.5 55z" />
    <glyph glyph-name="three" unicode="3" horiz-adv-x="567" 
d="M485.5 302q30.5 -43 30.5 -93q0 -57 -32 -104t-86 -73.5t-115 -26.5t-114.5 26.5t-85.5 73.5t-32 104h72q0 -33 20.5 -64t57 -50t82.5 -19t83 19t58 49.5t21 63.5q0 55 -39.5 93t-120.5 38h-53v70h53q71 0 111 35t40 84q0 29 -19 56.5t-52.5 45t-75.5 17.5t-75.5 -17
t-52 -45t-18.5 -59h-72q0 53 30.5 97t80.5 69t107 25t107 -25t80 -68.5t30 -97.5q0 -45 -27.5 -85t-71.5 -68q48 -28 78.5 -71z" />
    <glyph glyph-name="four" unicode="4" horiz-adv-x="627" 
d="M470 253h106v-66h-106v-176h-71v176h-348v66l348 458h71v-458zM399 253v350l-259 -350h259z" />
    <glyph glyph-name="five" unicode="5" horiz-adv-x="558" 
d="M393 421q52 -31 83 -83t31 -112q0 -63 -30.5 -114t-82 -80t-111.5 -29q-62 0 -123.5 30t-94.5 80q-7 9 -14 22l62 34l12 -18q23 -33 67.5 -55t90.5 -22q42 0 77.5 20.5t56 55t20.5 76.5q0 45 -21 80.5t-56.5 55.5t-76.5 20q-35 0 -71.5 -14.5t-61.5 -37.5l-50 29l9 352
h358v-67h-289l-6 -217q50 25 109 25q60 0 112 -31z" />
    <glyph glyph-name="six" unicode="6" horiz-adv-x="559" 
d="M362 94.5q36 20.5 55.5 54.5t19.5 73t-19.5 73t-55.5 54.5t-82 20.5q-47 0 -83 -20.5t-55.5 -54.5t-19.5 -73t19.5 -73t55.5 -54.5t83 -20.5q46 0 82 20.5zM73 316l253 400l62 -38l-157 -245q5 1 17 4t32 3q64 0 116 -29t82 -78.5t30 -110.5t-30 -111.5t-82.5 -79
t-115.5 -28.5q-64 0 -116.5 28.5t-82.5 79t-30 111.5q0 48 22 94z" />
    <glyph glyph-name="seven" unicode="7" horiz-adv-x="555" 
d="M504 633l-336 -626l-63 33l319 592h-373v69h453v-68z" />
    <glyph glyph-name="eight" unicode="8" horiz-adv-x="572" 
d="M369.5 92q37.5 19 58.5 50t21 65t-21 64.5t-58.5 49.5t-83.5 19t-83.5 -19t-59 -49.5t-21.5 -64.5t21 -65t59 -50t84 -19t83.5 19zM80 305.5q29 44.5 78 71.5q-40 26 -64 65t-24 84q0 53 30 96.5t80 68.5t106 25t106 -25t80.5 -68.5t30.5 -96.5q0 -45 -24 -84t-64 -65
q48 -27 77 -71.5t29 -96.5q0 -58 -32.5 -105.5t-86.5 -74.5t-116 -27t-116 27t-86.5 74.5t-32.5 105.5q0 52 29 96.5zM160.5 471q18.5 -27 51.5 -43.5t74 -16.5t74.5 16.5t52 43.5t18.5 57t-18.5 57t-52 43.5t-74.5 16.5t-74 -16.5t-51.5 -43.5t-18.5 -57t18.5 -57z" />
    <glyph glyph-name="nine" unicode="9" horiz-adv-x="558" 
d="M361 371.5q36 20.5 55.5 54.5t19.5 73t-19.5 73t-55.5 54.5t-82 20.5t-82 -20.5t-55.5 -54.5t-19.5 -73t19.5 -73t55.5 -54.5t82 -20.5t82 20.5zM81 610.5q30 50.5 82.5 79t116.5 28.5q63 0 115 -28.5t82 -79t30 -111.5q0 -51 -21 -93l-252 -398l-62 37l155 243
q-12 -3 -22.5 -4.5t-24.5 -1.5q-64 0 -116 28t-82.5 77.5t-30.5 111.5q0 61 30 111.5z" />
    <glyph glyph-name="colon" unicode=":" horiz-adv-x="284" 
d="M182 540v-77h-80v77h80zM102 236h80v-77h-80v77z" />
    <glyph glyph-name="semicolon" unicode=";" horiz-adv-x="283" 
d="M181 540v-77h-79v77h79zM103 236h78l-55 -185h-53z" />
    <glyph glyph-name="less" unicode="&#x3c;" horiz-adv-x="598" 
d="M479 727l49 -50l-320 -321l320 -322l-49 -49l-371 371z" />
    <glyph glyph-name="equal" unicode="=" horiz-adv-x="682" 
d="M572 521v-69h-462v69h462zM110 280h462v-70h-462v70z" />
    <glyph glyph-name="greater" unicode="&#x3e;" horiz-adv-x="598" 
d="M119 -15l-49 49l321 322l-321 321l49 50l371 -371z" />
    <glyph glyph-name="question" unicode="?" horiz-adv-x="536" 
d="M292 77v-77h-81v77h81zM85.5 662.5q24.5 27.5 68.5 47t99 19.5q60 0 112.5 -28t83.5 -77.5t31 -111.5q0 -65 -37.5 -116.5t-88.5 -89.5q-28 -21 -41 -35t-19.5 -38.5t-6.5 -69.5h-74q0 62 13.5 100.5t32.5 58.5t51 44q96 70 96 146q0 65 -43 104t-110 39
q-48 0 -75.5 -16.5t-44.5 -35.5t-23 -25l-54 52q5 5 29.5 32.5z" />
    <glyph glyph-name="at" unicode="@" horiz-adv-x="1033" 
d="M568 198q32 21 51.5 57t19.5 80t-19 80t-51.5 56.5t-70.5 20.5q-37 0 -70 -20.5t-52.5 -56.5t-19.5 -80q0 -43 19.5 -79.5t52.5 -57.5t70 -21q38 0 70 21zM137 571q59 101 160 160t220 59t219.5 -59t159.5 -160t59 -220q0 -52 -17.5 -92t-45.5 -62q-25 -21 -53.5 -29.5
t-49.5 -8.5q-36 0 -66 15.5t-48 37.5q-28 -48 -74 -77t-100 -29q-59 0 -108.5 31t-78 84t-28.5 114t28.5 113.5t78 83.5t108.5 31q39 0 74.5 -15t63.5 -43v51h71v-256q0 -26 22 -48.5t59 -22.5q12 0 27 5t28 16q39 33 39 101q0 100 -49.5 184.5t-134.5 134t-184 49.5
q-100 0 -184.5 -49.5t-134 -134t-49.5 -184.5t49.5 -184.5t134 -134t184.5 -49.5q99 0 187 52l36 -61q-102 -61 -223 -61q-119 0 -220 59t-160 159.5t-59 219.5t59 220z" />
    <glyph glyph-name="A" unicode="A" horiz-adv-x="810" 
d="M744 0h-78l-87 208h-348l-86 -208h-79l301 722h76zM551 278l-145 352l-147 -352h292z" />
    <glyph glyph-name="B" unicode="B" horiz-adv-x="631" 
d="M83 0h305q54 0 99.5 27t72.5 73t27 101q0 56 -25.5 103t-67.5 74q36 28 56 65.5t20 82.5q0 54 -26.5 99t-72 71t-99.5 26h-289v-722zM155 338h234q35 0 64.5 -18.5t46.5 -50t17 -70.5q0 -54 -37 -91.5t-91 -37.5h-234v268zM155 653h218q54 0 91 -35.5t37 -89.5
q0 -50 -34.5 -84t-86.5 -36h-225v245z" />
    <glyph glyph-name="C" unicode="C" horiz-adv-x="728" 
d="M251 42q-82 50 -129.5 134.5t-47.5 184.5t47.5 184.5t129.5 134.5t179 50q73 0 138 -28.5t114 -79.5l-53 -50q-39 40 -90 62t-109 22q-76 0 -141 -39.5t-103 -107t-38 -148.5t38 -149t103 -107.5t141 -39.5q58 0 109 22.5t90 62.5l53 -50q-49 -51 -114 -79.5t-138 -28.5
q-97 0 -179 50z" />
    <glyph glyph-name="D" unicode="D" horiz-adv-x="717" 
d="M426 112q66 39 104.5 105t38.5 144t-38.5 144t-104.5 105t-144 39h-125v-576h125q78 0 144 39zM84 722h198q97 0 180 -48.5t131.5 -131.5t48.5 -181t-48.5 -181t-131.5 -131.5t-180 -48.5h-198v722z" />
    <glyph glyph-name="E" unicode="E" horiz-adv-x="592" 
d="M539 653h-394v-246h363v-71h-363v-266h394v-70h-467v722h467v-69z" />
    <glyph glyph-name="F" unicode="F" horiz-adv-x="582" 
d="M539 653h-384v-256h337v-71h-337v-326h-73v722h457v-69z" />
    <glyph glyph-name="G" unicode="G" horiz-adv-x="861" 
d="M779 354q0 -23 -3 -48q-9 -91 -58 -162t-124.5 -110.5t-161.5 -41.5q-97 0 -178.5 49t-129 134t-47.5 186t47.5 185.5t129 133.5t178.5 49q100 0 178 -50.5t123 -123.5l-64 -33q-36 56 -97.5 95t-139.5 39t-143 -39t-102.5 -107t-37.5 -149q0 -82 37.5 -149.5t102.5 -107
t143 -39.5q69 3 128.5 34t98 85.5t45.5 125.5h-254v69h327q2 -14 2 -25z" />
    <glyph glyph-name="H" unicode="H" horiz-adv-x="712" 
d="M628 0h-73v335h-398v-335h-73v722h73v-316h398v316h73v-722z" />
    <glyph glyph-name="I" unicode="I" horiz-adv-x="240" 
d="M156 722v-722h-72v722h72z" />
    <glyph glyph-name="J" unicode="J" horiz-adv-x="583" 
d="M471 101q-31 -50 -84 -79t-115 -29q-69 0 -126 35.5t-84 94.5l66 30q18 -39 56.5 -63t87.5 -24q44 0 80 20t57 53t21 72v511h72v-511q0 -60 -31 -110z" />
    <glyph glyph-name="K" unicode="K" horiz-adv-x="692" 
d="M333 402l295 -402h-88l-255 347l-128 -143v-204h-74v721h74v-417l371 418h93z" />
    <glyph glyph-name="L" unicode="L" horiz-adv-x="591" 
d="M154 69h374v-69h-446v722h72v-653z" />
    <glyph glyph-name="M" unicode="M" horiz-adv-x="827" 
d="M741 0h-72v572l-226 -412h-60l-228 412v-572h-72v722h72l258 -465l255 465h73v-722z" />
    <glyph glyph-name="N" unicode="N" horiz-adv-x="745" 
d="M664 0h-71l-439 599v-599h-73v722h73l439 -598v598h71v-722z" />
    <glyph glyph-name="O" unicode="O" horiz-adv-x="864" 
d="M573 104.5q65 39.5 103 107.5t38 149t-38 148.5t-103 107t-141 39.5q-77 0 -141.5 -39.5t-102.5 -107t-38 -148.5t38 -149t102.5 -107.5t141.5 -39.5q76 0 141 39.5zM124.5 545.5q47.5 84.5 129 134.5t178.5 50t178.5 -50t129 -134.5t47.5 -184.5t-47.5 -185t-129 -134.5
t-178.5 -49.5t-178.5 49.5t-129 134.5t-47.5 185t47.5 184.5z" />
    <glyph glyph-name="P" unicode="P" horiz-adv-x="646" 
d="M435.5 370q35.5 21 56 56t20.5 75q0 41 -20.5 76t-56 55.5t-76.5 20.5h-202v-304h202q41 0 76.5 21zM83 722h278q60 0 110 -29.5t79.5 -80.5t29.5 -111t-29.5 -110.5t-79.5 -80.5t-110 -30h-204v-280h-74v722z" />
    <glyph glyph-name="Q" unicode="Q" horiz-adv-x="873" 
d="M700.5 268q14.5 46 14.5 92q0 81 -38 149t-103 107.5t-142 39.5q-76 0 -141 -39.5t-103 -107.5t-38 -149t38 -148.5t103 -107t141 -39.5q49 0 96 17.5t85 48.5l-96 99l51 52l93 -96q25 36 39.5 82zM124.5 545q47.5 85 129 134.5t178.5 49.5t178.5 -49.5t129 -134.5
t47.5 -185q0 -62 -19.5 -121t-55.5 -108l84 -87l-50 -52l-83 87q-47 -41 -106.5 -64t-124.5 -23q-97 0 -178.5 49.5t-129 134t-47.5 184.5t47.5 185z" />
    <glyph glyph-name="R" unicode="R" horiz-adv-x="680" 
d="M437 368q35 21 55.5 56.5t20.5 76.5t-20.5 76t-55.5 55.5t-77 20.5h-203v-306h203q42 0 77 21zM84 722h274q61 0 112.5 -30.5t81.5 -82t30 -111.5q0 -50 -22.5 -95.5t-62.5 -77t-89 -41.5l208 -284h-88l-204 279h-167v-279h-73v722z" />
    <glyph glyph-name="S" unicode="S" horiz-adv-x="650" 
d="M459 614q-56 41 -132 41q-98 0 -135 -65q-11 -25 -11 -49q0 -32 22 -61q17 -19 42 -38q37 -25 67 -35l47 -16q82 -25 125 -49.5t65 -49.5q16 -19 27 -48t11 -62q0 -37 -17 -74q-31 -56 -93 -87q-58 -28 -98 -29q-9 -1 -27 -1q-91 0 -174 58q-42 30 -67.5 69t-33.5 66
l72 22q5 -20 23 -47.5t50 -49.5q33 -23 63 -33.5t65 -10.5q16 0 25 1q29 2 68 21q22 11 36 23.5t25 31.5q10 23 10 43q0 30 -23 59q-14 17 -48 35.5t-108 41.5l-47 16q-38 12 -85 45q-30 21 -56 50q-17 20 -28 49t-11 62q0 40 18 79q32 62 89.5 84.5t106.5 22.5
q106 0 181 -55q50 -37 78 -89l-64 -36q-22 39 -58 65z" />
    <glyph glyph-name="T" unicode="T" horiz-adv-x="629" 
d="M566 653h-216v-653h-72v653h-215v69h503v-69z" />
    <glyph glyph-name="U" unicode="U" horiz-adv-x="719" 
d="M598.5 136q-39.5 -66 -103 -104.5t-133.5 -38.5q-79 0 -142 38t-99 103.5t-36 146.5v441h73v-442q0 -62 26.5 -110.5t73 -76t104.5 -27.5q53 0 100 27.5t75.5 76.5t28.5 110v442h72v-441q0 -79 -39.5 -145z" />
    <glyph glyph-name="V" unicode="V" horiz-adv-x="805" 
d="M446 0h-76l-304 722h78l264 -628l262 628h69z" />
    <glyph glyph-name="W" unicode="W" horiz-adv-x="1100" 
d="M808 0h-76l-183 601l-180 -601h-76l-220 722h74l184 -598l181 598h74l185 -598l182 598h74z" />
    <glyph glyph-name="X" unicode="X" horiz-adv-x="771" 
d="M428 362l277 -362h-89l-231 302l-230 -302h-89l277 362l-277 360h89l230 -301l231 301h89z" />
    <glyph glyph-name="Y" unicode="Y" horiz-adv-x="778" 
d="M425 282v-282h-72v282l-287 440h85l238 -365l239 365h84z" />
    <glyph glyph-name="Z" unicode="Z" horiz-adv-x="679" 
d="M635 651l-496 -582h496v-69h-591v70l498 582h-498v70h591v-71z" />
    <glyph glyph-name="bracketleft" unicode="[" horiz-adv-x="351" 
d="M286 701h-115v-682h115v-68h-183v817h183v-67z" />
    <glyph glyph-name="backslash" unicode="\" horiz-adv-x="393" 
d="M137 764l210 -812h-72l-209 812h71z" />
    <glyph glyph-name="bracketright" unicode="]" horiz-adv-x="351" 
d="M248 768v-817h-183v68h115v682h-115v67h183z" />
    <glyph glyph-name="asciicircum" unicode="^" horiz-adv-x="540" 
d="M460 382l11 -26h-77l-124 284l-124 -284h-77l160 366h82z" />
    <glyph glyph-name="underscore" unicode="_" horiz-adv-x="572" 
d="M518 -48v-69h-464v69h464z" />
    <glyph glyph-name="grave" unicode="`" horiz-adv-x="254" 
d="M161 769l30 -164h-51l-58 164h79z" />
    <glyph glyph-name="a" unicode="a" horiz-adv-x="611" 
d="M380 89.5q39 24.5 62.5 66.5t23.5 94t-23.5 94t-62.5 66.5t-84 24.5t-84 -24.5t-62.5 -67t-23.5 -93.5t23.5 -93.5t62.5 -67t84 -24.5t84 24.5zM85.5 377.5q32.5 58.5 88 93.5t121.5 35q47 0 92.5 -26t78.5 -79v108h72v-509h-72v100q-34 -56 -78.5 -81.5t-92.5 -25.5
q-66 0 -121.5 35.5t-88 94.5t-32.5 127q0 69 32.5 127.5z" />
    <glyph glyph-name="b" unicode="b" horiz-adv-x="616" 
d="M402.5 88q39.5 25 63 68t23.5 95t-23.5 95t-63 68t-85.5 25t-85.5 -25t-63 -68t-23.5 -95t23.5 -95t63 -68t85.5 -25t85.5 25zM73 742h72v-340q33 57 79 82t95 25q67 0 123 -35.5t88.5 -94.5t32.5 -128t-32.5 -128.5t-89 -95t-123.5 -35.5q-48 0 -94.5 25t-78.5 83v-100
h-72v742z" />
    <glyph glyph-name="c" unicode="c" horiz-adv-x="493" 
d="M358 84q34 15 60 41l57 -52q-37 -37 -84 -57.5t-100 -20.5q-71 0 -130.5 36t-94 98t-34.5 134t34.5 133.5t94 97.5t130.5 36q53 0 100 -20.5t84 -57.5l-57 -51q-26 26 -60 41t-71 15q-50 0 -92.5 -26t-67.5 -70.5t-25 -97.5t25 -97.5t67.5 -70.5t92.5 -26q37 0 71 15z
" />
    <glyph glyph-name="d" unicode="d" horiz-adv-x="616" 
d="M384.5 88q39.5 25 63 68t23.5 95t-23.5 95t-63 68t-85.5 25t-85.5 -25t-63 -68t-23.5 -95t23.5 -95t63 -68t85.5 -25t85.5 25zM85.5 379.5q32.5 59.5 88.5 95t122 35.5q52 0 98.5 -27t76.5 -82v341h72v-742h-72v101q-31 -55 -77.5 -82t-97.5 -27q-66 0 -122 35.5
t-88.5 95t-32.5 128.5t32.5 128.5z" />
    <glyph glyph-name="e" unicode="e" horiz-adv-x="575" 
d="M392.5 400.5q-42.5 40.5 -99.5 40.5q-60 0 -106.5 -40.5t-59.5 -102.5h322q-14 62 -56.5 102.5zM84.5 382q31.5 59 86.5 94t122 35q64 0 109.5 -30t68.5 -61.5t29 -46.5q22 -44 22 -103q0 -23 -3 -41h-395q5 -46 29.5 -83t61 -58t79.5 -21q48 0 84.5 22t57.5 53l61 -31
q-29 -48 -82 -81t-122 -33q-67 0 -122 35t-86.5 94t-31.5 128t31.5 128z" />
    <glyph glyph-name="f" unicode="f" horiz-adv-x="419" 
d="M131 0v440h-92v69h92v98q0 40 20 74.5t54.5 55t75.5 20.5q28 0 54 -10.5t45 -28.5l-48 -54q-12 11 -23.5 15.5t-27.5 4.5q-36 0 -56.5 -21t-20.5 -56v-98h146v-69h-146v-440h-73z" />
    <glyph glyph-name="g" unicode="g" horiz-adv-x="611" 
d="M381 87.5q39 24.5 62 67.5t23 95q0 51 -23 93t-62 66.5t-85 24.5q-45 0 -84 -24.5t-62.5 -66.5t-23.5 -93q0 -52 23.5 -95t62.5 -67.5t84 -24.5q46 0 85 24.5zM85.5 376.5q32.5 58.5 88 93.5t121.5 35q51 0 98.5 -25t72.5 -80v108h72v-483q-1 -77 -34.5 -140t-92 -99
t-131.5 -36q-64 0 -115.5 32t-88.5 88l62 40q55 -87 142 -87q52 0 94 25t67 71t25 107v76q-28 -51 -76.5 -80t-94.5 -29q-66 0 -121.5 35t-88 94t-32.5 128q0 68 32.5 126.5z" />
    <glyph glyph-name="h" unicode="h" horiz-adv-x="578" 
d="M392 393.5q-35 37.5 -94 37.5q-39 0 -73 -21.5t-54 -59t-20 -84.5v-266h-73v742h73v-329q20 41 60 67t90 26q52 0 97.5 -27.5t73.5 -77t28 -111.5v-290h-73v286q0 70 -35 107.5z" />
    <glyph glyph-name="i" unicode="i" horiz-adv-x="216" 
d="M152 735v-82h-82v82h82zM76 509h72v-509h-72v509z" />
    <glyph glyph-name="j" unicode="j" horiz-adv-x="217" 
d="M-9.5 -174q9.5 -4 22.5 -4q31 0 48 17t17 47v623h73v-623q0 -37 -18.5 -68.5t-50.5 -50t-69 -18.5q-52 0 -91 36l50 54q9 -9 18.5 -13zM73 735h82v-82h-82v82z" />
    <glyph glyph-name="k" unicode="k" horiz-adv-x="526" 
d="M149 240l234 269h92l-194 -224l203 -285h-87l-162 232l-86 -100v-132h-72v742h72v-502z" />
    <glyph glyph-name="l" unicode="l" horiz-adv-x="200" 
d="M136 742v-742h-72v742h72z" />
    <glyph glyph-name="m" unicode="m" horiz-adv-x="878" 
d="M718 371q-17 28 -45 45t-58 17q-34 0 -65.5 -15.5t-51 -43t-19.5 -62.5v-312h-72v312q0 51 -31.5 85.5t-87.5 34.5q-39 0 -70 -16.5t-48.5 -43.5t-17.5 -58v-314h-73v509h73v-78q24 40 58 59t81 19q55 0 93.5 -24.5t65.5 -77.5q31 44 75 73t93 29q48 0 92 -25.5t71 -69
t27 -94.5v-320h-73v312q0 31 -17 59z" />
    <glyph glyph-name="n" unicode="n" horiz-adv-x="561" 
d="M391 393.5q-35 38.5 -96 38.5q-42 0 -76.5 -18.5t-54 -49t-19.5 -64.5v-300h-73v509h73v-87q25 45 62.5 66t90.5 21q58 0 104 -27t71.5 -73t25.5 -102v-307h-73v300q0 55 -35 93.5z" />
    <glyph glyph-name="o" unicode="o" horiz-adv-x="591" 
d="M380 91.5q39 24.5 62.5 67.5t23.5 95t-23.5 94.5t-62.5 67t-85 24.5t-85.5 -24.5t-63 -67t-23.5 -94.5t23.5 -95t63 -67.5t85.5 -24.5t85 24.5zM85 382q32 59 87.5 94.5t122.5 35.5t122.5 -35.5t88 -94.5t32.5 -128t-32.5 -128t-88 -94.5t-122.5 -35.5t-122.5 35.5
t-87.5 94.5t-32 128t32 128z" />
    <glyph glyph-name="p" unicode="p" horiz-adv-x="619" 
d="M406 88q39 25 62.5 68t23.5 95q0 51 -23.5 94t-62.5 67.5t-84 24.5q-46 0 -85 -24.5t-62.5 -67.5t-23.5 -94q0 -52 23.5 -95t62.5 -68t85 -25q45 0 84 25zM78 508h73v-107q23 51 72.5 79t99.5 28q67 0 122.5 -35t88 -94.5t32.5 -127.5q0 -69 -32.5 -128.5t-88 -95
t-122.5 -35.5q-49 0 -98.5 30t-73.5 78v-360h-73v768z" />
    <glyph glyph-name="q" unicode="q" horiz-adv-x="614" 
d="M382 88q39 25 62.5 68t23.5 95q0 51 -23.5 94t-62.5 67.5t-85 24.5q-45 0 -84 -24.5t-62.5 -67.5t-23.5 -94q0 -52 23.5 -95t62.5 -68t84 -25q46 0 85 25zM85.5 378.5q32.5 59.5 88 94.5t122.5 35q50 0 99.5 -28t72.5 -79v107h73v-768h-73v360q-24 -48 -73.5 -78
t-98.5 -30q-67 0 -122.5 35.5t-88 95t-32.5 128.5q0 68 32.5 127.5z" />
    <glyph glyph-name="r" unicode="r" horiz-adv-x="348" 
d="M208.5 502q48.5 29 101.5 29v-74q-44 0 -84 -28.5t-63.5 -71t-23.5 -83.5v-274h-72v531h72v-107q21 49 69.5 78z" />
    <glyph glyph-name="s" unicode="s" horiz-adv-x="491" 
d="M333 419q-38 25 -99 25q-62 0 -84 -39q-7 -14 -7 -27q0 -17 14 -31q11 -13 28 -22q10 -8 23 -14t22 -9l35 -10q110 -29 145 -70q13 -14 22 -35t9 -46q0 -30 -13 -55q-21 -39 -72 -64q-41 -19 -75 -20q-8 -1 -25 -1q-65 0 -128 38q-32 21 -49 44.5t-29 47.5l66 32
q9 -18 19.5 -33.5t30.5 -28.5q30 -18 54 -23.5t56 -3.5q23 2 48 14q17 8 25 14.5t13 17.5q7 13 7 24q0 13 -13 30q-11 12 -34.5 23t-76.5 25l-35 10q-40 13 -65 31q-28 16 -41 34q-14 15 -23.5 37t-9.5 48q0 28 13 57q22 39 60 56.5t74 20.5l22 1q77 0 133 -38
q37 -24 61 -62l-62 -38q-18 25 -39 40z" />
    <glyph glyph-name="t" unicode="t" horiz-adv-x="408" 
d="M259 2q-37 0 -68.5 18.5t-50 49.5t-18.5 68v306h-83v69h83v157h73v-157h118v-69h-118v-306q0 -30 16.5 -46.5t47.5 -16.5q14 0 23 3.5t18 12.5l50 -54q-38 -35 -91 -35z" />
    <glyph glyph-name="u" unicode="u" horiz-adv-x="561" 
d="M180 115.5q35 -38.5 96 -38.5q46 0 80 18t52 48t18 65v305h73v-513h-73v86q-28 -48 -61.5 -67t-91.5 -19t-103.5 27t-71.5 73t-26 101v308h73v-300q0 -55 35 -93.5z" />
    <glyph glyph-name="v" unicode="v" horiz-adv-x="579" 
d="M325 0h-70l-212 509h78l169 -418l168 418h78z" />
    <glyph glyph-name="w" unicode="w" horiz-adv-x="770" 
d="M578 0h-68l-120 387l-119 -387h-68l-155 509h76l114 -387l114 387h75l119 -387l109 387h77z" />
    <glyph glyph-name="x" unicode="x" horiz-adv-x="546" 
d="M310 254l192 -254h-92l-137 189l-137 -189h-93l192 254l-192 255h92l138 -191l137 191h93z" />
    <glyph glyph-name="y" unicode="y" horiz-adv-x="558" 
d="M226 -260h-75l93 245l-201 524h79l158 -429l156 429h79z" />
    <glyph glyph-name="z" unicode="z" horiz-adv-x="506" 
d="M455 437l-312 -365h312v-72h-404v72l313 365h-313v72h404v-72z" />
    <glyph glyph-name="braceleft" unicode="{" horiz-adv-x="382" 
d="M156 427.5q20 33.5 20 63.5v159q0 65 33.5 90t70.5 25h37v-64h-37q-21 0 -30.5 -9t-9.5 -42v-159q0 -24 -11.5 -62.5t-50.5 -66.5q39 -28 50.5 -66.5t11.5 -62.5v-160q0 -33 9.5 -42t30.5 -9h37v-64h-37q-37 0 -70.5 25t-33.5 90v160q0 29 -20 63t-91 34v64q71 0 91 33.5
z" />
    <glyph glyph-name="bar" unicode="|" horiz-adv-x="297" 
d="M176 722v-722h-55v722h55z" />
    <glyph glyph-name="braceright" unicode="}" horiz-adv-x="382" 
d="M226.5 296q-19.5 -34 -19.5 -63v-160q0 -66 -34 -90.5t-71 -24.5h-37v64h37q21 0 31 9.5t10 41.5v160q0 24 11.5 62.5t49.5 66.5q-38 28 -49.5 66.5t-11.5 62.5v159q0 32 -10 41.5t-31 9.5h-37v64h37q37 0 71 -24.5t34 -90.5v-159q0 -30 19.5 -63.5t90.5 -33.5v-64
q-71 0 -90.5 -34z" />
    <glyph glyph-name="asciitilde" unicode="~" horiz-adv-x="714" 
d="M154.5 451q47.5 24 87.5 22q36 -3 55.5 -11.5t37.5 -20.5l36 -22l13 -10l35 -20q4 -2 13 -8t21 -9.5t27 -3.5q59 0 81 59l70 -26q-24 -61 -69 -84t-86 -23q-51 0 -72 15t-23 16l-37 22l-15 10l-34 22q-3 2 -11.5 7.5t-21 9t-28.5 3.5q-58 0 -84 -62l-68 28q25 62 72.5 86
z" />
    <glyph glyph-name="yen" unicode="&#xa5;" horiz-adv-x="794" 
d="M469 403h158v-72h-195v-95h191v-71h-191v-165h-72v165h-197v71h197v95h-193v72h156l-250 319h90l233 -291l235 291h90z" />
    <glyph glyph-name="copyright" unicode="&#xa9;" horiz-adv-x="1084" 
d="M158 573q60 102 162 162t222 60t222 -60t162 -162t60 -222t-60 -222t-162 -161.5t-222 -59.5t-222 59.5t-162 161.5t-60 222t60 222zM221 166q50 -85 135.5 -135.5t185.5 -50.5t185.5 50.5t135.5 135.5t50 185t-50 185.5t-135.5 135.5t-185.5 50t-185.5 -50
t-135.5 -135.5t-50 -185.5t50 -185zM334 485q34 60 92.5 96t128.5 36q51 0 98 -20.5t82 -55.5l-53 -51q-25 26 -58 40.5t-69 14.5q-49 0 -91 -25.5t-66.5 -69.5t-24.5 -96t24.5 -96t66.5 -69t91 -25q36 0 69 14t58 40l53 -51q-35 -35 -82 -55.5t-98 -20.5q-70 0 -128.5 35.5
t-92.5 96t-34 131.5t34 131z" />
    <glyph glyph-name="uni00AD" unicode="&#xad;" horiz-adv-x="602" 
d="M532 404v-71h-462v71h462z" />
    <glyph glyph-name="registered" unicode="&#xae;" horiz-adv-x="529" 
d="M311 532h51l-52 71q19 8 30 25t11 39q0 31 -20.5 51.5t-51.5 20.5h-99v-207h42v63h43zM78 742.5q29 49.5 78.5 78.5t108.5 29q58 0 107.5 -29t78.5 -78.5t29 -108.5t-29 -108t-78 -78t-108 -29t-108.5 29t-78.5 78.5t-29 107.5q0 59 29 108.5zM117 548q23 -39 62 -61.5
t86 -22.5q46 0 85 22.5t62 61.5t23 86t-23 86t-62 62t-85 23q-47 0 -86 -23t-62 -62t-23 -86t23 -86zM222 699h58q14 0 22.5 -9t8.5 -23q0 -13 -9 -22t-22 -9h-58v63z" />
    <glyph glyph-name="degree" unicode="&#xb0;" horiz-adv-x="449" 
d="M279.5 797.5q29.5 -17.5 47 -47.5t17.5 -65t-17.5 -64.5t-47 -46.5t-64.5 -17q-54 0 -91.5 37.5t-37.5 90.5q0 35 17 65t47 47.5t65 17.5t64.5 -17.5zM162 632.5q22 -21.5 53 -21.5t53 21.5t22 52.5t-22 52.5t-53 21.5t-53 -21.5t-22 -52.5t22 -52.5z" />
    <glyph glyph-name="plusminus" unicode="&#xb1;" horiz-adv-x="654" 
d="M361 484h203v-70h-203v-202h-69v202h-202v70h202v201h69v-201zM90 107h474v-70h-474v70z" />
    <glyph glyph-name="uni00B2" unicode="&#xb2;" horiz-adv-x="376" 
d="M143 805q18 10 40 10t41 -9q21 -9 32 -25.5t11 -36.5t-10 -39q-4 -10 -14 -20l-197 -196v-43h284v52h-200l160 156q16 18 23 34q12 26 12 52q0 38 -22.5 71.5t-60.5 49.5q-28 11 -57 11q-41 0 -75.5 -20.5t-52.5 -56.5q-5 -9 -7 -20l61 -12l5 12q9 20 27 30z" />
    <glyph glyph-name="uni00B3" unicode="&#xb3;" horiz-adv-x="376" 
d="M313.5 617.5q16.5 -26.5 16.5 -58.5q0 -36 -19.5 -64.5t-52 -45t-70.5 -16.5q-37 0 -70 16.5t-52.5 45t-19.5 64.5h54q0 -31 23 -51.5t65 -20.5t65.5 20t23.5 51q0 75 -88 75h-33v56h33q42 0 62.5 18.5t20.5 48.5q0 27 -21 45t-59 18q-39 0 -59.5 -17.5t-20.5 -46.5h-54
q0 33 18.5 60t49.5 42.5t66 15.5q54 0 93 -33.5t39 -84.5q0 -29 -14.5 -53.5t-40.5 -40.5q28 -17 44.5 -43.5z" />
    <glyph glyph-name="paragraph" unicode="&#xb6;" horiz-adv-x="1000" 
d="M500 -40h58v732h80v-732h57v788h-195q-62 0 -115 -31t-84 -84.5t-31 -115.5t31 -115.5t84 -84.5t115 -31v-326z" />
    <glyph glyph-name="periodcentered" unicode="&#xb7;" horiz-adv-x="484" 
d="M297 421v-107h-110v107h110z" />
    <glyph glyph-name="uni00B9" unicode="&#xb9;" horiz-adv-x="231" 
d="M185 435h-57v370l-59 -23l-23 52l82 35h57v-434z" />
    <glyph glyph-name="multiply" unicode="&#xd7;" horiz-adv-x="722" 
d="M578 99l-217 217l-216 -216l-51 50l217 217l-217 216l51 51l216 -218l218 218l49 -51l-216 -216l217 -217z" />
    <glyph glyph-name="divide" unicode="&#xf7;" horiz-adv-x="725" 
d="M409 626v-93h-92v93h92zM72 400h581v-70h-581v70zM317 198h92v-92h-92v92z" />
    <glyph glyph-name="uni2015" unicode="&#x2015;" horiz-adv-x="1000" 
d="M922 404v-71h-844v71h844z" />
    <glyph glyph-name="quoteleft" unicode="&#x2018;" horiz-adv-x="254" 
d="M140 770h51l-30 -164h-79z" />
    <glyph glyph-name="quoteright" unicode="&#x2019;" horiz-adv-x="254" 
d="M115 605h-52l31 164h78z" />
    <glyph glyph-name="quotedblleft" unicode="&#x201c;" horiz-adv-x="409" 
d="M290 770h53l-31 -164h-78zM143 770h51l-29 -164h-80z" />
    <glyph glyph-name="quotedblright" unicode="&#x201d;" horiz-adv-x="409" 
d="M119 605h-53l31 164h78zM244 769h80l-56 -164h-53z" />
    <glyph glyph-name="twodotenleader" unicode="&#x2025;" horiz-adv-x="635" 
d="M189 406v-77h-80v77h80zM446 406h80v-77h-80v77z" />
    <glyph glyph-name="ellipsis" unicode="&#x2026;" horiz-adv-x="801" 
d="M193 406v-77h-81v77h81zM360 406h80v-77h-80v77zM608 406h81v-77h-81v77z" />
    <glyph glyph-name="minute" unicode="&#x2032;" horiz-adv-x="254" 
d="M115 605h-52l31 164h78z" />
    <glyph glyph-name="second" unicode="&#x2033;" horiz-adv-x="409" 
d="M119 605h-53l31 164h78zM244 769h80l-56 -164h-53z" />
    <glyph glyph-name="uni203B" unicode="&#x203b;" horiz-adv-x="911" 
d="M768 327h-78v78h78v-78zM406 363l-270 270l49 49l270 -270l270 271l50 -50l-271 -271l269 -269l-48 -49l-269 270l-271 -271l-49 49zM148 405h79v-78h-79v78zM417 126h80v-79h-80v79zM417 687h80v-79h-80v79z" />
    <glyph glyph-name="uni2074" unicode="&#x2074;" horiz-adv-x="418" 
d="M315 593h57v-54h-57v-104h-57v104h-212v54l217 277h52v-277zM258 593v187l-144 -187h144z" />
    <glyph glyph-name="uni2081" unicode="&#x2081;" horiz-adv-x="235" 
d="M189 -151h-57v370l-63 -24l-23 52l86 36h57v-434z" />
    <glyph glyph-name="uni2082" unicode="&#x2082;" horiz-adv-x="376" 
d="M143 217q18 10 40 10t41 -9q21 -9 32 -25.5t11 -36.5t-10 -39q-4 -10 -14 -20l-197 -196v-43h284v52h-200l160 156q16 18 23 34q12 26 12 52q0 38 -22.5 71.5t-60.5 49.5q-28 11 -57 11q-41 0 -75.5 -20.5t-52.5 -56.5q-5 -9 -7 -20l61 -12l5 12q9 20 27 30z" />
    <glyph glyph-name="uni2083" unicode="&#x2083;" horiz-adv-x="376" 
d="M313.5 36.5q16.5 -26.5 16.5 -58.5q0 -36 -19.5 -64.5t-52 -45t-70.5 -16.5q-37 0 -70 16.5t-52.5 45t-19.5 64.5h54q0 -31 23 -51.5t65 -20.5t65.5 20t23.5 51q0 75 -88 75h-33v56h33q42 0 62.5 18.5t20.5 48.5q0 27 -21 45t-59 18q-39 0 -59.5 -17.5t-20.5 -46.5h-54
q0 33 18.5 60t49.5 42.5t66 15.5q54 0 93 -33.5t39 -84.5q0 -29 -14.5 -53.5t-40.5 -40.5q28 -17 44.5 -43.5z" />
    <glyph glyph-name="uni2084" unicode="&#x2084;" horiz-adv-x="418" 
d="M315 5h57v-54h-57v-104h-57v104h-212v54l217 276h52v-276zM258 5v184l-144 -184h144z" />
    <glyph glyph-name="uni20A9" unicode="&#x20a9;" horiz-adv-x="1088" 
d="M888 410h124v-72h-143l-93 -338h-67l-92 338h-145l-92 -338h-67l-93 338h-144v72h124l-86 312h74l83 -312h152l85 311h73l85 -311h152l83 312h73zM346 129l57 209h-113zM597 410l-53 194l-53 -194h106zM743 129l56 209h-113z" />
    <glyph glyph-name="Euro" unicode="&#x20ac;" horiz-adv-x="806" 
d="M297 50.5q-89 63.5 -129 165.5h-111v75h90q-6 32 -6 65q0 35 6 68h-90v74h111q41 102 130 164.5t199 62.5q73 0 138 -28.5t114 -79.5l-52 -51q-40 41 -90.5 63.5t-108.5 22.5q-78 0 -145 -42t-104 -112h153v-74h-180q-8 -35 -8 -68q0 -36 7 -65h181v-75h-154
q36 -71 103.5 -114t146.5 -43q57 0 108 23t91 64l52 -51q-49 -51 -114 -79.5t-138 -28.5q-111 0 -200 63.5z" />
    <glyph glyph-name="uni2103" unicode="&#x2103;" horiz-adv-x="1078" 
d="M292.5 798.5q29.5 -17.5 47 -47.5t17.5 -65t-17.5 -64.5t-47 -46.5t-64.5 -17t-65 17t-47.5 46.5t-17.5 64.5t17.5 65t47.5 47.5t65 17.5t64.5 -17.5zM175.5 634q22.5 -22 52.5 -22q31 0 52.5 21.5t21.5 52.5t-21.5 53t-52.5 22q-30 0 -52.5 -22t-22.5 -53
q0 -30 22.5 -52zM429.5 545.5q44.5 84.5 121.5 134.5t170 50q69 0 130.5 -28.5t108.5 -79.5l-54 -49q-37 40 -83.5 62t-99.5 22q-71 0 -132 -39t-97.5 -106.5t-36.5 -149.5q0 -81 36.5 -149t97.5 -107t132 -39q53 0 99.5 22t83.5 62l54 -48q-47 -51 -108.5 -80t-130.5 -29
q-93 0 -170 50t-121.5 134.5t-44.5 183.5t44.5 183.5z" />
    <glyph glyph-name="uni2109" unicode="&#x2109;" horiz-adv-x="1071" 
d="M292 796.5q30 -17.5 47 -47.5t17 -65q0 -53 -37.5 -90.5t-91.5 -37.5q-35 0 -64.5 17t-47 46.5t-17.5 64.5t17.5 65t47 47.5t64.5 17.5t65 -17.5zM174.5 631.5q21.5 -21.5 52.5 -21.5t53 21.5t22 52.5t-22 53.5t-53 22.5t-52.5 -22t-21.5 -54q0 -31 21.5 -52.5zM471 720
h483v-69h-411v-256h366v-69h-366v-326h-72v720z" />
    <glyph glyph-name="trademark" unicode="&#x2122;" horiz-adv-x="962" 
d="M403 805h-135v-384h-56v384h-135v55h326v-55zM459 853h56l158 -271l157 271h56v-432h-56v317l-132 -226h-50l-133 226v-317h-56v432z" />
    <glyph glyph-name="arrowleft" unicode="&#x2190;" horiz-adv-x="1000" 
d="M245 364l370 371l51 -49l-321 -322l321 -321l-51 -50z" />
    <glyph glyph-name="arrowup" unicode="&#x2191;" horiz-adv-x="1000" 
d="M129 194l370 370l372 -370l-50 -50l-322 321l-322 -321z" />
    <glyph glyph-name="arrowright" unicode="&#x2192;" horiz-adv-x="1000" 
d="M334 43l321 321l-321 322l51 49l370 -371l-370 -371z" />
    <glyph glyph-name="arrowdown" unicode="&#x2193;" horiz-adv-x="1000" 
d="M129 498l48 50l322 -321l322 321l50 -50l-372 -370z" />
    <glyph glyph-name="arrowboth" unicode="&#x2194;" horiz-adv-x="1000" 
d="M60 374l228 228l51 -50l-143 -143h607l-142 143l50 50l228 -228l-228 -228l-50 50l141 142l-606 1l143 -143l-51 -50z" />
    <glyph glyph-name="arrowupdn" unicode="&#x2195;" horiz-adv-x="1000" 
d="M272 209l50 50l142 -141l1 487l-143 -143l-50 51l228 228l228 -228l-50 -51l-143 143v-488l143 142l50 -50l-228 -228z" />
    <glyph glyph-name="uni2196" unicode="&#x2196;" horiz-adv-x="1000" 
d="M640 722v-71h-378l592 -593l-49 -50l-594 592v-378h-71v500h500z" />
    <glyph glyph-name="uni2197" unicode="&#x2197;" horiz-adv-x="1000" 
d="M865 222h-72v378l-593 -592l-49 50l592 593h-379v71h501v-500z" />
    <glyph glyph-name="uni2198" unicode="&#x2198;" horiz-adv-x="1000" 
d="M364 0v71h379l-592 593l49 50l593 -593v380h72v-501h-501z" />
    <glyph glyph-name="uni2199" unicode="&#x2199;" horiz-adv-x="1000" 
d="M140 501h71v-380l594 593l49 -50l-592 -593h378v-71h-500v501z" />
    <glyph glyph-name="uni2219" unicode="&#x2219;" horiz-adv-x="484" 
d="M297 421v-107h-110v107h110z" />
    <glyph glyph-name="circleplus" unicode="&#x2295;" horiz-adv-x="1084" 
d="M158 573q60 102 162 162t222 60t222 -60t162 -162t60 -222t-60 -222t-162 -161.5t-222 -59.5t-222 59.5t-162 161.5t-60 222t60 222zM221 166q50 -85 135.5 -135.5t185.5 -50.5t185.5 50.5t135.5 135.5t50 185t-50 185.5t-135.5 135.5t-185.5 50t-185.5 -50
t-135.5 -135.5t-50 -185.5t50 -185zM324 380h184v184h71v-184h184v-71h-184v-184h-71v184h-184v71z" />
    <glyph glyph-name="uni2296" unicode="&#x2296;" horiz-adv-x="1084" 
d="M158 573q60 102 162 162t222 60t222 -60t162 -162t60 -222t-60 -222t-162 -161.5t-222 -59.5t-222 59.5t-162 161.5t-60 222t60 222zM221 166q50 -85 135.5 -135.5t185.5 -50.5t185.5 50.5t135.5 135.5t50 185t-50 185.5t-135.5 135.5t-185.5 50t-185.5 -50
t-135.5 -135.5t-50 -185.5t50 -185zM316 380h439v-71h-439v71z" />
    <glyph glyph-name="circlemultiply" unicode="&#x2297;" horiz-adv-x="1084" 
d="M158 573q60 102 162 162t222 60t222 -60t162 -162t60 -222t-60 -222t-162 -161.5t-222 -59.5t-222 59.5t-162 161.5t-60 222t60 222zM221 166q50 -85 135.5 -135.5t185.5 -50.5t185.5 50.5t135.5 135.5t50 185t-50 185.5t-135.5 135.5t-185.5 50t-185.5 -50
t-135.5 -135.5t-50 -185.5t50 -185zM385 135l158 159l158 -158l49 51l-157 157l158 158l-50 51l-158 -159l-159 158l-48 -50l157 -158l-157 -157z" />
    <glyph glyph-name="uni2460" unicode="&#x2460;" horiz-adv-x="1064" 
d="M119.5 573.5q59.5 101.5 161.5 161.5t222 60t222 -60t162 -162t60 -222t-60 -222t-162 -161.5t-222 -59.5t-222 59.5t-161.5 161.5t-59.5 222q0 121 59.5 222.5zM182.5 166q50.5 -85 135.5 -135.5t185 -50.5t185.5 50.5t135.5 135.5t50 185t-50 185.5t-135.5 135.5
t-185.5 50t-185 -50t-135.5 -135.5t-50.5 -185.5t50.5 -185zM486 615h67v-514h-67v442l-75 -29l-23 59z" />
    <glyph glyph-name="uni2461" unicode="&#x2461;" horiz-adv-x="1064" 
d="M119.5 573.5q59.5 101.5 161.5 161.5t222 60t222 -60t162 -162t60 -222t-60 -222t-162 -161.5t-222 -59.5t-222 59.5t-161.5 161.5t-59.5 222q0 121 59.5 222.5zM182.5 166q50.5 -85 135.5 -135.5t185 -50.5t185.5 50.5t135.5 135.5t50 185t-50 185.5t-135.5 135.5
t-185.5 50t-185 -50t-135.5 -135.5t-50.5 -185.5t50.5 -185zM408 504l5 14q12 24 36.5 37.5t51.5 13.5q23 0 45 -11q27 -11 42 -32.5t15 -46.5q0 -22 -10 -42q-5 -8 -17 -24l-219 -246v-51h330v61h-236l177 197q11 11 27 39q14 29 14 63q0 45 -26.5 84t-71.5 58
q-34 14 -69 14q-48 0 -89.5 -24t-62.5 -67q-2 -4 -4 -10t-4 -14z" />
    <glyph glyph-name="uni2462" unicode="&#x2462;" horiz-adv-x="1064" 
d="M119.5 573.5q59.5 101.5 161.5 161.5t222 60t222 -60t162 -162t60 -222t-60 -222t-162 -161.5t-222 -59.5t-222 59.5t-161.5 161.5t-59.5 222q0 121 59.5 222.5zM182.5 166q50.5 -85 135.5 -135.5t185 -50.5t185.5 50.5t135.5 135.5t50 185t-50 185.5t-135.5 135.5
t-185.5 50t-185 -50t-135.5 -135.5t-50.5 -185.5t50.5 -185zM400 242q0 -38 29 -63.5t79 -25.5q49 0 79 25.5t30 62.5q0 40 -25 65t-83 25h-38v64h38q51 0 75.5 22.5t24.5 58.5q0 33 -26 55.5t-71 22.5t-71 -22.5t-26 -56.5h-61q0 39 22 71.5t58.5 50.5t77.5 18t77.5 -18.5
t58.5 -50.5t22 -72q0 -35 -18 -63.5t-50 -48.5q35 -19 55 -50.5t20 -69.5q0 -42 -23.5 -76.5t-62.5 -54t-83 -19.5t-83 19.5t-62.5 54t-23.5 76.5h61z" />
    <glyph glyph-name="uni2463" unicode="&#x2463;" horiz-adv-x="1064" 
d="M119.5 573.5q59.5 101.5 161.5 161.5t222 60t222 -60t162 -162t60 -222t-60 -222t-162 -161.5t-222 -59.5t-222 59.5t-161.5 161.5t-59.5 222q0 121 59.5 222.5zM182.5 166q50.5 -85 135.5 -135.5t185 -50.5t185.5 50.5t135.5 135.5t50 185t-50 185.5t-135.5 135.5
t-185.5 50t-185 -50t-135.5 -135.5t-50.5 -185.5t50.5 -185zM290 284l249 332h61v-332h71v-59h-71v-123h-61v123h-249v59zM539 284v243l-176 -243h176z" />
    <glyph glyph-name="uni2464" unicode="&#x2464;" horiz-adv-x="1064" 
d="M119.5 573.5q59.5 101.5 161.5 161.5t222 60t222 -60t162 -162t60 -222t-60 -222t-162 -161.5t-222 -59.5t-222 59.5t-161.5 161.5t-59.5 222q0 121 59.5 222.5zM182.5 166q50.5 -85 135.5 -135.5t185 -50.5t185.5 50.5t135.5 135.5t50 185t-50 185.5t-135.5 135.5
t-185.5 50t-185 -50t-135.5 -135.5t-50.5 -185.5t50.5 -185zM392 214l9 -13q16 -24 44 -38.5t61 -14.5q51 0 82.5 32t31.5 80q0 50 -32 81.5t-82 31.5q-26 0 -52 -11.5t-43 -33.5l-39 29l6 252h269v-59h-210l-4 -135q38 18 71 18q48 0 88.5 -23t64.5 -62.5t24 -87.5
q0 -47 -23.5 -87t-64 -63t-87.5 -23q-45 0 -89.5 22t-68.5 58l-11 17z" />
    <glyph glyph-name="uni2465" unicode="&#x2465;" horiz-adv-x="1064" 
d="M119.5 573.5q59.5 101.5 161.5 161.5t222 60t222 -60t162 -162t60 -222t-60 -222t-162 -161.5t-222 -59.5t-222 59.5t-161.5 161.5t-59.5 222q0 121 59.5 222.5zM182.5 166q50.5 -85 135.5 -135.5t185 -50.5t185.5 50.5t135.5 135.5t50 185t-50 185.5t-135.5 135.5
t-185.5 50t-185 -50t-135.5 -135.5t-50.5 -185.5t50.5 -185zM342 328l182 291l52 -30l-109 -173q20 3 40 3q47 0 84.5 -21t59 -57.5t21.5 -80.5q0 -45 -23.5 -82t-63 -58t-86.5 -21t-86.5 21t-63 58t-23.5 82q0 36 16 68zM417.5 188q30.5 -28 81.5 -28t81.5 28t30.5 72
q0 43 -30 70.5t-81 27.5t-82 -27.5t-31 -70.5q0 -44 30.5 -72z" />
    <glyph glyph-name="uni2466" unicode="&#x2466;" horiz-adv-x="1064" 
d="M119.5 573.5q59.5 101.5 161.5 161.5t222 60t222 -60t162 -162t60 -222t-60 -222t-162 -161.5t-222 -59.5t-222 59.5t-161.5 161.5t-59.5 222q0 121 59.5 222.5zM182.5 166q50.5 -85 135.5 -135.5t185 -50.5t185.5 50.5t135.5 135.5t50 185t-50 185.5t-135.5 135.5
t-185.5 50t-185 -50t-135.5 -135.5t-50.5 -185.5t50.5 -185zM352 594h332v-51l-241 -464l-54 29l230 430l-267 -3v59z" />
    <glyph glyph-name="uni2467" unicode="&#x2467;" horiz-adv-x="1064" 
d="M119.5 573.5q59.5 101.5 161.5 161.5t222 60t222 -60t162 -162t60 -222t-60 -222t-162 -161.5t-222 -59.5t-222 59.5t-161.5 161.5t-59.5 222q0 121 59.5 222.5zM182.5 166q50.5 -85 135.5 -135.5t185 -50.5t185.5 50.5t135.5 135.5t50 185t-50 185.5t-135.5 135.5
t-185.5 50t-185 -50t-135.5 -135.5t-50.5 -185.5t50.5 -185zM359.5 319q23.5 33 59.5 53q-31 20 -50 48t-19 61q0 40 22 72t58 50t77 18q42 0 78 -18t58 -50t22 -72q0 -33 -18.5 -61t-49.5 -48q35 -20 58 -52.5t23 -70.5q0 -43 -23.5 -77.5t-63 -54.5t-84.5 -20t-84.5 20
t-63 54.5t-23.5 77.5q0 37 23.5 70zM427.5 184q29.5 -26 79.5 -26t79.5 26t29.5 64t-29.5 63t-79.5 25t-79.5 -25t-29.5 -63t29.5 -64zM437 427.5q25 -21.5 70 -21.5t70 21.5t25 54.5q0 34 -25 56t-70 22t-70 -22t-25 -56q0 -33 25 -54.5z" />
    <glyph glyph-name="uni2468" unicode="&#x2468;" horiz-adv-x="1064" 
d="M119.5 573.5q59.5 101.5 161.5 161.5t222 60t222 -60t162 -162t60 -222t-60 -222t-162 -161.5t-222 -59.5t-222 59.5t-161.5 161.5t-59.5 222q0 121 59.5 222.5zM182.5 166q50.5 -85 135.5 -135.5t185 -50.5t185.5 50.5t135.5 135.5t50 185t-50 185.5t-135.5 135.5
t-185.5 50t-185 -50t-135.5 -135.5t-50.5 -185.5t50.5 -185zM365.5 534.5q23.5 36.5 63.5 58t87 21.5q46 0 85.5 -21.5t63 -58.5t23.5 -81q0 -39 -16 -68l-182 -291l-52 29l110 175q-15 -4 -41 -4q-45 0 -83 20.5t-60 57t-22 81.5t23.5 81.5zM432 381.5q30 -27.5 82 -27.5
q50 0 81.5 28t31.5 71t-31 71t-81 28q-51 0 -82 -28t-31 -71q0 -44 30 -71.5z" />
    <glyph glyph-name="uni2469" unicode="&#x2469;" horiz-adv-x="1064" 
d="M119.5 573.5q59.5 101.5 161.5 161.5t222 60t222 -60t162 -162t60 -222t-60 -222t-162 -161.5t-222 -59.5t-222 59.5t-161.5 161.5t-59.5 222q0 121 59.5 222.5zM182.5 166q50.5 -85 135.5 -135.5t185 -50.5t185.5 50.5t135.5 135.5t50 185t-50 185.5t-135.5 135.5
t-185.5 50t-185 -50t-135.5 -135.5t-50.5 -185.5t50.5 -185zM335 576h57v-454h-57v399l-53 -23l-20 47zM459 441q5 35 24 67q14 29 45 50.5t80 21.5t80 -21.5t45 -50.5q19 -32 23.5 -66.5t4.5 -91.5q0 -58 -4.5 -93.5t-23.5 -66.5q-14 -29 -45 -50.5t-80 -21.5t-80 21.5
t-45 50.5q-19 32 -24 68t-5 92t5 91zM511 268.5q4 -28.5 18 -52.5q9 -18 29 -31.5t49 -13.5q55 0 79 45q14 23 18 52t4 82q0 52 -4 81t-18 53q-24 43 -79 43q-28 0 -48.5 -12.5t-29.5 -29.5q-14 -24 -18 -53.5t-4 -81.5q0 -53 4 -81.5z" />
    <glyph glyph-name="uni246A" unicode="&#x246a;" horiz-adv-x="1064" 
d="M119.5 573.5q59.5 101.5 161.5 161.5t222 60t222 -60t162 -162t60 -222t-60 -222t-162 -161.5t-222 -59.5t-222 59.5t-161.5 161.5t-59.5 222q0 121 59.5 222.5zM182.5 166q50.5 -85 135.5 -135.5t185 -50.5t185.5 50.5t135.5 135.5t50 185t-50 185.5t-135.5 135.5
t-185.5 50t-185 -50t-135.5 -135.5t-50.5 -185.5t50.5 -185zM381 581h56v-454h-56v399l-53 -23l-20 47zM593 581h57v-454h-57v399l-52 -23l-21 47z" />
    <glyph glyph-name="uni246B" unicode="&#x246b;" horiz-adv-x="1064" 
d="M281 -32.5q-102 59.5 -161.5 161.5t-59.5 222q0 121 59.5 222.5t161.5 161.5t222 60t222 -60t162 -162t60 -222t-60 -222t-162 -161.5t-222 -59.5t-222 59.5zM182.5 166q50.5 -85 135.5 -135.5t185 -50.5t185.5 50.5t135.5 135.5t50 185t-50 185.5t-135.5 135.5
t-185.5 50t-185 -50t-135.5 -135.5t-50.5 -185.5t50.5 -185zM330 583h56v-453h-56v398l-55 -23l-20 47zM456 509q18 38 54 59t78 21q30 0 62 -13q39 -16 62.5 -50t23.5 -74q0 -30 -13 -56q-11 -22 -23 -33l-155 -178h208v-51h-288v44l194 216q5 6 14 22q9 20 9 39
q0 23 -13.5 42.5t-37.5 29.5q-19 10 -43 10q-25 0 -47 -12t-34 -34q-2 -5 -4 -15l-55 13z" />
    <glyph glyph-name="uni246C" unicode="&#x246c;" horiz-adv-x="1064" 
d="M119.5 573.5q59.5 101.5 161.5 161.5t222 60t222 -60t162 -162t60 -222t-60 -222t-162 -161.5t-222 -59.5t-222 59.5t-161.5 161.5t-59.5 222q0 121 59.5 222.5zM182.5 166q50.5 -85 135.5 -135.5t185 -50.5t185.5 50.5t135.5 135.5t50 185t-50 185.5t-135.5 135.5
t-185.5 50t-185 -50t-135.5 -135.5t-50.5 -185.5t50.5 -185zM333 579h57v-454h-57v400l-53 -23l-20 46zM502 254q0 -34 25.5 -56.5t69.5 -22.5t70 22.5t26 55.5q0 36 -22 58.5t-73 22.5h-33v55h33q45 0 67 20t22 53q0 28 -23.5 48t-62.5 20q-40 0 -63 -20t-23 -50h-53
q0 35 19.5 63t51.5 44t68 16t68 -16t51 -44.5t19 -62.5q0 -31 -15.5 -56.5t-43.5 -42.5q31 -17 49 -45.5t18 -61.5q0 -37 -21 -67t-55.5 -47t-73.5 -17t-73 17t-54.5 47t-20.5 67h53z" />
    <glyph glyph-name="uni246D" unicode="&#x246d;" horiz-adv-x="1064" 
d="M119.5 573.5q59.5 101.5 161.5 161.5t222 60t222 -60t162 -162t60 -222t-60 -222t-162 -161.5t-222 -59.5t-222 59.5t-161.5 161.5t-59.5 222q0 121 59.5 222.5zM182.5 166q50.5 -85 135.5 -135.5t185 -50.5t185.5 50.5t135.5 135.5t50 185t-50 185.5t-135.5 135.5
t-185.5 50t-185 -50t-135.5 -135.5t-50.5 -185.5t50.5 -185zM339 579h57v-454h-57v400l-53 -23l-20 46zM440 288l219 294h55v-294h62v-52h-62v-109h-55v109h-219v52zM659 288v215l-156 -215h156z" />
    <glyph glyph-name="uni246E" unicode="&#x246e;" horiz-adv-x="1064" 
d="M119.5 573.5q59.5 101.5 161.5 161.5t222 60t222 -60t162 -162t60 -222t-60 -222t-162 -161.5t-222 -59.5t-222 59.5t-161.5 161.5t-59.5 222q0 121 59.5 222.5zM182.5 166q50.5 -85 135.5 -135.5t185 -50.5t185.5 50.5t135.5 135.5t50 185t-50 185.5t-135.5 135.5
t-185.5 50t-185 -50t-135.5 -135.5t-50.5 -185.5t50.5 -185zM338 577h57v-454h-57v400l-54 -23l-20 47zM500 227l9 -11q14 -21 38.5 -34t53.5 -13q45 0 73.5 28t28.5 71q0 44 -29 72t-73 28q-22 0 -45 -10t-38 -29l-36 26l5 221h237v-52h-185l-3 -120q34 16 63 16
q42 0 78 -20.5t57 -55t21 -76.5q0 -41 -21 -76t-56.5 -55.5t-77.5 -20.5q-39 0 -78 19.5t-60 51.5l-9 14z" />
    <glyph glyph-name="uni24C3" unicode="&#x24c3;" horiz-adv-x="934" 
d="M571 516v-227l-208 227h-50v-312h49v231l210 -231h50v312h-51zM162 537q47 81 128 128.5t177 47.5t177 -47.5t128 -128.5t47 -177t-47 -177t-128 -128t-177 -47t-177 47t-128 128t-47 177t47 177z" />
    <glyph glyph-name="uni24D8" unicode="&#x24d8;" horiz-adv-x="1084" 
d="M158 573q60 102 162 162t222 60t222 -60t162 -162t60 -222t-60 -222t-162 -161.5t-222 -59.5t-222 59.5t-162 161.5t-60 222t60 222zM221 166q50 -85 135.5 -135.5t185.5 -50.5t185.5 50.5t135.5 135.5t50 185t-50 185.5t-135.5 135.5t-185.5 50t-185.5 -50
t-135.5 -135.5t-50 -185.5t50 -185zM456 466h128v-382h-66v316h-62v66zM509 619h84v-84h-84v84z" />
    <glyph glyph-name="filledbox" unicode="&#x25a0;" horiz-adv-x="1000" 
d="M859 722v-718h-718v718h718z" />
    <glyph glyph-name="uni25A1" unicode="&#x25a1;" horiz-adv-x="1000" 
d="M859 722v-718h-718v718h718zM774 89v548h-548v-548h548z" />
    <glyph glyph-name="uni25A3" unicode="&#x25a3;" horiz-adv-x="1000" 
d="M360 223l1 279h278v-278zM141 722h718v-718h-718v718zM774 89v548h-548v-548h548z" />
    <glyph glyph-name="triagup" unicode="&#x25b2;" horiz-adv-x="1000" 
d="M895 38h-789l395 646z" />
    <glyph glyph-name="uni25B3" unicode="&#x25b3;" horiz-adv-x="1000" 
d="M106 38l394 646l395 -646h-789zM764 112l-264 432l-264 -432h528z" />
    <glyph glyph-name="uni25B6" unicode="&#x25b6;" horiz-adv-x="1000" 
d="M197 -31v788l646 -394z" />
    <glyph glyph-name="uni25B7" unicode="&#x25b7;" horiz-adv-x="1000" 
d="M197 764l646 -393l-646 -395v788zM702 371l-432 263v-528z" />
    <glyph glyph-name="triagdn" unicode="&#x25bc;" horiz-adv-x="1000" 
d="M106 684h789l-394 -646z" />
    <glyph glyph-name="uni25BD" unicode="&#x25bd;" horiz-adv-x="1000" 
d="M500 38l-394 646h789zM500 179l264 432h-528z" />
    <glyph glyph-name="uni25C0" unicode="&#x25c0;" horiz-adv-x="1000" 
d="M803 757v-788l-646 394z" />
    <glyph glyph-name="uni25C1" unicode="&#x25c1;" horiz-adv-x="1000" 
d="M157 371l646 393v-788zM730 106v528l-432 -263z" />
    <glyph glyph-name="uni25C6" unicode="&#x25c6;" horiz-adv-x="1000" 
d="M930 363l-430 -430l-430 430l430 430z" />
    <glyph glyph-name="uni25C7" unicode="&#x25c7;" horiz-adv-x="1000" 
d="M930 363l-430 -430l-430 430l430 430zM500 35l329 328l-329 329l-328 -329z" />
    <glyph glyph-name="uni25C8" unicode="&#x25c8;" horiz-adv-x="1000" 
d="M332 363l168 167l167 -167l-167 -167zM500 793l430 -430l-430 -430l-430 430zM500 35l328 328l-328 329l-329 -329z" />
    <glyph glyph-name="circle" unicode="&#x25cb;" horiz-adv-x="1000" 
d="M644 111.5q66 38.5 104.5 104.5t38.5 144t-38.5 144t-104.5 104.5t-144 38.5t-144 -38.5t-104.5 -104.5t-38.5 -144t38.5 -144t104.5 -104.5t144 -38.5t144 38.5zM188.5 540.5q48.5 82.5 131 131t180.5 48.5t180.5 -48.5t131 -131t48.5 -180.5t-48.5 -180.5t-131 -131
t-180.5 -48.5t-180.5 48.5t-131 131t-48.5 180.5t48.5 180.5z" />
    <glyph glyph-name="uni25CE" unicode="&#x25ce;" horiz-adv-x="1000" 
d="M644 111.5q66 38.5 104.5 104.5t38.5 144t-38.5 144t-104.5 104.5t-144 38.5q-79 0 -144.5 -38.5t-104 -104.5t-38.5 -144t38.5 -144t104 -104.5t144.5 -38.5q78 0 144 38.5zM188.5 540.5q48.5 82.5 131 131t180.5 48.5t180.5 -48.5t131 -131t48.5 -180.5t-48.5 -180.5
t-131 -131t-180.5 -48.5t-180.5 48.5t-131 131t-48.5 180.5t48.5 180.5zM344 450.5q24 41.5 65.5 65.5t90.5 24t90.5 -24t65.5 -65.5t24 -90.5t-24 -90.5t-65.5 -65.5t-90.5 -24t-90.5 24t-65.5 65.5t-24 90.5t24 90.5zM412 272.5q36 -36.5 88 -36.5q33 0 61.5 17t45.5 45.5
t17 61.5t-17 62t-45.5 46t-61.5 17q-34 0 -62.5 -17t-45 -45.5t-16.5 -62.5q0 -51 36 -87.5z" />
    <glyph glyph-name="uni25CF" unicode="&#x25cf;" horiz-adv-x="1000" 
d="M319.5 48.5q-82.5 48.5 -131 131t-48.5 180.5t48.5 180.5t131 131t180.5 48.5t180.5 -48.5t131 -131t48.5 -180.5t-48.5 -180.5t-131 -131t-180.5 -48.5t-180.5 48.5z" />
    <glyph glyph-name="uni25D0" unicode="&#x25d0;" horiz-adv-x="1000" 
d="M644 111.5q66 38.5 104.5 104.5t38.5 144t-38.5 144t-104.5 104.5t-144 38.5v-574q78 0 144 38.5zM188.5 540.5q48.5 82.5 131 131t180.5 48.5t180.5 -48.5t131 -131t48.5 -180.5t-48.5 -180.5t-131 -131t-180.5 -48.5t-180.5 48.5t-131 131t-48.5 180.5t48.5 180.5z" />
    <glyph glyph-name="uni25D1" unicode="&#x25d1;" horiz-adv-x="1000" 
d="M356 608.5q-66 -38.5 -104.5 -104.5t-38.5 -144t38.5 -144t104.5 -104.5t144 -38.5v574q-78 0 -144 -38.5zM188.5 540.5q48.5 82.5 131 131t180.5 48.5t180.5 -48.5t131 -131t48.5 -180.5t-48.5 -180.5t-131 -131t-180.5 -48.5t-180.5 48.5t-131 131t-48.5 180.5
t48.5 180.5z" />
    <glyph glyph-name="uni2605" unicode="&#x2605;" horiz-adv-x="1000" 
d="M610 483l306 -25l-238 -187l79 -310l-256 171l-257 -171l79 310l-238 187l306 25l110 285z" />
    <glyph glyph-name="uni2606" unicode="&#x2606;" horiz-adv-x="1000" 
d="M433 426l-191 -15l148 -117l-50 -198l161 107l160 -107l-50 198l148 117l-191 15l-67 176zM391 482l110 286l109 -286l305 -24l-237 -187l78 -310l-255 171l-256 -171l78 310l-237 187z" />
    <glyph glyph-name="uni260E" unicode="&#x260e;" horiz-adv-x="1000" 
d="M596 -17q63 -35 99 -35q16 0 26.5 5.5t18.5 12.5t11 9l77 65q44 37 44 64q0 11 -5.5 20t-12.5 16l-10 10l-75 76q-38 39 -68 39q-22 0 -41 -21l-44 -45q-65 65 -107 116l-16 18q-35 44 -53 69.5t-52 79.5l52 32q14 9 22 20t8 27q0 28 -24 65l-58 88q-2 3 -10 14.5
t-17.5 18t-20.5 6.5q-25 0 -64 -31l-80 -61q-2 -2 -14 -12t-18 -24.5t-6 -34.5q0 -32 14 -84q18 -68 69 -144t106 -147q147 -176 249 -232z" />
    <glyph glyph-name="uni260F" unicode="&#x260f;" horiz-adv-x="1000" 
d="M226 347q-55 82 -74 153q-14 53 -14 90q0 34 10 50.5t21 25t14 11.5l80 61q46 36 78 36q21 0 34.5 -12t20.5 -22.5l9 -13.5l58 -89q27 -40 27 -75q0 -42 -39 -66l-34 -21q29 -44 46 -67.5t47 -60.5q5 -7 31 -38t75 -80l28 29q25 27 57 27q40 0 83 -44l75 -76
q2 -2 12 -12.5t16 -23t6 -25.5q0 -38 -52 -80l-77 -66q-3 -2 -13.5 -11t-24 -14.5t-29.5 -5.5q-43 0 -112 38q-106 58 -254 237q-50 63 -105 145zM275 380.5q49 -72.5 102 -141.5q62 -73 118 -130.5t118 -91.5q35 -18 51 -25t26 -7q9 0 16.5 4.5t19.5 14.5l77 66q3 2 13 10
t13.5 12.5t3.5 8.5t-5 10t-12 13l-74 75q-13 14 -22.5 22t-15.5 8t-17 -12l-70 -73q-59 59 -86.5 89t-44 49.5t-22.5 26.5q-33 42 -56 74t-74 111l85 52q7 5 11.5 9t4.5 8q0 6 -6 16.5t-16 24.5l-57 89q-4 6 -7 11.5t-5.5 8.5t-5.5 3q-9 0 -38 -25l-80 -61
q-15 -12 -20.5 -19t-5.5 -20q0 -17 15 -76q17 -62 66 -134.5z" />
    <glyph glyph-name="uni261C" unicode="&#x261c;" horiz-adv-x="1000" 
d="M381 34h-12q-34 0 -57 22t-23 54q0 21 11 40q-17 10 -27 26.5t-10 36.5q0 22 12 40q-16 10 -25.5 27t-9.5 37q0 14 5 27h-97q-39 0 -64.5 21t-25.5 57t25.5 57.5t64.5 21.5h292l-40 39q-25 25 -25 63t25 63q26 26 63 26q38 0 63 -26l98 -98q28 -28 64.5 -43t76.5 -15h101
q31 0 54 -23t23 -54v-233q0 -27 -14.5 -49.5t-38.5 -33.5l-67 -30q-127 -54 -257 -54h-185v1zM116 400q7 -5 32 -5h247v-51h-76q-15 0 -21.5 -6t-6.5 -21q0 -14 6.5 -20t21.5 -6h110v-52h-81q-34 0 -34 -26q0 -12 7 -18t22 -6h132v-51h-106q-29 0 -29 -28q0 -13 6.5 -19
t22.5 -6l205 -1q113 1 229 50l65 29q14 7 19 14.5t5 22.5v233q0 15 -5.5 20.5t-20.5 5.5h-101q-50 0 -96 19t-81 54l-98 98q-15 15 -27 15t-27 -15q-14 -14 -14 -27q0 -11 14 -27l129 -126h-417q-25 0 -32 -5t-7 -23q0 -17 7 -22z" />
    <glyph glyph-name="uni261D" unicode="&#x261d;" horiz-adv-x="1000" 
d="M468 468v247q0 25 -5 32t-22 7t-22.5 -7t-5.5 -32v-417l-126 129q-13 14 -27 14q-13 0 -27 -14q-15 -15 -15 -27t15 -27l98 -98q35 -35 54 -81t19 -96v-101q0 -15 5.5 -20.5t20.5 -5.5h233q15 0 22.5 5t14.5 19l29 65q51 121 51 237v197q0 30 -26 30q-27 0 -27 -30v-106
h-51v132q0 30 -26 30q-25 0 -25 -35v-81h-52v110q0 30 -27 30q-14 0 -20 -7t-6 -23v-73h-1v-3h-51zM171 400q0 37 26 63t63 26t63 -26l39 -40v292q0 39 21.5 64.5t57.5 25.5t57 -25.5t21 -64.5v-95q13 5 27 5q20 0 37 -9.5t28 -26.5q17 12 39 12q20 0 37 -10t28 -27
q17 11 39 11q32 0 54.5 -23.5t22.5 -57.5v-197q0 -128 -55 -257l-30 -67q-11 -24 -33.5 -38.5t-49.5 -14.5h-233q-31 0 -54 23t-23 54v101q0 40 -15 76.5t-43 64.5l-98 98q-26 28 -26 63z" />
    <glyph glyph-name="uni261E" unicode="&#x261e;" horiz-adv-x="1000" 
d="M606 395h247q25 0 32 5t7 22q0 18 -7 23t-32 5h-417l129 126q14 14 14 27q0 14 -14 27q-15 15 -27 15t-27 -15l-98 -98q-35 -35 -81 -54t-96 -19h-101q-15 0 -20.5 -5.5t-5.5 -20.5v-233q0 -15 5 -22.5t19 -14.5l65 -29q119 -50 237 -50l117 1h80q30 0 30 25q0 28 -30 28
h-106v51h132q30 0 30 24q0 26 -35 26h-81v52h110q16 0 23 6t7 20t-7 20.5t-23 6.5h-76v51zM58 433q0 31 23 54t54 23h101q40 0 76.5 15t64.5 43l98 98q26 26 63 26q38 0 63 -26q26 -26 26 -63t-26 -63l-40 -39h292q39 0 64.5 -21.5t25.5 -57.5t-25.5 -57t-64.5 -21h-95
q5 -13 5 -27q0 -20 -9.5 -37t-26.5 -28q12 -16 12 -39q0 -19 -10 -36t-27 -27q11 -19 11 -40q0 -32 -23.5 -54t-57.5 -22l-197 -1q-130 0 -257 54l-67 30q-24 11 -38.5 33.5t-14.5 49.5v233z" />
    <glyph glyph-name="uni261F" unicode="&#x261f;" horiz-adv-x="1000" 
d="M808.5 174q-22.5 -23 -54.5 -23q-22 0 -39 11q-11 -17 -28 -27t-37 -10q-22 0 -39 12q-11 -17 -28 -26t-37 -9q-14 0 -27 5v-97q0 -39 -21 -64.5t-57 -25.5t-57.5 25.5t-21.5 64.5v292l-39 -40q-25 -25 -63 -25t-63 25q-26 28 -26 63q0 37 26 63l98 98q28 28 43 64.5
t15 76.5v101q0 31 23 54t54 23h233q27 0 49.5 -14.5t33.5 -38.5l30 -67q54 -127 54 -257l1 -117v-80q0 -34 -22.5 -57zM260 284q13 0 27 14l126 129v-417q0 -25 5.5 -32t22.5 -7t22 7t5 32v247h51v-3h1v-73q0 -16 6 -22t20 -6q27 0 27 28v110h52v-81q0 -34 25 -34
q26 0 26 29v132h51v-106q0 -29 27 -29q26 0 26 29v66l-1 131q0 118 -50 237l-29 65q-7 14 -14.5 19t-22.5 5h-233q-15 0 -20.5 -5.5t-5.5 -20.5v-101q0 -50 -19 -96t-54 -81l-98 -98q-15 -15 -15 -27t15 -27q16 -14 27 -14z" />
    <glyph glyph-name="spade" unicode="&#x2660;" horiz-adv-x="1000" 
d="M843 399q7 -29 7 -62q0 -32 -6 -64q-15 -68 -66 -114.5t-122 -46.5q-76 0 -126 62l11 -203h-79l11 205q-51 -64 -128 -64q-71 0 -121.5 46t-66.5 115q-6 30 -6 63q0 32 7 63q22 74 79 138q45 55 94.5 99t130.5 109l39 33q29 -27 97 -85q69 -60 106 -93.5t60 -62.5
q60 -67 79 -138z" />
    <glyph glyph-name="uni2661" unicode="&#x2661;" horiz-adv-x="1000" 
d="M811 363.5q18 31.5 28 65.5q7 28 7 56t-6 59q-15 62 -55 98t-105 36q-40 0 -66 -16t-49 -51q-9 -12 -60 -116q-16 27 -27 45t-18 29q-21 36 -26 42q-23 35 -49 51t-65 16q-64 0 -104.5 -35.5t-56.5 -98.5q-5 -33 -5 -57q0 -26 6 -58q11 -35 29 -66.5t49 -66.5
q51 -58 109 -108t145 -119l7 -5q30 26 84 71q69 57 111 94.5t67 66.5q32 36 50 67.5zM178 685q59 52 142 52q52 0 93.5 -25t69.5 -67q5 -7 17 -27q8 15 16 27q28 42 70 67t94 25q55 0 100.5 -24.5t76 -66t41.5 -90.5q7 -40 7 -71q0 -35 -9 -71q-22 -79 -90 -157
q-27 -31 -71.5 -70.5t-113.5 -97.5q-84 -70 -121 -103l-45 37q-89 70 -148.5 122t-112.5 112q-66 74 -91 157q-8 33 -8 73q0 36 6 69q18 77 77 129z" />
    <glyph glyph-name="club" unicode="&#x2663;" horiz-adv-x="1000" 
d="M583 706.5q38 -22.5 60.5 -60.5t22.5 -83q0 -36 -14 -67.5t-38 -53.5q2 -6 2 -8q29 13 66 13q45 0 83 -22t60 -60t22 -83t-22 -82.5t-60 -59.5t-83 -22t-86 22t-63 57h-7l13 -226h-79l13 226h-6q-22 -36 -62.5 -57.5t-85.5 -21.5t-83 22t-60 59.5t-22 82.5t22 83t60 60
t83 22q38 0 65 -13l3 8q-25 22 -39 53.5t-14 67.5q0 45 22.5 83t60.5 60.5t83 22.5t83 -22.5z" />
    <glyph glyph-name="heart" unicode="&#x2665;" horiz-adv-x="1000" 
d="M733 188.5q-43 -38.5 -116 -99.5q-67 -56 -117 -100l-45 37q-88 69 -147 120.5t-112 111.5q-65 73 -90 155q-8 33 -8 73q0 35 6 68q18 77 76.5 128.5t140.5 51.5q51 0 92.5 -24.5t69.5 -66.5q5 -7 17 -27q8 15 16 27q28 42 69.5 66.5t92.5 24.5q82 0 141 -52t76 -128
q7 -40 7 -70q0 -35 -9 -71q-23 -79 -90 -155q-27 -31 -70 -69.5z" />
    <glyph glyph-name="uni2669" unicode="&#x2669;" horiz-adv-x="540" 
d="M338 68.5q29 26.5 29 60.5t-26 58t-65 24q-10 0 -15 -1q-39 -4 -63.5 -29.5t-24.5 -57.5t26.5 -56.5t65.5 -24.5q44 0 73 26.5zM129.5 201.5q22.5 34.5 60.5 55t81 20.5q26 0 51.5 -7.5t44.5 -22.5v496h66v-605q0 -44 -22 -81t-60 -59t-85 -22q-42 0 -78.5 19t-58.5 53.5
t-22 77.5q0 41 22.5 75.5z" />
    <glyph glyph-name="musicalnote" unicode="&#x266a;" horiz-adv-x="723" 
d="M470 655q42 -90 96 -117q42 -19 68.5 -48.5t39.5 -62.5q11 -25 13 -48q2 -14 2 -15v-7h-33h-32l-2 13q-2 18 -9 34q-22 51 -74 74q-33 17 -55.5 39.5t-44.5 54.5v-430v-24q-4 -39 -27 -71.5t-60 -51.5t-79 -19t-79.5 19t-60.5 53t-23 77q0 42 23 77.5t61.5 56t82.5 20.5
q55 0 96 -29v494h65l4 -10q4 -11 5 -17q10 -32 23 -62zM207 64q27 -22 65 -22q42 0 70 24t31 57v16q-4 31 -30 53t-63 22q-32 0 -56 -14.5t-37 -37t-11 -45.5q4 -31 31 -53zM439 118v-1v1z" />
    <glyph glyph-name="uni266C" unicode="&#x266c;" horiz-adv-x="932" 
d="M656 421q-44 0 -82.5 -20.5t-61 -55t-22.5 -76.5q0 -43 22 -77.5t59 -53.5t80 -19q44 0 82 20.5t61 55t23 76.5v548h-65l-414 -124v-448q-19 15 -44 22.5t-50 7.5q-45 0 -83.5 -20t-61.5 -55t-23 -77q0 -43 22 -77t59 -53t79 -19q44 0 82.5 20t62 55t23.5 77v517l347 105
v-359q-37 30 -95 30zM171.5 185q28.5 27 72.5 27q37 0 63.5 -21.5t30.5 -52.5q2 -23 -10.5 -45.5t-36 -36.5t-54.5 -14q-40 0 -67 24.5t-27 57.5q0 34 28.5 61zM584.5 328q28.5 27 72.5 27q40 0 66.5 -24.5t26.5 -57.5q0 -32 -24.5 -57t-63.5 -30q-29 -3 -53.5 7.5
t-38.5 30.5t-14 42q0 35 28.5 62z" />
    <glyph glyph-name="uni26A0" unicode="&#x26a0;" horiz-adv-x="1084" 
d="M158 573q60 102 162 162t222 60t222 -60t162 -162t60 -222t-60 -222t-162 -161.5t-222 -59.5t-222 59.5t-162 161.5t-60 222t60 222zM221 166q50 -85 135.5 -135.5t185.5 -50.5t185.5 50.5t135.5 135.5t50 185t-50 185.5t-135.5 135.5t-185.5 50t-185.5 -50
t-135.5 -135.5t-50 -185.5t50 -185zM585 628l-10 -404h-66l-9 404h85zM503 150h80v-77h-80v77z" />
    <glyph glyph-name="uni2713" unicode="&#x2713;" horiz-adv-x="904" 
d="M333 24l-275 337l57 45l216 -266l420 549l56 -43z" />
    <glyph glyph-name="uni3008" unicode="&#x3008;" horiz-adv-x="502" 
d="M186 359l243 -406h-78l-245 406l249 405h79z" />
    <glyph glyph-name="uni3009" unicode="&#x3009;" horiz-adv-x="502" 
d="M147 764l249 -405l-245 -406h-78l243 406l-248 405h79z" />
    <glyph glyph-name="uni300A" unicode="&#x300a;" horiz-adv-x="606" 
d="M183 356l181 -406h-75l-181 406l184 406h74zM461 762h75l-184 -406l181 -406h-75l-180 406z" />
    <glyph glyph-name="uni300B" unicode="&#x300b;" horiz-adv-x="606" 
d="M314 762l184 -406l-181 -406h-75l181 406l-183 406h74zM145 762l183 -406l-180 -406h-75l181 406l-184 406h75z" />
    <glyph glyph-name="uni300C" unicode="&#x300c;" horiz-adv-x="396" 
d="M330 690h-158v-229h-68v298h226v-69z" />
    <glyph glyph-name="uni300D" unicode="&#x300d;" horiz-adv-x="396" 
d="M66 22h158v230h68v-299h-226v69z" />
    <glyph glyph-name="uni300E" unicode="&#x300e;" horiz-adv-x="397" 
d="M331 652h-123v-204h-104v306h227v-102zM173 483v203h124v34h-158v-237h34z" />
    <glyph glyph-name="uni300F" unicode="&#x300f;" horiz-adv-x="397" 
d="M66 51h123v203h104v-306h-227v103zM258 -17v236h-34v-203h-124v-33h158z" />
    <glyph glyph-name="uni3010" unicode="&#x3010;" horiz-adv-x="308" 
d="M161 358q0 -214 83 -406h-142v812h142q-83 -192 -83 -406z" />
    <glyph glyph-name="uni3011" unicode="&#x3011;" horiz-adv-x="308" 
d="M206 764v-812h-142q83 192 83 406t-83 406h142z" />
    <glyph glyph-name="uni3014" unicode="&#x3014;" horiz-adv-x="366" 
d="M171 643v-582l130 -50l-25 -63l-173 67v674l173 67l25 -63z" />
    <glyph glyph-name="uni3015" unicode="&#x3015;" horiz-adv-x="366" 
d="M90 756l173 -67v-674l-173 -67l-25 63l130 50v582l-130 50z" />
    <glyph glyph-name="uni3131" unicode="&#x3131;" 
d="M708 589v-455h-74v393h-468v62h542z" />
    <glyph glyph-name="uni3132" unicode="&#x3132;" 
d="M428 589v-455h-75v393h-226v62h301zM479 590h297v-455h-75v393h-222v62z" />
    <glyph glyph-name="uni3133" unicode="&#x3133;" 
d="M396 588v-454h-75v391h-200v63h275zM531 284.5q40 68.5 40 148.5v164h74v-164q0 -80 40.5 -148.5t118.5 -101.5l-42 -55q-57 25 -95.5 68.5t-58.5 101.5q-20 -58 -58.5 -101.5t-94.5 -68.5l-42 55q78 33 118 101.5z" />
    <glyph glyph-name="uni3134" unicode="&#x3134;" 
d="M247 589v-386h478v-62h-555v448h77z" />
    <glyph glyph-name="uni3135" unicode="&#x3135;" 
d="M222 593v-405q106 2 176 26l5 -31q70 38 105.5 109.5t35.5 153.5v79h-130v62h332v-62h-130v-79q0 -86 39 -160t117 -109l-44 -56q-105 50 -149 178q-19 -60 -55.5 -106t-91.5 -72l-24 33v-3q-52 -16 -102.5 -20.5t-118.5 -4.5h-41v467h76z" />
    <glyph glyph-name="uni3136" unicode="&#x3136;" 
d="M221 575v-383q52 2 94.5 7.5t83.5 19.5l10 -64q-51 -15 -101 -19.5t-121 -4.5h-41v444h75zM404 516h137v88h74v-88h130v-63h-341v63zM471 376q41 43 104 43q41 0 74.5 -19.5t53 -54.5t19.5 -79q0 -67 -42 -110t-105 -43t-104 42.5t-41 110.5q0 67 41 110zM517.5 198
q22.5 -26 57.5 -26q37 0 59.5 26t22.5 68q0 41 -22.5 67t-59.5 26q-35 0 -57.5 -26t-22.5 -67q0 -42 22.5 -68z" />
    <glyph glyph-name="uni3137" unicode="&#x3137;" 
d="M705 593v-62h-456v-334h465v-61h-541v457h532z" />
    <glyph glyph-name="uni3138" unicode="&#x3138;" 
d="M421 593v-62h-201v-326q56 1 104 6t97 17l10 -64q-60 -14 -115 -18t-127 -4h-43v451h275zM460 593h275v-62h-200v-329h202v-61h-277v452z" />
    <glyph glyph-name="uni3139" unicode="&#x3139;" 
d="M710 603v-266h-473v-147h488v-63h-561v270h473v145h-475v61h548z" />
    <glyph glyph-name="uni313A" unicode="&#x313a;" 
d="M426 597v-259h-212v-144q141 2 256 24l8 -62q-74 -14 -140 -18.5t-149 -4.5h-50v265h210v137h-212v62h289zM456 597h289v-461h-74v399h-215v62z" />
    <glyph glyph-name="uni313B" unicode="&#x313b;" 
d="M419 596v-259h-207v-142q126 2 223 19l6 -61q-68 -12 -126.5 -16t-131.5 -4h-46v265h207v136h-209v62h284zM460 597h297v-463h-297v463zM687 195v340h-158v-340h158z" />
    <glyph glyph-name="uni313C" unicode="&#x313c;" 
d="M419 596v-259h-207v-143q128 2 227 22l8 -61q-67 -14 -126.5 -18t-136.5 -4h-47v265h207v136h-209v62h284zM461 597h72v-162h153v162h72v-464h-297v464zM686 195v177h-153v-177h153z" />
    <glyph glyph-name="uni313D" unicode="&#x313d;" 
d="M417 596v-259h-207v-142q63 1 116.5 6.5t107.5 20.5l4 -30q69 35 104.5 101.5t35.5 142.5v164h74v-164q0 -80 39 -149t115 -102l-42 -55q-55 24 -92 67.5t-57 101.5q-20 -58 -58 -101.5t-92 -67.5l-23 30v-1q-63 -16 -122.5 -21t-137.5 -5h-46v265h207v136h-209v62h283z
" />
    <glyph glyph-name="uni313E" unicode="&#x313e;" 
d="M419 596v-259h-206v-141q128 2 224 26l8 -61q-64 -16 -123.5 -21t-136.5 -5h-47v263h207v136h-210v62h284zM471 596h289v-62h-214v-134h203v-62h-203v-142h219v-62h-294v462z" />
    <glyph glyph-name="uni313F" unicode="&#x313f;" 
d="M409 596v-259h-196v-142q61 1 113 6.5t104 20.5l10 -64q-63 -15 -122.5 -20t-134.5 -5h-46v265h196v136h-198v62h274zM449 195h52v339h-50v62h316v-62h-51v-339h57v-62h-324v62zM649 195v339h-79v-339h79z" />
    <glyph glyph-name="uni3140" unicode="&#x3140;" 
d="M397 596v-255h-181v-146q116 2 209 23l8 -62q-61 -14 -118.5 -18.5t-128.5 -4.5h-46v266h182v138h-184v59h259zM430 523h133v96h75v-96h127v-63h-335v63zM493.5 384q41.5 42 104.5 42q62 0 103.5 -42.5t41.5 -107.5q0 -66 -41.5 -108t-103.5 -42q-63 0 -104.5 42
t-41.5 108t41.5 108zM538.5 210.5q22.5 -24.5 59.5 -24.5q35 0 58 24.5t23 65.5q0 39 -23 64t-58 25q-37 0 -59.5 -24.5t-22.5 -64.5q0 -41 22.5 -65.5z" />
    <glyph glyph-name="uni3141" unicode="&#x3141;" 
d="M714 593v-457h-545v457h545zM639 198v332h-395v-332h395z" />
    <glyph glyph-name="uni3142" unicode="&#x3142;" 
d="M245 603v-162h391v162h75v-470h-540v470h74zM636 199v174h-391v-174h391z" />
    <glyph glyph-name="uni3143" unicode="&#x3143;" 
d="M219 596v-161h138v161h70v-463h-279v463h71zM357 196v176h-138v-176h138zM465 596h70v-161h138v161h70v-462h-278v462zM673 196v176h-138v-176h138z" />
    <glyph glyph-name="uni3144" unicode="&#x3144;" 
d="M655 597v-164q0 -79 40.5 -148t117.5 -102l-40 -55q-57 25 -95.5 68.5t-58.5 101.5q-21 -58 -59.5 -101.5t-94.5 -68.5l-39 51v-46h-279v463h71v-161h138v161h70v-412q77 33 116.5 101.5t39.5 147.5v164h73zM356 196v176h-138v-176h138z" />
    <glyph glyph-name="uni3145" unicode="&#x3145;" 
d="M480 611v-142q0 -106 76 -181.5t195 -102.5l-38 -62q-94 25 -165 78t-106 131q-34 -78 -105.5 -131t-165.5 -78l-38 62q119 27 195 102.5t76 181.5v142h76z" />
    <glyph glyph-name="uni3146" unicode="&#x3146;" 
d="M323 587v-121q0 -64 31 -133.5t90 -115.5q60 45 91 113.5t31 135.5v121h76v-117q0 -82 39.5 -155.5t117.5 -109.5l-43 -55q-57 27 -95 74.5t-58 109.5q-21 -65 -61 -117t-98 -81q-58 29 -98 82.5t-60 118.5q-21 -62 -59 -111t-93 -77l-44 55q77 38 117 114.5t40 151.5
v117h76z" />
    <glyph glyph-name="uni3147" unicode="&#x3147;" 
d="M575.5 575.5q62.5 -30.5 98.5 -85t36 -122.5q0 -69 -36 -124t-98.5 -86t-138.5 -31t-138 31t-98 86t-36 124q0 68 36 122.5t98 85t138 30.5t138.5 -30.5zM264.5 277.5q26.5 -40.5 72 -63.5t100.5 -23t100.5 23t72 63.5t26.5 90.5q0 49 -26.5 88.5t-72 62t-100.5 22.5
t-100.5 -22.5t-72 -62t-26.5 -88.5q0 -50 26.5 -90.5z" />
    <glyph glyph-name="uni3148" unicode="&#x3148;" 
d="M715 602v-61h-233v-62q0 -106 71 -183t185 -109l-37 -59q-91 27 -158.5 82.5t-98.5 135.5q-31 -80 -98.5 -135.5t-157.5 -82.5l-37 59q114 32 185 109t71 183v62h-232v61h540z" />
    <glyph glyph-name="uni3149" unicode="&#x3149;" 
d="M425 608v-61h-107v-59q0 -208 126 -278q127 70 127 278v59h-109v61h304v-61h-121v-59q0 -92 38.5 -171t117.5 -118l-46 -60q-99 50 -143 171q-42 -133 -167 -181l-1 -1v1q-126 48 -168 184q-44 -123 -148 -174l-45 60q80 38 120 117.5t40 171.5v59h-122v61h304z" />
    <glyph glyph-name="uni314A" unicode="&#x314a;" 
d="M402 521v128h75v-128h233v-63h-227v-26q0 -98 69 -168.5t181 -96.5l-36 -60q-93 25 -160.5 78t-97.5 130q-30 -77 -97.5 -130t-159.5 -78l-37 60q112 26 181 96.5t69 168.5v26h-226v63h233z" />
    <glyph glyph-name="uni314B" unicode="&#x314b;" 
d="M714 604v-478h-77v207l-470 -30l-10 70l480 21v149h-461v61h538z" />
    <glyph glyph-name="uni314C" unicode="&#x314c;" 
d="M713 595v-62h-466v-133h460v-62h-460v-142h475v-62h-552v461h543z" />
    <glyph glyph-name="uni314D" unicode="&#x314d;" 
d="M724 593v-62h-116v-339h129v-62h-590v62h129v339h-117v62h565zM533 192v339h-182v-339h182z" />
    <glyph glyph-name="uni314E" unicode="&#x314e;" 
d="M405 535v118h75v-118h252v-64h-580v64h253zM256 331.5q28 36.5 77 56.5t110 20t109.5 -20t76 -56.5t27.5 -82.5t-27.5 -82t-76 -56.5t-109.5 -20.5t-110 20.5t-77 56.5t-28 82t28 82.5zM345 180.5q39 -26.5 98 -26.5q58 0 96.5 26.5t38.5 68.5q0 41 -38.5 68t-96.5 27
q-59 0 -98 -27t-39 -68q0 -42 39 -68.5z" />
    <glyph glyph-name="uni314F" unicode="&#x314f;" 
d="M447 786v-351h204v-65h-204v-443h-76v859h76z" />
    <glyph glyph-name="uni3150" unicode="&#x3150;" 
d="M594 789v-859h-73v448h-154v-416h-73v812h73v-332h154v347h73z" />
    <glyph glyph-name="uni3151" unicode="&#x3151;" 
d="M420 788v-256h199v-63h-199v-174h199v-63h-199v-302h-76v858h76z" />
    <glyph glyph-name="uni3152" unicode="&#x3152;" 
d="M591 787v-859h-74v318h-150v-286h-73v814h73v-229h150v242h74zM517 308v172h-150v-172h150z" />
    <glyph glyph-name="uni3153" unicode="&#x3153;" 
d="M563 787v-859h-76v447h-207v65h207v347h76z" />
    <glyph glyph-name="uni3154" unicode="&#x3154;" 
d="M625 786v-859h-73v859h73zM217 442h163v331h72v-814h-72v419h-163v64z" />
    <glyph glyph-name="uni3155" unicode="&#x3155;" 
d="M565 787v-859h-76v325h-207v64h207v165h-207v65h207v240h76z" />
    <glyph glyph-name="uni3156" unicode="&#x3156;" 
d="M381 550v223h71v-815h-71v300h-167v63h167v165h-166v64h166zM550 785h73v-859h-73v859z" />
    <glyph glyph-name="uni3157" unicode="&#x3157;" 
d="M397 253v368h75v-368h358v-62h-788v62h355z" />
    <glyph glyph-name="uni3158" unicode="&#x3158;" 
d="M358 517v-299q143 7 227 18l8 -56q-211 -33 -534 -33l-10 64q123 0 235 4v302h74zM629 785h75v-351h134v-65h-134v-442h-75v858z" />
    <glyph glyph-name="uni3159" unicode="&#x3159;" 
d="M316 522v-285q114 5 181 14l7 -57q-163 -27 -442 -27l-8 64q85 0 191 3v288h71zM536 774h71v-337h102v349h73v-858h-73v446h-102v-414h-71v814z" />
    <glyph glyph-name="uni315A" unicode="&#x315a;" 
d="M400 512v-280q127 7 225 19l6 -57q-203 -33 -532 -33l-10 65q151 0 236 3v283h75zM679 787h76v-859h-76v859z" />
    <glyph glyph-name="uni315B" unicode="&#x315b;" 
d="M254 231v387h74v-387h229v387h75v-387h204v-63h-787v63h205z" />
    <glyph glyph-name="uni315C" unicode="&#x315c;" 
d="M835 504v-62h-356v-377h-75v377h-356v62h787z" />
    <glyph glyph-name="uni315D" unicode="&#x315d;" 
d="M787 786v-859h-76v257h-211v61h211v541h76zM380.5 411q136.5 5 261.5 19l5 -57q-111 -16 -276 -25v-353h-76v350q-103 -4 -218 -4l-10 63q177 2 313.5 7z" />
    <glyph glyph-name="uni315E" unicode="&#x315e;" 
d="M800 787v-859h-73v859h73zM296 409q126 6 219 18l6 -54q-86 -13 -196 -21v-359h-74v354q-110 -5 -182 -5l-9 61q110 0 236 6zM403 247h161v519h71v-814h-71v234h-161v61z" />
    <glyph glyph-name="uni315F" unicode="&#x315f;" 
d="M783 785v-858h-76v858h76zM661 423l5 -56q-108 -14 -253 -23v-350h-75v346q-115 -4 -244 -4l-11 63q362 0 578 24z" />
    <glyph glyph-name="uni3160" unicode="&#x3160;" 
d="M830 505v-61h-214v-379h-77v379h-210v-379h-76v379h-211v61h788z" />
    <glyph glyph-name="uni3161" unicode="&#x3161;" 
d="M830 409v-63h-788v63h788z" />
    <glyph glyph-name="uni3162" unicode="&#x3162;" 
d="M766 776v-858h-76v858h76zM377 275q136 5 259 20l5 -56q-129 -20 -269 -26.5t-294 -6.5l-12 63q175 1 311 6z" />
    <glyph glyph-name="uni3163" unicode="&#x3163;" 
d="M480 787v-859h-76v859h76z" />
    <glyph glyph-name="uni321C" unicode="&#x321c;" horiz-adv-x="1232" 
d="M113.5 139.5q-31.5 102.5 -31.5 211.5t31.5 211.5t89.5 194.5h81q-66 -90 -101 -193t-35 -213t35 -213t101 -193h-81q-58 92 -89.5 194.5zM261 301h708v-58h-326v-314h-60v314h-322v58zM435 481q64 35 105 87t41 110v11h-254v55h574v-55h-253v-11q0 -58 41 -110
t105.5 -87t131.5 -46l-24 -56q-93 19 -173 73.5t-114 131.5q-34 -77 -114 -131.5t-172 -73.5l-25 56q67 11 131 46zM1049 138q35 103 35 213t-35 213t-100 193h81q58 -92 89 -194.5t31 -211.5t-31 -211.5t-89 -194.5h-81q65 90 100 193z" />
    <glyph glyph-name="uni327C" unicode="&#x327c;" horiz-adv-x="1084" 
d="M158 563q60 102 162 162t222 60t222 -60t162 -162t60 -222t-60 -222t-162 -161.5t-222 -59.5t-222 59.5t-162 161.5t-60 222t60 222zM221 156q50 -85 135.5 -135.5t185.5 -50.5t185.5 50.5t135.5 135.5t50 185t-50 185.5t-135.5 135.5t-185.5 50t-185.5 -50
t-135.5 -135.5t-50 -185.5t50 -185zM405 584q19 22 55.5 38t81.5 16q49 0 91.5 -22t68 -62.5t25.5 -92.5q0 -51 -31 -94.5t-71 -72.5q-22 -17 -31 -27t-13.5 -27.5t-4.5 -50.5h-74q0 50 11.5 81.5t26 47t41.5 36.5q72 53 72 107q0 49 -30.5 76t-80.5 27q-34 0 -54 -11.5
t-33.5 -25.5t-19.5 -20l-52 52q3 3 22 25zM498 140h80v-77h-80v77z" />
    <glyph glyph-name="uniAC00" unicode="&#xac00;" 
d="M711 803v-358h142v-64h-142v-455h-76v877h76zM305.5 362.5q91.5 125.5 104.5 282.5h-324v63h400q0 -195 -97 -353.5t-300 -260.5l-42 59q167 84 258.5 209.5z" />
    <glyph glyph-name="uniAC01" unicode="&#xac01;" 
d="M718 803v-224h131v-64h-131v-227h-76v515h76zM294 486.5q94 84.5 105 196.5h-321v63h402q0 -163 -108 -279.5t-302 -169.5l-31 61q161 44 255 128.5zM151 248h567v-323h-76v260h-491v63z" />
    <glyph glyph-name="uniAC04" unicode="&#xac04;" 
d="M718 801v-266h130v-64h-130v-310h-76v640h76zM294.5 464q95.5 91 107.5 207h-325v63h406q0 -166 -109 -288.5t-300 -183.5l-32 61q157 50 252.5 141zM174 226h76v-217h508v-63h-584v280z" />
    <glyph glyph-name="uniAC07" unicode="&#xac07;" 
d="M718 802v-217h130v-62h-130v-219h-76v498h76zM295 485.5q94 85.5 105 197.5h-322v62h403q0 -163 -108.5 -279.5t-302.5 -170.5l-29 61q160 44 254 129.5zM171 256h551v-63h-477v-192h493v-62h-567v317z" />
    <glyph glyph-name="uniAC08" unicode="&#xac08;" 
d="M718 802v-198h130v-63h-130v-185h-76v446h76zM296.5 512q92.5 78 102.5 183h-319v63h402q0 -161 -108.5 -269.5t-302.5 -154.5l-28 63q161 37 253.5 115zM164 315h554v-215h-477v-104h508v-61h-582v225h476v94h-479v61z" />
    <glyph glyph-name="uniAC09" unicode="&#xac09;" 
d="M718 801v-203h131v-63h-131v-202h-76v468h76zM297.5 506.5q91.5 78.5 101.5 185.5h-317v63h401q0 -162 -108 -271.5t-304 -156.5l-28 62q163 39 254.5 117.5zM128 292h285v-201h-209v-96q96 0 152.5 3.5t114.5 15.5l7 -58q-63 -12 -124.5 -16t-171.5 -4h-52v211h210v87
h-212v58zM450 292h268v-361h-75v300h-193v61z" />
    <glyph glyph-name="uniAC0A" unicode="&#xac0a;" 
d="M390 293v-198h-200v-97q76 0 122.5 3t96.5 13l7 -60q-58 -10 -111 -13t-144 -3h-44v213h200v84h-203v58h276zM297 508.5q92 77.5 102 183.5h-318v63h402q0 -161 -109 -269.5t-304 -153.5l-27 62q162 37 254 114.5zM444 293h274v-358h-274v358zM650 -8v244h-139v-244h139z
M642 801h76v-203h130v-63h-130v-200h-76v466z" />
    <glyph glyph-name="uniAC0B" unicode="&#xac0b;" 
d="M718 802v-199h130v-63h-130v-205h-76v467h76zM297.5 513.5q92.5 77.5 101.5 183.5h-318v63h402q0 -162 -108.5 -270t-304.5 -154l-27 63q162 37 254.5 114.5zM115 289h274v-195h-199v-97q76 0 122.5 3t96.5 14l6 -58q-57 -11 -109.5 -14t-144.5 -3h-44v208h199v84h-201
v58zM440 299h69v-114h139v114h70v-360h-278v360zM648 -1v127h-139v-127h139z" />
    <glyph glyph-name="uniAC10" unicode="&#xac10;" 
d="M718 802v-216h130v-62h-130v-220h-76v498h76zM295 486q94 85 105 197h-322v62h403q0 -163 -108.5 -279.5t-302.5 -169.5l-29 61q160 44 254 129zM168 263h550v-324h-550v324zM643 0v201h-399v-201h399z" />
    <glyph glyph-name="uniAC11" unicode="&#xac11;" 
d="M718 802v-209h130v-63h-130v-201h-76v473h76zM296 499.5q93 79.5 103 186.5h-318v63h401q0 -162 -108 -272.5t-303 -159.5l-28 63q160 40 253 119.5zM166 288h77v-112h399v112h76v-349h-552v349zM642 0v115h-399v-115h399z" />
    <glyph glyph-name="uniAC12" unicode="&#xac12;" 
d="M718 803v-205h130v-63h-130v-209h-76v477h76zM296.5 499.5q92.5 79.5 102.5 187.5h-318v62h400q0 -162 -107.5 -272.5t-302.5 -158.5l-28 62q161 40 253.5 119.5zM136 280h72v-107h155v107h72v-341h-299v341zM363 -1v115h-155v-115h155zM554.5 85q40.5 64 40.5 130v74h72
v-71q0 -69 40 -133.5t112 -97.5l-41 -58q-53 25 -90.5 67.5t-57.5 96.5q-20 -54 -57.5 -96.5t-90.5 -67.5l-41 58q73 34 113.5 98z" />
    <glyph glyph-name="uniAC13" unicode="&#xac13;" 
d="M376 447q-108 -121 -302 -180l-32 61q159 47 254 137t107 206h-321v64h402q0 -167 -108 -288zM269.5 41q67.5 36 108 89.5t40.5 116.5v39h74v-39q0 -62 40.5 -115t107.5 -89t145 -50l-31 -60q-100 20 -180.5 71.5t-117.5 126.5q-38 -75 -119.5 -127.5t-181.5 -73.5
l-31 61q78 14 145.5 50zM666 804h75v-247h107v-64h-107v-272h-75v583z" />
    <glyph glyph-name="uniAC14" unicode="&#xac14;" 
d="M718 804v-222h130v-63h-130v-208h-76v493h76zM295 486q94 85 105 197h-320v63h402q0 -164 -108.5 -281t-303.5 -170l-29 62q160 44 254 129zM170 48q40 36 61.5 79.5t21.5 85.5v64h73v-64q0 -62 31.5 -118.5t91.5 -92.5q60 38 93 97.5t33 113.5v64h74v-64
q0 -71 47.5 -132t129.5 -89l-38 -56q-63 23 -108.5 66.5t-67.5 100.5q-22 -58 -62.5 -104t-99.5 -72q-61 25 -101.5 70.5t-60.5 104.5q-24 -56 -68 -99.5t-105 -66.5l-38 56q53 20 93 56z" />
    <glyph glyph-name="uniAC15" unicode="&#xac15;" 
d="M718 803v-229h130v-65h-130v-232h-76v526h76zM295 472q95 89 106 202h-322v63h403q0 -165 -108 -285t-300 -177l-32 62q158 46 253 135zM195 187q35 38 99.5 58.5t150.5 20.5q130 0 206.5 -45.5t76.5 -123.5t-76.5 -123.5t-206.5 -45.5q-86 0 -150.5 20.5t-99.5 58.5
t-35 90t35 90zM291.5 19q57.5 -29 153.5 -29t152.5 29t56.5 78q0 50 -56.5 79t-152.5 29q-97 0 -154 -29t-57 -79q0 -49 57.5 -78z" />
    <glyph glyph-name="uniAC16" unicode="&#xac16;" 
d="M718 804v-227h130v-64h-130v-213h-76v504h76zM297 490q92 83 103 193h-320v63h402q0 -164 -108 -278t-304 -166l-27 62q162 43 254 126zM266 29.5q63 30.5 102 74t40 91.5h-247v62h572v-62h-246q2 -47 41 -90.5t103 -74.5t136 -44l-30 -59q-96 18 -174.5 65t-114.5 112
q-36 -65 -114.5 -111.5t-174.5 -64.5l-30 59q74 12 137 42.5z" />
    <glyph glyph-name="uniAC17" unicode="&#xac17;" 
d="M374.5 471.5q-107.5 -111.5 -302.5 -160.5l-29 64q163 39 254.5 119t101.5 188h-318v63h401q0 -162 -107.5 -273.5zM261 25q64 29 103.5 71t42.5 88h-253v62h253v106h77v-106h253v-62h-253q3 -46 43 -88t104 -71t136 -40l-30 -58q-96 17 -175 62t-116 108
q-37 -63 -115.5 -108t-175.5 -62l-30 58q72 11 136 40zM642 803h76v-207h130v-63h-130v-213h-76v483z" />
    <glyph glyph-name="uniAC19" unicode="&#xac19;" 
d="M718 802v-205h130v-64h-130v-199h-76v468h76zM300 494.5q92 78.5 100 183.5h-320v63h404q0 -162 -107 -270.5t-302 -154.5l-31 63q164 37 256 115.5zM168 293h555v-58h-478v-88h467v-58h-467v-92h497v-58h-574v354z" />
    <glyph glyph-name="uniAC1A" unicode="&#xac1a;" 
d="M718 801v-210h130v-62h-130v-216h-76v488h76zM294.5 493q95.5 82 105.5 189h-317v62h401q0 -161 -111.5 -274t-301.5 -162l-29 63q157 40 252.5 122zM154 3h130v205h-123v62h580v-62h-122v-205h132v-61h-597v61zM545 3v205h-186v-205h186z" />
    <glyph glyph-name="uniAC1B" unicode="&#xac1b;" 
d="M718 803v-197h130v-64h-130v-202h-76v463h76zM298.5 499.5q90.5 78.5 100.5 188.5h-321v62h404q0 -163 -107 -272.5t-305 -157.5l-27 62q165 39 255.5 117.5zM147 278h267v103h75v-103h267v-60h-609v60zM272 143.5q64 32.5 179 32.5t179 -32.5t64 -91.5q0 -60 -64 -92.5
t-179 -32.5t-179 32.5t-64 92.5q0 59 64 91.5zM325 1q45 -18 126 -18t126 18t45 51q0 32 -45.5 50t-125.5 18t-125.5 -18t-45.5 -50q0 -33 45 -51z" />
    <glyph glyph-name="uniAC1C" unicode="&#xac1c;" 
d="M782 803v-877h-73v459h-123v-415h-72v809h72v-331h123v355h73zM340 626h-265v62h340q0 -182 -76 -328t-253 -246l-44 55q278 155 298 457z" />
    <glyph glyph-name="uniAC1D" unicode="&#xac1d;" 
d="M777 802v-516h-72v232h-120v-227h-72v494h72v-205h120v222h72zM257 476q75 87 86 198h-262v63h340q0 -156 -85.5 -273.5t-250.5 -187.5l-38 56q135 57 210 144zM191 244h586v-319h-75v256h-511v63z" />
    <glyph glyph-name="uniAC20" unicode="&#xac20;" 
d="M777 801v-653h-72v321h-120v-292h-72v608h72v-252h120v268h72zM255.5 451q74.5 89 85.5 203h-260v61h339q0 -156 -85.5 -274.5t-250.5 -191.5l-38 56q135 57 209.5 146zM205 227h77v-213h523v-61h-600v274z" />
    <glyph glyph-name="uniAC23" unicode="&#xac23;" 
d="M783 242v-61h-501v-180h512v-62h-589v303h578zM257.5 476q74.5 86 85.5 198h-262v63h341q0 -156 -85 -272t-249 -187l-39 57q134 55 208.5 141zM513 785h72v-204h120v220h72v-507h-72v226h-120v-219h-72v484z" />
    <glyph glyph-name="uniAC24" unicode="&#xac24;" 
d="M777 801v-448h-73v187h-119v-181h-72v426h72v-183h119v199h73zM255.5 505.5q73.5 77.5 84.5 180.5h-257v62h337q0 -149 -85.5 -256t-249.5 -167l-36 56q133 47 206.5 124.5zM201 311h576v-209h-499v-102h534v-61h-608v222h499v90h-502v60z" />
    <glyph glyph-name="uniAC2C" unicode="&#xac2c;" 
d="M777 801v-502h-72v224h-120v-218h-72v480h72v-201h120v217h72zM258 476q74 86 85 198h-261v63h340q0 -156 -84.5 -272t-249.5 -187l-38 57q134 55 208 141zM205 253h572v-313h-572v313zM703 2v190h-423v-190h423z" />
    <glyph glyph-name="uniAC2D" unicode="&#xac2d;" 
d="M777 801v-474h-72v199h-120v-193h-72v452h72v-197h120v213h72zM257 488.5q74 82.5 85 191.5h-258v62h337q0 -154 -84 -266.5t-250 -179.5l-38 57q134 53 208 135.5zM206 286h76v-106h422v106h73v-346h-571v346zM704 2v116h-422v-116h422z" />
    <glyph glyph-name="uniAC2F" unicode="&#xac2f;" 
d="M339 442q-83 -120 -252 -193l-39 57q138 58 211.5 147.5t83.5 205.5h-259v62h338q0 -159 -83 -279zM297 36.5q69 34.5 111 85.5t42 108v38h77v-38q0 -57 42 -108t110.5 -85.5t144.5 -46.5l-29 -60q-101 19 -184.5 69.5t-122.5 123.5q-39 -73 -122 -123.5t-184 -69.5
l-30 60q76 12 145 46.5zM512 785h73v-215h119v231h73v-571h-73v276h-119v-196h-73v475z" />
    <glyph glyph-name="uniAC30" unicode="&#xac30;" 
d="M776 802v-503h-72v218h-120v-214h-72v482h72v-206h120v223h72zM255 478q75 85 86 195h-259v64h338q0 -155 -85.5 -271t-248.5 -185l-39 57q133 55 208 140zM185.5 41q40.5 36 62.5 79.5t22 85.5v59h73v-59q0 -62 31.5 -118t90.5 -92q60 38 93.5 97t33.5 113v59h74v-59
q0 -70 47.5 -131t128.5 -89l-37 -57q-64 24 -109.5 68t-68.5 101q-20 -58 -60 -104.5t-99 -72.5q-61 25 -102.5 70t-61.5 103q-24 -55 -69 -98.5t-106 -66.5l-37 57q53 19 93.5 55z" />
    <glyph glyph-name="uniAC31" unicode="&#xac31;" 
d="M777 801v-538h-72v243h-120v-212h-72v491h72v-215h120v231h72zM256.5 467q75.5 87 86.5 199h-259v64h338q0 -157 -86 -274.5t-250 -188.5l-39 57q134 56 209.5 143zM273.5 211q79.5 43 217.5 43t217 -43t79 -119t-79 -119t-217 -43t-217.5 43t-79.5 119t79.5 119z
M329.5 17q59.5 -27 161.5 -27q101 0 160.5 27t59.5 75t-59.5 75t-160.5 27q-102 0 -161.5 -27t-59.5 -75t59.5 -75z" />
    <glyph glyph-name="uniAC38" unicode="&#xac38;" 
d="M711 803v-238h141v-64h-141v-198h141v-64h-141v-313h-76v877h76zM305.5 362.5q91.5 125.5 104.5 282.5h-324v63h400q0 -195 -97 -353.5t-300 -260.5l-42 59q167 84 258.5 209.5z" />
    <glyph glyph-name="uniAC39" unicode="&#xac39;" 
d="M718 803v-136h131v-64h-131v-125h131v-61h-131v-129h-76v515h76zM294 486.5q94 84.5 105 196.5h-321v63h402q0 -163 -108 -279.5t-302 -169.5l-31 61q161 44 255 128.5zM151 248h567v-323h-76v260h-491v63z" />
    <glyph glyph-name="uniAC3C" unicode="&#xac3c;" 
d="M718 801v-166h130v-63h-130v-153h130v-62h-130v-196h-76v640h76zM294.5 464q95.5 91 107.5 207h-325v63h406q0 -166 -109 -288.5t-300 -183.5l-32 61q157 50 252.5 141zM174 226h76v-217h508v-63h-584v280z" />
    <glyph glyph-name="uniAC40" unicode="&#xac40;" 
d="M718 802v-112h130v-61h-130v-111h130v-62h-130v-100h-76v446h76zM296.5 512q92.5 78 102.5 183h-319v63h402q0 -161 -108.5 -269.5t-302.5 -154.5l-28 63q161 37 253.5 115zM164 315h554v-215h-477v-104h508v-61h-582v225h476v94h-479v61z" />
    <glyph glyph-name="uniAC4B" unicode="&#xac4b;" 
d="M718 803v-153h130v-64h-130v-146h130v-64h-130v-155h-76v582h76zM296 465q95 90 107 206h-321v64h402q0 -167 -108 -288t-302 -180l-32 61q159 47 254 137zM269.5 40q67.5 36 108 89t40.5 117v39h74v-39q0 -62 40.5 -115t107.5 -89t145 -50l-32 -59q-100 19 -180 70.5
t-117 126.5q-38 -75 -119.5 -127.5t-181.5 -73.5l-31 61q78 14 145.5 50z" />
    <glyph glyph-name="uniAC4D" unicode="&#xac4d;" 
d="M718 803v-142h129v-62h-129v-129h129v-63h-129v-130h-76v526h76zM295 472q95 89 106 202h-322v63h403q0 -165 -108 -285t-300 -177l-32 62q158 46 253 135zM195 187q35 38 99.5 58.5t150.5 20.5q130 0 206.5 -45.5t76.5 -123.5t-76.5 -123.5t-206.5 -45.5
q-86 0 -150.5 20.5t-99.5 58.5t-35 90t35 90zM292 19q57 -29 153 -29t152.5 29t56.5 78q0 50 -56.5 79t-152.5 29t-153 -29t-57 -79q0 -49 57 -78z" />
    <glyph glyph-name="uniAC54" unicode="&#xac54;" 
d="M782 803v-877h-73v336h-123v-292h-72v809h72v-207h123v231h73zM340 626h-265v62h340q0 -182 -76 -328t-253 -246l-44 55q278 155 298 457zM709 325v184h-123v-184h123z" />
    <glyph glyph-name="uniAC58" unicode="&#xac58;" 
d="M777 801v-653h-72v209h-120v-180h-72v608h72v-153h120v169h72zM255.5 451q74.5 89 85.5 203h-260v61h339q0 -156 -85.5 -274.5t-250.5 -191.5l-38 56q135 57 209.5 146zM205 227h77v-213h523v-61h-600v274zM705 418v152h-120v-152h120z" />
    <glyph glyph-name="uniAC5C" unicode="&#xac5c;" 
d="M777 801v-448h-73v103h-119v-97h-72v426h72v-105h119v121h73zM255.5 505.5q73.5 78.5 84.5 181.5h-257v63h337q0 -150 -85.5 -258t-249.5 -168l-36 55q133 48 206.5 126.5zM201 309h576v-213h-499v-102h534v-61h-608v222h499v93h-502v61zM704 516v105h-119v-105h119z" />
    <glyph glyph-name="uniAC65" unicode="&#xac65;" 
d="M777 801v-474h-72v113h-120v-107h-72v452h72v-108h120v124h72zM257 488.5q74 82.5 85 191.5h-258v62h337q0 -154 -84 -266.5t-250 -179.5l-38 57q134 53 208 135.5zM206 286h76v-106h422v106h73v-346h-571v346zM704 2v116h-422v-116h422zM705 501v114h-120v-114h120z" />
    <glyph glyph-name="uniAC70" unicode="&#xac70;" 
d="M759 802v-877h-75v461h-208v64h208v352h75zM402 645h-323v63h399q0 -418 -394 -614l-43 59q337 166 361 492z" />
    <glyph glyph-name="uniAC71" unicode="&#xac71;" 
d="M383 467q-108 -116 -299 -171l-32 60q158 45 251.5 130t104.5 197h-311v62h394q0 -162 -108 -278zM177 249h583v-321h-76v258h-507v63zM493 571h191v231h76v-514h-76v219h-191v64z" />
    <glyph glyph-name="uniAC74" unicode="&#xac74;" 
d="M760 801v-647h-77v313h-193v64h193v270h77zM304 461.5q96 92.5 108 209.5h-314v63h395q0 -166 -108.5 -290.5t-297.5 -187.5l-33 61q154 52 250 144.5zM209 219h75v-210h498v-63h-573v273z" />
    <glyph glyph-name="uniAC77" unicode="&#xac77;" 
d="M380.5 466.5q-107.5 -116.5 -299.5 -171.5l-30 60q158 46 251.5 130.5t104.5 197.5h-312v62h393q0 -162 -107.5 -278.5zM197 255h565v-63h-488v-191h503v-62h-580v316zM490 567h193v234h77v-497h-77v200h-193v63z" />
    <glyph glyph-name="uniAC78" unicode="&#xac78;" 
d="M759 802v-449h-76v175h-193v61h193v213h76zM301 511.5q90 77.5 101 183.5h-302v63h384q0 -159 -106 -267t-298 -157l-26 61q157 39 247 116.5zM197 313h562v-212h-485v-105h515v-61h-589v225h484v92h-487v61z" />
    <glyph glyph-name="uniAC7A" unicode="&#xac7a;" 
d="M760 802v-462h-76v186h-193v62h193v214h76zM304.5 509q91.5 78 102.5 185h-309v63h389q0 -161 -106 -269.5t-299 -155.5l-28 60q159 39 250.5 117zM147 299h281v-202h-206v-99q76 0 124.5 3.5t100.5 13.5l7 -59q-57 -11 -109.5 -14t-150.5 -3h-45v215h205v87h-207v58z
M483 299h277v-360h-277v360zM692 -4v246h-142v-246h142z" />
    <glyph glyph-name="uniAC80" unicode="&#xac80;" 
d="M382 467q-108 -116 -300 -171l-31 60q158 45 251.5 130t104.5 197h-312v62h395q0 -162 -108 -278zM197 264h563v-325h-563v325zM685 0v203h-413v-203h413zM491 575h193v226h76v-499h-76v209h-193v64z" />
    <glyph glyph-name="uniAC81" unicode="&#xac81;" 
d="M759 802v-471h-75v187h-193v63h193v221h75zM305.5 494.5q91.5 80.5 102.5 190.5h-311v62h393q0 -161 -107 -272.5t-301 -163.5l-29 62q161 41 252.5 121.5zM197 286h75v-111h413v111h74v-348h-562v348zM685 0v115h-413v-115h413z" />
    <glyph glyph-name="uniAC83" unicode="&#xac83;" 
d="M759 802v-595h-76v283h-191v64h191v248h76zM304 464q92 89 103 206h-309v63h391q0 -167 -105 -286t-296 -182l-33 61q157 49 249 138zM291.5 39q67.5 36 108 89t40.5 116v40h76v-40q0 -62 40 -114.5t107 -88.5t145 -50l-32 -60q-101 20 -181 71.5t-117 126.5
q-38 -75 -119.5 -127.5t-182.5 -73.5l-30 61q78 14 145.5 50z" />
    <glyph glyph-name="uniAC84" unicode="&#xac84;" 
d="M380 467q-108 -116 -299 -171l-31 60q158 45 251.5 130t104.5 197h-308v62h390q0 -162 -108 -278zM213 85.5q48 62.5 48 127.5v65h75v-65q0 -61 32 -118t91 -92q60 37 93.5 96.5t33.5 113.5v65h74v-65q0 -70 47.5 -131t128.5 -90l-38 -56q-64 23 -109 66.5t-67 100.5
q-22 -57 -62.5 -103.5t-98.5 -71.5q-61 24 -102.5 69t-61.5 103q-24 -55 -68.5 -98t-105.5 -66l-38 56q80 31 128 93.5zM492 576h190v226h77v-500h-77v211h-190v63z" />
    <glyph glyph-name="uniAC85" unicode="&#xac85;" 
d="M760 801v-524h-76v212h-191v64h191v248h76zM304 471.5q94 87.5 105 201.5h-311v63h393q0 -165 -107.5 -283t-299.5 -176l-32 61q158 46 252 133.5zM264.5 222q78.5 45 211.5 45t210.5 -45t77.5 -123t-77.5 -123t-210.5 -45t-211.5 45t-78.5 123t78.5 123zM319 20
q58 -29 157 -29q98 0 156 29t58 79t-58 78.5t-156 28.5q-99 0 -157 -28.5t-58 -78.5t58 -79z" />
    <glyph glyph-name="uniAC86" unicode="&#xac86;" 
d="M391.5 467.5q-110.5 -114.5 -307.5 -165.5l-29 61q163 42 259 125.5t107 194.5h-324v62h405q0 -163 -110.5 -277.5zM299 28q64 30 103 73t40 91h-245v63h573v-63h-248q1 -47 40 -90.5t103.5 -73.5t137.5 -41l-29 -59q-98 18 -177 63.5t-114 109.5q-36 -64 -115 -109.5
t-177 -63.5l-29 59q73 11 137 41zM491 570h192v232h76v-502h-76v206h-192v64z" />
    <glyph glyph-name="uniAC89" unicode="&#xac89;" 
d="M763 292v-57h-485v-88h472v-58h-472v-92h501v-58h-577v353h561zM305 494.5q92 81.5 103 191.5h-312v63h394q0 -162 -106.5 -274t-301.5 -163l-29 61q160 40 252 121.5zM494 579h189v223h77v-473h-77v186h-189v64z" />
    <glyph glyph-name="uniAC8A" unicode="&#xac8a;" 
d="M381.5 469.5q-108.5 -114.5 -298.5 -167.5l-30 62q156 42 250 125t105 193h-311v63h393q0 -161 -108.5 -275.5zM173 2h134v203h-126v62h586v-62h-126v-203h136v-62h-604v62zM566 2v203h-185v-203h185zM489 572h194v229h77v-491h-77v198h-194v64z" />
    <glyph glyph-name="uniAC8B" unicode="&#xac8b;" 
d="M379 478.5q-104 -109.5 -299 -158.5l-28 60q161 40 250 119.5t100 188.5h-304v62h385q0 -162 -104 -271.5zM168 275h269v103h76v-103h265v-60h-610v60zM295 142q65 32 179 32q113 0 178 -32t65 -90q0 -59 -64.5 -91.5t-178.5 -32.5t-179 32.5t-65 91.5q0 58 65 90z
M352.5 1q43.5 -18 121.5 -18q77 0 120.5 18t43.5 51q0 31 -44 49t-120 18t-120.5 -18t-44.5 -49q0 -33 43.5 -51zM489 592h194v211h77v-466h-77v193h-194v62z" />
    <glyph glyph-name="uniAC8C" unicode="&#xac8c;" 
d="M784 803v-877h-73v877h73zM256 370.5q74 116.5 85 257.5h-262v62h337q0 -134 -44 -248h158v337h71v-807h-71v408h-186q-81 -159 -257 -265l-45 55q140 84 214 200.5z" />
    <glyph glyph-name="uniAC90" unicode="&#xac90;" 
d="M777 801v-657h-72v657h72zM259 453q76 89 87 202h-260v63h338q0 -106 -40 -198h147v264h71v-615h-71v288h-182q-85 -130 -264 -207l-38 56q136 58 212 147zM210 225h77v-216h522v-63h-599v279z" />
    <glyph glyph-name="uniAC94" unicode="&#xac94;" 
d="M777 801v-448h-73v448h73zM259.5 504q74.5 78 85.5 183h-258v63h338q0 -91 -31 -165h137v198h71v-426h-71v167h-169q-82 -130 -274 -200l-37 55q134 47 208.5 125zM201 309h576v-210h-498v-99h533v-61h-608v220h498v89h-501v61z" />
    <glyph glyph-name="uniAC9C" unicode="&#xac9c;" 
d="M391 559h141v224h71v-476h-71v190h-172q-82 -138 -269 -218l-39 56q133 55 208 141t87 197h-260v64h337q0 -97 -33 -178zM206 255h571v-314h-571v314zM704 2v192h-424v-192h424zM705 801h72v-504h-72v504z" />
    <glyph glyph-name="uniAC9D" unicode="&#xac9d;" 
d="M390 566h142v217h71v-456h-71v176h-174q-82 -131 -271 -206l-37 56q272 102 294 325h-255v62h333q0 -93 -32 -174zM206 283h76v-107h422v107h73v-343h-571v343zM704 1v115h-422v-115h422zM705 801h72v-482h-72v482z" />
    <glyph glyph-name="uniAC9F" unicode="&#xac9f;" 
d="M777 801v-583h-73v583h73zM258 453.5q75 89.5 86 205.5h-260v62h339q0 -95 -32 -179h140v241h71v-490h-71v186h-170q-83 -144 -274 -230l-39 57q135 58 210 147.5zM293.5 37q68.5 35 111 85.5t42.5 107.5v39h77v-39q0 -57 42.5 -107.5t111.5 -85.5t146 -47l-30 -59
q-101 18 -185.5 69t-123.5 124q-39 -73 -123 -124t-185 -69l-29 59q77 12 145.5 47z" />
    <glyph glyph-name="uniACA0" unicode="&#xaca0;" 
d="M387 551h144v232h71v-474h-71v179h-177q-85 -132 -266 -210l-39 57q134 56 210 141.5t87 197.5h-260v63h338q0 -103 -37 -186zM185.5 41q40.5 36 62.5 79.5t22 85.5v59h73v-59q0 -62 31.5 -118t90.5 -92q60 38 93.5 97t33.5 113v59h74v-59q0 -70 47.5 -131t128.5 -89
l-37 -57q-64 24 -109.5 68t-68.5 101q-21 -58 -61 -104.5t-98 -72.5q-61 25 -102.5 70t-61.5 103q-24 -55 -69 -98.5t-106 -66.5l-37 57q53 19 93.5 55zM704 802h72v-507h-72v507z" />
    <glyph glyph-name="uniACA1" unicode="&#xaca1;" 
d="M391 551h141v232h71v-489h-71v194h-172q-84 -139 -273 -221l-39 57q134 55 210.5 142t88.5 200h-262v64h339q0 -96 -33 -179zM275 210.5q80 43.5 217 43.5q138 0 217 -43.5t79 -119.5q0 -75 -79 -118t-217 -43q-137 0 -217 43t-80 118q0 76 80 119.5zM330.5 16.5
q59.5 -27.5 161.5 -27.5q101 0 160.5 27.5t59.5 74.5q0 48 -59 75.5t-161 27.5t-161.5 -27.5t-59.5 -75.5q0 -47 59.5 -74.5zM705 801h72v-538h-72v538z" />
    <glyph glyph-name="uniACA8" unicode="&#xaca8;" 
d="M468 561h216v242h75v-876h-75v337h-245v63h245v171h-232q-80 -262 -370 -405l-40 60q171 84 261 209t102 283h-325v63h402q0 -72 -14 -147z" />
    <glyph glyph-name="uniACA9" unicode="&#xaca9;" 
d="M487 645h197v157h76v-523h-76v117h-231v63h231v123h-218q-43 -103 -141.5 -177.5t-239.5 -113.5l-30 61q160 45 255 130.5t106 197.5h-317v63h399q0 -49 -11 -98zM177 241h583v-313h-76v250h-507v63z" />
    <glyph glyph-name="uniACAA" unicode="&#xacaa;" 
d="M486 648h198v154h76v-508h-76v106h-232v63h232v122h-219q-43 -102 -140.5 -175.5t-239.5 -112.5l-31 60q160 44 255 129t106 197h-316v62h398q0 -48 -11 -97zM155 251h285v-325h-76v263h-209v62zM481 251h279v-325h-76v263h-203v62z" />
    <glyph glyph-name="uniACAC" unicode="&#xacac;" 
d="M760 801v-651h-77v211h-234v63h234v134h-222q-45 -103 -141.5 -180.5t-230.5 -121.5l-34 61q155 51 251.5 143.5t108.5 209.5h-316v64h398q0 -57 -14 -113h200v180h77zM209 212h75v-203h498v-63h-573v266z" />
    <glyph glyph-name="uniACAF" unicode="&#xacaf;" 
d="M483 656h200v145h77v-497h-77v102h-232v64h232v123h-219q-42 -105 -140 -180.5t-241 -115.5l-30 60q158 44 252.5 129t105.5 197h-316v62h397q0 -47 -9 -89zM197 255h565v-63h-488v-191h503v-62h-580v316z" />
    <glyph glyph-name="uniACB0" unicode="&#xacb0;" 
d="M759 802v-447h-76v92h-232v59h232v108h-219q-39 -103 -137 -173.5t-245 -105.5l-26 62q159 37 249.5 114.5t101.5 183.5h-307v63h390q0 -41 -8 -84h201v128h76zM197 313h562v-212h-485v-105h515v-61h-589v225h484v92h-487v61z" />
    <glyph glyph-name="uniACB7" unicode="&#xacb7;" 
d="M759 803v-449h-76v96h-233v58h233v109h-219q-41 -101 -139 -170.5t-244 -102.5l-26 62q158 35 249 110.5t102 180.5h-306v63h390q0 -41 -8 -84h201v127h76zM140 299h276v-199h-201v-102q83 0 132.5 3t102.5 14l7 -59q-58 -11 -112.5 -14t-155.5 -3h-47v217h200v85h-202
v58zM451 255h140v83h74v-83h142v-58h-356v58zM516.5 129q43.5 32 110.5 32t110.5 -32t43.5 -84q0 -54 -43 -86t-111 -32q-67 0 -110.5 32t-43.5 86q0 52 43.5 84zM564.5 -2.5q24.5 -17.5 62.5 -17.5q39 0 63 17.5t24 47.5q0 28 -24.5 45t-62.5 17t-62.5 -17t-24.5 -45
q0 -30 24.5 -47.5z" />
    <glyph glyph-name="uniACB8" unicode="&#xacb8;" 
d="M684 476v117h-220q-42 -105 -140.5 -181t-241.5 -116l-30 60q158 45 251.5 130t105.5 197h-314v62h397q0 -47 -9 -89h201v145h76v-501h-76v112h-233v64h233zM197 263h563v-324h-563v324zM685 0v202h-413v-202h413z" />
    <glyph glyph-name="uniACB9" unicode="&#xacb9;" 
d="M684 484v116h-218q-41 -104 -139 -177t-244 -112l-31 62q162 40 254 121t103 191h-312v62h395q0 -42 -8 -85h200v140h75v-471h-75v91h-231v62h231zM197 286h75v-111h413v111h74v-348h-562v348zM685 0v115h-413v-115h413z" />
    <glyph glyph-name="uniACBB" unicode="&#xacbb;" 
d="M683 450v124h-221q-41 -106 -137 -185t-237 -124l-33 61q158 49 250 138t103 206h-310v63h392q0 -54 -10 -98h203v166h76v-595h-76v181h-232v63h232zM291.5 40q67.5 36 108 89t40.5 116v39h76v-39q0 -62 40 -114.5t107 -88.5t145 -50l-32 -60q-100 19 -180.5 71
t-117.5 127q-38 -76 -119.5 -128t-182.5 -72l-30 60q78 14 145.5 50z" />
    <glyph glyph-name="uniACBC" unicode="&#xacbc;" 
d="M682 472v119h-221q-42 -104 -139.5 -179.5t-239.5 -115.5l-31 60q158 45 252.5 130t105.5 197h-311v62h392q0 -50 -10 -91h202v148h77v-500h-77v107h-230v63h230zM213 85.5q48 62.5 48 127.5v65h75v-65q0 -61 32 -118t91 -92q60 37 93.5 96.5t33.5 113.5v65h74v-65
q0 -70 47.5 -131t128.5 -90l-38 -56q-64 23 -109 66.5t-67 100.5q-22 -57 -62.5 -103.5t-98.5 -71.5q-61 24 -102.5 69t-61.5 103q-24 -55 -68.5 -98t-105.5 -66l-38 56q80 31 128 93.5z" />
    <glyph glyph-name="uniACBD" unicode="&#xacbd;" 
d="M684 457v120h-222q-42 -105 -139 -181t-239 -119l-31 61q158 46 252 133.5t105 201.5h-312v63h394q0 -49 -11 -98h203v163h76v-526h-76v118h-233v64h233zM264 221q78 45 212 45q133 0 210.5 -45t77.5 -123t-77.5 -122.5t-210.5 -44.5q-134 0 -212 44.5t-78 122.5t78 123z
M319 20q58 -29 157 -29q98 0 156 29t58 78q0 50 -58 78.5t-156 28.5q-99 0 -157 -28.5t-58 -78.5q0 -49 58 -78z" />
    <glyph glyph-name="uniACC1" unicode="&#xacc1;" 
d="M683 492v111h-219q-39 -105 -137 -178.5t-245 -112.5l-30 61q162 40 254 121.5t103 191.5h-313v63h394q0 -43 -8 -86h201v139h77v-473h-77v104h-231v59h231zM202 292h561v-57h-485v-88h472v-58h-472v-92h501v-58h-577v353z" />
    <glyph glyph-name="uniACC4" unicode="&#xacc4;" 
d="M536 338v157h-148q-68 -238 -302 -380l-44 55q138 84 212 200.5t85 257.5h-260v62h335q0 -68 -12 -133h134v222h72v-807h-72v303h-162v63h162zM711 803h73v-877h-73v877z" />
    <glyph glyph-name="uniACC8" unicode="&#xacc8;" 
d="M537 413v131h-145q-71 -194 -309 -299l-37 56q135 58 211.5 148.5t87.5 205.5h-259v63h336q0 -59 -12 -113h127v179h73v-612h-73v180h-161v61h161zM209 229h77v-220h521v-63h-598v283zM705 801h72v-651h-72v651z" />
    <glyph glyph-name="uniACCC" unicode="&#xaccc;" 
d="M537 505v101h-137q-64 -190 -312 -282l-37 55q133 47 207.5 125.5t85.5 182.5h-257v63h336q0 -46 -7 -84h121v117h73v-429h-73v91h-146v60h146zM201 309h576v-210h-498v-103h533v-61h-608v222h498v91h-501v61zM704 801h73v-452h-73v452z" />
    <glyph glyph-name="uniACD5" unicode="&#xacd5;" 
d="M538 484v108h-139q-64 -197 -312 -294l-38 57q272 103 295 323h-255v62h332q0 -49 -7 -88h124v131h72v-458h-72v100h-145v59h145zM206 282h76v-105h422v105h73v-342h-571v342zM704 2v113h-422v-113h422zM705 801h72v-483h-72v483z" />
    <glyph glyph-name="uniACD7" unicode="&#xacd7;" 
d="M531 458v113h-132q-32 -104 -111 -185.5t-201 -136.5l-40 56q134 58 209.5 148t86.5 206h-259v63h337q0 -49 -7 -90h117v151h71v-501h-71v115h-140v61h140zM293.5 36q68.5 34 111 83.5t42.5 106.5v35h77v-35q0 -57 42.5 -106.5t111.5 -83.5t146 -46l-29 -60
q-102 18 -186.5 68t-123.5 122q-39 -72 -123 -122t-186 -68l-28 60q77 12 145.5 46zM704 801h73v-592h-73v592z" />
    <glyph glyph-name="uniACE0" unicode="&#xace0;" 
d="M735 712v-85q0 -112 -5.5 -200t-26.5 -206l-76 10q21 111 26.5 198t5.5 198v23h-535v62h611zM40 113h310v314h76v-314h405v-62h-791v62z" />
    <glyph glyph-name="uniACE1" unicode="&#xace1;" 
d="M368 384v180h75v-180h387v-61h-789v61h327zM126 221h603v-295h-75v233h-528v62zM135 754h595v-65q0 -69 -3.5 -123t-18.5 -119l-76 8q15 64 19 115.5t4 118.5v4h-520v61z" />
    <glyph glyph-name="uniACE4" unicode="&#xace4;" 
d="M730 750v-60q0 -73 -4 -132t-20 -133l-75 9q16 73 20 128.5t4 125.5h-520v62h595zM41 364h327v182h75v-182h387v-62h-789v62zM142 212h75v-202h535v-64h-610v266z" />
    <glyph glyph-name="uniACE7" unicode="&#xace7;" 
d="M730 761v-74q0 -70 -4 -121t-20 -110l-75 8q16 60 20 108t4 115v13h-520v61h595zM41 405h327v165h75v-165h387v-62h-789v62zM140 244h589v-62h-513v-181h525v-61h-601v304z" />
    <glyph glyph-name="uniACE8" unicode="&#xace8;" 
d="M730 766v-56q0 -60 -3 -106t-14 -102l-75 7q11 55 14 99.5t3 96.5h-520v61h595zM41 451h327v154h75v-154h387v-62h-789v62zM134 307h599v-208h-522v-101h544v-60h-618v217h521v91h-524v61z" />
    <glyph glyph-name="uniACEA" unicode="&#xacea;" 
d="M729 761v-54q0 -62 -3 -114t-15 -114l-75 7q12 62 15.5 110.5t3.5 103.5h-520v61h594zM41 432h327v160h75v-160h387v-63h-789v63zM123 288h280v-196h-204v-97q82 0 129 3t97 13l7 -58q-55 -10 -107 -13t-153 -3h-46v210h204v84h-207v57zM461 288h280v-351h-280v351z
M676 -5v236h-150v-236h150z" />
    <glyph glyph-name="uniACEC" unicode="&#xacec;" 
d="M648 306v-85q0 -72 39 -137.5t113 -97.5l-41 -54q-53 25 -90.5 67.5t-57.5 97.5q-20 -54 -57 -97t-89 -68l-42 54q73 34 112.5 99t39.5 136v85h73zM41 435h327v161h75v-161h387v-63h-789v63zM123 288h280v-195h-204v-98q77 0 122.5 3t92.5 13l8 -59q-55 -10 -105 -12.5
t-146 -2.5h-45v210h204v85h-207v56zM135 765h595v-68q0 -65 -3 -112.5t-15 -102.5l-76 9q13 55 16 99t3 107v8h-520v60z" />
    <glyph glyph-name="uniACEF" unicode="&#xacef;" 
d="M571 245v80h74v-80h148v-58h-367v58h145zM41 442h327v161h75v-161h387v-61h-789v61zM122 296h271v-199h-197v-99q86 0 134.5 3t99.5 14l8 -58q-57 -11 -111.5 -14t-155.5 -3h-47v213h197v86h-199v57zM135 772h594v-54q0 -61 -3 -112t-15 -114l-75 9q12 61 15.5 108.5
t3.5 100.5h-520v62zM503 123.5q41 30.5 106 30.5t106 -30.5t41 -82.5t-41 -82.5t-106 -30.5t-106 30.5t-41 82.5t41 82.5zM549.5 -3.5q22.5 -16.5 59.5 -16.5q36 0 58.5 16.5t22.5 44.5t-22 43.5t-59 15.5t-59.5 -15.5t-22.5 -43.5t22.5 -44.5z" />
    <glyph glyph-name="uniACF0" unicode="&#xacf0;" 
d="M732 246v-307h-595v307h595zM41 408h327v169h75v-169h387v-63h-789v63zM135 762h595v-73q0 -70 -4 -121t-20 -110l-75 9q16 59 20 107t4 115v12h-520v61zM658 0v184h-447v-184h447z" />
    <glyph glyph-name="uniACF1" unicode="&#xacf1;" 
d="M730 766v-64q0 -65 -4 -116t-20 -113l-75 7q16 62 20 111t4 111v3h-520v61h595zM42 426h326v155h75v-155h387v-63h-788v63zM144 288h75v-109h433v109h74v-349h-582v349zM652 0v120h-433v-120h433z" />
    <glyph glyph-name="uniACF3" unicode="&#xacf3;" 
d="M729 760v-61q0 -69 -4 -124t-19 -123l-74 8q15 68 19 120t4 119h-520v61h594zM41 390h327v177h75v-177h387v-61h-789v61zM245 34q68 32 108.5 79.5t40.5 104.5v40h76v-40q0 -57 40.5 -105t108.5 -79.5t148 -43.5l-30 -60q-102 17 -184.5 64t-120.5 117q-38 -70 -120 -117
t-186 -64l-28 60q79 12 147 44z" />
    <glyph glyph-name="uniACF5" unicode="&#xacf5;" 
d="M655 206q82 -43 82 -118t-82 -117t-223 -42q-140 0 -221.5 42t-81.5 117t81.5 118t221.5 43q141 0 223 -43zM41 393h327v170h75v-170h387v-62h-789v62zM135 757h594v-74q0 -71 -4 -121t-20 -111l-74 9q16 59 20 107.5t4 115.5v13h-520v61zM266 15q62 -27 166 -27
q105 0 167.5 27t62.5 73q0 47 -62 74t-168 27q-104 0 -166 -27t-62 -74q0 -46 62 -73z" />
    <glyph glyph-name="uniACF6" unicode="&#xacf6;" 
d="M738 252v-62h-262q9 -77 94 -130.5t203 -70.5l-27 -59q-105 16 -188.5 61t-121.5 114q-38 -69 -121.5 -114t-187.5 -61l-27 59q118 17 203 70.5t94 130.5h-263v62h604zM41 414h327v161h75v-161h387v-63h-789v63zM135 765h595v-71q0 -68 -4 -117.5t-20 -107.5l-74 10
q15 57 19 103.5t4 111.5v10h-520v61z" />
    <glyph glyph-name="uniACFC" unicode="&#xacfc;" 
d="M519 706v-46q0 -81 -4 -161.5t-20 -187.5l-76 8q26 159 26 324h-366v63h440zM219 185v270h74v-268q172 7 286 21l3 -55q-205 -33 -541 -35l-10 65q54 0 188 2zM634 803h75v-368h143v-65h-143v-444h-75v877z" />
    <glyph glyph-name="uniACFD" unicode="&#xacfd;" 
d="M519 742v-46q0 -61 -4 -117.5t-18 -126.5l-75 8q23 105 23 219h-357v63h431zM222 374v181h75v-178q160 5 285 23l6 -55q-204 -37 -544 -37l-10 64q121 0 188 2zM146 216h574v-284h-77v222h-497v62zM643 802h77v-246h126v-63h-126v-232h-77v541z" />
    <glyph glyph-name="uniAD00" unicode="&#xad00;" 
d="M520 734v-47q0 -63 -4 -123t-18 -135l-75 8q23 114 23 234h-358v63h432zM222 349v190h75v-188q168 7 286 24l6 -57q-121 -20 -256.5 -27t-288.5 -8l-10 64q121 0 188 2zM169 202h76v-193h502v-63h-578v256zM643 802h77v-287h127v-64h-127v-308h-77v659z" />
    <glyph glyph-name="uniAD04" unicode="&#xad04;" 
d="M519 753v-41q0 -56 -3.5 -108t-17.5 -117l-75 8q22 98 22 196h-357v62h431zM221 420v158h76v-156q172 7 286 21l7 -55q-207 -33 -546 -33l-9 63q120 0 186 2zM149 291h571v-200h-494v-96h526v-59h-601v212h492v85h-494v58zM643 802h77v-211h126v-62h-126v-198h-77v471z
" />
    <glyph glyph-name="uniAD06" unicode="&#xad06;" 
d="M394 275v-190h-201v-90q83 0 127.5 2.5t91.5 12.5l6 -57q-53 -10 -104 -13t-150 -3h-44v202h200v79h-203v57h277zM221 422v158h76v-156q158 5 286 22l7 -55q-123 -21 -256 -27t-290 -6l-9 62q120 0 186 2zM88 753h431v-41q0 -56 -3.5 -108t-17.5 -117l-75 8
q22 100 22 196h-357v62zM444 275h276v-338h-276v338zM653 -5v221h-142v-221h142zM643 802h77v-216h126v-62h-126v-207h-77v485z" />
    <glyph glyph-name="uniAD0C" unicode="&#xad0c;" 
d="M519 748v-44q0 -57 -4 -111t-18 -121l-75 7q23 105 23 206h-357v63h431zM222 393v165h75v-163q178 7 286 23l6 -55q-123 -21 -256.5 -27.5t-288.5 -6.5l-10 62q120 0 188 2zM160 236h560v-296h-560v296zM645 2v172h-410v-172h410zM643 802h77v-230h126v-64h-126v-228h-77
v522z" />
    <glyph glyph-name="uniAD0D" unicode="&#xad0d;" 
d="M519 750v-42q0 -56 -3.5 -108.5t-17.5 -118.5l-75 8q22 101 22 199h-357v62h431zM221 410v158h76v-156q167 7 289 23l5 -56q-207 -34 -547 -34l-10 63q121 0 187 2zM161 275h77v-101h406v101h76v-336h-559v336zM644 1v113h-406v-113h406zM643 802h77v-218h126v-63h-126
v-210h-77v491z" />
    <glyph glyph-name="uniAD0F" unicode="&#xad0f;" 
d="M519 746v-44q0 -60 -4 -116t-20 -126l-74 7q24 110 24 216h-357v63h431zM222 374v178h75v-176q168 7 286 24l7 -56q-122 -21 -257.5 -28t-288.5 -7l-10 63q121 0 188 2zM267 32q67 31 106.5 77.5t39.5 101.5v35h80v-35q0 -55 40 -101.5t107 -77.5t146 -42l-29 -61
q-103 18 -184.5 64.5t-119.5 114.5q-37 -68 -118.5 -114.5t-183.5 -64.5l-30 61q79 11 146 42zM643 803h77v-265h126v-65h-126v-268h-77v598z" />
    <glyph glyph-name="uniAD10" unicode="&#xad10;" 
d="M317 243v-33q0 -59 32 -116t92 -91q60 35 93 92.5t33 114.5v33h73v-30q0 -70 47 -130t129 -87l-38 -56q-62 22 -106.5 63.5t-68.5 96.5q-21 -57 -61.5 -102t-100.5 -69q-60 24 -101 68t-61 101q-24 -54 -68 -95t-105 -63l-37 56q80 29 127.5 89t47.5 128v30h73zM222 391
v167h75v-165q177 7 286 23l6 -56q-123 -20 -258 -26.5t-287 -6.5l-10 63q121 0 188 1zM88 748h431v-44q0 -57 -4 -111t-18 -121l-75 7q23 105 23 206h-357v63zM643 803h77v-231h126v-64h-126v-228h-77v523z" />
    <glyph glyph-name="uniAD11" unicode="&#xad11;" 
d="M519 746v-47q0 -60 -4 -114t-18 -122l-75 6q23 103 23 215h-357v62h431zM222 382v175h75v-173q175 7 286 22l6 -55q-220 -35 -545 -35l-10 64q121 0 188 2zM226 202.5q77 41.5 212 41.5t212 -41.5t77 -115.5q0 -75 -77 -117t-212 -42t-212 42t-77 117q0 74 77 115.5z
M282 15.5q57 -25.5 156 -25.5q100 0 156.5 25.5t56.5 71.5t-57 71.5t-156 25.5t-156 -25.5t-57 -71.5t57 -71.5zM643 803h77v-241h126v-65h-126v-242h-77v548z" />
    <glyph glyph-name="uniAD18" unicode="&#xad18;" 
d="M439 701v-59q0 -82 -3.5 -153.5t-17.5 -164.5l-70 5q13 90 16.5 160t3.5 150h-297v62h368zM180 204v252h71v-250q131 5 230 18l3 -56q-163 -30 -442 -30l-12 64q95 0 150 2zM527 782h72v-351h108v372h74v-877h-74v441h-108v-394h-72v809z" />
    <glyph glyph-name="uniAD1C" unicode="&#xad1c;" 
d="M443 733v-58q0 -66 -3.5 -120.5t-16.5 -121.5l-71 7q13 66 16.5 118.5t3.5 111.5h-292v63h363zM187 354v180h70v-178q138 5 226 17l3 -57q-172 -28 -445 -28l-10 64q99 0 156 2zM190 206h75v-197h536v-63h-611v260zM525 785h72v-263h106v279h73v-664h-73v321h-106v-295
h-72v622z" />
    <glyph glyph-name="uniAD20" unicode="&#xad20;" 
d="M443 751v-52q0 -57 -3 -105.5t-15 -107.5l-71 7q11 55 14.5 100.5t3.5 95.5h-292v62h363zM187 415v158h70v-156q128 5 225 18l4 -55q-170 -28 -445 -28l-10 61q99 0 156 2zM185 284h591v-197h-515v-91h546v-59h-621v207h516v82h-517v58zM525 785h71v-200h107v217h73v-480
h-73v202h-107v-196h-71v457z" />
    <glyph glyph-name="uniAD22" unicode="&#xad22;" 
d="M430 282v-195h-219v-92q85 0 134 2.5t101 12.5l9 -56q-60 -11 -115 -14t-154 -3h-48v206h219v82h-220v57h293zM187 421v155h70v-153q134 5 225 16l5 -54q-164 -28 -445 -28l-11 62q99 0 156 2zM80 751h363v-52q0 -57 -3 -105.5t-14 -107.5l-72 7q11 55 14.5 100.5
t3.5 95.5h-292v62zM484 282h293v-345h-293v345zM526 785h71v-197h106v214h74v-474h-74v198h-106v-193h-71v452zM706 -5v228h-150v-228h150z" />
    <glyph glyph-name="uniAD29" unicode="&#xad29;" 
d="M443 749v-55q0 -60 -3 -110.5t-16 -112.5l-71 5q12 60 15.5 109t3.5 102h-292v62h363zM187 397v166h70v-164q145 7 225 17l5 -54q-156 -26 -446 -28l-10 61q42 0 156 2zM187 270h77v-100h437v100h76v-331h-590v331zM701 1v108h-437v-108h437zM526 785h71v-210h106v227h74
v-495h-74v205h-106v-198h-71v471z" />
    <glyph glyph-name="uniAD2C" unicode="&#xad2c;" 
d="M442 742v-55q0 -62 -3 -114t-15 -115l-71 8q11 61 14.5 110t3.5 104h-292v62h363zM186 380v169h70v-167q140 5 226 18l4 -53q-95 -18 -207 -24.5t-238 -7.5l-9 63q97 0 154 2zM218 82.5q48 60.5 48 131.5v31h73v-31q0 -60 32 -118t92 -93q60 36 92.5 94t32.5 117v31h74
v-31q0 -72 47.5 -132.5t129.5 -87.5l-37 -56q-64 23 -109 66t-68 99q-20 -57 -61 -103t-100 -71q-60 24 -100.5 69t-61.5 102q-24 -55 -69.5 -97.5t-107.5 -64.5l-37 56q82 28 130 88.5zM525 785h71v-223h106v241h74v-526h-74v222h-106v-215h-71v501z" />
    <glyph glyph-name="uniAD2D" unicode="&#xad2d;" 
d="M443 736v-58q0 -62 -3 -114.5t-14 -116.5l-72 5q12 63 15 112.5t3 109.5h-292v62h363zM187 371v170h70v-168q130 5 225 19l4 -53q-95 -19 -208 -25t-236 -6l-11 62q98 0 156 1zM255 189.5q79 39.5 221 39.5t221.5 -39.5t79.5 -111.5t-79.5 -111.5t-221.5 -39.5
q-141 0 -220.5 39.5t-79.5 111.5t79 111.5zM311.5 10.5q58.5 -23.5 164.5 -23.5t164.5 23.5t58.5 67.5t-58.5 68t-164.5 24t-164.5 -24t-58.5 -68t58.5 -67.5zM526 785h71v-224h106v241h74v-554h-74v251h-106v-224h-71v510z" />
    <glyph glyph-name="uniAD34" unicode="&#xad34;" 
d="M542 699v-41q0 -78 -4 -157t-20 -185l-76 9q26 159 26 312h-367v62h441zM241 182v259h75v-257q174 7 308 23l6 -56q-131 -22 -274 -29t-301 -7l-10 65q127 0 196 2zM681 803h76v-878h-76v878z" />
    <glyph glyph-name="uniAD35" unicode="&#xad35;" 
d="M533 742v-46q0 -61 -4 -118t-19 -128l-74 9q15 64 19.5 116t4.5 104h-353v63h426zM242 367v178h74v-176q162 5 296 22l5 -55q-127 -21 -263 -27.5t-301 -7.5l-10 64q129 0 199 2zM168 215h590v-290h-76v227h-514v63zM682 803h76v-544h-76v544z" />
    <glyph glyph-name="uniAD38" unicode="&#xad38;" 
d="M538 736v-53q0 -65 -4 -123t-20 -130l-74 9q15 68 19.5 121.5t4.5 111.5h-361v64h435zM244 345v186h74v-184q176 7 293 21l4 -57q-230 -33 -562 -33l-11 65q60 0 202 2zM196 195h76v-186h510v-63h-586v249zM682 802h76v-664h-76v664z" />
    <glyph glyph-name="uniAD3C" unicode="&#xad3c;" 
d="M532 753v-41q0 -56 -4 -108t-19 -118l-73 7q21 102 21 198h-352v62h427zM243 418v164h74v-162q167 7 294 23l4 -55q-129 -20 -269 -26.5t-293 -6.5l-11 61q130 0 201 2zM178 284h580v-196h-503v-92h538v-59h-613v207h503v83h-505v57zM682 802h76v-477h-76v477z" />
    <glyph glyph-name="uniAD44" unicode="&#xad44;" 
d="M758 801v-525h-76v525h76zM242 387v163h74v-161q171 7 296 24l4 -54q-128 -21 -264 -28t-299 -8l-10 62q128 0 199 2zM107 746h426v-46q0 -60 -3.5 -113.5t-17.5 -119.5l-75 7q22 100 22 210h-352v62zM185 232h573v-293h-573v293zM684 0v170h-424v-170h424z" />
    <glyph glyph-name="uniAD45" unicode="&#xad45;" 
d="M758 800v-491h-76v491h76zM243 396v157h74v-154q179 7 295 22l4 -56q-222 -32 -563 -32l-10 61q60 0 200 2zM107 751h426v-55q0 -59 -3.5 -109t-17.5 -113l-73 7q14 60 18 107.5t4 100.5h-354v62zM181 269h75v-101h427v101h75v-330h-577v330zM683 0v107h-427v-107h427z
" />
    <glyph glyph-name="uniAD47" unicode="&#xad47;" 
d="M757 801v-613h-76v613h76zM241 374v168h74v-166q157 5 296 21l4 -55q-227 -35 -562 -35l-11 64q94 0 199 3zM107 745h425v-62q0 -64 -3.5 -114.5t-16.5 -111.5l-75 9q15 60 18.5 107.5t3.5 108.5h-352v63zM283.5 38q66.5 32 107 79.5t40.5 102.5v31h77v-31
q0 -56 40.5 -103t107.5 -79t145 -44l-29 -60q-102 18 -183.5 65t-118.5 116q-38 -69 -119 -116t-183 -65l-29 60q78 12 144.5 44z" />
    <glyph glyph-name="uniAD49" unicode="&#xad49;" 
d="M758 803v-552h-76v552h76zM242 375v166h74v-164q174 5 295 22l5 -54q-127 -21 -260.5 -27.5t-302.5 -7.5l-10 63q129 0 199 2zM107 746h426v-59q0 -65 -3.5 -118t-18.5 -117l-73 8q15 63 18.5 112.5t3.5 111.5h-353v62zM253 201q78 41 216 41q137 0 214.5 -41t77.5 -116
q0 -74 -77.5 -116t-214.5 -42t-215.5 42t-78.5 116q0 75 78 116zM310.5 14.5q57.5 -25.5 158.5 -25.5q100 0 157.5 25.5t57.5 70.5q0 46 -57 71.5t-158 25.5t-158.5 -25.5t-57.5 -71.5q0 -45 57.5 -70.5z" />
    <glyph glyph-name="uniAD50" unicode="&#xad50;" 
d="M736 712v-97q0 -112 -5 -195.5t-25 -192.5l-75 10q20 103 25 185t5 193v35h-539v62h614zM40 113h197v291h75v-291h141v291h75v-291h303v-62h-791v62z" />
    <glyph glyph-name="uniAD54" unicode="&#xad54;" 
d="M735 751v-69q0 -73 -3.5 -129.5t-16.5 -126.5l-77 7q15 69 18.5 123.5t3.5 125.5v7h-528v62h603zM41 358h204v182h74v-182h146v182h74v-182h291v-63h-789v63zM142 208h75v-200h535v-62h-610v262z" />
    <glyph glyph-name="uniAD58" unicode="&#xad58;" 
d="M735 770v-60q0 -61 -3 -107t-14 -100l-74 8q11 54 13.5 97t2.5 101h-528v61h603zM41 448h205v160h74v-160h143v160h73v-160h294v-63h-789v63zM134 307h599v-208h-522v-101h544v-60h-618v217h521v91h-524v61z" />
    <glyph glyph-name="uniAD60" unicode="&#xad60;" 
d="M732 246v-307h-595v307h595zM41 399h204v168h74v-168h146v168h74v-168h291v-62h-789v62zM132 765h603v-62q0 -67 -3.5 -119.5t-16.5 -116.5l-76 7q14 64 17.5 114t3.5 115v1h-528v61zM658 0v184h-447v-184h447z" />
    <glyph glyph-name="uniAD61" unicode="&#xad61;" 
d="M734 767v-63q0 -66 -3.5 -117.5t-18.5 -114.5l-75 8q15 63 18.5 112t3.5 112v2h-528v61h603zM42 418h204v162h74v-162h140v162h75v-162h295v-63h-788v63zM144 287h75v-109h433v109h74v-348h-582v348zM652 0v119h-433v-119h433z" />
    <glyph glyph-name="uniAD63" unicode="&#xad63;" 
d="M739 762v-75q0 -72 -3.5 -123.5t-17.5 -112.5l-75 8q14 59 17.5 108.5t3.5 119.5v14h-531v61h606zM40 385h207v181h74v-181h141v181h74v-181h295v-62h-791v62zM245 34q68 32 108.5 79.5t40.5 104.5v40h76v-40q0 -57 40.5 -105t108.5 -79.5t148 -43.5l-30 -60
q-102 17 -184.5 64t-120.5 117q-38 -70 -120 -117t-186 -64l-28 60q79 12 147 44z" />
    <glyph glyph-name="uniAD65" unicode="&#xad65;" 
d="M735 760v-64q0 -67 -3.5 -120t-16.5 -118l-76 7q14 64 17.5 115t3.5 116v2h-528v62h603zM41 388h204v172h74v-172h146v172h74v-172h291v-61h-789v61zM210.5 206q81.5 43 221.5 43q141 0 223 -43t82 -118t-82 -117t-223 -42q-140 0 -221.5 42t-81.5 117t81.5 118zM266 15
q62 -27 166 -27q105 0 167.5 27t62.5 73q0 47 -62 74t-168 27q-104 0 -166 -27t-62 -74q0 -46 62 -73z" />
    <glyph glyph-name="uniAD6C" unicode="&#xad6c;" 
d="M726 745v-76q0 -86 -4 -151.5t-21 -149.5h130v-62h-359v-380h-76v380h-356v62h585q18 83 22.5 149.5t4.5 151.5v15h-511v61h585z" />
    <glyph glyph-name="uniAD6D" unicode="&#xad6d;" 
d="M730 760v-63q0 -70 -3.5 -125t-18.5 -125h125v-64h-360v-162h262v-295h-75v233h-537v62h275v162h-358v64h592q16 70 20 125.5t4 124.5v1h-514v62h588z" />
    <glyph glyph-name="uniAD70" unicode="&#xad70;" 
d="M730 755v-69q0 -75 -3.5 -135t-18.5 -136h125v-62h-356v-212h-75v212h-362v62h591q17 76 21 136t4 135v7h-514v62h588zM141 219h75v-210h532v-63h-607v273z" />
    <glyph glyph-name="uniAD73" unicode="&#xad73;" 
d="M730 760v-64q0 -68 -3.5 -122t-17.5 -122h124v-63h-360v-147h262v-61h-522v-181h530v-61h-605v303h260v147h-358v63h593q15 68 19 122.5t4 121.5v2h-514v62h588z" />
    <glyph glyph-name="uniAD74" unicode="&#xad74;" 
d="M730 766v-55q0 -62 -3 -113.5t-16 -113.5h122v-60h-361v-115h261v-211h-522v-100h544v-60h-618v216h521v94h-524v61h263v115h-357v60h595q13 63 17 113.5t4 107.5h-514v61h588z" />
    <glyph glyph-name="uniAD75" unicode="&#xad75;" 
d="M730 767v-55q0 -63 -3.5 -115.5t-16.5 -116.5h123v-62h-361v-130h-75v130h-357v62h594q14 65 18 116.5t4 109.5h-514v61h588zM125 284h289v-197h-213v-92q102 0 161 4.5t118 18.5l10 -59q-65 -14 -128.5 -18t-180.5 -4h-54v207h214v82h-216v58zM463 284h276v-352h-74v291
h-202v61z" />
    <glyph glyph-name="uniAD76" unicode="&#xad76;" 
d="M730 767v-55q0 -63 -3.5 -116t-16.5 -118h123v-62h-362v-128h270v-351h-280v347h-58v-192h-204v-97q81 0 128.5 3t97.5 12l7 -57q-55 -10 -107 -13t-153 -3h-46v210h204v84h-207v57h274v128h-357v62h594q14 65 18 117t4 111h-514v61h588zM676 -5v236h-150v-236h150z" />
    <glyph glyph-name="uniAD7B" unicode="&#xad7b;" 
d="M729 768v-53q0 -63 -3 -116t-15 -118h122v-61h-363v-129h-76v129h-354v61h595q13 65 17 117.5t4 109.5h-514v60h587zM122 288h271v-196h-197v-94q86 0 134.5 3t99.5 14l8 -58q-57 -11 -111.5 -14t-155.5 -3h-47v208h197v84h-199v56zM426 250h145v81h74v-81h148v-58h-367
v58zM503 129.5q41 31.5 106 31.5t106 -31.5t41 -85.5t-41 -85.5t-106 -31.5t-106 31.5t-41 85.5t41 85.5zM549.5 -4q22.5 -18 59.5 -18q36 0 58.5 18t22.5 48t-22.5 48t-58.5 18t-59 -18t-23 -48t22.5 -48z" />
    <glyph glyph-name="uniAD7C" unicode="&#xad7c;" 
d="M729 762v-62q0 -68 -3.5 -123t-18.5 -123h126v-63h-361v-150h261v-302h-595v302h259v150h-357v63h591q16 69 20 123.5t4 122.5v1h-515v61h589zM659 0v181h-447v-181h447z" />
    <glyph glyph-name="uniAD7D" unicode="&#xad7d;" 
d="M729 765v-62q0 -68 -3.5 -123t-17.5 -122h125v-62h-362v-154h-75v154h-356v62h592q15 69 19 123t4 122h-515v62h589zM142 292h76v-113h436v113h75v-353h-587v353zM654 0v119h-436v-119h436z" />
    <glyph glyph-name="uniAD7F" unicode="&#xad7f;" 
d="M730 765v-57q0 -68 -3.5 -124.5t-17.5 -127.5h124v-63h-361v-138h-75v138h-357v63h592q16 71 20 126t4 122h-514v61h588zM246.5 26.5q67.5 27.5 108.5 69t41 90.5v33h76v-33q0 -50 40.5 -91.5t108 -68.5t146.5 -37l-26 -58q-104 13 -186.5 55t-120.5 105
q-38 -62 -121 -104.5t-186 -55.5l-26 58q78 10 145.5 37.5z" />
    <glyph glyph-name="uniAD81" unicode="&#xad81;" 
d="M730 764v-63q0 -69 -3.5 -125t-18.5 -125h125v-63h-361v-138q125 -5 195 -47.5t70 -113.5q0 -76 -80 -118.5t-223 -42.5q-142 0 -222 42.5t-80 118.5q0 71 70 113.5t195 47.5v138h-357v63h592q16 71 20 126t4 124v1h-514v62h588zM268 16.5q61 -26.5 166 -26.5
q106 0 167 26.5t61 72.5q0 48 -60.5 74t-167.5 26q-106 0 -166.5 -26t-60.5 -74q0 -46 61 -72.5z" />
    <glyph glyph-name="uniAD82" unicode="&#xad82;" 
d="M730 762v-54q0 -66 -3.5 -121.5t-18.5 -126.5h125v-61h-360v-142h265v-62h-262q4 -53 45.5 -96t108 -71t143.5 -39l-27 -59q-104 16 -188 61.5t-122 114.5q-38 -69 -121.5 -114.5t-187.5 -61.5l-27 59q77 11 143.5 39t108 71t45.5 96h-263v62h264v142h-358v61h593
q15 70 19 125t4 116h-514v61h588z" />
    <glyph glyph-name="uniAD88" unicode="&#xad88;" 
d="M759 802v-877h-76v261h-200v61h200v555h76zM422 403q22 130 22 265h-335v63h410v-49q0 -68 -3.5 -130.5t-17.5 -143.5q41 2 116 10l5 -56q-129 -18 -269 -24v-364h-77v360q-108 -4 -229 -4l-10 63q257 2 388 10z" />
    <glyph glyph-name="uniAD89" unicode="&#xad89;" 
d="M760 803v-561h-76v77h-194v58h194v426h76zM426 495q21 104 21 202h-328v63h402v-43q0 -54 -3.5 -104t-15.5 -114l101 9l6 -55q-110 -14 -264 -23v-187h-76v184q-120 -3 -225 -3l-10 62q238 0 392 9zM167 205h592v-277h-76v216h-516v61z" />
    <glyph glyph-name="uniAD8C" unicode="&#xad8c;" 
d="M759 801v-660h-76v123h-192v60h192v477h76zM425 465q19 108 21 221h-332v62h408v-34q0 -57 -3.5 -113t-16.5 -129q68 6 100 11l5 -55q-115 -20 -249 -28v-204h-75v200q-107 -5 -238 -5l-11 64q238 0 391 10zM164 213h77v-204h540v-63h-617v267z" />
    <glyph glyph-name="uniAD90" unicode="&#xad90;" 
d="M759 802v-498h-77v59h-193v53h193v386h77zM425 524q18 93 20 178h-323v63h397v-24q0 -112 -19 -211q54 5 105 12l6 -54q-124 -20 -267 -28v-154h-76v150q-120 -3 -221 -3l-11 59q223 0 389 12zM176 273h583v-192h-507v-86h541v-58h-615v198h506v80h-508v58z" />
    <glyph glyph-name="uniAD9C" unicode="&#xad9c;" 
d="M758 802v-529h-76v66h-193v58h193v405h76zM246.5 505q89.5 2 180.5 9q18 98 18 189h-327v62h402v-41q0 -51 -3 -98t-14 -106q51 5 99 12l5 -56q-121 -20 -263 -28v-173h-76v169q-101 -5 -225 -5l-10 63q124 1 213.5 3zM228 87q46 59 46 127v29h73v-29q0 -58 30.5 -113.5
t88.5 -90.5q57 35 88 91.5t31 112.5v29h74v-29q0 -68 46 -127.5t125 -86.5l-37 -57q-62 23 -106 65t-66 96q-19 -56 -58 -100t-97 -67q-58 23 -96.5 66t-58.5 98q-23 -53 -67 -94.5t-104 -63.5l-37 57q79 28 125 87z" />
    <glyph glyph-name="uniAD9D" unicode="&#xad9d;" 
d="M759 803v-559h-76v77h-193v57h193v425h76zM426 494q21 101 21 204h-327v62h402v-45q0 -54 -3.5 -103t-15.5 -111q52 5 101 12l6 -55q-122 -20 -266 -28v-176h-75v172q-107 -4 -223 -4l-10 61q238 0 390 11zM259 197.5q78 40.5 216 40.5t215.5 -40.5t77.5 -114.5
t-77.5 -115t-215.5 -41t-216 41t-78 115t78 114.5zM315 13q57 -25 160 -25q102 0 159 24.5t57 70.5q0 45 -57 70t-159 25t-159.5 -25t-57.5 -70t57 -70z" />
    <glyph glyph-name="uniADA4" unicode="&#xada4;" 
d="M780 803v-877h-74v877h74zM336 403q23 122 23 239h-282v63h353v-43q0 -62 -3.5 -120t-17.5 -133q43 3 78 9l6 -55q-95 -17 -199 -23v-338h-74v334q-89 -4 -181 -4l-9 62q183 0 306 9zM379 249h163v532h71v-806h-71v211h-163v63z" />
    <glyph glyph-name="uniADB7" unicode="&#xadb7;" 
d="M775 803v-635h-73v635h73zM335 475q12 58 16 103.5t5 94.5h-272v62h344v-38q0 -52 -3.5 -102.5t-15.5 -113.5q46 3 86 9l6 -54q-78 -15 -201 -24v-212h-72v208q-86 -5 -187 -5l-9 65q176 0 303 7zM285 26.5q68 28.5 108.5 72t40.5 96.5v22h75v-22q0 -53 40 -96.5
t106.5 -72t146.5 -38.5l-28 -60q-102 16 -183.5 58.5t-119.5 107.5q-38 -64 -120.5 -107t-185.5 -59l-28 60q80 10 148 38.5zM380 363h160v422h71v-578h-71v98h-160v58z" />
    <glyph glyph-name="uniADB8" unicode="&#xadb8;" 
d="M774 803v-543h-73v543h73zM335 492q19 92 21 190h-273v62h345v-36q0 -52 -3.5 -100.5t-15.5 -109.5q57 6 86 10l5 -54q-79 -15 -200 -24v-162h-72v158q-103 -3 -187 -3l-9 61q178 0 303 8zM217 79q48 58 48 125v24h73v-24q0 -57 32.5 -112.5t91.5 -89.5q60 35 92.5 90.5
t32.5 111.5v24h74v-24q0 -68 48 -126.5t130 -83.5l-37 -56q-64 21 -109.5 62.5t-68.5 96.5q-20 -56 -61 -100t-100 -68q-60 24 -101 67.5t-62 98.5q-23 -54 -68.5 -95t-108.5 -62l-36 56q82 27 130 85zM379 384h160v402h71v-519h-71v60h-160v57z" />
    <glyph glyph-name="uniADC0" unicode="&#xadc0;" 
d="M763 803v-877h-75v877h75zM420 391q25 136 27 280h-335v63h410v-35q0 -67 -4.5 -137.5t-20.5 -165.5q50 3 127 11l6 -57q-113 -15 -272 -24v-348h-76v345q-111 -4 -236 -4l-10 64q232 0 384 8z" />
    <glyph glyph-name="uniADC1" unicode="&#xadc1;" 
d="M752 803v-519h-75v519h75zM425 465q13 67 16.5 119.5t3.5 109.5h-325v62h400v-56q0 -61 -3 -113t-15 -116q70 8 108 13l5 -56q-119 -20 -254 -28v-162h391v-316h-75v253h-513v63h121v158q-107 -5 -238 -5l-11 63q237 0 389 11z" />
    <glyph glyph-name="uniADC4" unicode="&#xadc4;" 
d="M434 443q18 116 20 236h-333v62h408v-31q0 -138 -19 -261q22 2 33 4q26 2 68 8l6 -55q-97 -16 -235 -27v-198h-76v194q-110 -6 -255 -6l-11 64q240 0 394 10zM169 210h74v-201h535v-63h-609v264zM676 802h76v-656h-76v656z" />
    <glyph glyph-name="uniADC8" unicode="&#xadc8;" 
d="M751 801v-456h-75v456h75zM427 497q18 100 20 204h-325v62h399v-30q0 -125 -17 -231q53 3 106 9l4 -54q-117 -15 -257 -22v-131h394v-207h-497v-100h532v-60h-607v216h497v92h-499v59h105v128q-77 -3 -230 -5l-11 62q232 0 386 8z" />
    <glyph glyph-name="uniADD0" unicode="&#xadd0;" 
d="M752 802v-508h-75v508h75zM428 458q11 65 14 116.5t3 114.5h-325v63h400v-59q0 -63 -2.5 -114.5t-12.5 -114.5q74 9 105 13l5 -55q-107 -20 -253 -30v-149h390v-304h-567v304h101v145q-107 -5 -239 -5l-11 64q239 0 392 11zM678 0v183h-418v-183h418z" />
    <glyph glyph-name="uniADD1" unicode="&#xadd1;" 
d="M752 802v-497h-75v497h75zM428 489q20 102 20 213h-328v63h403v-50q0 -58 -3 -108.5t-16 -112.5q69 6 105 10l5 -55q-104 -15 -254 -24v-155h-76v151q-142 -5 -238 -5l-10 65q235 0 392 8zM177 267h77v-99h424v99h74v-328h-575v328zM678 0v108h-424v-108h424z" />
    <glyph glyph-name="uniADD3" unicode="&#xadd3;" 
d="M751 801v-620h-76v620h76zM427 458q13 67 16.5 120.5t3.5 111.5h-324v63h398v-52q0 -62 -3 -116t-15 -121q54 5 105 12l5 -55q-119 -21 -264 -29v-192h-76v188q-107 -4 -222 -4l-10 64q235 0 386 10zM304 31.5q67 31.5 107.5 78t40.5 102.5v39h76v-39q0 -55 39.5 -102
t106 -78t143.5 -43l-29 -59q-101 18 -181 64t-117 114q-38 -68 -119 -114t-184 -64l-29 59q79 11 146 42.5z" />
    <glyph glyph-name="uniADD5" unicode="&#xadd5;" 
d="M752 802v-556h-76v556h76zM427 453q13 69 16.5 123t3.5 112h-324v62h399v-52q0 -62 -3 -116.5t-15 -122.5q54 5 104 12l6 -56q-119 -21 -265 -29v-146q51 9 115 9q138 0 215.5 -42.5t77.5 -118.5t-77.5 -118t-215.5 -42q-137 0 -214.5 42t-77.5 118q0 88 102 130v165
q-107 -4 -222 -4l-10 64q235 0 385 10zM306.5 15.5q57.5 -26.5 157.5 -26.5t158 26.5t58 72.5q0 47 -57.5 73.5t-158.5 26.5q-100 0 -157.5 -26.5t-57.5 -73.5q0 -46 57.5 -72.5z" />
    <glyph glyph-name="uniADDC" unicode="&#xaddc;" 
d="M722 745v-65q0 -85 -4.5 -155.5t-21.5 -162.5h135v-62h-210v-373h-76v373h-222v-373h-77v373h-206v62h580q19 92 23.5 162.5t4.5 155.5v3h-506v62h580z" />
    <glyph glyph-name="uniADE0" unicode="&#xade0;" 
d="M730 754v-66q0 -73 -3.5 -131.5t-16.5 -130.5h123v-63h-222v-213h-73v213h-160v-213h-74v213h-264v63h594q15 74 18.5 131.5t3.5 130.5v5h-516v61h590zM137 221h75v-212h542v-63h-617v275z" />
    <glyph glyph-name="uniADE4" unicode="&#xade4;" 
d="M730 766v-54q0 -62 -3 -113t-15 -113h121v-61h-214v-116h114v-211h-522v-100h544v-60h-618v216h521v94h-524v61h120v116h-214v61h596q13 62 16.5 112.5t3.5 107.5h-514v60h588zM543 309v116h-213v-116h213z" />
    <glyph glyph-name="uniADEC" unicode="&#xadec;" 
d="M729 762v-62q0 -68 -3.5 -123t-17.5 -122h125v-62h-214v-152h114v-302h-595v302h116v152h-214v62h592q15 69 19 123t4 122v1h-515v61h589zM659 0v181h-447v-181h447zM543 241v152h-213v-152h213z" />
    <glyph glyph-name="uniADF8" unicode="&#xadf8;" 
d="M724 707v-86q0 -114 -5.5 -207t-27.5 -219l-76 8q23 119 29 212t6 206v24h-524v62h598zM40 118h791v-62h-791v62z" />
    <glyph glyph-name="uniADF9" unicode="&#xadf9;" 
d="M730 760v-60q0 -71 -3.5 -131t-18.5 -137h125v-62h-793v62h591q17 77 21 136t4 130h-514v62h588zM124 237h612v-313h-76v251h-536v62z" />
    <glyph glyph-name="uniADFC" unicode="&#xadfc;" 
d="M730 750v-68q0 -77 -3.5 -140t-18.5 -143h125v-63h-793v63h592q16 80 20 143t4 140v5h-514v63h588zM144 236h76v-226h537v-63h-613v289z" />
    <glyph glyph-name="uniADFF" unicode="&#xadff;" 
d="M729 756v-63q0 -71 -4 -128t-19 -128h127v-63h-793v63h590q17 72 21.5 128.5t4.5 127.5v2h-515v61h588zM138 249h597v-62h-522v-187h530v-62h-605v311z" />
    <glyph glyph-name="uniAE00" unicode="&#xae00;" 
d="M730 765v-56q0 -63 -3.5 -116t-16.5 -118h123v-62h-793v62h594q14 65 18 117t4 111h-514v62h588zM134 324h599v-220h-522v-106h544v-60h-618v224h521v100h-524v62z" />
    <glyph glyph-name="uniAE01" unicode="&#xae01;" 
d="M730 762v-59q0 -67 -3.5 -122t-18.5 -125h125v-63h-793v63h592q16 69 20 124t4 121h-514v61h588zM125 293h289v-201h-213v-96q102 0 161 4.5t118 18.5l10 -59q-65 -14 -128.5 -18t-180.5 -4h-54v211h214v86h-216v58zM463 293h276v-361h-74v300h-202v61z" />
    <glyph glyph-name="uniAE02" unicode="&#xae02;" 
d="M403 298v-201h-204v-102q81 0 128.5 3t97.5 13l7 -58q-55 -10 -107 -13t-153 -3h-46v215h204v88h-207v58h280zM40 458h592q16 69 20 123t4 120h-514v61h588v-59q0 -66 -3.5 -121t-18.5 -124h125v-62h-793v62zM461 298h280v-361h-280v361zM676 -5v245h-150v-245h150z" />
    <glyph glyph-name="uniAE07" unicode="&#xae07;" 
d="M571 255v76h74v-76h148v-59h-367v59h145zM40 458h592q16 69 20 123t4 120h-514v61h588v-59q0 -66 -3.5 -121t-18.5 -124h125v-61h-793v61zM122 301h271v-203h-197v-101q89 0 136.5 3t97.5 13l8 -58q-56 -11 -109 -13.5t-158 -2.5h-47v215h197v89h-199v58zM503 127
q41 31 106 31t106 -31t41 -83q0 -53 -41 -84.5t-106 -31.5t-106 31.5t-41 84.5q0 52 41 83zM549.5 -3q22.5 -17 59.5 -17q36 0 58.5 17t22.5 47q0 28 -22.5 45.5t-58.5 17.5t-59 -17.5t-23 -45.5q0 -30 22.5 -47z" />
    <glyph glyph-name="uniAE08" unicode="&#xae08;" 
d="M730 755v-64q0 -72 -4 -129t-20 -130h127v-62h-793v62h590q17 74 21.5 131t4.5 128v2h-514v62h588zM138 249h595v-310h-595v310zM659 0v187h-447v-187h447z" />
    <glyph glyph-name="uniAE09" unicode="&#xae09;" 
d="M218 300v-116h437v116h75v-361h-586v361h74zM40 444h591q17 72 21 128t4 126v2h-514v62h588v-64q0 -70 -4 -126t-20 -128h127v-64h-793v64zM655 0v123h-437v-123h437z" />
    <glyph glyph-name="uniAE0B" unicode="&#xae0b;" 
d="M727 756v-62q0 -76 -4 -139t-21 -145h127v-63h-788v63h586q17 81 21.5 144.5t4.5 139.5h-516v62h590zM246 35q67 33 107.5 81.5t40.5 105.5v41h76v-41q0 -57 40.5 -105.5t108 -81.5t147.5 -46l-30 -59q-102 17 -183.5 64.5t-120.5 118.5q-38 -71 -119.5 -118.5
t-183.5 -64.5l-29 59q79 13 146 46z" />
    <glyph glyph-name="uniAE0D" unicode="&#xae0d;" 
d="M730 755v-64q0 -73 -4 -131.5t-20 -132.5h127v-63h-793v63h589q18 75 22.5 133t4.5 131v3h-514v61h588zM212.5 213q80.5 43 221.5 43q143 0 223 -42.5t80 -120.5t-80.5 -121t-222.5 -43q-141 0 -221.5 43t-80.5 121q0 77 80.5 120zM268 18q61 -27 166 -27q106 0 167 27
t61 75t-60.5 75t-167.5 27q-105 0 -166 -27t-61 -75t61 -75z" />
    <glyph glyph-name="uniAE13" unicode="&#xae13;" 
d="M398 273v86h75v-86h285v-59h-644v59h284zM40 475h594q14 65 18 117t4 111h-514v62h588v-56q0 -63 -3.5 -116t-16.5 -118h123v-62h-793v62zM241 139.5q67 30.5 194 30.5q128 0 195 -30t67 -90t-67 -90.5t-195 -30.5q-127 0 -194 30.5t-67 90.5q0 59 67 89.5zM298.5 0
q47.5 -17 136.5 -17q90 0 137 17t47 50q0 32 -47.5 49t-136.5 17q-88 0 -136 -17t-48 -49q0 -33 47.5 -50z" />
    <glyph glyph-name="uniAE14" unicode="&#xae14;" 
d="M541 696v-64q0 -86 -4.5 -159t-22.5 -167l-75 11q18 91 23 161t5 154v3h-361v61h435zM350.5 214.5q141.5 5.5 267.5 23.5l5 -57q-130 -22 -267 -29t-302 -8l-10 65q165 0 306.5 5.5zM673 803h76v-877h-76v877z" />
    <glyph glyph-name="uniAE30" unicode="&#xae30;" 
d="M758 803v-877h-75v877h75zM319.5 360.5q92.5 124.5 104.5 284.5h-332v63h409q0 -198 -99 -356t-309 -261l-40 61q174 84 266.5 208.5z" />
    <glyph glyph-name="uniAE31" unicode="&#xae31;" 
d="M389 464.5q-111 -116.5 -307 -169.5l-30 60q162 44 258 129.5t107 198.5h-318v62h401q0 -164 -111 -280.5zM175 246h582v-322h-76v260h-506v62zM681 802h76v-514h-76v514z" />
    <glyph glyph-name="uniAE34" unicode="&#xae34;" 
d="M757 801v-635h-77v635h77zM313 463.5q97 91.5 108 208.5h-320v64h403q0 -168 -111 -291.5t-307 -183.5l-31 60q161 51 258 142.5zM191 216h76v-208h512v-62h-588v270z" />
    <glyph glyph-name="uniAE37" unicode="&#xae37;" 
d="M386 466q-108 -116 -304 -169l-30 61q161 43 255.5 127t106.5 197h-319v63h399q0 -163 -108 -279zM197 256h565v-63h-487v-192h502v-62h-580v317zM683 801h77v-499h-77v499z" />
    <glyph glyph-name="uniAE38" unicode="&#xae38;" 
d="M756 802v-447h-76v447h76zM311.5 512q92.5 77 102.5 183h-314v63h397q0 -163 -108.5 -269.5t-305.5 -151.5l-27 61q163 37 255.5 114zM192 311h564v-210h-487v-105h518v-61h-592v224h486v92h-489v60z" />
    <glyph glyph-name="uniAE3A" unicode="&#xae3a;" 
d="M757 802v-464h-77v464h77zM311.5 508q93.5 77 103.5 185h-317v62h400q0 -161 -109 -269t-305 -153l-28 61q162 37 255.5 114zM152 294h280v-199h-206v-98q77 0 124.5 3t98.5 13l7 -60q-57 -10 -109 -13t-147 -3h-46v213h206v85h-208v59zM482 294h275v-357h-275v357z
M691 -5v241h-142v-241h142z" />
    <glyph glyph-name="uniAE40" unicode="&#xae40;" 
d="M388 466q-111 -116 -307 -169l-30 62q162 42 258.5 127t108.5 197h-320v62h401q0 -163 -111 -279zM193 264h564v-325h-564v325zM683 0v203h-415v-203h415zM681 801h76v-494h-76v494z" />
    <glyph glyph-name="uniAE41" unicode="&#xae41;" 
d="M757 802v-476h-76v476h76zM315 498q92 79 102 190h-318v62h401q0 -164 -108 -273.5t-310 -157.5l-28 61q169 39 261 118zM193 288h77v-112h412v112h75v-349h-564v349zM682 0v115h-412v-115h412z" />
    <glyph glyph-name="uniAE43" unicode="&#xae43;" 
d="M754 801v-588h-75v588h75zM312.5 463.5q95.5 89.5 107.5 206.5h-320v64h400q0 -167 -109.5 -288t-305.5 -181l-29 61q161 48 256.5 137.5zM286.5 37.5q67.5 35.5 108 87.5t40.5 115v34h80v-34q0 -62 40 -114t106.5 -87.5t144.5 -49.5l-31 -59q-102 20 -183 72t-118 127
q-37 -75 -119 -127t-184 -72l-30 59q78 13 145.5 48.5z" />
    <glyph glyph-name="uniAE44" unicode="&#xae44;" 
d="M387 466q-111 -116 -307 -169l-30 62q162 42 258.5 127t108.5 197h-321v62h402q0 -163 -111 -279zM211 86.5q48 62.5 48 127.5v65h74v-65q0 -61 32 -118t91 -92q60 38 93.5 97t33.5 113v65h75v-65q0 -69 47.5 -130.5t128.5 -90.5l-38 -55q-64 23 -109 66.5t-67 100.5
q-22 -58 -62.5 -104.5t-98.5 -71.5q-61 25 -102.5 69.5t-61.5 102.5q-24 -55 -68.5 -97.5t-105.5 -65.5l-38 55q80 31 128 93.5zM679 803h77v-501h-77v501z" />
    <glyph glyph-name="uniAE45" unicode="&#xae45;" 
d="M755 802v-529h-77v529h77zM307.5 470.5q98.5 89.5 110.5 203.5h-319v63h400q0 -164 -112.5 -285t-304.5 -177l-31 60q158 46 256.5 135.5zM252.5 221.5q78.5 44.5 215.5 44.5q136 0 214 -44.5t78 -123.5q0 -80 -78 -125t-214 -45q-137 0 -215.5 45t-78.5 125
q0 79 78.5 123.5zM308.5 19q58.5 -29 159.5 -29q100 0 158.5 29t58.5 79t-58.5 78.5t-158.5 28.5q-102 0 -160 -28.5t-58 -78.5t58.5 -79z" />
    <glyph glyph-name="uniAE46" unicode="&#xae46;" 
d="M388.5 467q-110.5 -114 -307.5 -165l-28 61q163 42 258.5 125t106.5 194h-321v62h402q0 -163 -110.5 -277zM299.5 28q64.5 30 103 73.5t38.5 91.5v2h-246v63h571v-63h-248v-2q0 -48 39 -91.5t104.5 -73.5t141.5 -41l-28 -59q-99 17 -178.5 61.5t-116.5 108.5
q-36 -64 -115 -108.5t-177 -61.5l-27 59q74 11 138.5 41zM679 802h76v-494h-76v494z" />
    <glyph glyph-name="uniAE4A" unicode="&#xae4a;" 
d="M394 467.5q-111 -112.5 -307 -161.5l-30 62q164 40 260 121t106 190h-323v63h405q0 -162 -111 -274.5zM180 2h129v209h-121v61h583v-61h-122v-209h131v-62h-600v62zM574 2v209h-191v-209h191zM680 801h76v-478h-76v478z" />
    <glyph glyph-name="uniAE4C" unicode="&#xae4c;" 
d="M726 803v-363h133v-65h-133v-449h-76v877h76zM177.5 385q46.5 119 53.5 259h-167v63h239q0 -171 -47 -317.5t-158 -264.5l-62 43q95 98 141.5 217zM423 352.5q42 136.5 47 291.5h-140v63h211q0 -186 -41 -348.5t-152 -292.5l-62 42q95 108 137 244.5z" />
    <glyph glyph-name="uniAE4D" unicode="&#xae4d;" 
d="M718 802v-235h130v-65h-130v-221h-76v521h76zM175 514.5q43 67.5 51 161.5h-159v63h231q0 -132 -47.5 -227.5t-156.5 -169.5l-48 48q86 57 129 124.5zM151 242h567v-318h-76v255h-491v63zM421 489.5q42 81.5 50 186.5h-138v63h210q0 -140 -45 -248.5t-151 -196.5l-54 47
q86 67 128 148.5z" />
    <glyph glyph-name="uniAE4E" unicode="&#xae4e;" 
d="M718 802v-223h130v-64h-130v-218h-76v505h76zM175 520q43 67 51 161h-159v62h231q0 -132 -47 -226t-155 -167l-50 47q86 56 129 123zM123 252h280v-327h-76v264h-204v63zM421 497.5q42 80.5 50 183.5h-138v62h210q0 -138 -45 -245t-150 -192l-55 45q86 66 128 146.5z
M445 252h273v-327h-75v264h-198v63z" />
    <glyph glyph-name="uniAE50" unicode="&#xae50;" 
d="M250.5 484q-47.5 -106 -155.5 -189l-51 48q87 64 130.5 141.5t51.5 179.5h-159v63h231q0 -137 -47.5 -243zM170 212h76v-203h506v-63h-582v266zM421 463q43 90 50 201h-139v63h211q0 -147 -45.5 -264.5t-155.5 -209.5l-52 48q88 72 131 162zM642 802h76v-279h130v-64
h-130v-299h-76v642z" />
    <glyph glyph-name="uniAE54" unicode="&#xae54;" 
d="M719 802v-192h129v-64h-129v-191h-77v447h77zM169 547q43 58 52 143h-158v63h232q0 -124 -48.5 -208.5t-150.5 -155.5l-50 49q80 51 123 109zM163 312h556v-212h-479v-100h512v-61h-587v220h478v93h-480v60zM419 524q42 71 50 166h-139v63h212q0 -132 -45.5 -229.5
t-149.5 -174.5l-54 45q84 59 126 130z" />
    <glyph glyph-name="uniAE56" unicode="&#xae56;" 
d="M718 802v-196h130v-63h-130v-204h-76v463h76zM170 544q43 59 52 144h-159v62h232q0 -123 -48.5 -208.5t-150.5 -156.5l-49 48q80 52 123 111zM115 290h276v-198h-200v-98q76 0 122.5 3t97.5 14l6 -59q-56 -10 -108 -13t-147 -3h-45v213h201v83h-203v58zM420 517
q42 73 50 171h-140v62h212q0 -133 -45.5 -232.5t-149.5 -178.5l-54 45q85 60 127 133zM445 290h273v-354h-273v354zM650 -7v240h-138v-240h138z" />
    <glyph glyph-name="uniAE5C" unicode="&#xae5c;" 
d="M251 514.5q-47 -95.5 -155 -169.5l-49 47q85 57 128 125.5t51 163.5h-159v63h231q0 -134 -47 -229.5zM170 253h548v-314h-548v314zM643 0v192h-398v-192h398zM420 494.5q42 81.5 50 186.5h-138v63h210q0 -140 -45 -249t-150 -195l-55 46q86 67 128 148.5zM642 801h76
v-216h130v-62h-130v-227h-76v505z" />
    <glyph glyph-name="uniAE5D" unicode="&#xae5d;" 
d="M250.5 522.5q-47.5 -93.5 -154.5 -166.5l-49 48q85 55 127.5 121.5t51.5 158.5h-159v63h231q0 -131 -47.5 -224.5zM168 282h76v-109h399v109h75v-344h-550v344zM643 0v112h-399v-112h399zM420.5 502q41.5 79 49.5 182h-138v63h210q0 -138 -44.5 -243.5t-148.5 -190.5
l-55 45q85 65 126.5 144zM642 801h76v-201h130v-63h-130v-211h-76v475z" />
    <glyph glyph-name="uniAE5F" unicode="&#xae5f;" 
d="M250 504q-46 -96 -153 -173l-49 48q84 58 126 126.5t50 164.5h-159v63h231q0 -133 -46 -229zM269 38.5q67 34.5 107.5 85.5t40.5 112v24h75v-24q0 -61 41 -112t108 -85.5t145 -47.5l-29 -60q-101 20 -182.5 69.5t-119.5 121.5q-38 -72 -119.5 -121.5t-181.5 -69.5l-31 60
q79 13 146 47.5zM420 481q42 83 50 189h-139v63h211q0 -141 -45 -251t-150 -197l-55 45q86 68 128 151zM642 802h76v-246h130v-63h-130v-276h-76v585z" />
    <glyph glyph-name="uniAE60" unicode="&#xae60;" 
d="M253 514q-47 -95 -155 -169l-49 48q85 57 127.5 125t50.5 162h-158v62h231q0 -133 -47 -228zM203.5 80.5q48.5 62.5 48.5 128.5v55h72v-55q0 -62 32 -118.5t92 -92.5q60 38 93.5 97.5t33.5 113.5v55h74v-55q0 -71 47.5 -131.5t129.5 -89.5l-39 -56q-63 23 -108 66
t-68 100q-21 -57 -61.5 -103.5t-99.5 -71.5q-61 24 -102 69t-61 103q-24 -55 -68 -97.5t-105 -65.5l-39 56q80 30 128.5 92.5zM422 495q42 81 50 185h-138v62h211q0 -139 -45.5 -247t-150.5 -195l-55 46q86 68 128 149zM642 803h76v-218h130v-63h-130v-219h-76v500z" />
    <glyph glyph-name="uniAE61" unicode="&#xae61;" 
d="M251 514.5q-47 -95.5 -155 -169.5l-49 47q85 57 128 125.5t51 163.5h-159v63h231q0 -134 -47 -229.5zM229.5 211.5q76.5 43.5 210.5 43.5q133 0 210 -43.5t77 -120.5q0 -76 -77 -119.5t-210 -43.5q-134 0 -210.5 43.5t-76.5 119.5q0 77 76.5 120.5zM284 17
q57 -27 156 -27q98 0 155 27t57 74q0 48 -56.5 75t-155.5 27t-156 -27t-57 -75q0 -47 57 -74zM420 496.5q42 80.5 50 184.5h-138v63h210q0 -139 -44.5 -246.5t-149.5 -193.5l-55 46q85 66 127 146.5zM642 802h76v-220h130v-63h-130v-235h-76v518z" />
    <glyph glyph-name="uniAE65" unicode="&#xae65;" 
d="M246.5 539.5q-48.5 -84.5 -150.5 -155.5l-50 49q80 51 123 109.5t52 143.5h-158v62h232q0 -124 -48.5 -208.5zM170 282h554v-57h-477v-85h466v-55h-466v-90h496v-56h-573v343zM419 520.5q42 70.5 50 165.5h-139v62h212q0 -132 -45.5 -229.5t-149.5 -173.5l-54 45
q84 60 126 130.5zM642 801h76v-203h130v-64h-130v-204h-76v471z" />
    <glyph glyph-name="uniAE68" unicode="&#xae68;" 
d="M794 803v-877h-74v458h-110v-414h-72v812h72v-335h110v356h74zM153 389q34 113 39 244h-130v62h195q0 -159 -33 -298t-120 -252l-61 36q76 95 110 208zM361.5 351.5q30.5 130.5 33.5 281.5h-109v62h176q0 -178 -29.5 -333t-121.5 -280l-62 35q82 104 112.5 234.5z" />
    <glyph glyph-name="uniAE69" unicode="&#xae69;" 
d="M783 802v-516h-72v232h-108v-226h-72v494h72v-206h108v222h72zM149.5 515.5q33.5 68.5 39.5 162.5h-126v62h198q0 -131 -35.5 -224.5t-126.5 -173.5l-56 44q73 61 106.5 129.5zM186 244h597v-319h-75v256h-522v63zM355 486.5q34 83.5 40 191.5h-110v62h182
q0 -141 -34.5 -250t-123.5 -200l-62 41q74 72 108 155.5z" />
    <glyph glyph-name="uniAE6C" unicode="&#xae6c;" 
d="M783 801v-649h-72v322h-109v-294h-72v605h72v-248h109v264h72zM151 497.5q34 71.5 40 169.5h-129v63h200q0 -134 -35.5 -230.5t-125.5 -180.5l-57 44q73 63 107 134.5zM200 220h76v-211h534v-63h-610v274zM356.5 470q32.5 86 38.5 197h-110v63h180q0 -144 -33 -255.5
t-121 -204.5l-61 40q74 74 106.5 160z" />
    <glyph glyph-name="uniAE6F" unicode="&#xae6f;" 
d="M790 247v-62h-529v-184h539v-62h-615v308h605zM150 523q33 67 39 160h-128v62h200q0 -130 -35 -221.5t-124 -170.5l-56 43q71 60 104 127zM356 494.5q33 81.5 39 188.5h-110v62h180q0 -141 -32.5 -247t-118.5 -197l-63 41q72 71 105 152.5zM530 786h73v-207h108v222h72
v-502h-72v217h-108v-212h-73v482z" />
    <glyph glyph-name="uniAE70" unicode="&#xae70;" 
d="M783 801v-453h-72v190h-109v-185h-72v433h72v-186h109v201h72zM150 542q34 59 41 145h-129v63h199q0 -123 -36 -208t-125 -158l-54 45q70 54 104 113zM206 306h577v-208h-499v-98h532v-61h-608v216h500v90h-502v61zM356.5 515.5q33.5 73.5 38.5 171.5h-112v63h183
q0 -134 -34.5 -232.5t-124.5 -181.5l-58 42q74 64 107.5 137.5z" />
    <glyph glyph-name="uniAE78" unicode="&#xae78;" 
d="M783 801v-502h-72v217h-108v-212h-72v482h72v-207h108v222h72zM150.5 523q32.5 67 38.5 160h-128v62h200q0 -130 -35 -221.5t-124 -170.5l-55 43q71 60 103.5 127zM208 257h575v-318h-575v318zM356 494.5q33 81.5 39 188.5h-110v62h181q0 -141 -32.5 -247t-119.5 -197
l-63 41q72 71 105 152.5zM710 0v196h-428v-196h428z" />
    <glyph glyph-name="uniAE79" unicode="&#xae79;" 
d="M783 801v-476h-72v201h-107v-195h-72v454h72v-197h107v213h72zM152.5 532q33.5 65 40.5 157h-130v63h201q0 -129 -36 -219.5t-126 -168.5l-54 43q71 60 104.5 125zM209 285h75v-106h425v106h74v-347h-574v347zM359 505.5q31 78.5 37 183.5h-110v63h181q0 -139 -31 -241.5
t-117 -191.5l-62 39q71 69 102 147.5zM709 0v118h-425v-118h425z" />
    <glyph glyph-name="uniAE7B" unicode="&#xae7b;" 
d="M783 803v-571h-73v281h-107v-208h-72v480h72v-209h107v227h73zM150.5 505q32.5 71 38.5 169h-128v63h199q0 -134 -34.5 -230.5t-121.5 -178.5l-57 43q71 63 103.5 134zM303.5 36.5q68.5 34.5 111 85.5t42.5 108v38h76v-38q0 -57 42 -108t110.5 -85.5t144.5 -46.5l-30 -61
q-101 20 -184 71t-121 124q-38 -73 -121.5 -124.5t-185.5 -70.5l-30 61q77 12 145.5 46.5zM356 475.5q33 87.5 39 198.5h-112v63h182q0 -145 -33 -256.5t-121 -206.5l-62 39q74 75 107 162.5z" />
    <glyph glyph-name="uniAE7C" unicode="&#xae7c;" 
d="M782 802v-507h-72v222h-107v-215h-72v483h72v-206h107v223h72zM150 518.5q33 65.5 40 158.5h-129v63h200q0 -129 -35 -220t-124 -170l-55 44q70 59 103 124.5zM191.5 47.5q40.5 35.5 62 79t21.5 85.5v48h74v-48q0 -61 31.5 -117.5t90.5 -92.5q60 38 93 97t33 113v48h74
v-48q0 -70 48 -131t129 -89l-37 -56q-64 23 -109.5 67t-68.5 101q-20 -57 -60.5 -104t-99.5 -72q-61 25 -102 69.5t-61 102.5q-24 -54 -69 -97t-106 -67l-37 56q53 20 93.5 55.5zM355.5 492.5q32.5 79.5 38.5 184.5h-110v63h181q0 -138 -32.5 -242.5t-119.5 -194.5l-61 41
q71 69 103.5 148.5z" />
    <glyph glyph-name="uniAE7D" unicode="&#xae7d;" 
d="M784 802v-535h-73v236h-106v-205h-73v487h73v-218h106v235h73zM152 508q33 67 39 160h-129v64h200q0 -130 -35 -222t-123 -172l-57 43q72 60 105 127zM278 208q80 43 218 43t218 -43t80 -119q0 -75 -79.5 -118t-218.5 -43t-218.5 43t-79.5 118q0 76 80 119zM355.5 481.5
q32.5 81.5 38.5 186.5h-109v64h180q0 -140 -33.5 -246t-120.5 -196l-60 41q72 69 104.5 150.5zM333 15q60 -27 163 -27q102 0 161.5 27t59.5 74q0 48 -59.5 75t-161.5 27q-103 0 -163 -27t-60 -75q0 -47 60 -74z" />
    <glyph glyph-name="uniAE84" unicode="&#xae84;" 
d="M726 803v-237h132v-64h-132v-198h132v-64h-132v-314h-76v877h76zM177.5 385q46.5 119 53.5 259h-167v63h239q0 -171 -47 -317.5t-158 -264.5l-62 43q95 98 141.5 217zM423 352.5q42 136.5 47 291.5h-140v63h211q0 -186 -41 -348.5t-152 -292.5l-62 42q95 108 137 244.5z
" />
    <glyph glyph-name="uniAE85" unicode="&#xae85;" 
d="M718 802v-134h128v-64h-128v-120h128v-62h-128v-141h-76v521h76zM175 514.5q43 67.5 51 161.5h-159v63h231q0 -132 -47.5 -227.5t-156.5 -169.5l-48 48q86 57 129 124.5zM151 242h567v-318h-76v255h-491v63zM421 489.5q42 81.5 50 186.5h-137v63h209q0 -140 -45 -248.5
t-151 -196.5l-54 47q86 67 128 148.5z" />
    <glyph glyph-name="uniAE86" unicode="&#xae86;" 
d="M289 742q0 -132 -46.5 -227t-151.5 -171l-56 48q84 58 126.5 125t51.5 160h-157v65h233zM111 257h289v-334h-76v270h-213v64zM409.5 492q40.5 81 48.5 185h-137v65h213q0 -138 -43 -247t-142 -197l-62 45q82 68 122.5 149zM443 257h281v-334h-77v270h-204v64zM648 802h76
v-134h121v-65h-121v-127h121v-66h-121v-123h-76v515z" />
    <glyph glyph-name="uniAE8C" unicode="&#xae8c;" 
d="M719 802v-110h126v-61h-126v-99h126v-63h-126v-114h-77v447h77zM169 547q43 58 52 143h-158v63h232q0 -124 -48.5 -208.5t-150.5 -155.5l-50 49q80 51 123 109zM163 312h556v-212h-479v-100h512v-61h-587v220h478v93h-480v60zM419 524q42 71 50 166h-139v63h212
q0 -132 -45.5 -229.5t-149.5 -174.5l-54 45q84 59 126 130z" />
    <glyph glyph-name="uniAE8D" unicode="&#xae8d;" 
d="M724 296v-369h-79v307h-197v62h276zM163.5 549q43.5 57 53.5 139h-158v64h234q0 -121 -49 -205.5t-150 -155.5l-53 50q79 51 122.5 108zM117 296h292v-205h-214v-99q93 0 151.5 3.5t120.5 15.5l6 -61q-68 -12 -131.5 -15.5t-169.5 -3.5h-53v217h215v88h-217v60zM416 525
q40 69 49 163h-135v64h212q0 -129 -43.5 -225.5t-138.5 -174.5l-62 44q78 60 118 129zM648 802h76v-117h120v-61h-120v-109h120v-63h-120v-109h-76v459z" />
    <glyph glyph-name="uniAEBC" unicode="&#xaebc;" 
d="M757 803v-877h-76v469h-173q-45 -192 -161 -329l-60 42q171 197 182 536h-139v63h211q0 -136 -20 -249h160v345h76zM233 644h-167v63h238q0 -171 -46.5 -318t-157.5 -264l-62 43q180 186 195 476z" />
    <glyph glyph-name="uniAEBD" unicode="&#xaebd;" 
d="M757 242v-316h-76v253h-508v63h584zM174 514.5q43 68.5 51 163.5h-157v62h230q0 -133 -47.5 -228.5t-155.5 -171.5l-50 48q86 58 129 126.5zM417.5 489q41.5 83 49.5 189h-137v62h209q0 -95 -18 -168h160v230h76v-521h-76v229h-178q-47 -126 -158 -218l-54 47
q85 67 126.5 150z" />
    <glyph glyph-name="uniAEBE" unicode="&#xaebe;" 
d="M757 802v-513h-76v221h-180q-47 -120 -155 -208l-54 45q85 68 126.5 149t48.5 185h-137v62h209q0 -94 -19 -171h161v230h76zM173.5 519q43.5 68 51.5 162h-157v62h230q0 -132 -47.5 -226.5t-154.5 -169.5l-51 47q85 57 128.5 125zM148 250h286v-324h-76v261h-210v63z
M476 250h281v-324h-75v261h-206v63z" />
    <glyph glyph-name="uniAEC0" unicode="&#xaec0;" 
d="M757 799v-640h-77v315h-179q-45 -123 -155 -216l-53 47q87 71 128 159.5t48 200.5h-136v64h209q0 -108 -21 -193h159v263h77zM177.5 489.5q41.5 75.5 49.5 175.5h-157v64h230q0 -137 -46 -241t-153 -186l-50 49q85 63 126.5 138.5zM194 208h76v-199h509v-63h-585v262z
" />
    <glyph glyph-name="uniAEC4" unicode="&#xaec4;" 
d="M249.5 549q-48.5 -84 -149.5 -154l-50 49q80 51 122 108t52 140h-154v63h228q0 -122 -48.5 -206zM189 308h566v-210h-490v-104h518v-60h-592v222h489v91h-491v61zM419 526q41 70 49 166h-139v63h212q0 -92 -20 -162h159v209h75v-451h-75v180h-181q-45 -100 -150 -180
l-54 45q83 60 124 130z" />
    <glyph glyph-name="uniAECC" unicode="&#xaecc;" 
d="M250.5 516q-47.5 -95 -155.5 -170l-50 48q85 57 128 124.5t52 161.5h-157v63h230q0 -132 -47.5 -227zM189 263h568v-324h-568v324zM683 0v202h-419v-202h419zM419 495q41 81 48 185h-136v63h208q0 -96 -18 -169h160v227h76v-496h-76v206h-179q-47 -122 -154 -210l-55 46
q85 67 126 148z" />
    <glyph glyph-name="uniAECD" unicode="&#xaecd;" 
d="M757 801v-468h-76v185h-178q-46 -116 -152 -203l-54 45q83 65 123.5 144.5t47.5 182.5h-135v62h208q0 -96 -18 -168h158v220h76zM175.5 527.5q42.5 66.5 51.5 159.5h-156v62h229q0 -131 -47.5 -224t-153.5 -167l-51 48q85 55 127.5 121.5zM194 288h75v-112h413v112h75
v-349h-563v349zM682 0v116h-413v-116h413z" />
    <glyph glyph-name="uniAECF" unicode="&#xaecf;" 
d="M756 802v-600h-76v284h-182q-46 -115 -149 -200l-56 45q85 68 126 151t48 189h-136v63h210q0 -106 -22 -186h161v254h76zM175 508q43 69 51 163h-157v63h229q0 -133 -47 -229t-154 -172l-51 48q86 58 129 127zM288.5 38.5q67.5 35.5 108 88t40.5 115.5v36h76v-36
q0 -62 40 -114t106.5 -87.5t145.5 -49.5l-32 -59q-101 19 -181 70t-118 126q-38 -75 -118.5 -127t-182.5 -73l-30 61q78 14 145.5 49.5z" />
    <glyph glyph-name="uniAED0" unicode="&#xaed0;" 
d="M249.5 516q-47.5 -95 -156.5 -170l-49 48q85 57 128 125t51 162h-157v62h231q0 -132 -47.5 -227zM177 48q40 36 61.5 79.5t21.5 85.5v57h74v-57q0 -61 32 -118.5t91 -92.5q60 38 93 97.5t33 113.5v57h75v-57q0 -70 47.5 -131.5t128.5 -89.5l-38 -56q-63 23 -108.5 66.5
t-68.5 100.5q-21 -57 -61.5 -103.5t-97.5 -71.5q-61 25 -102.5 69.5t-61.5 102.5q-24 -55 -68.5 -98t-105.5 -66l-38 56q53 20 93 56zM417.5 498.5q40.5 79.5 48.5 182.5h-136v62h208q0 -97 -20 -174h161v233h77v-504h-77v208h-182q-45 -112 -150 -199l-53 46
q83 66 123.5 145.5z" />
    <glyph glyph-name="uniAED1" unicode="&#xaed1;" 
d="M757 802v-534h-76v230h-186q-46 -110 -149 -196l-54 46q85 66 126 147t49 185h-137v63h209q0 -104 -22 -182h164v241h76zM173 518q43 68 52 162h-157v63h230q0 -133 -48 -228t-156 -170l-49 48q85 57 128 125zM256.5 216.5q78.5 44.5 213.5 44.5t213.5 -44.5t78.5 -121.5
q0 -78 -78 -122.5t-214 -44.5q-135 0 -213.5 44.5t-78.5 122.5q0 77 78.5 121.5zM312 17.5q58 -28.5 158 -28.5t158.5 28.5t58.5 77.5t-58.5 77t-158.5 28t-158 -28t-58 -77t58 -77.5z" />
    <glyph glyph-name="uniAED3" unicode="&#xaed3;" 
d="M250 532.5q-47 -89.5 -154 -161.5l-50 48q84 53 126.5 116.5t51.5 153.5h-157v62h230q0 -129 -47 -218.5zM287.5 23q66.5 27 108.5 66t46 80h-257v59h257v93h77v-93h259v-59h-258q4 -40 45 -78.5t106 -66t137 -36.5l-26 -58q-99 14 -181 57.5t-120 104.5
q-38 -61 -121.5 -104.5t-184.5 -57.5l-26 58q72 8 138.5 35zM418 514q40 75 48 175h-136v62h208q0 -92 -19 -167h161v217h76v-501h-76v222h-182q-46 -108 -149 -190l-54 44q83 63 123 138z" />
    <glyph glyph-name="uniAED5" unicode="&#xaed5;" 
d="M287 754q0 -123 -47 -208t-148 -157l-53 50q78 51 120 108.5t52 141.5h-153v65h229zM172 294h591v-58h-516v-92h506v-57h-506v-93h533v-58h-608v358zM403.5 523.5q39.5 69.5 47.5 165.5h-137v65h214q0 -87 -17 -154h168v201h76v-458h-76v193h-189q-44 -107 -143 -189
l-62 45q79 62 118.5 131.5z" />
    <glyph glyph-name="uniAED8" unicode="&#xaed8;" 
d="M223 393.5q-33 -141.5 -120 -257.5l-59 34q76 98 109 214t37 250h-129v62h195q0 -161 -33 -302.5zM350 349.5q30 131.5 33 284.5h-99v62h164q0 -137 -12 -239h116v322h71v-807h-71v422h-126q-35 -190 -128 -316l-60 35q82 105 112 236.5zM713 802h73v-877h-73v877z" />
    <glyph glyph-name="uniAED9" unicode="&#xaed9;" 
d="M782 802v-518h-72v518h72zM151.5 516.5q32.5 67.5 39.5 161.5h-128v62h198q0 -128 -35 -221.5t-122 -173.5l-55 42q70 62 102.5 129.5zM184 242h598v-317h-75v254h-523v63zM349.5 487q33.5 84 39.5 191h-105v62h174q0 -95 -12 -164h106v207h71v-492h-71v223h-120
q-37 -127 -128 -222l-61 39q73 72 106.5 156z" />
    <glyph glyph-name="uniAEDC" unicode="&#xaedc;" 
d="M276 218v-200h531v-63h-606v263h75zM151 497.5q34 72.5 40 170.5h-128v63h198q0 -134 -34.5 -231t-123.5 -182l-58 42q72 65 106 137.5zM349.5 467.5q32.5 87.5 38.5 200.5h-104v63h174q0 -100 -14 -183h109v235h71v-612h-71v314h-124q-37 -127 -127 -221l-60 41
q75 75 107.5 162.5zM710 801h72v-650h-72v650z" />
    <glyph glyph-name="uniAEE8" unicode="&#xaee8;" 
d="M782 801v-504h-72v504h72zM152 520q33 68 39 162h-128v62h197q0 -129 -34.5 -221.5t-122.5 -172.5l-55 41q71 61 104 129zM208 257h573v-318h-573v318zM349.5 493q33.5 83 39.5 189h-105v62h173q0 -96 -14 -173h109v212h71v-478h-71v203h-125q-37 -120 -124 -208l-59 39
q72 71 105.5 154zM708 0v196h-426v-196h426z" />
    <glyph glyph-name="uniAEEB" unicode="&#xaeeb;" 
d="M782 801v-586h-73v586h73zM150.5 508q33.5 70 39.5 165h-128v63h199q0 -132 -35 -227t-123 -175l-57 41q71 63 104.5 133zM297.5 40q68.5 34 111 84.5t42.5 108.5v33h79v-33q0 -58 42.5 -108.5t111 -84.5t145.5 -46l-30 -60q-102 19 -186 70t-122 125q-38 -74 -122 -125
t-186 -70l-30 60q76 12 144.5 46zM349 477q32 86 38 196h-104v63h175q0 -99 -13 -169h105v216h73v-489h-73v210h-119q-35 -128 -127 -226l-61 39q74 74 106 160z" />
    <glyph glyph-name="uniAEED" unicode="&#xaeed;" 
d="M782 802v-534h-72v534h72zM152 514.5q33 67.5 39 160.5h-126v63h196q0 -130 -35 -222.5t-122 -172.5l-56 42q71 62 104 129.5zM255.5 206.5q81.5 42.5 226.5 42.5q144 0 225.5 -42.5t81.5 -118.5t-81.5 -118.5t-225.5 -42.5q-145 0 -226.5 42.5t-81.5 118.5t81.5 118.5z
M350.5 485q32.5 82 38.5 190h-105v63h174q0 -101 -13 -171h107v216h71v-485h-71v206h-122q-35 -119 -124 -213l-60 40q72 72 104.5 154zM313 14.5q61 -25.5 169 -25.5t169 25.5t61 73.5q0 47 -61 73.5t-169 26.5t-169 -26.5t-61 -73.5q0 -48 61 -73.5z" />
    <glyph glyph-name="uniAEF4" unicode="&#xaef4;" 
d="M757 803v-877h-76v342h-218q-46 -113 -120 -201l-63 41q171 198 184 535h-136v64h208q0 -70 -6 -145h151v241h76zM229 643h-165v64h237q0 -361 -207 -580l-60 44q180 187 195 472zM681 331v169h-158q-13 -91 -38 -169h196z" />
    <glyph glyph-name="uniAEF8" unicode="&#xaef8;" 
d="M680 417v150h-158q-17 -90 -60 -167t-118 -142l-54 47q86 71 126.5 160t47.5 200h-133v64h205q0 -59 -5 -100h149v170h77v-644h-77v201h-174v61h174zM177.5 490q41.5 75 49.5 175h-157v64h229q0 -137 -45.5 -241t-151.5 -186l-51 49q85 64 126.5 139zM194 207h76v-198
h509v-63h-585v261z" />
    <glyph glyph-name="uniAEFC" unicode="&#xaefc;" 
d="M680 506v109h-156q-18 -78 -60.5 -143t-115.5 -120l-55 45q83 59 124 129t49 166h-138v63h210q0 -46 -4 -81h146v128h75v-451h-75v96h-167v59h167zM172 553q42 56 52 139h-154v63h228q0 -121 -48.5 -205t-149.5 -154l-50 49q80 52 122 108zM189 308h566v-210h-490v-104
h518v-60h-592v222h489v91h-491v61z" />
    <glyph glyph-name="uniAF07" unicode="&#xaf07;" 
d="M680 444v128h-159q-37 -171 -173 -287l-56 45q85 69 125.5 151.5t47.5 189.5h-134v63h206q0 -46 -5 -99h148v166h76v-601h-76v180h-171v64h171zM175 508q43 69 51 163h-157v63h229q0 -133 -47 -229t-154 -172l-51 48q86 58 129 127zM288.5 37q67.5 35 108 87.5
t40.5 114.5v28h76v-28q0 -61 40 -112.5t106.5 -86.5t145.5 -49l-31 -59q-101 20 -181.5 70t-118.5 123q-37 -74 -118 -124.5t-183 -70.5l-30 59q78 13 145.5 48z" />
    <glyph glyph-name="uniAF08" unicode="&#xaf08;" 
d="M679 466v125h-158q-18 -83 -60 -153t-115 -131l-55 46q83 66 123.5 145.5t48.5 182.5h-133v62h205q0 -53 -5 -89h149v148h77v-504h-77v105h-169v63h169zM172 519q43 68 51 162h-157v62h231q0 -132 -47.5 -227t-156.5 -170l-49 48q85 57 128 125zM177 48q40 36 61.5 79.5
t21.5 85.5v57h74v-57q0 -61 32 -118.5t91 -92.5q60 38 93 97.5t33 113.5v57h75v-57q0 -70 47.5 -131.5t128.5 -89.5l-38 -56q-63 23 -108.5 66.5t-68.5 100.5q-21 -57 -61.5 -103.5t-97.5 -71.5q-61 25 -102.5 69.5t-61.5 102.5q-24 -55 -68.5 -98t-105.5 -66l-38 56
q53 20 93 56z" />
    <glyph glyph-name="uniAF09" unicode="&#xaf09;" 
d="M757 802v-534h-76v135h-172v63h172v118h-158q-18 -82 -61 -152t-116 -130l-54 46q85 66 126 147t49 185h-137v63h209q0 -44 -5 -96h147v155h76zM173 518q43 68 52 162h-157v63h230q0 -133 -48 -228t-156 -170l-49 48q85 57 128 125zM256.5 216.5q78.5 44.5 213.5 44.5
t213.5 -44.5t78.5 -121.5q0 -78 -78 -122.5t-214 -44.5q-135 0 -213.5 44.5t-78.5 122.5q0 77 78.5 121.5zM312 17.5q58 -28.5 158 -28.5t158.5 28.5t58.5 77.5t-58.5 77t-158.5 28t-158 -28t-58 -77t58 -77.5z" />
    <glyph glyph-name="uniAF0D" unicode="&#xaf0d;" 
d="M760 284v-59h-490v-84h477v-57h-477v-87h506v-58h-582v345h566zM174 529.5q42 65.5 51 158.5h-156v62h229q0 -130 -46.5 -222.5t-153.5 -165.5l-50 48q84 54 126 119.5zM409.5 508q41.5 78 49.5 180h-129v62h200q0 -53 -5 -88h155v139h77v-475h-77v100h-171v60h171v115
h-165q-18 -83 -61 -152.5t-117 -128.5l-55 45q86 65 127.5 143z" />
    <glyph glyph-name="uniAF10" unicode="&#xaf10;" 
d="M223 393.5q-33 -141.5 -120 -257.5l-59 34q76 98 109 214t37 250h-129v62h195q0 -161 -33 -302.5zM350 349.5q30 131.5 33 284.5h-99v62h164q0 -63 -3 -135h109v218h72v-807h-72v303h-157q-35 -111 -99 -197l-60 35q82 105 112 236.5zM554 338v160h-114q-8 -87 -26 -160
h140zM713 802h73v-877h-73v877z" />
    <glyph glyph-name="uniAF2C" unicode="&#xaf2c;" 
d="M373 711v-29q0 -88 -9.5 -185t-47.5 -237l-76 13q56 191 58 376h-196v62h271zM40 118h375v284h76v-284h340v-62h-791v62zM444 711h295v-60q0 -99 -5.5 -184.5t-28.5 -204.5l-76 11q24 112 30 197t6 179h-221v62z" />
    <glyph glyph-name="uniAF2D" unicode="&#xaf2d;" 
d="M740 763v-37q0 -63 -4 -125t-20 -141l-74 9q24 120 24 233h-220v61h294zM41 384h373v177h76v-177h340v-62h-789v62zM109 763h265v-29q0 -62 -7 -127t-33 -148l-73 11q37 121 39 232h-191v61zM127 227h604v-296h-76v234h-528v62z" />
    <glyph glyph-name="uniAF30" unicode="&#xaf30;" 
d="M740 756v-39q0 -66 -4 -130t-20 -148l-75 9q25 126 25 247h-220v61h294zM41 366h373v177h76v-177h340v-61h-789v61zM109 756h265v-32q0 -64 -7 -131.5t-34 -154.5l-73 12q38 127 40 245h-191v61zM145 218h76v-209h527v-63h-603v272z" />
    <glyph glyph-name="uniAF32" unicode="&#xaf32;" 
d="M546 244v77h75v-77h158v-59h-394v59h161zM41 422h373v156h76v-156h340v-62h-789v62zM109 765h265v-33q0 -58 -7 -117.5t-33 -136.5l-74 12q38 114 40 214h-191v61zM134 258h74v-244q97 2 188 25l10 -63q-110 -27 -230 -27h-42v309zM473.5 124q43.5 31 109.5 31t109.5 -31
t43.5 -82t-43 -82t-110 -31t-110 31t-43 82t43.5 82zM446 765h294v-34q0 -60 -4 -118.5t-20 -134.5l-74 9q22 107 24 217h-220v61zM520 -2.5q24 -16.5 63 -16.5t63 16.5t24 44.5q0 27 -24.5 43.5t-62.5 16.5t-62.5 -16.5t-24.5 -43.5q0 -28 24 -44.5z" />
    <glyph glyph-name="uniAF33" unicode="&#xaf33;" 
d="M740 763v-36q0 -62 -4 -122.5t-20 -138.5l-74 8q22 112 24 228h-220v61h294zM41 398h373v172h76v-172h340v-63h-789v63zM109 763h265v-29q0 -60 -7 -123.5t-33 -144.5l-73 11q37 122 39 225h-191v61zM140 230h589v-63h-513v-166h525v-61h-601v290z" />
    <glyph glyph-name="uniAF34" unicode="&#xaf34;" 
d="M740 774v-33q0 -56 -4 -112t-19 -127l-75 9q22 104 24 201h-220v62h294zM41 446h373v151h75v-151h341v-63h-789v63zM109 774h265v-32q0 -55 -7 -113t-33 -130l-74 13q36 101 40 200h-191v62zM140 302h589v-206h-512v-98h542v-61h-616v218h511v87h-514v60z" />
    <glyph glyph-name="uniAF3C" unicode="&#xaf3c;" 
d="M739 764v-36q0 -63 -4 -124.5t-19 -139.5l-75 8q23 114 25 231h-220v61h293zM41 399h373v168h76v-168h340v-62h-789v62zM109 764h265v-29q0 -60 -7 -124t-33 -147l-73 11q37 120 39 228h-191v61zM140 240h591v-301h-591v301zM657 0v179h-443v-179h443z" />
    <glyph glyph-name="uniAF3D" unicode="&#xaf3d;" 
d="M739 766v-37q0 -62 -4 -122t-19 -138l-75 9q23 112 25 227h-220v61h293zM41 412h373v159h76v-159h340v-63h-789v63zM109 766h265v-29q0 -60 -7 -123.5t-33 -145.5l-73 12q37 123 39 225h-191v61zM146 281h75v-103h431v103h75v-342h-581v342zM652 0v118h-431v-118h431z
" />
    <glyph glyph-name="uniAF3F" unicode="&#xaf3f;" 
d="M739 758v-37q0 -64 -4 -126t-19 -142l-75 8q23 112 25 235h-220v62h293zM41 387h373v169h76v-169h340v-62h-789v62zM247.5 34.5q67.5 32.5 108.5 81t41 105.5v42h75v-42q0 -57 41 -105.5t109 -81t148 -44.5l-29 -60q-103 18 -186 65t-120 117q-38 -70 -121 -117t-187 -65
l-27 60q80 12 147.5 44.5zM109 758h265v-29q0 -62 -7 -127t-33 -150l-73 11q37 126 39 233h-191v62z" />
    <glyph glyph-name="uniAF41" unicode="&#xaf41;" 
d="M656 212q80 -43 80 -121q0 -77 -80 -120t-222 -43t-222 43t-80 120q0 78 80 121t222 43t222 -43zM41 393h373v170h76v-170h340v-62h-789v62zM109 763h265v-29q0 -61 -7 -124.5t-33 -146.5l-73 11q37 123 39 228h-191v61zM269.5 15.5q60.5 -27.5 164.5 -27.5t164.5 27.5
t60.5 75.5q0 49 -60 76t-165 27t-165 -27t-60 -76q0 -48 60.5 -75.5zM446 763h293v-37q0 -63 -4 -124t-19 -139l-75 8q23 114 25 231h-220v61z" />
    <glyph glyph-name="uniAF42" unicode="&#xaf42;" 
d="M739 764v-36q0 -62 -4 -123t-19 -139l-75 8q23 113 25 229h-220v61h293zM41 402h373v167h76v-167h340v-63h-789v63zM292 58.5q83 51.5 101 124.5h-257v61h602v-61h-259q18 -74 101 -125.5t192 -68.5l-28 -59q-104 17 -187 64.5t-121 118.5q-38 -71 -120.5 -118
t-186.5 -64l-29 59q109 17 192 68.5zM109 764h265v-28q0 -60 -7 -124t-33 -147l-73 11q35 115 39 227h-191v61z" />
    <glyph glyph-name="uniAF43" unicode="&#xaf43;" 
d="M740 768v-35q0 -59 -4 -118t-20 -135l-74 9q22 107 24 217h-220v62h294zM41 426h373v151h76v-151h340v-63h-789v63zM243 25.5q64 27.5 105.5 68t46.5 85.5h-251v61h252v91h76v-91h254v-61h-253q5 -45 47 -85.5t106.5 -68t135.5 -36.5l-29 -58q-98 16 -179.5 59.5
t-118.5 106.5q-38 -63 -119 -107t-180 -59l-28 58q71 9 135 36.5zM109 768h265v-33q0 -59 -7 -118.5t-33 -136.5l-74 12q38 113 40 214h-191v62z" />
    <glyph glyph-name="uniAF45" unicode="&#xaf45;" 
d="M740 774v-33q0 -56 -4 -113t-19 -129l-75 10q22 98 24 203h-220v62h294zM41 437h373v153h75v-153h341v-62h-789v62zM109 774h265v-32q0 -56 -7 -114t-33 -131l-74 13q36 102 40 202h-191v62zM140 285h596v-57h-521v-86h500v-57h-500v-89h527v-58h-602v347z" />
    <glyph glyph-name="uniAF48" unicode="&#xaf48;" 
d="M259 701v-55q0 -83 -7.5 -157.5t-37.5 -174.5l-70 16q28 92 36 162.5t8 145.5h-130v63h201zM288 185v255h71v-252q133 7 227 20l5 -57q-214 -36 -548 -36l-10 65q141 0 255 5zM311 701h230v-55q0 -81 -4 -154.5t-18 -167.5l-70 9q13 90 17 161t4 144h-159v63zM640 802h75
v-368h137v-64h-137v-445h-75v877z" />
    <glyph glyph-name="uniAF49" unicode="&#xaf49;" 
d="M258 742v-33q0 -62 -6 -125.5t-29 -144.5l-72 11q33 117 35 229h-123v63h195zM283 366v171h70v-168q131 7 229 19l6 -55q-122 -21 -257 -27.5t-289 -6.5l-7 63q129 0 248 4zM137 217h581v-284h-76v222h-505v62zM308 742h223v-49q0 -64 -4.5 -121.5t-22.5 -130.5l-72 9
q17 67 22 121t5 108h-151v63zM642 801h76v-249h122v-65h-122v-229h-76v543z" />
    <glyph glyph-name="uniAF50" unicode="&#xaf50;" 
d="M258 752v-29q0 -55 -6 -113t-28 -130l-72 10q30 96 34 199h-123v63h195zM283 418v151h70v-148q136 7 233 20l5 -55q-123 -19 -259 -25.5t-290 -6.5l-8 61q160 0 249 3zM146 287h572v-198h-495v-93h526v-59h-601v209h493v84h-495v57zM308 752h223v-44q0 -56 -4 -109
t-20 -118l-72 10q24 99 24 198h-151v63zM642 802h76v-214h122v-62h-122v-198h-76v474z" />
    <glyph glyph-name="uniAF5C" unicode="&#xaf5c;" 
d="M258 745v-32q0 -61 -6 -123.5t-29 -144.5l-72 10q33 115 35 228h-123v62h195zM283 373v168h70v-165q133 7 229 20l6 -55q-123 -21 -256 -27t-290 -6l-7 62q159 0 248 3zM197.5 82q44.5 59 44.5 126v35h72v-35q0 -58 32.5 -114t92.5 -90q60 34 93 90.5t33 113.5v35h74v-35
q0 -68 44 -127t122 -86l-38 -57q-59 22 -101.5 63t-64.5 94q-21 -55 -62.5 -98.5t-99.5 -66.5q-59 23 -99.5 66.5t-61.5 98.5q-23 -53 -65 -94t-100 -63l-37 57q77 28 121.5 87zM308 745h223v-48q0 -63 -4.5 -120.5t-20.5 -130.5l-72 9q15 68 20 121t5 107h-151v62zM642 801
h76v-233h122v-64h-122v-226h-76v523z" />
    <glyph glyph-name="uniAF5D" unicode="&#xaf5d;" 
d="M649 197.5q76 -40.5 76 -113.5q0 -72 -76.5 -112.5t-211.5 -40.5t-211.5 40.5t-76.5 112.5q0 73 76 113.5t212 40.5t212 -40.5zM283 375v169h70v-166q136 7 229 21l6 -56q-123 -21 -259 -28t-287 -7l-7 63q158 0 248 4zM63 745h195v-32q0 -61 -6 -123.5t-29 -144.5
l-72 10q33 115 35 228h-123v62zM280.5 14.5q56.5 -24.5 156.5 -24.5t156.5 24.5t56.5 69.5t-56.5 69.5t-156.5 24.5t-156.5 -24.5t-56.5 -69.5t56.5 -69.5zM308 745h223v-47q0 -63 -4.5 -120t-22.5 -130l-72 9q17 67 22 120t5 106h-151v62zM642 801h76v-239h122v-63h-122
v-246h-76v548z" />
    <glyph glyph-name="uniAF64" unicode="&#xaf64;" 
d="M314 433v-228q98 4 189 17l5 -55q-101 -19 -218 -25t-247 -6l-11 63q137 0 216 3v231h66zM54 699h174v-40q0 -72 -6 -144.5t-30 -168.5l-68 9q37 142 37 281h-107v63zM273 699h200v-64q0 -79 -3 -143.5t-16 -145.5l-67 10q13 79 16 141t3 138v1h-133v63zM540 782h72v-346
h98v367h73v-877h-73v447h-98v-403h-72v812z" />
    <glyph glyph-name="uniAF65" unicode="&#xaf65;" 
d="M317 547v-171q103 5 185 15l5 -55q-175 -30 -462 -30l-11 63q111 0 216 4v174h67zM56 744h173v-27q0 -66 -5.5 -126t-28.5 -139l-63 15q30 115 32 214h-108v63zM186 222h596v-297h-76v234h-520v63zM272 744h201v-47q0 -62 -3.5 -118t-15.5 -125l-65 6q19 107 19 221h-136
v63zM543 785h71v-225h95v242h73v-541h-73v237h-95v-231h-71v518z" />
    <glyph glyph-name="uniAF78" unicode="&#xaf78;" 
d="M316 547v-170q103 5 185 15l5 -55q-99 -16 -223 -23t-239 -7l-11 63q111 0 216 4v173h67zM55 744h173v-27q0 -66 -5.5 -126t-28.5 -139l-63 15q30 115 32 214h-108v63zM225 67q48 60 48 127v35h73v-35q0 -59 32 -115t92 -90q60 34 93 90.5t33 114.5v35h74v-35
q0 -69 47.5 -128.5t128.5 -85.5l-38 -56q-62 22 -107 63.5t-68 95.5q-21 -56 -62 -99.5t-101 -67.5q-59 23 -100 66.5t-62 99.5q-23 -53 -67.5 -94.5t-105.5 -63.5l-39 56q81 27 129 87zM271 744h201v-47q0 -62 -3.5 -118t-15.5 -125l-65 6q19 107 19 221h-136v63zM542 785
h71v-225h95v242h73v-541h-73v237h-95v-227h-71v514z" />
    <glyph glyph-name="uniAF79" unicode="&#xaf79;" 
d="M781 802v-550h-72v245h-95v-215h-71v503h71v-225h95v242h72zM250 375v173h67v-169q98 5 185 17l5 -56q-171 -32 -462 -32l-11 63q109 0 216 4zM56 744h173v-27q0 -63 -5.5 -124t-28.5 -140l-63 15q30 115 32 214h-108v62zM263.5 202.5q79.5 41.5 221.5 41.5
q143 0 223 -41.5t80 -116.5t-80.5 -117t-222.5 -42q-141 0 -221 42t-80 117t79.5 116.5zM320.5 13q59.5 -26 164.5 -26q106 0 165.5 26t59.5 73t-59.5 73t-165.5 26q-105 0 -164.5 -26t-59.5 -73t59.5 -73zM272 744h201v-46q0 -63 -3.5 -118.5t-15.5 -125.5l-65 7
q19 107 19 221h-136v62z" />
    <glyph glyph-name="uniAF80" unicode="&#xaf80;" 
d="M271 701v-45q0 -81 -7 -158.5t-33 -181.5l-71 12q25 94 32.5 167t7.5 143h-132v63h203zM308 184v260h70v-257q144 7 243 21l5 -56q-131 -22 -273 -29.5t-300 -7.5l-9 65q170 0 264 4zM329 701h236v-55q0 -82 -4 -155.5t-19 -168.5l-70 10q15 90 19 161t4 145h-166v63z
M679 802h75v-877h-75v877z" />
    <glyph glyph-name="uniAF84" unicode="&#xaf84;" 
d="M378 520v-171q135 7 241 19l6 -56q-216 -33 -575 -35l-6 64q147 0 263 5v174h71zM79 726h201v-33q0 -61 -6.5 -124t-29.5 -144l-72 9q35 116 37 230h-130v62zM183 197h76v-188h524v-63h-600v251zM332 726h240v-48q0 -64 -4.5 -121.5t-20.5 -130.5l-70 8q16 67 21 121.5
t5 108.5h-171v62zM681 801h76v-649h-76v649z" />
    <glyph glyph-name="uniAF88" unicode="&#xaf88;" 
d="M279 753v-29q0 -56 -6 -114t-27 -131l-71 10q32 105 34 202h-131v62h201zM306 416v156h71v-153q143 7 241 21l5 -54q-131 -21 -273.5 -28t-299.5 -7l-11 61q173 0 267 4zM172 284h585v-199h-508v-89h539v-59h-614v205h507v84h-509v58zM331 753h240v-43q0 -57 -4 -110
t-20 -119l-69 9q23 101 23 201h-170v62zM681 802h76v-479h-76v479z" />
    <glyph glyph-name="uniAF90" unicode="&#xaf90;" 
d="M757 801v-523h-75v523h75zM307 378v168h71v-165q122 6 243 20l5 -55q-223 -36 -576 -36l-6 63q147 0 263 5zM79 740h201v-33q0 -58 -6 -118.5t-29 -137.5l-70 10q32 109 34 216h-130v63zM184 232h573v-293h-573v293zM683 0v170h-424v-170h424zM332 740h240v-47
q0 -61 -4.5 -116.5t-20.5 -125.5l-70 9q16 64 21 115t5 102h-171v63z" />
    <glyph glyph-name="uniAF91" unicode="&#xaf91;" 
d="M256 269v-100h426v100h75v-330h-577v330h76zM307 390v164h71v-161q122 6 243 20l5 -55q-129 -20 -272.5 -27.5t-303.5 -8.5l-6 63q108 0 263 5zM79 745h201v-31q0 -59 -6 -120t-29 -137l-70 10q32 109 34 216h-130v62zM682 0v110h-426v-110h426zM332 745h240v-47
q0 -60 -4.5 -116t-20.5 -125l-70 9q16 64 21 115t5 102h-171v62zM682 801h75v-502h-75v502z" />
    <glyph glyph-name="uniAF95" unicode="&#xaf95;" 
d="M684 204q77 -42 77 -118q0 -74 -77 -116t-214 -42t-214.5 42t-77.5 116q0 76 77 118t215 42q137 0 214 -42zM307 375v169h71v-166q129 6 243 21l5 -56q-129 -21 -272.5 -28.5t-303.5 -8.5l-6 64q147 0 263 5zM79 738h201v-32q0 -58 -6 -118.5t-29 -138.5l-70 10
q32 110 34 216h-130v63zM310 14q58 -26 160 -26t159 26t57 72q0 48 -57 74t-159 26t-160 -26t-58 -74q0 -46 58 -72zM332 738h240v-47q0 -61 -4.5 -116t-21.5 -125l-69 8q16 65 21 115.5t5 101.5h-171v63zM682 802h75v-543h-75v543z" />
    <glyph glyph-name="uniAF9C" unicode="&#xaf9c;" 
d="M342 711v-41q0 -90 -10.5 -181t-51.5 -225l-74 21q37 111 49 196.5t13 166.5h-178v63h252zM40 117h288v272h74v-272h112v272h74v-272h243v-62h-791v62zM421 711h321v-60q0 -95 -6 -182.5t-29 -207.5l-74 10q23 113 29 198t6 179h-247v63z" />
    <glyph glyph-name="uniAFB8" unicode="&#xafb8;" 
d="M267 375q43 158 45 304h-208v62h281v-27q0 -71 -7 -151t-33 -188h287q35 156 35 304h-217v62h291v-38q0 -73 -5.5 -149t-27.5 -179h123v-63h-359v-385h-75v385h-357v63h227z" />
    <glyph glyph-name="uniAFB9" unicode="&#xafb9;" 
d="M397 762v-23q0 -62 -6.5 -131t-29.5 -160h271q31 124 33 252h-202v62h275v-34q0 -63 -5 -128.5t-24 -151.5h124v-63h-361v-157h258v-298h-76v235h-524v63h267v157h-357v63h245q34 124 39 252h-207v62h280z" />
    <glyph glyph-name="uniAFBC" unicode="&#xafbc;" 
d="M283 415q36 133 41 270h-207v63h280v-24q0 -64 -6.5 -137.5t-30.5 -171.5h271q32 132 34 270h-202v63h275v-33q0 -68 -5.5 -137.5t-25.5 -162.5h126v-63h-352v-213h-75v213h-366v63h243zM145 221h76v-211h524v-64h-600v275z" />
    <glyph glyph-name="uniAFC0" unicode="&#xafc0;" 
d="M289 490q30 107 35 218h-207v61h280v-27q0 -55 -5.5 -115.5t-24.5 -136.5h268q28 113 30 218h-202v61h275v-29q0 -57 -4.5 -115.5t-22.5 -134.5h122v-62h-361v-111h259v-217h-519v-102h547v-61h-622v222h519v97h-521v61h262v111h-357v62h249z" />
    <glyph glyph-name="uniAFC7" unicode="&#xafc7;" 
d="M288 486q19 66 26.5 118.5t9.5 102.5h-207v62h280v-28q0 -56 -5.5 -117t-25.5 -138h268q29 114 31 221h-202v62h275v-30q0 -57 -5 -116t-23 -137h122v-62h-362v-130h-76v130h-355v62h249zM120 289h278v-198h-203v-94q89 0 139 3t102 14l8 -58q-57 -11 -111.5 -14
t-162.5 -3h-49v208h204v84h-205v58zM428 246h146v83h74v-83h147v-58h-367v58zM505 127q41 31 105 31q65 0 106 -31t41 -83q0 -53 -41 -84t-106 -31q-64 0 -105 31t-41 84q0 52 41 83zM551.5 -2q22.5 -17 58.5 -17q37 0 59 16.5t22 46.5q0 28 -22 44.5t-59 16.5
q-36 0 -58.5 -17t-22.5 -44q0 -29 22.5 -46z" />
    <glyph glyph-name="uniAFC8" unicode="&#xafc8;" 
d="M397 760v-23q0 -60 -5.5 -126t-26.5 -154h270q28 119 30 241h-202v62h275v-33q0 -62 -4.5 -125t-22.5 -145h122v-62h-361v-150h259v-306h-591v306h257v150h-357v62h248q31 119 36 241h-207v62h280zM657 0v184h-443v-184h443z" />
    <glyph glyph-name="uniAFC9" unicode="&#xafc9;" 
d="M397 764v-22q0 -57 -5.5 -122.5t-26.5 -151.5h271q27 117 29 235h-202v61h275v-31q0 -60 -4.5 -122t-21.5 -143h121v-63h-362v-162h-75v162h-356v63h248q31 117 36 235h-207v61h280zM142 292h75v-113h436v113h76v-353h-587v353zM653 0v118h-436v-118h436z" />
    <glyph glyph-name="uniAFCB" unicode="&#xafcb;" 
d="M286 449q33 124 38 248h-207v62h280v-24q0 -61 -6 -129t-28 -157h270q30 122 32 248h-202v62h275v-34q0 -62 -5 -126.5t-24 -149.5h124v-64h-362v-135h-74v135h-357v64h246zM245 25q68 27 109 67.5t41 87.5v34h77v-34q0 -48 41 -88.5t109 -67t147 -35.5l-27 -59
q-104 13 -187 54t-121 103q-39 -62 -122 -103t-187 -54l-26 59q78 9 146 36z" />
    <glyph glyph-name="uniAFCD" unicode="&#xafcd;" 
d="M397 756v-23q0 -61 -6 -128.5t-27 -155.5h270q29 122 31 245h-202v62h275v-32q0 -64 -5 -127.5t-23 -147.5h123v-63h-361v-126q124 -6 193 -49t69 -115q0 -78 -79.5 -121t-220.5 -43q-142 0 -221.5 43t-79.5 121q0 73 69.5 116t194.5 48v126h-357v63h247q32 122 37 245
h-207v62h280zM269 20q60 -27 165 -27t165 27t60 76t-60 76.5t-165 27.5t-165 -27.5t-60 -76.5t60 -76z" />
    <glyph glyph-name="uniAFCE" unicode="&#xafce;" 
d="M288 454q31 121 36 244h-207v62h280v-23q0 -61 -5.5 -128t-26.5 -155h270q28 121 30 244h-202v62h275v-33q0 -63 -4.5 -126t-22.5 -147h122v-62h-360v-139h265v-63h-260q16 -75 99.5 -128t194.5 -70l-31 -59q-103 18 -185.5 65.5t-119.5 117.5q-38 -71 -120.5 -117.5
t-184.5 -63.5l-31 59q111 17 194.5 69.5t99.5 126.5h-258v63h263v139h-359v62h248z" />
    <glyph glyph-name="uniAFD4" unicode="&#xafd4;" 
d="M758 802v-877h-76v260h-202v61h202v556h76zM198 391q20 83 26.5 148t6.5 126h-147v63h220v-47q0 -69 -5.5 -135.5t-25.5 -152.5q84 1 185 8q19 78 24 138.5t5 125.5h-139v63h211v-53q0 -68 -4.5 -129t-20.5 -139q32 2 86 8l6 -57q-109 -15 -262 -24v-370h-75v366
q-147 -5 -249 -5l-10 64q50 0 168 2z" />
    <glyph glyph-name="uniAFD8" unicode="&#xafd8;" 
d="M306 738v-44q0 -62 -4.5 -121.5t-22.5 -134.5q126 4 188 7q23 110 23 229h-143v64h217v-50q0 -61 -3.5 -115.5t-17.5 -122.5l67 5l5 -58q-129 -15 -265 -21v-196h-78v193q-117 -3 -227 -3l-11 66q112 0 170 1q30 118 30 237h-145v64h217zM160 196h78v-197h550v-63h-628
v260zM489 312h202v489h73v-668h-73v122h-202v57z" />
    <glyph glyph-name="uniAFDC" unicode="&#xafdc;" 
d="M755 802v-492h-76v53h-190v56h190v383h76zM200 517q26 96 28 182h-137v62h211v-29q0 -48 -4 -98.5t-20 -114.5q118 4 171 7q24 86 26 173h-133v62h205v-33q0 -47 -3.5 -93t-17.5 -104l79 7l5 -54q-111 -14 -266 -23v-150h-75v147q-61 -2 -201 -4h-22l-11 62q108 0 165 1z
M172 278h583v-195h-506v-88h539v-58h-614v201h506v82h-508v58z" />
    <glyph glyph-name="uniAFE8" unicode="&#xafe8;" 
d="M755 803v-544h-75v68h-190v56h190v420h75zM199 484q27 105 29 203h-138v62h211v-30q0 -54 -4.5 -108.5t-21.5 -124.5q97 3 172 10q24 96 26 191h-132v62h204v-34q0 -50 -4 -99.5t-18 -112.5q53 6 81 10l6 -56q-115 -18 -267 -27v-163h-76v159q-107 -4 -222 -4l-10 61
q105 0 164 1zM217 81q48 60 48 129v25h72v-25q0 -58 32.5 -115t92.5 -92q60 35 92.5 92t32.5 115v25h74v-25q0 -70 48 -129.5t129 -86.5l-37 -56q-63 22 -108.5 64t-68.5 98q-21 -57 -61.5 -102t-100.5 -69q-60 24 -101 68.5t-61 102.5q-23 -55 -68.5 -97.5t-108.5 -64.5
l-36 56q82 27 130 87z" />
    <glyph glyph-name="uniAFE9" unicode="&#xafe9;" 
d="M755 802v-556h-75v76h-189v57h189v423h75zM199 483q28 107 30 207h-137v63h210v-31q0 -54 -4.5 -110t-22.5 -127q97 3 172 10q26 97 28 195h-133v63h206v-35q0 -51 -4 -102t-19 -115q50 6 79 10l7 -55q-115 -18 -267 -27v-174h-75v170q-107 -4 -223 -4l-10 61
q105 0 163 1zM251.5 196.5q77.5 40.5 215.5 40.5t215.5 -40.5t77.5 -113.5q0 -74 -77 -114.5t-216 -40.5t-216 40.5t-77 114.5q0 73 77.5 113.5zM307.5 12q57.5 -25 159.5 -25t159.5 25t57.5 71q0 45 -57.5 70t-159.5 25t-159.5 -25t-57.5 -70q0 -46 57.5 -71z" />
    <glyph glyph-name="uniAFF0" unicode="&#xaff0;" 
d="M780 803v-877h-74v877h74zM140 394q34 128 34 252h-112v63h180v-43q0 -64 -5 -126.5t-24 -143.5q50 2 144 8q17 71 22 128t5 114h-110v63h179v-48q0 -63 -4.5 -120.5t-20.5 -130.5l76 9l5 -55q-93 -16 -209 -24v-342h-72v338q-89 -5 -195 -5l-11 61q34 0 118 2zM383 255
h161v526h73v-806h-73v219h-161v61z" />
    <glyph glyph-name="uniAFF1" unicode="&#xaff1;" 
d="M777 801v-553h-74v553h74zM154 478q24 99 26 197h-109v62h175v-33q0 -52 -4 -105t-20 -119q84 2 150 7q13 54 17.5 98.5t4.5 89.5h-113v62h178v-48q0 -52 -3 -97t-15 -99q27 2 64 8l5 -53q-93 -18 -199 -24v-170h-73v166q-73 -4 -197 -4l-11 61q79 0 124 1zM163 210h614
v-280h-77v219h-537v61zM391 375h155v411h73v-536h-73v70h-155v55z" />
    <glyph glyph-name="uniAFF4" unicode="&#xaff4;" 
d="M776 801v-663h-73v663h73zM153 453q25 111 27 212h-110v63h176v-29q0 -54 -4.5 -112t-21.5 -133q101 4 149 7q24 103 24 204h-112v63h177v-44q0 -56 -3.5 -105.5t-16.5 -111.5q23 2 67 8l5 -54q-80 -15 -199 -24v-164h-74v160q-97 -4 -197 -4l-10 63q78 0 123 1zM178 197
h75v-188h550v-63h-625v251zM390 335h156v451h72v-629h-72v120h-156v58z" />
    <glyph glyph-name="uniAFF8" unicode="&#xaff8;" 
d="M776 801v-494h-73v494h73zM156 513q22 94 24 175h-110v61h176v-28q0 -48 -4 -96.5t-18 -109.5q101 4 149 7q20 85 20 166h-112v61h177v-43q0 -47 -3 -88t-14 -90q44 4 64 7l5 -52q-95 -17 -199 -23v-154h-74v150q-90 -5 -197 -5l-10 61q80 0 126 1zM177 274h599v-192
h-522v-87h548v-58h-622v200h521v79h-524v58zM390 421h156v366h72v-474h-72v51h-156v57z" />
    <glyph glyph-name="uniB000" unicode="&#xb000;" 
d="M777 801v-541h-74v541h74zM154 483q24 99 26 198h-109v62h175v-31q0 -53 -4 -106.5t-20 -120.5q83 2 150 7q22 96 22 189h-113v62h179v-45q0 -51 -3 -97t-15 -103q25 2 63 8l5 -53q-93 -18 -199 -24v-167h-73v163q-73 -4 -197 -4l-11 61q78 0 124 1zM174 225h603v-286
h-603v286zM701 0v163h-452v-163h452zM391 379h155v407h73v-518h-73v56h-155v55z" />
    <glyph glyph-name="uniB001" unicode="&#xb001;" 
d="M777 801v-520h-74v520h74zM154 491q24 97 26 194h-109v62h175v-31q0 -53 -4 -105t-19 -119q51 1 150 7q21 91 21 186h-113v62h179v-48q0 -51 -3 -95.5t-15 -98.5q25 2 63 8l5 -53q-80 -15 -199 -24v-156h-73v152q-73 -3 -197 -3l-11 61q79 0 124 1zM175 247h75v-89h450
v89h77v-308h-602v308zM700 0v98h-450v-98h450zM391 399h155v387h73v-502h-73v59h-155v56z" />
    <glyph glyph-name="uniB004" unicode="&#xb004;" 
d="M340 230v-27q0 -58 32 -113.5t92 -89.5q59 35 92 91t33 112v27h73v-27q0 -68 48.5 -126.5t131.5 -84.5l-38 -56q-64 21 -109.5 62.5t-68.5 96.5q-22 -56 -62.5 -99.5t-99.5 -67.5q-59 23 -99.5 67t-61.5 100q-24 -55 -69.5 -96.5t-108.5 -62.5l-37 56q82 26 130.5 85
t48.5 126v27h73zM153 483q24 99 26 198h-109v62h175v-31q0 -53 -4 -106.5t-20 -120.5q84 2 150 7q22 96 22 189h-113v62h179v-45q0 -51 -3 -97t-15 -103q25 2 63 8l5 -53q-93 -18 -199 -24v-167h-73v163q-73 -4 -197 -4l-11 61q78 0 124 1zM390 379h155v407h73v-518h-73v56
h-155v55zM702 802h74v-542h-74v542z" />
    <glyph glyph-name="uniB00C" unicode="&#xb00c;" 
d="M763 803v-877h-76v877h76zM205 386q21 85 27.5 151.5t6.5 128.5h-146v63h220v-47q0 -70 -5.5 -138t-25.5 -156q80 1 182 8q19 80 25 143t6 127h-139v63h212v-52q0 -70 -4.5 -132.5t-22.5 -143.5q32 2 86 8l5 -56q-124 -16 -258 -24v-357h-75v353q-150 -5 -254 -5l-11 64
q51 0 171 2z" />
    <glyph glyph-name="uniB010" unicode="&#xb010;" 
d="M759 801v-655h-76v655h76zM208 425q30 121 32 244h-140v63h213v-37q0 -61 -5 -123.5t-25 -144.5q89 3 175 9q30 121 30 233h-140v63h214v-42q0 -60 -4.5 -117t-20.5 -130q56 6 84 10l7 -56q-101 -17 -251 -28v-184h-75v180q-135 -6 -251 -6l-12 64q49 0 169 2zM156 216
h76v-207h554v-63h-630v270z" />
    <glyph glyph-name="uniB014" unicode="&#xb014;" 
d="M313 752v-32q0 -55 -4.5 -110t-21.5 -124q88 2 174 6q23 94 25 197h-136v63h210v-36q0 -53 -4 -104t-19 -114q53 4 82 7l5 -53q-127 -17 -252 -23v-121h387v-207h-507v-104h542v-59h-617v220h505v91h-507v59h120v118q-116 -4 -243 -4l-12 61q110 0 170 1q26 101 28 205
h-139v63h214zM683 801h76v-454h-76v454z" />
    <glyph glyph-name="uniB01C" unicode="&#xb01c;" 
d="M760 802v-522h-76v522h76zM210 452q28 112 30 225h-139v62h212v-35q0 -57 -4.5 -115.5t-22.5 -134.5q91 3 176 9q27 108 27 214h-141v62h214v-41q0 -56 -4 -109t-19 -119q56 6 83 10l6 -56q-120 -20 -256 -28v-156h387v-298h-582v298h119v152q-110 -5 -244 -5l-11 64
q109 0 169 1zM685 3v176h-434v-176h434z" />
    <glyph glyph-name="uniB01D" unicode="&#xb01d;" 
d="M760 801v-493h-76v493h76zM210 466q28 107 30 217h-139v63h212v-33q0 -58 -4.5 -115.5t-22.5 -130.5q119 4 175 7q16 61 21.5 110.5t6.5 98.5h-141v63h214v-40q0 -55 -4 -108t-20 -119l84 8l6 -56q-116 -16 -251 -22v-156h-75v152q-119 -4 -250 -4l-11 64q110 0 169 1z
M170 271h74v-105h440v105h76v-332h-590v332zM684 0v106h-440v-106h440z" />
    <glyph glyph-name="uniB028" unicode="&#xb028;" 
d="M267 378q43 156 45 301h-208v62h281v-27q0 -70 -7 -149t-32 -187h286q35 155 35 301h-217v62h291v-38q0 -72 -5.5 -147.5t-27.5 -177.5h123v-63h-204v-387h-76v387h-231v-387h-76v387h-204v63h227z" />
    <glyph glyph-name="uniB030" unicode="&#xb030;" 
d="M248 296v118h-215v61h243q27 117 29 228h-201v63h281v-30q0 -58 -4.5 -119.5t-21.5 -141.5h271q20 116 22 228h-202v63h280v-24q0 -139 -20 -267h116v-61h-214v-118h116v-202h-521v-97h545v-62h-622v217h522v84h-524v60h120zM534 296v118h-209v-118h209z" />
    <glyph glyph-name="uniB03C" unicode="&#xb03c;" 
d="M388 766v-47q0 -67 -4.5 -130.5t-22.5 -145.5h271q25 133 25 261h-199v62h279v-39q0 -67 -4 -132.5t-19 -151.5h111v-61h-212v-140h-77v140h-213v-140h-77v140h-213v61h244q19 78 25 139t6 122h-198v62h278zM152 39.5q40 30.5 62 68t22 74.5v23h73v-23q0 -53 31 -101.5
t88 -78.5q56 32 88 83t32 97v23h74v-23q0 -60 48.5 -112.5t129.5 -76.5l-38 -56q-63 20 -108 58t-69 89q-21 -51 -60.5 -92t-95.5 -62q-59 20 -98.5 60t-59.5 93q-25 -50 -69.5 -88t-105.5 -58l-37 55q53 17 93 47.5z" />
    <glyph glyph-name="uniB044" unicode="&#xb044;" 
d="M389 703v-34q0 -94 -10 -197t-49 -255l-77 12q36 127 48 226.5t13 185.5h-212v62h287zM40 121h791v-63h-791v63zM453 703h286v-67q0 -107 -6 -199t-31 -220l-77 9q26 122 33 214.5t7 195.5v5h-212v62z" />
    <glyph glyph-name="uniB045" unicode="&#xb045;" 
d="M397 755v-24q0 -63 -6.5 -134t-30.5 -165h268q30 129 32 261h-203v62h276v-33q0 -66 -5 -133.5t-24 -156.5h129v-62h-793v62h243q34 130 39 261h-208v62h283zM125 250h609v-320h-76v258h-533v62z" />
    <glyph glyph-name="uniB048" unicode="&#xb048;" 
d="M280 395q37 146 42 286h-208v63h283v-20q0 -68 -7 -145.5t-33 -183.5h270q31 147 33 286h-202v63h276v-28q0 -72 -5.5 -145.5t-26.5 -175.5h131v-62h-793v62h240zM143 238h75v-222h535v-63h-610v285z" />
    <glyph glyph-name="uniB04A" unicode="&#xb04a;" 
d="M286 447q34 131 36 251h-208v62h283v-29q0 -63 -6 -130t-27 -154h267q17 75 23 134t7 117h-203v62h277v-35q0 -65 -5 -129.5t-24 -148.5h127v-62h-793v62h246zM134 270h74v-256q97 2 188 25l10 -62q-110 -28 -230 -28h-42v321zM385 261h162v78h75v-78h157v-57h-394v57z
M474.5 132.5q42.5 32.5 110.5 32.5q67 0 109.5 -32.5t42.5 -86.5q0 -55 -42.5 -86.5t-109.5 -31.5q-69 0 -111 31.5t-42 86.5q0 54 42.5 86.5zM521 -1q24 -18 64 -18q38 0 62 18t24 47q0 30 -23.5 48t-62.5 18q-40 0 -64 -17.5t-24 -48.5q0 -29 24 -47z" />
    <glyph glyph-name="uniB04C" unicode="&#xb04c;" 
d="M284 479q34 119 36 227h-209v61h283v-28q0 -57 -5.5 -118.5t-26.5 -141.5h267q28 118 30 227h-205v61h278v-30q0 -58 -4.5 -118.5t-22.5 -139.5h128v-61h-793v61h244zM135 325h596v-217h-519v-108h547v-61h-622v228h519v97h-521v61z" />
    <glyph glyph-name="uniB04E" unicode="&#xb04e;" 
d="M284 454q35 129 37 248h-209v62h284v-29q0 -62 -6 -128.5t-29 -152.5h267q30 123 32 248h-205v62h278v-32q0 -62 -5 -127t-25 -151h130v-63h-793v63h244zM123 299h280v-199h-206v-103q86 0 132.5 3t95.5 13l7 -58q-54 -11 -104 -13.5t-156 -2.5h-46v216h206v87h-209v57z
M461 299h280v-360h-280v360zM676 -4v247h-150v-247h150z" />
    <glyph glyph-name="uniB053" unicode="&#xb053;" 
d="M287 461q36 127 38 244h-210v62h284v-29q0 -61 -6 -126.5t-28 -150.5h266q30 120 32 244h-204v62h277v-32q0 -62 -5 -126t-24 -148h126v-61h-793v61h247zM120 310h278v-208h-203v-105q86 0 137 3.5t104 14.5l8 -59q-57 -11 -111 -14t-162 -3h-50v219h204v93h-205v59z
M428 265h146v84h74v-84h147v-57h-367v57zM505 138q41 33 106 33t106 -33t41 -88t-41 -88t-106 -33t-106 33t-41 88t41 88zM552 0.5q23 -18.5 59 -18.5q37 0 59 18.5t22 49.5t-22 49t-59 18q-36 0 -59 -18.5t-23 -48.5q0 -31 23 -49.5z" />
    <glyph glyph-name="uniB054" unicode="&#xb054;" 
d="M284 444q33 128 38 257h-208v62h283v-25q0 -63 -6.5 -132.5t-29.5 -161.5h268q29 128 31 257h-203v62h276v-35q0 -64 -5 -130.5t-23 -153.5h128v-63h-793v63h244zM138 254h595v-313h-595v313zM659 2v191h-447v-191h447z" />
    <glyph glyph-name="uniB055" unicode="&#xb055;" 
d="M285 457q33 124 37 248h-208v62h283v-25q0 -61 -6 -128t-29 -157h268q28 122 30 248h-203v62h276v-34q0 -64 -4.5 -128t-22.5 -148h127v-61h-793v61h245zM143 312h75v-122h436v122h75v-373h-586v373zM654 1v128h-436v-128h436z" />
    <glyph glyph-name="uniB057" unicode="&#xb057;" 
d="M281 420q36 141 41 276h-208v62h283v-19q0 -64 -6.5 -140t-31.5 -179h270q29 141 31 276h-202v62h276v-27q0 -71 -5 -142t-25 -169h129v-63h-793v63h241zM247.5 34q67.5 32 108.5 80.5t41 106.5v43h75v-43q0 -58 41 -106.5t109 -80.5t148 -44l-30 -60
q-102 17 -184.5 64.5t-120.5 117.5q-38 -70 -121 -117.5t-186 -64.5l-28 60q80 12 147.5 44z" />
    <glyph glyph-name="uniB059" unicode="&#xb059;" 
d="M282 430q35 131 40 265h-208v62h283v-24q0 -64 -6.5 -136t-30.5 -167h268q30 131 32 265h-203v62h276v-33q0 -67 -5 -135.5t-24 -158.5h129v-63h-793v63h242zM213 223.5q81 45.5 221 45.5q139 0 220.5 -45.5t81.5 -125.5t-81 -125t-221 -45t-221 45t-81 125t81 125.5z
M269.5 18.5q61.5 -29.5 164.5 -29.5q104 0 164.5 29.5t60.5 79.5q0 51 -60.5 80t-164.5 29q-103 0 -164.5 -29t-61.5 -80q0 -50 61.5 -79.5z" />
    <glyph glyph-name="uniB05D" unicode="&#xb05d;" 
d="M285 463q32 122 37 243h-208v61h283v-22q0 -59 -6.5 -126t-29.5 -156h268q29 121 31 243h-203v61h276v-35q0 -63 -5 -125.5t-23 -143.5h128v-61h-793v61h245zM140 307h596v-59h-521v-95h500v-57h-500v-98h527v-59h-602v368z" />
    <glyph glyph-name="uniB07C" unicode="&#xb07c;" 
d="M757 803v-877h-75v877h75zM240 644h-168v63h239q0 -360 -209 -581l-60 44q182 187 198 474zM483 644h-144v63h215q0 -184 -41.5 -347t-150.5 -293l-63 41q171 202 184 536z" />
    <glyph glyph-name="uniB07D" unicode="&#xb07d;" 
d="M757 242v-316h-76v253h-508v63h584zM180.5 514.5q42.5 67.5 51.5 161.5h-159v63h231q0 -133 -47 -228t-153 -170l-51 49q85 57 127.5 124.5zM435 490.5q40 80.5 47 185.5h-144v63h217q0 -140 -42.5 -247.5t-145.5 -193.5l-56 45q84 67 124 147.5zM681 802h76v-521h-76
v521z" />
    <glyph glyph-name="uniB080" unicode="&#xb080;" 
d="M756 799v-633h-76v633h76zM182 487q41 76 49 177h-159v63h232q0 -138 -45.5 -242t-151.5 -185l-52 48q86 63 127 139zM188 212h76v-203h518v-63h-594v266zM436.5 464q40.5 88 46.5 200h-144v63h216q0 -148 -43 -263t-150 -206l-53 46q87 72 127.5 160z" />
    <glyph glyph-name="uniB084" unicode="&#xb084;" 
d="M253.5 544.5q-49.5 -85.5 -152.5 -156.5l-49 50q81 52 124 109.5t52 142.5h-158v63h233q0 -123 -49.5 -208.5zM189 312h567v-211h-490v-101h525v-61h-599v220h489v93h-492v60zM431 524q41 71 49 166h-144v63h216q0 -134 -44 -230.5t-148 -173.5l-54 45q84 59 125 130z
M680 802h75v-447h-75v447z" />
    <glyph glyph-name="uniB08C" unicode="&#xb08c;" 
d="M257 516q-47 -95 -155 -170l-50 48q85 57 127.5 125t51.5 162h-158v63h231q0 -133 -47 -228zM188 253h568v-314h-568v314zM682 0v192h-419v-192h419zM434 496.5q41 80.5 48 184.5h-144v63h217q0 -139 -43.5 -246.5t-147.5 -194.5l-55 46q84 67 125 147.5zM681 801h75
v-506h-75v506z" />
    <glyph glyph-name="uniB08D" unicode="&#xb08d;" 
d="M756 801v-471h-75v471h75zM182 526q43 67 52 161h-158v62h231q0 -132 -47.5 -226t-155.5 -168l-50 49q85 55 128 122zM192 285h76v-111h414v111h74v-347h-564v347zM682 0v113h-414v-113h414zM435 503.5q41 79.5 48 183.5h-143v62h216q0 -140 -43.5 -246t-146.5 -190
l-56 46q84 65 125 144.5z" />
    <glyph glyph-name="uniB08F" unicode="&#xb08f;" 
d="M755 802v-595h-75v595h75zM180 507q43 69 51 163h-158v63h230q0 -132 -47 -228t-154 -172l-50 47q85 58 128 127zM292.5 34q67.5 34 108 84.5t40.5 111.5v30h79v-30q0 -61 40.5 -111.5t107.5 -84.5t147 -47l-31 -60q-104 21 -185.5 70.5t-118.5 122.5
q-37 -73 -119 -122.5t-186 -70.5l-30 60q80 13 147.5 47zM434 481.5q41 82.5 48 188.5h-144v63h216q0 -140 -43.5 -249.5t-146.5 -197.5l-56 45q85 68 126 150.5z" />
    <glyph glyph-name="uniB091" unicode="&#xb091;" 
d="M757 802v-523h-77v523h77zM181 519.5q43 67.5 52 161.5h-158v63h230q0 -133 -47.5 -228.5t-156.5 -169.5l-48 48q85 58 128 125.5zM247.5 212q79.5 44 218.5 44t219 -44t80 -122q0 -77 -80.5 -121t-218.5 -44q-139 0 -218.5 44t-79.5 121q0 78 79.5 122zM304.5 14
q59.5 -28 161.5 -28t162.5 28t60.5 76q0 50 -60 77.5t-163 27.5t-162 -27.5t-59 -77.5q0 -48 59.5 -76zM435.5 495q40.5 81 47.5 186h-143v63h216q0 -139 -43.5 -247t-146.5 -194l-56 45q85 66 125.5 147z" />
    <glyph glyph-name="uniB098" unicode="&#xb098;" 
d="M711 803v-351h142v-65h-142v-461h-77v877h77zM74 717h76v-504q210 0 401 40l9 -65q-200 -39 -416 -39h-70v568z" />
    <glyph glyph-name="uniB099" unicode="&#xb099;" 
d="M718 803v-219h130v-64h-130v-221h-77v504h77zM82 752h75v-324q208 0 394 37l9 -63q-199 -39 -410 -39h-68v389zM153 250h565v-325h-77v262h-488v63z" />
    <glyph glyph-name="uniB09A" unicode="&#xb09a;" 
d="M718 803v-214h130v-63h-130v-214h-77v491h77zM82 752h75v-311q201 0 392 38l9 -63q-105 -22 -204 -31t-204 -9h-68v376zM134 263h271v-338h-75v276h-196v62zM448 263h270v-338h-76v276h-194v62z" />
    <glyph glyph-name="uniB09C" unicode="&#xb09c;" 
d="M157 738v-346q216 0 395 39l9 -64q-194 -39 -410 -39h-69v410h75zM177 231h76v-222h496v-63h-572v285zM641 801h77v-260h130v-66h-130v-306h-77v632z" />
    <glyph glyph-name="uniB09F" unicode="&#xb09f;" 
d="M718 802v-206h130v-63h-130v-220h-77v489h77zM82 755h75v-316q202 0 393 38l9 -64q-192 -39 -409 -39h-68v381zM169 261h552v-63h-477v-197h487v-62h-562v322z" />
    <glyph glyph-name="uniB0A0" unicode="&#xb0a0;" 
d="M718 802v-183h130v-64h-130v-196h-77v443h77zM82 763h75v-295q207 0 393 37l9 -62q-105 -22 -204 -31t-205 -9h-68v360zM164 316h554v-212h-477v-104h508v-61h-582v224h474v93h-477v60z" />
    <glyph glyph-name="uniB0A1" unicode="&#xb0a1;" 
d="M718 801v-195h130v-62h-130v-199h-77v456h77zM82 763h75v-302q207 0 393 37l9 -63q-192 -39 -409 -39h-68v367zM127 296h285v-201h-209v-98q94 0 151.5 4t114.5 16l8 -58q-62 -13 -122 -16.5t-174 -3.5h-51v212h208v86h-211v59zM450 296h268v-364h-76v303h-192v61z" />
    <glyph glyph-name="uniB0A2" unicode="&#xb0a2;" 
d="M718 801v-194h131v-62h-131v-200h-77v456h77zM82 763h75v-301q207 0 393 37l9 -63q-105 -22 -204 -31t-205 -9h-68v367zM116 300h275v-202h-199v-100q75 0 121.5 3t96.5 13l8 -58q-57 -11 -108.5 -14t-145.5 -3h-46v215h199v88h-201v58zM444 300h274v-361h-274v361z
M650 -4v247h-139v-247h139z" />
    <glyph glyph-name="uniB0A8" unicode="&#xb0a8;" 
d="M718 801v-202h131v-63h-131v-230h-77v495h77zM82 758h75v-319q203 0 394 38l9 -63q-192 -39 -410 -39h-68v383zM168 258h550v-319h-550v319zM642 0v197h-400v-197h400z" />
    <glyph glyph-name="uniB0A9" unicode="&#xb0a9;" 
d="M719 801v-196h130v-63h-130v-196h-78v455h78zM82 761h75v-308q209 0 394 38l9 -63q-197 -40 -410 -40h-68v373zM167 299h75v-118h400v118h76v-360h-551v360zM642 1v117h-400v-117h400z" />
    <glyph glyph-name="uniB0AB" unicode="&#xb0ab;" 
d="M718 802v-241h130v-63h-130v-272h-77v576h77zM82 742h75v-328q193 0 394 40l9 -63q-191 -40 -410 -40h-68v391zM268.5 38q67.5 35 108 87.5t40.5 115.5v39h75v-39q0 -62 40 -114t107 -87t145 -48l-30 -59q-100 20 -180.5 69.5t-118.5 122.5q-38 -74 -119.5 -124
t-182.5 -70l-31 59q79 13 146.5 48z" />
    <glyph glyph-name="uniB0AC" unicode="&#xb0ac;" 
d="M718 802v-210h131v-63h-131v-218h-76v491h76zM169 45q40 36 62 79.5t22 85.5v65h73v-65q0 -61 31.5 -118.5t91.5 -92.5q59 38 92 97.5t33 113.5v65h75v-65q0 -70 47.5 -131t128.5 -90l-38 -56q-63 23 -108.5 67t-67.5 101q-22 -58 -62.5 -104.5t-98.5 -72.5
q-61 25 -102 70.5t-61 104.5q-23 -55 -67.5 -99t-105.5 -67l-38 56q53 20 93 56zM82 746h76v-314q202 0 393 38l9 -63q-197 -40 -410 -40h-68v379z" />
    <glyph glyph-name="uniB0AD" unicode="&#xb0ad;" 
d="M718 803v-221h130v-62h-130v-240h-77v523h77zM82 747h75v-322q201 0 394 37l9 -62q-197 -40 -410 -40h-68v387zM186.5 188.5q35.5 38.5 100 59t151.5 20.5t152.5 -20.5t100.5 -59t35 -90.5t-35 -90.5t-100.5 -59.5t-152.5 -21q-86 0 -151 21t-100.5 59.5t-35.5 90.5
t35.5 90.5zM284 19q58 -30 154 -30q97 0 155.5 30t58.5 79q0 50 -58.5 79t-155.5 29t-154.5 -29t-57.5 -79q0 -49 58 -79z" />
    <glyph glyph-name="uniB0AE" unicode="&#xb0ae;" 
d="M718 804v-218h130v-62h-130v-219h-77v499h77zM82 754h75v-313q214 0 394 37l9 -64q-194 -38 -410 -38h-68v378zM265.5 31.5q63.5 30.5 102 74t39.5 92.5h-246v62h571v-62h-245q1 -48 40.5 -91.5t103 -75t135.5 -43.5l-30 -58q-97 18 -175 65t-113 112
q-36 -66 -114 -112.5t-175 -64.5l-30 59q73 12 136.5 42.5z" />
    <glyph glyph-name="uniB0AF" unicode="&#xb0af;" 
d="M719 803v-205h129v-63h-129v-213h-78v481h78zM82 758h75v-296q207 0 393 37l9 -63q-192 -39 -409 -39h-68v361zM258.5 27q63.5 29 103.5 70.5t44 87.5h-253v62h253v99h78v-99h252v-62h-252q4 -46 44 -87.5t103 -70.5t135 -39l-28 -59q-98 17 -177 62t-115 109
q-37 -64 -116 -109t-178 -62l-28 59q71 10 134.5 39z" />
    <glyph glyph-name="uniB0B1" unicode="&#xb0b1;" 
d="M718 802v-199h130v-63h-130v-204h-77v466h77zM82 756h75v-302q200 0 393 37l9 -63q-197 -40 -409 -40h-68v368zM168 293h554v-58h-477v-88h467v-57h-467v-93h497v-58h-574v354z" />
    <glyph glyph-name="uniB0B3" unicode="&#xb0b3;" 
d="M718 803v-182h130v-64h-130v-209h-77v455h77zM82 763h75v-282q202 0 393 38l9 -63q-194 -38 -409 -38h-68v345zM146 287h267v88h76v-88h266v-59h-609v59zM271.5 153q64.5 34 179.5 34q114 0 178 -34t64 -95q0 -62 -64 -96t-178 -34q-115 0 -179.5 34t-64.5 96
q0 61 64.5 95zM329 4q44 -19 122 -19q77 0 121 19t44 54q0 34 -44.5 53.5t-120.5 19.5q-78 0 -122 -19.5t-44 -53.5q0 -35 44 -54z" />
    <glyph glyph-name="uniB0B4" unicode="&#xb0b4;" 
d="M782 803v-877h-73v454h-128v-408h-72v810h72v-338h128v359h73zM83 695h77v-474q153 2 285 28l9 -67q-83 -16 -157.5 -21.5t-157.5 -5.5h-56v540z" />
    <glyph glyph-name="uniB0B5" unicode="&#xb0b5;" 
d="M777 802v-514h-73v229h-123v-224h-72v492h72v-205h123v222h73zM83 742h77v-309q79 1 146.5 6.5t137.5 20.5l10 -63q-80 -16 -154.5 -22t-160.5 -6h-56v373zM192 245h585v-320h-76v257h-509v63z" />
    <glyph glyph-name="uniB0B8" unicode="&#xb0b8;" 
d="M776 801v-650h-72v332h-124v-303h-71v605h71v-239h124v255h72zM83 727h76v-331q80 1 147.5 6.5t138.5 19.5l8 -62q-81 -16 -155 -22t-159 -6h-56v395zM206 242h76v-224h521v-63h-597v287z" />
    <glyph glyph-name="uniB0BB" unicode="&#xb0bb;" 
d="M785 243v-63h-518v-180h524v-63h-602v306h596zM82 738h77v-314q85 1 151 7t135 21l7 -66q-76 -16 -148 -22t-166 -6h-56v380zM514 785h73v-212h118v228h74v-522h-74v231h-118v-226h-73v501z" />
    <glyph glyph-name="uniB0BC" unicode="&#xb0bc;" 
d="M776 801v-449h-72v194h-124v-190h-72v429h72v-178h124v194h72zM84 751h76v-286q149 2 284 26l8 -62q-80 -16 -152 -21t-162 -5h-54v348zM200 310h576v-209h-497v-101h532v-61h-608v220h499v91h-502v60z" />
    <glyph glyph-name="uniB0C4" unicode="&#xb0c4;" 
d="M777 801v-499h-73v214h-123v-208h-73v477h73v-206h123v222h73zM83 745h77v-315q77 1 144.5 6.5t140.5 19.5l9 -64q-83 -15 -157 -20.5t-158 -5.5h-56v379zM203 260h574v-321h-574v321zM703 0v198h-426v-198h426z" />
    <glyph glyph-name="uniB0C5" unicode="&#xb0c5;" 
d="M777 801v-476h-73v201h-123v-193h-72v452h72v-198h123v214h73zM84 744h77v-298q158 2 284 26l9 -64q-81 -15 -154.5 -20.5t-160.5 -5.5h-55v362zM205 284h75v-107h423v107h74v-345h-572v345zM703 1v115h-423v-115h423z" />
    <glyph glyph-name="uniB0C7" unicode="&#xb0c7;" 
d="M776 801v-573h-72v277h-124v-204h-71v484h71v-217h124v233h72zM83 722h76v-324q78 1 146 9t137 27l10 -61q-76 -20 -150 -27.5t-165 -7.5h-54v384zM297.5 35.5q68.5 34.5 110.5 85t42 107.5v34h76v-34q0 -57 42 -107.5t110.5 -85t144.5 -46.5l-28 -59
q-101 18 -184.5 68.5t-122.5 122.5q-39 -72 -122.5 -122.5t-183.5 -68.5l-30 59q77 12 145.5 46.5z" />
    <glyph glyph-name="uniB0C8" unicode="&#xb0c8;" 
d="M776 802v-503h-73v221h-124v-213h-72v478h72v-203h124v220h73zM83 733h77v-310q157 2 283 25l9 -63q-80 -16 -153.5 -21.5t-160.5 -5.5h-55v375zM188 46.5q40 35.5 62 79t22 85.5v60h73v-60q0 -61 32 -117.5t91 -92.5q60 38 93 97t33 113v60h74v-60q0 -70 48 -131
t130 -89l-38 -56q-63 23 -108.5 66.5t-69.5 100.5q-21 -57 -61.5 -103.5t-98.5 -71.5q-62 25 -102.5 69.5t-60.5 102.5q-24 -55 -68.5 -98t-105.5 -66l-38 56q53 20 93 55.5z" />
    <glyph glyph-name="uniB0C9" unicode="&#xb0c9;" 
d="M777 802v-530h-73v237h-124v-207h-72v483h72v-213h124v230h73zM84 732h77v-316q154 2 284 27l10 -64q-82 -15 -156.5 -21t-159.5 -6h-55v380zM277 213q78 44 214 44q134 0 212.5 -44t78.5 -121q0 -76 -79 -120t-212 -44q-136 0 -214 44t-78 120q0 77 78 121zM332.5 17
q58.5 -28 158.5 -28q99 0 157 28t58 75q0 49 -57.5 76.5t-157.5 27.5q-101 0 -159 -27.5t-58 -76.5q0 -47 58.5 -75z" />
    <glyph glyph-name="uniB0D0" unicode="&#xb0d0;" 
d="M711 803v-223h138v-63h-138v-197h138v-64h-138v-330h-77v877h77zM74 717h76v-504q210 0 401 40l9 -66q-194 -39 -416 -39h-70v569z" />
    <glyph glyph-name="uniB0D1" unicode="&#xb0d1;" 
d="M718 803v-128h129v-63h-129v-123h129v-62h-129v-128h-77v504h77zM82 752h76v-324q207 0 393 37l9 -63q-199 -39 -410 -39h-68v389zM153 250h565v-325h-77v262h-488v63z" />
    <glyph glyph-name="uniB0D4" unicode="&#xb0d4;" 
d="M158 738v-346q211 0 394 39l9 -64q-194 -39 -410 -39h-69v410h76zM177 231h76v-222h496v-63h-572v285zM641 801h77v-158h129v-64h-129v-151h129v-65h-129v-194h-77v632z" />
    <glyph glyph-name="uniB0D7" unicode="&#xb0d7;" 
d="M720 244v-63h-486v-181h495v-63h-571v307h562zM75 754h76v-312q108 0 203 8.5t192 29.5l10 -65q-102 -22 -200 -30.5t-212 -8.5h-69v378zM634 801h78v-132h132v-66h-132v-127h132v-66h-132v-123h-78v514z" />
    <glyph glyph-name="uniB0D8" unicode="&#xb0d8;" 
d="M718 802v-109h130v-61h-130v-100h130v-63h-130v-110h-77v443h77zM82 763h75v-295q207 0 393 37l9 -62q-105 -22 -204 -31t-205 -9h-68v360zM164 316h554v-212h-477v-104h508v-61h-582v224h474v93h-477v60z" />
    <glyph glyph-name="uniB0E0" unicode="&#xb0e0;" 
d="M718 801v-124h130v-63h-130v-120h130v-63h-130v-125h-77v495h77zM82 758h75v-319q203 0 394 38l9 -63q-192 -39 -410 -39h-68v383zM168 258h550v-319h-550v319zM642 0v197h-400v-197h400z" />
    <glyph glyph-name="uniB0E1" unicode="&#xb0e1;" 
d="M235 279v-108h399v108h78v-344h-554v344h77zM76 761h75v-306q203 0 394 38l11 -64q-199 -40 -412 -40h-68v372zM634 -3v114h-399v-114h399zM634 801h78v-122h132v-63h-132v-114h132v-63h-132v-113h-78v475z" />
    <glyph glyph-name="uniB0E3" unicode="&#xb0e3;" 
d="M718 802v-140h130v-64h-130v-131h130v-64h-130v-177h-77v576h77zM82 742h75v-328q193 0 394 40l9 -63q-191 -40 -410 -40h-68v391zM268.5 38q67.5 35 108 87.5t40.5 115.5v39h75v-39q0 -62 40 -114t107 -87t145 -48l-30 -59q-100 20 -180.5 69.5t-118.5 122.5
q-38 -74 -119.5 -124t-182.5 -70l-31 59q79 13 146.5 48z" />
    <glyph glyph-name="uniB0E5" unicode="&#xb0e5;" 
d="M718 803v-135h130v-64h-130v-122h130v-63h-130v-139h-77v523h77zM82 747h75v-322q201 0 394 37l9 -62q-197 -40 -410 -40h-68v387zM186.5 188.5q35.5 38.5 100 59t151.5 20.5t152.5 -20.5t100.5 -59t35 -90.5t-35 -90.5t-100.5 -59.5t-152.5 -21q-86 0 -151 21
t-100.5 59.5t-35.5 90.5t35.5 90.5zM284 19q58 -30 154 -30q97 0 155.5 30t58.5 79q0 50 -58.5 79t-155.5 29t-154.5 -29t-57.5 -79q0 -49 58 -79z" />
    <glyph glyph-name="uniB0EC" unicode="&#xb0ec;" 
d="M157 695v-474q90 1 155.5 6t133.5 20l10 -69q-77 -16 -148.5 -21.5t-170.5 -5.5h-57v544h77zM514 782h71v-203h124v223h73v-879h-73v332h-124v-284h-71v811zM709 321v193h-124v-193h124z" />
    <glyph glyph-name="uniB108" unicode="&#xb108;" 
d="M760 803v-878h-76v524h-271v63h271v291h76zM89 704h75v-502q106 0 197.5 8t185.5 27l9 -64q-99 -19 -194 -27t-206 -8h-67v566z" />
    <glyph glyph-name="uniB109" unicode="&#xb109;" 
d="M168 748v-339q106 0 196 8t182 27l9 -65q-95 -19 -187.5 -26.5t-208.5 -7.5h-67v403h76zM176 241h583v-316h-76v253h-507v63zM432 630h251v173h76v-521h-76v285h-251v63z" />
    <glyph glyph-name="uniB10B" unicode="&#xb10b;" 
d="M167 754v-330q106 0 195.5 8t181.5 27l10 -65q-97 -19 -189.5 -27t-206.5 -8h-67v395h76zM138 262h289v-334h-75v271h-214v63zM431 644h251v159h76v-493h-76v270h-251v64zM561.5 74.5q41.5 62.5 41.5 134.5v68h76v-68q0 -74 40 -136t114 -90l-39 -59q-110 46 -154 160
q-21 -55 -60.5 -96.5t-95.5 -64.5l-40 59q76 30 117.5 92.5z" />
    <glyph glyph-name="uniB10C" unicode="&#xb10c;" 
d="M759 801v-634h-76v380h-252v62h252v192h76zM91 736h77v-359q105 0 194.5 8t181.5 26l11 -64q-95 -20 -188.5 -28t-208.5 -8h-67v425zM201 219h75v-210h507v-63h-582v273z" />
    <glyph glyph-name="uniB10F" unicode="&#xb10f;" 
d="M761 245v-64h-505v-181h514v-64h-591v309h582zM79 749h76v-349q104 0 192.5 7t181.5 24l10 -60q-100 -17 -191.5 -23.5t-203.5 -6.5h-65v408zM422 629h253v172h77v-511h-77v274h-253v65z" />
    <glyph glyph-name="uniB110" unicode="&#xb110;" 
d="M168 760v-309q107 0 196.5 7.5t180.5 25.5l12 -63q-99 -19 -192.5 -27t-206.5 -8h-67v374h77zM196 307h563v-208h-485v-99h517v-61h-591v218h484v88h-488v62zM432 655h250v147h77v-453h-77v243h-250v63z" />
    <glyph glyph-name="uniB112" unicode="&#xb112;" 
d="M168 758v-319q109 0 198.5 7t179.5 26l11 -64q-98 -19 -192 -26.5t-206 -7.5h-67v384h76zM145 292h282v-199h-206v-98q76 0 124.5 3.5t100.5 13.5l8 -59q-58 -10 -111 -13t-150 -3h-46v213h206v84h-208v58zM432 649h251v153h75v-470h-75v254h-251v63zM481 292h277v-358
h-277v358zM690 -9v244h-142v-244h142z" />
    <glyph glyph-name="uniB113" unicode="&#xb113;" 
d="M168 757v-312q107 0 197 7.5t181 25.5l11 -64q-98 -19 -192 -26.5t-206 -7.5h-67v377h76zM145 292h282v-199h-206v-98q76 0 124.5 3.5t100.5 13.5l8 -59q-58 -10 -111 -13t-150 -3h-46v213h206v84h-208v58zM432 655h251v147h76v-466h-76v256h-251v63zM481 302h69v-116
h139v116h70v-365h-278v365zM689 -4v130h-139v-130h139z" />
    <glyph glyph-name="uniB118" unicode="&#xb118;" 
d="M759 254v-315h-561v315h561zM92 749h76v-329q106 0 196 8t182 27l9 -65q-96 -19 -189 -27t-207 -8h-67v394zM685 0v193h-414v-193h414zM432 636h251v166h76v-505h-76v277h-251v62z" />
    <glyph glyph-name="uniB119" unicode="&#xb119;" 
d="M168 757v-322q107 0 197 7.5t181 26.5l9 -65q-97 -19 -191 -27t-205 -8h-67v388h76zM196 289h75v-114h413v114h75v-350h-563v350zM684 1v113h-413v-113h413zM432 645h251v157h76v-473h-76v252h-251v64z" />
    <glyph glyph-name="uniB11B" unicode="&#xb11b;" 
d="M167 743v-348q108 0 198 8t180 27l9 -65q-95 -19 -187.5 -26.5t-208.5 -7.5h-67v412h76zM289.5 36q67.5 34 109 84.5t41.5 111.5v38h75v-38q0 -60 40.5 -110.5t107.5 -84.5t146 -47l-31 -61q-101 20 -182 69.5t-119 121.5q-38 -72 -120 -121.5t-184 -69.5l-29 61
q78 12 145.5 46zM430 615h252v188h77v-601h-77v350h-252v63z" />
    <glyph glyph-name="uniB11C" unicode="&#xb11c;" 
d="M167 746v-328q107 0 196 7.5t180 25.5l11 -64q-96 -19 -188 -26.5t-208 -7.5h-68v393h77zM182 50q40 36 62 79.5t22 85.5v61h73v-61q0 -62 32 -118.5t92 -92.5q59 38 92 97.5t33 113.5v61h75v-61q0 -70 47.5 -131.5t129.5 -89.5l-40 -56q-62 23 -107 66.5t-68 100.5
q-22 -58 -62 -104t-99 -72q-61 25 -102 69.5t-62 102.5q-24 -55 -68 -97.5t-104 -65.5l-39 56q53 20 93 56zM430 633h251v170h76v-508h-76v275h-251v63z" />
    <glyph glyph-name="uniB11D" unicode="&#xb11d;" 
d="M168 740v-326q109 0 198.5 7t179.5 26l9 -64q-96 -19 -189 -27t-207 -8h-67v392h76zM258.5 216q77.5 44 213.5 44t213 -44t77 -123q0 -78 -77.5 -122t-212.5 -44t-213 44t-78 122q0 79 77.5 123zM314 16q58 -28 158 -28t157.5 28t57.5 77q0 50 -57 78t-158 28t-158.5 -28
t-57.5 -78q0 -49 58 -77zM432 631h251v172h76v-537h-76v301h-251v64z" />
    <glyph glyph-name="uniB122" unicode="&#xb122;" 
d="M155 749v-349q104 0 192.5 7t181.5 24l9 -60q-99 -17 -190.5 -23.5t-203.5 -6.5h-65v408h76zM162 -2h132v195h-123v63h592v-63h-124v-195h135v-61h-612v61zM563 -2v195h-194v-195h194zM422 629h255v172h75v-511h-75v274h-255v65z" />
    <glyph glyph-name="uniB123" unicode="&#xb123;" 
d="M167 760v-287q110 0 198.5 7t178.5 26l12 -63q-98 -19 -191.5 -26.5t-206.5 -7.5h-68v351h77zM164 284h270v88h76v-88h270v-60h-616v60zM292.5 152q64.5 34 179.5 34q114 0 179 -34t65 -95q0 -62 -65 -96t-179 -34q-115 0 -179.5 34t-64.5 96q0 61 64.5 95zM348 3
q45 -19 124 -19t123.5 19t44.5 54q0 34 -45 53.5t-123 19.5q-79 0 -124 -19.5t-45 -53.5q0 -35 45 -54zM430 666h253v137h76v-469h-76v270h-253v62z" />
    <glyph glyph-name="uniB124" unicode="&#xb124;" 
d="M158 707v-492q159 2 289 28l11 -65q-81 -16 -156.5 -22t-162.5 -6h-56v557h75zM326 506h199v274h72v-808h-72v471h-199v63zM711 803h73v-877h-73v877z" />
    <glyph glyph-name="uniB125" unicode="&#xb125;" 
d="M780 802v-513h-73v513h73zM87 739h76v-330q149 2 286 28l10 -63q-82 -16 -156.5 -22t-160.5 -6h-55v393zM192 245h588v-320h-76v257h-512v63zM344 622h189v161h71v-485h-71v260h-189v64z" />
    <glyph glyph-name="uniB128" unicode="&#xb128;" 
d="M779 801v-646h-72v646h72zM87 725h75v-349q77 1 145.5 6.5t141.5 19.5l10 -62q-83 -16 -157 -22t-160 -6h-55v413zM217 231h75v-222h517v-63h-592v285zM343 597h190v187h71v-605h-71v356h-190v62z" />
    <glyph glyph-name="uniB12B" unicode="&#xb12b;" 
d="M786 243v-63h-519v-180h524v-63h-602v306h597zM82 742h76v-329q86 1 152.5 6.5t136.5 19.5l7 -65q-77 -14 -149.5 -19.5t-166.5 -5.5h-56v393zM344 621h195v162h72v-495h-72v268h-195v65zM705 801h74v-516h-74v516z" />
    <glyph glyph-name="uniB12C" unicode="&#xb12c;" 
d="M779 801v-453h-72v453h72zM87 753h75v-299q77 1 145 6.5t143 19.5l9 -63q-82 -15 -156 -20.5t-162 -5.5h-54v362zM203 308h576v-208h-497v-102h532v-59h-609v219h500v90h-502v60zM343 647h190v136h71v-428h-71v230h-190v62z" />
    <glyph glyph-name="uniB134" unicode="&#xb134;" 
d="M780 260v-321h-570v321h570zM87 745h76v-320q79 1 146 6t139 19l9 -64q-82 -15 -156.5 -20.5t-158.5 -5.5h-55v385zM706 0v199h-422v-199h422zM343 631h190v152h71v-472h-71v257h-190v63zM707 801h73v-499h-73v499z" />
    <glyph glyph-name="uniB135" unicode="&#xb135;" 
d="M780 801v-482h-73v482h73zM87 744h76v-320q156 2 286 27l11 -62q-82 -17 -156 -23t-162 -6h-55v384zM212 284h75v-108h418v108h75v-345h-568v345zM705 1v113h-418v-113h418zM343 638h190v145h71v-456h-71v248h-190v63z" />
    <glyph glyph-name="uniB137" unicode="&#xb137;" 
d="M532 600v183h72v-496h-72v252h-188v61h188zM87 722h75v-340q150 2 285 29l8 -62q-81 -17 -155 -23t-159 -6h-54v402zM297.5 34.5q68.5 33.5 110.5 82.5t42 105v31h76v-31q0 -56 42 -105t110.5 -82.5t144.5 -45.5l-27 -59q-102 18 -186 67t-122 120q-39 -71 -122.5 -120
t-184.5 -67l-28 59q76 12 144.5 45.5zM707 801h72v-593h-72v593z" />
    <glyph glyph-name="uniB138" unicode="&#xb138;" 
d="M779 801v-514h-73v514h73zM86 743h76v-332q148 2 284 28l10 -63q-80 -16 -153.5 -21.5t-161.5 -5.5h-55v394zM188 49q40 36 62 79.5t22 85.5v48h73v-48q0 -61 32 -118t91 -92q60 37 93 96.5t33 113.5v48h74v-48q0 -71 48 -131.5t130 -88.5l-38 -56q-63 23 -108.5 66
t-69.5 100q-21 -57 -61.5 -103t-98.5 -71q-61 24 -101.5 68.5t-61.5 103.5q-24 -55 -68.5 -98t-105.5 -66l-38 56q53 19 93 55zM342 618h190v165h71v-483h-71v255h-190v63z" />
    <glyph glyph-name="uniB139" unicode="&#xb139;" 
d="M780 801v-533h-73v533h73zM87 734h76v-336q77 1 144.5 6.5t140.5 20.5l9 -64q-81 -15 -154.5 -20.5t-160.5 -5.5h-55v399zM279.5 213.5q78.5 43.5 213.5 43.5q134 0 212.5 -43.5t78.5 -119.5t-78.5 -119t-212.5 -43q-136 0 -214 43t-78 119t78.5 119.5zM334.5 19
q58.5 -27 158.5 -27t157.5 27t57.5 75t-57.5 75t-157.5 27t-158.5 -27t-58.5 -75t58.5 -75zM343 607h190v176h71v-483h-71v246h-190v61z" />
    <glyph glyph-name="uniB140" unicode="&#xb140;" 
d="M760 803v-878h-76v409h-264v62h264v137h-264v62h264v208h76zM89 705h75v-511q112 0 198.5 7t173.5 25l9 -64q-93 -18 -183 -25t-208 -7h-65v575z" />
    <glyph glyph-name="uniB141" unicode="&#xb141;" 
d="M168 748v-370q108 0 192 7t170 24l11 -63q-91 -18 -180 -25.5t-205 -7.5h-64v435h76zM175 230h584v-305h-76v242h-508v63zM434 535h249v99h-249v60h249v109h76v-531h-76v202h-249v61z" />
    <glyph glyph-name="uniB144" unicode="&#xb144;" 
d="M759 801v-649h-76v304h-251v62h251v106h-251v62h251v115h76zM91 738h77v-389q97 0 185 7t183 24l8 -64q-99 -18 -190.5 -25t-197.5 -7h-65v454zM201 208h75v-199h507v-63h-582v262z" />
    <glyph glyph-name="uniB147" unicode="&#xb147;" 
d="M763 244v-63h-506v-181h514v-64h-593v308h585zM79 749h76v-356q106 0 191 6.5t176 22.5l8 -60q-96 -16 -185 -22t-202 -6h-64v415zM423 544h253v97h-253v59h253v101h77v-511h-77v194h-253v60z" />
    <glyph glyph-name="uniB148" unicode="&#xb148;" 
d="M168 762v-337q118 0 200 6t164 23l10 -64q-88 -16 -173.5 -22t-212.5 -6h-65v400h77zM196 296h563v-203h-485v-93h515v-61h-589v212h484v85h-488v60zM434 567h249v86h-249v60h249v89h76v-464h-76v168h-249v61z" />
    <glyph glyph-name="uniB150" unicode="&#xb150;" 
d="M169 758v-368q108 0 191 7t169 24l10 -62q-89 -19 -176.5 -25.5t-205.5 -6.5h-63v431h75zM199 247h560v-308h-560v308zM684 0v186h-412v-186h412zM434 547h249v96h-249v59h249v100h76v-516h-76v201h-249v60z" />
    <glyph glyph-name="uniB151" unicode="&#xb151;" 
d="M276 280v-104h408v104h75v-341h-557v341h74zM94 763h75v-355q113 0 196.5 6.5t168.5 23.5l8 -63q-91 -17 -179 -23.5t-205 -6.5h-64v418zM684 1v113h-408v-113h408zM434 560h249v88h-249v60h249v94h76v-479h-76v177h-249v60z" />
    <glyph glyph-name="uniB154" unicode="&#xb154;" 
d="M168 751v-361q111 0 193.5 6.5t168.5 24.5l8 -62q-91 -18 -178 -24.5t-205 -6.5h-63v423h76zM182 50q40 36 62 79.5t22 86.5v48h73v-48q0 -62 32 -119t92 -92q59 38 92 97.5t33 113.5v48h75v-48q0 -70 47.5 -131.5t129.5 -90.5l-40 -55q-62 23 -107 66t-69 100
q-21 -57 -61.5 -103t-98.5 -71q-61 24 -102 68.5t-62 102.5q-24 -55 -68 -97.5t-104 -65.5l-39 55q53 20 93 56zM433 550h248v90h-248v60h248v102h76v-516h-76v203h-248v61z" />
    <glyph glyph-name="uniB155" unicode="&#xb155;" 
d="M169 748v-359q118 0 202 6.5t169 24.5l11 -62q-90 -19 -178 -25.5t-214 -6.5h-65v422h75zM258.5 213.5q77.5 43.5 213.5 43.5t213 -43.5t77 -121.5t-77 -121.5t-213 -43.5t-213.5 43.5t-77.5 121.5t77.5 121.5zM313.5 15.5q57.5 -27.5 158.5 -27.5q100 0 157.5 27.5
t57.5 76.5t-57.5 76t-157.5 27q-101 0 -158.5 -27t-57.5 -76t57.5 -76.5zM434 543h249v93h-249v60h249v107h76v-539h-76v218h-249v61z" />
    <glyph glyph-name="uniB158" unicode="&#xb158;" 
d="M169 750v-356q113 0 195 7t165 24l9 -63q-88 -17 -174.5 -24t-206.5 -7h-63v419h75zM683 110v81h-510v63h586v-328h-76v129l-519 -25l-10 60zM434 548h249v95h-249v59h249v101h76v-507h-76v192h-249v60z" />
    <glyph glyph-name="uniB15C" unicode="&#xb15c;" 
d="M158 702v-491q79 1 147 7t139 21l10 -66q-80 -16 -154.5 -22t-160.5 -6h-56v557h75zM341 409h184v125h-184v63h184v183h72v-808h-72v375h-184v62zM711 803h73v-877h-73v877z" />
    <glyph glyph-name="uniB160" unicode="&#xb160;" 
d="M779 801v-650h-72v650h72zM87 724h75v-374q83 1 148 6t134 18l10 -63q-78 -15 -150 -20.5t-162 -5.5h-55v439zM217 214h75v-205h517v-63h-592v268zM352 505h181v95h-181v60h181v124h71v-610h-71v271h-181v60z" />
    <glyph glyph-name="uniB171" unicode="&#xb171;" 
d="M780 802v-544h-73v544h73zM87 738h76v-361q83 1 147.5 6t133.5 19l11 -63q-79 -15 -151 -20.5t-162 -5.5h-55v425zM278.5 201.5q77.5 41.5 214.5 41.5q136 0 213.5 -41.5t77.5 -116.5t-77.5 -116.5t-213.5 -41.5q-137 0 -214.5 41.5t-77.5 116.5t77.5 116.5zM333.5 12
q57.5 -26 159.5 -26q101 0 158 26t57 73t-57 73t-158 26q-102 0 -159.5 -26t-57.5 -73t57.5 -73zM352 533h181v89h-181v60h181v101h71v-496h-71v184h-181v62z" />
    <glyph glyph-name="uniB178" unicode="&#xb178;" 
d="M214 727v-325h528v-62h-269v-237h360v-63h-793v63h358v237h-259v387h75z" />
    <glyph glyph-name="uniB179" unicode="&#xb179;" 
d="M222 782v-229h519v-63h-268v-120h358v-61h-790v61h357v120h-250v292h74zM133 218h600v-292h-76v229h-524v63z" />
    <glyph glyph-name="uniB17C" unicode="&#xb17c;" 
d="M222 769v-236h518v-62h-267v-129h358v-63h-790v63h358v129h-251v298h74zM142 207h75v-198h530v-63h-605v261z" />
    <glyph glyph-name="uniB180" unicode="&#xb180;" 
d="M221 788v-196h518v-62h-266v-97h360v-63h-793v63h359v97h-251v258h73zM139 296h593v-200h-516v-98h546v-59h-621v213h516v85h-518v59z" />
    <glyph glyph-name="uniB181" unicode="&#xb181;" 
d="M421 291v-202h-222v-98q94 0 155 4t125 15l7 -60q-70 -12 -136 -15.5t-175 -3.5h-54v214h222v87h-225v59h303zM33 425h357v94h-250v267h76v-205h518v-62h-267v-94h359v-63h-793v63zM459 291h283v-363h-76v302h-207v61z" />
    <glyph glyph-name="uniB182" unicode="&#xb182;" 
d="M222 784v-206h517v-62h-265v-100h359v-62h-793v62h359v100h-251v268h74zM124 282h280v-193h-206v-94q80 0 129 3.5t100 12.5l7 -57q-56 -10 -108 -13t-153 -3h-47v206h207v82h-209v56zM461 282h280v-344h-280v344zM675 -5v230h-149v-230h149z" />
    <glyph glyph-name="uniB188" unicode="&#xb188;" 
d="M223 785v-223h518v-63h-268v-117h358v-62h-790v62h357v117h-250v286h75zM142 232h589v-293h-589v293zM657 0v172h-440v-172h440z" />
    <glyph glyph-name="uniB189" unicode="&#xb189;" 
d="M222 272v-99h431v99h74v-333h-579v333h74zM41 399h357v107h-250v280h75v-218h518v-62h-268v-107h358v-62h-790v62zM653 1v111h-431v-111h431z" />
    </font>
</defs>
</svg>
