<?xml version="1.0" standalone="no"?>
<!DOCTYPE svg PUBLIC "-//W3C//DTD SVG 1.1//EN" "http://www.w3.org/Graphics/SVG/1.1/DTD/svg11.dtd" >
<svg xmlns="http://www.w3.org/2000/svg" xmlns:xlink="http://www.w3.org/1999/xlink" version="1.1">
<metadata>
Created by FontForge 20170731 at Thu Jan 20 04:13:52 2022
 By Aleksey,,,
Copyright (c) 2022 Sunn.
</metadata>
<defs>
<font id="SUIT-ExtraLight" horiz-adv-x="874" >
  <font-face 
    font-family="SUIT ExtraLight"
    font-weight="200"
    font-stretch="normal"
    units-per-em="1000"
    panose-1="0 0 0 0 0 0 0 0 0 0"
    ascent="800"
    descent="-200"
    x-height="509"
    cap-height="722"
    bbox="-73 -260 1097 869"
    underline-thickness="50"
    underline-position="-175"
    unicode-range="U+0020-FFE6"
  />
<missing-glyph horiz-adv-x="1000" 
 />
    <glyph glyph-name=".notdef" horiz-adv-x="1000" 
 />
    <glyph glyph-name=".null" horiz-adv-x="0" 
 />
    <glyph glyph-name="nonmarkingreturn" horiz-adv-x="333" 
 />
    <glyph glyph-name="space" unicode=" " horiz-adv-x="230" 
 />
    <glyph glyph-name="space" unicode="&#xa0;" horiz-adv-x="230" 
 />
    <glyph glyph-name="exclam" unicode="!" horiz-adv-x="290" 
d="M169 128h-47l-10 594h66zM116 57h58v-57h-58v57z" />
    <glyph glyph-name="quotedbl" unicode="&#x22;" horiz-adv-x="311" 
d="M114 643h-34l-5 128h47zM236 774l-7 -129h-35l-5 129h47z" />
    <glyph glyph-name="numbersign" unicode="#" horiz-adv-x="749" 
d="M534 529h161v-48h-164l-13 -241h154v-49h-160l-11 -191h-50l13 191h-209l-12 -191h-49l12 191h-152v49h158l14 241h-148v48h151l11 193h49l-12 -193h209l10 193h51zM469 240l13 241h-207l-16 -241h210z" />
    <glyph glyph-name="dollar" unicode="$" horiz-adv-x="686" 
d="M495 633q-52 34 -118 41v-296q147 -42 196 -93q17 -19 28.5 -46.5t11.5 -59.5q0 -37 -16 -70q-30 -51 -96 -84q-25 -12 -53 -20t-51 -9l-20 -1v-75h-46v76q-77 6 -149 53q-46 29 -73 66.5t-37 65.5l46 16q8 -23 30 -53t60 -53q62 -39 123 -46v295l-32 9q-43 12 -92 42
q-39 27 -59 51q-17 19 -28.5 47t-11.5 60q0 38 17 73q29 51 79.5 74.5t101.5 27.5l25 1v82h46v-84q84 -9 146 -50q55 -37 85 -86l-42 -26q-25 41 -71 72zM157 547q0 -42 29 -73q12 -16 47 -41q42 -25 80 -36l18 -5v285l-21 -1q-103 -9 -141 -76q-12 -25 -12 -53zM393 44
q38 3 86 25q52 27 74 64q12 23 12 48q0 38 -28 70q-18 19 -53.5 37.5t-106.5 38.5v-284z" />
    <glyph glyph-name="percent" unicode="%" horiz-adv-x="1019" 
d="M713 722h53l-453 -721h-51zM123 645.5q25 45.5 69 72t96 26.5q53 0 96.5 -26.5t68.5 -71.5t25 -98q0 -52 -25 -97t-68.5 -71.5t-96.5 -26.5q-52 0 -96 26.5t-69 71.5t-25 97t25 97.5zM166.5 472.5q19.5 -34.5 51.5 -54.5t70 -20q39 0 71.5 20t52 54.5t19.5 75.5
t-19.5 75.5t-52 54.5t-71.5 20q-38 0 -70 -20t-51.5 -54.5t-19.5 -75.5t19.5 -75.5zM566 272q25 45 69 71.5t96 26.5q53 0 96.5 -26.5t68.5 -71.5t25 -98q0 -52 -25 -97t-68.5 -71.5t-96.5 -26.5q-52 0 -96 26.5t-69 71.5t-25 97q0 53 25 98zM609.5 98.5
q19.5 -34.5 51.5 -54.5t70 -20q39 0 71.5 20t52 54.5t19.5 75.5t-19.5 75.5t-52 54.5t-71.5 20q-38 0 -70 -20t-51.5 -54.5t-19.5 -75.5t19.5 -75.5z" />
    <glyph glyph-name="ampersand" unicode="&#x26;" horiz-adv-x="673" 
d="M577 0l-82 93q-91 -96 -209 -96q-90 0 -137 38.5t-61 82.5t-14 72q0 23 10.5 61t43 81.5t92.5 72.5l-14 14q-39 39 -59.5 70.5t-20.5 75.5q0 33 18.5 70t55.5 62.5t91 25.5q52 0 89 -25t56 -62t19 -71q0 -53 -38.5 -94t-116.5 -81l194 -221q23 32 41.5 65.5t43.5 82.5
l44 -22q-4 -8 -21.5 -42t-36.5 -65.5t-38 -56.5l116 -131h-66zM134.5 135q10.5 -32 46.5 -60t105 -28q100 0 176 83l-209 237l-3 -1q-74 -34 -100 -86.5t-26 -89.5q0 -23 10.5 -55zM191 513.5q15 -22.5 47 -54.5l30 -31q72 35 104.5 66.5t32.5 70.5q0 41 -29.5 74.5
t-84.5 33.5q-39 0 -65 -16.5t-38 -41.5t-12 -50q0 -29 15 -51.5z" />
    <glyph glyph-name="quotesingle" unicode="'" horiz-adv-x="192" 
d="M113 645h-35l-6 128h48z" />
    <glyph glyph-name="parenleft" unicode="(" horiz-adv-x="348" 
d="M232 -45h51q-66 90 -101 193t-35 213t35 213t101 193h-51q-128 -202 -128 -406t128 -406z" />
    <glyph glyph-name="parenright" unicode=")" horiz-adv-x="344" 
d="M117 767h-52q65 -89 99 -192t34 -214t-34 -214t-99 -192h52q123 197 123 406t-123 406z" />
    <glyph glyph-name="asterisk" unicode="*" horiz-adv-x="531" 
d="M291 402l156 50l16 -48l-157 -51l99 -136l-42 -32l-98 138l-96 -138l-41 32l97 136l-157 51l17 49l155 -51v169h51v-169z" />
    <glyph glyph-name="plus" unicode="+" horiz-adv-x="725" 
d="M385 388h267v-47h-267v-265h-45v265h-267v47h267v267h45v-267z" />
    <glyph glyph-name="comma" unicode="," horiz-adv-x="246" 
d="M80 -100h-36l25 155h56z" />
    <glyph glyph-name="hyphen" unicode="-" horiz-adv-x="602" 
d="M532 392v-48h-462v48h462z" />
    <glyph glyph-name="period" unicode="." horiz-adv-x="243" 
d="M122 57v-57h-59v57h59z" />
    <glyph glyph-name="slash" unicode="/" horiz-adv-x="370" 
d="M94 -48h-48l211 812h47z" />
    <glyph glyph-name="zero" unicode="0" horiz-adv-x="561" 
d="M456 220.5q7 50.5 7 141.5q0 90 -7 140t-31 89q-43 81 -144 81q-102 0 -144 -80q-24 -40 -31.5 -90.5t-7.5 -139.5t7.5 -139.5t31.5 -90.5q42 -81 144 -81t144 80q24 39 31 89.5zM57 503.5q7 54.5 34 101.5q23 47 69.5 80.5t120.5 33.5q73 0 119.5 -34t70.5 -80
q27 -47 33.5 -100.5t6.5 -142.5q0 -91 -6.5 -144.5t-33.5 -100.5q-23 -47 -69.5 -80.5t-120.5 -33.5q-73 0 -119.5 34t-70.5 80q-27 48 -34 102.5t-7 142.5q0 87 7 141.5z" />
    <glyph glyph-name="one" unicode="1" horiz-adv-x="276" 
d="M194 11h-47v644l-82 -47l-23 42l105 61h47v-700z" />
    <glyph glyph-name="two" unicode="2" horiz-adv-x="545" 
d="M180.5 654q39.5 21 85.5 21q35 0 69 -14q47 -20 73 -57.5t26 -79.5q0 -25 -11 -52q-6 -15 -23 -34l-350 -371v-46h445v46h-379l314 335q16 17 31 44q18 37 18 80q0 60 -36.5 108t-90.5 67q-43 17 -88 17q-61 0 -113 -29.5t-77 -81.5q-8 -16 -10 -26l49 -6q2 9 8 20
q20 38 59.5 59z" />
    <glyph glyph-name="three" unicode="3" horiz-adv-x="554" 
d="M469.5 308q34.5 -46 34.5 -98q0 -57 -31.5 -104t-83.5 -73.5t-112 -26.5t-112 26.5t-83.5 73.5t-31.5 104h48q0 -38 23 -73.5t64 -58.5t92 -23t92.5 22t65 56.5t23.5 69.5q0 62 -44.5 104.5t-134.5 42.5h-29v46h28q82 0 126 39t44 100q0 31 -21.5 63t-59.5 53t-85 21
t-84.5 -21t-58.5 -54.5t-21 -69.5h-48q0 53 29.5 97t78.5 69t104 25q56 0 105 -25t78 -68.5t29 -97.5q0 -47 -30 -87t-82 -66q53 -20 87.5 -66z" />
    <glyph glyph-name="four" unicode="4" horiz-adv-x="622" 
d="M454 244h117v-46h-117v-187h-48v187h-356v46l356 467h48v-467zM406 244v392l-297 -392h297z" />
    <glyph glyph-name="five" unicode="5" horiz-adv-x="545" 
d="M380.5 422.5q52.5 -28.5 83.5 -80t31 -116.5q0 -63 -29 -114.5t-79.5 -80.5t-112.5 -29q-59 0 -118 30.5t-92 79.5q-7 9 -14 22l43 23l14 -20q25 -38 72.5 -63t98.5 -25q48 0 87 24.5t61 65t22 86.5q0 53 -24 94t-63.5 63.5t-82.5 22.5q-30 0 -70 -10t-68 -38l-34 25
l10 329h336v-45h-290l-7 -239q22 11 52.5 17.5t58.5 6.5q62 0 114.5 -28.5z" />
    <glyph glyph-name="six" unicode="6" horiz-adv-x="548" 
d="M365.5 75.5q39.5 23.5 61.5 62.5t22 84t-22 84t-61.5 62.5t-91.5 23.5t-92 -23.5t-62 -62.5t-22 -84t22 -84t62 -62.5t92 -23.5t91.5 23.5zM72 316l248 400l42 -25l-168 -268q3 1 15.5 6t28.5 8q21 3 42 3q64 0 113.5 -29.5t76.5 -79t27 -109.5q0 -61 -29.5 -111.5
t-80.5 -79t-113 -28.5t-113.5 28.5t-81 79t-29.5 111.5q0 48 22 94z" />
    <glyph glyph-name="seven" unicode="7" horiz-adv-x="537" 
d="M487 656l-336 -649l-42 23l326 626h-385v45h437v-45z" />
    <glyph glyph-name="eight" unicode="8" horiz-adv-x="559" 
d="M372 71.5q41 21.5 64 56t23 73.5q0 38 -23 72.5t-64 56t-92 21.5t-92 -21.5t-64.5 -56t-23.5 -72.5q0 -39 23 -73.5t64.5 -56t92.5 -21.5t92 21.5zM85 305q35 44 90 72q-47 28 -76.5 66.5t-29.5 82.5q0 53 29.5 96.5t78 68.5t103.5 25t103.5 -25t78 -68.5t29.5 -96.5
q0 -44 -29.5 -82.5t-75.5 -66.5q53 -28 88 -72.5t35 -94.5q0 -59 -31.5 -106.5t-84.5 -74.5t-113 -27q-61 0 -114 27t-84.5 74.5t-31.5 106.5q0 51 35 95zM138 468.5q21 -30.5 58.5 -49.5t83.5 -19q47 0 84 19t58 49.5t21 64.5t-21 65.5t-58 51t-84 19.5q-46 0 -83.5 -19.5
t-58.5 -51t-21 -65.5t21 -64.5z" />
    <glyph glyph-name="nine" unicode="9" horiz-adv-x="547" 
d="M364 351.5q40 23.5 62 63t22 84.5q0 46 -22 85t-62 62.5t-91 23.5q-52 0 -92 -23.5t-62 -62.5t-22 -85q0 -45 22 -84.5t62 -63t92 -23.5q51 0 91 23.5zM79.5 610.5q29.5 50.5 81 79t113.5 28.5q61 0 112 -28.5t80.5 -79t29.5 -111.5q0 -54 -21 -93l-246 -398l-42 24
l166 267q-20 -9 -42 -12q-21 -4 -48 -4q-59 0 -107.5 26.5t-77 75.5t-28.5 114q0 61 29.5 111.5z" />
    <glyph glyph-name="colon" unicode=":" horiz-adv-x="263" 
d="M161 529v-56h-59v56h59zM102 226h59v-56h-59v56z" />
    <glyph glyph-name="semicolon" unicode=";" horiz-adv-x="256" 
d="M154 529v-56h-57v56h57zM98 227h56l-45 -155h-36z" />
    <glyph glyph-name="less" unicode="&#x3c;" horiz-adv-x="578" 
d="M476 720l32 -32l-335 -337l334 -337l-31 -30l-368 367z" />
    <glyph glyph-name="equal" unicode="=" horiz-adv-x="682" 
d="M572 509v-46h-462v46h462zM110 269h462v-47h-462v47z" />
    <glyph glyph-name="greater" unicode="&#x3e;" horiz-adv-x="578" 
d="M102 -16l-31 30l335 337l-336 337l32 32l368 -369z" />
    <glyph glyph-name="question" unicode="?" horiz-adv-x="514" 
d="M271 57v-57h-59v57h59zM85.5 665q24.5 27 65.5 46t93 19q58 0 107 -24.5t78.5 -72t29.5 -112.5q0 -44 -19 -82.5t-42.5 -64.5t-57.5 -58q-33 -31 -45.5 -47t-20.5 -48.5t-8 -92.5h-50q0 72 12 113t27 59.5t51 51.5q48 45 75.5 82.5t27.5 86.5q0 77 -45.5 118t-119.5 41
q-52 0 -82 -18.5t-47.5 -38t-22.5 -25.5l-36 34q5 6 29.5 33z" />
    <glyph glyph-name="at" unicode="@" horiz-adv-x="1018" 
d="M565.5 171.5q37.5 25.5 59.5 69t22 95.5q0 53 -22 95.5t-59.5 67t-80.5 24.5t-80 -24.5t-59.5 -67t-22.5 -95.5q0 -52 22.5 -95.5t59.5 -69t80 -25.5t80.5 25.5zM137 566.5q58 98.5 156.5 156.5t215.5 58t215.5 -58t156.5 -156.5t58 -215.5q0 -46 -18 -87.5t-40 -58.5
q-27 -21 -54 -28t-47 -7q-35 0 -67.5 22t-42.5 44q-24 -60 -69.5 -98t-104.5 -38q-61 0 -112 32t-80 86.5t-29 117.5q0 62 29.5 116t80 86t111.5 32q43 0 81 -21.5t68 -61.5v72h48v-271q0 -17 13 -34.5t34.5 -28.5t46.5 -11q14 0 32.5 6.5t31.5 18.5q42 45 42 112
q0 105 -52 193t-140 139.5t-192 51.5q-105 0 -193 -51.5t-139.5 -140t-51.5 -192.5t51.5 -192.5t139.5 -140t193 -51.5q103 0 196 54l23 -40q-99 -59 -219 -59q-117 0 -215.5 57.5t-156.5 156t-58 215.5t58 215.5z" />
    <glyph glyph-name="A" unicode="A" horiz-adv-x="780" 
d="M714 0h-53l-91 219h-360l-90 -219h-54l300 722h48zM552 265l-161 391l-164 -391h325z" />
    <glyph glyph-name="B" unicode="B" horiz-adv-x="614" 
d="M83 0h288q54 0 100 27t72.5 72.5t26.5 100.5q0 54 -30 101t-74 76q87 72 87 149q0 54 -26.5 99t-72 71t-99.5 26h-272v-722zM130 351h244q40 0 74 -21t54 -57t20 -80q0 -41 -20 -74.5t-54 -53t-74 -19.5h-244v305zM130 676h228q40 0 74 -18.5t54 -51.5t20 -73
q0 -56 -40.5 -95t-98.5 -41h-237v279z" />
    <glyph glyph-name="C" unicode="C" horiz-adv-x="728" 
d="M251 42q-82 50 -129.5 134.5t-47.5 184.5t47.5 184.5t129.5 134.5t179 50q72 0 137.5 -28.5t114.5 -79.5l-38 -32q-43 44 -98 67.5t-118 23.5q-84 0 -154 -43t-110.5 -116.5t-40.5 -160.5q0 -88 40.5 -161.5t110.5 -116.5t154 -43q63 0 118 23.5t98 67.5l38 -31
q-49 -51 -114.5 -79.5t-137.5 -28.5q-97 0 -179 50z" />
    <glyph glyph-name="D" unicode="D" horiz-adv-x="702" 
d="M424 89q71 42 112.5 114t41.5 157q0 86 -41.5 158t-112.5 114t-155 42h-136v-627h136q84 0 155 42zM84 722h183q97 0 180 -48.5t131.5 -132t48.5 -181.5t-48.5 -180.5t-131.5 -131t-180 -48.5h-183v722z" />
    <glyph glyph-name="E" unicode="E" horiz-adv-x="577" 
d="M524 676h-403v-281h373v-48h-373v-300h403v-47h-452v722h452v-46z" />
    <glyph glyph-name="F" unicode="F" horiz-adv-x="567" 
d="M524 676h-394v-291h351v-48h-351v-337h-48v722h442v-46z" />
    <glyph glyph-name="G" unicode="G" horiz-adv-x="854" 
d="M772 345q0 -19 -3 -39q-10 -91 -59 -161.5t-123.5 -110t-158.5 -42.5q-95 0 -175.5 49.5t-128 134t-47.5 185.5t47.5 185.5t128 133.5t175.5 49q96 0 173.5 -50.5t124.5 -123.5l-42 -24q-40 62 -106.5 105.5t-148.5 43.5q-84 0 -153.5 -42.5t-109.5 -115.5t-40 -161
t40 -161.5t109.5 -116t153.5 -42.5q82 4 147 41t104 99.5t45 141.5h-278v45h323q2 -14 2 -23z" />
    <glyph glyph-name="H" unicode="H" horiz-adv-x="691" 
d="M607 0h-49v346h-426v-346h-48v722h48v-327h426v327h49v-722z" />
    <glyph glyph-name="I" unicode="I" horiz-adv-x="215" 
d="M131 722v-722h-47v722h47z" />
    <glyph glyph-name="J" unicode="J" horiz-adv-x="582" 
d="M470 101q-31 -50 -84 -79t-115 -29q-68 0 -125 36t-84 94l41 20q21 -45 66 -73.5t102 -28.5q50 0 92 23.5t66 62t24 83.5v512h48v-511q0 -60 -31 -110z" />
    <glyph glyph-name="K" unicode="K" horiz-adv-x="654" 
d="M293 401l297 -401h-59l-270 363l-129 -144v-219h-49v722h49v-437l391 437h58z" />
    <glyph glyph-name="L" unicode="L" horiz-adv-x="581" 
d="M131 46h387v-46h-436v722h49v-676z" />
    <glyph glyph-name="M" unicode="M" horiz-adv-x="784" 
d="M698 0h-48v618l-242 -459h-33l-245 459v-618h-47v722h47l262 -494l258 494h48v-722z" />
    <glyph glyph-name="N" unicode="N" horiz-adv-x="719" 
d="M638 0h-47l-462 636v-636h-48v722h48l462 -636v636h47v-722z" />
    <glyph glyph-name="O" unicode="O" horiz-adv-x="856" 
d="M579 84.5q69 42.5 109.5 115.5t40.5 161q0 87 -40.5 160t-109.5 115.5t-151 42.5q-83 0 -152 -42.5t-109 -115.5t-40 -160q0 -88 40 -161t109 -115.5t152 -42.5q82 0 151 42.5zM123.5 545.5q46.5 84.5 127 134.5t177.5 50t177.5 -50t127 -134.5t46.5 -184.5t-46.5 -185
t-127 -134.5t-177.5 -49.5t-177.5 49.5t-127 134.5t-46.5 185t46.5 184.5z" />
    <glyph glyph-name="P" unicode="P" horiz-adv-x="621" 
d="M423.5 369q38.5 23 61.5 61t23 82t-23 82t-61.5 60t-83.5 22h-208v-330h208q45 0 83.5 23zM83 722h263q57 0 105 -28t76 -76.5t28 -105.5q0 -58 -28 -106.5t-76 -77t-105 -28.5h-214v-300h-49v722z" />
    <glyph glyph-name="Q" unicode="Q" horiz-adv-x="869" 
d="M713 253q18 57 17 107q0 87 -40.5 160.5t-109.5 116t-152 42.5q-82 0 -151 -43t-109.5 -116t-40.5 -160t40.5 -160t109.5 -115.5t151 -42.5q54 -1 108.5 20t98.5 59l-98 100l33 34l96 -98q29 39 47 96zM123.5 545q46.5 85 127 134.5t177.5 49.5t177.5 -49.5t127 -134.5
t46.5 -185q2 -62 -19.5 -126.5t-58.5 -112.5l91 -92l-33 -36l-89 93q-48 -43 -112.5 -68.5t-129.5 -25.5q-97 0 -177.5 49.5t-127 134t-46.5 184.5t46.5 185z" />
    <glyph glyph-name="R" unicode="R" horiz-adv-x="655" 
d="M428 364q39 23 61.5 62t22.5 84t-22.5 83t-61.5 60.5t-85 22.5h-211v-335h211q46 0 85 23zM84 722h249q61 0 113 -29.5t82 -79t30 -105.5q2 -47 -21.5 -94t-66.5 -79t-96 -38l217 -297h-57l-219 295h-183v-295h-48v722z" />
    <glyph glyph-name="S" unicode="S" horiz-adv-x="619" 
d="M452 628q-61 50 -155 48q-42 -3 -76 -17t-55 -51q-16 -32 -16 -62q0 -20 7 -35.5t20 -31.5q22 -24 47 -42q32 -26 71 -42l46 -19q80 -30 121 -54t60 -48q13 -19 23 -45.5t10 -56.5q0 -37 -18 -72q-17 -30 -37.5 -47.5t-49.5 -32.5q-20 -11 -46.5 -18.5t-48.5 -8.5
q-52 -2 -97.5 13t-89.5 50q-39 30 -60.5 67.5t-29.5 65.5l46 14q8 -24 25.5 -54t48.5 -55q39 -30 75 -41.5t80 -9.5q29 -1 75 21q25 13 39.5 25t27.5 35q12 23 12 49q0 21 -7.5 39.5t-17.5 31.5q-13 19 -47.5 38.5t-111.5 47.5l-48 19q-43 20 -81 48q-31 23 -55 50
q-38 49 -38 101q0 39 21 82q52 95 191 95q42 0 87 -13.5t84 -45.5q42 -35 71 -88l-44 -24q-23 44 -59 74z" />
    <glyph glyph-name="T" unicode="T" horiz-adv-x="622" 
d="M559 676h-226v-676h-47v676h-223v46h496v-46z" />
    <glyph glyph-name="U" unicode="U" horiz-adv-x="716" 
d="M598.5 134q-36.5 -65 -99.5 -103t-139 -38q-79 0 -141.5 37.5t-98 103t-35.5 144.5v444h48v-444q0 -68 29.5 -122t81.5 -84.5t116 -30.5q62 0 114.5 30.5t83 85t30.5 121.5v444h47v-444q0 -79 -36.5 -144z" />
    <glyph glyph-name="V" unicode="V" horiz-adv-x="777" 
d="M419 0h-49l-304 722h50l279 -650l269 650h47z" />
    <glyph glyph-name="W" unicode="W" horiz-adv-x="1071" 
d="M779 0h-50l-199 640l-186 -640h-50l-221 722h49l198 -639l184 639h50l202 -639l194 639h48z" />
    <glyph glyph-name="X" unicode="X" horiz-adv-x="739" 
d="M396 362l277 -362h-61l-243 319l-243 -319h-60l277 362l-277 360h60l243 -318l244 319l60 -1z" />
    <glyph glyph-name="Y" unicode="Y" horiz-adv-x="755" 
d="M402 282v-282h-48v282l-288 440h56l256 -390l255 390h56z" />
    <glyph glyph-name="Z" unicode="Z" horiz-adv-x="664" 
d="M620 672l-513 -625h513v-47h-576v49l520 626h-520v47h576v-50z" />
    <glyph glyph-name="bracketleft" unicode="[" horiz-adv-x="336" 
d="M271 725h-121v-730h121v-44h-168v817h168v-43z" />
    <glyph glyph-name="backslash" unicode="\" horiz-adv-x="370" 
d="M113 764l211 -812h-48l-210 812h47z" />
    <glyph glyph-name="bracketright" unicode="]" horiz-adv-x="336" 
d="M233 768v-817h-168v44h121v730h-121v43h168z" />
    <glyph glyph-name="asciicircum" unicode="^" horiz-adv-x="512" 
d="M432 382l11 -26h-50l-136 309l-138 -309h-50l161 366h52z" />
    <glyph glyph-name="underscore" unicode="_" horiz-adv-x="572" 
d="M518 -63v-45h-464v45h464z" />
    <glyph glyph-name="grave" unicode="`" horiz-adv-x="228" 
d="M139 773l26 -128h-34l-49 128h57z" />
    <glyph glyph-name="a" unicode="a" horiz-adv-x="596" 
d="M380.5 72q42.5 26 68.5 73t26 106t-26 105.5t-68.5 72.5t-91.5 26t-92 -27t-68.5 -74t-25.5 -103q0 -57 25.5 -104t68.5 -74t92 -27t91.5 26zM83.5 378q30.5 59 84.5 93.5t119 34.5q61 0 111 -34t77 -92v129h48v-509h-48v121q-24 -53 -75 -90t-113 -37q-65 0 -119 35
t-84.5 94.5t-30.5 127.5t30.5 127z" />
    <glyph glyph-name="b" unicode="b" horiz-adv-x="609" 
d="M412 69.5q44 27.5 69 76t25 107.5t-26.5 107t-70 76t-94.5 28q-52 0 -96 -28t-70.5 -76t-26.5 -107t25.5 -107.5t69.5 -76t98 -27.5q53 0 97 27.5zM73 741h48v-356q30 63 84.5 95t112.5 32q68 0 122.5 -35t85 -94.5t30.5 -129.5q0 -71 -30 -130.5t-85.5 -94.5t-126.5 -35
q-56 0 -112 36t-81 93v-122h-48v741z" />
    <glyph glyph-name="c" unicode="c" horiz-adv-x="491" 
d="M370.5 58.5q37.5 16.5 66.5 45.5l36 -37q-37 -36 -84 -56.5t-99 -20.5q-71 0 -130 36t-93.5 97t-34.5 133t34.5 133.5t93.5 97.5t130 36q52 0 99 -20.5t84 -57.5l-36 -34q-29 30 -66.5 46.5t-79.5 16.5q-56 0 -104 -29t-76.5 -78.5t-28.5 -108.5t28.5 -108.5t76.5 -78.5
t104 -29q42 0 79.5 16.5z" />
    <glyph glyph-name="d" unicode="d" horiz-adv-x="611" 
d="M393 70q44 28 70.5 76t26.5 107q0 58 -26.5 107t-70.5 77t-95 28t-95 -28t-70.5 -77t-26.5 -107q0 -59 26.5 -107t70.5 -76t95 -28t95 28zM84.5 383q31.5 60 87 95.5t122.5 35.5t120.5 -38t75.5 -98v363h48v-741h-48v128q-23 -62 -75.5 -99t-120.5 -37q-67 0 -122.5 35.5
t-87 95.5t-31.5 130t31.5 130z" />
    <glyph glyph-name="e" unicode="e" horiz-adv-x="562" 
d="M430 377q-23 39 -60 62t-82 23q-46 0 -86 -22.5t-66.5 -62t-32.5 -86.5h356q-6 47 -29 86zM84 382.5q31 58.5 84.5 93.5t119.5 35q62 0 106.5 -30t67 -63t25.5 -44q22 -42 22 -106l-1 -24h-406q4 -56 29.5 -100.5t67 -70t90.5 -25.5q54 0 95 25t64 61l40 -22
q-29 -47 -80.5 -80t-119.5 -33q-66 0 -119.5 35t-84.5 93.5t-31 127.5t31 127.5z" />
    <glyph glyph-name="f" unicode="f" horiz-adv-x="411" 
d="M143 0v463h-104v46h104v109q0 37 18.5 68.5t50.5 50.5t69 19q52 0 91 -36l-32 -36q-26 23 -59 23q-40 0 -64.5 -25t-24.5 -64v-109h158v-46h-158v-463h-49z" />
    <glyph glyph-name="g" unicode="g" horiz-adv-x="596" 
d="M382 71q43 27 68.5 74.5t25.5 105.5q0 57 -25.5 104t-68.5 74.5t-93 27.5q-49 0 -92 -27.5t-68.5 -74.5t-25.5 -104q0 -58 25.5 -105.5t68.5 -74.5t92 -27q50 0 93 27zM83.5 377.5q30.5 58.5 84.5 93.5t119 35q67 0 117 -38t71 -90v131h48v-483q-1 -74 -29.5 -137
t-84 -101t-132.5 -38q-118 0 -199 122l42 25q29 -45 66 -72t91 -27q92 0 144.5 65t53.5 170v97q-18 -56 -69.5 -95.5t-118.5 -39.5q-66 0 -119.5 34.5t-84 93.5t-30.5 128q0 68 30.5 126.5z" />
    <glyph glyph-name="h" unicode="h" horiz-adv-x="551" 
d="M385 413.5q-38 37.5 -101 37.5q-44 0 -80 -23t-56.5 -64.5t-20.5 -96.5v-267h-49v741h49v-347q17 48 56.5 79t104.5 31q82 0 133.5 -55.5t51.5 -157.5v-291h-50v294q0 82 -38 119.5z" />
    <glyph glyph-name="i" unicode="i" horiz-adv-x="191" 
d="M127 722v-56h-57v56h57zM73 509h50v-509h-50v509z" />
    <glyph glyph-name="j" unicode="j" horiz-adv-x="201" 
d="M10 -203q34 0 55.5 21t21.5 55v636h49v-636q0 -33 -17 -62t-46 -46t-63 -17q-24 0 -45.5 9t-37.5 24l34 36q22 -20 49 -20zM82 722h57v-56h-57v56z" />
    <glyph glyph-name="k" unicode="k" horiz-adv-x="502" 
d="M125 204l258 305h59l-189 -223l207 -286h-60l-177 248l-98 -116v-132h-48v741h48v-537z" />
    <glyph glyph-name="l" unicode="l" horiz-adv-x="176" 
d="M112 741v-741h-48v741h48z" />
    <glyph glyph-name="m" unicode="m" horiz-adv-x="847" 
d="M693.5 419q-34.5 37 -94.5 37q-34 0 -68.5 -17.5t-56.5 -47.5t-22 -66v-325h-49v325q0 57 -35 93.5t-95 36.5q-67 0 -106.5 -36t-39.5 -88v-331h-48v509h48v-83q19 35 53.5 58.5t96.5 23.5q60 0 95 -26.5t61 -75.5q29 45 74 73.5t95 28.5q56 0 95.5 -24t59.5 -63t20 -83
v-338h-49v325q0 57 -34.5 94z" />
    <glyph glyph-name="n" unicode="n" horiz-adv-x="534" 
d="M382.5 414.5q-38.5 40.5 -102.5 40.5q-46 0 -83 -21.5t-57 -53.5t-20 -63v-317h-48v509h48v-98q17 38 56.5 67.5t106.5 29.5q57 0 100 -26t66 -68t23 -88v-326h-51v311q0 63 -38.5 103.5z" />
    <glyph glyph-name="o" unicode="o" horiz-adv-x="589" 
d="M388.5 72.5q43.5 27.5 70 75.5t26.5 106t-26.5 106t-70 75.5t-94.5 27.5t-95 -27.5t-70 -75.5t-26 -106t26 -106t70 -75.5t95 -27.5t94.5 27.5zM85 382q32 59 87.5 94t121.5 35q67 0 122.5 -35t87.5 -94t32 -128q0 -68 -32 -127.5t-88 -94.5t-122 -35t-121.5 35
t-87.5 94.5t-32 127.5q0 69 32 128z" />
    <glyph glyph-name="p" unicode="p" horiz-adv-x="603" 
d="M404 70.5q42 27.5 67.5 75t25.5 105.5q0 57 -25.5 104t-67.5 74t-91 27t-92 -27t-69 -74t-26 -104q0 -58 26 -105.5t69 -75t92 -27.5t91 27.5zM78 509h48v-130q24 57 75 92.5t114 35.5q66 0 119.5 -35t84.5 -94t31 -127q0 -69 -30.5 -128.5t-84.5 -94.5t-120 -35
q-68 0 -116.5 38.5t-72.5 90.5v-382h-48v769z" />
    <glyph glyph-name="q" unicode="q" horiz-adv-x="598" 
d="M382 70.5q43 27.5 69 75t26 105.5q0 57 -26 104t-69 74t-92 27t-91 -27t-67.5 -74t-25.5 -104q0 -58 25.5 -105.5t67.5 -75t91 -27.5t92 27.5zM84 378q31 59 84.5 94t119.5 35q63 0 114 -35.5t75 -92.5v130h48v-769h-48v382q-24 -52 -72.5 -90.5t-116.5 -38.5
q-66 0 -120 35t-84.5 94.5t-30.5 128.5q0 68 31 127z" />
    <glyph glyph-name="r" unicode="r" horiz-adv-x="332" 
d="M187.5 484.5q47.5 31.5 106.5 31.5v-50q-46 0 -87.5 -26t-67 -72t-25.5 -101v-267h-47v516h47v-122q26 59 73.5 90.5z" />
    <glyph glyph-name="s" unicode="s" horiz-adv-x="484" 
d="M340 436q-43 29 -106 29q-30 0 -59 -10t-46 -38q-9 -19 -9 -33q0 -23 19 -42t31 -27q27 -17 52 -24l37 -11q110 -30 145 -69q11 -13 20 -33t9 -42q0 -28 -13 -51q-10 -21 -27.5 -35t-41.5 -27q-29 -14 -72 -20q-9 -1 -26 -1q-65 0 -126 38q-32 20 -48.5 43.5t-29.5 48.5
l46 20q16 -45 58 -70q31 -20 58 -26.5t62 -4.5q37 6 56 16q19 9 30 18t17 22q8 15 8 30q0 22 -16 42q-12 13 -39.5 26t-83.5 27l-37 11q-26 8 -64 30q-15 11 -26.5 21.5t-14.5 13.5q-13 14 -22 33.5t-9 42.5q0 28 15 57q21 36 56.5 52.5t70.5 19.5q7 1 23 1q75 0 131 -38
q41 -28 59 -61l-42 -24q-15 25 -45 45z" />
    <glyph glyph-name="t" unicode="t" horiz-adv-x="387" 
d="M291.5 9.5q-21.5 -8.5 -45.5 -8.5q-34 0 -62.5 17t-45.5 45.5t-17 61.5v340h-82v45h82v160h49v-160h136v-45h-136v-340q0 -34 21 -54.5t55 -20.5q29 0 49 19l34 -36q-16 -15 -37.5 -23.5z" />
    <glyph glyph-name="u" unicode="u" horiz-adv-x="531" 
d="M158.5 92q38.5 -40 102.5 -40q48 0 84.5 21.5t56 54t19.5 63.5v319h48v-510h-48v97q-18 -39 -56.5 -67.5t-106.5 -28.5q-56 0 -98.5 26t-65 68t-22.5 88v326h48v-311q0 -66 38.5 -106z" />
    <glyph glyph-name="v" unicode="v" horiz-adv-x="554" 
d="M303 0h-47l-213 509h52l185 -447l179 447h52z" />
    <glyph glyph-name="w" unicode="w" horiz-adv-x="750" 
d="M553 0h-46l-130 432l-129 -432h-47l-153 509h51l126 -428l126 428h51l129 -430l123 430h51z" />
    <glyph glyph-name="x" unicode="x" horiz-adv-x="511" 
d="M283 251l185 -251h-59l-153 208l-153 -208h-60l187 251l-187 258h59l154 -216l153 216h59z" />
    <glyph glyph-name="y" unicode="y" horiz-adv-x="522" 
d="M196 -260h-51l97 261l-199 508h51l173 -447l161 447h51z" />
    <glyph glyph-name="z" unicode="z" horiz-adv-x="492" 
d="M441 461l-329 -413h329v-48h-390v48l332 413h-332v48h390v-48z" />
    <glyph glyph-name="braceleft" unicode="{" horiz-adv-x="387" 
d="M166.5 422.5q22.5 39.5 22.5 72.5v164q0 61 30 83.5t65 22.5h38v-42h-38q-25 0 -39 -12.5t-14 -51.5v-164q0 -27 -13.5 -67.5t-59.5 -65.5q46 -26 59.5 -66.5t13.5 -66.5v-165q0 -39 14 -51.5t39 -12.5h38v-42h-38q-35 0 -65 22.5t-30 83.5v165q0 33 -22.5 72.5
t-101.5 39.5v42q79 0 101.5 39.5z" />
    <glyph glyph-name="bar" unicode="|" horiz-adv-x="277" 
d="M155 722v-722h-34v722h34z" />
    <glyph glyph-name="braceright" unicode="}" horiz-adv-x="387" 
d="M220.5 301.5q-22.5 -39.5 -22.5 -72.5v-165q0 -60 -30 -83t-65 -23h-38v42h38q24 0 38.5 12.5t14.5 51.5v165q0 26 13.5 66.5t59.5 66.5q-46 25 -59.5 65.5t-13.5 67.5v164q0 39 -14.5 51.5t-38.5 12.5h-38v42h38q35 0 65 -23t30 -83v-164q0 -33 22.5 -72.5t101.5 -39.5
v-42q-79 0 -101.5 -39.5z" />
    <glyph glyph-name="asciitilde" unicode="~" horiz-adv-x="691" 
d="M146.5 438q41.5 23 79.5 23q32 0 52 -7.5t30 -14t13 -8.5l35 -23l14 -9l37 -22q3 -2 12.5 -8t22 -10.5t28.5 -5.5q29 0 53 12.5t39 52.5l46 -18q-21 -55 -57.5 -75t-73.5 -20q-51 0 -72.5 14.5t-23.5 15.5l-37 22l-14 9l-35 23q-3 2 -13 8t-23 10.5t-29 5.5
q-28 0 -56.5 -15.5t-45.5 -56.5l-46 18q23 56 64.5 79z" />
    <glyph glyph-name="yen" unicode="&#xa5;" horiz-adv-x="775" 
d="M435 388h181v-49h-207v-115h203v-47h-203v-177h-48v177h-209v47h209v115h-205v49h180l-263 334h57l255 -318l261 318h56z" />
    <glyph glyph-name="copyright" unicode="&#xa9;" horiz-adv-x="1084" 
d="M158 573q60 102 162 162t222 60t222 -60t162 -162t60 -222t-60 -222t-162 -161.5t-222 -59.5t-222 59.5t-162 161.5t-60 222t60 222zM199.5 153q53.5 -91 144 -144.5t198.5 -53.5t198.5 53.5t144 144.5t53.5 198q0 108 -53 199t-144 144t-199 53t-199 -53t-144 -144
t-53 -199q0 -107 53.5 -198zM324 491q36 63 97.5 100t134.5 37q53 0 102 -21t86 -57l-37 -35q-30 31 -69.5 48t-82.5 17q-58 0 -108 -30.5t-79.5 -82.5t-29.5 -113q0 -62 29.5 -113.5t79.5 -81.5t108 -30q43 0 82.5 16.5t69.5 47.5l37 -35q-37 -37 -85.5 -58t-102.5 -21
q-73 0 -134.5 37.5t-97.5 100.5t-36 137t36 137z" />
    <glyph glyph-name="uni00AD" unicode="&#xad;" horiz-adv-x="602" 
d="M532 392v-48h-462v48h462z" />
    <glyph glyph-name="registered" unicode="&#xae;" horiz-adv-x="529" 
d="M318 528h47l-54 74q20 8 31.5 26t11.5 40q0 32 -21.5 53.5t-53.5 21.5h-103v-215h38v66h56zM79 741.5q29 49.5 78.5 78.5t107.5 29t107 -29t78 -78.5t29 -107.5t-29 -107t-78 -78t-107 -29t-107.5 29t-78.5 78t-29 107t29 107.5zM107.5 542.5q24.5 -41.5 66 -65.5
t91.5 -24q49 0 90.5 24t66 65.5t24.5 91.5t-24.5 91.5t-66 66t-90.5 24.5q-50 0 -91.5 -24.5t-66 -66t-24.5 -91.5t24.5 -91.5zM214 706h67q17 0 27.5 -10.5t10.5 -27.5q0 -15 -10.5 -26t-27.5 -11h-67v75z" />
    <glyph glyph-name="degree" unicode="&#xb0;" horiz-adv-x="449" 
d="M279 792.5q30 -17.5 47.5 -47.5t17.5 -65t-17.5 -64.5t-47.5 -46.5t-65 -17q-53 0 -90.5 37.5t-37.5 90.5q0 35 17 65t46.5 47.5t64.5 17.5t65 -17.5zM151 616.5q27 -26.5 64 -26.5q38 0 64 26.5t26 63.5t-26 63.5t-64 26.5q-37 0 -64 -26.5t-27 -63.5t27 -63.5z" />
    <glyph glyph-name="plusminus" unicode="&#xb1;" horiz-adv-x="654" 
d="M349 472h215v-47h-215v-214h-46v214h-213v47h213v212h46v-212zM90 96h474v-47h-474v47z" />
    <glyph glyph-name="uni00B2" unicode="&#xb2;" horiz-adv-x="371" 
d="M136 817q23 12 49 12q19 0 37 -8q26 -11 40 -31.5t14 -44.5q0 -15 -8 -33q-2 -8 -12 -20l-210 -208v-39h279v42h-215l179 180q12 13 19 28q12 24 12 50q0 36 -22 67t-60 46q-30 11 -57 11q-40 0 -73.5 -19t-50.5 -54q-5 -12 -6 -17l45 -7q3 8 5 12q12 21 35 33z" />
    <glyph glyph-name="uni00B3" unicode="&#xb3;" horiz-adv-x="369" 
d="M302.5 613.5q20.5 -27.5 20.5 -58.5q0 -36 -19 -64.5t-50.5 -45t-68.5 -16.5t-69 16.5t-51 45t-19 64.5h42q0 -33 27 -58.5t70 -25.5t70 24.5t27 55.5q0 35 -23.5 59t-71.5 24h-17v42h17q44 0 67 22.5t23 56.5q0 28 -25 51.5t-64 23.5t-64 -23t-25 -56h-41q0 33 18 60
t48 42.5t64 15.5q53 0 91 -34t38 -84q0 -29 -18 -54t-49 -41q32 -15 52.5 -42.5z" />
    <glyph glyph-name="paragraph" unicode="&#xb6;" horiz-adv-x="1000" 
d="M511 -39h44v746h75v-746h43v786h-162q-62 0 -115 -31t-84 -84t-31 -115t31 -115.5t84 -84.5t115 -31v-325z" />
    <glyph glyph-name="periodcentered" unicode="&#xb7;" horiz-adv-x="463" 
d="M276 411v-87h-89v87h89z" />
    <glyph glyph-name="uni00B9" unicode="&#xb9;" horiz-adv-x="198" 
d="M152 430h-42v387l-50 -19l-14 40l64 26h42v-434z" />
    <glyph glyph-name="multiply" unicode="&#xd7;" horiz-adv-x="722" 
d="M586 110l-225 225l-224 -224l-34 34l224 225l-224 224l33 35l226 -225l225 225l32 -35l-224 -224l225 -225z" />
    <glyph glyph-name="divide" unicode="&#xf7;" horiz-adv-x="725" 
d="M394 611v-64h-63v64h63zM73 388h579v-47h-579v47zM331 184h63v-63h-63v63z" />
    <glyph glyph-name="uni2015" unicode="&#x2015;" horiz-adv-x="1000" 
d="M921 392v-48h-842v48h842z" />
    <glyph glyph-name="quoteleft" unicode="&#x2018;" horiz-adv-x="228" 
d="M131 773h34l-25 -128h-58z" />
    <glyph glyph-name="quoteright" unicode="&#x2019;" horiz-adv-x="227" 
d="M97 645h-34l26 128h56z" />
    <glyph glyph-name="quotedblleft" unicode="&#x201c;" horiz-adv-x="366" 
d="M264 774h36l-27 -128h-56zM135 773h33l-24 -128h-59z" />
    <glyph glyph-name="quotedblright" unicode="&#x201d;" horiz-adv-x="366" 
d="M102 644h-36l26 128h57zM222 774h59l-48 -128h-35z" />
    <glyph glyph-name="twodotenleader" unicode="&#x2025;" horiz-adv-x="614" 
d="M168 396v-57h-59v57h59zM446 397h59v-59h-59v59z" />
    <glyph glyph-name="ellipsis" unicode="&#x2026;" horiz-adv-x="780" 
d="M172 397v-59h-60v59h60zM360 396h59v-57h-59v57zM607 397h61v-59h-61v59z" />
    <glyph glyph-name="minute" unicode="&#x2032;" horiz-adv-x="227" 
d="M97 645h-34l26 128h56z" />
    <glyph glyph-name="second" unicode="&#x2033;" horiz-adv-x="366" 
d="M102 644h-36l26 128h57zM222 774h59l-48 -128h-35z" />
    <glyph glyph-name="uni203B" unicode="&#x203b;" horiz-adv-x="906" 
d="M757 334h-65v64h65v-64zM419 363l-282 282l33 33l282 -282l284 283l34 -34l-284 -283l282 -282l-32 -33l-282 282l-284 -283l-34 34zM155 398h66v-65h-66v65zM422 121h66v-66h-66v66zM422 678h66v-66h-66v66z" />
    <glyph glyph-name="uni2074" unicode="&#x2074;" horiz-adv-x="418" 
d="M308 581h64v-43h-64v-110h-44v110h-218v43l220 282h42v-282zM264 581v214l-166 -214h166z" />
    <glyph glyph-name="uni2081" unicode="&#x2081;" horiz-adv-x="200" 
d="M154 -151h-43v387l-51 -20l-14 40l65 26h43v-433z" />
    <glyph glyph-name="uni2082" unicode="&#x2082;" horiz-adv-x="371" 
d="M136 231q23 12 49 12q19 0 37 -8q26 -11 40 -31.5t14 -44.5q0 -15 -8 -33q-2 -8 -12 -20l-210 -208v-39h279v42h-215l179 180q12 13 19 28q12 24 12 50q0 36 -22 67t-60 46q-30 11 -57 11q-40 0 -73.5 -19t-50.5 -54q-5 -12 -6 -17l45 -7q3 8 5 12q12 21 35 33z" />
    <glyph glyph-name="uni2083" unicode="&#x2083;" horiz-adv-x="369" 
d="M302.5 36.5q20.5 -27.5 20.5 -58.5q0 -36 -19 -64.5t-50.5 -45t-68.5 -16.5t-69 16.5t-51 45t-19 64.5h42q0 -33 27 -58.5t70 -25.5t70 24.5t27 55.5q0 35 -23.5 59t-71.5 24h-17v42h17q44 0 67 22.5t23 56.5q0 28 -25 51.5t-64 23.5t-64 -23t-25 -56h-41q0 33 18 60
t48 42.5t64 15.5q53 0 91 -34t38 -84q0 -29 -18 -54t-49 -41q32 -15 52.5 -42.5z" />
    <glyph glyph-name="uni2084" unicode="&#x2084;" horiz-adv-x="418" 
d="M308 0h64v-43h-64v-110h-44v110h-218v43l220 282h42v-282zM264 0v212l-166 -212h166z" />
    <glyph glyph-name="uni20A9" unicode="&#x20a9;" horiz-adv-x="1088" 
d="M875 391h137v-48h-150l-97 -343h-45l-94 343h-162l-95 -343h-45l-97 343h-151v48h137l-94 331h50l93 -331h168l91 330h47l91 -330h168l93 331h49zM347 91l70 252h-141zM613 391l-68 246l-68 -246h136zM742 91l71 252h-141z" />
    <glyph glyph-name="Euro" unicode="&#x20ac;" horiz-adv-x="806" 
d="M355.5 17q-66.5 30 -115.5 84t-75 123h-108v49h93q-9 41 -9 83q0 47 10 87h-94v48h109q26 68 75.5 121t115.5 83t140 30q73 0 138 -28.5t114 -79.5l-37 -33q-90 93 -212 93q-92 0 -168 -51t-114 -135h174v-48h-191q-12 -42 -12 -87q0 -40 10 -83h193v-49h-176
q37 -85 114 -137.5t170 -52.5q121 0 212 94l37 -33q-49 -51 -114 -79.5t-138 -28.5q-75 0 -141.5 30z" />
    <glyph glyph-name="uni2103" unicode="&#x2103;" horiz-adv-x="1068" 
d="M292 797.5q30 -17.5 47 -47t17 -64.5q0 -54 -37.5 -91.5t-91.5 -37.5t-91.5 37.5t-37.5 91.5q0 35 17 64.5t47 47t65 17.5t65 -17.5zM164.5 622q26.5 -26 63.5 -26t63 26t26 63q0 38 -26 64.5t-63 26.5t-63.5 -26.5t-26.5 -64.5q0 -37 26.5 -63zM428 545q44 84 120 134
t167 50q68 0 128.5 -28.5t106.5 -79.5l-36 -30q-42 44 -89 67t-104 23q-77 0 -144 -42.5t-106.5 -115.5t-39.5 -161t39.5 -160.5t106.5 -115t144 -42.5q57 0 104 23t89 67l36 -31q-46 -51 -106.5 -79.5t-128.5 -28.5q-91 0 -167 50t-120 134t-44 183t44 183z" />
    <glyph glyph-name="uni2109" unicode="&#x2109;" horiz-adv-x="1070" 
d="M291 796.5q30 -17.5 47 -47.5t17 -65q0 -53 -37.5 -90.5t-91.5 -37.5q-53 0 -90.5 37.5t-37.5 90.5q0 35 17 65t46.5 47.5t64.5 17.5t65 -17.5zM163.5 620.5q25.5 -25.5 62.5 -25.5q38 0 64.5 26t26.5 63q0 38 -26.5 64.5t-64.5 26.5q-37 0 -62.5 -26.5t-25.5 -64.5
t25.5 -63.5zM470 721h483v-46h-435v-292h390v-47h-390v-336h-48v721z" />
    <glyph glyph-name="trademark" unicode="&#x2122;" horiz-adv-x="959" 
d="M403 818h-141v-396h-43v396h-142v41h326v-41zM462 852h43l168 -286l168 286h43v-430h-43v332l-147 -242h-43l-146 242v-332h-43v430z" />
    <glyph glyph-name="arrowleft" unicode="&#x2190;" horiz-adv-x="1000" 
d="M259 365l367 368l34 -31l-336 -337l336 -337l-34 -32z" />
    <glyph glyph-name="arrowup" unicode="&#x2191;" horiz-adv-x="1000" 
d="M132 183l366 368l370 -368l-32 -32l-338 335l-336 -335z" />
    <glyph glyph-name="arrowright" unicode="&#x2192;" horiz-adv-x="1000" 
d="M340 28l336 337l-336 337l34 31l367 -368l-367 -369z" />
    <glyph glyph-name="arrowdown" unicode="&#x2193;" horiz-adv-x="1000" 
d="M132 511l30 32l336 -335l338 335l32 -32l-370 -368z" />
    <glyph glyph-name="arrowboth" unicode="&#x2194;" horiz-adv-x="1000" 
d="M49 371l228 228l34 -35l-167 -167l713 -2l-169 170l34 34l228 -228l-228 -228l-34 34l167 169l-714 2l171 -171l-35 -34z" />
    <glyph glyph-name="arrowupdn" unicode="&#x2195;" horiz-adv-x="1000" 
d="M272 210l35 34l168 -168l2 570l-170 -170l-35 35l229 228l227 -228l-35 -34l-167 169l-2 -572l170 170l34 -34l-227 -229z" />
    <glyph glyph-name="uni2196" unicode="&#x2196;" horiz-adv-x="1000" 
d="M645 722v-46h-408l623 -626l-32 -33l-626 624v-408h-46v489h489z" />
    <glyph glyph-name="uni2197" unicode="&#x2197;" horiz-adv-x="1000" 
d="M864 233h-46v408l-627 -624l-31 33l622 626h-407v46h489v-489z" />
    <glyph glyph-name="uni2198" unicode="&#x2198;" horiz-adv-x="1000" 
d="M375 0v46h407l-622 626l31 33l627 -624v408h46v-489h-489z" />
    <glyph glyph-name="uni2199" unicode="&#x2199;" horiz-adv-x="1000" 
d="M156 489h46v-408l626 624l32 -33l-623 -626h408v-46h-489v489z" />
    <glyph glyph-name="uni2219" unicode="&#x2219;" horiz-adv-x="463" 
d="M276 411v-87h-89v87h89z" />
    <glyph glyph-name="circleplus" unicode="&#x2295;" horiz-adv-x="1084" 
d="M158 573q60 102 162 162t222 60t222 -60t162 -162t60 -222t-60 -222t-162 -161.5t-222 -59.5t-222 59.5t-162 161.5t-60 222t60 222zM199.5 153q53.5 -91 144 -144.5t198.5 -53.5t198.5 53.5t144 144.5t53.5 198q0 108 -53 199t-144 144t-199 53t-199 -53t-144 -144
t-53 -199q0 -107 53.5 -198zM325 368h194v195h49v-195h194v-48h-194v-195h-49v195h-194v48z" />
    <glyph glyph-name="uni2296" unicode="&#x2296;" horiz-adv-x="1084" 
d="M158 573q60 102 162 162t222 60t222 -60t162 -162t60 -222t-60 -222t-162 -161.5t-222 -59.5t-222 59.5t-162 161.5t-60 222t60 222zM199.5 153q53.5 -91 144 -144.5t198.5 -53.5t198.5 53.5t144 144.5t53.5 198q0 108 -53 199t-144 144t-199 53t-199 -53t-144 -144
t-53 -199q0 -107 53.5 -198zM316 368h438v-48h-438v48z" />
    <glyph glyph-name="circlemultiply" unicode="&#x2297;" horiz-adv-x="1084" 
d="M158 573q60 102 162 162t222 60t222 -60t162 -162t60 -222t-60 -222t-162 -161.5t-222 -59.5t-222 59.5t-162 161.5t-60 222t60 222zM199.5 153q53.5 -91 144 -144.5t198.5 -53.5t198.5 53.5t144 144.5t53.5 198q0 108 -53 199t-144 144t-199 53t-199 -53t-144 -144
t-53 -199q0 -107 53.5 -198zM376 143l168 168l166 -167l31 34l-165 165l166 168l-33 33l-167 -167l-167 166l-31 -32l166 -167l-166 -165z" />
    <glyph glyph-name="uni2460" unicode="&#x2460;" horiz-adv-x="1064" 
d="M119.5 573.5q59.5 101.5 161.5 161.5t222 60t222 -60t162 -162t60 -222t-60 -222t-162 -161.5t-222 -59.5t-222 59.5t-161.5 161.5t-59.5 222q0 121 59.5 222.5zM161 154q54 -91 145 -145t197 -54q107 0 198 54t144.5 145t53.5 197q0 107 -53.5 198t-144.5 144.5
t-198 53.5q-106 0 -197 -53.5t-145 -144.5t-54 -198q0 -106 54 -197zM491 631h47v-545h-47v496l-65 -26l-15 43z" />
    <glyph glyph-name="uni2461" unicode="&#x2461;" horiz-adv-x="1064" 
d="M119.5 573.5q59.5 101.5 161.5 161.5t222 60t222 -60t162 -162t60 -222t-60 -222t-162 -161.5t-222 -59.5t-222 59.5t-161.5 161.5t-59.5 222q0 121 59.5 222.5zM161 154q54 -91 145 -145t197 -54q107 0 198 54t144.5 145t53.5 197q0 107 -53.5 198t-144.5 144.5
t-198 53.5q-106 0 -197 -53.5t-145 -144.5t-54 -198q0 -106 54 -197zM385 529q1 4 2.5 8t2.5 8q14 29 44 44.5t64 15.5q32 0 57 -12q34 -15 53 -41t19 -56q0 -21 -11 -43q-8 -14 -17 -25l-249 -282v-42h344v45h-283l222 246q14 17 23 35q17 31 17 67q0 44 -27 81.5t-74 56.5
q-32 14 -72 14q-50 0 -92.5 -24t-63.5 -67q-6 -12 -7 -21z" />
    <glyph glyph-name="uni2462" unicode="&#x2462;" horiz-adv-x="1064" 
d="M119.5 573.5q59.5 101.5 161.5 161.5t222 60t222 -60t162 -162t60 -222t-60 -222t-162 -161.5t-222 -59.5t-222 59.5t-161.5 161.5t-59.5 222q0 121 59.5 222.5zM161 154q54 -91 145 -145t197 -54q107 0 198 54t144.5 145t53.5 197q0 107 -53.5 198t-144.5 144.5
t-198 53.5q-106 0 -197 -53.5t-145 -144.5t-54 -198q0 -106 54 -197zM379 238q0 -28 16 -54t45.5 -42t67.5 -16q37 0 67 16t46.5 41t16.5 51q0 46 -31.5 76.5t-96.5 30.5h-22v52h21q58 0 88.5 27t30.5 72q0 22 -14.5 44.5t-41 37.5t-60.5 15q-51 0 -83.5 -31t-32.5 -72h-47
q0 41 22.5 75t60 53.5t80.5 19.5q42 0 80 -19.5t60.5 -53.5t22.5 -76q0 -38 -24.5 -71t-67.5 -48q45 -15 72.5 -50.5t27.5 -77.5q0 -44 -24.5 -80.5t-64.5 -57.5t-86 -21t-86 21t-64.5 57.5t-24.5 80.5h46z" />
    <glyph glyph-name="uni2463" unicode="&#x2463;" horiz-adv-x="1064" 
d="M119.5 573.5q59.5 101.5 161.5 161.5t222 60t222 -60t162 -162t60 -222t-60 -222t-162 -161.5t-222 -59.5t-222 59.5t-161.5 161.5t-59.5 222q0 121 59.5 222.5zM161 154q54 -91 145 -145t197 -54q107 0 198 54t144.5 145t53.5 197q0 107 -53.5 198t-144.5 144.5
t-198 53.5q-106 0 -197 -53.5t-145 -144.5t-54 -198q0 -106 54 -197zM275 269l273 362h45v-363h83v-45h-83v-138h-45v138h-273v46zM548 268v296l-219 -296h219z" />
    <glyph glyph-name="uni2464" unicode="&#x2464;" horiz-adv-x="1064" 
d="M119.5 573.5q59.5 101.5 161.5 161.5t222 60t222 -60t162 -162t60 -222t-60 -222t-162 -161.5t-222 -59.5t-222 59.5t-161.5 161.5t-59.5 222q0 121 59.5 222.5zM161 154q54 -91 145 -145t197 -54q107 0 198 54t144.5 145t53.5 197q0 107 -53.5 198t-144.5 144.5
t-198 53.5q-106 0 -197 -53.5t-145 -144.5t-54 -198q0 -106 54 -197zM380 199l11 -15q18 -28 51.5 -46.5t70.5 -18.5q36 0 66 19t47.5 50.5t17.5 66.5q0 39 -18.5 70.5t-49 49.5t-63.5 18q-22 0 -51 -7.5t-49 -30.5l-38 28l6 243h273v-44h-228l-5 -162q17 9 39 13.5t43 4.5
q49 0 92 -23.5t68.5 -65t25.5 -93.5q0 -50 -24 -92t-65 -66.5t-89 -24.5q-45 0 -90.5 23.5t-71.5 61.5l-11 17z" />
    <glyph glyph-name="uni2465" unicode="&#x2465;" horiz-adv-x="1064" 
d="M119.5 573.5q59.5 101.5 161.5 161.5t222 60t222 -60t162 -162t60 -222t-60 -222t-162 -161.5t-222 -59.5t-222 59.5t-161.5 161.5t-59.5 222q0 121 59.5 222.5zM161 154q54 -91 145 -145t197 -54q107 0 198 54t144.5 145t53.5 197q0 107 -53.5 198t-144.5 144.5
t-198 53.5q-106 0 -197 -53.5t-145 -144.5t-54 -198q0 -106 54 -197zM341 329l190 310l42 -23l-123 -199q-1 0 22 5q18 3 34 3q51 0 91.5 -23t63 -62t22.5 -85q0 -47 -24.5 -86.5t-65.5 -62t-89 -22.5q-49 0 -90.5 22.5t-66 62t-24.5 86.5q0 36 18 74zM387 194
q17 -28 48 -45t69 -17t68 17t47 45t17 61q0 51 -37.5 87t-94.5 36q-38 0 -68.5 -16.5t-48 -45t-17.5 -61.5t17 -61z" />
    <glyph glyph-name="uni2466" unicode="&#x2466;" horiz-adv-x="1064" 
d="M119.5 573.5q59.5 101.5 161.5 161.5t222 60t222 -60t162 -162t60 -222t-60 -222t-162 -161.5t-222 -59.5t-222 59.5t-161.5 161.5t-59.5 222q0 121 59.5 222.5zM161 154q54 -91 145 -145t197 -54q107 0 198 54t144.5 145t53.5 197q0 107 -53.5 198t-144.5 144.5
t-198 53.5q-106 0 -197 -53.5t-145 -144.5t-54 -198q0 -106 54 -197zM350 607h336v-43l-257 -504l-41 23l250 480l-288 -1v45z" />
    <glyph glyph-name="uni2467" unicode="&#x2467;" horiz-adv-x="1064" 
d="M119.5 573.5q59.5 101.5 161.5 161.5t222 60t222 -60t162 -162t60 -222t-60 -222t-162 -161.5t-222 -59.5t-222 59.5t-161.5 161.5t-59.5 222q0 121 59.5 222.5zM161 154q54 -91 145 -145t197 -54q107 0 198 54t144.5 145t53.5 197q0 107 -53.5 198t-144.5 144.5
t-198 53.5q-106 0 -197 -53.5t-145 -144.5t-54 -198q0 -106 54 -197zM353 317q26 35 67 56q-35 22 -56 51.5t-21 64.5q0 42 22.5 75.5t60 52.5t79.5 19t79.5 -19t60.5 -52.5t23 -75.5q0 -35 -21.5 -64.5t-56.5 -51.5q40 -21 66 -56t26 -75q0 -45 -24.5 -82t-65.5 -58
t-87 -21t-87 21t-66 58t-25 82q0 40 26 75zM393 184q16 -25 45.5 -40t66.5 -15t66.5 15t45.5 40t16 54q0 28 -16 52.5t-45.5 39.5t-66.5 15t-66.5 -15t-45.5 -39.5t-16 -52.5q0 -29 16 -54zM423 427q32 -28 82 -28t82 28t32 66t-32 66.5t-82 28.5t-82 -28.5t-32 -66.5
t32 -66z" />
    <glyph glyph-name="uni2468" unicode="&#x2468;" horiz-adv-x="1064" 
d="M119.5 573.5q59.5 101.5 161.5 161.5t222 60t222 -60t162 -162t60 -222t-60 -222t-162 -161.5t-222 -59.5t-222 59.5t-161.5 161.5t-59.5 222q0 121 59.5 222.5zM161 154q54 -91 145 -145t197 -54q107 0 198 54t144.5 145t53.5 197q0 107 -53.5 198t-144.5 144.5
t-198 53.5q-106 0 -197 -53.5t-145 -144.5t-54 -198q0 -106 54 -197zM354.5 538.5q24.5 39.5 66 62t90.5 22.5q48 0 88.5 -22.5t65 -62t24.5 -86.5q0 -40 -16 -72l-190 -309l-40 22l124 200q-8 -3 -13.5 -4t-11.5 -2q-18 -3 -36 -3q-48 0 -88 20.5t-64 58.5t-24 89
q0 47 24.5 86.5zM393 391q17 -28 47.5 -45t68.5 -17t68 17t47.5 45t17.5 61q0 52 -38 88t-94 36q-58 0 -96 -36t-38 -88q0 -33 17 -61z" />
    <glyph glyph-name="uni2469" unicode="&#x2469;" horiz-adv-x="1064" 
d="M119.5 573.5q59.5 101.5 161.5 161.5t222 60t222 -60t162 -162t60 -222t-60 -222t-162 -161.5t-222 -59.5t-222 59.5t-161.5 161.5t-59.5 222q0 121 59.5 222.5zM161 154q54 -91 145 -145t197 -54q107 0 198 54t144.5 145t53.5 197q0 107 -53.5 198t-144.5 144.5
t-198 53.5q-106 0 -197 -53.5t-145 -144.5t-54 -198q0 -106 54 -197zM325 609h44v-525h-44v481l-58 -23l-13 39zM435.5 452q5.5 41 25.5 77q17 34 51.5 59t88.5 25t88.5 -25t51.5 -59q20 -36 25 -76t5 -107q0 -68 -5 -108.5t-25 -76.5q-17 -34 -51.5 -59t-88.5 -25t-88.5 25
t-51.5 59q-20 37 -25.5 78.5t-5.5 106.5t5.5 106zM477 244q5 -36 23 -64q11 -24 35.5 -41t64.5 -17q69 0 102 57q17 28 22 64.5t5 102.5q0 65 -5 101t-22 65q-33 56 -102 56q-40 0 -64 -16.5t-36 -38.5q-18 -30 -23 -66t-5 -101q0 -66 5 -102z" />
    <glyph glyph-name="uni246A" unicode="&#x246a;" horiz-adv-x="1064" 
d="M119.5 573.5q59.5 101.5 161.5 161.5t222 60t222 -60t162 -162t60 -222t-60 -222t-162 -161.5t-222 -59.5t-222 59.5t-161.5 161.5t-59.5 222q0 121 59.5 222.5zM161 154q54 -91 145 -145t197 -54q107 0 198 54t144.5 145t53.5 197q0 107 -53.5 198t-144.5 144.5
t-198 53.5q-106 0 -197 -53.5t-145 -144.5t-54 -198q0 -106 54 -197zM381 611h43v-525h-43v481l-58 -23l-14 39zM603 611h44v-525h-44v481l-57 -23l-15 39z" />
    <glyph glyph-name="uni246B" unicode="&#x246b;" horiz-adv-x="1064" 
d="M281 -32.5q-102 59.5 -161.5 161.5t-59.5 222q0 121 59.5 222.5t161.5 161.5t222 60t222 -60t162 -162t60 -222t-60 -222t-162 -161.5t-222 -59.5t-222 59.5zM161 154q54 -91 145 -145t197 -54q107 0 198 54t144.5 145t53.5 197q0 107 -53.5 198t-144.5 144.5t-198 53.5
q-106 0 -197 -53.5t-145 -144.5t-54 -198q0 -106 54 -197zM321 614h44v-525h-44v480l-59 -23l-13 39zM425 530q20 41 60.5 64.5t88.5 23.5q34 0 70 -14q44 -17 69.5 -53.5t25.5 -79.5q0 -32 -15 -64q-13 -24 -22 -33l-213 -240h273v-42h-331v40l241 271q7 8 16 26
q10 22 10 41q0 29 -18 54t-51 39q-22 11 -52 11q-33 0 -61.5 -15t-43.5 -41l-6 -15l-49 7q2 8 8 20z" />
    <glyph glyph-name="uni246C" unicode="&#x246c;" horiz-adv-x="1064" 
d="M119.5 573.5q59.5 101.5 161.5 161.5t222 60t222 -60t162 -162t60 -222t-60 -222t-162 -161.5t-222 -59.5t-222 59.5t-161.5 161.5t-59.5 222q0 121 59.5 222.5zM161 154q54 -91 145 -145t197 -54q107 0 198 54t144.5 145t53.5 197q0 107 -53.5 198t-144.5 144.5
t-198 53.5q-106 0 -197 -53.5t-145 -144.5t-54 -198q0 -106 54 -197zM324 610h44v-525h-44v481l-57 -23l-14 39zM462 236q0 -27 15.5 -52.5t44.5 -41.5t65 -16t64.5 15.5t44.5 40t16 49.5q0 45 -30 74.5t-93 29.5h-20v49h19q56 0 86 27t30 70q0 21 -14.5 43t-40.5 36.5
t-58 14.5q-49 0 -80.5 -30.5t-31.5 -69.5h-45q0 39 22 72t58 52t77 19t77 -19t57.5 -52t21.5 -73q0 -37 -21 -66.5t-62 -47.5q44 -19 67.5 -52t23.5 -72q0 -43 -23 -77.5t-62 -54.5t-83 -20t-83 20t-62 54.5t-23 77.5h43z" />
    <glyph glyph-name="uni246D" unicode="&#x246d;" horiz-adv-x="1064" 
d="M119.5 573.5q59.5 101.5 161.5 161.5t222 60t222 -60t162 -162t60 -222t-60 -222t-162 -161.5t-222 -59.5t-222 59.5t-161.5 161.5t-59.5 222q0 121 59.5 222.5zM161 154q54 -91 145 -145t197 -54q107 0 198 54t144.5 145t53.5 197q0 107 -53.5 198t-144.5 144.5
t-198 53.5q-106 0 -197 -53.5t-145 -144.5t-54 -198q0 -106 54 -197zM326 610h44v-525h-44v481l-57 -23l-14 39zM405 263l263 350h44v-350h79v-43h-79v-132h-44v132h-263v43zM668 263v286l-212 -286h212z" />
    <glyph glyph-name="uni246E" unicode="&#x246e;" horiz-adv-x="1064" 
d="M119.5 573.5q59.5 101.5 161.5 161.5t222 60t222 -60t162 -162t60 -222t-60 -222t-162 -161.5t-222 -59.5t-222 59.5t-161.5 161.5t-59.5 222q0 121 59.5 222.5zM161 154q54 -91 145 -145t197 -54q107 0 198 54t144.5 145t53.5 197q0 107 -53.5 198t-144.5 144.5
t-198 53.5q-106 0 -197 -53.5t-145 -144.5t-54 -198q0 -106 54 -197zM326 610h44v-526h-44v482l-58 -23l-13 39zM471 194l11 -14q17 -27 49.5 -44.5t68.5 -17.5q35 0 64.5 18.5t46.5 48.5t17 63q0 38 -18.5 69t-48 48.5t-61.5 17.5q-21 0 -49 -7.5t-47 -28.5l-37 26l5 233
h263v-42h-220l-4 -157q16 9 38 13.5t42 4.5q47 0 88.5 -23t66 -63t24.5 -90q0 -48 -23 -88.5t-63 -64t-87 -23.5q-43 0 -86.5 23t-67.5 60l-11 16z" />
    <glyph glyph-name="uni24C3" unicode="&#x24c3;" horiz-adv-x="934" 
d="M574 516v-244l-213 244h-41v-312h40v250l219 -250h36v312h-41zM163 537q47 81 127.5 128t176.5 47t176.5 -47t127.5 -128t47 -177t-47 -176.5t-127.5 -127.5t-176.5 -47t-176.5 47t-127.5 127.5t-47 176.5t47 177z" />
    <glyph glyph-name="uni24D8" unicode="&#x24d8;" horiz-adv-x="1084" 
d="M158 573q60 102 162 162t222 60t222 -60t162 -162t60 -222t-60 -222t-162 -161.5t-222 -59.5t-222 59.5t-162 161.5t-60 222t60 222zM199.5 153q53.5 -91 144 -144.5t198.5 -53.5t198.5 53.5t144 144.5t53.5 198q0 108 -53 199t-144 144t-199 53t-199 -53t-144 -144
t-53 -199q0 -107 53.5 -198zM473 478h102v-394h-47v347h-55v47zM519 619h63v-63h-63v63z" />
    <glyph glyph-name="filledbox" unicode="&#x25a0;" horiz-adv-x="1000" 
d="M858 721v-716h-716v716h716z" />
    <glyph glyph-name="uni25A1" unicode="&#x25a1;" horiz-adv-x="1000" 
d="M858 721v-716h-716v716h716zM805 58v610h-610v-610h610z" />
    <glyph glyph-name="uni25A3" unicode="&#x25a3;" horiz-adv-x="1000" 
d="M386 249v227h227v-227h-227zM142 721h716v-716h-716v716zM805 58v610h-610v-610h610z" />
    <glyph glyph-name="triagup" unicode="&#x25b2;" horiz-adv-x="1000" 
d="M894 39h-787l394 644z" />
    <glyph glyph-name="uni25B3" unicode="&#x25b3;" horiz-adv-x="1000" 
d="M107 39l393 644l394 -644h-787zM805 90l-305 498l-304 -498h609z" />
    <glyph glyph-name="uni25B6" unicode="&#x25b6;" horiz-adv-x="1000" 
d="M198 -30v786l644 -393z" />
    <glyph glyph-name="uni25B7" unicode="&#x25b7;" horiz-adv-x="1000" 
d="M198 763l644 -392l-644 -394v786zM746 371l-497 304v-610z" />
    <glyph glyph-name="triagdn" unicode="&#x25bc;" horiz-adv-x="1000" 
d="M107 683h787l-393 -644z" />
    <glyph glyph-name="uni25BD" unicode="&#x25bd;" horiz-adv-x="1000" 
d="M500 39l-393 644h787zM500 135l305 497h-609z" />
    <glyph glyph-name="uni25C0" unicode="&#x25c0;" horiz-adv-x="1000" 
d="M802 756v-786l-644 393z" />
    <glyph glyph-name="uni25C1" unicode="&#x25c1;" horiz-adv-x="1000" 
d="M158 371l644 392v-786zM751 65v610l-497 -304z" />
    <glyph glyph-name="uni25C6" unicode="&#x25c6;" horiz-adv-x="1000" 
d="M930 363l-430 -430l-430 430l430 430z" />
    <glyph glyph-name="uni25C7" unicode="&#x25c7;" horiz-adv-x="1000" 
d="M930 363l-430 -430l-430 430l430 430zM500 -1l365 364l-365 365l-364 -365z" />
    <glyph glyph-name="uni25C8" unicode="&#x25c8;" horiz-adv-x="1000" 
d="M363 363l137 136l136 -136l-136 -136zM500 793l430 -430l-430 -430l-430 430zM500 -1l364 364l-364 365l-365 -365z" />
    <glyph glyph-name="circle" unicode="&#x25cb;" horiz-adv-x="1000" 
d="M656 91.5q71 41.5 112.5 112.5t41.5 156t-41.5 156t-112.5 112.5t-156 41.5t-156 -41.5t-112.5 -112.5t-41.5 -156t41.5 -156t112.5 -112.5t156 -41.5t156 41.5zM189 540.5q48 82.5 130.5 130.5t180.5 48t180.5 -48t130.5 -130.5t48 -180.5t-48 -180.5t-130.5 -130.5
t-180.5 -48t-180.5 48t-130.5 130.5t-48 180.5t48 180.5z" />
    <glyph glyph-name="uni25CE" unicode="&#x25ce;" horiz-adv-x="1000" 
d="M656 91.5q71 41.5 112.5 112.5t41.5 156t-41.5 156t-112.5 112.5t-156 41.5t-156 -41.5t-112.5 -112.5t-41.5 -156t41.5 -156t112.5 -112.5t156 -41.5t156 41.5zM189 540.5q48 82.5 130.5 130.5t180.5 48t180.5 -48t130.5 -130.5t48 -180.5t-48 -180.5t-130.5 -130.5
t-180.5 -48t-180.5 48t-130.5 130.5t-48 180.5t48 180.5zM344 450.5q24 41.5 65.5 65.5t90.5 24t90.5 -24t65.5 -65.5t24 -90.5t-24 -90.5t-65.5 -65.5t-90.5 -24t-90.5 24t-65.5 65.5t-24 90.5t24 90.5zM382.5 292.5q18.5 -31.5 49.5 -50t68 -18.5q36 0 67 18.5t49.5 50
t18.5 67.5t-18.5 67.5t-49.5 50t-67 18.5q-37 0 -68 -18.5t-49.5 -50t-18.5 -67.5t18.5 -67.5z" />
    <glyph glyph-name="uni25CF" unicode="&#x25cf;" horiz-adv-x="1000" 
d="M319.5 49q-82.5 48 -130.5 130.5t-48 180.5t48 180.5t130.5 130.5t180.5 48t180.5 -48t130.5 -130.5t48 -180.5t-48 -180.5t-130.5 -130.5t-180.5 -48t-180.5 48z" />
    <glyph glyph-name="uni25D0" unicode="&#x25d0;" horiz-adv-x="1000" 
d="M656 91.5q71 41.5 112.5 112.5t41.5 156t-41.5 156t-112.5 112.5t-156 41.5v-620q85 0 156 41.5zM189 540.5q48 82.5 130.5 130.5t180.5 48t180.5 -48t130.5 -130.5t48 -180.5t-48 -180.5t-130.5 -130.5t-180.5 -48t-180.5 48t-130.5 130.5t-48 180.5t48 180.5z" />
    <glyph glyph-name="uni25D1" unicode="&#x25d1;" horiz-adv-x="1000" 
d="M344 628.5q-71 -41.5 -112.5 -112.5t-41.5 -156t41.5 -156t112.5 -112.5t156 -41.5v620q-85 0 -156 -41.5zM189 540.5q48 82.5 130.5 130.5t180.5 48t180.5 -48t130.5 -130.5t48 -180.5t-48 -180.5t-130.5 -130.5t-180.5 -48t-180.5 48t-130.5 130.5t-48 180.5t48 180.5z
" />
    <glyph glyph-name="uni2605" unicode="&#x2605;" horiz-adv-x="1000" 
d="M610 482l305 -24l-237 -187l78 -310l-255 171l-256 -171l78 310l-237 187l305 24l110 286z" />
    <glyph glyph-name="uni2606" unicode="&#x2606;" horiz-adv-x="1000" 
d="M422 441l-221 -18l171 -135l-57 -227l186 124l185 -124l-57 227l171 135l-221 18l-78 205zM391 482l110 286l109 -286l305 -24l-237 -187l78 -310l-255 171l-256 -171l78 310l-237 187z" />
    <glyph glyph-name="uni260E" unicode="&#x260e;" horiz-adv-x="1000" 
d="M596 -17q63 -35 99 -35q16 0 26.5 5.5t18.5 12.5t11 9l77 65q44 37 44 64q0 11 -5.5 20t-12.5 16l-10 10l-75 76q-38 39 -68 39q-22 0 -41 -21l-44 -45q-65 65 -107 116l-16 18q-35 44 -53 69.5t-52 79.5l52 32q14 9 22 20t8 27q0 28 -24 65l-58 88q-2 3 -10 14.5
t-17.5 18t-20.5 6.5q-25 0 -64 -31l-80 -61q-2 -2 -14 -12t-18 -24.5t-6 -34.5q0 -32 14 -84q18 -68 69 -144t106 -147q147 -176 249 -232z" />
    <glyph glyph-name="uni260F" unicode="&#x260f;" horiz-adv-x="1000" 
d="M226 347q-55 82 -74 153q-14 53 -14 90q0 34 10 50.5t21 25t14 11.5l80 61q46 36 78 36q21 0 34.5 -12t20.5 -22.5l9 -13.5l58 -89q27 -40 27 -75q0 -42 -39 -66l-34 -21q29 -44 46 -67.5t47 -60.5q5 -7 31 -38t75 -80l28 29q25 27 57 27q40 0 83 -44l75 -76
q2 -2 12 -12.5t16 -23t6 -25.5q0 -38 -52 -80l-77 -66q-3 -2 -13.5 -11t-24 -14.5t-29.5 -5.5q-43 0 -112 38q-106 58 -254 237q-50 63 -105 145zM266 365.5q54 -80.5 99 -135.5q143 -173 241 -227q61 -33 87 -33q11 0 18.5 4t15 10t9.5 8l77 66q20 17 28.5 27t8.5 18
q0 6 -4.5 12.5t-9.5 11.5l-8 8l-75 75q-33 34 -51 34q-7 0 -12 -3.5t-14 -12.5l-59 -61q-52 51 -77 78.5t-41.5 46.5t-22.5 27q-29 36 -51 67t-69 103l72 44q11 7 16 13t5 15q0 18 -23 52l-57 89l-8 12t-11.5 13t-11.5 4q-14 0 -48 -27l-80 -61q-17 -13 -23.5 -23t-6.5 -29
q0 -27 14 -80q18 -65 72 -145.5z" />
    <glyph glyph-name="uni261C" unicode="&#x261c;" horiz-adv-x="1000" 
d="M381 34h-9q-31 0 -52.5 21t-21.5 50q0 23 13 42q-17 9 -27.5 25.5t-10.5 35.5q0 24 14 41q-17 10 -27 26.5t-10 36.5q0 18 7 32h-109q-39 0 -64.5 21t-25.5 57t25.5 57.5t64.5 21.5h292l-40 39q-25 25 -25 63t25 63q26 26 63 26q38 0 63 -26l98 -98q28 -28 64.5 -43
t76.5 -15h101q31 0 54 -23t23 -54v-233q0 -27 -14.5 -49.5t-38.5 -33.5l-67 -30q-127 -54 -257 -54h-185v1zM109.5 393q10.5 -8 38.5 -8h247v-41h-72q-32 0 -32 -32q0 -31 32 -31h107v-42h-79q-37 0 -37 -31q0 -29 32 -29h129v-41h-103q-33 0 -33 -33q0 -30 33 -30h119v-1
h75q122 0 241 51l66 29q16 7 22.5 18t6.5 28v233q0 36 -36 36h-101q-48 0 -92.5 18.5t-77.5 51.5l-98 98q-16 17 -34 17q-17 0 -34 -17q-16 -16 -16 -34t16 -34l112 -109h-393q-27 0 -38 -8t-11 -30q0 -21 10.5 -29z" />
    <glyph glyph-name="uni261D" unicode="&#x261d;" horiz-adv-x="1000" 
d="M478 468v247q0 28 -8 38.5t-29 10.5t-29.5 -11t-8.5 -38v-393l-109 112q-17 17 -34 17t-34 -17t-17 -34q0 -15 17 -34l98 -98q33 -33 51.5 -77.5t18.5 -92.5v-101q0 -36 36 -36h233q17 0 28 6.5t18 22.5l29 66q51 119 51 241v185h1v9q0 34 -31 34q-32 0 -32 -34v-103h-41
v129q0 33 -31 33q-30 0 -30 -38v-79h-42v107q0 16 -8.5 25t-23.5 9q-31 0 -31 -34v-71h-1v-1h-41zM171 400q0 37 26 63t63 26t63 -26l39 -40v292q0 39 21.5 64.5t57.5 25.5t57 -25.5t21 -64.5v-107q16 7 32 7q20 0 37 -10.5t26 -27.5q17 14 41 14q20 0 36.5 -10t26.5 -28
q20 13 41 13q29 0 50.5 -22t21.5 -53v-56h-1v-138q0 -130 -54 -257l-30 -67q-11 -24 -33.5 -38.5t-49.5 -14.5h-233q-31 0 -54 23t-23 54v101q0 40 -15 76.5t-43 64.5l-98 98q-26 28 -26 63z" />
    <glyph glyph-name="uni261E" unicode="&#x261e;" horiz-adv-x="1000" 
d="M606 385h247q28 0 38.5 8t10.5 29q0 22 -11 30t-38 8h-393l112 109q17 17 17 34t-17 34q-16 17 -34 17q-17 0 -34 -17l-98 -98q-33 -33 -77.5 -51.5t-92.5 -18.5h-101q-36 0 -36 -36v-233q0 -17 6.5 -28t22.5 -18l66 -29q119 -51 241 -51h116v1h78q34 0 34 30
q0 16 -9 24.5t-25 8.5h-103v41h129q33 0 33 29q0 15 -10 23t-28 8h-79v42h107q34 0 34 31q0 32 -34 32h-72v41zM58 433q0 31 23 54t54 23h101q40 0 76.5 15t64.5 43l98 98q26 26 63 26q38 0 63 -26q26 -26 26 -63t-26 -63l-40 -39h292q39 0 64.5 -21.5t25.5 -57.5t-25.5 -57
t-64.5 -21h-107q7 -17 7 -32q0 -21 -10 -37.5t-28 -25.5q14 -17 14 -41q0 -19 -10.5 -35.5t-27.5 -25.5q13 -19 13 -42q0 -29 -22 -50t-53 -21h-9v-1h-185q-130 0 -257 54l-67 30q-24 11 -38.5 33.5t-14.5 49.5v233z" />
    <glyph glyph-name="uni261F" unicode="&#x261f;" horiz-adv-x="1000" 
d="M727 337v-103q0 -33 32 -33q31 0 31 33v27h-1v167q0 122 -51 241l-29 66q-7 16 -18 22.5t-28 6.5h-233q-36 0 -36 -36v-101q0 -48 -18.5 -92.5t-51.5 -77.5l-98 -98q-17 -17 -17 -34q0 -15 17 -34q16 -16 34 -16t34 16l109 112v-393q0 -27 8.5 -38t29.5 -11t29 10.5
t8 38.5v247h41v-1h1v-71q0 -32 31 -32q32 0 32 32v107h42v-79q0 -37 30 -37q31 0 31 32v129h41zM171 325q0 37 26 63l98 98q28 28 43 64.5t15 76.5v101q0 31 23 54t54 23h233q27 0 49.5 -14.5t33.5 -38.5l30 -67q54 -127 54 -257v-116h1v-78q0 -31 -21 -52.5t-51 -21.5
q-21 0 -41 13q-9 -17 -26 -27.5t-37 -10.5q-23 0 -41 13q-9 -16 -25 -26t-35 -10q-16 0 -35 7v-109q0 -39 -21 -64.5t-57 -25.5t-57.5 25.5t-21.5 64.5v292l-39 -40q-25 -25 -63 -25t-63 25q-26 28 -26 63z" />
    <glyph glyph-name="spade" unicode="&#x2660;" horiz-adv-x="1000" 
d="M843 399q7 -29 7 -62q0 -32 -6 -64q-15 -68 -66 -114.5t-122 -46.5q-41 0 -74.5 18.5t-57.5 50.5l9 -210h-63l9 213q-24 -33 -58 -52.5t-76 -19.5q-71 0 -121.5 46t-66.5 115q-6 30 -6 63q0 32 7 63q22 74 79 138q45 55 94.5 99t130.5 109l39 33q29 -27 97 -85
q69 -60 106 -93.5t60 -62.5q60 -67 79 -138z" />
    <glyph glyph-name="uni2661" unicode="&#x2661;" horiz-adv-x="1000" 
d="M865 426q7 29 7 60q0 32 -6 66q-16 68 -63 109.5t-118 41.5q-44 0 -76 -18.5t-55 -55.5q-22 -34 -51 -95q-30 53 -42.5 72t-15.5 23q-24 37 -55.5 55.5t-74.5 18.5q-72 0 -119 -41t-63 -110q-6 -33 -6 -63q0 -32 7 -63q24 -74 84 -143q53 -60 113.5 -112.5t150.5 -122.5
l17 -14l85 71q84 70 127 107.5t70 69.5q63 73 84 144zM169.5 693.5q60.5 53.5 145.5 53.5q53 0 95.5 -25.5t71.5 -68.5l18 -28q2 4 17 28q28 43 71 68.5t97 25.5q57 0 103.5 -25t77.5 -67.5t43 -93.5q7 -42 7 -72q0 -36 -9 -74q-24 -80 -93 -161q-28 -32 -70 -69.5
t-124 -106.5q-96 -80 -120 -102l-46 38q-94 75 -154 127t-115 113q-67 78 -93 161q-8 35 -8 75q0 37 6 71q19 79 79.5 132.5z" />
    <glyph glyph-name="club" unicode="&#x2663;" horiz-adv-x="1000" 
d="M583 706.5q38 -22.5 60.5 -61t22.5 -83.5q0 -35 -14 -66.5t-39 -53.5q2 -6 2 -7q32 12 67 12q45 0 83 -22t60 -60t22 -83t-22 -82.5t-60 -59.5t-83 -22q-46 0 -90 22t-65 57h-6l10 -226h-63l10 226h-6q-21 -35 -64.5 -57t-88.5 -22t-83 22t-60 59.5t-22 82.5t22 83t60 60
t83 22q36 0 66 -12l3 7q-26 22 -40 53.5t-14 66.5q0 45 22.5 83.5t60.5 61t83 22.5t83 -22.5z" />
    <glyph glyph-name="heart" unicode="&#x2665;" horiz-adv-x="1000" 
d="M733 188.5q-43 -38.5 -116 -99.5q-67 -56 -117 -100l-45 37q-88 69 -147 120.5t-112 111.5q-65 73 -90 155q-8 33 -8 73q0 35 6 68q18 77 76.5 128.5t140.5 51.5q51 0 92.5 -24.5t69.5 -66.5q5 -7 17 -27q8 15 16 27q28 42 69.5 66.5t92.5 24.5q82 0 141 -52t76 -128
q7 -40 7 -70q0 -35 -9 -71q-23 -79 -90 -155q-27 -31 -70 -69.5z" />
    <glyph glyph-name="uni2669" unicode="&#x2669;" horiz-adv-x="540" 
d="M329 39q29 17 44.5 44.5t12.5 56.5q-5 38 -35 64.5t-73 26.5q-13 0 -19 -1q-32 -3 -57 -21t-37.5 -43.5t-10.5 -51.5q5 -38 35.5 -65t73.5 -27q37 0 66 17zM129 201.5q22 34.5 59.5 55t80.5 20.5q31 0 65.5 -13t52.5 -36v515h46v-604q0 -45 -22 -82t-60 -59t-85 -22
q-42 0 -78.5 19t-58.5 53.5t-22 77.5q0 41 22 75.5z" />
    <glyph glyph-name="musicalnote" unicode="&#x266a;" horiz-adv-x="723" 
d="M470 655q18 -39 43.5 -70t53.5 -46q40 -21 67.5 -51t39.5 -61q12 -28 14 -48l1 -15v-7h-27h-18l-2 20q-2 18 -12 38q-8 21 -29.5 44t-50.5 39q-39 24 -58.5 43.5t-40.5 48.5l-12 16v-463v-25q-3 -39 -26.5 -71.5t-60 -51.5t-78.5 -19q-43 0 -80.5 19t-60.5 53.5t-23 77.5
q0 42 23 77t61 55.5t82 20.5q32 0 64 -11.5t54 -34.5v511h44l4 -11l5 -17q13 -39 23 -61zM193 50q32 -27 77 -27q52 0 86 29t38 70v20q-5 39 -36.5 65.5t-76.5 26.5q-38 0 -67 -17.5t-44.5 -45t-13.5 -56.5q5 -38 37 -65zM439 118v-1v1z" />
    <glyph glyph-name="uni266C" unicode="&#x266c;" horiz-adv-x="932" 
d="M721 409.5q-32 11.5 -65 11.5q-44 0 -82.5 -20.5t-61 -55t-22.5 -76.5q0 -43 22 -77.5t59 -53.5t79 -19q44 0 82 20.5t61.5 55t23.5 76.5v547h-46l-414 -118v-472q-18 24 -49.5 36.5t-63.5 12.5q-47 0 -87.5 -22.5t-62.5 -61.5t-17 -84q7 -58 52.5 -95t104.5 -37
q45 0 84 20t62.5 54.5t23.5 76.5v535l368 106v-396q-19 25 -51 36.5zM137.5 175q15.5 25 44.5 40.5t65 15.5q44 0 75.5 -26.5t36.5 -63.5q2 -29 -13 -56t-43 -44.5t-66 -17.5q-49 0 -82 30t-33 71q0 26 15.5 51zM548 313.5q15 27.5 43.5 44.5t65.5 17q49 0 81.5 -29.5
t32.5 -70.5q0 -40 -30 -71.5t-78 -37.5l-14 -1q-44 0 -76.5 27.5t-37.5 64.5q-2 29 13 56.5z" />
    <glyph glyph-name="uni26A0" unicode="&#x26a0;" horiz-adv-x="1084" 
d="M158 573q60 102 162 162t222 60t222 -60t162 -162t60 -222t-60 -222t-162 -161.5t-222 -59.5t-222 59.5t-162 161.5t-60 222t60 222zM199.5 153q53.5 -91 144 -144.5t198.5 -53.5t198.5 53.5t144 144.5t53.5 198q0 108 -53 199t-144 144t-199 53t-199 -53t-144 -144
t-53 -199q0 -107 53.5 -198zM574 635l-8 -426h-48l-7 426h63zM513 127h59v-58h-59v58z" />
    <glyph glyph-name="uni2713" unicode="&#x2713;" horiz-adv-x="904" 
d="M334 31l-269 330l38 30l229 -286l434 563l34 -27z" />
    <glyph glyph-name="uni3008" unicode="&#x3008;" horiz-adv-x="475" 
d="M160 359l242 -406h-51l-245 406l249 405h52z" />
    <glyph glyph-name="uni3009" unicode="&#x3009;" horiz-adv-x="475" 
d="M121 764l248 -405l-244 -406h-52l243 406l-248 405h53z" />
    <glyph glyph-name="uni300A" unicode="&#x300a;" horiz-adv-x="552" 
d="M158 356l181 -406h-50l-181 406l184 406h49zM432 762h50l-184 -406l181 -406h-50l-180 406z" />
    <glyph glyph-name="uni300B" unicode="&#x300b;" horiz-adv-x="552" 
d="M260 762l184 -406l-181 -406h-50l181 406l-183 406h49zM120 762l183 -406l-180 -406h-50l181 406l-184 406h50z" />
    <glyph glyph-name="uni300C" unicode="&#x300c;" horiz-adv-x="395" 
d="M329 703h-176v-249h-49v298h225v-49z" />
    <glyph glyph-name="uni300D" unicode="&#x300d;" horiz-adv-x="395" 
d="M66 9h177v250h48v-299h-225v49z" />
    <glyph glyph-name="uni300E" unicode="&#x300e;" horiz-adv-x="396" 
d="M330 644h-123v-203h-103v305h226v-102zM176 470v205h126v41h-166v-246h40z" />
    <glyph glyph-name="uni300F" unicode="&#x300f;" horiz-adv-x="396" 
d="M66 57h122v202h104v-305h-226v103zM261 -15v245h-41v-205h-125v-40h166z" />
    <glyph glyph-name="uni3010" unicode="&#x3010;" horiz-adv-x="287" 
d="M140 358q0 -214 83 -406h-121v812h121q-83 -192 -83 -406z" />
    <glyph glyph-name="uni3011" unicode="&#x3011;" horiz-adv-x="287" 
d="M185 764v-812h-121q84 194 84 406t-84 406h121z" />
    <glyph glyph-name="uni3014" unicode="&#x3014;" horiz-adv-x="339" 
d="M148 660v-616l126 -47l-17 -42l-154 60v674l154 60l17 -41z" />
    <glyph glyph-name="uni3015" unicode="&#x3015;" horiz-adv-x="339" 
d="M83 749l153 -60v-674l-153 -60l-18 41l126 48v616l-126 48z" />
    <glyph glyph-name="uni3131" unicode="&#x3131;" 
d="M701 577v-440h-46v400h-482v40h528z" />
    <glyph glyph-name="uni3132" unicode="&#x3132;" 
d="M429 577v-440h-45v400h-239v40h284zM486 579h287v-440h-46v400h-241v40z" />
    <glyph glyph-name="uni3133" unicode="&#x3133;" 
d="M393 577v-440h-47v399h-212v41h259zM546.5 272q41.5 71 41.5 148v167h47v-167q0 -76 42 -147.5t116 -104.5l-28 -35q-57 26 -96 75t-57 110q-19 -61 -58 -110t-96 -75l-28 35q75 33 116.5 104z" />
    <glyph glyph-name="uni3134" unicode="&#x3134;" 
d="M227 577v-397h494v-40h-540v437h46z" />
    <glyph glyph-name="uni3135" unicode="&#x3135;" 
d="M214 582v-411q113 0 189 29l8 -35q70 37 108.5 110t38.5 150v109h-134v40h313v-40h-134v-109q0 -79 41 -153t115 -110l-30 -36q-55 28 -93 78.5t-56 112.5q-17 -62 -55 -112.5t-94 -78.5l-24 31q-49 -15 -97 -20t-107 -5h-36v450h47z" />
    <glyph glyph-name="uni3136" unicode="&#x3136;" 
d="M214 562v-388q117 0 190 29l9 -41q-50 -17 -98.5 -22t-110.5 -5h-36v427h46zM415 497h137v95h46v-95h133v-39h-316v39zM476 376q38 41 98 41q58 0 97 -41.5t39 -106.5q0 -66 -38.5 -107t-97.5 -41q-60 0 -98 41t-38 107t38 107zM505.5 189.5q26.5 -31.5 68.5 -31.5
t68.5 31.5t26.5 79.5t-26.5 78.5t-68.5 30.5t-68.5 -30.5t-26.5 -78.5t26.5 -79.5z" />
    <glyph glyph-name="uni3137" unicode="&#x3137;" 
d="M700 582v-40h-472v-362h481v-40h-527v442h518z" />
    <glyph glyph-name="uni3138" unicode="&#x3138;" 
d="M426 582v-40h-219v-358q124 0 217 23l8 -40q-61 -14 -116.5 -19t-115.5 -5h-39v439h265zM457 582h266v-40h-219v-361h222v-39h-269v440z" />
    <glyph glyph-name="uni3139" unicode="&#x3139;" 
d="M706 592v-251h-488v-174h503v-40h-548v253h487v173h-489v39h535z" />
    <glyph glyph-name="uni313A" unicode="&#x313a;" 
d="M431 586v-241h-229v-170q147 0 274 25l7 -40q-77 -14 -143 -19t-138 -5h-46v247h228v163h-230v40h277zM462 586h275v-447h-45v407h-230v40z" />
    <glyph glyph-name="uni313B" unicode="&#x313b;" 
d="M423 585v-241h-222v-168q129 0 239 19l4 -39q-70 -12 -128 -16t-120 -4h-40v247h221v162h-224v40h270zM463 585h279v-448h-279v448zM698 176v370h-192v-370h192z" />
    <glyph glyph-name="uni313C" unicode="&#x313c;" 
d="M423 585v-241h-222v-169q136 0 246 23l7 -39q-70 -14 -130 -18.5t-127 -4.5h-41v247h221v162h-224v40h270zM467 586h45v-174h188v174h45v-450h-278v450zM700 176v196h-188v-196h188z" />
    <glyph glyph-name="uni313D" unicode="&#x313d;" 
d="M422 585v-241h-221v-168q134 0 240 29l5 -33q70 35 109.5 105t39.5 144v167h46v-167q0 -76 41.5 -147.5t116.5 -105.5l-28 -35q-57 27 -95.5 75t-57.5 109q-18 -60 -57 -108.5t-95 -75.5l-24 30q-64 -16 -122.5 -21.5t-123.5 -5.5h-41v247h222v162h-224v40h269z" />
    <glyph glyph-name="uni313E" unicode="&#x313e;" 
d="M424 585v-241h-222v-166q137 0 240 27l6 -39q-65 -16 -125 -22t-125 -6h-41v245h221v162h-224v40h270zM477 585h278v-40h-232v-159h221v-40h-221v-168h236v-40h-282v447z" />
    <glyph glyph-name="uni313F" unicode="&#x313f;" 
d="M412 585v-241h-210v-168q131 0 234 29l8 -42q-65 -16 -124 -21.5t-124 -5.5h-40v247h210v162h-213v40h259zM454 176h59v369h-55v40h293v-40h-55v-369h63v-40h-305v40zM653 176v369h-96v-369h96z" />
    <glyph glyph-name="uni3140" unicode="&#x3140;" 
d="M399 585v-239h-196v-170q125 0 224 25l7 -40q-62 -15 -118.5 -20t-118.5 -5h-40v248h196v162h-199v39h245zM428 500h137v104h46v-104h131v-41h-314v41zM487.5 379q38.5 40 97.5 40t97.5 -40t38.5 -104t-38.5 -104t-97.5 -40t-97.5 40t-38.5 104t38.5 104zM516.5 198.5
q26.5 -29.5 68.5 -29.5t69 30t27 76q0 45 -27 75t-69 30t-68.5 -29.5t-26.5 -75.5q0 -47 26.5 -76.5z" />
    <glyph glyph-name="uni3141" unicode="&#x3141;" 
d="M709 584v-447h-532v447h532zM662 177v367h-439v-367h439z" />
    <glyph glyph-name="uni3142" unicode="&#x3142;" 
d="M224 592v-174h435v174h46v-456h-526v456h45zM659 178v198h-435v-198h435z" />
    <glyph glyph-name="uni3143" unicode="&#x3143;" 
d="M208 585v-173h174v173h44v-449h-263v449h45zM382 177v195h-174v-195h174zM468 585h44v-173h174v173h44v-448h-262v448zM686 177v195h-174v-195h174z" />
    <glyph glyph-name="uni3144" unicode="&#x3144;" 
d="M642 587v-167q0 -76 42 -147.5t117 -104.5l-27 -35q-57 26 -96.5 74.5t-58.5 109.5q-19 -60 -58.5 -109t-95.5 -75l-27 35q75 33 117 104.5t42 147.5v167h45zM162 585h45v-173h174v173h44v-449h-263v449zM381 177v195h-174v-195h174z" />
    <glyph glyph-name="uni3145" unicode="&#x3145;" 
d="M468 602v-147q0 -74 39 -132.5t101 -97t134 -56.5l-23 -39q-94 26 -169 82t-106 139q-30 -82 -105.5 -138.5t-169.5 -82.5l-23 39q72 18 134 56.5t101 97t39 132.5v147h48z" />
    <glyph glyph-name="uni3146" unicode="&#x3146;" 
d="M308 580v-152q0 -37 16 -82.5t46.5 -88.5t72.5 -71q62 41 97 110.5t35 131.5v152h47v-147q0 -72 40 -143t113 -105l-28 -35q-55 27 -93 75.5t-56 108.5q-18 -63 -58 -116.5t-98 -82.5q-57 30 -97 84.5t-60 117.5q-19 -59 -56 -109.5t-90 -78.5l-30 34q48 25 83 69
t52.5 92.5t17.5 88.5v147h46z" />
    <glyph glyph-name="uni3147" unicode="&#x3147;" 
d="M572.5 566.5q60.5 -29.5 95.5 -82.5t35 -119q0 -67 -35 -120.5t-95.5 -83t-135.5 -29.5t-135.5 29.5t-95 83t-34.5 120.5q0 66 34.5 119t95 82.5t135.5 29.5t135.5 -29.5zM247 267.5q29 -44.5 79 -70t111 -25.5t111 25.5t79 70t29 97.5t-29 96.5t-79 68.5t-111 25
t-111 -25t-79 -68.5t-29 -96.5t29 -97.5z" />
    <glyph glyph-name="uni3148" unicode="&#x3148;" 
d="M708 591v-39h-238v-83q0 -74 36 -133.5t95 -100.5t128 -62l-25 -38q-90 29 -159.5 87.5t-97.5 142.5q-28 -84 -97.5 -142.5t-159.5 -87.5l-25 38q70 21 128.5 62t94.5 100.5t36 133.5v83h-238v39h522z" />
    <glyph glyph-name="uni3149" unicode="&#x3149;" 
d="M424 599v-39h-117v-102q0 -96 33.5 -166t101.5 -104q67 34 100.5 104t33.5 166v102h-117v39h286v-39h-123v-102q0 -82 38.5 -158.5t111.5 -113.5l-30 -37q-52 27 -87 75t-53 109q-34 -142 -160 -195q-125 54 -161 195q-20 -61 -56.5 -109t-89.5 -75l-29 37
q74 36 114.5 113t40.5 159v102h-123v39h286z" />
    <glyph glyph-name="uni314A" unicode="&#x314a;" 
d="M418 508v124h46v-124h237v-40h-235v-36q0 -71 35 -128.5t93 -97t125 -58.5l-24 -38q-90 28 -159 86t-96 140q-27 -82 -96 -140t-158 -86l-24 38q67 19 124.5 58.5t92.5 97t35 128.5v36h-234v40h238z" />
    <glyph glyph-name="uni314B" unicode="&#x314b;" 
d="M705 594v-464h-47v219l-486 -30l-8 47l494 22v167h-478v39h525z" />
    <glyph glyph-name="uni314C" unicode="&#x314c;" 
d="M710 584v-40h-482v-158h476v-40h-476v-168h490v-40h-537v446h529z" />
    <glyph glyph-name="uni314D" unicode="&#x314d;" 
d="M719 581v-40h-132v-366h146v-40h-579v40h144v366h-132v40h553zM541 175v366h-197v-366h197z" />
    <glyph glyph-name="uni314E" unicode="&#x314e;" 
d="M420 510v123h46v-123h264v-41h-573v41h263zM267 324.5q26 34.5 72.5 53.5t104.5 19t103.5 -19t71.5 -53.5t26 -77.5t-26 -77.5t-71.5 -53.5t-103.5 -19t-104.5 19t-72.5 53.5t-26 77.5t26 77.5zM309 191q20 -25 55.5 -39.5t79.5 -14.5q43 0 78 14.5t55 39.5t20 56
q0 30 -20 55.5t-55 40t-78 14.5q-44 0 -79.5 -14.5t-55.5 -40t-20 -55.5q0 -31 20 -56z" />
    <glyph glyph-name="uni314F" unicode="&#x314f;" 
d="M433 775v-357h217v-41h-217v-444h-47v842h47z" />
    <glyph glyph-name="uni3150" unicode="&#x3150;" 
d="M577 778v-842h-45v449h-177v-418h-46v796h46v-338h177v353h45z" />
    <glyph glyph-name="uni3151" unicode="&#x3151;" 
d="M403 778v-274h211v-39h-211v-188h211v-40h-211v-300h-46v841h46z" />
    <glyph glyph-name="uni3152" unicode="&#x3152;" 
d="M575 777v-842h-45v316h-174v-285h-46v797h46v-249h174v263h45zM530 290v183h-174v-183h174z" />
    <glyph glyph-name="uni3153" unicode="&#x3153;" 
d="M548 776v-843h-47v446h-218v42h218v355h47z" />
    <glyph glyph-name="uni3154" unicode="&#x3154;" 
d="M609 775v-843h-46v843h46zM220 425h182v338h45v-797h-45v419h-182v40z" />
    <glyph glyph-name="uni3155" unicode="&#x3155;" 
d="M550 777v-842h-47v330h-216v41h216v174h-216v42h216v255h47z" />
    <glyph glyph-name="uni3156" unicode="&#x3156;" 
d="M402 531v232h45v-798h-45v305h-181v40h181v179h-180v42h180zM563 774h45v-843h-45v843z" />
    <glyph glyph-name="uni3157" unicode="&#x3157;" 
d="M411 240v380h46v-380h366v-39h-775v39h363z" />
    <glyph glyph-name="uni3158" unicode="&#x3158;" 
d="M354 510v-302q141 7 241 20l5 -36q-211 -31 -530 -31l-8 41q129 0 246 4v304h46zM638 774h47v-355h144v-42h-144v-445h-47v842z" />
    <glyph glyph-name="uni3159" unicode="&#x3159;" 
d="M309 517v-292q114 5 199 15l4 -36q-163 -26 -442 -26l-6 42q89 0 200 3v294h45zM545 763h45v-335h122v347h46v-842h-46v455h-122v-423h-45v798z" />
    <glyph glyph-name="uni315A" unicode="&#x315a;" 
d="M390 506v-287q140 7 238 20l4 -36q-200 -32 -524 -32l-8 43q156 0 244 3v289h46zM686 775h47v-842h-47v842z" />
    <glyph glyph-name="uni315B" unicode="&#x315b;" 
d="M275 220v401h46v-401h247v401h47v-401h216v-41h-774v41h218z" />
    <glyph glyph-name="uni315C" unicode="&#x315c;" 
d="M830 495v-39h-364v-383h-47v383h-363v39h774z" />
    <glyph glyph-name="uni315D" unicode="&#x315d;" 
d="M770 774v-842h-46v267h-227v39h227v536h46zM386 397q140 5 265 18l3 -37q-121 -15 -297 -24v-354h-47v353q-105 -4 -223 -4l-7 42q166 1 306 6z" />
    <glyph glyph-name="uni315E" unicode="&#x315e;" 
d="M783 774v-842h-45v842h45zM310.5 400q125.5 6 217.5 20l4 -36q-97 -15 -213 -23v-361h-46v359q-105 -6 -193 -6l-8 41q113 0 238.5 6zM406 240h175v511h45v-798h-45v248h-175v39z" />
    <glyph glyph-name="uni315F" unicode="&#x315f;" 
d="M768 774v-842h-46v842h46zM676 418l3 -36q-122 -15 -270 -22v-360h-46v358q-115 -5 -260 -5l-8 41q363 0 581 24z" />
    <glyph glyph-name="uni3160" unicode="&#x3160;" 
d="M823 496v-39h-226v-384h-47v384h-231v-384h-46v384h-225v39h775z" />
    <glyph glyph-name="uni3161" unicode="&#x3161;" 
d="M823 396v-40h-775v40h775z" />
    <glyph glyph-name="uni3162" unicode="&#x3162;" 
d="M745 760v-841h-46v841h46zM380.5 267.5q139.5 5.5 262.5 21.5l5 -36q-225 -33 -565 -33l-10 41q168 1 307.5 6.5z" />
    <glyph glyph-name="uni3163" unicode="&#x3163;" 
d="M466 775v-842h-46v842h46z" />
    <glyph glyph-name="uni321C" unicode="&#x321c;" horiz-adv-x="1179" 
d="M82 351q0 204 128 406h51q-66 -90 -101 -193t-35 -213t35 -213t101 -193h-51q-128 202 -128 406zM243 294h700v-40h-332v-319h-38v319h-330v40zM415 467.5q66 36.5 111.5 90t45.5 115.5v25h-262v37h563v-37h-260v-25q0 -62 45.5 -115.5t111.5 -90t125 -47.5l-16 -36
q-56 13 -114 42.5t-105 74t-67 98.5q-21 -54 -68 -98.5t-105 -74t-113 -42.5l-17 36q59 11 125 47.5zM1021 137q34 103 34 214t-34 214t-99 192h51q124 -196 124 -406t-124 -406h-51q65 89 99 192z" />
    <glyph glyph-name="uni327C" unicode="&#x327c;" horiz-adv-x="1084" 
d="M158 563q60 102 162 162t222 60t222 -60t162 -162t60 -222t-60 -222t-162 -161.5t-222 -59.5t-222 59.5t-162 161.5t-60 222t60 222zM199.5 143q53.5 -91 144 -144.5t198.5 -53.5t198.5 53.5t144 144.5t53.5 198q0 108 -53 199t-144 144t-199 53t-199 -53t-144 -144
t-53 -199q0 -107 53.5 -198zM415 591.5q19 21.5 52 37t75 15.5q47 0 86.5 -19t63 -57.5t23.5 -92.5q0 -50 -27.5 -89t-66.5 -75q-25 -23 -35 -35.5t-15.5 -36.5t-5.5 -70h-50q0 57 10 90t21.5 46.5t40.5 41.5q36 32 57 62t21 66q0 60 -33 89.5t-90 29.5q-30 0 -51.5 -9.5
t-32 -19.5t-30.5 -33l-36 34q4 4 23 25.5zM509 111h59v-57h-59v57z" />
    <glyph glyph-name="uniAC00" unicode="&#xac00;" 
d="M698 796v-365h152v-41h-152v-457h-46v863h46zM329.5 365.5q96.5 134.5 105.5 294.5h-340v40h386q0 -184 -98.5 -339t-296.5 -254l-26 37q173 87 269.5 221.5z" />
    <glyph glyph-name="uniAC01" unicode="&#xac01;" 
d="M708 796v-231h136v-41h-136v-238h-47v510h47zM319 479q100 93 109 217h-342v40h391q0 -155 -108.5 -269t-298.5 -167l-19 39q168 47 268 140zM158 244h550v-312h-47v271h-503v41z" />
    <glyph glyph-name="uniAC04" unicode="&#xac04;" 
d="M708 795v-276h136v-41h-136v-322h-47v639h47zM316.5 459q101.5 100 111.5 227h-343v41h393q0 -158 -110 -278.5t-296 -183.5l-20 39q163 55 264.5 155zM184 221h46v-226h522v-40h-568v266z" />
    <glyph glyph-name="uniAC07" unicode="&#xac07;" 
d="M708 795v-226h136v-39h-136v-230h-47v495h47zM319.5 478.5q99.5 93.5 108.5 217.5h-342v40h392q0 -155 -109 -269.5t-300 -168.5l-17 39q168 48 267.5 141.5zM179 248h531v-41h-486v-221h501v-40h-546v302z" />
    <glyph glyph-name="uniAC08" unicode="&#xac08;" 
d="M708 795v-208h136v-41h-136v-195h-47v444h47zM318 499.5q100 87.5 108 206.5h-341v40h391q0 -152 -109 -259.5t-297 -155.5l-18 39q166 42 266 129.5zM176 307h532v-196h-484v-130h518v-39h-563v209h483v117h-486v39z" />
    <glyph glyph-name="uniAC09" unicode="&#xac09;" 
d="M708 794v-213h137v-40h-137v-213h-47v466h47zM317.5 495q99.5 88 108.5 208h-338v40h388q0 -151 -108.5 -260t-297.5 -158l-18 39q166 43 265.5 131zM138 285h276v-183h-228v-120h1q95 0 157 4t128 16l5 -38q-67 -13 -130 -17t-160 -4h-46v197h228v107h-231v38zM451 285
h257v-348h-46v309h-211v39z" />
    <glyph glyph-name="uniAC0A" unicode="&#xac0a;" 
d="M389 286v-181h-217v-122q88 0 136.5 3t103.5 14l5 -39q-59 -11 -111 -14t-139 -3h-40v199h217v105h-220v38h265zM317.5 497q99.5 87 108.5 206h-338v40h388q0 -151 -109 -259t-297 -156l-18 39q166 43 265.5 130zM447 286h261v-346h-261v346zM664 -23v272h-174v-272h174z
M661 794h47v-214h136v-40h-136v-212h-47v466z" />
    <glyph glyph-name="uniAC0B" unicode="&#xac0b;" 
d="M708 795v-207h136v-41h-136v-215h-47v463h47zM318 501.5q100 87.5 108 206.5h-338v40h388q0 -152 -109 -259.5t-297 -155.5l-18 39q166 42 266 129.5zM124 284h264v-178h-217v-120q89 0 137.5 3t103.5 15l4 -39q-58 -11 -110 -14.5t-140 -3.5h-40v195h217v104h-219v38z
M443 295h44v-126h176v126h45v-349h-265v349zM663 -14v145h-176v-145h176z" />
    <glyph glyph-name="uniAC10" unicode="&#xac10;" 
d="M708 795v-226h136v-39h-136v-230h-47v495h47zM319.5 478.5q99.5 93.5 108.5 217.5h-342v40h392q0 -155 -109 -269.5t-300 -167.5l-17 39q168 47 267.5 140.5zM177 256h531v-309h-531v309zM662 -14v229h-439v-229h439z" />
    <glyph glyph-name="uniAC11" unicode="&#xac11;" 
d="M708 795v-217h136v-40h-136v-208h-47v465h47zM318 490q100 89 109 209h-341v40h391q0 -152 -109 -261.5t-298 -159.5l-18 40q166 43 266 132zM175 286h47v-127h439v127h47v-340h-533v340zM661 -15v135h-439v-135h439z" />
    <glyph glyph-name="uniAC12" unicode="&#xac12;" 
d="M708 796v-213h136v-41h-136v-216h-47v470h47zM319 491q100 89 108 209h-339v39h389q0 -152 -109 -261.5t-298 -158.5l-18 39q167 44 267 133zM147 280h45v-120h193v120h45v-334h-283v334zM385 -16v137h-193v-137h193zM534 34.5q36 39.5 55 86t19 89.5v78h44v-74
q0 -44 18.5 -91t54 -87.5t83.5 -63.5l-26 -36q-55 27 -94 75.5t-58 107.5q-19 -58 -58.5 -107t-95.5 -76l-27 36q49 23 85 62.5z" />
    <glyph glyph-name="uniAC13" unicode="&#xac13;" 
d="M370 451.5q-108 -118.5 -297 -178.5l-20 38q166 52 266 150t110 225h-342v42h391q0 -158 -108 -276.5zM273.5 26q69.5 36 115.5 91.5t46 124.5v46h45v-46q0 -68 45.5 -123t114 -90.5t139.5 -50.5l-20 -37q-99 23 -183.5 77.5t-117.5 134.5q-33 -81 -119 -136.5
t-185 -78.5l-21 38q71 14 140.5 50zM693 797h47v-255h104v-41h-104v-280h-47v576z" />
    <glyph glyph-name="uniAC14" unicode="&#xac14;" 
d="M708 797v-232h136v-41h-136v-214h-47v487h47zM319.5 478.5q99.5 93.5 108.5 217.5h-341v40h391q0 -155 -109 -269.5t-300 -168.5l-17 40q168 47 267.5 140.5zM182 34.5q42 36.5 66 80.5t24 85v76h43v-76q0 -64 36.5 -123.5t100.5 -93.5q63 36 101 99t38 118v76h45v-76
q0 -45 23 -89t64.5 -79t94.5 -53l-23 -36q-65 25 -113 71.5t-69 104.5q-19 -58 -60.5 -107.5t-99.5 -75.5q-62 25 -103 73t-59 108q-22 -56 -69 -103t-109 -71l-24 36q51 19 93 55.5z" />
    <glyph glyph-name="uniAC15" unicode="&#xac15;" 
d="M708 796v-239h136v-41h-136v-248h-47v528h47zM317.5 463q100.5 97 110.5 223h-342v41h392q0 -157 -109 -274.5t-297 -175.5l-20 39q165 50 265.5 147zM243 214q74 43 201 43t200 -43t73 -118t-73 -117t-200 -42t-201 42t-74 117t74 118zM277.5 9q63.5 -33 166.5 -33
t166 33t63 87q0 55 -63 88.5t-166 33.5q-104 0 -167 -33.5t-63 -88.5q0 -54 63.5 -87z" />
    <glyph glyph-name="uniAC16" unicode="&#xac16;" 
d="M708 797v-238h136v-41h-136v-227h-47v506h47zM319.5 480q99.5 93 108.5 216h-341v40h390q0 -155 -108.5 -268t-299.5 -167l-17 39q168 47 267.5 140zM271.5 17.5q65.5 32.5 108.5 80t43 101.5v5h-254v41h555v-41h-253v-5q0 -53 43.5 -100.5t109.5 -81t132 -46.5l-20 -37
q-92 20 -174 71.5t-114 121.5q-32 -70 -113.5 -120.5t-174.5 -71.5l-20 37q66 13 131.5 45.5z" />
    <glyph glyph-name="uniAC17" unicode="&#xac17;" 
d="M369.5 469.5q-107.5 -111.5 -297.5 -163.5l-20 42q169 44 267.5 134.5t106.5 212.5h-339v40h390q0 -154 -107.5 -265.5zM267.5 15q66.5 33 110.5 80.5t44 99.5h-260v40h260v114h47v-114h261v-40h-261q0 -53 44 -100t111 -80t132 -45l-20 -37q-91 20 -174 70.5t-116 118.5
q-33 -68 -115.5 -119t-174.5 -70l-20 37q65 12 131.5 45zM661 796h47v-215h136v-41h-136v-222h-47v478z" />
    <glyph glyph-name="uniAC19" unicode="&#xac19;" 
d="M708 795v-216h136v-41h-136v-209h-47v466h47zM319.5 483q99.5 89 107.5 210h-342v41h394q0 -154 -109 -264t-298 -160l-19 41q167 43 266.5 132zM180 285h532v-38h-485v-109h475v-39h-475v-114h506v-39h-553v339z" />
    <glyph glyph-name="uniAC1A" unicode="&#xac1a;" 
d="M708 794v-221h136v-39h-136v-228h-47v488h47zM315.5 483q102.5 92 111.5 212h-339v40h391q0 -102 -52.5 -187t-144.5 -146.5t-212 -96.5l-18 41q161 45 263.5 137zM161 -10h138v229h-132v40h567v-40h-130v-229h140v-39h-583v39zM559 -10v229h-214v-229h214z" />
    <glyph glyph-name="uniAC1B" unicode="&#xac1b;" 
d="M708 796v-205h136v-41h-136v-214h-47v460h47zM318.5 487.5q99.5 89.5 108.5 211.5h-341v40h392q0 -153 -109 -264t-299 -161l-18 41q167 43 266.5 132.5zM157 266h276v113h45v-113h275v-39h-596v39zM281.5 145.5q62.5 31.5 173.5 31.5q112 0 174 -31.5t62 -89.5
t-62 -89.5t-174 -31.5q-111 0 -173.5 31.5t-62.5 89.5t62.5 89.5zM314.5 -6q51.5 -22 140.5 -22t140.5 22t51.5 62q0 39 -51.5 61.5t-140.5 22.5t-140.5 -22.5t-51.5 -61.5q0 -40 51.5 -62z" />
    <glyph glyph-name="uniAC1C" unicode="&#xac1c;" 
d="M772 796v-863h-46v459h-147v-413h-45v793h45v-339h147v363h46zM284 367q75 125 82 273h-286v40h332q0 -170 -77 -315t-253 -242l-28 35q155 84 230 209z" />
    <glyph glyph-name="uniAC1D" unicode="&#xac1d;" 
d="M767 795v-510h-45v241h-144v-235h-45v487h45v-212h144v229h45zM283 468.5q82 98.5 91 219.5h-284v41h332q0 -148 -87.5 -266t-248.5 -190l-26 35q141 62 223 160.5zM202 240h565v-308h-46v267h-519v41z" />
    <glyph glyph-name="uniAC20" unicode="&#xac20;" 
d="M766 794v-643h-44v327h-144v-296h-45v596h45v-260h144v276h44zM282.5 447.5q81.5 99.5 90.5 222.5h-283v39h331q0 -148 -87.5 -267t-249.5 -192l-25 36q142 62 223.5 161.5zM216 230h47v-227h533v-39h-580v266z" />
    <glyph glyph-name="uniAC23" unicode="&#xac23;" 
d="M772 237v-39h-511v-212h522v-40h-569v291h558zM283 471q82 96 91 217h-284v41h333q0 -147 -88 -263t-248 -187l-26 36q140 60 222 156zM533 778h45v-209h144v225h44v-498h-44v235h-144v-229h-45v476z" />
    <glyph glyph-name="uniAC24" unicode="&#xac24;" 
d="M766 794v-448h-45v199h-143v-193h-46v426h46v-193h143v209h45zM284 498.5q81 88.5 90 202.5h-283v40h331q0 -142 -88.5 -250t-249.5 -169l-22 36q141 52 222 140.5zM210 302h556v-189h-508v-127h546v-40h-591v206h509v111h-512v39z" />
    <glyph glyph-name="uniAC2C" unicode="&#xac2c;" 
d="M767 794v-496h-45v234h-144v-228h-45v474h45v-208h144v224h45zM283.5 471q81.5 96 90.5 217h-284v41h333q0 -147 -88 -263t-248 -187l-26 36q141 60 222.5 156zM214 249h553v-302h-553v302zM722 -13v222h-461v-222h461z" />
    <glyph glyph-name="uniAC2D" unicode="&#xac2d;" 
d="M767 794v-468h-45v207h-144v-201h-45v446h45v-205h144v221h45zM284 482.5q81 92.5 90 210.5h-283v40h331q0 -146 -86.5 -258t-249.5 -178l-25 37q142 56 223 148.5zM216 283h47v-120h460v120h44v-336h-551v336zM723 -13v136h-460v-136h460z" />
    <glyph glyph-name="uniAC2F" unicode="&#xac2f;" 
d="M337 441q-85 -119 -251 -191l-26 36q146 62 225.5 161.5t87.5 224.5h-280v40h329q0 -152 -85 -271zM299.5 20.5q70.5 34.5 118 87t47.5 113.5v46h47v-46q0 -62 47.5 -114t118 -86.5t138.5 -46.5l-19 -37q-98 21 -187 75t-122 131q-34 -77 -122 -131t-187 -75l-18 37
q68 12 138.5 46.5zM532 778h46v-223h143v239h45v-563h-45v284h-143v-206h-46v469z" />
    <glyph glyph-name="uniAC30" unicode="&#xac30;" 
d="M766 795v-503h-45v234h-144v-228h-45v480h45v-212h144v229h45zM281 472q82 96 92 216h-283v41h331q0 -146 -88 -262.5t-247 -186.5l-26 36q139 60 221 156zM197.5 25q41.5 36 65.5 80t24 85v70h45v-70q0 -64 36 -123t100 -93q63 36 101 98.5t38 117.5v70h44v-70
q0 -68 52 -130.5t131 -90.5l-24 -36q-64 25 -112 71.5t-69 104.5q-20 -58 -60.5 -107.5t-98.5 -75.5q-62 25 -103.5 72.5t-59.5 107.5q-22 -56 -69.5 -102.5t-109.5 -70.5l-23 36q51 20 92.5 56z" />
    <glyph glyph-name="uniAC31" unicode="&#xac31;" 
d="M767 794v-537h-45v255h-144v-223h-45v489h45v-225h144v241h45zM282 460.5q82 97.5 92 217.5h-283v41h332q0 -146 -88.5 -263.5t-247.5 -187.5l-27 36q140 59 222 156.5zM278 205q77 41 212 41t211.5 -41t76.5 -114t-76 -113.5t-212 -40.5q-135 0 -212 40.5t-77 113.5
t77 114zM313 6q66 -31 177 -31q110 0 176 31t66 85q0 53 -66 84.5t-176 31.5q-111 0 -177 -31.5t-66 -84.5q0 -54 66 -85z" />
    <glyph glyph-name="uniAC38" unicode="&#xac38;" 
d="M698 796v-245h151v-41h-151v-218h151v-41h-151v-318h-46v863h46zM329.5 365.5q96.5 134.5 105.5 294.5h-340v40h386q0 -184 -98.5 -339t-296.5 -254l-26 37q173 87 269.5 221.5z" />
    <glyph glyph-name="uniAC39" unicode="&#xac39;" 
d="M708 796v-145h136v-41h-136v-145h136v-39h-136v-140h-47v510h47zM319 479q100 93 109 217h-342v40h391q0 -155 -108.5 -269t-298.5 -167l-19 39q168 47 268 140zM158 244h550v-312h-47v271h-503v41z" />
    <glyph glyph-name="uniAC3C" unicode="&#xac3c;" 
d="M708 795v-176h136v-39h-136v-175h136v-39h-136v-210h-47v639h47zM316.5 459q101.5 100 111.5 227h-343v41h393q0 -158 -110 -278.5t-296 -183.5l-20 39q163 55 264.5 155zM184 221h46v-226h522v-40h-568v266z" />
    <glyph glyph-name="uniAC40" unicode="&#xac40;" 
d="M708 795v-123h136v-40h-136v-131h136v-40h-136v-110h-47v444h47zM318 499.5q100 87.5 108 206.5h-341v40h391q0 -152 -109 -259.5t-297 -155.5l-18 39q166 42 266 129.5zM176 307h532v-196h-484v-130h518v-39h-563v209h483v117h-486v39z" />
    <glyph glyph-name="uniAC4B" unicode="&#xac4b;" 
d="M708 796v-161h137v-42h-137v-168h137v-41h-137v-164h-47v576h47zM319 461q100 98 110 225h-342v42h391q0 -158 -108 -276.5t-297 -178.5l-20 38q166 52 266 150zM273.5 24q69.5 36 115.5 91.5t46 124.5v46h45v-46q0 -68 45.5 -122.5t114 -90t139.5 -50.5l-22 -37
q-98 23 -182 77.5t-117 133.5q-33 -81 -119 -136t-185 -79l-21 38q71 14 140.5 50z" />
    <glyph glyph-name="uniAC4D" unicode="&#xac4d;" 
d="M708 796v-152h136v-39h-136v-153h136v-39h-136v-145h-47v528h47zM317.5 463q100.5 97 110.5 223h-342v41h392q0 -157 -109 -274.5t-297 -175.5l-20 39q165 50 265.5 147zM243 214q74 43 201 43t200 -43t73 -118t-73 -117t-200 -42t-201 42t-74 117t74 118zM277.5 9
q63.5 -33 166.5 -33t166 33t63 87q0 55 -63 88.5t-166 33.5q-104 0 -167 -33.5t-63 -88.5q0 -54 63.5 -87z" />
    <glyph glyph-name="uniAC54" unicode="&#xac54;" 
d="M772 796v-863h-46v340h-147v-294h-45v793h45v-213h147v237h46zM284 367q75 125 82 273h-286v40h332q0 -170 -77 -315t-253 -242l-28 35q155 84 230 209zM726 314v204h-147v-204h147z" />
    <glyph glyph-name="uniAC58" unicode="&#xac58;" 
d="M766 794v-643h-44v216h-144v-185h-45v596h45v-159h144v175h44zM282.5 447.5q81.5 99.5 90.5 222.5h-283v39h331q0 -148 -87.5 -267t-249.5 -192l-25 36q142 62 223.5 161.5zM216 230h47v-227h533v-39h-580v266zM722 406v174h-144v-174h144z" />
    <glyph glyph-name="uniAC5C" unicode="&#xac5c;" 
d="M766 794v-448h-45v115h-143v-109h-46v426h46v-115h143v131h45zM284 498.5q81 89.5 90 204.5h-283v40h331q0 -143 -88.5 -252t-249.5 -170l-22 34q141 54 222 143.5zM210 299h556v-195h-508v-126h546v-40h-591v206h509v115h-512v40zM721 499v126h-143v-126h143z" />
    <glyph glyph-name="uniAC65" unicode="&#xac65;" 
d="M767 794v-468h-45v123h-144v-117h-45v446h45v-117h144v133h45zM284 482.5q81 92.5 90 210.5h-283v40h331q0 -146 -86.5 -258t-249.5 -178l-25 37q142 56 223 148.5zM216 283h47v-120h460v120h44v-336h-551v336zM723 -13v136h-460v-136h460zM722 488v133h-144v-133h144z
" />
    <glyph glyph-name="uniAC70" unicode="&#xac70;" 
d="M746 795v-863h-45v466h-227v41h227v356h45zM325 364.5q94 133.5 103 295.5h-340v40h386q0 -185 -96.5 -339.5t-296.5 -253.5l-29 37q179 87 273 220.5z" />
    <glyph glyph-name="uniAC71" unicode="&#xac71;" 
d="M378.5 468q-109.5 -114 -297.5 -169l-20 38q166 48 266 141.5t110 217.5h-334v40h385q0 -154 -109.5 -268zM180 245h567v-311h-47v270h-520v41zM487 558h213v237h47v-510h-47v232h-213v41z" />
    <glyph glyph-name="uniAC74" unicode="&#xac74;" 
d="M747 794v-641h-47v325h-214v40h214v276h47zM324 457q102 101 112 229h-333v41h383q0 -158 -109 -279.5t-294 -184.5l-22 38q161 55 263 156zM216 218h47v-223h506v-40h-553v263z" />
    <glyph glyph-name="uniAC77" unicode="&#xac77;" 
d="M375.5 467.5q-109.5 -114.5 -297.5 -168.5l-18 38q165 48 265.5 141.5t110.5 217.5h-334v40h383q0 -154 -109.5 -268.5zM201 246h548v-41h-501v-219h516v-40h-563v300zM485 550h215v244h47v-495h-47v211h-215v40z" />
    <glyph glyph-name="uniAC78" unicode="&#xac78;" 
d="M746 795v-449h-46v186h-213v38h213v225h46zM325 500q99 87 108 206h-329v40h379q0 -151 -108.5 -258.5t-296.5 -156.5l-17 39q165 43 264 130zM202 304h544v-192h-497v-131h534v-39h-578v209h496v114h-499v39z" />
    <glyph glyph-name="uniAC7A" unicode="&#xac7a;" 
d="M747 795v-462h-47v201h-215v40h215v221h47zM325 497.5q99 87.5 109 207.5h-331v41h380q0 -152 -108 -260t-296 -157l-18 38q165 43 264 130.5zM153 291h270v-184h-222v-122q86 0 137.5 3t107.5 14l5 -38q-59 -11 -111.5 -14.5t-142.5 -3.5h-41v199h222v107h-225v39z
M484 291h263v-345h-263v345zM703 -16v269h-176v-269h176z" />
    <glyph glyph-name="uniAC80" unicode="&#xac80;" 
d="M377.5 468q-109.5 -114 -296.5 -169l-21 38q166 48 266.5 141.5t110.5 217.5h-335v40h385q0 -154 -109.5 -268zM200 258h547v-311h-547v311zM701 -14v234h-455v-234h455zM486 561h214v233h47v-497h-47v223h-214v41z" />
    <glyph glyph-name="uniAC81" unicode="&#xac81;" 
d="M746 795v-462h-46v193h-212v40h212v229h46zM327 488q99 88 109 210h-332v40h383q0 -151 -109.5 -261t-298.5 -161l-18 40q167 44 266 132zM202 285h46v-126h452v126h46v-339h-544v339zM700 -15v135h-452v-135h452z" />
    <glyph glyph-name="uniAC83" unicode="&#xac83;" 
d="M746 795v-593h-46v299h-212v41h212v253h46zM326.5 460q100.5 98 110.5 225h-334v41h383q0 -156 -109 -275t-293 -180l-20 38q162 53 262.5 151zM292.5 23q69.5 36 115.5 91.5t46 124.5v46h47v-46q0 -68 45 -122.5t113.5 -90t139.5 -50.5l-21 -38q-99 23 -183.5 77.5
t-117.5 135.5q-33 -81 -119 -136.5t-186 -79.5l-20 38q71 14 140.5 50z" />
    <glyph glyph-name="uniAC84" unicode="&#xac84;" 
d="M376 468q-109 -114 -296 -169l-21 38q166 48 266 141.5t110 217.5h-328v40h378q0 -154 -109 -268zM187.5 35q41.5 36 65 80t23.5 85v77h45v-77q0 -64 37 -124t101 -93q63 36 101.5 99t38.5 118v77h44v-77q0 -68 51.5 -130.5t130.5 -90.5l-24 -36q-65 25 -112.5 71
t-68.5 103q-19 -57 -60.5 -106t-99.5 -75q-61 24 -103 71t-60 106q-24 -55 -71 -100.5t-108 -69.5l-24 36q52 20 93.5 56zM487 563h212v232h47v-498h-47v225h-212v41z" />
    <glyph glyph-name="uniAC85" unicode="&#xac85;" 
d="M747 794v-530h-47v232h-214v41h214v257h47zM325.5 464q102.5 97 111.5 222h-333v41h384q0 -156 -110.5 -273t-295.5 -176l-21 38q162 51 264.5 148zM264.5 213.5q75.5 42.5 206.5 42.5q130 0 205 -42.5t75 -117.5t-74.5 -117t-205.5 -42t-206.5 42t-75.5 117t75.5 117.5z
M299 8.5q65 -32.5 172 -32.5q106 0 170.5 33t64.5 87q0 55 -64.5 88t-170.5 33q-108 0 -172.5 -33t-64.5 -88t65 -87.5z" />
    <glyph glyph-name="uniAC86" unicode="&#xac86;" 
d="M387.5 467q-111.5 -113 -302.5 -166l-19 39q168 46 271 139t113 217h-348v40h397q0 -156 -111.5 -269zM303.5 16.5q66.5 32.5 110 79.5t43.5 101v6h-253v41h555v-41h-254v-6q0 -53 44 -100.5t110.5 -80t131.5 -44.5l-19 -37q-93 20 -175.5 70t-114.5 119
q-32 -69 -114.5 -119t-175.5 -70l-21 37q66 12 132.5 44.5zM487 557h213v238h46v-502h-46v223h-213v41z" />
    <glyph glyph-name="uniAC89" unicode="&#xac89;" 
d="M750 284v-38h-496v-108h485v-40h-485v-113h514v-39h-560v338h542zM326.5 483.5q99.5 90.5 108.5 212.5h-332v40h383q0 -154 -108.5 -265t-298.5 -162l-19 40q167 44 266.5 134.5zM491 563h209v232h47v-475h-47v202h-209v41z" />
    <glyph glyph-name="uniAC8A" unicode="&#xac8a;" 
d="M376.5 469q-110.5 -113 -296.5 -165l-19 40q164 45 264.5 136.5t110.5 214.5h-333v40h384q0 -153 -110.5 -266zM179 -13h141v229h-134v41h568v-41h-134v-229h145v-40h-586v40zM574 -13v229h-209v-229h209zM485 559h215v235h47v-493h-47v217h-215v41z" />
    <glyph glyph-name="uniAC8B" unicode="&#xac8b;" 
d="M375.5 476.5q-107.5 -110.5 -295.5 -161.5l-19 40q166 43 264.5 133t107.5 212h-330v39h380q0 -152 -107.5 -262.5zM173 264h277v110h46v-110h275v-38h-598v38zM298 145.5q63 31.5 175 31.5q111 0 173.5 -31.5t62.5 -88.5q0 -58 -62.5 -89.5t-173.5 -31.5
q-112 0 -175 31.5t-63 89.5q0 57 63 88.5zM333.5 -5.5q51.5 -22.5 139.5 -22.5q86 0 137 23t51 62q0 38 -51.5 60.5t-136.5 22.5q-87 0 -139 -22.5t-52 -60.5q0 -40 51.5 -62.5zM484 575h216v221h47v-461h-47v200h-216v40z" />
    <glyph glyph-name="uniAC8C" unicode="&#xac8c;" 
d="M773 796v-863h-46v863h46zM278.5 371.5q80.5 126.5 88.5 269.5h-283v40h329q0 -136 -54 -254h191v343h44v-789h-44v406h-210q-84 -157 -256 -263l-30 35q144 86 224.5 212.5z" />
    <glyph glyph-name="uniAC90" unicode="&#xac90;" 
d="M766 794v-651h-44v651h44zM286 447.5q83 99.5 92 222.5h-287v40h334q0 -110 -48 -202h176v269h44v-608h-44v299h-199q-89 -138 -270 -217l-24 35q143 62 226 161.5zM217 224h47v-229h532v-40h-579v269z" />
    <glyph glyph-name="uniAC94" unicode="&#xac94;" 
d="M766 794v-448h-45v448h45zM287.5 497.5q82.5 89.5 91.5 205.5h-287v40h334q0 -91 -37 -171h164v204h44v-424h-44v181h-185q-43 -69 -114 -123t-168 -90l-24 35q143 53 225.5 142.5zM210 299h556v-190h-508v-123h546v-40h-591v203h508v110h-511v40z" />
    <glyph glyph-name="uniAC9C" unicode="&#xac9c;" 
d="M386 548h168v228h44v-468h-44v200h-189q-43 -72 -113.5 -130t-163.5 -98l-26 35q141 59 224 155.5t93 217.5h-287v41h333q0 -94 -39 -181zM215 253h552v-305h-552v305zM723 -13v226h-463v-226h463zM722 794h45v-497h-45v497z" />
    <glyph glyph-name="uniAC9D" unicode="&#xac9d;" 
d="M385 552h169v224h44v-449h-44v185h-190q-85 -139 -279 -218l-24 35q145 57 226 150.5t90 213.5h-284v40h331q0 -98 -39 -181zM216 281h47v-120h460v120h44v-335h-551v335zM723 -15v136h-460v-136h460zM722 794h45v-475h-45v475z" />
    <glyph glyph-name="uniAC9F" unicode="&#xac9f;" 
d="M766 794v-583h-45v583h45zM285 448q83 100 92 224h-287v40h334q0 -97 -38 -184h167v248h44v-490h-44v201h-188q-43 -74 -114 -134.5t-166 -102.5l-26 36q143 62 226 162zM296.5 21.5q71.5 34.5 119.5 86.5t48 113v47h47v-47q0 -61 48 -113t119 -86.5t139 -46.5l-19 -37
q-99 20 -188.5 74t-122.5 131q-34 -77 -123 -131t-188 -74l-19 37q68 12 139.5 46.5z" />
    <glyph glyph-name="uniACA0" unicode="&#xaca0;" 
d="M379 536h174v240h44v-470h-44v189h-198q-89 -137 -270 -216l-25 36q141 59 224 155.5t93 217.5h-286v41h333q0 -101 -45 -193zM197.5 25q41.5 36 65.5 80t24 85v70h45v-70q0 -64 36 -123t100 -93q63 36 101 98.5t38 117.5v70h44v-70q0 -68 52 -130.5t131 -90.5l-24 -36
q-64 25 -112 72t-69 104q-19 -57 -60 -107t-99 -76q-62 25 -103.5 72.5t-59.5 107.5q-22 -56 -69.5 -102.5t-109.5 -70.5l-23 36q51 20 92.5 56zM721 795h45v-504h-45v504z" />
    <glyph glyph-name="uniACA1" unicode="&#xaca1;" 
d="M384 535h169v241h45v-487h-45v205h-191q-43 -71 -113 -128.5t-163 -97.5l-26 36q141 59 224.5 156t93.5 218h-287v41h334q0 -99 -41 -184zM279 204.5q77 41.5 212 41.5t211.5 -41.5t76.5 -114.5q0 -72 -76.5 -112.5t-211.5 -40.5q-136 0 -212.5 40.5t-76.5 112.5
q0 73 77 114.5zM314 6q66 -31 177 -31q109 0 175 31t66 84q0 54 -66 85.5t-175 31.5q-111 0 -177 -31.5t-66 -85.5q0 -53 66 -84zM722 794h45v-537h-45v537z" />
    <glyph glyph-name="uniACA8" unicode="&#xaca8;" 
d="M461 548h240v249h45v-863h-45v346h-264v41h264v188h-251q-38 -125 -130 -228t-241 -175l-26 38q179 86 274.5 220t104.5 296h-343v40h389q0 -76 -17 -152z" />
    <glyph glyph-name="uniACA9" unicode="&#xaca9;" 
d="M479 631h221v164h47v-516h-47v130h-248v39h248v142h-235q-43 -102 -142.5 -177t-240.5 -115l-19 38q167 47 268.5 141t111.5 218h-339v40h389q0 -53 -14 -104zM180 240h567v-306h-47v265h-520v41z" />
    <glyph glyph-name="uniACAA" unicode="&#xacaa;" 
d="M478 631h222v164h47v-504h-47v118h-250v40h250v141h-237q-42 -101 -141 -175.5t-240 -114.5l-20 38q167 47 268.5 140.5t111.5 217.5h-338v40h388q0 -54 -14 -105zM164 246h273v-313h-47v272h-226v41zM480 246h267v-313h-47v272h-220v41z" />
    <glyph glyph-name="uniACAC" unicode="&#xacac;" 
d="M747 794v-645h-47v226h-252v40h252v154h-242q-44 -103 -141 -182t-232 -125l-23 38q163 56 265.5 156.5t112.5 228.5h-336v42h386q0 -61 -17 -118h227v185h47zM216 211h47v-216h506v-40h-553v256z" />
    <glyph glyph-name="uniACAF" unicode="&#xacaf;" 
d="M477 639h223v155h47v-495h-47v118h-250v40h250v141h-237q-41 -104 -140 -180.5t-241 -117.5l-20 38q166 47 266.5 140.5t110.5 217.5h-337v40h387q0 -50 -12 -97zM201 246h548v-41h-501v-219h516v-40h-563v300z" />
    <glyph glyph-name="uniACB0" unicode="&#xacb0;" 
d="M746 795v-445h-46v106h-250v39h250v124h-234q-39 -104 -139 -177.5t-246 -110.5l-18 39q167 42 266 129t108 207h-333v40h384q0 -47 -10 -87h222v136h46zM202 304h544v-192h-497v-131h534v-39h-578v209h496v114h-499v39z" />
    <glyph glyph-name="uniACB7" unicode="&#xacb7;" 
d="M746 796v-449h-46v112h-251v37h251v126h-235q-39 -102 -139.5 -174.5t-245.5 -106.5l-17 39q165 40 265 125t109 203h-333v40h384q0 -40 -10 -87h222v135h46zM144 291h268v-180h-220v-126q95 0 147 3t110 14l5 -38q-61 -11 -116 -14.5t-148 -3.5h-43v203h220v103h-223v39
zM447 246h152v89h46v-89h153v-40h-351v40zM515 131.5q42 31.5 107 31.5q64 0 106 -31.5t42 -81.5q0 -52 -41.5 -83.5t-106.5 -31.5t-107 31.5t-42 83.5q0 50 42 81.5zM545 -8q30 -22 77 -22t76 22t29 58q0 34 -29 56t-76 22t-77 -22.5t-30 -55.5q0 -36 30 -58z" />
    <glyph glyph-name="uniACB8" unicode="&#xacb8;" 
d="M700 459v135h-238q-42 -102 -141 -178t-240 -117l-20 38q166 48 267 141.5t111 217.5h-337v40h387q0 -49 -13 -101h224v159h47v-498h-47v123h-250v40h250zM200 258h547v-311h-547v311zM701 -14v233h-455v-233h455z" />
    <glyph glyph-name="uniACB9" unicode="&#xacb9;" 
d="M700 471v134h-237q-40 -102 -139.5 -176t-243.5 -113l-20 40q168 44 267.5 132t109.5 210h-333v40h384q0 -48 -12 -93h224v150h46v-462h-46v99h-250v39h250zM202 285h46v-126h452v126h46v-339h-544v339zM700 -15v135h-452v-135h452z" />
    <glyph glyph-name="uniACBB" unicode="&#xacbb;" 
d="M700 436v143h-241q-42 -104 -140 -183t-235 -125l-21 38q163 52 264 150.5t111 225.5h-335v41h384q0 -57 -15 -108h228v176h46v-592h-46v193h-252v41h252zM293.5 24q69.5 36 115 91.5t45.5 124.5v45h47v-45q0 -68 45 -122.5t113.5 -90t139.5 -50.5l-21 -38
q-99 23 -183.5 77.5t-117.5 135.5q-33 -82 -118.5 -137t-186.5 -78l-19 37q71 14 140.5 50z" />
    <glyph glyph-name="uniACBC" unicode="&#xacbc;" 
d="M699 457v137h-239q-42 -102 -141 -178t-240 -117l-20 38q166 47 267 141t111 218h-330v40h380q0 -49 -13 -101h225v160h47v-498h-47v119h-250v41h250zM187.5 35q41.5 36 65 80t23.5 85v77h45v-77q0 -64 37 -124t101 -93q63 36 101.5 99t38.5 118v77h44v-77
q0 -68 51.5 -130.5t130.5 -90.5l-24 -36q-65 25 -112.5 71t-68.5 103q-19 -57 -60.5 -106t-99.5 -75q-61 24 -103 71t-60 106q-24 -55 -71 -100.5t-108 -69.5l-24 36q52 20 93.5 56z" />
    <glyph glyph-name="uniACBD" unicode="&#xacbd;" 
d="M700 441v140h-240q-42 -103 -141 -180.5t-237 -122.5l-20 38q162 51 264 148t111 222h-333v41h385q0 -56 -15 -107h226v174h47v-530h-47v136h-252v41h252zM264.5 213q75.5 42 206.5 42q130 0 205 -42t75 -117t-74.5 -117t-205.5 -42t-206.5 42t-75.5 117t75.5 117z
M299 8.5q65 -32.5 172 -32.5q106 0 170.5 33t64.5 87q0 55 -64.5 87.5t-170.5 32.5q-108 0 -172.5 -32.5t-64.5 -87.5t65 -87.5z" />
    <glyph glyph-name="uniACC1" unicode="&#xacc1;" 
d="M700 477v129h-236q-39 -105 -138.5 -181.5t-246.5 -115.5l-20 40q169 44 268.5 134.5t108.5 212.5h-333v40h384q0 -46 -11 -92h224v151h47v-475h-47v118h-249v39h249zM208 284h542v-38h-496v-108h485v-40h-485v-113h514v-39h-560v338z" />
    <glyph glyph-name="uniACC4" unicode="&#xacc4;" 
d="M557 330v178h-169q-33 -115 -109 -213.5t-196 -170.5l-29 35q144 86 224 212.5t88 269.5h-282v40h328q0 -66 -14 -134h159v223h46v-789h-46v309h-182v40h182zM727 796h46v-863h-46v863z" />
    <glyph glyph-name="uniACC8" unicode="&#xacc8;" 
d="M561 404v150h-163q-36 -98 -116.5 -176.5t-199.5 -131.5l-23 35q143 63 226 163.5t93 225.5h-287v40h334q0 -61 -15 -118h151v185h46v-604h-46v192h-179v39h179zM218 228h47v-233h531v-40h-578v273zM722 794h44v-643h-44v643z" />
    <glyph glyph-name="uniACCC" unicode="&#xaccc;" 
d="M561 494v118h-156q-33 -97 -114.5 -171t-204.5 -121l-24 35q143 53 225 142.5t91 205.5h-286v40h334q0 -51 -10 -92h145v125h46v-428h-46v106h-165v40h165zM210 299h556v-190h-508v-128h546v-39h-591v205h508v112h-511v40zM721 794h45v-452h-45v452z" />
    <glyph glyph-name="uniACD5" unicode="&#xacd5;" 
d="M562 474v126h-159q-32 -99 -113 -176t-205 -126l-25 36q145 56 226.5 148t90.5 211h-284v40h331q0 -51 -10 -94h148v137h45v-450h-45v110h-164v38h164zM216 282h47v-120h460v120h44v-335h-551v335zM723 -13v135h-460v-135h460zM722 794h45v-475h-45v475z" />
    <glyph glyph-name="uniACD7" unicode="&#xacd7;" 
d="M553 447v131h-149q-32 -104 -114 -188.5t-205 -139.5l-26 36q143 62 226 162t92 224h-287v40h334q0 -51 -10 -95h139v159h44v-499h-44v131h-157v39h157zM296.5 20q71.5 34 119.5 86t48 113v41h47v-41q0 -61 48 -113t119 -86t139 -46l-19 -37q-98 19 -187.5 73t-123.5 131
q-34 -77 -123 -131t-188 -73l-19 37q68 12 139.5 46zM721 794h45v-588h-45v588z" />
    <glyph glyph-name="uniACE0" unicode="&#xace0;" 
d="M718 699v-87q0 -108 -5 -193t-24 -197l-47 7q20 107 25 191.5t5 191.5v47h-541v40h587zM45 106h323v316h46v-316h410v-40h-779v40z" />
    <glyph glyph-name="uniACE1" unicode="&#xace1;" 
d="M388 375v186h46v-186h390v-39h-778v39h342zM132 220h593v-287h-46v247h-547v40zM141 746h581v-68q0 -67 -3.5 -118.5t-18.5 -113.5l-47 6q15 62 19 111.5t4 114.5v28h-535v40z" />
    <glyph glyph-name="uniACE4" unicode="&#xace4;" 
d="M722 742v-59q0 -71 -4 -129.5t-20 -133.5l-46 6q16 74 20 131t4 126v19h-535v40h581zM46 352h342v189h46v-189h390v-39h-778v39zM150 213h46v-218h549v-40h-595v258z" />
    <glyph glyph-name="uniACE7" unicode="&#xace7;" 
d="M722 754v-74q0 -70 -4 -119.5t-20 -107.5l-46 6q16 59 20 106.5t4 114.5v35h-535v39h581zM46 393h342v174h46v-174h390v-40h-778v40zM148 240h574v-40h-527v-213h539v-39h-586v292z" />
    <glyph glyph-name="uniACE8" unicode="&#xace8;" 
d="M722 759v-59q0 -60 -3 -105.5t-15 -99.5l-46 5q12 55 15 98.5t3 101.5v19h-535v40h581zM46 437h342v167h46v-167h390v-41h-778v41zM141 298h585v-188h-536v-125h558v-38h-604v201h536v111h-539v39z" />
    <glyph glyph-name="uniACEA" unicode="&#xacea;" 
d="M721 753v-51q0 -63 -3 -115t-16 -116l-45 4q13 65 16 116t3 111v12h-535v39h580zM46 419h342v170h46v-170h390v-41h-778v41zM130 282h272v-178h-224v-120q93 0 144 3t106 14l7 -38q-59 -11 -111.5 -14t-148.5 -3h-42v195h224v103h-227v38zM464 282h272v-336h-272v336z
M693 -16v261h-187v-261h187z" />
    <glyph glyph-name="uniACEC" unicode="&#xacec;" 
d="M634 303v-85q0 -72 41.5 -141.5t114.5 -102.5l-26 -35q-56 27 -95 75.5t-58 108.5q-18 -60 -56.5 -108.5t-94.5 -75.5l-27 35q73 34 114.5 103t41.5 141v85h45zM46 421h342v172h46v-172h390v-41h-778v41zM130 283h272v-178h-224v-121q88 0 136 3t101 14l7 -39
q-57 -10 -107.5 -13t-140.5 -3h-41v195h224v104h-227v38zM141 757h581v-72q0 -66 -3 -111.5t-16 -99.5l-46 6q13 54 16 97.5t3 107.5v33h-535v39z" />
    <glyph glyph-name="uniACEF" unicode="&#xacef;" 
d="M582 233v88h46v-88h157v-39h-357v39h154zM46 426h342v174h46v-174h390v-40h-778v40zM130 290h264v-182h-217v-123q96 0 148 3t108 14l6 -38q-60 -11 -115 -14t-149 -3h-42v199h216v106h-219v38zM141 765h580v-52q0 -61 -3 -112.5t-16 -115.5l-45 5q13 65 16 114.5
t3 108.5v12h-535v40zM505 125.5q39 29.5 101 29.5q61 0 100 -29.5t39 -80.5t-39 -80.5t-100 -29.5q-62 0 -101 29.5t-39 80.5t39 80.5zM534.5 -9q27.5 -20 71.5 -20t70.5 20t26.5 54t-26.5 54t-70.5 20t-71.5 -20t-27.5 -54t27.5 -54z" />
    <glyph glyph-name="uniACF0" unicode="&#xacf0;" 
d="M727 242v-296h-583v296h583zM46 395h342v179h46v-179h390v-40h-778v40zM141 754h581v-74q0 -70 -4 -119t-20 -108l-46 7q16 58 20 105.5t4 114.5v35h-535v39zM681 -14v217h-491v-217h491z" />
    <glyph glyph-name="uniACF1" unicode="&#xacf1;" 
d="M722 757v-68q0 -65 -4 -113.5t-20 -107.5l-46 6q16 59 20 105.5t4 109.5v29h-535v39h581zM47 418h341v160h46v-160h391v-41h-778v41zM153 289h46v-122h473v122h45v-343h-564v343zM672 -14v142h-473v-142h473z" />
    <glyph glyph-name="uniACF3" unicode="&#xacf3;" 
d="M721 753v-57q0 -67 -4 -122.5t-20 -124.5l-44 6q15 70 19 123t4 118v18h-535v39h580zM46 380h342v184h46v-184h390v-39h-778v39zM249 19q69 32 114 82t45 112v48h47v-48q0 -62 45.5 -112t114.5 -82t141 -44l-20 -38q-101 20 -186 70.5t-118 125.5q-32 -75 -117.5 -125.5
t-186.5 -70.5l-19 38q71 12 140 44z" />
    <glyph glyph-name="uniACF5" unicode="&#xacf5;" 
d="M650 204q80 -42 80 -114t-80 -113t-217 -41t-216.5 41t-79.5 113q0 73 79.5 114.5t216.5 41.5t217 -42zM46 382h342v178h46v-178h390v-40h-778v40zM141 748h580v-74q0 -70 -4 -119t-20 -109l-45 7q16 59 20 106.5t4 114.5v35h-535v39zM214.5 30q31.5 -26 88.5 -40.5
t130 -14.5q74 0 131 14.5t88 40.5t31 60q0 35 -31 62t-88 41.5t-131 14.5q-73 0 -130 -14.5t-88.5 -41.5t-31.5 -62q0 -34 31.5 -60z" />
    <glyph glyph-name="uniACF6" unicode="&#xacf6;" 
d="M731 241v-39h-271q3 -61 50 -108.5t116 -77.5t140 -42l-18 -37q-103 19 -190.5 68t-120.5 125q-33 -76 -120.5 -125t-190.5 -68l-18 37q71 12 140 42t116 77.5t50 108.5h-273v39h590zM46 399h342v171h46v-171h390v-41h-778v41zM141 757h581v-72q0 -69 -4 -117.5
t-19 -105.5l-46 7q15 57 19 103.5t4 112.5v33h-535v39z" />
    <glyph glyph-name="uniACFC" unicode="&#xacfc;" 
d="M514 695v-30q0 -75 -4.5 -157t-21.5 -193l-47 4q27 171 27 335h-382v41h428zM238 177v271h46v-270q177 5 302 21l2 -35q-208 -31 -544 -33l-8 43q94 0 202 3zM649 796h45v-371h154v-42h-154v-450h-45v863z" />
    <glyph glyph-name="uniACFD" unicode="&#xacfd;" 
d="M514 734v-38q0 -58 -4 -114.5t-20 -128.5l-47 6q16 72 20.5 125.5t4.5 109.5h-370v40h416zM245 366v188h45v-187q177 7 301 24l4 -35q-210 -35 -544 -35l-7 42q93 0 201 3zM150 216h554v-275h-47v235h-507v40zM657 795h47v-252h137v-40h-137v-237h-47v529z" />
    <glyph glyph-name="uniAD00" unicode="&#xad00;" 
d="M515 726v-41q0 -61 -4 -120.5t-20 -135.5l-47 5q16 77 20.5 134.5t4.5 116.5h-371v41h417zM245 340v199h45v-197q178 7 301 24l4 -37q-205 -33 -544 -33l-7 42q129 0 201 2zM180 203h47v-208h505v-40h-552v248zM657 795h47v-293h138v-41h-138v-317h-47v651z" />
    <glyph glyph-name="uniAD04" unicode="&#xad04;" 
d="M514 740v-35q0 -53 -4 -105.5t-20 -119.5l-46 6q15 65 19.5 115t4.5 99h-370v40h416zM244 403v169h46v-167q171 5 302 23l4 -36q-206 -32 -544 -32l-7 41q128 0 199 2zM159 284h545v-182h-497v-120h531v-38h-577v197h497v105h-499v38zM657 795h47v-221h137v-40h-137v-206
h-47v467z" />
    <glyph glyph-name="uniAD06" unicode="&#xad06;" 
d="M387 270v-174h-215v-112q88 0 136.5 3t100.5 14l6 -38q-56 -11 -105.5 -14t-141.5 -3h-41v188h216v98h-219v38h263zM244 409v168h46v-166q174 5 302 24l4 -37q-122 -20 -255.5 -26t-288.5 -6l-7 41q128 0 199 2zM98 740h416v-34q0 -53 -4 -105t-20 -119l-46 5
q15 65 19.5 114.5t4.5 98.5h-370v40zM441 270h263v-324h-263v324zM661 -17v249h-177v-249h177zM657 795h47v-227h137v-40h-137v-212h-47v479z" />
    <glyph glyph-name="uniAD0C" unicode="&#xad0c;" 
d="M514 737v-36q0 -54 -4 -107.5t-20 -122.5l-47 5q16 67 20.5 118.5t4.5 101.5h-370v41h416zM245 380v176h45v-174q173 5 301 24l4 -36q-122 -20 -256 -26t-288 -6l-7 40q129 0 201 2zM170 231h534v-284h-534v284zM658 -13v204h-442v-204h442zM657 795h47v-237h137v-41
h-137v-239h-47v517z" />
    <glyph glyph-name="uniAD0D" unicode="&#xad0d;" 
d="M514 739v-35q0 -54 -4 -106.5t-20 -120.5l-46 5q15 66 19.5 117t4.5 100h-370v40h416zM244 396v167h46v-166q179 7 303 24l3 -36q-205 -33 -544 -33l-7 41q93 0 199 3zM172 277h47v-118h438v118h47v-331h-532v331zM657 -14v135h-438v-135h438zM657 795h47v-225h137v-39
h-137v-217h-47v481z" />
    <glyph glyph-name="uniAD0F" unicode="&#xad0f;" 
d="M514 735v-37q0 -57 -4.5 -113.5t-20.5 -128.5l-46 5q16 72 20.5 125t4.5 109h-370v40h416zM245 363v186h45v-184q178 7 301 24l4 -36q-120 -20 -255.5 -26.5t-288.5 -6.5l-7 41q129 0 201 2zM271.5 17.5q68.5 31.5 113 80t44.5 108.5v40h47v-40q0 -60 44.5 -108.5
t113 -80t139.5 -43.5l-19 -38q-100 20 -184 69t-117 122q-33 -73 -117.5 -122t-183.5 -69l-20 38q71 12 139.5 43.5zM657 796h47v-270h137v-42h-137v-276h-47v588z" />
    <glyph glyph-name="uniAD10" unicode="&#xad10;" 
d="M306 239v-40q0 -62 36.5 -122.5t100.5 -93.5q64 33 101.5 94t37.5 122v40h43v-37q0 -68 51 -129.5t130 -89.5l-23 -36q-63 24 -109.5 68t-69.5 99q-18 -57 -59.5 -105t-100.5 -73q-61 25 -102 72.5t-60 105.5q-22 -55 -68.5 -99t-109.5 -68l-23 36q79 28 129.5 89.5
t50.5 129.5v37h45zM245 379v177h45v-176q173 5 301 24l4 -36q-122 -19 -257.5 -25.5t-286.5 -6.5l-7 41q129 0 201 2zM98 737h416v-36q0 -54 -4 -107.5t-20 -122.5l-47 5q16 67 20.5 118.5t4.5 101.5h-370v41zM657 796h47v-238h137v-41h-137v-239h-47v518z" />
    <glyph glyph-name="uniAD11" unicode="&#xad11;" 
d="M514 736v-40q0 -58 -4 -113t-20 -124l-47 5q16 70 20.5 122.5t4.5 109.5h-370v40h416zM245 369v185h45v-183q171 5 301 23l4 -36q-212 -33 -544 -33l-7 42q129 0 201 2zM231 198q73 39 204 39t204 -39t73 -111t-73.5 -111.5t-203.5 -39.5t-203.5 39.5t-73.5 111.5t73 111
zM266 5q63 -30 169 -30q105 0 168 30t63 82t-63 82t-168 30q-106 0 -169 -30t-63 -82t63 -82zM657 796h47v-251h137v-42h-137v-254h-47v547z" />
    <glyph glyph-name="uniAD18" unicode="&#xad18;" 
d="M436 692v-54q0 -79 -3.5 -150t-15.5 -163l-45 2q13 91 16.5 162t3.5 149v14h-312v40h356zM203 193v256h45v-254q142 5 242 19l2 -35q-170 -29 -447 -29l-8 41q44 0 166 2zM540 773h46v-355h131v378h46v-863h-46v443h-131v-393h-46v790z" />
    <glyph glyph-name="uniAD1C" unicode="&#xad1c;" 
d="M442 726v-58q0 -64 -3.5 -115.5t-16.5 -116.5l-45 5q14 65 17.5 115.5t3.5 111.5v17h-308v41h352zM212 348v183h44v-181q144 5 235 17l2 -36q-172 -28 -447 -28l-7 43q109 0 173 2zM203 207h45v-212h538v-40h-583v252zM537 780h45v-273h130v287h46v-656h-46v328h-130
v-299h-45v613z" />
    <glyph glyph-name="uniAD20" unicode="&#xad20;" 
d="M442 743v-51q0 -56 -3 -103t-16 -104l-45 5q13 58 16.5 102.5t3.5 99.5v10h-308v41h352zM212 402v166h44v-165q132 5 234 18l3 -36q-175 -26 -447 -26l-8 40q78 0 174 3zM196 277h562v-179h-514v-113h550v-39h-595v191h514v102h-517v38zM537 780h44v-210h131v225h46v-477
h-46v214h-131v-207h-44v455z" />
    <glyph glyph-name="uniAD22" unicode="&#xad22;" 
d="M421 275v-177h-235v-114q98 0 149.5 3t105.5 14l7 -37q-58 -12 -110.5 -15t-152.5 -3h-44v191h235v101h-236v37h281zM212 409v162h45v-161q132 5 234 18l2 -36q-165 -26 -446 -26l-8 40q77 0 173 3zM91 743h351v-51q0 -56 -3 -103t-15 -104l-45 5q13 58 16 102.5t3 99.5
v10h-307v41zM481 275h278v-329h-278v329zM715 -16v254h-189v-254h189zM538 780h44v-205h131v220h46v-468h-46v208h-131v-202h-44v447z" />
    <glyph glyph-name="uniAD29" unicode="&#xad29;" 
d="M442 740v-54q0 -59 -3 -108t-16 -110l-45 4q13 61 16.5 109t3.5 105v14h-307v40h351zM212 386v172h45v-171q143 5 234 17l2 -35q-165 -26 -447 -26l-7 40q77 0 173 3zM197 271h47v-115h468v115h47v-325h-562v325zM712 -14v130h-468v-130h468zM538 780h44v-217h131v232h46
v-485h-46v213h-131v-206h-44v463z" />
    <glyph glyph-name="uniAD2C" unicode="&#xad2c;" 
d="M441 734v-55q0 -61 -3 -111.5t-16 -112.5l-44 6q13 62 16 110.5t3 107.5v15h-307v40h351zM211 365v176h44v-175q138 5 235 19l2 -34q-95 -18 -201.5 -23t-244.5 -6l-7 41q108 0 172 2zM231.5 69q51.5 62 51.5 131v38h45v-38q0 -61 36.5 -122t100.5 -95q64 34 101 95
t37 122v38h44v-38q0 -70 51.5 -131.5t131.5 -88.5l-23 -36q-65 24 -112.5 69t-68.5 103q-19 -58 -60 -106t-101 -74q-61 26 -101.5 73.5t-59.5 106.5q-21 -57 -68.5 -102.5t-112.5 -69.5l-23 36q80 27 131.5 89zM536 780h45v-237h131v253h46v-525h-46v231h-131v-224h-45v502
z" />
    <glyph glyph-name="uniAD2D" unicode="&#xad2d;" 
d="M442 727v-58q0 -62 -3 -113t-16 -114l-45 3q13 64 16.5 114t3.5 110v18h-307v40h351zM212 358v178h45v-177q148 5 234 19l2 -34q-155 -29 -446 -29l-8 41q109 0 173 2zM259 184.5q75 37.5 212 37.5q136 0 212 -37.5t76 -106.5q0 -68 -76 -105.5t-212 -37.5t-211.5 37.5
t-75.5 105.5q0 69 75 106.5zM295 1.5q65 -27.5 176 -27.5t176 27.5t65 76.5t-65 77t-176 28t-176 -28t-65 -77t65 -76.5zM538 780h44v-234h131v249h46v-549h-46v262h-131v-236h-44v508z" />
    <glyph glyph-name="uniAD34" unicode="&#xad34;" 
d="M534 691v-26q0 -73 -4.5 -155.5t-22.5 -194.5l-46 7q28 167 28 329h-383v40h428zM262 175v267h46v-265q180 5 321 23l5 -36q-220 -34 -574 -34l-8 43q136 0 210 2zM692 796h46v-864h-46v864z" />
    <glyph glyph-name="uniAD35" unicode="&#xad35;" 
d="M524 734v-38q0 -58 -4 -114.5t-20 -128.5l-46 5q17 72 21.5 126t4.5 110h-368v40h412zM262 356v187h46v-186q189 7 307 23l4 -35q-126 -19 -262.5 -25.5t-299.5 -7.5l-8 42q137 0 213 2zM175 210h570v-278h-47v238h-523v40zM698 796h47v-540h-47v540z" />
    <glyph glyph-name="uniAD38" unicode="&#xad38;" 
d="M530 726v-43q0 -61 -4.5 -120t-21.5 -135l-45 6q17 76 21.5 132.5t4.5 116.5v2h-375v41h420zM263 334v193h46v-191q172 7 306 22l3 -38q-223 -30 -561 -32l-8 43q102 0 214 3zM205 194h46v-199h520v-40h-566v239zM697 795h47v-658h-47v658z" />
    <glyph glyph-name="uniAD3C" unicode="&#xad3c;" 
d="M523 742v-35q0 -53 -4 -105.5t-19 -119.5l-45 4q23 105 23 216h-367v40h412zM262 404v176h46v-175q182 7 306 25l4 -37q-215 -33 -562 -33l-7 41q137 0 213 3zM186 276h558v-177h-510v-114h547v-39h-593v191h510v101h-512v38zM697 795h47v-476h-47v476z" />
    <glyph glyph-name="uniAD44" unicode="&#xad44;" 
d="M745 794v-516h-47v516h47zM262 377v172h46v-170q175 5 307 24l4 -35q-128 -20 -264 -26.5t-298 -7.5l-8 41q137 0 213 2zM112 738h412v-41q0 -57 -4 -110t-19 -120l-45 5q16 68 20 119t4 106v1h-368v40zM194 230h551v-284h-551v284zM699 -14v204h-460v-204h460z" />
    <glyph glyph-name="uniAD45" unicode="&#xad45;" 
d="M745 794v-484h-47v484h47zM262 381v165h46v-163q176 7 307 23l4 -36q-228 -32 -562 -32l-8 40q101 0 213 3zM112 740h411v-53q0 -57 -4 -106t-18 -112l-45 5q16 62 20 110t4 103v13h-368v40zM187 268h46v-115h465v115h47v-322h-558v322zM698 -15v128h-465v-128h465z" />
    <glyph glyph-name="uniAD47" unicode="&#xad47;" 
d="M744 794v-613h-47v613h47zM262 359v180h45v-178q187 7 307 22l4 -35q-234 -34 -562 -34l-7 42q101 0 213 3zM112 735h411v-55q0 -62 -3.5 -112t-18.5 -113l-45 6q16 63 20 111t4 108v15h-368v40zM285 23q69 31 114 79.5t45 107.5v38h46v-38q0 -59 45 -107.5t114 -79.5
t139 -43l-18 -37q-100 18 -185 66.5t-118 121.5q-33 -73 -118 -121.5t-184 -66.5l-19 37q70 12 139 43z" />
    <glyph glyph-name="uniAD49" unicode="&#xad49;" 
d="M745 796v-551h-47v551h47zM262 361v175h46v-173q175 5 307 24l4 -35q-128 -21 -267 -27.5t-295 -6.5l-8 41q137 0 213 2zM112 737h412v-55q0 -63 -4 -115.5t-19 -117.5l-44 6q16 66 20 116t4 111v15h-369v40zM260.5 197.5q74.5 39.5 207.5 39.5q132 0 206 -39.5
t74 -111.5q0 -71 -74 -110.5t-206 -39.5t-207 39.5t-75 110.5q0 72 74.5 111.5zM297 5q64 -30 171 -30t170.5 30t63.5 81q0 52 -63.5 82t-170.5 30t-171 -30t-64 -82q0 -51 64 -81z" />
    <glyph glyph-name="uniAD50" unicode="&#xad50;" 
d="M717 699v-103q0 -112 -4.5 -191.5t-23.5 -180.5l-47 7q21 97 26 176t5 189v63h-543v40h587zM45 106h212v294h46v-294h166v294h47v-294h308v-40h-779v40z" />
    <glyph glyph-name="uniAD54" unicode="&#xad54;" 
d="M724 742v-69q0 -73 -3.5 -128.5t-18.5 -123.5l-48 5q16 68 20 122t4 125v29h-538v40h584zM46 348h222v191h46v-191h170v191h45v-191h295v-40h-778v40zM150 209h46v-215h549v-40h-595v255z" />
    <glyph glyph-name="uniAD58" unicode="&#xad58;" 
d="M724 762v-59q0 -61 -3 -105.5t-16 -99.5l-45 6q12 54 15 97.5t3 101.5v20h-538v39h584zM46 433h223v172h45v-172h169v172h44v-172h297v-41h-778v41zM141 298h585v-188h-536v-125h558v-38h-604v201h536v111h-539v39z" />
    <glyph glyph-name="uniAD60" unicode="&#xad60;" 
d="M727 242v-296h-583v296h583zM46 387h222v180h46v-180h170v180h45v-180h295v-40h-778v40zM140 757h584v-63q0 -66 -3.5 -117t-18.5 -114l-47 4q15 64 19 113.5t4 113.5v24h-538v39zM681 -14v217h-491v-217h491z" />
    <glyph glyph-name="uniAD61" unicode="&#xad61;" 
d="M723 758v-68q0 -65 -4 -113.5t-19 -107.5l-46 6q16 59 20 106t4 109v29h-538v39h583zM47 407h222v170h46v-170h166v170h46v-170h298v-41h-778v41zM153 288h46v-122h473v122h45v-342h-564v342zM672 -15v142h-473v-142h473z" />
    <glyph glyph-name="uniAD63" unicode="&#xad63;" 
d="M725 755v-75q0 -71 -4 -121t-19 -110l-46 7q15 58 19 106.5t4 117.5v36h-539v39h585zM45 374h225v189h45v-189h167v189h45v-189h297v-39h-779v39zM249 19q69 32 114 82t45 112v48h47v-48q0 -62 45.5 -112t114.5 -82t141 -44l-20 -38q-101 20 -186 70.5t-118 125.5
q-32 -75 -117.5 -125.5t-186.5 -70.5l-19 38q71 12 140 44z" />
    <glyph glyph-name="uniAD65" unicode="&#xad65;" 
d="M724 752v-64q0 -66 -3.5 -117.5t-18.5 -114.5l-47 4q15 64 19 114t4 114v24h-538v40h584zM46 378h222v183h46v-183h170v183h45v-183h295v-39h-778v39zM216.5 204.5q79.5 41.5 216.5 41.5t217 -42t80 -114t-80 -113t-217 -41t-216.5 41t-79.5 113q0 73 79.5 114.5z
M214.5 30q31.5 -26 88.5 -40.5t130 -14.5q74 0 131 14.5t88 40.5t31 60q0 35 -31 62t-88 41.5t-131 14.5q-73 0 -130 -14.5t-88.5 -41.5t-31.5 -62q0 -34 31.5 -60z" />
    <glyph glyph-name="uniAD6C" unicode="&#xad6c;" 
d="M713 736v-74q0 -84 -4 -149.5t-21 -149.5h136v-40h-367v-391h-45v391h-367v40h595q19 84 23.5 149.5t4.5 149.5v35h-518v39h563z" />
    <glyph glyph-name="uniAD6D" unicode="&#xad6d;" 
d="M720 752v-59q0 -69 -4 -126.5t-21 -130.5h133v-40h-370v-183h270v-280h-47v239h-552v41h283v183h-367v40h604q17 74 21.5 131t4.5 126v19h-527v40h572z" />
    <glyph glyph-name="uniAD70" unicode="&#xad70;" 
d="M720 746v-65q0 -74 -4 -135.5t-21 -141.5h133v-40h-368v-224h-45v224h-370v40h604q17 79 21.5 141t4.5 136v25h-527v40h572zM150 218h46v-223h544v-40h-590v263z" />
    <glyph glyph-name="uniAD73" unicode="&#xad73;" 
d="M720 751v-59q0 -68 -4 -123.5t-20 -126.5h132v-40h-370v-165h270v-39h-538v-212h544v-40h-590v291h268v165h-367v40h606q16 71 20 127t4 123v19h-527v40h572z" />
    <glyph glyph-name="uniAD74" unicode="&#xad74;" 
d="M720 759v-52q0 -63 -3.5 -116t-16.5 -118h128v-38h-371v-134h269v-192h-536v-124h557v-38h-603v200h536v115h-539v39h270v134h-366v38h609q14 67 17.5 119.5t3.5 114.5v13h-527v39h572z" />
    <glyph glyph-name="uniAD75" unicode="&#xad75;" 
d="M720 760v-52q0 -64 -3.5 -118.5t-17.5 -121.5h128v-40h-371v-140h-45v140h-366v40h607q15 69 19 123t4 117v13h-527v39h572zM132 275h281v-177h-233v-114h4q102 0 166.5 5t133.5 20l7 -39q-71 -15 -136.5 -19.5t-170.5 -4.5h-50v191h234v100h-236v38zM464 275h269v-335
h-46v296h-223v39z" />
    <glyph glyph-name="uniAD76" unicode="&#xad76;" 
d="M720 760v-52q0 -64 -3.5 -118.5t-17.5 -122.5h128v-40h-371v-136h-45v136h-366v40h607q15 69 19 123t4 118v13h-527v39h572zM130 282h272v-178h-224v-120q93 0 144 3t106 14l7 -38q-59 -11 -111.5 -14t-148.5 -3h-42v196h224v102h-227v38zM464 282h272v-336h-272v336z
M693 -16v261h-187v-261h187z" />
    <glyph glyph-name="uniAD7B" unicode="&#xad7b;" 
d="M719 761v-51q0 -64 -3.5 -118.5t-16.5 -123.5h128v-39h-371v-138h-46v138h-365v39h608q15 70 18.5 124t3.5 118v13h-527v38h571zM130 282h264v-179h-217v-118q96 0 148 3t108 14l6 -38q-60 -11 -115 -14t-149 -3h-42v194h216v104h-219v37zM428 243h154v85h46v-85h157v-38
h-357v38zM505 134.5q39 31.5 101 31.5t100.5 -31.5t38.5 -84.5t-38.5 -84.5t-100.5 -31.5t-101 31.5t-39 84.5t39 84.5zM534.5 -8.5q27.5 -22.5 71.5 -22.5q43 0 70 22.5t27 58.5t-27 58.5t-70 22.5q-44 0 -71.5 -22.5t-27.5 -58.5t27.5 -58.5z" />
    <glyph glyph-name="uniAD7C" unicode="&#xad7c;" 
d="M720 753v-57q0 -67 -4 -123.5t-20 -127.5h132v-41h-371v-168h270v-289h-582v289h266v168h-366v41h604q17 72 21 128t4 123v18h-527v39h573zM682 -14v212h-492v-212h492z" />
    <glyph glyph-name="uniAD7D" unicode="&#xad7d;" 
d="M720 756v-57q0 -67 -4 -124t-20 -128h132v-39h-372v-173h-45v173h-366v39h604q17 73 21 129t4 123v18h-527v39h573zM152 291h47v-126h476v126h46v-344h-569v344zM675 -14v140h-476v-140h476z" />
    <glyph glyph-name="uniAD7F" unicode="&#xad7f;" 
d="M720 758v-57q0 -68 -4 -125.5t-19 -130.5h131v-40h-371v-149h-46v149h-366v40h605q17 74 21 131.5t4 124.5v18h-527v39h572zM251 12q69 28 114.5 71.5t45.5 97.5v37h46v-37q0 -55 45.5 -98.5t115 -71t140.5 -37.5l-18 -36q-101 16 -187 60t-119 111q-33 -67 -119 -111
t-188 -60l-16 36q71 10 140 38z" />
    <glyph glyph-name="uniAD81" unicode="&#xad81;" 
d="M720 754v-58q0 -68 -4.5 -125.5t-20.5 -130.5h133v-41h-371v-154q129 -4 201 -44.5t72 -110.5q0 -73 -78.5 -113.5t-218.5 -40.5q-139 0 -217 40.5t-78 113.5q0 70 72 110.5t201 44.5v154h-366v41h604q17 73 21.5 130.5t4.5 125.5v19h-527v39h572zM252 6.5
q68 -31.5 181 -31.5q114 0 182 31.5t68 83.5q0 54 -67.5 85t-182.5 31q-113 0 -181 -31t-68 -85q0 -52 68 -83.5z" />
    <glyph glyph-name="uniAD82" unicode="&#xad82;" 
d="M720 754v-53q0 -67 -4 -123.5t-20 -128.5h132v-39h-370v-162h273v-40h-271q1 -62 47.5 -111t116.5 -80t142 -43l-18 -37q-103 19 -190.5 68.5t-120.5 125.5q-33 -76 -120.5 -126t-190.5 -68l-18 37q72 12 142 43t116.5 80t47.5 111h-273v40h272v162h-368v39h605
q17 73 21 129t4 123v14h-527v39h572z" />
    <glyph glyph-name="uniAD88" unicode="&#xad88;" 
d="M740 795v-863h-47v277h-212v39h212v547h47zM443 398q14 85 18 148.5t4 131.5v3h-347v41h393v-44q0 -68 -3.5 -131t-17.5 -146q48 3 129 11l3 -36q-125 -16 -284 -23v-368h-47v366q-115 -4 -242 -4l-8 41q267 2 402 10z" />
    <glyph glyph-name="uniAD89" unicode="&#xad89;" 
d="M741 796v-551h-47v91h-205v38h205v422h47zM446 485q14 68 18 119t4 106v2h-342v41h388v-43q0 -55 -3.5 -106t-17.5 -117q38 2 110 8l4 -35q-115 -13 -275 -20v-194h-46v192q-127 -3 -238 -3l-8 41q225 0 406 9zM171 207h569v-270h-47v231h-522v39z" />
    <glyph glyph-name="uniAD8C" unicode="&#xad8c;" 
d="M739 794v-652h-47v138h-202v39h202v475h47zM446 456q21 119 21 241h-349v40h396v-36q0 -58 -3.5 -113.5t-16.5 -127.5q56 5 108 12l4 -35q-110 -19 -265 -28v-210h-45v208q-112 -5 -248 -5l-8 42q250 0 406 12zM174 218h47v-223h541v-40h-588v263z" />
    <glyph glyph-name="uniAD90" unicode="&#xad90;" 
d="M739 795v-495h-47v72h-203v37h203v386h47zM447 512q17 95 20 202h-340v40h386v-17q0 -114 -19 -221q74 8 109 13l4 -36q-116 -18 -275 -27v-164h-47v162q-115 -4 -237 -4l-7 39q237 0 406 13zM180 267h559v-175h-512v-108h549v-38h-593v182h510v101h-513v38z" />
    <glyph glyph-name="uniAD9C" unicode="&#xad9c;" 
d="M738 795v-523h-47v81h-203v39h203v403h47zM447 503q13 64 16.5 112.5t3.5 101.5h-342v39h388v-39q0 -53 -3.5 -101.5t-15.5 -108.5q53 4 107 12l5 -35q-114 -19 -275 -28v-182h-46v180q-107 -5 -239 -5l-7 42q252 0 408 12zM234.5 77q49.5 62 49.5 129v36h44v-36
q0 -60 35.5 -120.5t97.5 -94.5q62 34 96.5 94.5t34.5 120.5v36h45v-36q0 -67 49.5 -129t127.5 -90l-24 -36q-62 24 -108 69t-67 100q-18 -57 -57 -103.5t-97 -70.5q-58 24 -97.5 70t-57.5 103q-21 -55 -67 -99.5t-108 -68.5l-24 36q78 28 127.5 90z" />
    <glyph glyph-name="uniAD9D" unicode="&#xad9d;" 
d="M739 796v-553h-47v93h-203v38h203v422h47zM447 484q14 68 17.5 119.5t3.5 106.5v3h-341v40h388v-43q0 -55 -3.5 -106t-16.5 -115q39 3 108 13l4 -36q-120 -20 -275 -27v-184h-46v182q-86 -4 -238 -4l-7 39q250 0 406 12zM264.5 199q74.5 40 205.5 40q132 0 206 -40
t74 -112t-74 -112t-206 -40q-131 0 -205.5 40t-74.5 112t74.5 112zM300 4.5q63 -30.5 170 -30.5q108 0 171 30.5t63 82.5t-63.5 82t-170.5 30t-170 -30t-63 -82t63 -82.5z" />
    <glyph glyph-name="uniADA4" unicode="&#xada4;" 
d="M759 796v-863h-46v863h46zM364 392q15 79 19 138t4 123v1h-305v40h348v-41q0 -64 -3.5 -123t-17.5 -134q32 2 85 10l4 -35q-98 -18 -215 -24v-337h-46v335q-95 -4 -193 -4l-7 41q198 0 327 10zM380 242h177v530h45v-786h-45v215h-177v41z" />
    <glyph glyph-name="uniADB7" unicode="&#xadb7;" 
d="M757 796v-633h-46v633h46zM363 458q14 69 18 120.5t4 104.5h-296v41h340v-38q0 -54 -3.5 -106t-16.5 -119l31 3l68 9l4 -35q-96 -18 -219 -25v-215h-45v212q-99 -4 -200 -4l-7 43q193 0 322 9zM282 13.5q69 29.5 114.5 76t45.5 104.5v27h46v-27q0 -58 45 -104.5
t113.5 -76t139.5 -40.5l-17 -38q-100 19 -186 65t-119 116q-33 -70 -118.5 -116t-185.5 -65l-18 38q71 11 140 40.5zM386 356h171v424h44v-584h-44v122h-171v38z" />
    <glyph glyph-name="uniADB8" unicode="&#xadb8;" 
d="M757 796v-537h-46v537h46zM363 477q14 66 18 116t4 99h-297v40h341v-35q0 -53 -3.5 -103t-17.5 -114l27 3q65 8 72 9l4 -35q-83 -16 -219 -25v-163h-44v161q-99 -4 -201 -4l-7 41q195 0 323 10zM230.5 67.5q51.5 61.5 51.5 129.5v28h44v-28q0 -61 37 -121t100 -93
q65 33 102 93t37 121v28h44v-28q0 -68 52 -129.5t132 -87.5l-24 -36q-64 23 -111.5 68t-69.5 102q-18 -57 -59.5 -105t-101.5 -73q-60 25 -101 72t-60 105q-21 -56 -68.5 -101t-112.5 -68l-22 36q79 26 130.5 87.5zM386 377h170v403h44v-514h-44v73h-170v38z" />
    <glyph glyph-name="uniADC0" unicode="&#xadc0;" 
d="M746 796v-863h-46v863h46zM443 382q28 154 28 301h-351v41h397v-26q0 -159 -27 -313q92 6 138 11l5 -35q-118 -15 -287 -24v-351h-47v349q-119 -4 -251 -4l-7 41q266 2 402 10z" />
    <glyph glyph-name="uniADC1" unicode="&#xadc1;" 
d="M737 796v-505h-47v505h47zM450 457q13 68 16.5 121t3.5 114v16h-342v40h387v-56q0 -62 -3 -114t-15 -117q74 8 114 13l4 -35q-114 -18 -266 -27v-172h388v-312h-47v271h-523v41h135v169q-114 -5 -253 -5l-8 41q236 0 409 12z" />
    <glyph glyph-name="uniADC4" unicode="&#xadc4;" 
d="M457 434q22 140 22 258h-349v40h394v-22q0 -139 -20 -272q74 8 110 13l4 -36q-108 -18 -247 -26v-205h-46v202q-121 -5 -270 -5l-8 41q253 0 410 12zM180 212h46v-217h539v-40h-585v257zM689 795h47v-647h-47v647z" />
    <glyph glyph-name="uniADC8" unicode="&#xadc8;" 
d="M736 794v-454h-47v454h47zM451 484q19 128 19 230h-342v40h386v-20q0 -128 -16 -247q58 3 113 9l4 -36q-114 -13 -269 -20v-142h390v-190h-509v-123h546v-39h-591v200h508v114h-510v38h121v141q-80 -3 -244 -5l-8 42q243 0 402 8z" />
    <glyph glyph-name="uniADD0" unicode="&#xadd0;" 
d="M737 795v-501h-47v501h47zM452 447q12 68 15 121t3 118v18h-342v40h387v-58q0 -64 -2.5 -117t-13.5 -118q43 3 112 13l4 -35q-120 -21 -266 -29v-162h388v-292h-549v292h115v160q-109 -6 -254 -6l-8 43q254 0 411 12zM691 -14v214h-458v-214h458z" />
    <glyph glyph-name="uniADD1" unicode="&#xadd1;" 
d="M737 795v-489h-47v489h47zM450 476q14 68 17.5 120.5t3.5 110.5v5h-343v40h388v-45q0 -58 -3.5 -110t-15.5 -118q41 2 114 10l4 -35q-117 -16 -264 -23v-171h-47v169q-114 -5 -255 -5l-8 42q251 0 409 10zM184 268h47v-114h460v114h46v-322h-553v322zM691 -14v128h-460
v-128h460z" />
    <glyph glyph-name="uniADD3" unicode="&#xadd3;" 
d="M735 794v-615h-47v615h47zM450 447q13 73 16.5 129t3.5 118v7h-341v41h387v-48q0 -61 -3.5 -117t-15.5 -126q41 3 114 13l3 -36q-124 -21 -277 -29v-198h-46v196q-113 -4 -236 -4l-9 42q249 0 404 12zM302 16q69 31 114 79.5t45 107.5v49h46v-49q0 -59 45 -107.5
t114 -79.5t139 -42l-20 -37q-99 19 -183.5 66.5t-117.5 119.5q-33 -72 -117.5 -119.5t-184.5 -66.5l-19 37q70 11 139 42z" />
    <glyph glyph-name="uniADD5" unicode="&#xadd5;" 
d="M736 795v-558h-47v558h47zM450 443q14 74 17.5 130t3.5 118v9h-341v39h387v-48q0 -62 -3.5 -118t-15.5 -126q40 3 113 13l4 -36q-113 -20 -277 -29v-162q57 11 123 11q132 0 206.5 -41t74.5 -114q0 -72 -74.5 -112.5t-206.5 -40.5t-206 40t-74 113q0 45 28.5 78t82.5 53
v173q-85 -4 -236 -4l-9 42q249 0 403 12zM290 6q64 -31 171 -31t171 31t64 83q0 53 -64 84.5t-171 31.5t-171 -31.5t-64 -84.5q0 -52 64 -83z" />
    <glyph glyph-name="uniADDC" unicode="&#xaddc;" 
d="M712 735v-70q0 -86 -4.5 -154.5t-21.5 -156.5h138v-39h-220v-381h-46v381h-246v-381h-47v381h-220v39h594q19 88 23.5 157t4.5 154v31h-517v39h562z" />
    <glyph glyph-name="uniADE0" unicode="&#xade0;" 
d="M720 745v-61q0 -72 -4 -131.5t-19 -134.5h131v-41h-233v-223h-45v223h-199v-223h-45v223h-261v41h606q16 77 20 136t4 130v21h-528v40h573zM148 218h47v-223h547v-40h-594v263z" />
    <glyph glyph-name="uniADE4" unicode="&#xade4;" 
d="M720 759v-52q0 -62 -3.5 -114.5t-16.5 -117.5h128v-39h-223v-135h121v-192h-536v-124h557v-38h-603v200h536v115h-539v39h127v135h-223v39h609q14 67 17.5 119t3.5 113v13h-527v39h572zM558 301v135h-243v-135h243z" />
    <glyph glyph-name="uniADEC" unicode="&#xadec;" 
d="M720 753v-57q0 -67 -4 -123t-20 -127h132v-40h-223v-170h122v-289h-582v289h123v170h-223v40h604q17 72 21 127.5t4 122.5v18h-527v39h573zM682 -14v212h-492v-212h492zM558 236v170h-243v-170h243z" />
    <glyph glyph-name="uniADF8" unicode="&#xadf8;" 
d="M713 694v-74q0 -109 -5.5 -202t-27.5 -221l-48 7q24 121 30.5 214.5t6.5 201.5v34h-535v40h579zM45 108h779v-39h-779v39z" />
    <glyph glyph-name="uniADF9" unicode="&#xadf9;" 
d="M720 752v-59q0 -72 -4 -132t-21 -138h133v-39h-783v39h602q18 78 23 138.5t5 131.5v19h-527v40h572zM129 235h599v-306h-47v267h-552v39z" />
    <glyph glyph-name="uniADFC" unicode="&#xadfc;" 
d="M720 742v-62q0 -77 -4 -142t-20 -150h132v-40h-783v40h605q17 85 21 150t4 142v22h-527v40h572zM151 236h46v-240h549v-40h-595v280z" />
    <glyph glyph-name="uniADFF" unicode="&#xadff;" 
d="M719 747v-59q0 -70 -4.5 -127.5t-21.5 -131.5h134v-40h-782v40h603q18 75 22.5 132.5t4.5 126.5v20h-528v39h572zM144 244h584v-40h-538v-218h544v-40h-590v298z" />
    <glyph glyph-name="uniAE00" unicode="&#xae00;" 
d="M720 758v-53q0 -65 -3.5 -119.5t-17.5 -123.5h129v-40h-783v40h607q15 70 19 124.5t4 118.5v13h-527v40h572zM141 318h585v-201h-536v-132h557v-38h-603v208h536v122h-539v41z" />
    <glyph glyph-name="uniAE01" unicode="&#xae01;" 
d="M720 755v-57q0 -67 -4 -123.5t-19 -129.5h130v-40h-782v40h605q17 73 21 129.5t4 123.5v18h-527v39h572zM132 288h281v-182h-233v-121h4q102 0 166.5 5t133.5 20l7 -39q-71 -15 -136.5 -19.5t-170.5 -4.5h-50v197h234v106h-236v38zM464 288h269v-348h-46v309h-223v39z
" />
    <glyph glyph-name="uniAE02" unicode="&#xae02;" 
d="M402 293v-183h-224v-126q93 0 144 3t106 14l7 -38q-59 -11 -111.5 -14t-148.5 -3h-42v201h224v108h-227v38h272zM45 447h605q17 73 21 129t4 122v18h-527v39h572v-57q0 -66 -4 -122.5t-19 -128.5h130v-39h-782v39zM464 293h272v-347h-272v347zM693 -16v271h-187v-271h187
z" />
    <glyph glyph-name="uniAE07" unicode="&#xae07;" 
d="M582 246v83h46v-83h157v-39h-357v39h154zM45 447h605q17 73 21 129t4 122v18h-527v39h572v-57q0 -66 -4 -122.5t-19 -128.5h130v-39h-782v39zM130 298h264v-187h-217v-126q96 0 148 3t108 14l6 -38q-60 -11 -114.5 -14.5t-149.5 -3.5h-42v203h216v111h-219v38zM505 131
q39 30 101 30t100.5 -30t38.5 -82t-38.5 -83t-100.5 -31t-101 31t-39 83t39 82zM534 -8q27 -21 72 -21q44 0 70.5 21t26.5 57q0 34 -27 55.5t-70 21.5q-44 0 -71.5 -21.5t-27.5 -55.5q0 -36 27 -57z" />
    <glyph glyph-name="uniAE08" unicode="&#xae08;" 
d="M720 745v-60q0 -71 -4 -129.5t-21 -133.5h133v-40h-783v40h604q17 75 21.5 133.5t4.5 129.5v20h-527v40h572zM145 246h582v-300h-582v300zM682 -14v220h-492v-220h492z" />
    <glyph glyph-name="uniAE09" unicode="&#xae09;" 
d="M199 299v-129h476v129h46v-353h-568v353h46zM45 433h604q17 75 21.5 133t4.5 128v19h-527v40h572v-59q0 -70 -4.5 -128t-21.5 -133h134v-42h-783v42zM675 -15v146h-476v-146h476z" />
    <glyph glyph-name="uniAE0B" unicode="&#xae0b;" 
d="M719 748v-62q0 -76 -4.5 -139.5t-21.5 -146.5h131v-41h-778v41h600q19 82 23.5 146t4.5 140v22h-532v40h577zM249.5 20q68.5 33 113.5 84.5t45 114.5v47h47v-47q0 -63 45 -114.5t114.5 -84.5t140.5 -46l-21 -37q-99 20 -184 72t-118 128q-32 -76 -117.5 -128t-184.5 -72
l-19 37q70 13 138.5 46z" />
    <glyph glyph-name="uniAE0D" unicode="&#xae0d;" 
d="M720 746v-60q0 -73 -4.5 -133t-22.5 -137h135v-41h-783v41h602q19 78 23.5 138t4.5 132v21h-527v39h572zM216.5 210q78.5 41 216.5 41q140 0 218.5 -41t78.5 -116t-78.5 -116t-218.5 -41q-138 0 -216.5 41t-78.5 116t78.5 116zM252 8q68 -32 181 -32q114 0 182 32t68 86
q0 55 -68 86.5t-182 31.5q-113 0 -181 -32t-68 -86t68 -86z" />
    <glyph glyph-name="uniAE13" unicode="&#xae13;" 
d="M413 265v95h45v-95h295v-39h-634v39h294zM45 462h607q15 70 19 124.5t4 118.5v13h-527v40h572v-53q0 -65 -3.5 -119.5t-17.5 -123.5h129v-40h-783v40zM246 142.5q65 29.5 190 29.5t190 -29.5t65 -87.5q0 -59 -65 -89t-190 -30t-190 30t-65 89q0 58 65 87.5zM281.5 -6.5
q55.5 -21.5 154.5 -21.5t154 21.5t55 61.5q0 39 -55 60.5t-154 21.5t-154.5 -21.5t-55.5 -60.5q0 -40 55.5 -61.5z" />
    <glyph glyph-name="uniAE14" unicode="&#xae14;" 
d="M541 687v-58q0 -82 -5 -154.5t-23 -167.5l-47 8q20 92 25 163t5 151v19h-381v39h426zM360 203.5q142 5.5 268 24.5l4 -36q-132 -22 -272 -29t-300 -7l-9 42q167 0 309 5.5zM689 796h47v-863h-47v863z" />
    <glyph glyph-name="uniAE30" unicode="&#xae30;" 
d="M745 796v-863h-45v863h45zM339 363q99 134 109 297h-349v40h395q0 -185 -102 -340.5t-303 -255.5l-25 39q176 86 275 220z" />
    <glyph glyph-name="uniAE31" unicode="&#xae31;" 
d="M384.5 466q-112.5 -114 -303.5 -167l-20 38q170 47 273 140.5t113 218.5h-343v40h393q0 -156 -112.5 -270zM180 241h566v-311h-47v271h-519v40zM699 795h47v-510h-47v510z" />
    <glyph glyph-name="uniAE34" unicode="&#xae34;" 
d="M746 794v-625h-47v625h47zM333 458.5q103 100.5 113 229.5h-342v41h393q0 -160 -112.5 -281t-302.5 -183l-20 38q168 55 271 155.5zM198 216h47v-221h526v-40h-573v261z" />
    <glyph glyph-name="uniAE37" unicode="&#xae37;" 
d="M384.5 466.5q-110.5 -113.5 -305.5 -166.5l-18 39q171 46 273 138.5t112 217.5h-344v41h393q0 -156 -110.5 -269.5zM201 248h548v-41h-501v-221h516v-40h-563v302zM699 794h47v-497h-47v497z" />
    <glyph glyph-name="uniAE38" unicode="&#xae38;" 
d="M745 795v-445h-46v445h46zM330.5 500q101.5 87 110.5 206h-337v40h388q0 -152 -112 -259t-300 -154l-18 38q167 42 268.5 129zM200 304h545v-192h-497v-131h532v-39h-577v208h497v114h-500v40z" />
    <glyph glyph-name="uniAE3A" unicode="&#xae3a;" 
d="M746 795v-462h-47v462h47zM331.5 497q101.5 86 111.5 206h-340v40h391q0 -151 -112 -258t-301 -153l-19 39q168 40 269.5 126zM161 286h267v-181h-220v-122q88 0 137.5 3t102.5 14l6 -40q-58 -10 -109 -13t-140 -3h-42v198h220v105h-222v39zM484 286h262v-342h-262v342z
M703 -17v264h-177v-264h177z" />
    <glyph glyph-name="uniAE40" unicode="&#xae40;" 
d="M384.5 466.5q-111.5 -113.5 -304.5 -166.5l-20 40q171 45 274 138t113 218h-344v40h393q0 -156 -111.5 -269.5zM199 258h547v-311h-547v311zM700 -14v234h-455v-234h455zM699 794h47v-490h-47v490z" />
    <glyph glyph-name="uniAE41" unicode="&#xae41;" 
d="M745 795v-469h-46v469h46zM336 488q101 88 110 211h-342v40h393q0 -154 -110.5 -262.5t-306.5 -157.5l-18 39q173 42 274 130zM200 286h47v-127h452v127h46v-340h-545v340zM699 -15v135h-452v-135h452z" />
    <glyph glyph-name="uniAE43" unicode="&#xae43;" 
d="M742 794v-584h-46v584h46zM334.5 459.5q103.5 98.5 113.5 225.5h-344v41h392q0 -157 -112 -276.5t-300 -178.5l-19 38q166 52 269.5 150.5zM291 23.5q69 35.5 115 90.5t46 124v37h48v-37q0 -68 45 -123t113 -90.5t139 -50.5l-20 -37q-99 23 -184 78t-118 137
q-33 -82 -118.5 -137t-186.5 -78l-20 37q72 14 141 49.5z" />
    <glyph glyph-name="uniAE44" unicode="&#xae44;" 
d="M383 466.5q-112 -113.5 -304 -166.5l-20 40q171 45 274 138t113 218h-344v40h393q0 -156 -112 -269.5zM186.5 36.5q41.5 36.5 65 80t23.5 84.5v77h45v-77q0 -63 37 -123t101 -93q42 24 74 61.5t49 78.5t17 76v77h45v-77q0 -67 51 -129.5t131 -91.5l-25 -35
q-64 24 -111.5 70t-68.5 103q-20 -57 -61.5 -105.5t-98.5 -74.5q-62 25 -103.5 72t-60.5 106q-23 -55 -70 -101t-108 -70l-25 35q52 20 93.5 56.5zM698 796h47v-499h-47v499z" />
    <glyph glyph-name="uniAE45" unicode="&#xae45;" 
d="M743 795v-529h-46v529h46zM331 462.5q106 97.5 116 223.5h-343v41h392q0 -105 -53 -194t-146.5 -154t-215.5 -102l-21 37q165 51 271 148.5zM255 217.5q76 42.5 210 42.5q132 0 208 -42.5t76 -118.5q0 -77 -75.5 -120t-208.5 -43q-134 0 -210 43t-76 120q0 76 76 118.5z
M290.5 9q65.5 -34 174.5 -34q107 0 172.5 34t65.5 90q0 55 -65.5 89t-172.5 34q-109 0 -174.5 -33.5t-65.5 -89.5t65.5 -90z" />
    <glyph glyph-name="uniAE46" unicode="&#xae46;" 
d="M384 467q-112 -113 -304 -165l-19 39q170 46 272.5 138.5t112.5 215.5h-344v40h394q0 -155 -112 -268zM305 17q66 32 109 79.5t43 101.5v8h-254v41h555v-41h-255v-8q0 -54 44.5 -101t111 -79.5t133.5 -45.5l-18 -37q-94 20 -177.5 70t-115.5 119q-32 -69 -114 -118.5
t-176 -70.5l-19 37q67 13 133 45zM698 795h46v-491h-46v491z" />
    <glyph glyph-name="uniAE4A" unicode="&#xae4a;" 
d="M385.5 467.5q-112.5 -111.5 -304.5 -162.5l-19 40q171 44 274 135t112 214h-345v40h395q0 -155 -112.5 -266.5zM187 -13h138v237h-130v39h568v-39h-131v-237h141v-40h-586v40zM585 -13v237h-214v-237h214zM699 794h46v-476h-46v476z" />
    <glyph glyph-name="uniAE4C" unicode="&#xae4c;" 
d="M716 796v-369h141v-41h-141v-453h-46v863h46zM204 393.5q54 131.5 60 264.5h-193v40h235q0 -150 -52.5 -298t-162.5 -263l-40 26q99 99 153 230.5zM446.5 361.5q46.5 148.5 50.5 296.5h-164v40h208q0 -163 -45 -328t-157 -293l-40 26q101 110 147.5 258.5z" />
    <glyph glyph-name="uniAE4D" unicode="&#xae4d;" 
d="M708 795v-239h136v-41h-136v-231h-47v511h47zM201 516q47 75 54 175h-181v40h226q0 -124 -50 -216.5t-157 -163.5l-31 30q92 60 139 135zM158 243h550v-313h-47v272h-503v41zM497 691h-161v40h206q0 -131 -47.5 -240.5t-153.5 -196.5l-33 32q176 134 189 365z" />
    <glyph glyph-name="uniAE4E" unicode="&#xae4e;" 
d="M708 795v-231h136v-41h-136v-225h-47v497h47zM201 521q47 74 54 173h-181v40h226q0 -123 -49.5 -214.5t-155.5 -161.5l-33 30q92 59 139 133zM129 248h269v-316h-46v275h-223v41zM497 694h-161v40h206q0 -130 -47.5 -236.5t-152.5 -190.5l-34 29q176 134 189 358z
M445 248h263v-316h-46v275h-217v41z" />
    <glyph glyph-name="uniAE50" unicode="&#xae50;" 
d="M91 304l-33 31q95 67 143 152t54 191h-181v40h226q0 -259 -209 -414zM183 211h46v-216h515v-40h-561v256zM445 463.5q46 99.5 52 214.5h-161v40h206q0 -289 -204 -459l-33 31q94 74 140 173.5zM661 796h47v-284h136v-41h-136v-310h-47v635z" />
    <glyph glyph-name="uniAE54" unicode="&#xae54;" 
d="M709 795v-202h135v-40h-135v-201h-48v443h48zM196 549q48 63 56 153h-182v41h228q0 -114 -52.5 -194t-152.5 -149l-32 32q87 54 135 117zM176 306h533v-195h-485v-125h520v-40h-565v205h483v116h-486v39zM442.5 521q45.5 79 52.5 181h-161v41h206q0 -124 -48 -220.5
t-152 -172.5l-34 29q91 63 136.5 142z" />
    <glyph glyph-name="uniAE56" unicode="&#xae56;" 
d="M708 795v-206h136v-40h-136v-213h-47v459h47zM197 543q48 65 56 157h-183v40h228q0 -114 -52 -196t-152 -151l-32 31q87 54 135 119zM124 283h266v-181h-218v-121q87 0 136 3t104 14l5 -39q-58 -10 -108.5 -13t-141.5 -3h-40v198h218v104h-221v38zM444 514q46 82 52 186
h-162v40h207q0 -125 -48.5 -224.5t-152.5 -176.5l-34 28q92 65 138 147zM448 283h260v-340h-260v340zM664 -20v266h-173v-266h173z" />
    <glyph glyph-name="uniAE5C" unicode="&#xae5c;" 
d="M250.5 517.5q-49.5 -92.5 -156.5 -164.5l-32 30q92 59 139 135t54 176h-181v40h226q0 -124 -49.5 -216.5zM180 247h528v-301h-528v301zM662 -14v221h-437v-221h437zM496 694h-160v40h205q0 -131 -47 -239t-153 -194l-34 31q178 135 189 362zM661 795h47v-226h136v-39
h-136v-238h-47v503z" />
    <glyph glyph-name="uniAE5D" unicode="&#xae5d;" 
d="M250 525q-50 -90 -155 -160l-32 31q91 58 138 130.5t54 170.5h-181v40h226q0 -122 -50 -212zM179 281h46v-125h437v125h46v-336h-529v336zM662 -15v131h-437v-131h437zM444.5 501.5q45.5 87.5 51.5 195.5h-160v40h205q0 -128 -47 -233.5t-151 -187.5l-34 29
q90 69 135.5 156.5zM661 795h47v-208h136v-41h-136v-217h-47v466z" />
    <glyph glyph-name="uniAE5F" unicode="&#xae5f;" 
d="M249.5 507q-49.5 -93 -155.5 -166l-31 31q91 59 137.5 134t53.5 176h-181v41h226q0 -123 -49.5 -216zM273.5 24.5q69.5 34.5 115 88.5t45.5 121v29h46v-29q0 -67 45.5 -121t114.5 -88.5t141 -48.5l-19 -38q-101 22 -186.5 76t-118.5 134q-33 -80 -118.5 -134t-185.5 -76
l-21 38q72 14 141.5 48.5zM496 682h-160v41h205q0 -276 -200 -437l-34 29q176 139 189 367zM661 795h47v-252h136v-39h-136v-286h-47v577z" />
    <glyph glyph-name="uniAE60" unicode="&#xae60;" 
d="M251 517q-50 -93 -156 -164l-32 31q92 59 138.5 134t53.5 175h-181v40h227q0 -123 -50 -216zM180.5 27.5q41.5 36.5 65.5 80t24 84.5v69h43v-69q0 -64 36.5 -123.5t101.5 -92.5q64 36 101.5 98.5t37.5 117.5v69h45v-69q0 -68 51.5 -130t131.5 -91l-24 -36
q-64 24 -112 70.5t-70 103.5q-19 -57 -60.5 -106t-99.5 -75q-61 25 -102.5 72t-59.5 106q-23 -55 -70.5 -101t-108.5 -70l-24 36q52 20 93.5 56.5zM497 693h-160v40h205q0 -130 -47.5 -238t-152.5 -194l-35 31q177 135 190 361zM661 796h47v-227h136v-40h-136v-229h-47v496z
" />
    <glyph glyph-name="uniAE61" unicode="&#xae61;" 
d="M250.5 517.5q-49.5 -92.5 -156.5 -164.5l-32 30q92 59 139 135t54 176h-181v40h226q0 -124 -49.5 -216.5zM233.5 205q73.5 41 203.5 41t204 -41t74 -115q0 -73 -74 -113.5t-204 -40.5q-129 0 -203 40.5t-74 113.5q0 74 73.5 115zM268.5 6.5q63.5 -31.5 168.5 -31.5
q106 0 169.5 31.5t63.5 83.5q0 54 -63.5 85t-169.5 31t-169 -31t-63 -85q0 -52 63.5 -83.5zM444.5 495.5q45.5 89.5 51.5 198.5h-160v40h205q0 -130 -47 -237t-152 -191l-34 30q91 70 136.5 159.5zM661 795h47v-229h136v-40h-136v-247h-47v516z" />
    <glyph glyph-name="uniAE65" unicode="&#xae65;" 
d="M245.5 544q-52.5 -80 -152.5 -149l-32 32q86 54 134.5 117t56.5 154h-182v40h228q0 -114 -52.5 -194zM181 273h532v-38h-485v-104h474v-37h-474v-110h505v-38h-552v327zM443 517q46 79 52 181h-161v40h206q0 -124 -48 -220.5t-152 -171.5l-34 29q91 63 137 142zM661 795
h47v-213h136v-41h-136v-214h-47v468z" />
    <glyph glyph-name="uniAE68" unicode="&#xae68;" 
d="M777 796v-863h-46v459h-134v-413h-45v794h45v-341h134v364h46zM178.5 397.5q37.5 121.5 40.5 250.5h-150v39h191q0 -336 -163 -531l-39 25q83 95 120.5 216.5zM384.5 358q32.5 141 34.5 290h-129v39h171q0 -166 -30 -321t-129 -279l-40 25q90 105 122.5 246z" />
    <glyph glyph-name="uniAE69" unicode="&#xae69;" 
d="M769 795v-510h-45v241h-133v-235h-45v488h45v-213h133v229h45zM177.5 515.5q38.5 76.5 43.5 176.5h-149v40h194q0 -122 -40 -215.5t-133 -169.5l-35 29q81 63 119.5 139.5zM195 240h574v-308h-46v267h-528v41zM381 486q37 94 41 206h-133v40h179q0 -130 -37.5 -240.5
t-126.5 -200.5l-41 26q81 75 118 169z" />
    <glyph glyph-name="uniAE6C" unicode="&#xae6c;" 
d="M768 794v-645h-44v337h-133v-306h-46v598h46v-251h133v267h44zM177.5 501q38.5 79 43.5 181h-152v41h197q0 -125 -39 -220.5t-132 -175.5l-36 29q80 66 118.5 145zM215 219h46v-224h536v-40h-582v264zM381 472q37 96 41 210h-133v41h177q0 -132 -36.5 -245t-126.5 -205
l-40 26q81 77 118 173z" />
    <glyph glyph-name="uniAE6F" unicode="&#xae6f;" 
d="M777 241v-41h-535v-214h543v-40h-590v295h582zM178 522.5q37 73.5 42 172.5h-151v40h197q0 -120 -39 -210.5t-130 -166.5l-35 29q79 62 116 135.5zM380.5 493.5q36.5 90.5 41.5 201.5h-133v40h177q0 -130 -36.5 -237.5t-125.5 -195.5l-41 27q81 74 117.5 164.5zM545 779
h46v-215h133v230h44v-496h-44v225h-133v-220h-46v476z" />
    <glyph glyph-name="uniAE70" unicode="&#xae70;" 
d="M768 794v-449h-44v200h-133v-195h-46v429h46v-194h133v209h44zM177.5 538q37.5 67 43.5 161h-152v40h197q0 -116 -40 -200t-131 -154l-34 29q79 57 116.5 124zM211 298h557v-189h-508v-123h545v-40h-591v200h509v112h-512v40zM380 510.5q37 83.5 42 188.5h-134v40h179
q0 -125 -38 -225t-129 -181l-38 26q81 68 118 151.5z" />
    <glyph glyph-name="uniAE78" unicode="&#xae78;" 
d="M769 794v-496h-45v225h-133v-220h-45v476h45v-215h133v230h45zM178 522.5q37 73.5 42 172.5h-151v40h197q0 -120 -39 -210.5t-130 -166.5l-35 29q79 62 116 135.5zM215 254h554v-307h-554v307zM725 -14v228h-464v-228h464zM380.5 493.5q36.5 90.5 41.5 201.5h-133v40h178
q0 -130 -36.5 -237.5t-126.5 -195.5l-41 27q81 74 117.5 164.5z" />
    <glyph glyph-name="uniAE79" unicode="&#xae79;" 
d="M769 794v-469h-45v208h-133v-202h-45v447h45v-205h133v221h45zM178.5 531q37.5 71 42.5 169h-151v41h197q0 -120 -39.5 -209t-131.5 -163l-34 29q79 62 116.5 133zM217 282h46v-120h461v120h45v-337h-552v337zM724 -15v137h-461v-137h461zM381.5 502.5
q36.5 88.5 41.5 197.5h-134v41h179q0 -127 -36.5 -232t-125.5 -193l-40 27q79 71 115.5 159.5z" />
    <glyph glyph-name="uniAE7B" unicode="&#xae7b;" 
d="M768 796v-564h-45v292h-133v-220h-45v474h45v-213h133v231h45zM177 508q38 79 43 181h-151v40h196q0 -124 -39 -219.5t-130 -174.5l-36 29q79 65 117 144zM301 20.5q71 34.5 118.5 87t47.5 113.5v46h47v-46q0 -62 47.5 -114t118 -86.5t138.5 -46.5l-19 -38
q-99 21 -187.5 75.5t-121.5 131.5q-34 -77 -122 -131.5t-187 -75.5l-19 38q68 12 139 46.5zM381 478.5q37 96.5 41 210.5h-134v40h178q0 -132 -36.5 -245t-126.5 -205l-41 25q82 78 119 174.5z" />
    <glyph glyph-name="uniAE7C" unicode="&#xae7c;" 
d="M768 795v-504h-45v235h-133v-229h-45v481h45v-212h133v229h45zM177.5 521.5q37.5 73.5 42.5 171.5h-152v40h197q0 -120 -39 -210t-129 -166l-35 30q78 61 115.5 134.5zM199.5 34.5q41.5 36.5 65.5 80t24 84.5v57h45v-57q0 -64 36 -123.5t100 -92.5q63 36 100.5 98.5
t37.5 117.5v57h45v-57q0 -44 23.5 -88t65.5 -79t94 -53l-24 -36q-65 24 -112.5 70.5t-68.5 104.5q-19 -57 -60 -106.5t-99 -75.5q-62 25 -103.5 72.5t-59.5 106.5q-23 -55 -70.5 -101.5t-108.5 -70.5l-23 36q51 19 92.5 55.5zM380 495q36 89 41 198h-133v40h178
q0 -128 -36.5 -234t-126.5 -193l-40 27q81 73 117 162z" />
    <glyph glyph-name="uniAE7D" unicode="&#xae7d;" 
d="M769 795v-531h-45v247h-132v-215h-46v482h46v-226h132v243h45zM178.5 511.5q37.5 73.5 42.5 171.5h-152v42h197q0 -121 -39 -211.5t-129 -166.5l-36 29q79 62 116.5 135.5zM280 204q77 41 212 41t212 -41t77 -114t-76.5 -113.5t-212.5 -40.5t-212.5 40.5t-76.5 113.5
t77 114zM314.5 6q66.5 -31 177.5 -31q110 0 176 31t66 84t-66 84.5t-176 31.5q-111 0 -177.5 -31.5t-66.5 -84.5t66.5 -84zM380 482.5q37 90.5 42 200.5h-133v42h177q0 -130 -37 -237.5t-127 -195.5l-39 27q80 73 117 163.5z" />
    <glyph glyph-name="uniAE84" unicode="&#xae84;" 
d="M716 796v-244h141v-41h-141v-218h141v-41h-141v-319h-46v863h46zM204 393.5q54 131.5 60 264.5h-193v40h235q0 -150 -52.5 -298t-162.5 -263l-40 26q99 99 153 230.5zM446.5 361.5q46.5 148.5 50.5 296.5h-164v40h208q0 -163 -45 -328t-157 -293l-40 26
q101 110 147.5 258.5z" />
    <glyph glyph-name="uniAE85" unicode="&#xae85;" 
d="M708 795v-144h135v-40h-135v-139h135v-39h-135v-149h-47v511h47zM201 516q47 75 54 175h-181v40h226q0 -124 -50 -216.5t-157 -163.5l-31 30q92 60 139 135zM158 243h550v-313h-47v272h-503v41zM497 691h-160v40h205q0 -131 -47 -240.5t-154 -196.5l-33 32
q176 134 189 365z" />
    <glyph glyph-name="uniAE86" unicode="&#xae86;" 
d="M284 731q0 -123 -49.5 -216t-154.5 -166l-35 30q92 62 139 137t54 175h-181v40h227zM117 254h275v-326h-47v284h-228v42zM476 691h-160v40h206q0 -131 -46 -240.5t-149 -195.5l-38 29q174 138 187 367zM440 254h265v-326h-47v284h-218v42zM657 795h47v-144h134v-42h-134
v-146h134v-42h-134v-139h-47v513z" />
    <glyph glyph-name="uniAE8C" unicode="&#xae8c;" 
d="M709 795v-121h134v-40h-134v-117h134v-40h-134v-125h-48v443h48zM196 549q48 63 56 153h-182v41h228q0 -114 -52.5 -194t-152.5 -149l-32 32q87 54 135 117zM176 306h533v-195h-485v-125h520v-40h-565v205h483v116h-486v39zM442.5 521q45.5 79 52.5 181h-161v41h206
q0 -124 -48 -220.5t-152 -172.5l-34 29q91 63 136.5 142z" />
    <glyph glyph-name="uniAE8D" unicode="&#xae8d;" 
d="M705 286v-351h-48v311h-211v40h259zM186.5 548.5q49.5 63.5 57.5 153.5h-182v40h227q0 -113 -52.5 -193t-151.5 -149l-33 31q85 54 134.5 117.5zM127 286h278v-186h-229v-121h1q103 0 162.5 3.5t124.5 15.5l5 -41q-69 -11 -132 -15t-160 -4h-47v202h229v107h-232v39z
M434 521.5q45 78.5 52 180.5h-159v40h205q0 -122 -47.5 -218.5t-145.5 -172.5l-38 28q88 64 133 142.5zM657 795h47v-127h133v-39h-133v-126h133v-40h-133v-127h-47v459z" />
    <glyph glyph-name="uniAEBC" unicode="&#xaebc;" 
d="M746 796v-863h-46v471h-196q-50 -195 -166 -327l-39 26q101 110 147 258t50 297h-163v40h207q0 -135 -26 -253h186v351h46zM205.5 393q53.5 131 59.5 265h-192v40h235q0 -150 -52.5 -298t-163.5 -263l-40 26q100 99 153.5 230z" />
    <glyph glyph-name="uniAEBD" unicode="&#xaebd;" 
d="M746 243v-310h-47v269h-520v41h567zM198 516.5q47 74.5 54 174.5h-180v40h225q0 -124 -50 -216.5t-157 -164.5l-32 31q93 61 140 135.5zM489 691h-158v40h203q0 -94 -21 -170h186v234h47v-511h-47v237h-199q-47 -131 -164 -228l-35 32q175 135 188 366z" />
    <glyph glyph-name="uniAEBE" unicode="&#xaebe;" 
d="M746 795v-509h-47v233h-202q-47 -124 -160 -215l-35 30q92 71 137 161t50 199h-158v40h203q0 -94 -23 -175h188v236h47zM198 519.5q47 74.5 54 174.5h-180v40h225q0 -123 -50 -215t-156 -163l-33 30q93 59 140 133.5zM157 245h274v-312h-46v271h-228v41zM478 245h268
v-312h-47v271h-221v41z" />
    <glyph glyph-name="uniAEC0" unicode="&#xaec0;" 
d="M746 794v-634h-47v323h-205q-48 -129 -158 -222l-34 30q175 142 187 387h-158v42h203q0 -107 -27 -199h192v273h47zM201 489q45 84 51 189h-180v42h225q0 -127 -47.5 -230t-151.5 -183l-33 32q91 66 136 150zM206 204h46v-209h516v-40h-562v249z" />
    <glyph glyph-name="uniAEC4" unicode="&#xaec4;" 
d="M245.5 550q-51.5 -80 -152.5 -148l-32 32q87 54 135 116.5t56 152.5h-177v41h222q0 -114 -51.5 -194zM198 303h546v-192h-498v-131h529v-39h-574v208h498v114h-501v40zM438 522q45 79 52 181h-162v41h206q0 -92 -25 -168h190v219h45v-446h-45v187h-206
q-48 -106 -156 -185l-34 29q90 63 135 142z" />
    <glyph glyph-name="uniAECC" unicode="&#xaecc;" 
d="M247 516.5q-50 -92.5 -157 -163.5l-32 30q93 60 140 135t54 175h-180v40h225q0 -124 -50 -216.5zM198 258h548v-311h-548v311zM700 -14v233h-457v-233h457zM439 492q45 91 50 201h-158v40h203q0 -94 -23 -175h188v236h47v-491h-47v215h-202q-47 -125 -160 -218l-35 31
q92 70 137 161z" />
    <glyph glyph-name="uniAECD" unicode="&#xaecd;" 
d="M746 795v-461h-47v192h-202q-47 -122 -159 -211l-34 30q90 69 134.5 157t50.5 196h-157v40h202q0 -94 -23 -172h188v229h47zM199 527.5q47 72.5 54 170.5h-179v40h224q0 -122 -50 -212t-156 -161l-32 32q92 58 139 130.5zM201 286h46v-127h453v127h46v-340h-545v340z
M700 -15v136h-453v-136h453z" />
    <glyph glyph-name="uniAECF" unicode="&#xaecf;" 
d="M745 795v-597h-46v290h-209q-48 -115 -154 -202l-35 30q92 71 136.5 163t50.5 204h-158v41h204q0 -105 -29 -196h194v267h46zM198 508q47 75 54 175h-180v41h225q0 -123 -50 -216.5t-157 -165.5l-32 31q93 60 140 135zM291.5 23q69.5 36 115 91t45.5 124v45h47v-45
q0 -67 45 -121.5t113.5 -90t139.5 -50.5l-21 -37q-98 22 -183 76.5t-118 134.5q-33 -81 -118 -136t-186 -79l-20 38q71 14 140.5 50z" />
    <glyph glyph-name="uniAED0" unicode="&#xaed0;" 
d="M245.5 518q-50.5 -93 -157.5 -165l-31 31q92 60 139.5 135t54.5 175h-180v40h225q0 -123 -50.5 -216zM188 34.5q42 36.5 65.5 80.5t23.5 85v69h45v-69q0 -64 36.5 -123.5t100.5 -93.5q63 36 101 99t38 118v69h45v-69q0 -45 23.5 -89t65 -79t93.5 -53l-24 -36
q-64 24 -111.5 70.5t-69.5 103.5q-19 -57 -60 -106t-99 -75q-61 25 -103 72t-60 106q-23 -55 -70 -101t-108 -70l-25 36q51 19 93 55.5zM438 497.5q45 88.5 50 196.5h-158v40h203q0 -100 -26 -182h191v243h47v-500h-47v216h-206q-48 -115 -156 -203l-33 31q90 70 135 158.5z
" />
    <glyph glyph-name="uniAED1" unicode="&#xaed1;" 
d="M746 795v-536h-47v243h-208q-48 -114 -154 -201l-36 30q177 135 188 362h-158v40h203q0 -106 -28 -190h193v252h47zM198 518q47 75 54 175h-180v40h225q0 -124 -50.5 -216.5t-157.5 -164.5l-31 31q93 60 140 135zM256.5 212q75.5 42 208.5 42t209.5 -42t76.5 -117
t-76 -117t-210 -42q-133 0 -208.5 42t-75.5 117t75.5 117zM292 7.5q65 -32.5 173 -32.5q109 0 174 32.5t65 87.5t-65 87.5t-174 32.5q-108 0 -173 -32.5t-65 -87.5t65 -87.5z" />
    <glyph glyph-name="uniAED3" unicode="&#xaed3;" 
d="M246 531.5q-50 -87.5 -155 -155.5l-32 30q92 57 138.5 127.5t53.5 167.5h-180v39h225q0 -121 -50 -208.5zM297.5 13q69.5 30 116.5 74t47 92v5h-261v39h261v99h47v-99h263v-39h-263v-5q0 -47 45.5 -90.5t113.5 -74t132 -40.5l-18 -37q-92 17 -177.5 65.5t-118.5 111.5
q-34 -64 -122 -112.5t-181 -64.5l-18 37q64 9 133.5 39zM438 511q44 84 50 190h-158v39h203q0 -91 -24 -171h190v225h46v-496h-46v231h-205q-49 -115 -156 -198l-34 30q90 66 134 150z" />
    <glyph glyph-name="uniAED5" unicode="&#xaed5;" 
d="M284 743q0 -115 -51.5 -197t-152.5 -150l-34 32q88 53 136 117.5t56 156.5h-179v41h225zM182 283h564v-38h-518v-112h507v-39h-507v-113h538v-39h-584v341zM422 520q45 80 52 182h-159v41h204q0 -86 -23 -163h194v214h46v-458h-46v203h-210q-47 -111 -154 -193l-38 29
q89 65 134 145z" />
    <glyph glyph-name="uniAED8" unicode="&#xaed8;" 
d="M96 153l-38 24q83 95 120 217.5t40 253.5h-149v39h190q0 -335 -163 -534zM371.5 357.5q32.5 140.5 34.5 290.5h-117v39h158q0 -143 -15 -241h141v324h45v-789h-45v424h-148q-37 -193 -137 -318l-39 25q90 105 122.5 245.5zM728 795h45v-863h-45v863z" />
    <glyph glyph-name="uniAED9" unicode="&#xaed9;" 
d="M769 795v-511h-45v511h45zM178 516q38 76 43 176h-151v40h196q0 -121 -39.5 -214t-129.5 -170l-35 28q78 64 116 140zM194 239h575v-307h-46v266h-529v41zM372.5 486q36.5 94 41.5 206h-125v40h169q0 -96 -16 -169h132v213h44v-484h-44v231h-142q-39 -134 -137 -232
l-40 26q81 75 117.5 169z" />
    <glyph glyph-name="uniAEDC" unicode="&#xaedc;" 
d="M261 219v-212h535v-40h-581v252h46zM178 500.5q38 79.5 43 182.5h-151v40h196q0 -124 -39 -220t-131 -178l-36 30q80 66 118 145.5zM373 469.5q36 97.5 40 213.5h-124v40h169q0 -100 -18 -184h135v237h44v-604h-44v326h-146q-39 -134 -136 -231l-38 28q82 77 118 174.5z
M723 794h45v-645h-45v645z" />
    <glyph glyph-name="uniAEE8" unicode="&#xaee8;" 
d="M769 794v-497h-45v497h45zM178.5 522q37.5 74 42.5 173h-151v40h194q0 -121 -38.5 -211t-129.5 -166l-33 28q78 62 115.5 136zM215 254h553v-307h-553v307zM372.5 492.5q36.5 92.5 41.5 202.5h-125v40h167q0 -97 -18 -176h136v217h44v-468h-44v211h-147
q-38 -125 -133 -218l-38 25q80 74 116.5 166.5zM724 -14v228h-463v-228h463z" />
    <glyph glyph-name="uniAEEB" unicode="&#xaeeb;" 
d="M768 794v-584h-45v584h45zM177.5 508q37.5 76 42.5 177h-151v41h197q0 -123 -39.5 -217t-130.5 -170l-36 27q80 66 117.5 142zM297 22.5q71 34.5 119 87.5t48 115v38h48v-38q0 -62 48 -115t119.5 -87.5t139.5 -46.5l-19 -37q-99 20 -189 75t-123 133q-34 -78 -123 -133
t-188 -75l-19 37q68 12 139 46.5zM371.5 476.5q36.5 95.5 41.5 208.5h-125v41h170q0 -93 -17 -172h132v222h45v-487h-45v224h-142q-38 -134 -138 -235l-39 26q81 77 117.5 172.5z" />
    <glyph glyph-name="uniAEED" unicode="&#xaeed;" 
d="M769 795v-531h-45v531h45zM179 513.5q37 73.5 42 172.5h-149v41h194q0 -122 -39 -212.5t-129 -166.5l-35 29q79 63 116 136.5zM261.5 203.5q78.5 40.5 217.5 40.5q140 0 218.5 -40.5t78.5 -114.5q0 -73 -78.5 -113t-218.5 -40t-218 40t-78 113q0 74 78.5 114.5z
M297.5 5.5q67.5 -30.5 181.5 -30.5q115 0 182.5 30.5t67.5 83.5q0 54 -67.5 85t-182.5 31q-114 0 -181.5 -31t-67.5 -85q0 -53 67.5 -83.5zM373 483.5q36 91.5 41 202.5h-125v41h169q0 -95 -17 -174h133v223h44v-480h-44v217h-144q-39 -127 -135 -222l-38 27
q80 74 116 165.5z" />
    <glyph glyph-name="uniAEF4" unicode="&#xaef4;" 
d="M746 796v-863h-46v345h-245q-50 -119 -125 -204l-41 26q101 110 147.5 259t50.5 299h-160v40h204q0 -82 -9 -153h178v251h46zM196.5 392q54.5 132 60.5 266h-190v40h234q0 -150 -53.5 -299.5t-166.5 -264.5l-39 28q100 98 154.5 230zM700 318v187h-183q-16 -99 -47 -187
h230z" />
    <glyph glyph-name="uniAEF8" unicode="&#xaef8;" 
d="M699 408v171h-182q-37 -194 -184 -318l-36 30q175 140 187 387h-154v42h199q0 -51 -6 -102h176v176h47v-638h-47v213h-201v39h201zM201 489q45 84 51 189h-180v42h225q0 -127 -47.5 -230t-151.5 -183l-33 32q91 66 136 150zM206 202h46v-207h516v-40h-562v247z" />
    <glyph glyph-name="uniAEFC" unicode="&#xaefc;" 
d="M699 495v123h-180q-19 -79 -64 -145.5t-119 -121.5l-36 29q90 63 135.5 142t51.5 181h-159v41h204q0 -45 -6 -87h173v138h45v-446h-45v107h-193v39h193zM196 550.5q48 62.5 56 152.5h-177v41h222q0 -114 -51.5 -194t-152.5 -147l-32 31q87 54 135 116.5zM198 303h546
v-192h-498v-131h529v-39h-574v208h498v114h-501v40z" />
    <glyph glyph-name="uniAF07" unicode="&#xaf07;" 
d="M699 432v145h-182q-39 -175 -181 -291l-35 29q175 136 186 368h-157v41h202q0 -59 -8 -106h175v176h46v-597h-46v194h-197v41h197zM198 508q47 75 54 175h-180v41h225q0 -123 -50 -216.5t-157 -165.5l-32 31q93 60 140 135zM291.5 23.5q69.5 35.5 115 90.5t45.5 124v34
h47v-34q0 -67 45 -121.5t113.5 -90t139.5 -50.5l-20 -37q-100 23 -184.5 77t-117.5 135q-33 -81 -118.5 -136t-185.5 -78l-20 37q71 14 140.5 49.5z" />
    <glyph glyph-name="uniAF08" unicode="&#xaf08;" 
d="M698 452v146h-180q-36 -173 -182 -290l-34 31q90 70 135 158.5t50 196.5h-157v40h202q0 -48 -6 -95h172v156h47v-500h-47v117h-192v40h192zM196.5 519q47.5 75 54.5 175h-180v40h225q0 -123 -50.5 -216t-157.5 -165l-31 31q92 60 139.5 135zM188 34.5q42 36.5 65.5 80.5
t23.5 85v69h45v-69q0 -64 36.5 -123.5t100.5 -93.5q63 36 101 99t38 118v69h45v-69q0 -45 23.5 -89t65 -79t93.5 -53l-24 -36q-64 24 -111.5 70.5t-69.5 103.5q-19 -57 -60 -106t-99 -75q-61 25 -103 72t-60 106q-23 -55 -70 -101t-108 -70l-25 36q51 19 93 55.5z" />
    <glyph glyph-name="uniAF09" unicode="&#xaf09;" 
d="M746 795v-536h-47v151h-197v40h197v136h-181q-39 -169 -181 -285l-36 30q177 135 188 362h-158v40h203q0 -61 -8 -106h173v168h47zM198 518q47 75 54 175h-180v40h225q0 -124 -50.5 -216.5t-157.5 -164.5l-31 31q93 60 140 135zM256.5 212q75.5 42 208.5 42t209.5 -42
t76.5 -117t-76 -117t-210 -42q-133 0 -208.5 42t-75.5 117t75.5 117zM292 7.5q65 -32.5 173 -32.5q109 0 174 32.5t65 87.5t-65 87.5t-174 32.5q-108 0 -173 -32.5t-65 -87.5t65 -87.5z" />
    <glyph glyph-name="uniAF0D" unicode="&#xaf0d;" 
d="M749 274v-39h-500v-105h487v-38h-487v-107h518v-39h-564v328h546zM197 527.5q47 72.5 54 170.5h-179v40h225q0 -121 -50.5 -211t-155.5 -160l-32 31q91 57 138 129.5zM428 503q46 87 52 195h-150v40h194q0 -52 -7 -95h182v152h47v-476h-47v116h-195v38h195v131h-189
q-38 -173 -186 -287l-35 31q93 68 139 155z" />
    <glyph glyph-name="uniAF10" unicode="&#xaf10;" 
d="M96 153l-38 24q83 95 120 217.5t40 253.5h-149v39h190q0 -335 -163 -534zM371.5 357.5q32.5 140.5 34.5 290.5h-117v39h158q0 -69 -4 -137h132v220h45v-789h-45v307h-180q-41 -118 -107 -201l-39 25q90 105 122.5 245.5zM575 329v180h-135q-10 -99 -33 -180h168zM728 795
h45v-863h-45v863z" />
    <glyph glyph-name="uniAF2C" unicode="&#xaf2c;" 
d="M371 699v-19q0 -80 -9.5 -180.5t-44.5 -242.5l-48 8q33 122 44 217t12 177h-216v40h262zM45 107h385v292h47v-292h347v-39h-779v39zM445 699h283v-61q0 -95 -6.5 -179.5t-30.5 -200.5l-47 8q25 109 31.5 193t6.5 179v21h-237v40z" />
    <glyph glyph-name="uniAF2D" unicode="&#xaf2d;" 
d="M727 756v-27q0 -60 -4 -123t-18 -146l-46 6q23 130 23 251h-233v39h278zM46 373h383v188h47v-188h348v-40h-778v40zM116 756h257v-24q0 -58 -6.5 -123t-29.5 -150l-45 7q36 130 36 251h-212v39zM132 225h594v-287h-47v247h-547v40z" />
    <glyph glyph-name="uniAF30" unicode="&#xaf30;" 
d="M727 748v-28q0 -62 -4 -128.5t-18 -153.5l-47 6q24 135 24 264h-233v40h278zM46 358h383v186h47v-186h348v-39h-778v39zM116 748h257v-25q0 -61 -6.5 -128.5t-30.5 -156.5l-45 7q37 135 37 263h-212v40zM151 219h47v-224h545v-40h-592v264z" />
    <glyph glyph-name="uniAF32" unicode="&#xaf32;" 
d="M552 236v88h46v-88h167v-39h-383v39h170zM46 408h383v167h47v-167h348v-40h-778v40zM116 756h257v-25q0 -55 -6.5 -116t-29.5 -142l-46 8q37 127 37 236h-212v39zM143 253h46v-257q107 3 207 26l7 -41q-112 -26 -223 -26h-37v298zM468.5 128.5q41.5 30.5 105.5 30.5
q65 0 106.5 -30.5t41.5 -80.5q0 -51 -41.5 -81.5t-106.5 -30.5q-64 0 -105.5 30.5t-41.5 81.5q0 50 41.5 80.5zM449 756h278v-25q0 -136 -22 -260l-46 7q23 125 23 239h-233v39zM498 -7q29 -21 76 -21t76.5 21t29.5 55q0 33 -29.5 54t-76.5 21q-46 0 -75.5 -21t-29.5 -54
q0 -34 29 -55z" />
    <glyph glyph-name="uniAF33" unicode="&#xaf33;" 
d="M727 756v-26q0 -59 -4 -121.5t-18 -143.5l-46 5q23 128 23 247h-233v39h278zM46 387h383v184h47v-184h348v-40h-778v40zM116 756h257v-24q0 -57 -6.5 -120t-29.5 -146l-45 7q36 131 36 244h-212v39zM148 228h574v-41h-527v-200h539v-39h-586v280z" />
    <glyph glyph-name="uniAF34" unicode="&#xaf34;" 
d="M727 765v-23q0 -128 -21 -243l-47 7q23 117 23 219h-233v40h278zM46 433h383v167h47v-167h348v-41h-778v41zM116 765h257v-23q0 -52 -6.5 -110.5t-29.5 -133.5l-46 9q35 110 37 218h-212v40zM143 294h581v-185h-532v-124h563v-39h-609v202h533v107h-536v39z" />
    <glyph glyph-name="uniAF3C" unicode="&#xaf3c;" 
d="M727 756v-26q0 -60 -4 -122.5t-18 -143.5l-46 5q23 129 23 248h-233v39h278zM46 389h383v179h47v-179h348v-40h-778v40zM116 756h257v-24q0 -57 -6.5 -120.5t-29.5 -147.5l-45 8q36 131 36 245h-212v39zM145 237h581v-291h-581v291zM681 -14v213h-490v-213h490z" />
    <glyph glyph-name="uniAF3D" unicode="&#xaf3d;" 
d="M727 757v-27q0 -57 -4 -118t-18 -142l-46 6q23 127 23 242h-233v39h278zM46 404h383v168h47v-168h348v-40h-778v40zM116 757h257v-24q0 -56 -6.5 -118.5t-29.5 -146.5l-45 9q36 128 36 241h-212v39zM153 284h47v-119h474v119h46v-338h-567v338zM674 -15v141h-474v-141
h474z" />
    <glyph glyph-name="uniAF3F" unicode="&#xaf3f;" 
d="M727 749v-27q0 -60 -4 -123.5t-18 -148.5l-47 6q24 130 24 253h-233v40h278zM46 377h383v176h47v-176h348v-39h-778v39zM250 19q69 32 114.5 82t45.5 113v52h47v-52q0 -63 46 -113t115.5 -82t140.5 -44l-19 -38q-101 20 -187 70.5t-119 126.5q-33 -76 -119 -126.5
t-187 -70.5l-19 38q72 12 141 44zM116 749h257v-23q0 -59 -6.5 -124.5t-29.5 -151.5l-45 8q36 133 36 251h-212v40z" />
    <glyph glyph-name="uniAF41" unicode="&#xaf41;" 
d="M651 212.5q78 -41.5 78 -118.5q0 -75 -78.5 -117t-217.5 -42t-217 42t-78 117q0 77 78 118.5t217 41.5q140 0 218 -41.5zM46 385h383v179h47v-179h348v-40h-778v40zM116 756h257v-24q0 -57 -6.5 -120.5t-29.5 -147.5l-45 7q36 132 36 246h-212v39zM215 31
q31 -27 87.5 -42t130.5 -15q113 0 181 33t68 87q0 55 -68 88t-181 33t-181 -33t-68 -88q0 -36 31 -63zM449 756h278v-27q0 -59 -4 -121.5t-18 -143.5l-46 5q23 130 23 248h-233v39z" />
    <glyph glyph-name="uniAF42" unicode="&#xaf42;" 
d="M727 756v-26q0 -59 -4 -121.5t-18 -143.5l-46 5q23 129 23 247h-233v39h278zM46 388h383v179h47v-179h348v-40h-778v40zM244 16q68 30 115 76.5t53 105.5h-270v39h589v-39h-270q6 -60 53 -107t114.5 -76.5t136.5 -40.5l-18 -37q-102 19 -190 69.5t-121 127.5
q-33 -76 -120 -126t-190 -70l-19 37q69 11 137 41zM116 756h257v-23q0 -57 -6.5 -121t-29.5 -148l-45 8q36 129 36 245h-212v39z" />
    <glyph glyph-name="uniAF43" unicode="&#xaf43;" 
d="M727 759v-26q0 -135 -22 -259l-46 6q23 125 23 239h-233v40h278zM46 411h383v165h47v-165h348v-41h-778v41zM249.5 17.5q68.5 31.5 114.5 78t46 100.5h-259v39h259v101h46v-101h262v-39h-262q0 -54 46.5 -100.5t115.5 -78t135 -42.5l-21 -37q-94 19 -180 69t-119 119
q-32 -69 -117.5 -119t-180.5 -69l-20 37q66 11 134.5 42.5zM116 759h257v-25q0 -55 -6.5 -116t-29.5 -143l-46 8q37 127 37 236h-212v40z" />
    <glyph glyph-name="uniAF45" unicode="&#xaf45;" 
d="M727 765v-23q0 -129 -21 -246l-47 6q23 121 23 223h-233v40h278zM46 423h383v168h47v-168h348v-40h-778v40zM116 765h257v-23q0 -53 -6.5 -112t-29.5 -136l-46 9q35 112 37 222h-212v40zM145 278h584v-38h-537v-107h515v-38h-515v-110h543v-39h-590v332z" />
    <glyph glyph-name="uniAF48" unicode="&#xaf48;" 
d="M259 692v-54q0 -80 -7.5 -152t-36.5 -169l-44 10q29 93 36.5 162.5t7.5 148.5v13h-150v41h194zM307 178v265h45v-263q140 7 238 20l4 -36q-216 -34 -548 -34l-9 43q183 2 270 5zM316 692h216v-46q0 -78 -3.5 -152t-17.5 -170l-43 5q14 96 17.5 169t3.5 148v5h-173v41z
M651 795h45v-370h152v-41h-152v-452h-45v863z" />
    <glyph glyph-name="uniAF49" unicode="&#xaf49;" 
d="M257 733v-18q0 -141 -34 -277l-46 7q33 124 36 248h-144v40h188zM300 355v176h45v-174q140 7 240 20l4 -35q-206 -33 -544 -33l-6 42q137 0 261 4zM140 214h557v-272h-46v232h-511v40zM311 733h212v-42q0 -61 -4.5 -119.5t-22.5 -134.5l-45 6q18 76 22.5 132.5t4.5 115.5
v2h-167v40zM651 795h46v-259h136v-42h-136v-235h-46v536z" />
    <glyph glyph-name="uniAF50" unicode="&#xaf50;" 
d="M257 742v-16q0 -128 -33 -249l-46 7q33 113 35 217h-144v41h188zM300 406v159h45v-157q154 9 242 22l3 -37q-207 -31 -545 -31l-6 40q137 0 261 4zM151 282h546v-180h-497v-117h531v-39h-577v195h497v104h-500v37zM311 742h212v-37q0 -54 -4 -107t-20 -120l-45 6
q15 66 19.5 116.5t4.5 100.5h-167v41zM651 795h46v-224h136v-38h-136v-206h-46v468z" />
    <glyph glyph-name="uniAF5C" unicode="&#xaf5c;" 
d="M257 736v-18q0 -56 -6 -122t-28 -154l-46 6q33 124 36 248h-144v40h188zM300 361v175h45v-173q128 5 240 21l4 -36q-122 -20 -255.5 -26t-288.5 -6l-6 41q167 0 261 4zM207 70q47 62 47 128v44h43v-44q0 -61 37 -121t101 -93q64 33 101.5 93t37.5 121v44h45v-44
q0 -66 47 -128t123 -90l-25 -36q-60 24 -103 68t-64 99q-20 -57 -61 -103t-100 -71q-59 25 -100.5 71t-60.5 103q-21 -55 -64 -99t-103 -68l-24 36q76 28 123 90zM311 736h212v-42q0 -61 -4.5 -119.5t-21.5 -133.5l-46 5q18 76 22.5 132.5t4.5 115.5v2h-167v40zM651 795h46
v-243h136v-41h-136v-234h-46v518z" />
    <glyph glyph-name="uniAF5D" unicode="&#xaf5d;" 
d="M632.5 192q73.5 -39 73.5 -108t-73 -107.5t-203 -38.5t-203 38.5t-73 107.5t73.5 108t202.5 39t202.5 -39zM300 362v175h45v-173q134 7 240 22l4 -36q-123 -20 -258.5 -26.5t-285.5 -6.5l-6 41q167 0 261 4zM69 736h188v-18q0 -56 -6 -122t-28 -154l-46 6q33 124 36 248
h-144v40zM262.5 5q62.5 -29 167.5 -29t167.5 29t62.5 79t-62.5 79t-167.5 29t-167.5 -29t-62.5 -79t62.5 -79zM311 736h212v-41q0 -61 -4.5 -119t-22.5 -133l-45 6q18 75 22.5 131t4.5 115v1h-167v40zM651 795h46v-248h136v-39h-136v-260h-46v547z" />
    <glyph glyph-name="uniAF64" unicode="&#xaf64;" 
d="M317 432v-238q121 5 201 17l4 -35q-103 -19 -222.5 -24.5t-251.5 -5.5l-8 42q118 0 233 4v240h44zM65 691h169v-33q0 -67 -6 -140t-27 -171l-44 5q22 93 28 163.5t6 135.5h-126v40zM283 691h193v-59q0 -77 -3 -140.5t-14 -143.5l-43 7q12 79 15 140.5t3 136.5v19h-151v40
zM557 773h44v-352h120v375h45v-863h-45v447h-120v-401h-44v794z" />
    <glyph glyph-name="uniAF65" unicode="&#xaf65;" 
d="M317 546v-182q119 7 197 16l2 -35q-173 -28 -466 -28l-7 41q118 0 230 4v184h44zM64 737h169v-15q0 -60 -5 -122.5t-25 -146.5l-42 7q28 122 30 237h-127v40zM187 217h578v-285h-46v244h-532v41zM279 737h197v-40q0 -60 -3.5 -116t-15.5 -127l-41 4q12 72 15 126.5
t3 112.5h-155v40zM558 780h45v-235h117v250h45v-535h-45v245h-117v-239h-45v514z" />
    <glyph glyph-name="uniAF78" unicode="&#xaf78;" 
d="M316 546v-181q120 7 196 16l3 -36q-174 -27 -466 -27l-7 41q118 0 230 4v183h44zM62 737h170v-15q0 -60 -5 -122.5t-25 -146.5l-42 7q28 122 30 237h-128v40zM239 56.5q51 61.5 51 129.5v44h45v-44q0 -62 36.5 -122.5t101.5 -92.5q64 33 101 93.5t37 121.5v44h44v-44
q0 -68 51 -129.5t131 -89.5l-24 -36q-64 25 -110.5 69t-68.5 100q-19 -57 -60.5 -103.5t-101.5 -71.5q-59 25 -100 70.5t-60 102.5q-23 -55 -69.5 -99t-108.5 -68l-25 36q79 28 130 89.5zM278 737h197v-40q0 -60 -3.5 -116t-15.5 -127l-41 4q12 72 15 126.5t3 112.5h-155v40
zM557 780h45v-235h117v250h45v-533h-45v243h-117v-231h-45v506z" />
    <glyph glyph-name="uniAF79" unicode="&#xaf79;" 
d="M765 795v-544h-45v253h-117v-224h-45v500h45v-235h117v250h45zM273 363v184h44v-182q110 6 197 18l2 -36q-180 -30 -466 -30l-7 41q125 0 230 5zM64 737h169v-15q0 -139 -30 -269l-42 8q28 121 30 236h-127v40zM267 200.5q77 40.5 213 40.5q138 0 215 -40t77 -113
t-77 -113t-215 -40q-136 0 -213 40.5t-77 112.5t77 112.5zM304 5q66 -31 176 -31q112 0 178.5 31t66.5 83t-66.5 83t-178.5 31q-110 0 -176 -31t-66 -83t66 -83zM279 737h197v-40q0 -60 -3.5 -116t-15.5 -127l-41 4q12 72 15 126.5t3 112.5h-155v40z" />
    <glyph glyph-name="uniAF80" unicode="&#xaf80;" 
d="M272 692v-35q0 -74 -6.5 -152t-30.5 -184l-46 6q24 101 31 176.5t7 147.5h-152v41h197zM325 177v268h45v-266q141 7 256 22l3 -35q-131 -21 -274 -28.5t-299 -7.5l-9 43q179 0 278 4zM336 692h222v-46q0 -78 -4 -152t-18 -171l-44 6q14 96 18 169t4 148v5h-178v41z
M692 795h46v-863h-46v863z" />
    <glyph glyph-name="uniAF84" unicode="&#xaf84;" 
d="M371 512v-174q138 6 257 21l4 -36q-224 -33 -580 -35l-5 41q132 0 279 6v177h45zM86 715h197v-18q0 -56 -6.5 -122t-29.5 -154l-46 6q35 124 37 248h-152v40zM192 196h46v-201h534v-40h-580v241zM339 715h232v-41q0 -61 -4.5 -119.5t-22.5 -135.5l-44 5q18 76 23 133
t5 117v1h-189v40zM697 795h47v-642h-47v642z" />
    <glyph glyph-name="uniAF88" unicode="&#xaf88;" 
d="M282 742v-15q0 -129 -33 -250l-45 7q32 113 34 218h-153v40h197zM325 403v162h45v-160q144 7 256 23l4 -35q-131 -21 -275 -28t-302 -7l-8 40q156 0 280 5zM177 276h567v-181h-519v-110h552v-39h-598v188h519v104h-521v38zM338 742h232v-37q0 -54 -4 -107t-20 -120l-43 6
q15 66 19 115.5t4 102.5h-188v40zM697 795h47v-477h-47v477z" />
    <glyph glyph-name="uniAF90" unicode="&#xaf90;" 
d="M744 794v-515h-46v515h46zM326 366v172h45v-170q145 8 258 22l4 -36q-239 -35 -581 -35l-5 41q132 0 279 6zM87 730h196v-18q0 -135 -35 -263l-44 7q32 116 34 233h-151v41zM193 230h551v-284h-551v284zM699 -14v204h-460v-204h460zM339 730h232v-41q0 -58 -4.5 -114
t-21.5 -129l-44 6q18 73 22.5 126.5t4.5 110.5h-189v41z" />
    <glyph glyph-name="uniAF91" unicode="&#xaf91;" 
d="M233 270v-113h465v113h46v-324h-557v324h46zM326 378v169h45v-167q137 6 258 21l4 -36q-233 -33 -581 -35l-5 42q132 0 279 6zM87 735h196v-17q0 -55 -6 -118t-29 -145l-44 7q32 116 34 233h-151v40zM698 -14v132h-465v-132h465zM339 735h232v-40q0 -59 -4.5 -115
t-21.5 -128l-44 6q18 73 22.5 126.5t4.5 110.5h-189v40zM698 794h46v-493h-46v493z" />
    <glyph glyph-name="uniAF95" unicode="&#xaf95;" 
d="M674 202.5q74 -40.5 74 -113.5t-74.5 -113t-206.5 -40t-206 40.5t-74 112.5q0 73 74 113.5t206 40.5q133 0 207 -40.5zM326 364v173h45v-170q137 6 258 21l4 -36q-224 -33 -581 -35l-5 41q132 0 279 6zM87 729h196v-18q0 -135 -35 -263l-45 6q33 118 35 234h-151v41z
M295 6q64 -31 172 -31t172 31t64 83q0 53 -64 84t-172 31t-172 -31t-64 -84q0 -52 64 -83zM339 729h232v-41q0 -58 -4.5 -114t-21.5 -129l-44 6q18 73 22.5 126.5t4.5 110.5h-189v41zM698 795h46v-537h-46v537z" />
    <glyph glyph-name="uniAF9C" unicode="&#xaf9c;" 
d="M335 699v-36q0 -85 -8.5 -177t-41.5 -225l-47 13q34 121 43.5 211t9.5 174h-194v40h238zM45 106h307v279h46v-279h133v279h46v-279h247v-39h-779v39zM418 699h309v-61q0 -94 -6 -178.5t-29 -199.5l-46 8q23 109 29 192.5t6 177.5v21h-263v40z" />
    <glyph glyph-name="uniAFB8" unicode="&#xafb8;" 
d="M291 364q45 171 48 326h-230v40h275v-9q0 -172 -44 -357h310q39 169 39 326h-239v40h284v-24q0 -68 -6.5 -149t-30.5 -193h127v-41h-365v-391h-45v391h-369v41h246z" />
    <glyph glyph-name="uniAFB9" unicode="&#xafb9;" 
d="M396 753v-9q0 -149 -36 -303h296q32 145 32 272h-219v40h264v-21q0 -147 -30 -291h125v-41h-371v-177h269v-286h-47v245h-548v41h281v177h-367v41h268q36 144 38 272h-225v40h270z" />
    <glyph glyph-name="uniAFBC" unicode="&#xafbc;" 
d="M311 404q38 154 40 294h-225v39h270v-8q0 -158 -37 -325h295q34 156 34 294h-219v39h264v-19q0 -64 -5.5 -138.5t-25.5 -175.5h126v-40h-367v-224h-44v224h-372v40h266zM151 220h47v-225h541v-40h-588v265z" />
    <glyph glyph-name="uniAFC0" unicode="&#xafc0;" 
d="M316 483q33 129 35 238h-225v39h270v-9q0 -134 -32 -268h294q28 121 30 238h-219v39h264v-17q0 -132 -28 -260h123v-40h-372v-131h269v-199h-535v-128h565v-39h-611v206h535v120h-537v40h269v131h-366v40h271z" />
    <glyph glyph-name="uniAFC7" unicode="&#xafc7;" 
d="M315 477q34 129 36 242h-225v39h270v-10q0 -136 -33 -271h294q28 120 31 242h-219v39h264v-18q0 -133 -28 -263h122v-40h-371v-142h-46v142h-366v40h271zM131 282h266v-180h-219v-117q95 0 149 3.5t112 14.5l6 -38q-61 -12 -116 -15.5t-152 -3.5h-45v194h220v103h-221v39
zM429 237h154v89h46v-89h157v-38h-357v38zM506 131q39 30 100 30q62 0 100.5 -30t38.5 -82t-38.5 -82.5t-100.5 -30.5q-61 0 -100 30.5t-39 82.5t39 82zM535 -7q27 -21 71 -21t70.5 21t26.5 56q0 34 -26.5 55.5t-70.5 21.5q-43 0 -70.5 -21.5t-27.5 -55.5q0 -35 27 -56z" />
    <glyph glyph-name="uniAFC8" unicode="&#xafc8;" 
d="M396 752v-8q0 -146 -33 -295h295q30 141 30 263h-219v40h264v-20q0 -143 -28 -283h123v-39h-371v-170h269v-293h-581v293h266v170h-366v39h270q34 139 36 263h-225v40h270zM681 -14v215h-490v-215h490z" />
    <glyph glyph-name="uniAFC9" unicode="&#xafc9;" 
d="M396 756v-8q0 -142 -32 -288h294q30 137 30 257h-219v39h264v-19q0 -142 -27 -277h122v-41h-372v-180h-45v180h-366v41h271q33 136 35 257h-225v39h270zM152 289h46v-125h476v125h47v-343h-569v343zM674 -15v139h-476v-139h476z" />
    <glyph glyph-name="uniAFCB" unicode="&#xafcb;" 
d="M313 440q36 144 38 272h-225v40h270v-9q0 -150 -35 -303h295q32 145 32 272h-219v40h264v-21q0 -147 -30 -291h125v-40h-372v-147h-45v147h-366v40h268zM248.5 10.5q69.5 26.5 115.5 68.5t46 95v42h47v-42q0 -53 46 -95.5t116 -68.5t141 -35l-19 -38q-101 15 -188 58.5
t-119 109.5q-33 -66 -120 -109.5t-188 -58.5l-18 38q71 9 140.5 35.5z" />
    <glyph glyph-name="uniAFCD" unicode="&#xafcd;" 
d="M396 748v-8q0 -148 -34 -299h295q28 132 31 267h-219v40h264v-19q0 -146 -29 -288h124v-40h-371v-144q128 -4 199 -45.5t71 -114.5q0 -75 -78 -116.5t-216 -41.5t-216 41.5t-78 116.5q0 72 71.5 114t200.5 46v144h-366v40h269q35 141 37 267h-225v40h270zM253.5 10
q67.5 -32 179.5 -32q114 0 181 32t67 87q0 56 -67 88.5t-181 32.5q-112 0 -179.5 -33t-67.5 -88t67.5 -87z" />
    <glyph glyph-name="uniAFCE" unicode="&#xafce;" 
d="M314 442q35 143 37 269h-225v40h270v-9q0 -147 -34 -300h295q31 146 31 269h-219v40h264v-21q0 -59 -5 -127t-24 -161h124v-40h-370v-156h273v-41h-270q5 -60 51.5 -107.5t115 -78t137.5 -41.5l-21 -37q-102 21 -188.5 70.5t-119.5 125.5q-33 -76 -120 -125.5t-188 -68.5
l-21 37q70 11 138.5 41t115 77.5t51.5 106.5h-270v41h272v156h-369v40h269z" />
    <glyph glyph-name="uniAFD4" unicode="&#xafd4;" 
d="M739 795v-863h-46v276h-213v39h213v548h46zM227 389q22 91 28.5 159t6.5 132h-169v41h214v-35q0 -66 -5.5 -134.5t-27.5 -161.5q117 3 206 10q19 85 24 148t5 130v2h-158v41h203v-43q0 -65 -4.5 -128t-22.5 -147l96 9l5 -37q-139 -17 -277 -23v-370h-46v368
q-116 -5 -262 -5l-8 42q58 0 192 2z" />
    <glyph glyph-name="uniAFD8" unicode="&#xafd8;" 
d="M305 725v-34q0 -59 -4.5 -120.5t-22.5 -142.5q103 3 203 9q17 75 21.5 131t4.5 115v1h-160v41h204v-42q0 -59 -4 -115.5t-19 -128.5l75 6l3 -37q-114 -13 -271 -20v-197h-48v195q-105 -5 -241 -5l-8 44q60 0 194 2q18 80 23.5 140t5.5 117h-163v41h207zM172 200h47v-212
h547v-40h-594v252zM488 315h207v479h45v-654h-45v136h-207v39z" />
    <glyph glyph-name="uniAFDC" unicode="&#xafdc;" 
d="M738 795v-490h-47v66h-202v38h202v386h47zM228 503q27 105 29 207h-153v40h199v-17q0 -117 -27 -229q66 1 195 7q26 105 26 199h-152v40h197v-23q0 -47 -4 -97.5t-20 -115.5l85 7l4 -34q-111 -14 -275 -21v-160h-46v158q-127 -3 -238 -3l-8 40q122 0 188 2zM179 271h559
v-177h-512v-110h548v-38h-593v184h511v103h-513v38z" />
    <glyph glyph-name="uniAFE8" unicode="&#xafe8;" 
d="M738 796v-543h-47v85h-202v38h202v420h47zM227 473q28 114 30 225h-154v40h199v-16q0 -129 -28 -248q116 4 195 11q27 110 27 213h-152v40h196v-24q0 -49 -4 -102t-19 -123q29 3 85 11l4 -36q-116 -18 -275 -27v-175h-47v173q-115 -4 -237 -4l-7 40q120 0 187 2z
M230.5 68.5q51.5 61.5 51.5 130.5v31h43v-31q0 -61 37 -122t101 -94q64 33 101 94t37 122v31h45v-31q0 -45 23.5 -89t65.5 -78.5t94 -51.5l-24 -36q-65 24 -112 69t-68 102q-19 -58 -60.5 -105.5t-101.5 -73.5q-60 25 -101 73t-60 106q-21 -57 -68 -102t-112 -69l-23 36
q80 27 131.5 88.5z" />
    <glyph glyph-name="uniAFE9" unicode="&#xafe9;" 
d="M738 795v-552h-46v93h-202v38h202v421h46zM227 472q29 117 31 230h-154v40h199v-17q0 -130 -29 -252q109 3 195 10q29 113 29 219h-152v40h197v-24q0 -50 -4.5 -104.5t-20.5 -125.5q54 6 85 10l5 -35q-117 -18 -276 -27v-182h-46v180q-115 -4 -237 -4l-8 40q119 0 186 2z
M257 196q74 39 206 39t206 -39t74 -110q0 -72 -74 -111t-206 -39t-206 39t-74 111q0 71 74 110zM292.5 4q63.5 -30 170.5 -30t170.5 30t63.5 82q0 51 -63.5 81t-170.5 30t-170.5 -30t-63.5 -81q0 -52 63.5 -82z" />
    <glyph glyph-name="uniAFF0" unicode="&#xaff0;" 
d="M759 796v-863h-46v863h46zM164 386q22 85 28.5 150t6.5 123h-132v40h174v-33q0 -61 -5 -126t-25 -152q91 3 170 9q20 80 25 140t5 122h-134v40h177v-40q0 -61 -4.5 -120t-22.5 -138q58 5 90 10l3 -36q-91 -14 -229 -23v-347h-44v344q-115 -6 -211 -6l-9 40q64 0 137 3z
M388 251h173v521h45v-786h-45v226h-173v39z" />
    <glyph glyph-name="uniAFF1" unicode="&#xaff1;" 
d="M758 795v-548h-46v548h46zM182 467q27 113 29 221h-130v40h172v-18q0 -124 -26 -242q89 3 174 9q14 64 18 112t4 99h-131v40h173v-39q0 -52 -3.5 -100t-15.5 -108l74 9l3 -35q-101 -18 -219 -24v-178h-46v176q-78 -4 -212 -4l-8 41q91 0 144 1zM173 207h585v-270h-47v230
h-538v40zM396 370h169v410h45v-531h-45v84h-169v37z" />
    <glyph glyph-name="uniAFF4" unicode="&#xaff4;" 
d="M757 795v-656h-45v656h45zM181 441q27 122 29 237h-129v40h171v-16q0 -133 -28 -260q119 4 174 9q16 69 20.5 120.5t4.5 106.5h-131v40h173v-37q0 -56 -4 -108t-19 -118q41 3 78 9l3 -35q-84 -16 -219 -25v-171h-46v169q-78 -4 -212 -4l-8 42q90 0 143 1zM186 200h46
v-205h556v-40h-602v245zM395 328h169v452h45v-621h-45v130h-169v39z" />
    <glyph glyph-name="uniAFF8" unicode="&#xaff8;" 
d="M757 794v-490h-45v490h45zM183 497q25 104 27 202h-129v39h171v-14q0 -117 -27 -225q90 2 176 9q14 58 18 103t4 88h-131v39h173v-35q0 -46 -3.5 -91t-17.5 -101l76 9l3 -34q-101 -18 -219 -24v-161h-46v159q-78 -4 -212 -4l-8 40q92 0 145 1zM188 268h569v-175h-521
v-109h550v-38h-595v184h521v100h-524v38zM395 412h169v368h45v-469h-45v63h-169v38z" />
    <glyph glyph-name="uniB000" unicode="&#xb000;" 
d="M758 795v-536h-46v536h46zM181 470q28 113 30 223h-130v40h172v-17q0 -126 -26 -245q92 3 174 9q14 65 18 113.5t4 99.5h-131v40h174v-38q0 -52 -3.5 -100.5t-15.5 -110.5l73 9l3 -34q-84 -16 -219 -25v-172h-46v170q-78 -4 -212 -4l-8 41q91 0 143 1zM185 222h573v-276
h-573v276zM712 -14v197h-481v-197h481zM396 374h169v406h45v-511h-45v68h-169v37z" />
    <glyph glyph-name="uniB001" unicode="&#xb001;" 
d="M758 795v-511h-46v511h46zM181 478q28 112 30 218h-130v40h172v-16q0 -126 -26 -241q80 1 174 8q14 64 18 111.5t4 97.5h-131v40h174v-38q0 -50 -3.5 -98t-16.5 -109l74 9l3 -34q-101 -18 -219 -24v-163h-46v161q-78 -4 -212 -4l-8 41q91 0 143 1zM187 246h46v-102h478
v102h47v-300h-571v300zM711 -14v118h-478v-118h478zM396 396h169v384h45v-493h-45v71h-169v38z" />
    <glyph glyph-name="uniB004" unicode="&#xb004;" 
d="M327 229v-33q0 -61 36.5 -121t100.5 -93q64 33 101 93.5t37 120.5v33h44v-33q0 -68 52 -129.5t132 -87.5l-24 -36q-65 24 -112 68.5t-69 100.5q-19 -57 -60 -104t-101 -72q-60 24 -101 71.5t-60 105.5q-21 -56 -68.5 -101t-112.5 -69l-23 36q80 27 131.5 88t51.5 129v33
h45zM180 470q28 113 30 223h-130v40h172v-17q0 -126 -26 -245q92 3 174 9q14 65 18 113.5t4 99.5h-131v40h174v-38q0 -52 -3.5 -100.5t-16.5 -110.5l74 9l3 -34q-84 -16 -219 -25v-172h-46v170q-78 -4 -212 -4l-8 41q91 0 143 1zM395 374h168v406h46v-511h-46v68h-168v37z
M711 795h46v-536h-46v536z" />
    <glyph glyph-name="uniB00C" unicode="&#xb00c;" 
d="M745 796v-863h-46v863h46zM236 382q22 93 28 161.5t6 133.5h-167v41h213v-35q0 -65 -5.5 -135.5t-26.5 -163.5q90 1 203 8q20 87 25.5 151.5t5.5 132.5v1h-157v41h202v-42q0 -67 -4.5 -131t-22.5 -149q32 2 96 8l3 -36q-117 -14 -274 -23v-360h-45v358q-160 -5 -270 -5
l-7 42q59 0 197 2z" />
    <glyph glyph-name="uniB010" unicode="&#xb010;" 
d="M744 794v-647h-46v647h46zM238 418q30 130 33 265h-162v41h207v-21q0 -144 -31 -284q116 4 199 11q29 128 29 253h-160v41h205v-29q0 -57 -4.5 -118.5t-22.5 -142.5l29 3q62 8 67 9l6 -37q-124 -20 -268 -28v-195h-45v193q-120 -5 -265 -5l-9 42q124 0 192 2zM167 215h46
v-220h561v-40h-607v260z" />
    <glyph glyph-name="uniB014" unicode="&#xb014;" 
d="M316 744v-17q0 -130 -28 -252q134 4 197 8q27 115 27 220h-159v41h204v-25q0 -52 -4 -106.5t-20 -126.5q31 2 91 8l5 -35q-128 -15 -269 -21v-134h384v-189h-517v-129h554v-39h-599v206h515v113h-517v38h133v133q-123 -4 -257 -4l-9 40q125 0 193 1q28 116 30 229h-161
v41h207zM698 794h46v-447h-46v447z" />
    <glyph glyph-name="uniB01C" unicode="&#xb01c;" 
d="M745 795v-517h-46v517h46zM241 444q27 120 30 246h-161v40h206v-19q0 -136 -29 -266q117 4 199 11q28 118 28 234h-161v40h206v-28q0 -54 -4.5 -111t-21.5 -131q32 3 94 11l5 -36q-123 -21 -271 -29v-171h383v-284h-560v284h131v169q-116 -5 -259 -5l-9 43q125 0 194 2z
M699 -10v206h-470v-206h470z" />
    <glyph glyph-name="uniB01D" unicode="&#xb01d;" 
d="M745 794v-490h-46v490h46zM241 460q28 115 30 237h-161v40h206v-17q0 -134 -28 -259q66 1 197 7q29 118 29 229h-161v40h206v-26q0 -53 -4.5 -109.5t-22.5 -130.5q64 4 95 7l5 -36q-122 -14 -265 -19v-170h-46v168q-127 -4 -265 -4l-9 42q126 0 194 1zM183 266h46v-116
h470v116h46v-320h-562v320zM699 -14v125h-470v-125h470z" />
    <glyph glyph-name="uniB028" unicode="&#xb028;" 
d="M291 367q45 169 48 323h-230v40h275v-9q0 -171 -44 -354h310q39 170 39 323h-239v40h284v-23q0 -68 -6.5 -148t-30.5 -192h127v-41h-212v-391h-47v391h-258v-391h-46v391h-216v41h246z" />
    <glyph glyph-name="uniB030" unicode="&#xb030;" 
d="M259 281v136h-223v40h264q31 128 34 257h-228v41h276v-16q0 -142 -31 -282h293q24 124 27 257h-222v41h268v-16q0 -141 -24 -282h125v-40h-221v-136h122v-180h-539v-118h567v-40h-612v198h538v101h-541v39h127zM549 281v136h-244v-136h244z" />
    <glyph glyph-name="uniB03C" unicode="&#xb03c;" 
d="M385 757v-39q0 -66 -5 -133.5t-25 -156.5h295q18 90 23 157.5t5 131.5h-217v40h265v-36q0 -67 -4.5 -134.5t-22.5 -158.5h119v-40h-220v-141h-47v141h-247v-141h-47v141h-221v40h268q23 89 29 155t6 134h-224v40h270zM158 32q42 33 66 73t24 77v27h44v-27
q0 -57 35.5 -111.5t98.5 -84.5q61 33 98 90t37 106v27h45v-27q0 -40 23.5 -80t65.5 -71.5t94 -48.5l-26 -36q-63 22 -110.5 65t-68.5 95q-19 -52 -59.5 -97.5t-97.5 -69.5q-60 23 -100.5 67t-58.5 99q-23 -51 -70.5 -93.5t-108.5 -65.5l-23 35q50 18 92 51z" />
    <glyph glyph-name="uniB044" unicode="&#xb044;" 
d="M389 686v-22q0 -84 -10 -191t-46 -259l-49 8q59 222 59 424h-234v40h280zM45 108h779v-39h-779v39zM457 686h271v-68q0 -101 -6.5 -191t-31.5 -213l-48 7q26 117 33 206.5t7 190.5v28h-225v40z" />
    <glyph glyph-name="uniB045" unicode="&#xb045;" 
d="M393 744v-9q0 -150 -36 -308h291q31 147 31 277h-221v40h266v-19q0 -62 -5 -132.5t-24 -165.5h133v-39h-783v39h264q36 147 38 277h-229v40h275zM130 250h597v-313h-46v274h-551v39z" />
    <glyph glyph-name="uniB048" unicode="&#xb048;" 
d="M307 387q38 161 40 304h-229v40h275v-7q0 -162 -38 -337h292q32 163 32 304h-220v40h266v-19q0 -162 -31 -325h134v-40h-783v40h262zM150 240h47v-236h548v-40h-595v276z" />
    <glyph glyph-name="uniB04A" unicode="&#xb04a;" 
d="M310 432q35 148 37 276h-229v40h275v-10q0 -150 -35 -306h290q32 142 32 276h-221v40h267v-23q0 -63 -5.5 -132t-24.5 -161h132v-39h-783v39h265zM143 265h46v-269q108 3 207 26l7 -40q-107 -26 -223 -26h-37v309zM382 253h171v87h46v-87h166v-38h-383v38zM469.5 136.5
q40.5 31.5 106.5 31.5t107 -31.5t41 -85.5q0 -53 -41 -84.5t-107 -31.5q-65 0 -106 31.5t-41 84.5q0 54 40.5 85.5zM499.5 -7q28.5 -22 76.5 -22q47 0 76.5 22.5t29.5 57.5q0 37 -29.5 59.5t-76.5 22.5q-48 0 -76.5 -22.5t-28.5 -59.5q0 -36 28.5 -58z" />
    <glyph glyph-name="uniB04C" unicode="&#xb04c;" 
d="M310 470q35 132 37 247h-230v39h276v-10q0 -136 -34 -276h290q28 121 31 247h-223v39h268v-18q0 -136 -28 -268h131v-38h-783v38h265zM142 320h583v-199h-535v-135h565v-39h-611v213h535v119h-537v41z" />
    <glyph glyph-name="uniB04E" unicode="&#xb04e;" 
d="M309 444q37 142 39 269h-231v40h276v-10q0 -149 -36 -299h291q29 132 32 269h-223v40h268v-20q0 -146 -31 -289h134v-40h-783v40h264zM130 296h272v-183h-225v-128q93 0 144 3t107 14l7 -38q-59 -12 -111.5 -15t-148.5 -3h-42v204h224v108h-227v38zM464 296h272v-350
h-272v350zM693 -16v275h-187v-275h187z" />
    <glyph glyph-name="uniB053" unicode="&#xb053;" 
d="M313 450q36 143 38 266h-231v40h276v-11q0 -146 -36 -295h291q29 130 32 266h-223v40h268v-20q0 -146 -31 -286h131v-39h-783v39h268zM131 309h266v-192h-219v-132q94 0 148 3.5t113 14.5l6 -38q-61 -12 -116 -15.5t-152 -3.5h-45v208h220v116h-221v39zM429 258h154v94
h46v-94h157v-37h-357v37zM505 143.5q39 32.5 101 32.5t101 -32.5t39 -87.5t-39 -87.5t-101 -32.5t-101 32.5t-39 87.5t39 87.5zM534.5 -5q27.5 -23 71.5 -23q45 0 71.5 23t26.5 61t-26.5 61t-71.5 23q-44 0 -71.5 -23t-27.5 -61t27.5 -61z" />
    <glyph glyph-name="uniB054" unicode="&#xb054;" 
d="M310 437q35 146 37 276h-229v40h275v-9q0 -151 -35 -307h291q30 149 30 276h-221v40h266v-21q0 -149 -28 -295h132v-41h-783v41h265zM145 250h582v-302h-582v302zM682 -13v225h-492v-225h492z" />
    <glyph glyph-name="uniB055" unicode="&#xb055;" 
d="M309 448q36 144 38 270h-229v39h275v-9q0 -147 -36 -300h291q31 144 31 270h-221v39h266v-20q0 -148 -28 -289h132v-39h-783v39h264zM152 315h47v-138h476v138h46v-369h-569v369zM675 -14v152h-476v-152h476z" />
    <glyph glyph-name="uniB057" unicode="&#xb057;" 
d="M308 412q37 157 39 297h-229v40h275v-7q0 -160 -37 -330h293q30 159 30 297h-220v40h266v-19q0 -160 -30 -318h133v-41h-783v41h263zM250 19q69 32 114.5 82t45.5 113v53h47v-53q0 -63 45.5 -113t115 -82t141.5 -44l-20 -38q-101 20 -186.5 70.5t-118.5 126.5
q-33 -76 -119 -126.5t-188 -70.5l-18 38q72 12 141 44z" />
    <glyph glyph-name="uniB059" unicode="&#xb059;" 
d="M307 423q38 149 40 285h-229v40h275v-9q0 -154 -37 -316h291q32 152 32 285h-221v40h266v-20q0 -64 -5 -136t-24 -169h133v-39h-783v39h262zM216.5 222.5q78.5 43.5 216.5 43.5t217 -43.5t79 -121.5t-79 -122t-217 -44t-216.5 44t-78.5 122t78.5 121.5zM215 34
q31 -29 87.5 -44.5t130.5 -15.5q113 0 181 34.5t68 92.5q0 57 -68 91t-181 34q-112 0 -180.5 -34t-68.5 -91q0 -38 31 -67z" />
    <glyph glyph-name="uniB05D" unicode="&#xb05d;" 
d="M309 452q36 142 38 267h-229v39h275v-8q0 -146 -36 -298h291q31 142 31 267h-221v39h266v-20q0 -146 -29 -286h133v-39h-783v39h264zM145 298h584v-38h-537v-116h515v-38h-515v-121h543v-39h-590v352z" />
    <glyph glyph-name="uniB07C" unicode="&#xb07c;" 
d="M746 796v-863h-46v863h46zM206 392.5q55 132.5 61 265.5h-192v40h235q0 -149 -54.5 -298.5t-166.5 -265.5l-38 27q100 99 155 231.5zM456 360.5q47 149.5 51 297.5h-170v40h213q0 -164 -44.5 -330t-156.5 -294l-41 26q101 111 148 260.5z" />
    <glyph glyph-name="uniB07D" unicode="&#xb07d;" 
d="M746 243v-310h-47v269h-520v41h567zM204 516.5q47 74.5 54 174.5h-182v40h227q0 -123 -50 -215t-156 -164l-32 31q92 59 139 133.5zM455.5 491q44.5 90 50.5 200h-168v40h212q0 -131 -45.5 -238t-149.5 -192l-35 30q91 70 135.5 160zM699 795h47v-511h-47v511z" />
    <glyph glyph-name="uniB080" unicode="&#xb080;" 
d="M745 794v-625h-46v625h46zM205 489q45 83 51 189h-181v41h226q0 -127 -47 -229.5t-151 -180.5l-34 31q91 66 136 149zM197 211h47v-216h528v-40h-575v256zM507 678h-169v41h213q0 -288 -197 -455l-34 29q175 143 187 385z" />
    <glyph glyph-name="uniB084" unicode="&#xb084;" 
d="M248.5 549q-52.5 -80 -152.5 -149l-33 32q87 54 135.5 117t56.5 153h-182v41h228q0 -114 -52.5 -194zM199 306h546v-194h-498v-126h537v-40h-582v206h498v115h-501v39zM451.5 521q45.5 79 52.5 181h-168v41h212q0 -124 -47 -220.5t-150 -172.5l-35 29q90 63 135.5 142z
M699 795h45v-443h-45v443z" />
    <glyph glyph-name="uniB08C" unicode="&#xb08c;" 
d="M252.5 517.5q-50.5 -92.5 -157.5 -164.5l-30 31q91 60 138 135t54 175h-181v40h227q0 -124 -50.5 -216.5zM197 247h548v-301h-548v301zM699 -14v221h-457v-221h457zM456 494.5q45 90.5 50 199.5h-168v40h212q0 -130 -46 -238.5t-150 -193.5l-34 31q91 71 136 161.5z
M699 794h46v-503h-46v503z" />
    <glyph glyph-name="uniB08D" unicode="&#xb08d;" 
d="M745 795v-465h-46v465h46zM204.5 526.5q46.5 72.5 53.5 171.5h-181v40h227q0 -123 -49.5 -213t-156.5 -161l-31 32q91 58 137.5 130.5zM200 282h47v-125h452v125h46v-337h-545v337zM699 -15v132h-452v-132h452zM455.5 501.5q44.5 88.5 50.5 196.5h-167v40h212
q0 -130 -45.5 -235.5t-149.5 -188.5l-35 31q90 68 134.5 156.5z" />
    <glyph glyph-name="uniB08F" unicode="&#xb08f;" 
d="M744 795v-589h-46v589h46zM203 507q47 75 54 175h-181v41h226q0 -123 -50 -216t-157 -165l-31 30q92 60 139 135zM293.5 18.5q69.5 34.5 115 87.5t45.5 119v38h49v-38q0 -66 45.5 -119t115 -87.5t140.5 -47.5l-21 -37q-101 22 -186.5 74.5t-118.5 131.5
q-33 -79 -119 -131.5t-187 -74.5l-20 37q72 13 141.5 47.5zM506 682h-168v41h213q0 -275 -198 -438l-34 30q174 137 187 367z" />
    <glyph glyph-name="uniB091" unicode="&#xb091;" 
d="M746 795v-521h-47v521h47zM203 519q47 75 54 175h-181v40h226q0 -124 -50 -217t-158 -164l-30 31q92 60 139 135zM251.5 209q76.5 42 212.5 42q135 0 212.5 -42.5t77.5 -117.5t-77.5 -117t-212.5 -42q-136 0 -212.5 42t-76.5 117q0 76 76.5 118zM288 3.5
q66 -32.5 176 -32.5t177 32.5t67 87.5q0 56 -67 88.5t-177 32.5q-111 0 -176.5 -32.5t-65.5 -88.5q0 -55 66 -87.5zM457 492.5q45 90.5 50 201.5h-168v40h212q0 -131 -46 -239t-150 -193l-36 30q93 70 138 160.5z" />
    <glyph glyph-name="uniB098" unicode="&#xb098;" 
d="M698 796v-357h152v-41h-152v-465h-47v863h47zM84 710h47v-513h18q106 0 204 9t201 32l7 -42q-202 -39 -412 -39h-65v553z" />
    <glyph glyph-name="uniB099" unicode="&#xb099;" 
d="M707 796v-224h137v-41h-137v-230h-47v495h47zM91 745h46v-327h18q106 0 203.5 8.5t199.5 29.5l7 -40q-108 -22 -206.5 -31t-203.5 -9h-64v369zM159 247h548v-315h-47v274h-501v41z" />
    <glyph glyph-name="uniB09A" unicode="&#xb09a;" 
d="M707 796v-220h137v-40h-137v-224h-47v484h47zM91 745h46v-317h18q104 0 201.5 9t201.5 31l6 -41q-107 -22 -205 -31.5t-204 -9.5h-64v359zM139 258h263v-326h-45v287h-218v39zM447 258h260v-326h-46v287h-214v39z" />
    <glyph glyph-name="uniB09C" unicode="&#xb09c;" 
d="M137 729v-352h19q106 0 203 8.5t200 30.5l6 -40q-107 -22 -204.5 -31t-204.5 -9h-65v393h46zM187 232h47v-237h506v-40h-553v277zM660 794h47v-264h137v-42h-137v-318h-47v624z" />
    <glyph glyph-name="uniB09F" unicode="&#xb09f;" 
d="M707 795v-212h137v-41h-137v-230h-47v483h47zM91 750h46v-322h18q210 0 403 40l6 -40q-106 -23 -203.5 -32t-205.5 -9h-64v363zM178 255h531v-41h-486v-228h494v-39h-539v308z" />
    <glyph glyph-name="uniB0A0" unicode="&#xb0a0;" 
d="M707 795v-191h137v-41h-137v-209h-47v441h47zM91 758h46v-308h18q215 0 403 39l6 -40q-107 -22 -205 -31.5t-204 -9.5h-64v350zM175 307h532v-192h-484v-129h519v-40h-564v208h482v115h-485v38z" />
    <glyph glyph-name="uniB0A1" unicode="&#xb0a1;" 
d="M707 794v-202h138v-39h-138v-209h-47v450h47zM91 758h46v-312h18q106 0 203.5 8.5t199.5 29.5l6 -40q-109 -22 -207 -31.5t-202 -9.5h-64v355zM137 289h276v-183h-228v-121h1q97 0 158.5 4t126.5 17l5 -38q-67 -13 -129.5 -17.5t-160.5 -4.5h-46v197h227v107h-230v39z
M451 289h256v-349h-46v310h-210v39z" />
    <glyph glyph-name="uniB0A2" unicode="&#xb0a2;" 
d="M707 794v-200h138v-39h-138v-211h-47v450h47zM91 758h46v-312h18q106 0 203.5 8.5t199.5 29.5l6 -40q-107 -22 -205 -31.5t-204 -9.5h-64v355zM124 296h266v-187h-217v-124q86 0 135 3t103 14l6 -38q-59 -11 -110.5 -14.5t-138.5 -3.5h-41v201h217v111h-220v38zM447 296
h260v-350h-260v350zM663 -16v275h-173v-275h173z" />
    <glyph glyph-name="uniB0A8" unicode="&#xb0a8;" 
d="M707 794v-208h138v-41h-138v-239h-47v488h47zM91 751h46v-323h18q210 0 403 40l7 -40q-108 -22 -206 -31.5t-204 -9.5h-64v364zM177 254h530v-307h-530v307zM661 -14v228h-439v-228h439z" />
    <glyph glyph-name="uniB0A9" unicode="&#xb0a9;" 
d="M708 794v-202h137v-41h-137v-202h-48v445h48zM91 754h46v-312h18q106 0 203.5 8.5t199.5 30.5l7 -40q-108 -22 -206 -31.5t-204 -9.5h-64v354zM178 300h45v-134h438v134h46v-354h-529v354zM661 -14v137h-438v-137h438z" />
    <glyph glyph-name="uniB0AB" unicode="&#xb0ab;" 
d="M707 795v-248h137v-39h-137v-281h-47v568h47zM91 737h46v-334h18q211 0 403 41l7 -41q-108 -22 -206 -31.5t-204 -9.5h-64v375zM273.5 24.5q69.5 35.5 115 90.5t45.5 124v46h45v-46q0 -67 45.5 -122t114 -90.5t139.5 -49.5l-20 -37q-99 23 -183.5 77t-117.5 134
q-34 -82 -120 -136.5t-185 -76.5l-20 37q72 14 141.5 49.5z" />
    <glyph glyph-name="uniB0AC" unicode="&#xb0ac;" 
d="M707 795v-219h138v-40h-138v-228h-46v487h46zM181 29q42 36 66 80t24 85v78h44v-78q0 -64 36 -123.5t101 -92.5q63 36 100.5 98.5t37.5 117.5v78h45v-78q0 -44 23.5 -88t65 -79t94.5 -53l-24 -36q-64 24 -112 70.5t-70 103.5q-19 -57 -60 -106.5t-99 -75.5
q-62 25 -103.5 73t-59.5 108q-22 -56 -69 -102.5t-109 -70.5l-24 36q51 19 93 55zM91 738h46v-325h18q208 0 403 39l7 -39q-109 -23 -207.5 -32.5t-202.5 -9.5h-64v367z" />
    <glyph glyph-name="uniB0AD" unicode="&#xb0ad;" 
d="M707 796v-227h137v-39h-137v-255h-47v521h47zM91 739h46v-327h18q208 0 403 39l7 -40q-110 -22 -208 -31.5t-202 -9.5h-64v369zM234.5 219q74.5 44 202.5 44t202.5 -44t74.5 -120t-74.5 -120t-202.5 -44t-202.5 44t-74.5 120t74.5 120zM233.5 34q29.5 -28 82.5 -44
t121 -16t120.5 16t82 44t29.5 65t-29.5 65.5t-82 44t-120.5 15.5t-121 -15.5t-82.5 -44t-29.5 -65.5t29.5 -65z" />
    <glyph glyph-name="uniB0AE" unicode="&#xb0ae;" 
d="M707 797v-228h137v-40h-137v-233h-47v501h47zM91 745h46v-321h18q106 0 203.5 8.5t199.5 30.5l7 -41q-108 -22 -206.5 -31t-203.5 -9h-64v363zM271.5 18q65.5 33 108.5 80.5t43 101.5v6h-254v41h555v-41h-253v-6q0 -53 43.5 -100.5t109.5 -81t131 -46.5l-20 -37
q-92 20 -173.5 71.5t-113.5 120.5q-32 -70 -114 -120.5t-174 -71.5l-20 37q66 13 131.5 46z" />
    <glyph glyph-name="uniB0AF" unicode="&#xb0af;" 
d="M708 796v-215h136v-40h-136v-223h-48v478h48zM91 754h46v-311h18q106 0 203.5 8.5t199.5 29.5l6 -40q-109 -22 -207 -31.5t-202 -9.5h-64v354zM265.5 17.5q65.5 32.5 110 79.5t45.5 99h-259v41h259v106h48v-106h260v-41h-260q1 -53 45.5 -99.5t110.5 -79t131 -44.5
l-20 -37q-93 20 -175.5 71t-114.5 120q-33 -69 -116 -120t-176 -71l-19 37q65 12 130.5 44.5z" />
    <glyph glyph-name="uniB0B1" unicode="&#xb0b1;" 
d="M707 795v-207h137v-41h-137v-215h-47v463h47zM91 749h46v-311h18q206 0 403 38l6 -39q-108 -23 -206.5 -32.5t-202.5 -9.5h-64v354zM179 285h532v-38h-485v-109h475v-39h-475v-114h507v-39h-554v339z" />
    <glyph glyph-name="uniB0B3" unicode="&#xb0b3;" 
d="M707 796v-190h137v-40h-137v-221h-47v451h47zM91 758h46v-299h18q208 0 403 39l6 -39q-106 -22 -204 -31t-205 -9h-64v339zM157 276h275v94h46v-94h275v-39h-596v39zM280.5 155q62.5 33 174.5 33q111 0 173 -33t62 -93t-62 -93t-173 -33q-112 0 -174.5 33t-62.5 93
t62.5 93zM315.5 -3.5q51.5 -23.5 139.5 -23.5q87 0 138.5 23.5t51.5 65.5q0 41 -52 65t-138 24q-87 0 -139 -24t-52 -65q0 -42 51.5 -65.5z" />
    <glyph glyph-name="uniB0B4" unicode="&#xb0b4;" 
d="M771 796v-863h-45v456h-154v-410h-44v794h44v-342h154v365h45zM94 685h47v-477h4q81 0 155.5 6.5t155.5 23.5l6 -43q-84 -17 -159.5 -23t-157.5 -6h-51v519z" />
    <glyph glyph-name="uniB0B5" unicode="&#xb0b5;" 
d="M766 795v-510h-45v242h-150v-235h-45v486h45v-211h150v228h45zM94 735h47v-313h4q85 0 158 5.5t152 22.5l7 -40q-84 -17 -158.5 -23.5t-158.5 -6.5h-51v355zM199 240h567v-308h-46v267h-521v41z" />
    <glyph glyph-name="uniB0B8" unicode="&#xb0b8;" 
d="M766 794v-642h-45v344h-150v-313h-45v595h45v-241h150v257h45zM93 720h47v-335h5q80 0 154.5 6t156.5 22l6 -41q-85 -16 -160 -22t-157 -6h-52v376zM216 246h47v-239h532v-40h-579v279z" />
    <glyph glyph-name="uniB0BB" unicode="&#xb0bb;" 
d="M774 235v-42h-530v-210h538v-40h-586v292h578zM91 730h47v-323h5q87 0 160.5 6.5t152.5 23.5l5 -44q-82 -16 -156 -22t-162 -6h-52v365zM533 778h46v-222h143v238h46v-523h-46v245h-143v-239h-46v501z" />
    <glyph glyph-name="uniB0BC" unicode="&#xb0bc;" 
d="M766 794v-445h-45v204h-150v-200h-46v425h46v-186h150v202h45zM94 744h47v-293h4q166 0 310 27l7 -40q-84 -16 -158 -21.5t-159 -5.5h-51v333zM209 302h557v-190h-508v-126h546v-40h-592v204h509v113h-512v39z" />
    <glyph glyph-name="uniB0C4" unicode="&#xb0c4;" 
d="M766 794v-495h-45v224h-150v-218h-46v473h46v-214h150v230h45zM94 739h47v-326h4q83 0 156 5.5t155 22.5l6 -42q-86 -16 -160.5 -22t-156.5 -6h-51v368zM213 254h553v-308h-553v308zM722 -14v228h-464v-228h464z" />
    <glyph glyph-name="uniB0C5" unicode="&#xb0c5;" 
d="M766 794v-469h-45v208h-150v-201h-45v446h45v-206h150v222h45zM95 737h47v-306h4q82 0 155.5 5.5t154.5 21.5l7 -41q-85 -17 -158.5 -22.5t-158.5 -5.5h-51v348zM216 283h45v-121h461v121h44v-337h-550v337zM722 -14v135h-461v-135h461z" />
    <glyph glyph-name="uniB0C7" unicode="&#xb0c7;" 
d="M765 794v-569h-44v289h-151v-217h-44v481h44v-223h151v239h44zM93 715h47v-328h4q85 0 159.5 8t149.5 29l8 -40q-79 -21 -154.5 -29t-162.5 -8h-51v368zM299 20.5q71 34.5 118.5 86.5t47.5 113v39h46v-39q0 -61 47.5 -113t118 -86.5t138.5 -46.5l-18 -37
q-99 20 -187.5 74t-121.5 131q-34 -77 -122.5 -131t-186.5 -74l-19 37q68 12 139 46.5z" />
    <glyph glyph-name="uniB0C8" unicode="&#xb0c8;" 
d="M765 795v-499h-45v233h-150v-225h-45v474h45v-210h150v227h45zM94 723h47v-320h4q82 0 155.5 5.5t154.5 21.5l6 -41q-84 -16 -158 -21.5t-158 -5.5h-51v361zM198 33.5q42 36.5 66 80t24 84.5v71h44v-71q0 -63 36 -122.5t100 -93.5q64 36 101.5 98.5t37.5 117.5v71h45v-71
q0 -44 23.5 -88t65 -79t94.5 -53l-24 -36q-64 24 -112 70.5t-70 103.5q-19 -57 -60 -106t-99 -75q-62 25 -103 72.5t-59 106.5q-23 -55 -70 -101.5t-109 -70.5l-24 36q51 19 93 55.5z" />
    <glyph glyph-name="uniB0C9" unicode="&#xb0c9;" 
d="M766 795v-526h-45v249h-150v-218h-45v478h45v-219h150v236h45zM95 725h47v-322h4q80 0 154.5 6t155.5 22l7 -41q-85 -16 -160 -22t-157 -6h-51v363zM283 208.5q75 41.5 207 41.5q131 0 206 -41.5t75 -115.5t-75 -115.5t-206 -41.5q-132 0 -207 41.5t-75 115.5t75 115.5z
M317.5 7q64.5 -32 172.5 -32q107 0 171 32t64 86t-64 86t-171 32q-108 0 -172.5 -32t-64.5 -86t64.5 -86z" />
    <glyph glyph-name="uniB0D0" unicode="&#xb0d0;" 
d="M698 796v-229h150v-40h-150v-220h150v-40h-150v-334h-47v863h47zM84 710h47v-513h18q106 0 204 9t201 32l7 -42q-200 -40 -412 -40h-65v554z" />
    <glyph glyph-name="uniB0D1" unicode="&#xb0d1;" 
d="M707 796v-137h137v-40h-137v-142h137v-39h-137v-137h-47v495h47zM91 745h46v-327h18q106 0 203.5 8.5t199.5 29.5l7 -40q-108 -22 -206.5 -31t-203.5 -9h-64v369zM159 247h548v-315h-47v274h-501v41z" />
    <glyph glyph-name="uniB0D4" unicode="&#xb0d4;" 
d="M137 729v-352h19q106 0 203 8.5t200 30.5l6 -40q-107 -22 -204.5 -31t-204.5 -9h-65v393h46zM187 232h47v-237h506v-40h-553v277zM660 794h47v-166h137v-41h-137v-173h137v-41h-137v-203h-47v624z" />
    <glyph glyph-name="uniB0D7" unicode="&#xb0d7;" 
d="M710 235v-41h-497v-211h506v-40h-552v292h543zM82 746h46v-320h19q110 0 207 9t197 31l6 -40q-103 -23 -200 -32t-210 -9h-65v361zM652 794h47v-143h138v-42h-138v-146h138v-42h-138v-139h-47v512z" />
    <glyph glyph-name="uniB0D8" unicode="&#xb0d8;" 
d="M707 795v-119h137v-39h-137v-120h137v-40h-137v-123h-47v441h47zM91 758h46v-308h18q215 0 403 39l6 -40q-107 -22 -205 -31.5t-204 -9.5h-64v350zM175 307h532v-192h-484v-129h519v-40h-564v208h482v115h-485v38z" />
    <glyph glyph-name="uniB0E0" unicode="&#xb0e0;" 
d="M707 794v-132h138v-41h-138v-139h138v-40h-138v-136h-47v488h47zM91 751h46v-323h18q210 0 403 40l7 -40q-108 -22 -206 -31.5t-204 -9.5h-64v364zM177 254h530v-307h-530v307zM661 -14v228h-439v-228h439z" />
    <glyph glyph-name="uniB0E1" unicode="&#xb0e1;" 
d="M213 279v-125h440v125h46v-338h-532v338h46zM83 756h45v-312h19q208 0 403 39l7 -40q-219 -41 -410 -41h-64v354zM653 -19v134h-440v-134h440zM652 794h47v-128h138v-40h-138v-127h138v-41h-138v-124h-47v460z" />
    <glyph glyph-name="uniB0E3" unicode="&#xb0e3;" 
d="M707 795v-148h138v-40h-138v-149h138v-40h-138v-191h-47v568h47zM91 737h46v-334h18q211 0 403 41l7 -41q-108 -22 -206 -31.5t-204 -9.5h-64v375zM273 24.5q69 35.5 115 90.5t46 124v46h45v-46q0 -67 45.5 -122t114 -90.5t139.5 -49.5l-20 -37q-99 23 -183.5 77
t-117.5 134q-34 -82 -120 -136.5t-185 -76.5l-20 37q72 14 141 49.5z" />
    <glyph glyph-name="uniB0E5" unicode="&#xb0e5;" 
d="M707 796v-145h138v-41h-138v-142h138v-40h-138v-153h-47v521h47zM91 739h46v-327h18q208 0 403 39l7 -40q-110 -22 -208 -31.5t-202 -9.5h-64v369zM234.5 219q74.5 44 202.5 44t202.5 -44t74.5 -120t-74.5 -120t-202.5 -44t-202.5 44t-74.5 120t74.5 120zM233.5 34
q29.5 -28 82.5 -44t121 -16t120.5 16t82 44t29.5 65t-29.5 65.5t-82 44t-120.5 15.5t-121 -15.5t-82.5 -44t-29.5 -65.5t29.5 -65z" />
    <glyph glyph-name="uniB0EC" unicode="&#xb0ec;" 
d="M308.5 211.5q70.5 5.5 144.5 22.5l7 -43q-79 -17 -150 -22.5t-170 -5.5h-51v522h46v-479h5q98 0 168.5 5.5zM531 773h45v-213h148v235h45v-867h-45v341h-148v-290h-45v794zM724 310v209h-148v-209h148z" />
    <glyph glyph-name="uniB108" unicode="&#xb108;" 
d="M747 796v-864h-47v527h-288v39h288v298h47zM95 696h46v-510h16q113 0 203.5 7.5t183.5 26.5l6 -40q-99 -19 -190.5 -27t-202.5 -8h-62v551z" />
    <glyph glyph-name="uniB109" unicode="&#xb109;" 
d="M145 738v-342h15q119 0 206.5 7.5t177.5 27.5l7 -42q-94 -19 -183.5 -26.5t-207.5 -7.5h-61v383h46zM180 239h566v-307h-46v266h-520v41zM430 612h270v184h46v-515h-46v291h-270v40z" />
    <glyph glyph-name="uniB10B" unicode="&#xb10b;" 
d="M144 747v-339h15q117 0 205 8t179 28l7 -43q-94 -19 -183.5 -26.5t-207.5 -7.5h-61v380h46zM145 257h283v-325h-47v285h-236v40zM430 625h269v171h46v-488h-46v276h-269v41zM570.5 64.5q44.5 67.5 44.5 140.5v69h46v-69q0 -75 42.5 -141.5t116.5 -96.5l-25 -36
q-59 26 -99 72t-59 105q-20 -59 -61.5 -106.5t-100.5 -72.5l-25 36q76 32 120.5 99.5z" />
    <glyph glyph-name="uniB10C" unicode="&#xb10c;" 
d="M746 794v-628h-47v388h-269v39h269v201h47zM98 727h47v-363h15q116 0 204 7.5t179 26.5l8 -41q-94 -20 -183.5 -27.5t-207.5 -7.5h-62v405zM208 218h45v-223h519v-40h-564v263z" />
    <glyph glyph-name="uniB10F" unicode="&#xb10f;" 
d="M748 236v-42h-515v-211h524v-40h-571v293h562zM84 738h46v-355h15q115 0 203.5 6.5t181.5 24.5l8 -38q-100 -17 -189.5 -24t-203.5 -7h-61v393zM418 611h272v183h46v-508h-46v284h-272v41z" />
    <glyph glyph-name="uniB110" unicode="&#xb110;" 
d="M145 751v-319h15q119 0 206.5 7.5t177.5 26.5l8 -41q-95 -20 -184.5 -27.5t-207.5 -7.5h-62v361h47zM201 296h545v-187h-497v-123h534v-40h-578v201h495v109h-499v40zM430 636h269v159h47v-453h-47v253h-269v41z" />
    <glyph glyph-name="uniB112" unicode="&#xb112;" 
d="M145 748v-324h16q120 0 207.5 7t176.5 26l8 -41q-95 -20 -184.5 -27.5t-207.5 -7.5h-62v367h46zM152 285h270v-181h-222v-122q86 0 137 3t108 14l6 -39q-58 -10 -110 -13t-145 -3h-42v199h222v104h-224v38zM430 632h270v163h45v-467h-45v263h-270v41zM482 285h263v-346
h-263v346zM702 -23v271h-177v-271h177z" />
    <glyph glyph-name="uniB113" unicode="&#xb113;" 
d="M145 748v-319h16q116 0 204.5 7.5t179.5 26.5l8 -41q-95 -20 -184.5 -27.5t-207.5 -7.5h-62v361h46zM152 285h270v-181h-222v-122q86 0 137 3t108 14l6 -39q-58 -10 -110 -13t-145 -3h-42v199h222v104h-224v38zM430 637h270v158h46v-463h-46v264h-270v41zM482 296h44
v-127h176v127h44v-352h-264v352zM702 -18v147h-176v-147h176z" />
    <glyph glyph-name="uniB118" unicode="&#xb118;" 
d="M746 249v-303h-541v303h541zM99 740h46v-331h15q117 0 205 7.5t179 27.5l7 -42q-95 -19 -185 -27t-206 -8h-61v373zM701 -14v224h-452v-224h452zM430 620h270v175h46v-500h-46v286h-270v39z" />
    <glyph glyph-name="uniB119" unicode="&#xb119;" 
d="M145 750v-330h15q119 0 206.5 7.5t177.5 26.5l7 -42q-96 -19 -186 -26.5t-205 -7.5h-61v372h46zM203 289h46v-130h452v130h45v-343h-543v343zM701 -14v133h-452v-133h452zM430 629h270v166h46v-463h-46v256h-270v41z" />
    <glyph glyph-name="uniB11B" unicode="&#xb11b;" 
d="M144 732v-353h15q119 0 206.5 7.5t177.5 26.5l7 -41q-93 -19 -182 -26.5t-209 -7.5h-61v394h46zM290 20q70 34 116.5 87.5t46.5 119.5v44h47v-44q0 -66 45.5 -119t114.5 -87t141 -47l-21 -38q-100 22 -185.5 74.5t-118.5 130.5q-33 -79 -120 -131.5t-188 -73.5l-19 38
q71 12 141 46zM429 595h270v201h47v-601h-47v360h-270v40z" />
    <glyph glyph-name="uniB11C" unicode="&#xb11c;" 
d="M144 736v-336h15q121 0 207.5 7t175.5 27l8 -42q-94 -19 -183.5 -26.5t-207.5 -7.5h-62v378h47zM189 35.5q42 36.5 66 80t24 84.5v73h45v-73q0 -64 36.5 -124t99.5 -93q63 36 101 99.5t38 117.5v73h45v-73q0 -44 23 -88t64.5 -79t94.5 -53l-25 -36q-64 24 -111.5 70.5
t-68.5 103.5q-19 -56 -60.5 -105.5t-99.5 -76.5q-62 25 -103.5 73t-58.5 107q-23 -56 -70 -102t-108 -70l-25 36q51 19 93 55.5zM429 614h269v182h47v-508h-47v286h-269v40z" />
    <glyph glyph-name="uniB11D" unicode="&#xb11d;" 
d="M145 731v-333h15q121 0 208 7t176 27l7 -42q-94 -19 -183.5 -26.5t-207.5 -7.5h-61v375h46zM262 212q75 42 207 42t206.5 -42t74.5 -118q0 -75 -74.5 -117t-206.5 -42t-207 42t-75 117q0 76 75 118zM297.5 6.5q64.5 -32.5 171.5 -32.5t171 32.5t64 87.5t-64 88t-171 33
t-171.5 -33t-64.5 -88t64.5 -87.5zM430 613h270v183h46v-541h-46v317h-270v41z" />
    <glyph glyph-name="uniB122" unicode="&#xb122;" 
d="M130 738v-355h15q115 0 203.5 6.5t181.5 24.5l8 -38q-100 -17 -189.5 -24t-203.5 -7h-61v393h46zM169 -15h136v221h-127v41h570v-41h-128v-221h139v-39h-590v39zM574 -15v221h-222v-221h222zM418 611h272v183h46v-508h-46v284h-272v41z" />
    <glyph glyph-name="uniB123" unicode="&#xb123;" 
d="M144 755v-303h16q120 0 207.5 7t175.5 26l9 -41q-96 -19 -186.5 -26.5t-205.5 -7.5h-63v345h47zM171 273h278v96h46v-96h276v-40h-600v40zM297 154.5q63 32.5 174 32.5t174 -32.5t63 -92.5t-63 -93t-174 -33t-174 33t-63 93t63 92.5zM331.5 -3.5q51.5 -23.5 139.5 -23.5
t139 23.5t51 65.5q0 41 -51.5 65t-138.5 24q-88 0 -139.5 -24t-51.5 -65q0 -42 51.5 -65.5zM429 646h270v150h47v-471h-47v282h-270v39z" />
    <glyph glyph-name="uniB124" unicode="&#xb124;" 
d="M140 695v-493h5q167 0 311 30l7 -42q-84 -17 -159 -23t-159 -6h-51v534h46zM333 493h211v278h45v-790h-45v472h-211v40zM726 796h46v-863h-46v863z" />
    <glyph glyph-name="uniB125" unicode="&#xb125;" 
d="M767 795v-503h-45v503h45zM96 734h46v-333h5q81 0 155 6t156 23l6 -41q-84 -17 -158 -22.5t-159 -5.5h-51v373zM197 246h570v-314h-46v273h-524v41zM347 609h206v167h44v-474h-44v267h-206v40z" />
    <glyph glyph-name="uniB128" unicode="&#xb128;" 
d="M767 794v-638h-45v638h45zM95 716h46v-351h6q80 0 154 6t156 22l7 -41q-85 -16 -160 -22t-157 -6h-52v392zM226 232h46v-237h528v-40h-574v277zM346 586h207v191h44v-596h-44v365h-207v40z" />
    <glyph glyph-name="uniB12B" unicode="&#xb12b;" 
d="M775 235v-42h-531v-210h538v-40h-586v292h579zM91 734h46v-338h6q95 0 166.5 6t147.5 23l4 -42q-81 -16 -153.5 -22.5t-164.5 -6.5h-52v380zM345 602h215v174h46v-492h-46v277h-215v41zM722 794h46v-515h-46v515z" />
    <glyph glyph-name="uniB12C" unicode="&#xb12c;" 
d="M767 794v-449h-45v449h45zM95 747h46v-309h5q80 0 154.5 6t156.5 21l7 -41q-85 -16 -160 -22t-158 -6h-51v351zM210 301h557v-190h-508v-128h546v-37h-592v204h509v112h-512v39zM346 630h206v146h45v-422h-45v236h-206v40z" />
    <glyph glyph-name="uniB134" unicode="&#xb134;" 
d="M767 257v-311h-549v311h549zM96 737h46v-327h5q80 0 154 6t156 22l7 -42q-86 -15 -161 -21t-156 -6h-51v368zM723 -14v232h-460v-232h460zM346 616h207v160h44v-464h-44v265h-207v39zM722 794h45v-492h-45v492z" />
    <glyph glyph-name="uniB135" unicode="&#xb135;" 
d="M767 794v-475h-45v475h45zM96 735h46v-329h5q80 0 154.5 6t156.5 22l7 -40q-86 -17 -160.5 -23t-157.5 -6h-51v370zM221 283h46v-121h455v121h45v-337h-546v337zM722 -14v135h-455v-135h455zM346 625h207v151h44v-449h-44v257h-207v41z" />
    <glyph glyph-name="uniB137" unicode="&#xb137;" 
d="M552 588v188h45v-489h-45v261h-205v40h205zM95 715h46v-346h5q80 0 154 6t156 23l6 -41q-85 -16 -160 -22t-156 -6h-51v386zM299 20q71 34 118.5 85.5t47.5 112.5v36h46v-36q0 -61 47.5 -112.5t118 -85.5t138.5 -46l-18 -37q-98 20 -186.5 74t-122.5 130
q-34 -76 -122.5 -130t-187.5 -74l-18 37q68 12 139 46zM722 794h44v-586h-44v586z" />
    <glyph glyph-name="uniB138" unicode="&#xb138;" 
d="M766 794v-512h-45v512h45zM95 735h46v-341h5q161 0 310 29l7 -42q-84 -16 -158.5 -21.5t-158.5 -5.5h-51v381zM198 35q42 36 66 80t24 85v59h44v-59q0 -63 36.5 -123t99.5 -94q64 36 101.5 99t37.5 118v59h45v-59q0 -45 23.5 -88.5t65 -78.5t94.5 -53l-24 -36
q-64 24 -112 70.5t-70 103.5q-19 -57 -60 -106t-99 -75q-61 25 -102.5 72t-59.5 107q-23 -56 -70 -102t-109 -70l-24 36q51 19 93 55zM345 599h207v177h44v-479h-44v262h-207v40z" />
    <glyph glyph-name="uniB139" unicode="&#xb139;" 
d="M767 794v-527h-45v527h45zM96 726h46v-340h5q80 0 154 6t156 22l7 -42q-86 -15 -161 -21t-156 -6h-51v381zM284 212.5q75 41.5 207 41.5q131 0 206 -41.5t75 -115.5t-75 -115t-206 -41q-133 0 -207.5 40.5t-74.5 115.5q0 74 75 115.5zM318.5 11q64.5 -32 172.5 -32
q107 0 171 32t64 86t-64 86t-171 32q-108 0 -172.5 -32t-64.5 -86t64.5 -86zM346 592h207v184h44v-476h-44v254h-207v38z" />
    <glyph glyph-name="uniB140" unicode="&#xb140;" 
d="M747 796v-864h-47v409h-279v40h279v157h-279v40h279v218h47zM95 696h46v-513h16q115 0 203.5 7.5t179.5 26.5l6 -40q-95 -19 -185 -26.5t-204 -7.5h-62v553z" />
    <glyph glyph-name="uniB141" unicode="&#xb141;" 
d="M145 738v-375h14q117 0 204 7.5t176 26.5l7 -41q-92 -19 -180 -26.5t-207 -7.5h-60v416h46zM180 225h566v-293h-46v252h-520v41zM431 518h269v121h-269v39h269v118h46v-527h-46v209h-269v40z" />
    <glyph glyph-name="uniB144" unicode="&#xb144;" 
d="M746 794v-642h-47v311h-269v40h269v128h-269v40h269v123h47zM98 727h47v-392h15q99 0 190.5 7.5t191.5 26.5l7 -42q-104 -19 -196.5 -26.5t-192.5 -7.5h-62v434zM208 206h45v-211h519v-40h-564v251z" />
    <glyph glyph-name="uniB147" unicode="&#xb147;" 
d="M749 235v-41h-515v-211h524v-40h-572v292h563zM84 738h46v-358h15q111 0 199.5 7t182.5 25l8 -38q-99 -18 -187.5 -24.5t-202.5 -6.5h-61v395zM419 530h272v115h-272v40h272v109h47v-508h-47v203h-272v41z" />
    <glyph glyph-name="uniB148" unicode="&#xb148;" 
d="M145 751v-346h14q124 0 209 7t171 26l8 -42q-91 -18 -177 -24.5t-211 -6.5h-61v386h47zM201 286h545v-183h-497v-117h533v-40h-577v196h495v105h-499v39zM431 545h268v107h-268v38h268v105h47v-462h-47v172h-268v40z" />
    <glyph glyph-name="uniB150" unicode="&#xb150;" 
d="M146 749v-371h14q118 0 204 7t174 26l8 -40q-91 -19 -177.5 -26t-208.5 -7h-61v411h47zM205 245h541v-299h-541v299zM701 -14v219h-452v-219h452zM431 532h269v114h-269v39h269v110h46v-510h-46v207h-269v40z" />
    <glyph glyph-name="uniB151" unicode="&#xb151;" 
d="M253 279v-118h447v118h46v-333h-539v333h46zM99 754h47v-359h14q121 0 206.5 6.5t173.5 25.5l7 -41q-94 -18 -182 -25t-205 -7h-61v400zM700 -14v135h-447v-135h447zM431 545h269v106h-269v39h269v105h46v-470h-46v180h-269v40z" />
    <glyph glyph-name="uniB154" unicode="&#xb154;" 
d="M145 741v-367h13q120 0 206 6.5t174 25.5l7 -39q-92 -19 -179.5 -26t-207.5 -7h-60v407h47zM189 36q42 36 66 80t24 85v60h45v-60q0 -64 36.5 -124t99.5 -93q63 36 101 99.5t38 117.5v60h45v-60q0 -44 23 -88t64.5 -79t94.5 -54l-25 -35q-64 24 -111.5 70.5t-68.5 103.5
q-19 -57 -60.5 -106t-99.5 -75q-62 25 -103.5 72.5t-58.5 106.5q-23 -56 -70 -102t-108 -70l-25 35q51 20 93 56zM430 533h268v107h-268v39h268v116h47v-515h-47v212h-268v41z" />
    <glyph glyph-name="uniB155" unicode="&#xb155;" 
d="M146 737v-363h14q126 0 211 6.5t171 25.5l8 -39q-92 -20 -179.5 -27t-210.5 -7h-61v404h47zM262 211q75 42 207 42t206.5 -42t74.5 -118q0 -75 -74.5 -116.5t-206.5 -41.5t-207 41.5t-75 116.5q0 76 75 118zM297 6q64 -32 172 -32q107 0 171 32t64 87t-64 88t-171 33
t-171.5 -33t-64.5 -88t64 -87zM431 523h269v114h-269v39h269v120h46v-538h-46v225h-269v40z" />
    <glyph glyph-name="uniB158" unicode="&#xb158;" 
d="M146 740v-365h14q122 0 206.5 6.5t171.5 25.5l7 -40q-91 -19 -177.5 -26t-207.5 -7h-61v406h47zM700 107v96h-524v41h570v-311h-46v138l-536 -25l-9 40zM431 526h269v117h-269v39h269v114h46v-507h-46v198h-269v39z" />
    <glyph glyph-name="uniB15C" unicode="&#xb15c;" 
d="M140 695v-497h5q82 0 156 6.5t154 23.5l7 -43q-84 -17 -158.5 -23t-158.5 -6h-51v539h46zM344 393h200v145h-200v40h200v193h45v-790h-45v372h-200v40zM726 796h46v-863h-46v863z" />
    <glyph glyph-name="uniB160" unicode="&#xb160;" 
d="M767 794v-640h-45v640h45zM95 716h46v-376h6q81 0 154.5 6t153.5 21l8 -41q-84 -16 -158 -22t-158 -6h-52v418zM226 217h46v-222h528v-40h-574v262zM354 494h199v111h-199v39h199v133h44v-598h-44v275h-199v40z" />
    <glyph glyph-name="uniB171" unicode="&#xb171;" 
d="M767 795v-537h-45v537h45zM96 730h46v-366h5q84 0 156.5 5.5t152.5 21.5l7 -41q-84 -16 -158 -22t-158 -6h-51v408zM283.5 198.5q74.5 39.5 207.5 39.5q132 0 206.5 -39.5t74.5 -111.5t-74.5 -112t-206.5 -40q-133 0 -207.5 40t-74.5 112t74.5 111.5zM318.5 4
q64.5 -31 172.5 -31q107 0 171 31t64 83t-63.5 82.5t-171.5 30.5q-109 0 -173 -30.5t-64 -82.5t64.5 -83zM355 519h198v106h-198v39h198v112h44v-489h-44v191h-198v41z" />
    </font>
</defs>
</svg>
