<?xml version="1.0" standalone="no"?>
<!DOCTYPE svg PUBLIC "-//W3C//DTD SVG 1.1//EN" "http://www.w3.org/Graphics/SVG/1.1/DTD/svg11.dtd" >
<svg xmlns="http://www.w3.org/2000/svg" xmlns:xlink="http://www.w3.org/1999/xlink" version="1.1">
<metadata>
Created by FontForge 20170731 at Thu Jan 20 04:13:55 2022
 By Aleksey,,,
Copyright (c) 2022 Sunn.
</metadata>
<defs>
<font id="SUIT-SemiBold" horiz-adv-x="874" >
  <font-face 
    font-family="SUIT SemiBold"
    font-weight="600"
    font-stretch="normal"
    units-per-em="1000"
    panose-1="0 0 0 0 0 0 0 0 0 0"
    ascent="800"
    descent="-200"
    x-height="515"
    cap-height="729"
    bbox="-89 -260 1244 878"
    underline-thickness="50"
    underline-position="-175"
    unicode-range="U+0020-FFE6"
  />
<missing-glyph horiz-adv-x="1000" 
 />
    <glyph glyph-name=".notdef" horiz-adv-x="1000" 
 />
    <glyph glyph-name=".null" horiz-adv-x="0" 
 />
    <glyph glyph-name="nonmarkingreturn" horiz-adv-x="333" 
 />
    <glyph glyph-name="space" unicode=" " horiz-adv-x="230" 
 />
    <glyph glyph-name="space" unicode="&#xa0;" horiz-adv-x="230" 
 />
    <glyph glyph-name="exclam" unicode="!" horiz-adv-x="342" 
d="M221 187h-98l-19 566h134zM118 91h108v-105h-108v105z" />
    <glyph glyph-name="quotedbl" unicode="&#x22;" horiz-adv-x="419" 
d="M165 564h-76l-14 214h103zM344 777l-13 -215h-76l-14 215h103z" />
    <glyph glyph-name="numbersign" unicode="#" horiz-adv-x="795" 
d="M609 557h132v-98h-141l-16 -197h132v-99h-138l-15 -170h-102l16 170h-190l-15 -170h-101l15 170h-132v99h138l17 197h-129v98h137l14 172h101l-14 -172h190l13 172h103zM483 262l17 197h-189l-18 -197h190z" />
    <glyph glyph-name="dollar" unicode="$" horiz-adv-x="699" 
d="M476 590q-28 20 -63 28v-218q74 -23 113.5 -44.5t62.5 -45.5q17 -19 30.5 -52.5t13.5 -70.5q0 -41 -18 -77q-32 -58 -104 -92q-44 -21 -98 -30v-68h-105v71q-62 11 -127 51q-49 31 -76.5 70t-38.5 70l102 36q7 -19 23.5 -42t47.5 -42q39 -25 69 -33v217l-8 2
q-26 7 -46.5 17t-47.5 26q-28 18 -61 51q-20 23 -33.5 55t-13.5 68q0 42 20 83q30 56 83.5 81.5t106.5 30.5v75h105v-79q71 -14 123 -48q59 -39 89 -93l-94 -52q-16 30 -55 55zM204 533q0 -22 20 -45q17 -19 38 -33q32 -19 46 -24v193q-32 -4 -56 -16.5t-38 -37.5
q-10 -20 -10 -37zM465 116q20 9 32.5 19t21.5 25q9 20 9 34q0 21 -19 43q-27 27 -96 50v-190q28 7 52 19z" />
    <glyph glyph-name="percent" unicode="%" horiz-adv-x="1061" 
d="M711 729h108l-462 -734h-106zM109 652q26 46 71 73t98 27t97.5 -27t70 -73t25.5 -100q0 -53 -25.5 -99t-70 -73.5t-97.5 -27.5t-98 27.5t-71 73.5t-26 99q0 54 26 100zM210 480q29 -30 68 -30q40 0 68 29.5t28 72.5t-28 72.5t-68 29.5q-39 0 -68 -30t-29 -72t29 -72z
M615 278q26 46 71 73t98 27t97.5 -27t70.5 -73t26 -100q0 -53 -26 -99t-70.5 -73.5t-97.5 -27.5t-98 27.5t-71 73.5t-26 99q0 54 26 100zM716.5 106q28.5 -30 67.5 -30q40 0 68.5 29.5t28.5 72.5t-28.5 72.5t-68.5 29.5q-39 0 -67.5 -30t-28.5 -72t28.5 -72z" />
    <glyph glyph-name="ampersand" unicode="&#x26;" horiz-adv-x="763" 
d="M586 -7l-63 68q-92 -83 -208 -83q-101 0 -154.5 43.5t-69.5 92.5t-16 81q0 21 9 57.5t37.5 80t79.5 77.5q-37 36 -55.5 66.5t-18.5 78.5q0 39 21.5 81.5t65.5 71.5t106 29q60 0 103.5 -29t65.5 -71.5t22 -81.5q0 -55 -34 -97.5t-99 -79.5l141 -154q14 21 45 78l16 29
l94 -52l-13 -24q-34 -65 -67 -112l138 -150h-146zM209 123q26 -37 106 -37q75 0 136 54l-174 189q-55 -29 -74.5 -68t-19.5 -66q0 -35 26 -72zM245.5 521q10.5 -15 34.5 -38l23 -23q55 27 77.5 48t22.5 47q0 31 -20 52.5t-63 21.5q-45 0 -65 -21.5t-20 -52.5q0 -19 10.5 -34
z" />
    <glyph glyph-name="quotesingle" unicode="'" horiz-adv-x="247" 
d="M162 564h-76l-14 214h103z" />
    <glyph glyph-name="parenleft" unicode="(" horiz-adv-x="402" 
d="M135.5 145q31.5 -105 91.5 -198h110q-67 92 -103 197t-36 217t36 217t103 197h-110q-60 -93 -91.5 -198t-31.5 -216t31.5 -216z" />
    <glyph glyph-name="parenright" unicode=")" horiz-adv-x="401" 
d="M265.5 577.5q-31.5 104.5 -90.5 197.5h-110q67 -91 102.5 -196t35.5 -218t-35.5 -218t-102.5 -196h110q59 93 90.5 197.5t31.5 216.5t-31.5 216.5z" />
    <glyph glyph-name="asterisk" unicode="*" horiz-adv-x="549" 
d="M320 433l133 42l28 -87l-132 -42l86 -118l-72 -57l-88 120l-89 -120l-71 58l86 117l-133 42l29 87l132 -42l-1 142h93z" />
    <glyph glyph-name="plus" unicode="+" horiz-adv-x="725" 
d="M413 416h246v-102h-246v-245h-101v245h-246v102h246v246h101v-246z" />
    <glyph glyph-name="comma" unicode="," horiz-adv-x="293" 
d="M113 -136h-77l37 227h107z" />
    <glyph glyph-name="hyphen" unicode="-" horiz-adv-x="602" 
d="M537 420v-103h-472v103h472z" />
    <glyph glyph-name="period" unicode="." horiz-adv-x="277" 
d="M164 91v-105h-109v105h109z" />
    <glyph glyph-name="slash" unicode="/" horiz-adv-x="429" 
d="M150 -56h-104l214 828h103z" />
    <glyph glyph-name="zero" unicode="0" horiz-adv-x="605" 
d="M451 243q6 43 6 119t-6 118t-27 75q-34 69 -122 69q-86 0 -122 -68q-20 -34 -26 -76.5t-6 -117.5q0 -76 6 -118.5t26 -75.5q36 -69 122 -69q88 0 122 68q21 33 27 76zM53 506.5q8 55.5 38 104.5q26 47 78 81t133 34q82 0 133.5 -34t78.5 -81q30 -49 37.5 -103.5
t7.5 -145.5q0 -92 -7.5 -147t-37.5 -104q-26 -47 -78 -81t-134 -34q-81 0 -132.5 34t-78.5 81q-30 50 -38 106t-8 145t8 144.5z" />
    <glyph glyph-name="one" unicode="1" horiz-adv-x="364" 
d="M286 4h-101v600l-105 -54l-42 91l147 77h101v-714z" />
    <glyph glyph-name="two" unicode="2" horiz-adv-x="565" 
d="M205.5 602.5q32.5 19.5 70.5 19.5q29 0 54 -11q36 -16 55.5 -46.5t19.5 -65.5q0 -26 -12 -52q-6 -13 -25 -34l-323 -303v-97h475v101h-323l239 224q29 25 49 67q21 47 21 95q0 66 -37 121t-100 79q-44 19 -93 19q-66 0 -122.5 -34.5t-84.5 -94.5q-8 -15 -13 -34l92 -25
l8 20q17 32 49.5 51.5z" />
    <glyph glyph-name="three" unicode="3" horiz-adv-x="582" 
d="M504 301q32 -44 32 -95q0 -59 -31.5 -106.5t-87.5 -74.5t-126 -27q-71 0 -127 27t-87.5 76t-31.5 111h99q0 -30 17.5 -56.5t51 -43t78.5 -16.5t78.5 16.5t51.5 43t18 55.5q0 48 -36.5 82t-109.5 34h-52v94h52q63 0 99.5 30.5t36.5 73.5q0 26 -16 49.5t-46 38t-70 14.5
t-70 -14.5t-45.5 -38.5t-15.5 -50h-99q0 58 30 103.5t82.5 71t117.5 25.5t117 -25t82 -69.5t30 -99.5q0 -47 -28.5 -87.5t-74.5 -69.5q49 -28 81 -72z" />
    <glyph glyph-name="four" unicode="4" horiz-adv-x="631" 
d="M491 266h94v-97h-94v-165h-98v165h-348v93l348 456h98v-452zM393 266v303l-227 -303h227z" />
    <glyph glyph-name="five" unicode="5" horiz-adv-x="576" 
d="M416.5 430.5q53.5 -31.5 84 -85t30.5 -117.5q0 -65 -32 -118.5t-86.5 -84t-121.5 -30.5t-131 30.5t-99 81.5l-16 23l90 47l11 -15q21 -28 61 -46.5t84 -18.5q40 0 72.5 17.5t51 47.5t18.5 66q0 57 -41 95.5t-101 38.5q-35 0 -70 -12t-58 -33l-72 41l9 359h389v-98h-295
l-4 -182q53 25 107 25q66 0 119.5 -31.5z" />
    <glyph glyph-name="six" unicode="6" horiz-adv-x="570" 
d="M358.5 114q32.5 17 50.5 45t18 60q0 33 -18 61t-50.5 45t-73.5 17t-73.5 -17t-50 -45t-17.5 -61q0 -32 17.5 -60t50 -45t73.5 -17t73.5 17zM69 315l264 408l88 -55l-152 -231q8 1 21 1q8 0 30 -2q57 -4 104 -32.5t74 -76.5t27 -108q0 -62 -31.5 -113.5t-86.5 -80.5
t-122 -29q-66 0 -121 29.5t-87 80.5t-32 113q0 48 24 96z" />
    <glyph glyph-name="seven" unicode="7" horiz-adv-x="575" 
d="M530 607l-344 -607l-91 46l314 561h-364v100h485v-100z" />
    <glyph glyph-name="eight" unicode="8" horiz-adv-x="585" 
d="M367 106.5q33 16.5 52 43.5t19 57t-18.5 57t-52 43.5t-74.5 16.5q-42 0 -75.5 -16.5t-52.5 -43.5t-19 -57t19 -57t52.5 -43.5t75.5 -16.5q41 0 74 16.5zM75 305q30 45 81 72q-42 27 -66 66.5t-24 86.5q0 54 31.5 98.5t84 69.5t111.5 25t111.5 -25t84 -69.5t31.5 -98.5
q0 -47 -24 -86.5t-66 -66.5q50 -27 79.5 -72t29.5 -99q0 -59 -34 -107.5t-91 -76t-121 -27.5q-65 0 -122 27.5t-91.5 76t-34.5 107.5q0 54 30 99zM186 481.5q16 -22.5 44 -36.5t63 -14t63 14t44 36.5t16 47.5t-15.5 47.5t-44 36.5t-63.5 14t-63.5 -14t-44 -36.5t-15.5 -47.5
t16 -47.5z" />
    <glyph glyph-name="nine" unicode="9" horiz-adv-x="570" 
d="M358 394q32 17 50 46t18 62t-18 61.5t-50 45.5t-73 17t-73 -17t-50 -45.5t-18 -61.5t18 -62t50 -46t73 -17t73 17zM77 615q32 51 87 80.5t122 29.5q66 0 120.5 -29.5t86 -80.5t31.5 -113q0 -52 -22 -95l-264 -406l-88 54l149 229l-12 -1q-14 0 -44 5q-60 7 -105 37
t-69 76.5t-24 100.5q0 62 32 113z" />
    <glyph glyph-name="colon" unicode=":" horiz-adv-x="297" 
d="M203 557v-105h-109v105h109zM94 247h109v-105h-109v105z" />
    <glyph glyph-name="semicolon" unicode=";" horiz-adv-x="303" 
d="M209 558v-105h-108v105h108zM102 247h107l-67 -227h-77z" />
    <glyph glyph-name="less" unicode="&#x3c;" horiz-adv-x="633" 
d="M490 744l72 -75l-307 -307l308 -308l-73 -74l-382 382z" />
    <glyph glyph-name="equal" unicode="=" horiz-adv-x="682" 
d="M577 549v-102h-472v102h472zM105 285h472v-103h-472v103z" />
    <glyph glyph-name="greater" unicode="&#x3e;" horiz-adv-x="633" 
d="M143 -20l-73 74l308 308l-308 307l73 75l382 -382z" />
    <glyph glyph-name="question" unicode="?" horiz-adv-x="556" 
d="M314 91v-105h-110v105h110zM83.5 695.5q26.5 28.5 74 49.5t103.5 21q61 0 117.5 -30t91.5 -83t35 -120q0 -68 -40 -123t-93 -95q-27 -20 -38.5 -32.5t-16.5 -33.5t-5 -63h-108q0 65 15 106.5t35.5 63t53.5 45.5q89 67 89 132q0 58 -38.5 91.5t-97.5 33.5
q-42 0 -67.5 -15.5t-42.5 -33t-22 -22.5l-76 76q4 4 30.5 32.5z" />
    <glyph glyph-name="at" unicode="@" horiz-adv-x="1054" 
d="M572 212q29 19 46 51t17 71q0 40 -17 72t-46 50.5t-63 18.5q-33 0 -62.5 -18.5t-47 -51t-17.5 -71.5t17.5 -71t47 -51t62.5 -19q34 0 63 19zM131 580q62 105 167 167t229 62t229 -62t166.5 -167t61.5 -229q0 -55 -18.5 -96.5t-47.5 -65.5q-23 -21 -54.5 -32.5
t-54.5 -11.5q-33 0 -70 13.5t-61 40.5q-71 -89 -171 -89q-58 0 -106.5 30.5t-76.5 82t-28 111.5t28 111.5t76.5 82t106.5 30.5q69 0 126 -47v45h89v-246q0 -26 20 -49.5t58 -23.5q29 0 50 16q15 12 26 36t11 62q0 98 -48.5 181t-131 131t-180.5 48t-181 -48.5t-131 -131
t-48 -180.5t48 -180.5t131 -131t181 -48.5q96 0 183 50l50 -83q-106 -64 -233 -64q-124 0 -229 61.5t-167 166.5t-62 229t62 229z" />
    <glyph glyph-name="A" unicode="A" horiz-adv-x="843" 
d="M785 -7h-111l-82 199h-341l-82 -199h-111l307 736h113zM546 302l-124 299l-125 -299h249z" />
    <glyph glyph-name="B" unicode="B" horiz-adv-x="648" 
d="M75 -7h334q55 0 101.5 27.5t74 74.5t27.5 103q0 57 -25.5 105t-68.5 75q36 29 56.5 67t20.5 84q0 55 -27 101t-73.5 72.5t-101.5 26.5h-318v-736zM180 320h219q44 0 74.5 -32.5t30.5 -80.5q0 -45 -30.5 -76t-74.5 -31h-219v220zM180 626h205q44 0 75 -29.5t31 -73.5
q0 -42 -29 -70t-72 -30h-210v203z" />
    <glyph glyph-name="C" unicode="C" horiz-adv-x="724" 
d="M246.5 36q-83.5 51 -132 137t-48.5 188t48.5 188t132 137t182.5 51q74 0 140.5 -29t116.5 -81l-70 -76q-34 35 -84 55t-103 20q-69 0 -128.5 -35.5t-94.5 -96t-35 -133.5t35 -134t94.5 -96.5t128.5 -35.5q52 0 102 20.5t85 55.5l70 -76q-50 -52 -116.5 -81t-140.5 -29
q-99 0 -182.5 51z" />
    <glyph glyph-name="D" unicode="D" horiz-adv-x="731" 
d="M427.5 133.5q60.5 35.5 96 96t35.5 131.5t-35.5 131.5t-96 96t-131.5 35.5h-115v-526h115q71 0 131.5 35.5zM76 729h221q99 0 183.5 -49.5t134 -134t49.5 -184.5t-49.5 -184.5t-134 -134t-183.5 -49.5h-221v736z" />
    <glyph glyph-name="E" unicode="E" horiz-adv-x="604" 
d="M559 628h-391v-205h359v-103h-359v-225h391v-102h-495v736h495v-101z" />
    <glyph glyph-name="F" unicode="F" horiz-adv-x="594" 
d="M559 628h-381v-215h328v-103h-328v-317h-104v736h485v-101z" />
    <glyph glyph-name="G" unicode="G" horiz-adv-x="868" 
d="M794 364q0 -26 -3 -59q-10 -93 -60.5 -165.5t-128 -113t-166.5 -41.5q-103 0 -187 50t-132 136t-48 190q0 103 48 189t132 136t187 50q107 0 187.5 -51.5t123.5 -125.5l-92 -50q-33 51 -90 86.5t-130 35.5q-72 0 -132.5 -36t-95.5 -98t-35 -136q0 -75 35 -137t95.5 -98
t132.5 -36q54 2 106.5 26t91 69t48.5 107h-227v101h338q2 -14 2 -29z" />
    <glyph glyph-name="H" unicode="H" horiz-adv-x="734" 
d="M658 -7h-104v326h-373v-326h-105v736h105v-307h373v307h104v-736z" />
    <glyph glyph-name="I" unicode="I" horiz-adv-x="256" 
d="M180 729v-736h-104v736h104z" />
    <glyph glyph-name="J" unicode="J" horiz-adv-x="576" 
d="M471 96q-32 -51 -86 -80.5t-117 -29.5q-70 0 -128 36t-86 96l98 43q15 -31 46.5 -50.5t71.5 -19.5q35 0 64.5 16t46.5 43t17 59v520h105v-521q0 -61 -32 -112z" />
    <glyph glyph-name="K" unicode="K" horiz-adv-x="735" 
d="M381 406l298 -413h-129l-240 333l-130 -146v-187h-105v735h105v-397l353 399h140z" />
    <glyph glyph-name="L" unicode="L" horiz-adv-x="598" 
d="M178 95h365v-102h-469v736h104v-634z" />
    <glyph glyph-name="M" unicode="M" horiz-adv-x="904" 
d="M826 -7h-105v564l-222 -401h-96l-224 401v-564h-104v736h132l244 -439l241 439h134v-736z" />
    <glyph glyph-name="N" unicode="N" horiz-adv-x="798" 
d="M725 -7h-128l-419 585v-585h-105v736h125l423 -584v584h104v-736z" />
    <glyph glyph-name="O" unicode="O" horiz-adv-x="871" 
d="M566.5 125.5q60.5 36.5 96 99t35.5 136.5t-35.5 136t-96 98.5t-130.5 36.5q-71 0 -131.5 -36.5t-96 -98.5t-35.5 -136t35.5 -136.5t96 -99t131.5 -36.5q70 0 130.5 36.5zM118.5 548.5q49.5 86.5 134 137.5t183.5 51t183 -51t133.5 -137.5t49.5 -187.5
q0 -102 -49.5 -188.5t-133.5 -137t-183 -50.5t-183.5 50.5t-134 137t-49.5 188.5q0 101 49.5 187.5z" />
    <glyph glyph-name="P" unicode="P" horiz-adv-x="670" 
d="M443 374.5q31 18.5 49.5 49.5t18.5 67t-18.5 67t-49.5 49t-67 18h-196v-269h196q36 0 67 18.5zM75 729h300q65 0 119.5 -32t86 -86.5t31.5 -119.5t-31.5 -119.5t-86 -87t-119.5 -32.5h-195v-259h-105v736z" />
    <glyph glyph-name="Q" unicode="Q" horiz-adv-x="877" 
d="M687.5 284.5q10.5 33.5 11.5 75.5q0 74 -35.5 136.5t-96 99t-131.5 36.5t-131.5 -36.5t-96 -99t-35.5 -136.5t36 -136t96 -98.5t131 -36.5q85 1 150 50l-95 101l76 72l89 -96q21 35 31.5 68.5zM118.5 548.5q49.5 86.5 134 137t183.5 50.5t183 -50.5t133.5 -137
t49.5 -188.5q-1 -116 -73 -222l79 -83l-74 -72l-76 82q-48 -40 -102.5 -60t-119.5 -20q-99 0 -183.5 50.5t-134 137t-49.5 187.5q0 102 49.5 188.5z" />
    <glyph glyph-name="R" unicode="R" horiz-adv-x="703" 
d="M444 372.5q31 18.5 49 50t18 68.5q0 36 -18 67t-49 49t-68 18h-198v-271h198q37 0 68 18.5zM76 729h308q62 0 114.5 -31t83 -85.5t30.5 -120.5q-2 -83 -47.5 -142.5t-116.5 -84.5l199 -272h-127l-190 258h-152v-258h-102v736z" />
    <glyph glyph-name="S" unicode="S" horiz-adv-x="683" 
d="M500.5 573.5q-12.5 12.5 -33.5 25.5q-52 34 -120 34q-12 0 -32 -2q-73 -8 -96 -59q-7 -15 -7 -34q0 -29 19 -55q15 -17 36 -31q26 -17 62 -28l48 -14q87 -23 134.5 -46.5t70.5 -49.5q19 -20 32.5 -53t13.5 -71q0 -40 -15 -75q-15 -30 -42 -56t-58 -43q-64 -31 -105 -33
q-22 -3 -44 -3q-92 0 -177 53q-48 31 -78 71t-40 69l102 36q6 -18 23.5 -41t48.5 -43q32 -20 59.5 -28.5t56.5 -8.5q19 0 40 3q18 0 64 21q35 19 52 49q7 17 7 33q0 24 -20 48q-13 15 -46 30t-107 34l-50 14q-52 16 -92 42q-32 22 -59 52q-18 23 -30 57t-12 71q0 41 15 74
q27 59 79 88t103 35q22 2 36 2q107 0 186 -50q55 -34 91 -90l-92 -58q-11 18 -23.5 30.5z" />
    <glyph glyph-name="T" unicode="T" horiz-adv-x="633" 
d="M578 628h-209v-635h-105v635h-209v101h523v-101z" />
    <glyph glyph-name="U" unicode="U" horiz-adv-x="732" 
d="M618.5 134.5q-40.5 -68.5 -108 -108.5t-142.5 -40q-80 0 -147 40t-105.5 108t-38.5 150v445h105v-443q0 -55 24.5 -99.5t67 -70t94.5 -25.5q49 0 92 25.5t69 70.5t26 99v443h104v-445q0 -81 -40.5 -149.5z" />
    <glyph glyph-name="V" unicode="V" horiz-adv-x="838" 
d="M481 -7h-113l-310 736h112l256 -607l248 607h106z" />
    <glyph glyph-name="W" unicode="W" horiz-adv-x="1152" 
d="M859 -7h-104l-172 561l-185 -561h-102l-231 736h107l179 -570l176 570h110l173 -570l171 570h106z" />
    <glyph glyph-name="X" unicode="X" horiz-adv-x="808" 
d="M468 362l283 -369h-127l-219 286l-218 -286h-129l283 369l-283 367h129l218 -285l218 285h128z" />
    <glyph glyph-name="Y" unicode="Y" horiz-adv-x="805" 
d="M453 280v-287h-102v287l-293 449h123l221 -339l222 339h122z" />
    <glyph glyph-name="Z" unicode="Z" horiz-adv-x="692" 
d="M657 630l-476 -536h476v-101h-621v98l473 536h-473v102h621v-99z" />
    <glyph glyph-name="bracketleft" unicode="[" horiz-adv-x="372" 
d="M308 677h-109v-634h109v-100h-205v833h205v-99z" />
    <glyph glyph-name="backslash" unicode="\" horiz-adv-x="429" 
d="M169 772l214 -828h-104l-213 828h103z" />
    <glyph glyph-name="bracketright" unicode="]" horiz-adv-x="372" 
d="M270 776v-833h-205v100h109v634h-109v99h205z" />
    <glyph glyph-name="asciicircum" unicode="^" horiz-adv-x="543" 
d="M483 379l11 -27h-98l-124 270l-125 -270h-98l171 374h103z" />
    <glyph glyph-name="underscore" unicode="_" horiz-adv-x="572" 
d="M528 -14v-102h-474v102h474z" />
    <glyph glyph-name="grave" unicode="`" horiz-adv-x="290" 
d="M190 779l37 -215h-75l-70 215h108z" />
    <glyph glyph-name="a" unicode="a" horiz-adv-x="631" 
d="M378 107.5q34 21.5 55 59t21 82.5t-21 82.5t-55 59t-74 21.5t-74.5 -21.5t-55 -59t-20.5 -82.5t20.5 -82.5t55 -59t74.5 -21.5t74 21.5zM82 379.5q33 60.5 90 96.5t125 36q45 0 88 -23t73 -68v93h104v-520l-104 -1v83q-32 -46 -73.5 -68.5t-87.5 -22.5q-68 0 -125 36
t-90 97t-33 131t33 130.5z" />
    <glyph glyph-name="b" unicode="b" horiz-adv-x="624" 
d="M395.5 112q33.5 21 53.5 58t20 81t-20 80.5t-53.5 57.5t-72.5 21t-72.5 -21t-53.5 -57.5t-20 -80.5t20 -81t53.5 -58t72.5 -21t72.5 21zM69 750h103v-330q31 46 74 67.5t85 21.5q67 0 123 -35.5t88.5 -94.5t32.5 -128t-32.5 -128.5t-89 -95t-123.5 -35.5q-101 0 -158 90
v-82h-103v750z" />
    <glyph glyph-name="c" unicode="c" horiz-adv-x="495" 
d="M351.5 106q29.5 13 52.5 36l77 -73q-37 -38 -85.5 -59t-102.5 -21q-72 0 -133 37t-96.5 100t-35.5 137t35.5 137t96.5 100t133 37q54 0 102.5 -21t85.5 -59l-77 -72q-24 23 -53 36t-62 13q-43 0 -80.5 -23t-59.5 -62t-22 -86t22 -86t59.5 -61.5t80.5 -22.5q33 0 62.5 13z
" />
    <glyph glyph-name="d" unicode="d" horiz-adv-x="624" 
d="M372.5 111.5q33.5 20.5 53.5 57.5t20 82t-20 81.5t-53.5 57t-72.5 20.5t-72.5 -21t-53.5 -57.5t-20 -80.5t20 -81t53.5 -58t72.5 -21t72.5 20.5zM81.5 379q32.5 59 88.5 94.5t122 35.5q44 0 87.5 -22.5t71.5 -67.5v331h104v-750h-104v83q-28 -47 -72 -69t-87 -22
q-66 0 -122 35.5t-88.5 95t-32.5 128.5t32.5 128z" />
    <glyph glyph-name="e" unicode="e" horiz-adv-x="591" 
d="M383.5 387.5q-38.5 30.5 -84.5 30.5q-48 0 -90 -31t-58 -81h290q-19 51 -57.5 81.5zM82 384.5q33 60.5 90.5 96.5t126.5 36q67 0 115.5 -30.5t72.5 -63.5t30 -48q24 -46 24 -113q0 -27 -3 -47h-388q10 -55 53.5 -91t96.5 -36q40 0 72.5 18.5t51.5 45.5l90 -41
q-31 -51 -86.5 -86t-128.5 -35q-69 0 -126.5 36t-90.5 96.5t-33 130.5q0 71 33 131.5z" />
    <glyph glyph-name="f" unicode="f" horiz-adv-x="440" 
d="M124 -10v427h-89v101h89v81q0 46 22 86t60 64.5t85 24.5q31 0 63 -12.5t55 -31.5l-70 -82q-20 19 -48 19q-60 0 -60 -68v-81h153v-101h-153v-427h-107z" />
    <glyph glyph-name="g" unicode="g" horiz-adv-x="632" 
d="M377.5 110.5q34.5 21.5 54.5 59t20 82.5t-20 81.5t-54.5 58t-74.5 21.5q-39 0 -73.5 -21.5t-55 -58.5t-20.5 -81q0 -45 20.5 -82.5t55 -59t73.5 -21.5q40 0 74.5 21.5zM82 384q33 60 90 95t125 35q44 0 89 -21t72 -69v92h105v-495q0 -83 -37.5 -145.5t-100 -96
t-137.5 -33.5q-68 0 -127.5 32.5t-95.5 87.5l89 58q23 -38 60 -57t74 -19q40 0 79 19t65 56t26 89v69q-31 -46 -75.5 -69t-85.5 -23q-68 0 -125 35t-90 95t-33 133q0 72 33 132z" />
    <glyph glyph-name="h" unicode="h" horiz-adv-x="604" 
d="M404.5 368.5q-30.5 35.5 -88.5 35.5q-38 0 -69.5 -19.5t-50 -52.5t-18.5 -72v-269h-104v759h104v-317q23 35 63 56t77 21q64 0 114 -30.5t77 -82t27 -113.5v-293h-101v281q0 61 -30.5 96.5z" />
    <glyph glyph-name="i" unicode="i" horiz-adv-x="248" 
d="M181 759v-108h-108v108h108zM76 517h103v-526h-103v526z" />
    <glyph glyph-name="j" unicode="j" horiz-adv-x="239" 
d="M-0.5 -143.5q7.5 -3.5 17.5 -3.5q23 0 37.5 13.5t14.5 41.5v609h107v-609q0 -46 -23 -83t-60 -58t-76 -21q-26 0 -54.5 11t-51.5 31l72 80q9 -8 16.5 -11.5zM68 759h108v-108h-108v108z" />
    <glyph glyph-name="k" unicode="k" horiz-adv-x="563" 
d="M176 272l213 241h131l-203 -230l201 -292h-120l-149 220l-73 -87v-133h-103v759h103v-478z" />
    <glyph glyph-name="l" unicode="l" horiz-adv-x="223" 
d="M163 750v-759h-103v759h103z" />
    <glyph glyph-name="m" unicode="m" horiz-adv-x="921" 
d="M734.5 349q-15.5 27 -41.5 44t-56 17q-52 0 -87 -31.5t-35 -86.5v-299h-102v299q0 49 -29 83t-82 34q-52 0 -87.5 -33t-35.5 -83v-300h-104v522h104v-78q19 39 53.5 58.5t78.5 19.5q57 0 95.5 -26.5t66.5 -78.5q77 105 170 105q57 0 105 -26.5t77 -75.5t29 -114v-306
h-104v299q0 30 -15.5 57z" />
    <glyph glyph-name="n" unicode="n" horiz-adv-x="596" 
d="M401 374.5q-33 35.5 -95 35.5q-38 0 -69 -17t-48 -46t-17 -64v-290h-104v522h104v-79q22 40 60.5 59.5t82.5 19.5q62 0 112.5 -25.5t80.5 -75t30 -116.5v-305h-104v290q0 56 -33 91.5z" />
    <glyph glyph-name="o" unicode="o" horiz-adv-x="595" 
d="M372.5 110.5q34.5 21.5 55 59t20.5 83.5t-20.5 84t-55 59.5t-75.5 21.5t-76 -21.5t-55.5 -59.5t-20.5 -84q0 -45 20.5 -83t55.5 -59.5t76 -21.5t75.5 21.5zM82 385q33 61 90 97t125 36t125.5 -36t90.5 -97t33 -132q0 -70 -33 -131t-90.5 -97t-125.5 -36t-125 36t-90 97
t-33 131q0 71 33 132z" />
    <glyph glyph-name="p" unicode="p" horiz-adv-x="639" 
d="M410.5 107.5q35.5 22.5 56.5 61t21 84.5t-21 84.5t-56.5 60.5t-75.5 22q-41 0 -76.5 -22t-56.5 -60.5t-21 -84.5t21 -84.5t56.5 -61t76.5 -22.5q40 0 75.5 22.5zM74 516h104v-90q24 45 73 67.5t90 22.5q68 0 125 -36t90.5 -96.5t33.5 -130.5q0 -71 -33.5 -132t-90.5 -97
t-125 -36q-40 0 -89 24t-74 68v-340h-104v776z" />
    <glyph glyph-name="q" unicode="q" horiz-adv-x="634" 
d="M380.5 107.5q35.5 22.5 56.5 61t21 84.5t-21 84.5t-56.5 60.5t-76.5 22q-40 0 -75.5 -22t-56.5 -60.5t-21 -84.5t21 -84.5t56.5 -61t75.5 -22.5q41 0 76.5 22.5zM82.5 383.5q33.5 60.5 90.5 96.5t125 36q41 0 90 -22.5t73 -67.5v90h104v-776h-104v340q-25 -44 -74 -68
t-89 -24q-68 0 -125 36t-90.5 97t-33.5 132q0 70 33.5 130.5z" />
    <glyph glyph-name="r" unicode="r" horiz-adv-x="362" 
d="M236.5 511q46.5 26 91.5 26v-101q-45 0 -82 -25t-58 -63t-21 -75v-280h-104v544h104v-99q23 47 69.5 73z" />
    <glyph glyph-name="s" unicode="s" horiz-adv-x="503" 
d="M325 399q-21 13 -43.5 17t-49.5 3q-20 -3 -34 -8.5t-23 -18.5q-3 -10 -3 -17q0 -9 7 -19q10 -10 24 -18q20 -13 39 -20l32 -8q63 -18 97.5 -35.5t51.5 -38.5q15 -17 24.5 -40.5t9.5 -49.5q0 -32 -15 -61q-22 -42 -77 -69q-36 -19 -78 -22q-8 -1 -24 -1q-70 0 -135 40
q-34 22 -49.5 44t-31.5 51l96 48q7 -16 16 -29t27 -24q25 -16 44.5 -20.5t46.5 -2.5q23 3 42 12q13 7 19 11.5t10 11.5q4 8 4 14q0 7 -9 17q-8 9 -28 18t-69 22l-34 10q-33 10 -67 32q-19 12 -30.5 23t-13.5 12q-17 19 -26 44t-9 52q0 32 13 61q25 46 71.5 66t94.5 20
q80 0 140 -39q40 -28 63 -66l-90 -56q-15 20 -33 34z" />
    <glyph glyph-name="t" unicode="t" horiz-adv-x="443" 
d="M279 -7q-40 0 -76 21.5t-58 58.5t-22 80v276h-88v101h88v167h107v-167h133v-101h-133v-276q0 -52 49 -52q12 0 19 3t17 13l74 -78q-49 -46 -110 -46z" />
    <glyph glyph-name="u" unicode="u" horiz-adv-x="596" 
d="M205 132.5q33 -35.5 95 -35.5q60 0 98 36.5t36 90.5v293h104v-524h-104v78q-42 -78 -143 -78q-61 0 -112 25.5t-81 74.5t-30 116v306h104v-290q0 -57 33 -92.5z" />
    <glyph glyph-name="v" unicode="v" horiz-adv-x="612" 
d="M351 -7h-93l-219 522h114l153 -387l153 387h114z" />
    <glyph glyph-name="w" unicode="w" horiz-adv-x="812" 
d="M618 -7h-98l-110 366l-110 -366h-99l-157 522h108l100 -357l104 357h106l106 -357l97 357h109z" />
    <glyph glyph-name="x" unicode="x" horiz-adv-x="590" 
d="M356 254l193 -261h-125l-129 173l-126 -173h-127l191 261l-194 261h126l130 -177l129 177h127z" />
    <glyph glyph-name="y" unicode="y" horiz-adv-x="596" 
d="M259 -260h-107l90 239l-203 536h111l148 -401l146 401h113z" />
    <glyph glyph-name="z" unicode="z" horiz-adv-x="524" 
d="M477 411l-290 -315h290v-103h-430v100l291 318h-291v104h430v-104z" />
    <glyph glyph-name="braceleft" unicode="{" horiz-adv-x="382" 
d="M145 435.5q17 27.5 17 53.5v155q0 65 34.5 96.5t83.5 31.5h37v-92h-37q-12 0 -17 -2t-7 -9t-2 -25v-155q0 -22 -10 -59t-43 -68q33 -31 43 -68t10 -59v-156q0 -18 2 -25t7 -9t17 -2h37v-92h-37q-49 0 -83.5 31.5t-34.5 96.5v156q0 25 -17 53t-80 28v92q63 0 80 27.5z" />
    <glyph glyph-name="bar" unicode="|" horiz-adv-x="324" 
d="M203 731v-741h-82v741h82z" />
    <glyph glyph-name="braceright" unicode="}" horiz-adv-x="382" 
d="M238 288q-17 -28 -17 -53v-156q0 -64 -34.5 -96t-84.5 -32h-37v92h37q12 0 17.5 2t7.5 9t2 25v156q0 22 9.5 59t42.5 68q-33 31 -42.5 68t-9.5 59v155q0 18 -2 25t-7.5 9t-17.5 2h-37v92h37q50 0 84.5 -32t34.5 -96v-155q0 -26 16.5 -53.5t79.5 -27.5v-92q-62 0 -79 -28z
" />
    <glyph glyph-name="asciitilde" unicode="~" horiz-adv-x="731" 
d="M147.5 458q50.5 28 95.5 28q55 -1 77.5 -15t23.5 -15l37 -22l14 -8l36 -20q2 -1 10 -6t17 -8t21 -3q22 1 44 14.5t33 44.5l102 -34q-16 -48 -49.5 -78t-69 -42t-60.5 -13q-38 1 -60.5 10t-41.5 21l-36 20l-16 10l-34 20q-2 1 -10 6t-17.5 7.5t-22.5 2.5q-21 0 -39 -11
t-29 -42l-102 36q26 69 76.5 97z" />
    <glyph glyph-name="yen" unicode="&#xa5;" horiz-adv-x="796" 
d="M494 419h134v-96h-182v-75h178v-95h-178v-153h-97v153h-185v95h185v75h-181v96h133l-228 303h114l210 -270l208 270h118z" />
    <glyph glyph-name="copyright" unicode="&#xa9;" horiz-adv-x="1084" 
d="M150 578q61 104 165 165t227 61t227 -61t165 -165t61 -227q0 -122 -61 -226t-165 -165t-227 -61t-227 61t-165 165t-61 226q0 123 61 227zM230.5 171.5q48.5 -82.5 131.5 -131.5t180 -49t180 49t131.5 131.5t48.5 179.5t-48.5 180t-131.5 131.5t-180 48.5t-180 -48.5
t-131.5 -131.5t-48.5 -180t48.5 -179.5zM342.5 480q32.5 58 89 92.5t123.5 34.5q49 0 93.5 -19.5t78.5 -54.5l-66 -62q-21 22 -49.5 34.5t-59.5 12.5q-41 0 -77 -22t-57.5 -59.5t-21.5 -82.5t21.5 -82.5t57 -59t77.5 -21.5q31 0 59.5 12t49.5 35l66 -63q-34 -35 -78.5 -54.5
t-93.5 -19.5q-67 0 -123.5 34.5t-89 92.5t-32.5 126t32.5 126z" />
    <glyph glyph-name="uni00AD" unicode="&#xad;" horiz-adv-x="602" 
d="M537 420v-103h-472v103h472z" />
    <glyph glyph-name="registered" unicode="&#xae;" horiz-adv-x="529" 
d="M303 535h57l-51 68q18 8 29 25.5t11 38.5q0 29 -20 49t-50 20h-97v-201h46v61h30zM74.5 744q29.5 51 80.5 80.5t110 29.5t109.5 -29.5t80 -80t29.5 -110.5t-29.5 -110t-79.5 -79.5t-110 -29.5t-110.5 29.5t-80 80t-29.5 109.5t29.5 110zM121.5 551q22.5 -38 60.5 -60
t83 -22t83 22t60 60t22 83t-22 83t-60 60.5t-83 22.5t-83 -22.5t-60.5 -60.5t-22.5 -83t22.5 -83zM228 693h50q11 0 18.5 -7.5t7.5 -18.5t-7.5 -19t-18.5 -8h-50v53z" />
    <glyph glyph-name="degree" unicode="&#xb0;" horiz-adv-x="449" 
d="M280 806q30 -18 48 -48.5t18 -66.5q0 -35 -18 -65t-48.5 -47.5t-65.5 -17.5q-36 0 -66.5 17.5t-48 47.5t-17.5 65q0 36 17.5 66.5t48 48.5t66.5 18t66 -18zM172 650q18 -17 42 -17q25 0 42 17t17 41q0 25 -17 42t-42 17q-24 0 -42 -17.5t-18 -41.5t18 -41z" />
    <glyph glyph-name="plusminus" unicode="&#xb1;" horiz-adv-x="654" 
d="M377 502h192v-102h-192v-191h-101v191h-191v102h191v189h101v-189zM85 117h484v-102h-484v102z" />
    <glyph glyph-name="uni00B2" unicode="&#xb2;" horiz-adv-x="376" 
d="M141.5 796q18.5 11 40.5 11q17 0 36 -8q20 -8 31 -25t11 -38q0 -19 -9 -37q-4 -9 -16 -21l-197 -178v-59h300v67h-194l144 128q21 21 29 41q13 27 13 58q0 41 -23 76.5t-63 53.5q-29 13 -61 13q-42 0 -79 -22.5t-55 -62.5q-5 -9 -7 -21l68 -18q2 8 4 11q9 20 27.5 31z
" />
    <glyph glyph-name="uni00B3" unicode="&#xb3;" horiz-adv-x="376" 
d="M321 615.5q17 -27.5 17 -59.5q0 -56 -42 -92t-108 -36t-108 37t-42 95h66q0 -28 21.5 -46.5t62.5 -18.5t63 18.5t22 46.5q0 29 -20 48t-64 19h-32v66h32q38 0 58 17t20 43q0 25 -19.5 41t-55.5 16t-55 -16t-19 -41h-67q0 54 40 89t101 35q60 0 100 -34.5t40 -86.5
q0 -29 -15 -54t-42 -42q29 -17 46 -44.5z" />
    <glyph glyph-name="paragraph" unicode="&#xb6;" horiz-adv-x="1000" 
d="M499 -48h73v721h66v-721h72v804h-211q-64 0 -118 -32t-85.5 -86t-31.5 -118t31.5 -117.5t85.5 -85.5t118 -32v-333z" />
    <glyph glyph-name="periodcentered" unicode="&#xb7;" horiz-adv-x="497" 
d="M312 429v-123h-127v123h127z" />
    <glyph glyph-name="uni00B9" unicode="&#xb9;" horiz-adv-x="236" 
d="M198 430h-71v364l-61 -26l-28 64l89 41h71v-443z" />
    <glyph glyph-name="multiply" unicode="&#xd7;" horiz-adv-x="722" 
d="M572 80l-211 210l-210 -210l-73 72l211 211l-211 210l73 73l210 -213l212 213l71 -73l-210 -210l210 -211z" />
    <glyph glyph-name="divide" unicode="&#xf7;" horiz-adv-x="725" 
d="M421 642v-117h-116v117h116zM66 416h593v-102h-593v102zM305 206h116v-116h-116v116z" />
    <glyph glyph-name="uni2015" unicode="&#x2015;" horiz-adv-x="1000" 
d="M930 420v-103h-860v103h860z" />
    <glyph glyph-name="quoteleft" unicode="&#x2018;" horiz-adv-x="290" 
d="M152 779h75l-37 -214h-108z" />
    <glyph glyph-name="quoteright" unicode="&#x2019;" horiz-adv-x="290" 
d="M139 564h-76l37 215h108z" />
    <glyph glyph-name="quotedblleft" unicode="&#x201c;" horiz-adv-x="470" 
d="M328 778h76l-37 -215h-108zM155 779h75l-36 -214h-109z" />
    <glyph glyph-name="quotedblright" unicode="&#x201d;" horiz-adv-x="470" 
d="M143 564h-77l37 215h108zM276 777h109l-68 -214h-77z" />
    <glyph glyph-name="twodotenleader" unicode="&#x2025;" horiz-adv-x="654" 
d="M209 420v-105h-108v105h108zM445 419h108v-103h-108v103z" />
    <glyph glyph-name="ellipsis" unicode="&#x2026;" horiz-adv-x="823" 
d="M213 419v-103h-109v103h109zM357 420h109v-105h-109v105zM610 419h109v-103h-109v103z" />
    <glyph glyph-name="minute" unicode="&#x2032;" horiz-adv-x="290" 
d="M139 564h-76l37 215h108z" />
    <glyph glyph-name="second" unicode="&#x2033;" horiz-adv-x="470" 
d="M143 564h-77l37 215h108zM276 777h109l-68 -214h-77z" />
    <glyph glyph-name="uni203B" unicode="&#x203b;" horiz-adv-x="911" 
d="M785 318h-97v97h97v-97zM384 363l-258 259l70 71l259 -259l258 260l71 -72l-259 -259l258 -258l-70 -71l-258 259l-260 -260l-69 70zM130 415h97v-97h-97v97zM407 127h98v-97h-98v97zM407 705h98v-97h-98v97z" />
    <glyph glyph-name="uni2074" unicode="&#x2074;" horiz-adv-x="412" 
d="M319 596h55v-69h-55v-99h-69v99h-212v66l215 281h66v-278zM250 596v166l-128 -166h128z" />
    <glyph glyph-name="uni2081" unicode="&#x2081;" horiz-adv-x="238" 
d="M200 -155h-70v364l-64 -27l-28 64l92 41h70v-442z" />
    <glyph glyph-name="uni2082" unicode="&#x2082;" horiz-adv-x="376" 
d="M142.5 207q18.5 11 39.5 11q18 0 36 -8q20 -9 31 -26t11 -38q0 -18 -9 -36q-4 -9 -16 -21l-197 -178v-59h300v67h-194l144 127q20 20 29 42q13 27 13 58q0 41 -23 76.5t-63 53.5q-30 12 -60 12q-43 0 -80 -22t-55 -62q-5 -9 -7 -21l68 -18q3 10 4 11q10 20 28.5 31z" />
    <glyph glyph-name="uni2083" unicode="&#x2083;" horiz-adv-x="376" 
d="M321 35.5q17 -27.5 17 -59.5q0 -56 -42 -92t-108 -36t-108 37t-42 95h66q0 -29 21.5 -47.5t62.5 -18.5t63 18.5t22 46.5q0 30 -20 49t-64 19h-32v65h32q38 0 58 17.5t20 43.5q0 25 -19.5 41t-55.5 16t-55 -16t-19 -42h-67q0 55 40 89.5t101 34.5q60 0 100 -34t40 -86
q0 -30 -15 -55t-42 -41q29 -17 46 -44.5z" />
    <glyph glyph-name="uni2084" unicode="&#x2084;" horiz-adv-x="412" 
d="M319 11h55v-69h-55v-99h-69v99h-212v66l215 280h66v-277zM250 11v164l-128 -164h128z" />
    <glyph glyph-name="uni20A9" unicode="&#x20a9;" horiz-adv-x="1088" 
d="M903 431h109v-97h-133l-82 -334h-109l-80 334h-127l-80 -334h-109l-83 334h-133v97h109l-72 291h93l71 -291h139l70 290h117l70 -290h139l71 291h92zM346 145l46 189h-92zM585 431l-41 169l-40 -169h81zM743 145l46 189h-92z" />
    <glyph glyph-name="Euro" unicode="&#x20ac;" horiz-adv-x="806" 
d="M299.5 49q-88.5 62 -129.5 162h-113v98h87q-3 23 -3 47t3 48h-87v98h113q41 100 129.5 161.5t197.5 61.5q73 0 138 -28.5t114 -79.5l-67 -75q-34 35 -85 55.5t-104 20.5q-64 0 -119 -31.5t-89 -84.5h130v-98h-169q-4 -21 -4 -48t4 -47h169v-98h-132q35 -54 90.5 -86
t119.5 -32q52 0 103.5 20.5t85.5 56.5l67 -75q-49 -51 -114 -79.5t-138 -28.5q-109 0 -197.5 62z" />
    <glyph glyph-name="uni2103" unicode="&#x2103;" horiz-adv-x="1079" 
d="M287.5 806.5q30.5 -17.5 48 -48t17.5 -66.5t-17.5 -66t-48 -47.5t-65.5 -17.5q-36 0 -66.5 17.5t-48.5 47.5t-18 66t18 66.5t48.5 48t66.5 17.5q35 0 65.5 -17.5zM180 650.5q18 -17.5 42 -17.5t41 17t17 42t-17 42t-41 17t-42 -17.5t-18 -41.5t18 -41.5zM428.5 548
q46.5 86 127 137t176.5 51q71 0 135.5 -29t113.5 -81l-74 -77q-32 34 -81 54t-98 20q-63 0 -118 -34.5t-88 -95t-33 -132.5t33 -132t88 -95t118 -35q50 0 98.5 20t80.5 55l74 -77q-49 -52 -113.5 -81.5t-135.5 -29.5q-96 0 -176.5 51t-127 137t-46.5 187t46.5 187z" />
    <glyph glyph-name="uni2109" unicode="&#x2109;" horiz-adv-x="1071" 
d="M287 804.5q30 -17.5 47.5 -48t17.5 -66.5q0 -55 -38 -93t-93 -38q-36 0 -66 17.5t-47.5 47.5t-17.5 66t17.5 66.5t47.5 48t66 17.5t66 -17.5zM179.5 648q16.5 -17 41.5 -17t42.5 17t17.5 42t-17.5 42.5t-42.5 17.5t-41.5 -17.5t-16.5 -42.5t16.5 -42zM470 726h492v-99
h-380v-215h335v-104h-335v-316h-112v734z" />
    <glyph glyph-name="trademark" unicode="&#x2122;" horiz-adv-x="966" 
d="M401 791h-129v-374h-74v374h-129v73h332v-73zM454 857h75l148 -250l147 250h74v-440h-74v302l-117 -209h-60l-118 209v-302h-75v440z" />
    <glyph glyph-name="arrowleft" unicode="&#x2190;" horiz-adv-x="1000" 
d="M223 364l381 381l74 -73l-308 -308l308 -308l-74 -74z" />
    <glyph glyph-name="arrowup" unicode="&#x2191;" horiz-adv-x="1000" 
d="M118 204l381 382l383 -382l-75 -73l-308 308l-308 -308z" />
    <glyph glyph-name="arrowright" unicode="&#x2192;" horiz-adv-x="1000" 
d="M322 56l308 308l-308 308l74 73l381 -381l-381 -382z" />
    <glyph glyph-name="arrowdown" unicode="&#x2193;" horiz-adv-x="1000" 
d="M118 484l73 74l308 -308l308 308l75 -74l-383 -381z" />
    <glyph glyph-name="arrowboth" unicode="&#x2194;" horiz-adv-x="1000" 
d="M44 368l232 233l66 -65l-118 -119l548 -3l-117 118l66 68l234 -232l-234 -232l-64 65l117 117l-548 4l119 -119l-69 -68z" />
    <glyph glyph-name="arrowupdn" unicode="&#x2195;" horiz-adv-x="1000" 
d="M268 201l65 64l117 -117l4 419l-119 -118l-68 69l233 232l233 -232l-65 -66l-119 118l-3 -420l118 118l68 -67l-232 -234z" />
    <glyph glyph-name="uni2196" unicode="&#x2196;" horiz-adv-x="1000" 
d="M653 722v-104h-341l552 -550l-71 -73l-552 552v-341h-104v516h516z" />
    <glyph glyph-name="uni2197" unicode="&#x2197;" horiz-adv-x="1000" 
d="M866 206h-104v341l-551 -552l-72 73l552 550h-341v104h516v-516z" />
    <glyph glyph-name="uni2198" unicode="&#x2198;" horiz-adv-x="1000" 
d="M350 0v104h341l-552 550l72 73l551 -552v341h104v-516h-516z" />
    <glyph glyph-name="uni2199" unicode="&#x2199;" horiz-adv-x="1000" 
d="M137 516h104v-341l552 552l71 -73l-552 -550h341v-104h-516v516z" />
    <glyph glyph-name="uni2219" unicode="&#x2219;" horiz-adv-x="513" 
d="M320 429v-123h-127v123h127z" />
    <glyph glyph-name="circleplus" unicode="&#x2295;" horiz-adv-x="1084" 
d="M150 578q61 104 165 165t227 61t227 -61t165 -165t61 -227q0 -122 -61 -226t-165 -165t-227 -61t-227 61t-165 165t-61 226q0 123 61 227zM230.5 171.5q48.5 -82.5 131.5 -131.5t180 -49t180 49t131.5 131.5t48.5 179.5t-48.5 180t-131.5 131.5t-180 48.5t-180 -48.5
t-131.5 -131.5t-48.5 -180t48.5 -179.5zM320 390h178v178h91v-178h178v-91h-178v-178h-91v178h-178v91z" />
    <glyph glyph-name="uni2296" unicode="&#x2296;" horiz-adv-x="1084" 
d="M150 578q61 104 165 165t227 61t227 -61t165 -165t61 -227q0 -122 -61 -226t-165 -165t-227 -61t-227 61t-165 165t-61 226q0 123 61 227zM230.5 171.5q48.5 -82.5 131.5 -131.5t180 -49t180 49t131.5 131.5t48.5 179.5t-48.5 180t-131.5 131.5t-180 48.5t-180 -48.5
t-131.5 -131.5t-48.5 -180t48.5 -179.5zM312 390h447v-91h-447v91z" />
    <glyph glyph-name="circlemultiply" unicode="&#x2297;" horiz-adv-x="1084" 
d="M150 578q61 104 165 165t227 61t227 -61t165 -165t61 -227q0 -122 -61 -226t-165 -165t-227 -61t-227 61t-165 165t-61 226q0 123 61 227zM230.5 171.5q48.5 -82.5 131.5 -131.5t180 -49t180 49t131.5 131.5t48.5 179.5t-48.5 180t-131.5 131.5t-180 48.5t-180 -48.5
t-131.5 -131.5t-48.5 -180t48.5 -179.5zM388 125l155 155l154 -155l64 66l-154 153l155 154l-65 66l-154 -155l-155 155l-63 -66l153 -154l-153 -153z" />
    <glyph glyph-name="uni2460" unicode="&#x2460;" horiz-adv-x="1064" 
d="M119.5 573.5q59.5 101.5 161.5 161.5t222 60t222 -60t162 -162t60 -222t-60 -222t-162 -161.5t-222 -59.5t-222 59.5t-161.5 161.5t-59.5 222q0 121 59.5 222.5zM198 175q48 -81 129 -129t176 -48t176.5 48t129 129t47.5 176t-47.5 176.5t-129 129t-176.5 47.5
t-176 -47.5t-129 -129t-48 -176.5t48 -176zM480 601h76v-490h-76v406l-71 -29l-28 68z" />
    <glyph glyph-name="uni2461" unicode="&#x2461;" horiz-adv-x="1064" 
d="M119.5 573.5q59.5 101.5 161.5 161.5t222 60t222 -60t162 -162t60 -222t-60 -222t-162 -161.5t-222 -59.5t-222 59.5t-161.5 161.5t-59.5 222q0 121 59.5 222.5zM198 175q48 -81 129 -129t176 -48t176.5 48t129 129t47.5 176t-47.5 176.5t-129 129t-176.5 47.5
t-176 -47.5t-129 -129t-48 -176.5t48 -176zM419 481l2 6t2 7q11 22 33.5 35t47.5 13q20 0 38 -9q24 -10 37 -29.5t13 -44.5q0 -18 -9 -38q-7 -12 -17 -24l-207 -209v-64h324v72h-211l150 154q20 20 31 44q14 29 14 65q0 46 -25.5 85t-69.5 58q-31 14 -68 14
q-47 0 -87.5 -24.5t-60.5 -67.5q-1 -4 -4 -11.5t-4 -13.5z" />
    <glyph glyph-name="uni2462" unicode="&#x2462;" horiz-adv-x="1064" 
d="M119.5 573.5q59.5 101.5 161.5 161.5t222 60t222 -60t162 -162t60 -222t-60 -222t-162 -161.5t-222 -59.5t-222 59.5t-161.5 161.5t-59.5 222q0 121 59.5 222.5zM198 175q48 -81 129 -129t176 -48t176.5 48t129 129t47.5 176t-47.5 176.5t-129 129t-176.5 47.5
t-176 -47.5t-129 -129t-48 -176.5t48 -176zM411 250q0 -32 25 -53.5t70 -21.5q46 0 71.5 21.5t25.5 53.5q0 34 -22.5 55t-73.5 21h-34v71h35q43 0 65 19.5t22 49.5q0 27 -22 46t-63 19q-40 0 -62 -18.5t-22 -47.5h-71q0 60 44 98.5t111 38.5q43 0 79 -17.5t56.5 -48
t20.5 -68.5q0 -33 -17 -60.5t-48 -46.5q33 -18 52.5 -48.5t19.5 -66.5q0 -40 -21.5 -72.5t-60 -51t-85.5 -18.5q-72 0 -119 41t-47 105h71z" />
    <glyph glyph-name="uni2463" unicode="&#x2463;" horiz-adv-x="1064" 
d="M119.5 573.5q59.5 101.5 161.5 161.5t222 60t222 -60t162 -162t60 -222t-60 -222t-162 -161.5t-222 -59.5t-222 59.5t-161.5 161.5t-59.5 222q0 121 59.5 222.5zM198 175q48 -81 129 -129t176 -48t176.5 48t129 129t47.5 176t-47.5 176.5t-129 129t-176.5 47.5
t-176 -47.5t-129 -129t-48 -176.5t48 -176zM299 290l235 311h68v-309h63v-71h-63v-110h-68v110h-235v69zM534 292v205l-151 -205h151z" />
    <glyph glyph-name="uni2464" unicode="&#x2464;" horiz-adv-x="1064" 
d="M119.5 573.5q59.5 101.5 161.5 161.5t222 60t222 -60t162 -162t60 -222t-60 -222t-162 -161.5t-222 -59.5t-222 59.5t-161.5 161.5t-59.5 222q0 121 59.5 222.5zM198 175q48 -81 129 -129t176 -48t176.5 48t129 129t47.5 176t-47.5 176.5t-129 129t-176.5 47.5
t-176 -47.5t-129 -129t-48 -176.5t48 -176zM404 225l7 -10q15 -19 40.5 -31t54.5 -12q45 0 73.5 26t28.5 65q0 40 -29 66.5t-73 26.5q-24 0 -46.5 -9.5t-37.5 -27.5l-53 38l6 239h271v-72h-203l-3 -113q18 9 34 13t36 4q47 0 85.5 -22t61 -59.5t22.5 -83.5q0 -45 -23 -82.5
t-63 -59.5t-87 -22q-45 0 -89 21t-67 55q-2 4 -5.5 8t-5.5 8z" />
    <glyph glyph-name="uni2465" unicode="&#x2465;" horiz-adv-x="1064" 
d="M119.5 573.5q59.5 101.5 161.5 161.5t222 60t222 -60t162 -162t60 -222t-60 -222t-162 -161.5t-222 -59.5t-222 59.5t-161.5 161.5t-59.5 222q0 121 59.5 222.5zM198 175q48 -81 129 -129t176 -48t176.5 48t129 129t47.5 176t-47.5 176.5t-129 129t-176.5 47.5
t-176 -47.5t-129 -129t-48 -176.5t48 -176zM347 330l178 278l62 -39l-100 -155h11q16 0 24 -1q62 -4 104.5 -45.5t42.5 -103.5q0 -43 -23 -78t-62 -55t-84 -20t-84 20t-62 55t-23 78q0 34 16 66zM430.5 206q26.5 -23 69.5 -23t69.5 23t26.5 58q0 34 -26.5 57t-69.5 23
q-42 0 -69 -23t-27 -57q0 -35 26.5 -58z" />
    <glyph glyph-name="uni2466" unicode="&#x2466;" horiz-adv-x="1064" 
d="M119.5 573.5q59.5 101.5 161.5 161.5t222 60t222 -60t162 -162t60 -222t-60 -222t-162 -161.5t-222 -59.5t-222 59.5t-161.5 161.5t-59.5 222q0 121 59.5 222.5zM198 175q48 -81 129 -129t176 -48t176.5 48t129 129t47.5 176t-47.5 176.5t-129 129t-176.5 47.5
t-176 -47.5t-129 -129t-48 -176.5t48 -176zM349 581h330v-68l-232 -424l-65 34l213 387l-246 -1v72z" />
    <glyph glyph-name="uni2467" unicode="&#x2467;" horiz-adv-x="1064" 
d="M119.5 573.5q59.5 101.5 161.5 161.5t222 60t222 -60t162 -162t60 -222t-60 -222t-162 -161.5t-222 -59.5t-222 59.5t-161.5 161.5t-59.5 222q0 121 59.5 222.5zM198 175q48 -81 129 -129t176 -48t176.5 48t129 129t47.5 176t-47.5 176.5t-129 129t-176.5 47.5
t-176 -47.5t-129 -129t-48 -176.5t48 -176zM360 318.5q22 31.5 56 50.5q-29 19 -46.5 46t-17.5 58q0 38 21.5 69t57 48t75.5 17q41 0 76 -17t56.5 -48t21.5 -69q0 -31 -17 -58t-46 -46q34 -19 55 -50.5t21 -67.5q0 -40 -23 -73t-61.5 -52t-82.5 -19t-82.5 19t-62 52
t-23.5 73q0 36 22 67.5zM437 198.5q26 -22.5 69 -22.5q42 0 68 22.5t26 53.5q0 32 -26 54t-68 22t-68.5 -22t-26.5 -54q0 -31 26 -53.5zM447.5 428q21.5 -18 58.5 -18t58 18t21 45t-21 45.5t-58 18.5t-58.5 -18.5t-21.5 -45.5t21.5 -45z" />
    <glyph glyph-name="uni2468" unicode="&#x2468;" horiz-adv-x="1064" 
d="M119.5 573.5q59.5 101.5 161.5 161.5t222 60t222 -60t162 -162t60 -222t-60 -222t-162 -161.5t-222 -59.5t-222 59.5t-161.5 161.5t-59.5 222q0 121 59.5 222.5zM198 175q48 -81 129 -129t176 -48t176.5 48t129 129t47.5 176t-47.5 176.5t-129 129t-176.5 47.5
t-176 -47.5t-129 -129t-48 -176.5t48 -176zM367 525q23 35 62 55t85 20q45 0 83.5 -20t61.5 -55.5t23 -77.5q0 -36 -15 -65l-179 -278l-62 37l101 156q-8 -1 -21.5 0.5t-19.5 2.5q-62 6 -102 47.5t-40 99.5q0 43 23 78zM443.5 389q26.5 -23 69.5 -23q42 0 69 23t27 58
t-26.5 58t-69.5 23q-42 0 -69 -23t-27 -58t26.5 -58z" />
    <glyph glyph-name="uni2469" unicode="&#x2469;" horiz-adv-x="1064" 
d="M119.5 573.5q59.5 101.5 161.5 161.5t222 60t222 -60t162 -162t60 -222t-60 -222t-162 -161.5t-222 -59.5t-222 59.5t-161.5 161.5t-59.5 222q0 121 59.5 222.5zM198 175q48 -81 129 -129t176 -48t176.5 48t129 129t47.5 176t-47.5 176.5t-129 129t-176.5 47.5
t-176 -47.5t-129 -129t-48 -176.5t48 -176zM339 562h64v-424h-64v357l-54 -24l-24 56zM457 435q5 33 23 63q14 27 44.5 47.5t77.5 20.5t77.5 -20.5t45.5 -47.5q18 -29 22.5 -61.5t4.5 -86.5t-4.5 -86.5t-22.5 -62.5q-15 -27 -45.5 -47t-77.5 -20t-77.5 20t-44.5 47
q-18 30 -23 63.5t-5 85.5t5 85zM518 279.5q3 -24.5 15 -44.5q8 -16 25 -27.5t43 -11.5q50 0 69 39q12 19 15.5 44t3.5 71t-3.5 70.5t-15.5 44.5q-20 38 -69 38q-25 0 -42.5 -11t-25.5 -26q-12 -21 -15 -45.5t-3 -70.5t3 -70.5z" />
    <glyph glyph-name="uni246A" unicode="&#x246a;" horiz-adv-x="1064" 
d="M119.5 573.5q59.5 101.5 161.5 161.5t222 60t222 -60t162 -162t60 -222t-60 -222t-162 -161.5t-222 -59.5t-222 59.5t-161.5 161.5t-59.5 222q0 121 59.5 222.5zM198 175q48 -81 129 -129t176 -48t176.5 48t129 129t47.5 176t-47.5 176.5t-129 129t-176.5 47.5
t-176 -47.5t-129 -129t-48 -176.5t48 -176zM378 565h64v-424h-64v357l-53 -24l-24 56zM597 565h65v-424h-65v357l-52 -24l-25 56z" />
    <glyph glyph-name="uni246B" unicode="&#x246b;" horiz-adv-x="1064" 
d="M281 -32.5q-102 59.5 -161.5 161.5t-59.5 222q0 121 59.5 222.5t161.5 161.5t222 60t222 -60t162 -162t60 -222t-60 -222t-162 -161.5t-222 -59.5t-222 59.5zM198 175q48 -81 129 -129t176 -48t176.5 48t129 129t47.5 176t-47.5 176.5t-129 129t-176.5 47.5t-176 -47.5
t-129 -129t-48 -176.5t48 -176zM336 566h64v-424h-64v357l-55 -24l-24 56zM458 492q18 37 53 58t75 21q30 0 58 -12q38 -16 60 -50t22 -74q0 -28 -12 -55q-11 -23 -27 -37l-128 -136h182v-61h-277v54l178 182q5 5 15 21q7 15 7 34q0 21 -11 38.5t-32 26.5q-18 8 -35 8
q-22 0 -42.5 -11.5t-30.5 -30.5l-3 -13l-59 17q1 6 7 20z" />
    <glyph glyph-name="uni246C" unicode="&#x246c;" horiz-adv-x="1064" 
d="M119.5 573.5q59.5 101.5 161.5 161.5t222 60t222 -60t162 -162t60 -222t-60 -222t-162 -161.5t-222 -59.5t-222 59.5t-161.5 161.5t-59.5 222q0 121 59.5 222.5zM198 175q48 -81 129 -129t176 -48t176.5 48t129 129t47.5 176t-47.5 176.5t-129 129t-176.5 47.5
t-176 -47.5t-129 -129t-48 -176.5t48 -176zM337 563h65v-424h-65v358l-53 -24l-24 55zM511 264q0 -29 21.5 -48t60.5 -19q40 0 62 19t22 47q0 29 -19.5 48t-63.5 19h-29v60h30q38 0 57 17t19 44q0 23 -19.5 39.5t-54.5 16.5t-54.5 -16.5t-19.5 -40.5h-60q0 51 38.5 84.5
t95.5 33.5q56 0 94.5 -33t38.5 -82q0 -29 -14.5 -53t-40.5 -40q29 -16 45.5 -42t16.5 -58q0 -53 -41 -87.5t-103 -34.5t-102 35t-40 91h60z" />
    <glyph glyph-name="uni246D" unicode="&#x246d;" horiz-adv-x="1064" 
d="M119.5 573.5q59.5 101.5 161.5 161.5t222 60t222 -60t162 -162t60 -222t-60 -222t-162 -161.5t-222 -59.5t-222 59.5t-161.5 161.5t-59.5 222q0 121 59.5 222.5zM198 175q48 -81 129 -129t176 -48t176.5 48t129 129t47.5 176t-47.5 176.5t-129 129t-176.5 47.5
t-176 -47.5t-129 -129t-48 -176.5t48 -176zM341 563h65v-424h-65v358l-53 -24l-24 55zM442 295l203 270h60v-268h54v-61h-54v-95h-60v95h-203v59zM645 297v178l-131 -178h131z" />
    <glyph glyph-name="uni246E" unicode="&#x246e;" horiz-adv-x="1064" 
d="M119.5 573.5q59.5 101.5 161.5 161.5t222 60t222 -60t162 -162t60 -222t-60 -222t-162 -161.5t-222 -59.5t-222 59.5t-161.5 161.5t-59.5 222q0 121 59.5 222.5zM198 175q48 -81 129 -129t176 -48t176.5 48t129 129t47.5 176t-47.5 176.5t-129 129t-176.5 47.5
t-176 -47.5t-129 -129t-48 -176.5t48 -176zM340 562h65v-424h-65v358l-54 -24l-24 56zM506 241l7 -9q12 -17 34.5 -27.5t47.5 -10.5q39 0 64.5 23t25.5 57q0 35 -25.5 57.5t-64.5 22.5q-20 0 -39.5 -8t-32.5 -23l-46 32l5 206h233v-61h-175l-2 -99q33 15 60 15
q41 0 74.5 -19t53 -51.5t19.5 -71.5t-20 -71.5t-54.5 -51.5t-75.5 -19q-39 0 -77 18t-58 48q-1 3 -4 6.5t-5 6.5z" />
    <glyph glyph-name="uni24C3" unicode="&#x24c3;" horiz-adv-x="934" 
d="M565 519v-213l-196 213h-68v-318h67v217l197 -217h69v318h-69zM156 540.5q48 82.5 130.5 131t180.5 48.5t180.5 -48.5t130.5 -131t48 -180.5t-48 -180.5t-130.5 -130.5t-180.5 -48t-180.5 48t-130.5 130.5t-48 180.5t48 180.5z" />
    <glyph glyph-name="uni24D8" unicode="&#x24d8;" horiz-adv-x="1084" 
d="M150 578q61 104 165 165t227 61t227 -61t165 -165t61 -227q0 -122 -61 -226t-165 -165t-227 -61t-227 61t-165 165t-61 226q0 123 61 227zM230.5 171.5q48.5 -82.5 131.5 -131.5t180 -49t180 49t131.5 131.5t48.5 179.5t-48.5 180t-131.5 131.5t-180 48.5t-180 -48.5
t-131.5 -131.5t-48.5 -180t48.5 -179.5zM444 459h150v-380h-86v298h-64v82zM500 619h103v-102h-103v102z" />
    <glyph glyph-name="filledbox" unicode="&#x25a0;" horiz-adv-x="1000" 
d="M866 729v-732h-732v732h732z" />
    <glyph glyph-name="uni25A1" unicode="&#x25a1;" horiz-adv-x="1000" 
d="M866 729v-732h-732v732h732zM764 99v528h-528v-528h528z" />
    <glyph glyph-name="uni25A3" unicode="&#x25a3;" horiz-adv-x="1000" 
d="M354 217l1 291h290v-290zM134 729h732v-732h-732v732zM764 99v528h-528v-528h528z" />
    <glyph glyph-name="triagup" unicode="&#x25b2;" horiz-adv-x="1000" 
d="M903 32h-805l403 658z" />
    <glyph glyph-name="uni25B3" unicode="&#x25b3;" horiz-adv-x="1000" 
d="M98 32l402 658l403 -658h-805zM754 118l-254 416l-254 -416h508z" />
    <glyph glyph-name="uni25B6" unicode="&#x25b6;" horiz-adv-x="1000" 
d="M191 -39v804l658 -402z" />
    <glyph glyph-name="uni25B7" unicode="&#x25b7;" horiz-adv-x="1000" 
d="M191 772l658 -401l-658 -403v804zM692 371l-416 253v-508z" />
    <glyph glyph-name="triagdn" unicode="&#x25bc;" horiz-adv-x="1000" 
d="M98 690h805l-402 -658z" />
    <glyph glyph-name="uni25BD" unicode="&#x25bd;" horiz-adv-x="1000" 
d="M500 32l-402 658h805zM500 189l254 416h-508z" />
    <glyph glyph-name="uni25C0" unicode="&#x25c0;" horiz-adv-x="1000" 
d="M809 765v-804l-658 402z" />
    <glyph glyph-name="uni25C1" unicode="&#x25c1;" horiz-adv-x="1000" 
d="M151 371l658 401v-804zM724 116v508l-416 -253z" />
    <glyph glyph-name="uni25C6" unicode="&#x25c6;" horiz-adv-x="1000" 
d="M939 363l-439 -439l-438 439l438 439z" />
    <glyph glyph-name="uni25C7" unicode="&#x25c7;" horiz-adv-x="1000" 
d="M939 363l-439 -439l-438 439l438 439zM500 46l318 317l-318 318l-317 -318z" />
    <glyph glyph-name="uni25C8" unicode="&#x25c8;" horiz-adv-x="1000" 
d="M325 363l175 174l174 -174l-174 -174zM500 802l439 -439l-439 -439l-438 439zM500 46l317 317l-317 318l-318 -318z" />
    <glyph glyph-name="circle" unicode="&#x25cb;" horiz-adv-x="1000" 
d="M639.5 119.5q63.5 37.5 101 101t37.5 139.5t-37.5 139.5t-101 101t-139.5 37.5t-139.5 -37.5t-101 -101t-37.5 -139.5t37.5 -139.5t101 -101t139.5 -37.5t139.5 37.5zM182.5 544q49.5 84 133.5 133.5t184 49.5t184 -49.5t133.5 -133.5t49.5 -184t-49.5 -184
t-133.5 -133.5t-184 -49.5t-184 49.5t-133.5 133.5t-49.5 184t49.5 184z" />
    <glyph glyph-name="uni25CE" unicode="&#x25ce;" horiz-adv-x="1000" 
d="M639.5 119.5q63.5 37.5 101 101t37.5 139.5t-37.5 139.5t-101 101t-139.5 37.5t-140 -37.5t-101 -101t-37 -139.5t37 -139.5t101 -101t140 -37.5t139.5 37.5zM182.5 544q49.5 84 133.5 133.5t184 49.5t184 -49.5t133.5 -133.5t49.5 -184t-49.5 -184t-133.5 -133.5
t-184 -49.5t-184 49.5t-133.5 133.5t-49.5 184t49.5 184zM340.5 452.5q24.5 42.5 67 67t92.5 24.5t92.5 -24.5t67 -67t24.5 -92.5t-24.5 -92.5t-67 -67t-92.5 -24.5t-92.5 24.5t-67 67t-24.5 92.5t24.5 92.5zM415 275q35 -35 85 -35t85 35.5t35 84.5q0 50 -35.5 85.5
t-84.5 35.5q-50 0 -85 -35.5t-35 -85.5t35 -85z" />
    <glyph glyph-name="uni25CF" unicode="&#x25cf;" horiz-adv-x="1000" 
d="M316 42.5q-84 49.5 -133.5 133.5t-49.5 184t49.5 184t133.5 133.5t184 49.5t184 -49.5t133.5 -133.5t49.5 -184t-49.5 -184t-133.5 -133.5t-184 -49.5t-184 49.5z" />
    <glyph glyph-name="uni25D0" unicode="&#x25d0;" horiz-adv-x="1000" 
d="M639.5 119.5q63.5 37.5 101 101t37.5 139.5t-37.5 139.5t-101 101t-139.5 37.5v-556q76 0 139.5 37.5zM182.5 544q49.5 84 133.5 133.5t184 49.5t184 -49.5t133.5 -133.5t49.5 -184t-49.5 -184t-133.5 -133.5t-184 -49.5t-184 49.5t-133.5 133.5t-49.5 184t49.5 184z" />
    <glyph glyph-name="uni25D1" unicode="&#x25d1;" horiz-adv-x="1000" 
d="M360.5 600.5q-63.5 -37.5 -101 -101t-37.5 -139.5t37.5 -139.5t101 -101t139.5 -37.5v556q-76 0 -139.5 -37.5zM182.5 544q49.5 84 133.5 133.5t184 49.5t184 -49.5t133.5 -133.5t49.5 -184t-49.5 -184t-133.5 -133.5t-184 -49.5t-184 49.5t-133.5 133.5t-49.5 184
t49.5 184z" />
    <glyph glyph-name="uni2605" unicode="&#x2605;" horiz-adv-x="1000" 
d="M612 485l312 -25l-242 -191l80 -316l-261 174l-262 -174l80 316l-242 191l312 25l112 291z" />
    <glyph glyph-name="uni2606" unicode="&#x2606;" horiz-adv-x="1000" 
d="M436 420l-181 -14l141 -111l-48 -190l153 103l152 -102l-48 189l141 111l-181 14l-64 168zM387 486l114 296l113 -296l315 -25l-245 -193l81 -321l-264 177l-265 -177l81 321l-245 193z" />
    <glyph glyph-name="uni260E" unicode="&#x260e;" horiz-adv-x="1000" 
d="M596 -17q63 -35 99 -35q16 0 26.5 5.5t18.5 12.5t11 9l77 65q44 37 44 64q0 11 -5.5 20t-12.5 16l-10 10l-75 76q-38 39 -68 39q-22 0 -41 -21l-44 -45q-65 65 -107 116l-16 18q-35 44 -53 69.5t-52 79.5l52 32q14 9 22 20t8 27q0 28 -24 65l-58 88q-2 3 -10 14.5
t-17.5 18t-20.5 6.5q-25 0 -64 -31l-80 -61q-2 -2 -14 -12t-18 -24.5t-6 -34.5q0 -32 14 -84q18 -68 69 -144t106 -147q147 -176 249 -232z" />
    <glyph glyph-name="uni260F" unicode="&#x260f;" horiz-adv-x="1000" 
d="M226 347q-55 82 -74 153q-14 53 -14 90q0 34 10 50.5t21 25t14 11.5l80 61q46 36 78 36q21 0 34.5 -12t20.5 -22.5l9 -13.5l58 -89q27 -40 27 -75q0 -42 -39 -66l-34 -21q29 -44 46 -67.5t47 -60.5q5 -7 31 -38t75 -80l28 29q25 27 57 27q40 0 83 -44l75 -76
q2 -2 12 -12.5t16 -23t6 -25.5q0 -38 -52 -80l-77 -66q-3 -2 -13.5 -11t-24 -14.5t-29.5 -5.5q-43 0 -112 38q-106 58 -254 237q-50 63 -105 145zM286.5 381q50.5 -75 98.5 -135q53 -64 112.5 -125t120.5 -95q7 -4 26 -14t28.5 -13.5t15.5 -3.5q7 0 14.5 4.5t16.5 12.5
l77 65q11 8 17 14.5t6 10.5q0 5 -10 15l-75 75q-11 12 -19 18.5t-11 6.5q-4 0 -10 -7l-77 -80q-83 82 -113 116.5t-35 40.5l-13 16q-30 37 -54.5 72t-81.5 122l94 58q1 1 5.5 4t4.5 6q0 5 -8 17t-11 17l-58 88q-4 6 -7.5 10t-6.5 4t-10 -5t-17 -13l-80 -61
q-13 -11 -18 -17.5t-5 -15.5q0 -11 7 -36.5t9 -34.5q17 -62 67.5 -137z" />
    <glyph glyph-name="uni261C" unicode="&#x261c;" horiz-adv-x="1000" 
d="M305 51q-24 24 -24 57q0 21 10 39q-17 11 -27 29t-10 38t11 39q-16 11 -25.5 29t-9.5 38q0 13 4 24h-93q-40 0 -66 21.5t-26 57.5q0 37 26.5 59t65.5 22h298l-41 40q-26 26 -26 64q0 18 6.5 34.5t19.5 29.5q27 27 64 27q39 0 64 -27l100 -100q29 -29 66 -44t78 -15h103
q32 0 55.5 -23.5t23.5 -54.5v-238q0 -27 -15 -50t-39 -35l-69 -31q-129 -54 -262 -54h-201q-37 0 -61 24zM109.5 408.5q1.5 -3.5 9.5 -4.5t22 -1h252v-59h-78q-15 0 -21 -5.5t-6 -18.5t6 -18.5t21 -5.5h112v-59h-83q-32 0 -32 -23q0 -12 6.5 -17.5t20.5 -5.5h136v-58h-109
q-15 0 -21 -5.5t-6 -19.5q0 -12 6 -17.5t21 -5.5h13v1h188q123 0 239 49l67 30q13 6 16.5 12t3.5 20v238q0 13 -3.5 16t-16.5 3h-103q-52 0 -100.5 20t-84.5 57l-101 100q-14 14 -22 14q-5 0 -10.5 -4t-12.5 -10q-13 -15 -13 -23q0 -7 13 -22l144 -141h-442q-23 0 -28 -3
t-5 -19q0 -11 1.5 -14.5z" />
    <glyph glyph-name="uni261D" unicode="&#x261d;" horiz-adv-x="1000" 
d="M461 470v252q0 17 -1 23.5t-5 8t-15 1.5t-15 -1.5t-5 -8t-1 -23.5v-442l-141 144q-12 13 -22 13t-23 -13q-14 -16 -14 -24q0 -7 13 -22l100 -100q37 -36 57.5 -84t20.5 -101v-103q0 -14 2.5 -17t16.5 -3h238q13 0 19 4t12 16l30 67q50 120 50 239v188h1v13q0 15 -5.5 21
t-17.5 6q-14 0 -19.5 -6t-5.5 -21v-109h-58v136q0 14 -5.5 20.5t-17.5 6.5t-17.5 -7.5t-5.5 -24.5v-83h-59v112q0 15 -5.5 21t-18.5 6q-14 0 -19 -5.5t-5 -21.5v-78h-59zM165 401q0 36 26 64q26 26 65 26t64 -26l40 -41v298q0 39 21.5 65.5t58.5 26.5t58.5 -26.5t21.5 -65.5
v-93q11 4 24 4q20 0 37.5 -9.5t29.5 -25.5q17 11 39 11q20 0 38 -10t29 -27q18 10 39 10q33 0 57 -24t24 -61v-201q0 -131 -55 -262l-31 -69q-11 -24 -34 -39t-50 -15h-238q-32 0 -55 23.5t-23 55.5v103q0 41 -15.5 78t-44.5 66l-100 100q-26 28 -26 64z" />
    <glyph glyph-name="uni261E" unicode="&#x261e;" horiz-adv-x="1000" 
d="M608 403h252q14 0 22 1t9.5 4.5t1.5 14.5q0 16 -5 19t-28 3h-442l144 141q13 13 13 22q0 10 -13 23q-14 14 -23 14q-8 0 -22 -14l-101 -100q-36 -37 -84.5 -57t-100.5 -20h-103q-13 0 -16.5 -3t-3.5 -16v-238q0 -14 3.5 -20t16.5 -12l67 -30q116 -49 239 -49h188v-1h13
q15 0 21 5.5t6 17.5q0 14 -6 19.5t-21 5.5h-109v58h136q14 0 20.5 5.5t6.5 17.5q0 23 -32 23h-83v59h112q15 0 21 5.5t6 18.5t-6 18.5t-21 5.5h-78v59zM49 435q0 31 23.5 54.5t55.5 23.5h103q41 0 78 15t66 44l100 100q27 27 64 27t64 -27q26 -25 26 -64t-26 -64l-41 -40
h298q39 0 65.5 -22t26.5 -59q0 -36 -26 -57.5t-66 -21.5h-93q4 -11 4 -24q0 -20 -9.5 -38t-25.5 -29q11 -19 11 -39t-10 -38t-27 -29q10 -18 10 -39q0 -33 -24 -57t-61 -24h-201q-133 0 -262 54l-69 31q-24 12 -39 35t-15 50v238z" />
    <glyph glyph-name="uni261F" unicode="&#x261f;" horiz-adv-x="1000" 
d="M813 167q-24 -24 -57 -24q-21 0 -39 10q-11 -17 -29 -27t-38 -10q-22 0 -39 11q-12 -16 -29.5 -25.5t-37.5 -9.5q-13 0 -24 4v-93q0 -39 -21.5 -65.5t-58.5 -26.5t-58.5 26.5t-21.5 65.5v298l-40 -41q-13 -13 -29.5 -19.5t-34.5 -6.5q-37 0 -65 26q-26 28 -26 64
q0 38 26 64l100 100q29 29 44.5 66t15.5 78v103q0 32 23 55.5t55 23.5h238q27 0 50 -15t34 -39l31 -69q55 -131 55 -262v-201q0 -37 -24 -61zM219 325q0 -8 14 -24q15 -13 23 -13q9 0 22 13l141 144v-442q0 -17 1 -23.5t5 -8t15 -1.5t15 1.5t5 8t1 23.5v252h59v-78
q0 -16 5 -21.5t19 -5.5q13 0 18.5 6t5.5 21v112h59v-83q0 -17 5.5 -24.5t17.5 -7.5t17.5 6.5t5.5 20.5v136h58v-109q0 -15 5.5 -21t19.5 -6q12 0 17.5 6t5.5 21v45h-1v156q0 119 -50 239l-30 67q-6 12 -12 16t-19 4h-238q-14 0 -16.5 -3t-2.5 -17v-103q0 -53 -20.5 -101
t-57.5 -84l-100 -100q-13 -15 -13 -22z" />
    <glyph glyph-name="spade" unicode="&#x2660;" horiz-adv-x="1000" 
d="M850 399q7 -29 7 -62q0 -34 -6 -66q-16 -70 -67.5 -117t-124.5 -47t-124 58l12 -202h-91l13 204q-53 -60 -127 -60q-73 0 -124 47t-68 117q-6 32 -6 64q0 33 7 64q24 77 81 141q42 51 91 96t115 98l23 19l40 33q19 -18 50 -44.5t49 -42.5q128 -109 169 -159
q62 -69 81 -141z" />
    <glyph glyph-name="uni2661" unicode="&#x2661;" horiz-adv-x="1000" 
d="M808 368.5q18 31.5 27 64.5q8 30 8 54q0 21 -7 58q-14 61 -52 94.5t-101 33.5q-38 0 -62 -14t-47 -47q-14 -24 -68 -135q-57 93 -81 135q-22 33 -46.5 47t-61.5 14q-123 0 -154 -129q-6 -28 -6 -55q0 -28 7 -56q10 -35 27.5 -66t49.5 -66q51 -57 107.5 -106t149.5 -123
l1 -1l71 60q78 66 120 103t68 67q32 36 50 67.5zM173 690q60 53 144 53q52 0 94.5 -25.5t71.5 -67.5l17 -28q6 12 16 28q29 42 71.5 67.5t95.5 25.5q56 0 102.5 -25t77 -67t41.5 -92q8 -37 8 -72q0 -36 -10 -72q-22 -82 -91 -160q-28 -32 -72.5 -71.5t-119.5 -102.5
q-60 -49 -119 -101l-46 38q-93 74 -152.5 125t-112.5 112q-67 75 -92 160q-9 39 -9 74q0 30 7 70q18 78 78 131z" />
    <glyph glyph-name="club" unicode="&#x2663;" horiz-adv-x="1000" 
d="M585 714q39 -23 61.5 -62t22.5 -85q0 -36 -14 -68.5t-39 -54.5q2 -6 2 -8q30 13 68 13q46 0 84.5 -22.5t61 -61.5t22.5 -84q0 -46 -22.5 -84t-61 -60.5t-84.5 -22.5t-86.5 22t-62.5 58h-7l15 -241h-91l15 241h-6q-22 -37 -62 -58.5t-86 -21.5t-84.5 22.5t-61 60.5
t-22.5 84q0 45 22.5 84t61 61.5t84.5 22.5q38 0 67 -13l3 8q-26 22 -40 54t-14 69q0 46 23 85t61.5 62t84.5 23t85 -23z" />
    <glyph glyph-name="heart" unicode="&#x2665;" horiz-adv-x="1000" 
d="M736 183q-46 -40 -121 -103q-108 -92 -115 -98l-46 37l-17 13q-89 73 -142.5 120t-104.5 104q-67 75 -92 158q-8 35 -8 74q0 37 6 70q19 78 78.5 130.5t142.5 52.5q53 0 95 -25t71 -67l17 -28q6 12 16 28q29 42 71 67t95 25q84 0 143.5 -52.5t77.5 -130.5q7 -40 7 -71
q0 -35 -9 -73q-22 -80 -92 -158q-27 -33 -73 -73z" />
    <glyph glyph-name="uni2669" unicode="&#x2669;" horiz-adv-x="540" 
d="M323 76.5q23 20.5 23 47.5q0 30 -23.5 49t-59.5 14q-32 -3 -51.5 -25.5t-17.5 -47.5q4 -24 23.5 -41t47.5 -17q35 0 58 20.5zM104 122q0 43 23 78t62 55t84 20q37 0 75 -20v496h88v-617q0 -45 -22.5 -83.5t-61 -60.5t-86.5 -22q-62 0 -109 38t-52 98q-1 6 -1 18z" />
    <glyph glyph-name="musicalnote" unicode="&#x266a;" horiz-adv-x="723" 
d="M472 661q42 -93 97 -119q43 -19 70 -49.5t41 -64.5q11 -25 13 -49q2 -14 2 -15v-7h-35h-50l-2 12q-2 17 -9 34q-20 46 -74 71q-33 16 -51 35.5t-34 50.5v-422v-25q-4 -40 -28 -73t-61 -52.5t-80 -19.5q-44 0 -82 19.5t-61.5 54t-23.5 78.5q0 43 24 79t63.5 57t84.5 21
q43 0 75 -19v494h88l4 -10l5 -18q12 -37 24 -63zM216.5 75.5q21.5 -19.5 52.5 -19.5q33 0 55 18.5t25 44.5v13q-4 24 -24 41t-48 17q-36 0 -59 -21.5t-23 -48.5q0 -25 21.5 -44.5zM440 113v-1v1z" />
    <glyph glyph-name="uni266C" unicode="&#x266c;" horiz-adv-x="932" 
d="M663 421q-46 0 -85.5 -20.5t-63 -56t-23.5 -78.5q0 -44 22.5 -79t60.5 -54.5t81 -19.5q44 0 83 21t62.5 56.5t24.5 78.5v558h-69l-440 -132l-3 -440q-35 20 -73 20q-45 0 -84.5 -20.5t-63 -56.5t-23.5 -78q0 -44 22 -78.5t59 -54t80 -19.5q46 0 85.5 20.5t63.5 56
t24 78.5v504l333 101v-327q-30 20 -73 20zM182 167q22 21 57 21q31 0 52 -19t21 -44q0 -27 -22 -48.5t-57 -21.5q-31 0 -52 19.5t-21 45.5t22 47zM603 312.5q22 21.5 58 21.5q29 0 49.5 -17t22.5 -41q3 -28 -19 -51.5t-59 -23.5q-31 0 -52.5 19t-21.5 44q0 27 22 48.5z" />
    <glyph glyph-name="uni26A0" unicode="&#x26a0;" horiz-adv-x="1084" 
d="M150 578q61 104 165 165t227 61t227 -61t165 -165t61 -227q0 -122 -61 -226t-165 -165t-227 -61t-227 61t-165 165t-61 226q0 123 61 227zM230.5 171.5q48.5 -82.5 131.5 -131.5t180 -49t180 49t131.5 131.5t48.5 179.5t-48.5 180t-131.5 131.5t-180 48.5t-180 -48.5
t-131.5 -131.5t-48.5 -180t48.5 -179.5zM599 625l-13 -383h-88l-12 383h113zM493 173h100v-97h-100v97z" />
    <glyph glyph-name="uni2713" unicode="&#x2713;" horiz-adv-x="904" 
d="M329 9l-287 352l79 63l206 -247l414 544l82 -63z" />
    <glyph glyph-name="uni3008" unicode="&#x3008;" horiz-adv-x="536" 
d="M215 359l248 -414h-107l-250 414l254 413h108z" />
    <glyph glyph-name="uni3009" unicode="&#x3009;" horiz-adv-x="536" 
d="M176 772l254 -413l-250 -414h-107l248 414l-253 413h108z" />
    <glyph glyph-name="uni300A" unicode="&#x300a;" horiz-adv-x="645" 
d="M203 356l185 -414h-95l-185 414l188 414h94zM480 770h95l-187 -414l184 -414h-95l-184 414z" />
    <glyph glyph-name="uni300B" unicode="&#x300b;" horiz-adv-x="645" 
d="M350 770l187 -414l-184 -414h-96l185 414l-187 414h95zM165 770l187 -414l-184 -414h-95l185 414l-188 414h95z" />
    <glyph glyph-name="uni300C" unicode="&#x300c;" horiz-adv-x="401" 
d="M335 682h-143v-215h-88v304h231v-89z" />
    <glyph glyph-name="uni300D" unicode="&#x300d;" horiz-adv-x="401" 
d="M66 30h143v216h88v-305h-231v89z" />
    <glyph glyph-name="uni300E" unicode="&#x300e;" horiz-adv-x="402" 
d="M336 663h-126v-208h-106v312h232v-104zM170 491v211h130v26h-156v-237h26z" />
    <glyph glyph-name="uni300F" unicode="&#x300f;" horiz-adv-x="402" 
d="M66 42h125v207h107v-312h-232v105zM258 -23v236h-26v-211h-130v-25h156z" />
    <glyph glyph-name="uni3010" unicode="&#x3010;" horiz-adv-x="338" 
d="M189 358q0 -221 85 -414h-172v828h172q-85 -193 -85 -414z" />
    <glyph glyph-name="uni3011" unicode="&#x3011;" horiz-adv-x="338" 
d="M236 772v-828h-172q85 196 85 414t-85 414h172z" />
    <glyph glyph-name="uni3014" unicode="&#x3014;" horiz-adv-x="398" 
d="M195 631v-557l138 -55l-35 -88l-195 77v688l195 77l35 -88z" />
    <glyph glyph-name="uni3015" unicode="&#x3015;" horiz-adv-x="398" 
d="M100 773l195 -77v-688l-195 -77l-35 88l137 55v557l-137 54z" />
    <glyph glyph-name="uni3131" unicode="&#x3131;" 
d="M716 602v-472h-106v385h-452v87h558z" />
    <glyph glyph-name="uni3132" unicode="&#x3132;" 
d="M426 602v-472h-106v385h-213v87h319zM472 603h308v-472h-107v385h-201v87z" />
    <glyph glyph-name="uni3133" unicode="&#x3133;" 
d="M399 600v-398q79 32 116.5 97.5t37.5 147.5v162h103v-162q0 -83 39 -149.5t120 -97.5l-57 -78q-108 44 -154 155q-46 -111 -153 -155l-52 71v-63h-106v383h-187v87h293z" />
    <glyph glyph-name="uni3134" unicode="&#x3134;" 
d="M269 602v-374h460v-87h-569v461h109z" />
    <glyph glyph-name="uni3135" unicode="&#x3135;" 
d="M231 605v-398q93 2 161 21l3 -24q69 38 101 108t32 157v45h-125v87h352v-87h-125v-45q0 -93 37.5 -167t119.5 -109l-60 -79q-104 48 -149 166q-42 -117 -144 -165l-33 43l2 -16q-53 -14 -104.5 -18.5t-129.5 -4.5h-47v486h109z" />
    <glyph glyph-name="uni3136" unicode="&#x3136;" 
d="M228 590v-377q98 3 165 22l11 -87q-53 -14 -105.5 -18t-129.5 -4h-47v464h106zM392 535h137v81h104v-81h127v-87h-368v87zM441.5 344q20.5 36 56 56.5t79.5 20.5t80 -20.5t56.5 -56.5t20.5 -81q0 -46 -20.5 -82t-56.5 -56t-80 -20t-79.5 20t-56 56t-20.5 82q0 45 20.5 81
zM530.5 207.5q18.5 -20.5 46.5 -20.5q30 0 48 20.5t18 55.5q0 34 -18 54t-48 20q-28 0 -46.5 -20t-18.5 -54q0 -35 18.5 -55.5z" />
    <glyph glyph-name="uni3137" unicode="&#x3137;" 
d="M712 605v-86h-441v-302h449v-86h-557v474h549z" />
    <glyph glyph-name="uni3138" unicode="&#x3138;" 
d="M416 605v-86h-181v-290q54 2 96.5 6.5t86.5 14.5l11 -90q-59 -12 -114.5 -16t-136.5 -4h-49v465h287zM462 605h285v-86h-178v-293h181v-87h-288v466z" />
    <glyph glyph-name="uni3139" unicode="&#x3139;" 
d="M715 615v-283h-458v-116h472v-89h-575v290h458v113h-459v85h562z" />
    <glyph glyph-name="uni313A" unicode="&#x313a;" 
d="M420 609v-280h-194v-114q137 3 237 23l10 -86q-70 -14 -136.5 -18.5t-160.5 -4.5h-56v286h192v108h-194v86h302zM450 609h305v-477h-107v391h-198v86z" />
    <glyph glyph-name="uni313B" unicode="&#x313b;" 
d="M414 609v-280h-190v-113q114 2 205 19l9 -85q-65 -13 -124.5 -17t-144.5 -4h-52v286h190v107h-192v87h299zM458 610h314v-479h-314v479zM676 217v306h-122v-306h122z" />
    <glyph glyph-name="uni313C" unicode="&#x313c;" 
d="M414 609v-280h-190v-114q113 2 205 21l11 -85q-64 -14 -123.5 -18t-147.5 -4h-52v286h190v107h-192v87h299zM455 610h101v-150h115v150h101v-481h-317v481zM671 216v156h-115v-156h115z" />
    <glyph glyph-name="uni313D" unicode="&#x313d;" 
d="M411 609v-280h-191v-113q60 1 108.5 6t98.5 18l3 -26q66 35 97.5 98t31.5 140v161h104v-161q0 -84 36.5 -150.5t115.5 -98.5l-58 -77q-103 44 -146 152q-43 -107 -147 -152l-28 38l1 -11q-62 -15 -122.5 -19.5t-148.5 -4.5h-52v286h191v107h-192v87h298z" />
    <glyph glyph-name="uni313E" unicode="&#x313e;" 
d="M414 609v-280h-190v-112q113 2 207 23l10 -85q-63 -15 -122 -19.5t-149 -4.5h-52v284h190v107h-193v87h299zM464 609h301v-87h-195v-107h184v-87h-184v-112h202v-86h-308v479z" />
    <glyph glyph-name="uni313F" unicode="&#x313f;" 
d="M405 609v-280h-180v-113q61 2 107 7t92 17l11 -88q-61 -14 -121 -18.5t-145 -4.5h-52v286h181v107h-182v87h289zM443 216h46v306h-45v86h340v-86h-46v-306h50v-87h-345v87zM645 216v306h-61v-306h61z" />
    <glyph glyph-name="uni3140" unicode="&#x3140;" 
d="M395 609v-274h-165v-119q57 2 102 6.5t91 14.5l10 -86q-61 -13 -119.5 -17.5t-139.5 -4.5h-52v288h166v110h-167v82h274zM432 548h130v86h106v-86h121v-87h-357v87zM474.5 357.5q20.5 35.5 56.5 55.5t80 20t79.5 -20t56 -55.5t20.5 -80.5t-20.5 -81t-56 -56t-79.5 -20
t-80 20t-56.5 56t-20.5 81t20.5 80.5zM563 223.5q18 -19.5 48 -19.5q29 0 47.5 19.5t18.5 53.5q0 33 -18.5 52.5t-47.5 19.5q-30 0 -48 -19.5t-18 -52.5q0 -34 18 -53.5z" />
    <glyph glyph-name="uni3141" unicode="&#x3141;" 
d="M720 602v-467h-560v467h560zM613 221v294h-346v-294h346z" />
    <glyph glyph-name="uni3142" unicode="&#x3142;" 
d="M268 615v-149h343v149h107v-486h-557v486h107zM611 223v148h-343v-148h343z" />
    <glyph glyph-name="uni3143" unicode="&#x3143;" 
d="M231 608v-149h98v149h100v-479h-298v479h100zM329 218v154h-98v-154h98zM461 608h99v-148h99v148h99v-478h-297v478zM659 218v154h-99v-154h99z" />
    <glyph glyph-name="uni3144" unicode="&#x3144;" 
d="M669 609v-162q0 -82 39 -149t119 -98l-55 -78q-108 44 -154 155q-48 -112 -154 -155l-36 49v-42h-298v479h100v-149h98v149h100v-399q71 34 104.5 97t33.5 141v162h103zM328 218v154h-98v-154h98z" />
    <glyph glyph-name="uni3145" unicode="&#x3145;" 
d="M494 620v-136q0 -104 69.5 -179t195.5 -102l-52 -88q-94 24 -162 74t-105 123q-37 -73 -105 -123t-163 -74l-52 88q127 27 196.5 102t69.5 179v136h108z" />
    <glyph glyph-name="uni3146" unicode="&#x3146;" 
d="M339 595v-87q0 -70 26.5 -139t81.5 -117q55 47 81.5 115.5t26.5 140.5v87h109v-85q0 -93 38.5 -169t122.5 -113l-59 -78q-113 51 -159 184q-48 -143 -161 -197q-59 29 -99 81t-61 118q-45 -132 -157 -187l-61 78q84 39 123.5 116.5t39.5 166.5v85h108z" />
    <glyph glyph-name="uni3147" unicode="&#x3147;" 
d="M579 586q64 -32 101.5 -88.5t37.5 -127.5t-37.5 -128t-101.5 -89t-142 -32q-77 0 -141 32t-101.5 89t-37.5 128t37.5 127.5t101.5 88.5t141 32q78 0 142 -32zM283.5 288q23.5 -36 64 -56t89.5 -20q50 0 90.5 20t63.5 56t23 82t-23 81.5t-63.5 55t-90.5 19.5
q-49 0 -89.5 -19.5t-64 -55.5t-23.5 -81q0 -46 23.5 -82z" />
    <glyph glyph-name="uni3148" unicode="&#x3148;" 
d="M723 614v-86h-228v-39q0 -103 66 -179.5t187 -106.5l-51 -83q-92 25 -157 78t-98 128q-34 -75 -99 -128t-157 -78l-51 83q121 30 187 106t66 180v39h-225v86h560z" />
    <glyph glyph-name="uni3149" unicode="&#x3149;" 
d="M427 618v-86h-97v-11q0 -106 26.5 -178t90.5 -110q63 38 90 110t27 178v11h-99v86h324v-86h-119v-11q0 -103 38.5 -185t124.5 -122l-64 -86q-100 49 -147 163q-47 -127 -175 -175h-1q-67 26 -109.5 70t-65.5 107q-49 -116 -150 -165l-63 86q87 39 126 121.5t39 185.5v11
h-120v86h324z" />
    <glyph glyph-name="uni314A" unicode="&#x314a;" 
d="M385 536v131h107v-131h228v-89h-218v-15q0 -91 63 -156t183 -88l-49 -84q-96 22 -163 70.5t-98 120.5q-32 -72 -98.5 -120.5t-162.5 -70.5l-50 84q120 23 183 88t63 156v15h-216v89h228z" />
    <glyph glyph-name="uni314B" unicode="&#x314b;" 
d="M724 616v-494h-109v195l-453 -31l-13 95l466 20v128h-443v87h552z" />
    <glyph glyph-name="uni314C" unicode="&#x314c;" 
d="M717 607v-86h-449v-105h443v-87h-443v-113h458v-87h-567v478h558z" />
    <glyph glyph-name="uni314D" unicode="&#x314d;" 
d="M729 607v-87h-99v-310h112v-87h-603v87h113v310h-100v87h577zM523 210v310h-164v-310h164z" />
    <glyph glyph-name="uni314E" unicode="&#x314e;" 
d="M388 562v113h108v-113h238v-89h-588v89h242zM243.5 339q29.5 39 81.5 60.5t117 21.5q64 0 115.5 -21.5t81 -60.5t29.5 -88t-29.5 -87t-81 -59.5t-115.5 -21.5q-65 0 -117 21.5t-81.5 59.5t-29.5 87t29.5 88zM358 194q33 -21 84 -21t83 21t32 57t-32.5 57.5t-82.5 21.5
q-51 0 -84 -21.5t-33 -57.5t33 -57z" />
    <glyph glyph-name="uni314F" unicode="&#x314f;" 
d="M462 798v-345h191v-90h-191v-443h-108v878h108z" />
    <glyph glyph-name="uni3150" unicode="&#x3150;" 
d="M612 801v-878h-103v448h-130v-415h-102v830h102v-326h130v341h103z" />
    <glyph glyph-name="uni3151" unicode="&#x3151;" 
d="M438 799v-237h188v-89h-188v-158h188v-89h-188v-304h-108v877h108z" />
    <glyph glyph-name="uni3152" unicode="&#x3152;" 
d="M608 798v-878h-104v320h-125v-287h-102v833h102v-208h125v220h104zM504 328v160h-125v-160h125z" />
    <glyph glyph-name="uni3153" unicode="&#x3153;" 
d="M580 799v-877h-109v449h-195v90h195v338h109z" />
    <glyph glyph-name="uni3154" unicode="&#x3154;" 
d="M643 799v-878h-103v878h103zM213 460h143v324h101v-833h-101v420h-143v89z" />
    <glyph glyph-name="uni3155" unicode="&#x3155;" 
d="M582 798v-878h-108v320h-198v89h198v155h-198v91h198v223h108z" />
    <glyph glyph-name="uni3156" unicode="&#x3156;" 
d="M357 572v211h101v-833h-101v294h-151v89h151v150h-149v89h149zM536 798h103v-878h-103v878z" />
    <glyph glyph-name="uni3157" unicode="&#x3157;" 
d="M382 268v353h107v-353h349v-87h-803v87h347z" />
    <glyph glyph-name="uni3158" unicode="&#x3158;" 
d="M363 525v-298q106 4 212 17l10 -78q-210 -35 -538 -35l-12 89q103 0 223 3v302h105zM618 797h108v-347h122v-90h-122v-440h-108v877z" />
    <glyph glyph-name="uni3159" unicode="&#x3159;" 
d="M324 527v-277q98 5 162 13l8 -79q-160 -29 -440 -29l-11 88q81 0 181 3v281h100zM525 787h101v-340h79v352h103v-877h-103v436h-79v-404h-101v833z" />
    <glyph glyph-name="uni315A" unicode="&#x315a;" 
d="M411 519v-273q133 7 212 18l8 -79q-122 -21 -256 -27.5t-286 -6.5l-13 89q146 0 228 2v277h107zM671 801h109v-878h-109v878z" />
    <glyph glyph-name="uni315B" unicode="&#x315b;" 
d="M231 244v372h106v-372h207v372h106v-372h192v-88h-803v88h192z" />
    <glyph glyph-name="uni315C" unicode="&#x315c;" 
d="M841 514v-88h-348v-370h-107v370h-347v88h802z" />
    <glyph glyph-name="uni315D" unicode="&#x315d;" 
d="M805 800v-878h-108v246h-194v84h194v548h108zM373.5 426q132.5 5 258.5 20l6 -79q-116 -17 -251 -25v-353h-109v347q-100 -4 -212 -4l-13 87q188 2 320.5 7z" />
    <glyph glyph-name="uni315E" unicode="&#x315e;" 
d="M820 801v-878h-104v878h104zM282.5 418q124.5 5 217.5 17l8 -74q-66 -11 -176 -20v-355h-104v348q-105 -5 -171 -5l-11 84q112 0 236.5 5zM400 255h144v527h101v-832h-101v220h-144v85z" />
    <glyph glyph-name="uni315F" unicode="&#x315f;" 
d="M799 797v-877h-108v877h108zM646 429l7 -78q-99 -15 -235 -24v-339h-108v333q-107 -4 -226 -4l-14 88q361 0 576 24z" />
    <glyph glyph-name="uni3160" unicode="&#x3160;" 
d="M838 516v-87h-201v-373h-109v373h-189v-373h-107v373h-197v87h803z" />
    <glyph glyph-name="uni3161" unicode="&#x3161;" 
d="M838 424v-89h-803v89h803z" />
    <glyph glyph-name="uni3162" unicode="&#x3162;" 
d="M788 794v-878h-108v878h108zM364.5 282.5q139.5 4.5 263.5 19.5l6 -79q-128 -19 -265.5 -25.5t-296.5 -6.5l-13 87q166 0 305.5 4.5z" />
    <glyph glyph-name="uni3163" unicode="&#x3163;" 
d="M495 800v-878h-108v878h108z" />
    <glyph glyph-name="uni321C" unicode="&#x321c;" horiz-adv-x="1326" 
d="M113.5 135q-31.5 105 -31.5 216t31.5 216t91.5 198h110q-67 -92 -103 -197t-36 -217t36 -217t103 -197h-110q-60 93 -91.5 198zM300 311h722v-84h-318v-306h-92v306h-312v84zM473.5 499q60.5 33 96 79.5t38.5 97.5h-243v82h589v-82h-240q3 -51 38 -97.5t95.5 -79.5
t136.5 -44l-35 -82q-100 17 -176 67.5t-112 123.5q-36 -73 -112 -123.5t-175 -67.5l-36 82q75 11 135.5 44zM1114.5 133q35.5 105 35.5 218t-35.5 218t-102.5 196h110q59 -93 90.5 -197.5t31.5 -216.5t-31.5 -216.5t-90.5 -197.5h-110q67 91 102.5 196z" />
    <glyph glyph-name="uni327C" unicode="&#x327c;" horiz-adv-x="1084" 
d="M150 568q61 104 165 165t227 61t227 -61t165 -165t61 -227q0 -122 -61 -226t-165 -165t-227 -61t-227 61t-165 165t-61 226q0 123 61 227zM230.5 161.5q48.5 -82.5 131.5 -131.5t180 -49t180 49t131.5 131.5t48.5 179.5t-48.5 180t-131.5 131.5t-180 48.5t-180 -48.5
t-131.5 -131.5t-48.5 -180t48.5 -179.5zM538 634q44 0 87 -22.5t70.5 -62.5t27.5 -92q0 -50 -29 -90t-68 -73q-22 -17 -29.5 -25.5t-10.5 -21.5t-3 -40h-96q0 49 11.5 80t24.5 44.5t41 36.5q29 25 46 46t17 43q0 39 -25.5 60t-63.5 21q-30 0 -48.5 -11.5t-38.5 -34.5l-72 62
q67 80 159 80zM484 163h101v-97h-101v97z" />
    <glyph glyph-name="uniAC00" unicode="&#xac00;" 
d="M725 810v-349h132v-90h-132v-451h-108v890h108zM279.5 360.5q87.5 115.5 103.5 267.5h-307v88h415q0 -437 -400 -636l-59 82q160 83 247.5 198.5z" />
    <glyph glyph-name="uniAC01" unicode="&#xac01;" 
d="M730 810v-215h123v-90h-123v-215h-108v520h108zM267.5 494q87.5 76 101.5 175h-300v87h415q0 -172 -108 -291t-305 -171l-44 84q153 40 240.5 116zM143 252h587v-334h-108v247h-479v87z" />
    <glyph glyph-name="uniAC04" unicode="&#xac04;" 
d="M730 808v-256h123v-89h-123v-296h-109v641h109zM270.5 469.5q88.5 80.5 102.5 184.5h-305v88h422q0 -176 -108 -300t-306 -183l-45 86q151 44 239.5 124.5zM163 232h109v-208h492v-88h-601v296z" />
    <glyph glyph-name="uniAC07" unicode="&#xac07;" 
d="M730 809v-206h123v-88h-123v-206h-108v500h108zM269 493q87 76 100 176h-300v86h416q0 -172 -108 -291t-306 -173l-42 86q153 40 240 116zM161 265h574v-87h-467v-161h484v-87h-591v335z" />
    <glyph glyph-name="uniAC08" unicode="&#xac08;" 
d="M730 809v-186h123v-88h-123v-173h-108v447h108zM272.5 526q85.5 68 96.5 158h-295v87h415q0 -171 -108 -280.5t-309 -152.5l-39 89q154 31 239.5 99zM152 324h578v-235h-470v-75h497v-86h-603v242h469v69h-471v85z" />
    <glyph glyph-name="uniAC09" unicode="&#xac09;" 
d="M730 809v-192h123v-88h-123v-190h-108v470h108zM274.5 519.5q84.5 68.5 94.5 161.5h-294v87h415q0 -173 -107 -283t-311 -156l-39 88q157 34 241.5 102.5zM118 299h294v-220h-188v-70q96 1 146.5 4.5t98.5 14.5l10 -80q-56 -13 -115 -16.5t-188 -3.5h-57v227h189v64h-190
v80zM448 299h282v-375h-107v290h-175v85z" />
    <glyph glyph-name="uniAC0A" unicode="&#xac0a;" 
d="M391 301v-217h-181v-70q68 1 110 4t87 11l8 -82q-56 -10 -110 -13t-150 -3h-50v229h182v60h-184v81h288zM273.5 522.5q84.5 67.5 95.5 158.5h-295v87h416q0 -172 -108 -281t-311 -151l-38 88q156 31 240.5 98.5zM440 301h290v-372h-290v372zM635 9v213h-102v-213h102z
M622 809h108v-191h123v-89h-123v-187h-108v467z" />
    <glyph glyph-name="uniAC0B" unicode="&#xac0b;" 
d="M730 809v-189h123v-88h-123v-194h-108v471h108zM274 528q85 68 95 158h-295v87h416q0 -172 -108 -281t-311 -152l-38 89q156 31 241 99zM105 295h285v-214h-179v-72q65 1 108 4t88 12l7 -79q-54 -10 -106 -13t-153 -3h-49v222h180v62h-181v81zM436 304h97v-101h99v101h98
v-374h-294v374zM632 14v108h-99v-108h99z" />
    <glyph glyph-name="uniAC10" unicode="&#xac10;" 
d="M730 809v-204h123v-88h-123v-208h-108v500h108zM268.5 494.5q87.5 75.5 100.5 174.5h-300v86h416q0 -172 -108 -290.5t-306 -171.5l-42 86q152 40 239.5 115.5zM160 271h570v-341h-570v341zM623 16v169h-356v-169h356z" />
    <glyph glyph-name="uniAC11" unicode="&#xac11;" 
d="M730 809v-200h123v-88h-123v-193h-109v481h109zM270.5 508q84.5 70 96.5 164h-291v87h411q0 -171 -107 -283t-308 -160l-40 88q154 34 238.5 104zM157 290h108v-96h357v96h108v-360h-573v360zM622 17v92h-357v-92h357z" />
    <glyph glyph-name="uniAC12" unicode="&#xac12;" 
d="M730 810v-195h123v-88h-123v-201h-108v484h108zM270.5 509q84.5 70 96.5 164h-294v87h413q0 -172 -106 -284t-308 -160l-40 88q154 35 238.5 105zM125 280h100v-93h114v93h100v-273q70 34 106 92t36 122v69h102v-68q0 -68 37 -127.5t110 -90.5l-56 -82q-99 42 -143 144
q-45 -102 -142 -144l-50 72v-62h-314v348zM339 15v92h-114v-92h114z" />
    <glyph glyph-name="uniAC13" unicode="&#xac13;" 
d="M382.5 442q-108.5 -124 -307.5 -182l-45 87q153 43 241.5 123.5t101.5 184.5h-297v88h415q0 -177 -108.5 -301zM265 59q65 36 100 86.5t35 107.5v31h106v-31q0 -56 35 -106.5t100 -86.5t150 -50l-42 -86q-102 19 -178.5 66.5t-117.5 117.5q-40 -70 -116.5 -118.5
t-179.5 -67.5l-43 87q86 14 151 50zM636 810h107v-237h110v-89h-110v-263h-107v589z" />
    <glyph glyph-name="uniAC14" unicode="&#xac14;" 
d="M730 810v-208h123v-89h-123v-200h-108v497h108zM268.5 494q87.5 76 100.5 175h-297v87h415q0 -173 -108 -292.5t-308 -172.5l-42 87q152 40 239.5 116zM189 97.5q44 61.5 44 130.5v50h105v-50q0 -60 27 -114t82 -90q55 38 83 94t28 110v50h107v-50q0 -74 42.5 -134
t126.5 -88l-54 -78q-61 22 -104 63t-66 96q-22 -57 -62.5 -100.5t-99.5 -67.5q-118 46 -163 166q-24 -54 -66 -94t-102 -63l-54 78q82 30 126 91.5z" />
    <glyph glyph-name="uniAC15" unicode="&#xac15;" 
d="M730 810v-218h123v-90h-123v-215h-108v523h108zM268 480.5q88 78.5 102 179.5h-299v88h416q0 -174 -107.5 -296.5t-304.5 -178.5l-44 87q149 42 237 120.5zM186.5 192q36.5 40 103.5 62t155 22t155 -22t103.5 -62t36.5 -94t-36.5 -94.5t-103.5 -62.5t-155 -22t-155 22
t-103.5 62.5t-36.5 94.5t36.5 94zM306.5 29.5q50.5 -24.5 138.5 -24.5t138.5 24.5t50.5 68.5q0 45 -50 69t-139 24q-88 0 -138.5 -24.5t-50.5 -68.5t50.5 -68.5z" />
    <glyph glyph-name="uniAC16" unicode="&#xac16;" 
d="M730 810v-213h123v-90h-123v-197h-108v500h108zM271 500.5q85 72.5 97 168.5h-296v87h415q0 -172 -107 -287t-309 -166l-39 88q154 37 239 109.5zM256 42q60 27 94.5 64.5t39.5 78.5h-238v85h590v-85h-236q6 -40 40.5 -78t94.5 -65.5t138 -38.5l-40 -83
q-101 15 -176.5 58t-114.5 104q-38 -61 -113.5 -103t-177.5 -58l-40 83q79 11 139 38z" />
    <glyph glyph-name="uniAC17" unicode="&#xac17;" 
d="M381 473q-107 -111 -309 -156l-39 88q156 33 241 102t96 161h-296v87h414q0 -171 -107 -282zM254 37q61 25 95.5 60.5t40.5 75.5h-246v85h247v96h109v-96h245v-85h-243q6 -40 40.5 -75.5t95 -60.5t140.5 -35l-39 -81q-101 14 -177.5 53.5t-115.5 96.5q-39 -58 -115 -97
t-178 -53l-40 81q80 10 141 35zM622 810h108v-197h123v-88h-123v-203h-108v488z" />
    <glyph glyph-name="uniAC19" unicode="&#xac19;" 
d="M729 809v-192h124v-90h-124v-187h-107v469h107zM276.5 505.5q84.5 66.5 93.5 155.5h-296v88h417q0 -171 -106 -278t-308 -148l-43 87q158 29 242.5 95.5zM156 302h578v-80h-469v-65h459v-78h-459v-69h487v-80h-596v372z" />
    <glyph glyph-name="uniAC1A" unicode="&#xac1a;" 
d="M730 809v-198h123v-89h-123v-200h-108v487h108zM270 504.5q88 71.5 99 163.5h-292v86h413q0 -170 -110 -283.5t-308 -160.5l-41 89q151 34 239 105.5zM147 18h121v178h-114v86h595v-86h-113v-178h123v-86h-612v86zM530 18v178h-155v-178h155z" />
    <glyph glyph-name="uniAC1B" unicode="&#xac1b;" 
d="M730 810v-187h123v-89h-123v-189h-108v465h108zM275 513.5q82 67.5 93 162.5h-299v86h418q0 -345 -416 -436l-38 87q160 33 242 100.5zM136 291h258v92h107v-92h257v-83h-622v83zM262.5 141.5q66.5 33.5 184.5 33.5t184 -33.5t66 -93.5q0 -61 -66 -95t-184 -34t-184.5 34
t-66.5 95q0 60 66.5 93.5zM447 -4q148 0 148 52q0 25 -38.5 38t-109.5 13q-72 0 -110.5 -13t-38.5 -38q0 -52 149 -52z" />
    <glyph glyph-name="uniAC1C" unicode="&#xac1c;" 
d="M793 810v-891h-103v458h-96v-417h-102v826h102v-322h96v346h103zM232 366q67 105 79 244h-242v87h348q0 -195 -74 -342t-252 -250l-62 76q136 80 203 185z" />
    <glyph glyph-name="uniAC1D" unicode="&#xac1d;" 
d="M789 809v-522h-103v221h-93v-217h-101v502h101v-197h93v213h103zM309 658h-238v87h349q0 -330 -337 -465l-51 78q251 99 277 300zM180 248h609v-330h-107v243h-502v87z" />
    <glyph glyph-name="uniAC20" unicode="&#xac20;" 
d="M789 809v-664h-103v315h-93v-288h-102v620h102v-244h93v261h103zM226 456q67 77 80 180h-234v86h346q0 -166 -82 -284t-251 -190l-53 79q127 52 194 129zM193 223h109v-196h513v-86h-622v282z" />
    <glyph glyph-name="uniAC23" unicode="&#xac23;" 
d="M795 248v-86h-491v-145h500v-87h-608v318h599zM230 482q67 75 79 176h-237v87h349q0 -166 -81.5 -281.5t-250.5 -185.5l-53 79q127 50 194 125zM491 793h102v-198h93v214h103v-517h-103v216h-93v-209h-102v494z" />
    <glyph glyph-name="uniAC24" unicode="&#xac24;" 
d="M789 809v-449h-104v174h-92v-168h-102v426h102v-172h92v189h104zM304 670h-229v86h343q0 -157 -82.5 -263t-249.5 -165l-51 79q244 80 269 263zM191 321h598v-231h-489v-74h520v-86h-626v241h489v66h-492v84z" />
    <glyph glyph-name="uniAC2C" unicode="&#xac2c;" 
d="M789 809v-509h-103v213h-93v-207h-102v486h102v-193h93v210h103zM230.5 482q66.5 75 78.5 176h-236v87h348q0 -166 -81 -281.5t-251 -185.5l-52 79q127 50 193.5 125zM195 258h594v-325h-594v325zM683 19v154h-382v-154h382z" />
    <glyph glyph-name="uniAC2D" unicode="&#xac2d;" 
d="M789 809v-480h-103v189h-93v-184h-101v458h101v-187h93v204h103zM227.5 495.5q66.5 72.5 79.5 170.5h-232v86h344q0 -163 -81.5 -276.5t-249.5 -180.5l-52 79q125 49 191.5 121.5zM195 289h108v-91h380v91h106v-356h-594v356zM683 19v94h-380v-94h380z" />
    <glyph glyph-name="uniAC2F" unicode="&#xac2f;" 
d="M341 442.5q-81 -120.5 -252 -193.5l-55 79q129 53 196.5 132t79.5 185h-236v86h348q0 -168 -81 -288.5zM296.5 54.5q66.5 34.5 102.5 83t36 101.5v31h108v-31q0 -53 36 -101.5t102.5 -83t152.5 -46.5l-41 -86q-105 17 -184 64.5t-120 115.5q-42 -69 -121 -116t-183 -64
l-41 86q86 12 152.5 46.5zM491 793h102v-207h92v223h104v-581h-104v269h-92v-186h-102v482z" />
    <glyph glyph-name="uniAC30" unicode="&#xac30;" 
d="M788 809v-503h-103v201h-93v-198h-101v484h101v-199h93v215h103zM306 657h-234v88h347q0 -328 -333 -463l-53 80q247 97 273 295zM205.5 94q44.5 61 44.5 130v47h105v-47q0 -59 27 -112.5t81 -89.5q55 39 83.5 93.5t28.5 108.5v47h106v-47q0 -73 43.5 -133t126.5 -87
l-52 -79q-63 22 -106.5 63t-66.5 97q-22 -56 -62.5 -100.5t-97.5 -68.5q-117 45 -164 165q-25 -53 -68 -93.5t-103 -62.5l-53 79q83 29 127.5 90z" />
    <glyph glyph-name="uniAC31" unicode="&#xac31;" 
d="M789 809v-539h-103v230h-93v-200h-101v493h101v-204h93v220h103zM309 653h-233v88h345q0 -335 -336 -475l-53 80q251 101 277 307zM223.5 183.5q37.5 38.5 106.5 59t162 20.5t162 -20.5t106 -59t37 -90.5q0 -53 -37 -91.5t-106 -59t-162 -20.5t-162 20.5t-106.5 59.5
t-37.5 91t37.5 90.5zM346.5 28.5q51.5 -22.5 145.5 -22.5q92 0 144.5 22.5t52.5 64.5t-52 64.5t-145 22.5q-94 0 -145.5 -22.5t-51.5 -64.5t51.5 -64.5z" />
    <glyph glyph-name="uniAC38" unicode="&#xac38;" 
d="M725 810v-229h131v-90h-131v-175h131v-90h-131v-306h-108v890h108zM279.5 360.5q87.5 115.5 103.5 267.5h-307v88h415q0 -437 -400 -636l-59 82q160 83 247.5 198.5z" />
    <glyph glyph-name="uniAC39" unicode="&#xac39;" 
d="M730 810v-125h123v-89h-123v-103h123v-86h-123v-117h-108v520h108zM267.5 494q87.5 76 101.5 175h-300v87h415q0 -172 -108 -291t-305 -171l-44 84q153 40 240.5 116zM143 252h587v-334h-108v247h-479v87z" />
    <glyph glyph-name="uniAC3C" unicode="&#xac3c;" 
d="M730 808v-156h123v-88h-123v-129h123v-88h-123v-180h-109v641h109zM270.5 469.5q88.5 80.5 102.5 184.5h-305v88h422q0 -176 -108 -300t-306 -183l-45 86q151 44 239.5 124.5zM163 232h109v-208h492v-88h-601v296z" />
    <glyph glyph-name="uniAC40" unicode="&#xac40;" 
d="M730 809v-99h122v-85h-122v-88h122v-87h-122v-88h-108v447h108zM272.5 526q85.5 68 96.5 158h-295v87h415q0 -171 -108 -280.5t-309 -152.5l-39 89q154 31 239.5 99zM152 324h578v-235h-470v-75h497v-86h-603v242h469v69h-471v85z" />
    <glyph glyph-name="uniAC4B" unicode="&#xac4b;" 
d="M730 810v-143h122v-89h-122v-122h122v-88h-122v-147h-108v589h108zM271.5 470.5q88.5 80.5 101.5 184.5h-297v88h415q0 -177 -108 -300.5t-308 -182.5l-45 87q153 43 241.5 123.5zM265 58q65 36 100 86.5t35 107.5v31h106v-31q0 -56 35 -106.5t100 -86.5t150 -50l-43 -85
q-101 19 -177.5 66.5t-116.5 116.5q-41 -70 -118 -118t-179 -67l-43 86q86 14 151 50z" />
    <glyph glyph-name="uniAC4D" unicode="&#xac4d;" 
d="M730 810v-130h121v-88h-121v-102h121v-89h-121v-114h-108v523h108zM268 480.5q88 78.5 102 179.5h-299v88h416q0 -174 -107.5 -296.5t-304.5 -178.5l-44 87q149 42 237 120.5zM186.5 192q36.5 40 103.5 62t155 22t155 -22t103.5 -62t36.5 -94t-36.5 -94.5t-103.5 -62.5
t-155 -22t-155 22t-103.5 62.5t-36.5 94.5t36.5 94zM307 29.5q50 -24.5 138 -24.5t138.5 24.5t50.5 68.5q0 45 -50 69t-139 24q-88 0 -138 -24t-50 -69q0 -44 50 -68.5z" />
    <glyph glyph-name="uniAC54" unicode="&#xac54;" 
d="M793 810v-891h-103v331h-96v-290h-102v826h102v-199h96v223h103zM232 366q67 105 79 244h-242v87h348q0 -195 -74 -342t-252 -250l-62 76q136 80 203 185zM690 337v162h-96v-162h96z" />
    <glyph glyph-name="uniAC58" unicode="&#xac58;" 
d="M789 809v-664h-103v201h-93v-174h-102v620h102v-146h93v163h103zM226 456q67 77 80 180h-234v86h346q0 -166 -82 -284t-251 -190l-53 79q127 52 194 129zM193 223h109v-196h513v-86h-622v282zM686 432v127h-93v-127h93z" />
    <glyph glyph-name="uniAC5C" unicode="&#xac5c;" 
d="M789 809v-449h-104v90h-92v-84h-102v426h102v-93h92v110h104zM304 670h-229v87h343q0 -158 -82.5 -264t-249.5 -165l-51 77q244 83 269 265zM191 320h598v-233h-489v-75h520v-85h-626v240h489v69h-492v84zM685 534v82h-92v-82h92z" />
    <glyph glyph-name="uniAC65" unicode="&#xac65;" 
d="M789 809v-480h-103v101h-93v-96h-101v458h101v-97h93v114h103zM227.5 495.5q66.5 72.5 79.5 170.5h-232v86h344q0 -163 -81.5 -276.5t-249.5 -180.5l-52 79q125 49 191.5 121.5zM195 289h108v-91h380v91h106v-356h-594v356zM683 19v94h-380v-94h380zM686 516v92h-93v-92
h93z" />
    <glyph glyph-name="uniAC70" unicode="&#xac70;" 
d="M773 809v-891h-107v455h-188v89h188v347h107zM279 360.5q82 114.5 95 268.5h-305v87h414q0 -213 -90.5 -371.5t-306.5 -265.5l-57 84q168 83 250 197.5z" />
    <glyph glyph-name="uniAC71" unicode="&#xac71;" 
d="M388 466q-106 -119 -302 -174l-43 85q149 42 234.5 117t99.5 175h-286v86h403q0 -170 -106 -289zM173 253h601v-331h-108v244h-493v87zM500 585h166v224h108v-519h-108v207h-166v88z" />
    <glyph glyph-name="uniAC74" unicode="&#xac74;" 
d="M774 809v-653h-109v299h-170v89h170v265h109zM280.5 465q89.5 83 104.5 189h-293v88h409q0 -176 -108 -303.5t-302 -189.5l-45 86q145 47 234.5 130zM200 220h108v-196h488v-88h-596v284z" />
    <glyph glyph-name="uniAC77" unicode="&#xac77;" 
d="M385 464.5q-106 -119.5 -302 -174.5l-42 85q149 42 235 118t100 176h-288v86h403q0 -171 -106 -290.5zM193 265h583v-87h-474v-161h490v-87h-599v335zM495 586h170v223h109v-500h-109v189h-170v88z" />
    <glyph glyph-name="uniAC78" unicode="&#xac78;" 
d="M773 809v-449h-108v164h-171v85h171v200h108zM276 525.5q81 67.5 93 159.5h-273v86h389q0 -168 -103 -276.5t-299 -156.5l-37 85q149 35 230 102.5zM192 323h581v-234h-471v-75h494v-86h-602v242h472v68h-474v85z" />
    <glyph glyph-name="uniAC7A" unicode="&#xac7a;" 
d="M774 809v-462h-108v170h-169v87h169v205h108zM280.5 521q83.5 68 95.5 161h-284v87h400q0 -170 -104.5 -279t-302.5 -155l-39 84q151 34 234.5 102zM140 309h294v-222h-188v-74q67 1 111 4t91 12l9 -82q-56 -11 -109.5 -14t-156.5 -3h-50v233h187v65h-188v81zM482 309
h292v-379h-292v379zM680 10v219h-104v-219h104z" />
    <glyph glyph-name="uniAC80" unicode="&#xac80;" 
d="M386 466q-106 -119 -302 -174l-43 85q149 42 235 117.5t100 174.5h-288v86h404q0 -170 -106 -289zM193 270h581v-340h-581v340zM667 16v169h-367v-169h367zM496 591h170v218h108v-501h-108v194h-170v89z" />
    <glyph glyph-name="uniAC81" unicode="&#xac81;" 
d="M773 809v-480h-107v180h-171v88h171v212h107zM281.5 501q83.5 71 95.5 169h-286v87h403q0 -172 -104.5 -285.5t-304.5 -165.5l-41 86q154 38 237.5 109zM191 287h107v-95h369v95h106v-358h-582v358zM667 16v93h-369v-93h369z" />
    <glyph glyph-name="uniAC83" unicode="&#xac83;" 
d="M773 809v-596h-108v266h-169v88h169v242h108zM280 468.5q82 78.5 96 185.5h-284v87h399q0 -355 -399 -482l-45 85q151 46 233 124.5zM290 57q65 36 100 86.5t35 106.5v34h108v-34q0 -56 35 -106t99.5 -86t150.5 -50l-44 -85q-102 19 -178.5 66.5t-116.5 116.5
q-41 -70 -118.5 -118t-180.5 -67l-41 86q86 14 151 50z" />
    <glyph glyph-name="uniAC84" unicode="&#xac84;" 
d="M385 466q-106 -119 -302 -174l-43 85q149 42 234.5 117t99.5 175h-284v86h401q0 -170 -106 -289zM201 98q44 61 44 130v51h106v-51q0 -59 27 -113t81 -90q56 38 84.5 93.5t28.5 109.5v51h106v-51q0 -74 43.5 -134t126.5 -87l-53 -79q-62 22 -105.5 63t-66.5 96
q-23 -56 -63.5 -99.5t-98.5 -67.5q-60 22 -100.5 64.5t-62.5 99.5q-24 -53 -66.5 -93.5t-102.5 -62.5l-54 79q82 30 126 91zM496 591h168v218h109v-501h-109v195h-168v88z" />
    <glyph glyph-name="uniAC85" unicode="&#xac85;" 
d="M774 809v-518h-108v191h-166v89h166v238h108zM280 480q85 77 97 179h-285v87h402q0 -176 -104 -294.5t-304 -175.5l-44 86q153 41 238 118zM220 196.5q37 40.5 104.5 62t157.5 21.5q89 0 156 -21.5t104 -62t37 -94.5t-37 -94.5t-104 -62t-156 -21.5q-90 0 -157.5 21.5
t-104.5 62t-37 94.5t37 94.5zM341 33q51 -24 141 -24q89 0 139.5 24t50.5 69t-50.5 69t-139.5 24q-90 0 -141 -24t-51 -69t51 -69z" />
    <glyph glyph-name="uniAC86" unicode="&#xac86;" 
d="M395.5 467.5q-109.5 -115.5 -312.5 -164.5l-39 86q156 37 244 110t100 170h-297v86h414q0 -172 -109.5 -287.5zM292.5 40q60.5 26 94.5 63t38 77h-236v87h592v-87h-240q4 -40 38.5 -76.5t95 -63t140.5 -36.5l-39 -82q-102 14 -178 55t-115 100q-38 -59 -113.5 -99.5
t-178.5 -55.5l-39 82q80 10 140.5 36zM495 584h170v225h108v-501h-108v188h-170v88z" />
    <glyph glyph-name="uniAC89" unicode="&#xac89;" 
d="M777 301v-79h-473v-65h458v-78h-458v-68h488v-80h-596v370h581zM281.5 508q83.5 71 95.5 168h-288v87h405q0 -172 -104.5 -285t-304.5 -163l-40 85q153 37 236.5 108zM497 597h168v212h109v-471h-109v170h-168v89z" />
    <glyph glyph-name="uniAC8A" unicode="&#xac8a;" 
d="M387 469.5q-107 -116.5 -301 -169.5l-42 86q147 38 233 111.5t100 170.5h-287v87h404q0 -169 -107 -285.5zM166 19h126v174h-117v85h606v-85h-118v-174h128v-86h-625v86zM557 19v174h-159v-174h159zM494 587h171v222h109v-489h-109v178h-171v89z" />
    <glyph glyph-name="uniAC8B" unicode="&#xac8b;" 
d="M382.5 480.5q-100.5 -108.5 -302.5 -156.5l-38 84q154 35 234 103.5t91 164.5h-275v86h391q0 -173 -100.5 -281.5zM163 286h259v96h109v-96h256v-82h-624v82zM292 138q67 33 184 33t183.5 -33t66.5 -92q0 -60 -66.5 -93t-183.5 -33t-184 33t-67 93q0 59 67 92zM476 -5
q137 0 137 51q0 24 -36 37t-101 13t-101.5 -13t-36.5 -37q0 -51 138 -51zM494 611h171v199h109v-471h-109v185h-171v87z" />
    <glyph glyph-name="uniAC8C" unicode="&#xac8c;" 
d="M796 810v-891h-103v891h103zM232.5 370q68.5 106 79.5 244h-239v87h346q0 -138 -35 -243h124v331h100v-827h-100v410h-159q-80 -161 -259 -265l-61 76q135 81 203.5 187z" />
    <glyph glyph-name="uniAC90" unicode="&#xac90;" 
d="M789 809v-664h-103v664h103zM310 639h-230v87h342q0 -107 -33 -194h118v260h101v-623h-101v276h-164q-84 -123 -256 -196l-54 80q251 102 277 310zM203 227h109v-203h510v-88h-619v291z" />
    <glyph glyph-name="uniAC94" unicode="&#xac94;" 
d="M789 809v-449h-104v449h104zM230 512.5q66 66.5 79 157.5h-227v87h341q0 -86 -24 -157h108v191h101v-428h-101v151h-151q-81 -123 -265 -187l-52 78q125 41 191 107.5zM191 320h598v-231h-488v-73h519v-86h-626v239h487v67h-490v84z" />
    <glyph glyph-name="uniAC9C" unicode="&#xac9c;" 
d="M396 572h112v219h100v-486h-100v180h-152q-81 -131 -262 -207l-54 79q245 98 272 300h-230v88h341q0 -95 -27 -173zM196 257h593v-324h-593v324zM683 19v153h-381v-153h381zM686 809h103v-512h-103v512z" />
    <glyph glyph-name="uniAC9D" unicode="&#xac9d;" 
d="M395 581h113v210h100v-464h-100v167h-155q-79 -124 -264 -194l-51 79q128 46 193.5 116t76.5 167h-224v86h336q0 -93 -25 -167zM195 285h108v-92h380v92h106v-352h-594v352zM683 19v91h-380v-91h380zM686 809h103v-490h-103v490z" />
    <glyph glyph-name="uniAC9F" unicode="&#xac9f;" 
d="M789 809v-584h-104v584h104zM228.5 460.5q67.5 78.5 80.5 184.5h-232v86h344q0 -95 -25 -173h111v233h101v-490h-101v170h-150q-79 -139 -267 -223l-55 80q126 54 193.5 132.5zM290.5 54.5q66.5 34.5 102.5 83t36 101.5v32h109v-32q0 -53 36.5 -101.5t103 -83
t153.5 -46.5l-41 -85q-105 17 -185 64t-121 116q-42 -69 -122 -116t-184 -64l-41 85q87 12 153.5 46.5z" />
    <glyph glyph-name="uniACA0" unicode="&#xaca0;" 
d="M395 568h112v223h100v-478h-100v168h-154q-83 -128 -262 -204l-54 80q126 51 193.5 125.5t81.5 175.5h-231v88h343q0 -100 -29 -178zM205.5 94q44.5 61 44.5 130v47h105v-47q0 -59 27 -112.5t81 -89.5q55 39 83.5 93.5t28.5 108.5v47h106v-47q0 -73 43.5 -133t126.5 -87
l-52 -79q-63 22 -106.5 63t-66.5 97q-22 -56 -62.5 -100.5t-97.5 -68.5q-117 45 -164 165q-25 -53 -68 -93.5t-103 -62.5l-53 79q83 29 127.5 90zM685 809h103v-509h-103v509z" />
    <glyph glyph-name="uniACA1" unicode="&#xaca1;" 
d="M398 568h110v223h100v-491h-100v181h-150q-82 -136 -270 -215l-53 80q127 51 195 127.5t82 179.5h-234v88h346q0 -92 -26 -173zM225.5 182.5q37.5 38.5 106.5 59t162 20.5t161.5 -20.5t106 -59t37.5 -90.5t-37.5 -90.5t-106.5 -59t-161 -20.5t-161.5 20.5t-107 59
t-37.5 90.5t37.5 90.5zM349 28q52 -23 145 -23q92 0 144 23t52 64q0 43 -51.5 65.5t-144.5 22.5q-94 0 -145.5 -22.5t-51.5 -65.5q0 -41 52 -64zM686 809h103v-539h-103v539z" />
    <glyph glyph-name="uniACA8" unicode="&#xaca8;" 
d="M475 575h191v234h107v-890h-107v328h-225v87h225v154h-211q-79 -266 -370 -409l-56 84q163 82 248 197.5t99 268.5h-306v87h416q0 -78 -11 -141z" />
    <glyph glyph-name="uniACA9" unicode="&#xaca9;" 
d="M496 660h170v149h108v-530h-108v104h-211v88h211v102h-197q-44 -103 -141.5 -176.5t-240.5 -112.5l-41 86q152 40 240 116.5t102 177.5h-294v87h410q0 -45 -8 -91zM173 242h601v-320h-108v233h-493v87z" />
    <glyph glyph-name="uniACAA" unicode="&#xacaa;" 
d="M495 667h171v142h108v-512h-108v93h-212v88h212v102h-197q-44 -103 -140.5 -175.5t-239.5 -110.5l-43 84q151 40 239 116t102 175h-293v86h409q0 -43 -8 -88zM146 257h298v-338h-109v252h-189v86zM483 257h291v-338h-108v252h-183v86z" />
    <glyph glyph-name="uniACAC" unicode="&#xacac;" 
d="M774 809v-658h-109v195h-214v87h214v113h-201q-46 -103 -141.5 -178.5t-229.5 -117.5l-46 85q147 47 237 130t104 189h-295v88h412q0 -56 -12 -109h172v176h109zM200 214h108v-190h488v-88h-596v278z" />
    <glyph glyph-name="uniACAF" unicode="&#xacaf;" 
d="M489 675h176v134h109v-500h-109v87h-213v88h213v104h-201q-42 -106 -138.5 -180.5t-240.5 -113.5l-42 84q149 40 236 116t101 175h-292v86h407q0 -41 -6 -80zM193 265h583v-87h-474v-161h490v-87h-599v335z" />
    <glyph glyph-name="uniACB0" unicode="&#xacb0;" 
d="M773 809v-449h-108v77h-212v81h212v90h-202q-79 -201 -379 -269l-37 87q152 32 233.5 99t92.5 159h-277v87h396q0 -42 -6 -80h179v118h108zM192 323h581v-234h-471v-75h494v-86h-602v242h472v68h-474v85z" />
    <glyph glyph-name="uniACB7" unicode="&#xacb7;" 
d="M773 810v-448h-108v79h-214v81h214v89h-203q-82 -197 -380 -263l-35 87q151 31 232.5 96t93.5 155h-277v88h396q0 -42 -6 -80h179v116h108zM136 309h284v-221h-179v-75q74 1 118.5 4t91.5 12l9 -82q-56 -11 -111 -14t-161 -3h-51v234h178v64h-179v81zM455 265h127v76h105
v-76h130v-78h-362v78zM518 125.5q45 33.5 115 33.5t115 -33.5t45 -86.5q0 -55 -45 -87.5t-115 -32.5t-115 32.5t-45 87.5q0 53 45 86.5zM585.5 3.5q18.5 -12.5 47.5 -12.5t47.5 12.5t18.5 35.5q0 22 -18.5 34t-47.5 12t-47.5 -12t-18.5 -34q0 -23 18.5 -35.5z" />
    <glyph glyph-name="uniACB8" unicode="&#xacb8;" 
d="M666 494v97h-201q-42 -107 -139 -183t-242 -116l-42 85q150 41 235.5 116.5t99.5 175.5h-289v86h406q0 -40 -6 -76h178v130h108v-504h-108v101h-213v88h213zM193 269h581v-339h-581v339zM667 16v167h-367v-167h367z" />
    <glyph glyph-name="uniACB9" unicode="&#xacb9;" 
d="M666 498v96h-198q-41 -105 -137.5 -177.5t-244.5 -110.5l-42 86q155 38 238.5 109t95.5 169h-287v87h405q0 -40 -6 -76h176v128h107v-480h-107v82h-210v87h210zM191 287h107v-95h369v95h106v-358h-582v358zM667 16v93h-369v-93h369z" />
    <glyph glyph-name="uniACBB" unicode="&#xacbb;" 
d="M665 465v103h-201q-79 -216 -372 -309l-45 85q152 45 234.5 124t95.5 186h-285v87h401q0 -49 -7 -88h179v156h108v-599h-108v168h-211v87h211zM290 57.5q65 35.5 100 86t35 107.5v31h108v-31q0 -56 35 -106.5t99.5 -86t150.5 -49.5l-44 -85q-102 19 -178.5 66.5
t-116.5 116.5q-41 -70 -118.5 -118t-180.5 -67l-41 86q86 14 151 49.5z" />
    <glyph glyph-name="uniACBC" unicode="&#xacbc;" 
d="M664 489v98h-201q-43 -105 -139.5 -180t-239.5 -115l-42 85q150 41 236.5 117t100.5 175h-289v86h404q0 -41 -6 -80h176v134h109v-501h-109v93h-210v88h210zM201 98q44 61 44 130v51h106v-51q0 -59 27 -113t81 -90q56 38 84.5 93.5t28.5 109.5v51h106v-51
q0 -74 43.5 -134t126.5 -87l-53 -79q-62 22 -105.5 63t-66.5 96q-23 -56 -63.5 -99.5t-98.5 -67.5q-60 22 -100.5 64.5t-62.5 99.5q-24 -53 -66.5 -93.5t-102.5 -62.5l-54 79q82 30 126 91z" />
    <glyph glyph-name="uniACBD" unicode="&#xacbd;" 
d="M666 474v98h-201q-42 -105 -138 -180t-241 -116l-42 86q153 41 237.5 118t96.5 179h-286v87h404q0 -49 -7 -88h177v151h108v-521h-108v98h-212v88h212zM220 195q37 40 104.5 61t157.5 21q136 0 216.5 -47t80.5 -130q0 -54 -36.5 -93.5t-103.5 -61t-157 -21.5t-157.5 21.5
t-104.5 61t-37 93.5q0 55 37 95zM341 32q51 -24 141 -24q89 0 139.5 24t50.5 68q0 45 -50.5 69t-139.5 24q-90 0 -141 -24t-51 -69q0 -44 51 -68z" />
    <glyph glyph-name="uniACC1" unicode="&#xacc1;" 
d="M665 509v92h-199q-40 -105 -136.5 -177t-244.5 -109l-41 85q155 37 238 108t95 168h-288v87h405q0 -41 -6 -79h177v125h109v-471h-109v88h-212v83h212zM196 301h581v-79h-473v-65h458v-78h-458v-68h488v-80h-596v370z" />
    <glyph glyph-name="uniACC4" unicode="&#xacc4;" 
d="M512 347v135h-124q-65 -235 -299 -375l-61 76q134 81 202 187t80 244h-237v87h343q0 -68 -9 -133h105v221h102v-827h-102v297h-139v88h139zM693 810h104v-891h-104v891z" />
    <glyph glyph-name="uniACC8" unicode="&#xacc8;" 
d="M510 424v110h-123q-70 -189 -302 -290l-53 79q128 53 195.5 132t80.5 184h-228v87h339q0 -56 -9 -107h100v173h102v-621h-102v167h-140v86h140zM200 229h109v-205h509v-88h-618v293zM686 809h103v-661h-103v661z" />
    <glyph glyph-name="uniACCC" unicode="&#xaccc;" 
d="M510 518v82h-113q-33 -94 -109 -161.5t-198 -111.5l-51 78q124 42 189.5 108t78.5 157h-225v87h339q0 -35 -5 -75h94v109h102v-430h-102v74h-125v83h125zM191 320h598v-231h-488v-76h519v-85h-626v240h487v68h-490v84zM685 809h104v-452h-104v452z" />
    <glyph glyph-name="uniACD5" unicode="&#xacd5;" 
d="M511 495v88h-117q-31 -96 -106 -166.5t-199 -118.5l-53 80q128 46 193.5 116.5t77.5 167.5h-223v86h334q0 -39 -5 -82h98v125h101v-468h-101v90h-122v82h122zM195 282h108v-89h380v89h106v-349h-594v349zM683 19v89h-380v-89h380zM686 809h103v-492h-103v492z" />
    <glyph glyph-name="uniACD7" unicode="&#xacd7;" 
d="M507 470v93h-112q-64 -208 -306 -316l-55 80q126 54 193 133t80 185h-230v87h342q0 -39 -5 -84h93v143h101v-503h-101v97h-121v85h121zM290.5 53.5q66.5 33.5 102.5 80.5t36 99v29h109v-29q0 -52 36 -99t103 -80.5t154 -45.5l-40 -85q-105 16 -185.5 62t-122.5 114
q-41 -68 -121.5 -114t-185.5 -62l-38 85q86 12 152.5 45.5zM685 809h104v-597h-104v597z" />
    <glyph glyph-name="uniACE0" unicode="&#xace0;" 
d="M754 727v-85q0 -115 -6 -206.5t-29 -214.5l-108 12q23 115 28.5 205t5.5 202h-527v87h636zM34 121h296v311h109v-311h400v-87h-805v87z" />
    <glyph glyph-name="uniACE1" unicode="&#xace1;" 
d="M346 395v172h107v-172h384v-86h-802v86h311zM120 222h614v-303h-108v217h-506v86zM128 763h611v-64q0 -70 -3.5 -126.5t-18.5 -124.5l-108 10q14 61 18.5 112t4.5 108h-504v85z" />
    <glyph glyph-name="uniACE4" unicode="&#xace4;" 
d="M739 758v-61q0 -74 -4 -133.5t-20 -132.5l-107 11q14 66 19 120t5 110h-504v86h611zM35 377h311v174h107v-174h384v-87h-802v87zM132 210h108v-185h519v-88h-627v273z" />
    <glyph glyph-name="uniACE7" unicode="&#xace7;" 
d="M739 769v-73q0 -72 -4 -124t-20 -113l-107 11q15 59 19.5 106t4.5 108h-504v85h611zM35 418h311v154h107v-154h384v-86h-802v86zM131 249h606v-86h-498v-146h510v-86h-618v318z" />
    <glyph glyph-name="uniACE8" unicode="&#xace8;" 
d="M739 775v-55q0 -58 -2.5 -106t-13.5 -105l-107 9q14 75 16 171h-504v86h611zM35 466h311v140h107v-140h384v-85h-802v85zM126 316h615v-229h-506v-75h529v-84h-636v235h506v69h-508v84z" />
    <glyph glyph-name="uniACEA" unicode="&#xacea;" 
d="M739 770v-57q0 -62 -3 -113.5t-16 -111.5l-107 10q19 93 19 187h-504v85h611zM35 446h311v149h107v-149h384v-86h-802v86zM116 295h289v-215h-182v-73q73 1 114 3.5t84 10.5l8 -79q-51 -10 -102.5 -12.5t-158.5 -2.5h-50v227h182v62h-184v79zM457 295h291v-368h-291v368z
M657 7v209h-109v-209h109z" />
    <glyph glyph-name="uniACEC" unicode="&#xacec;" 
d="M663 310v-86q0 -71 37 -132t111 -92l-57 -76q-99 44 -143 148q-44 -105 -141 -148l-54 70l5 -52q-51 -10 -101 -12.5t-152 -2.5h-50v227h182v63h-184v78h289v-215h-182v-73q69 1 109.5 3.5t81.5 10.5l2 -19q72 33 108 93.5t36 128.5v86h103zM35 450h311v149h107v-149h384
v-87h-802v87zM128 775h611v-66q0 -64 -3 -112.5t-15 -104.5l-108 11q12 51 15.5 94t3.5 93h-504v85z" />
    <glyph glyph-name="uniACEF" unicode="&#xacef;" 
d="M559 258v72h106v-72h138v-79h-379v79h135zM35 460h311v147h107v-147h384v-85h-802v85zM114 303h279v-217h-176v-73q78 0 122 3t88 12l10 -79q-53 -11 -105.5 -13.5t-165.5 -2.5h-50v228h175v64h-177v78zM128 779h611v-56q0 -61 -3 -111.5t-16 -110.5l-107 12
q11 50 14.5 91t4.5 89h-504v86zM501 121.5q43 31.5 112 31.5q68 0 111.5 -31.5t43.5 -84.5t-43.5 -85.5t-111.5 -32.5q-69 0 -112 32t-43 86q0 53 43 84.5zM566.5 2q17.5 -12 46.5 -12q28 0 45 12t17 35q0 22 -17 33t-45 11q-29 0 -46.5 -11t-17.5 -33q0 -23 17.5 -35z" />
    <glyph glyph-name="uniACF0" unicode="&#xacf0;" 
d="M738 250v-319h-609v319h609zM35 421h311v158h107v-158h384v-87h-802v87zM128 771h611v-72q0 -71 -4 -123.5t-20 -112.5l-107 12q15 56 19.5 104t4.5 107h-504v85zM632 16v149h-397v-149h397z" />
    <glyph glyph-name="uniACF1" unicode="&#xacf1;" 
d="M739 775v-59q0 -65 -4 -119t-19 -119l-108 9q14 59 19 106.5t5 96.5h-504v85h611zM36 434h310v150h107v-150h384v-86h-801v86zM134 287h107v-94h389v94h106v-356h-602v356zM630 16v95h-389v-95h389z" />
    <glyph glyph-name="uniACF3" unicode="&#xacf3;" 
d="M739 768v-66q0 -71 -4 -125.5t-19 -120.5l-106 10q14 60 18 110t4 107h-504v85h611zM35 401h311v170h107v-170h384v-86h-802v86zM241 49.5q66 31.5 101.5 77t35.5 96.5v32h108v-32q0 -51 35 -96.5t101.5 -77t156.5 -42.5l-40 -84q-106 16 -185.5 59t-120.5 108
q-41 -65 -121 -108t-187 -59l-39 84q89 11 155 42.5z" />
    <glyph glyph-name="uniACF5" unicode="&#xacf5;" 
d="M597.5 232q70.5 -20 109 -57.5t38.5 -88.5q0 -78 -84.5 -122t-228.5 -44t-228 44t-84 122q0 51 38 88.5t108.5 57.5t165.5 20t165.5 -20zM35 405h311v162h107v-162h384v-86h-802v86zM128 767h611v-74q0 -72 -4 -124t-21 -113l-106 12q15 57 19.5 104t4.5 109h-504v86z
M281 24.5q54 -21.5 151 -21.5t151.5 22t54.5 61q0 40 -54.5 62t-151.5 22t-151 -22t-54 -62t54 -61.5z" />
    <glyph glyph-name="uniACF6" unicode="&#xacf6;" 
d="M746 264v-86h-251q13 -64 89 -111t197 -62l-37 -83q-108 14 -188 55t-120 103q-40 -62 -119.5 -103t-187.5 -55l-38 83q122 15 197.5 62t88.5 111h-251v86h620zM35 430h311v150h107v-150h384v-87h-802v87zM128 774h611v-70q0 -68 -4 -118.5t-20 -108.5l-106 13
q14 54 18.5 98.5t4.5 99.5h-504v86z" />
    <glyph glyph-name="uniACFC" unicode="&#xacfc;" 
d="M526 717v-63q0 -88 -4.5 -166t-20.5 -180l-106 11q15 90 19.5 163.5t4.5 147.5h-347v87h454zM198 195v267h105v-264q154 5 268 20l5 -78q-204 -34 -539 -36l-11 89q50 0 172 2zM618 810h108v-364h129v-90h-129v-437h-108v891z" />
    <glyph glyph-name="uniACFD" unicode="&#xacfd;" 
d="M526 751v-55q0 -64 -3.5 -120.5t-17.5 -124.5l-106 11q18 94 20 201h-342v88h449zM197 384v173h107v-170q154 7 270 23l7 -77q-124 -23 -260.5 -31t-285.5 -8l-11 88q111 0 173 2zM142 216h595v-294h-109v208h-486v86zM628 809h109v-239h115v-88h-115v-226h-109v553z" />
    <glyph glyph-name="uniAD00" unicode="&#xad00;" 
d="M526 742v-53q0 -66 -3.5 -126t-17.5 -134l-105 11q18 103 20 215h-343v87h449zM197 359v180h107v-177q156 7 271 23l7 -78q-123 -22 -258 -29.5t-289 -8.5l-11 88q111 0 173 2zM157 201h108v-177h500v-88h-608v265zM628 809h109v-279h115v-89h-115v-299h-109v667z" />
    <glyph glyph-name="uniAD04" unicode="&#xad04;" 
d="M526 767v-49q0 -58 -3.5 -110t-16.5 -114l-105 11q16 83 18 176h-342v86h449zM196 437v148h107v-145q151 5 272 19l8 -75q-124 -21 -258.5 -27.5t-289.5 -6.5l-10 86q110 0 171 1zM138 299h599v-220h-489v-70h519v-82h-627v229h488v63h-490v80zM628 809h109v-198h115v-88
h-115v-189h-109v475z" />
    <glyph glyph-name="uniAD06" unicode="&#xad06;" 
d="M401 281v-209h-185v-66q73 0 115 2.5t84 11.5l7 -78q-51 -10 -102.5 -12.5t-159.5 -2.5h-48v218h184v58h-187v78h292zM196 435v149h107v-146q161 7 272 21l8 -76q-124 -21 -256.5 -27t-291.5 -6l-10 84q110 0 171 1zM77 767h449v-49q0 -59 -3.5 -111t-16.5 -114l-105 11
q16 83 18 177h-342v86zM448 281h289v-354h-289v354zM643 8v192h-102v-192h102zM628 809h109v-203h115v-87h-115v-200h-109v490z" />
    <glyph glyph-name="uniAD0C" unicode="&#xad0c;" 
d="M526 760v-52q0 -61 -3.5 -114.5t-17.5 -119.5l-106 9q18 89 20 190h-342v87h449zM197 406v154h107v-150q148 5 271 22l7 -77q-123 -22 -253 -29t-293 -8l-12 87q111 0 173 1zM150 241h587v-308h-587v308zM630 19v136h-374v-136h374zM628 809h109v-222h115v-89h-115v-216
h-109v527z" />
    <glyph glyph-name="uniAD0D" unicode="&#xad0d;" 
d="M526 762v-49q0 -59 -3.5 -111.5t-16.5 -116.5l-105 12q16 85 18 179h-342v86h449zM197 426v148h107v-145q164 7 274 21l7 -78q-124 -21 -259.5 -27.5t-291.5 -6.5l-11 87q112 0 174 1zM151 273h108v-83h370v83h108v-343h-586v343zM629 17v89h-370v-89h370zM628 809h109
v-210h115v-89h-115v-203h-109v502z" />
    <glyph glyph-name="uniAD0F" unicode="&#xad0f;" 
d="M526 757v-51q0 -62 -4.5 -118t-20.5 -124l-104 9q20 92 22 197h-342v87h449zM197 386v169h107v-165q148 5 271 22l8 -78q-124 -22 -259 -29t-289 -7l-11 87q111 0 173 1zM263 49.5q65 30.5 99 74.5t34 93v29h115v-29q0 -49 34.5 -93t99.5 -74.5t154 -41.5l-40 -86
q-107 16 -185.5 59t-119.5 107q-40 -64 -119 -107t-186 -59l-40 86q89 11 154 41.5zM628 810h109v-259h115v-91h-115v-258h-109v608z" />
    <glyph glyph-name="uniAD10" unicode="&#xad10;" 
d="M329 247v-24q0 -57 27.5 -110t82.5 -88q54 36 82.5 89.5t28.5 108.5v24h106v-22q0 -72 43.5 -130t126.5 -84l-53 -79q-61 21 -104 60.5t-67 91.5q-22 -54 -63 -96.5t-100 -65.5q-115 44 -162 160q-52 -108 -170 -150l-52 79q82 28 126 86.5t44 127.5v22h104zM197 405v155
h107v-152q154 5 271 20l7 -77q-124 -21 -258 -27.5t-288 -6.5l-12 87q112 0 173 1zM77 760h449v-52q0 -61 -3.5 -114.5t-17.5 -119.5l-106 9q18 89 20 190h-342v87zM628 810h109v-222h115v-90h-115v-216h-109v528z" />
    <glyph glyph-name="uniAD11" unicode="&#xad11;" 
d="M526 757v-54q0 -62 -3.5 -116t-17.5 -120l-106 8q18 91 20 196h-342v86h449zM197 396v165h107v-162q162 7 271 21l7 -77q-214 -36 -546 -36l-12 88q112 0 173 1zM220.5 207.5q81.5 43.5 221.5 43.5t221 -43.5t81 -120.5q0 -78 -81 -122.5t-221 -44.5t-221.5 44.5
t-81.5 122.5q0 77 81.5 120.5zM299 26.5q50 -20.5 143 -20.5t142.5 20.5t49.5 60.5q0 39 -50 60t-142 21t-142.5 -21t-50.5 -60q0 -40 50 -60.5zM628 810h109v-229h115v-90h-115v-230h-109v549z" />
    <glyph glyph-name="uniAD18" unicode="&#xad18;" 
d="M442 711v-65q0 -85 -3.5 -157t-18.5 -166l-98 8q20 139 20 294h-282v86h382zM154 215v248h99v-245q143 6 218 16l4 -78q-161 -32 -437 -32l-15 90q83 0 131 1zM513 792h101v-347h83v365h104v-891h-104v438h-83v-394h-101v829z" />
    <glyph glyph-name="uniAD1C" unicode="&#xad1c;" 
d="M444 741v-58q0 -68 -3 -125t-16 -128l-100 10q18 107 18 214h-274v87h375zM159 360v177h99v-174q127 5 216 16l5 -78q-170 -30 -444 -30l-12 88q86 0 136 1zM176 204h108v-180h534v-88h-642v268zM512 791h102v-253h79v271h103v-672h-103v312h-79v-290h-102v632z" />
    <glyph glyph-name="uniAD20" unicode="&#xad20;" 
d="M444 760v-52q0 -59 -3 -109t-14 -111l-99 9q13 79 15 177h-274v86h375zM159 429v150h99v-147q116 5 215 17l6 -75q-154 -28 -443 -30l-13 84q86 0 136 1zM171 291h625v-216h-517v-66h543v-82h-650v224h518v60h-519v80zM512 791h101v-190h80v208h103v-483h-103v188h-80
v-184h-101v461z" />
    <glyph glyph-name="uniAD22" unicode="&#xad22;" 
d="M440 289v-214h-201v-69q65 0 113 3t100 12l10 -78q-63 -10 -120.5 -13t-155.5 -3h-52v222h202v62h-203v78h307zM159 433v148h99v-145q128 5 215 16l7 -75q-155 -28 -443 -30l-14 85q86 0 136 1zM69 760h375v-52q0 -59 -2.5 -109t-13.5 -111l-100 9q13 79 15 177h-274v86z
M488 289h309v-362h-309v362zM513 791h101v-188h79v206h104v-480h-104v187h-79v-183h-101v458zM697 8v200h-108v-200h108z" />
    <glyph glyph-name="uniAD29" unicode="&#xad29;" 
d="M444 759v-55q0 -62 -3 -114t-15 -116l-101 7q16 82 18 192h-274v86h375zM159 410v158h99v-155q128 5 215 16l7 -75q-161 -28 -445 -30l-12 85q86 0 136 1zM177 269h108v-84h404v84h108v-339h-620v339zM689 17v84h-404v-84h404zM513 791h101v-202h79v220h104v-506h-104
v198h-79v-190h-101v480z" />
    <glyph glyph-name="uniAD2C" unicode="&#xad2c;" 
d="M443 751v-55q0 -63 -3 -116t-14 -118l-99 10q16 98 16 193h-275v86h375zM158 395v163h99v-160q120 5 217 18l5 -74q-94 -20 -206 -26.5t-238 -7.5l-11 86q84 0 134 1zM203 97.5q44 59.5 44 131.5v23h104v-23q0 -58 27.5 -112t82.5 -91q55 37 83 92t28 111v23h106v-23
q0 -74 43.5 -133t127.5 -86l-52 -79q-62 21 -106 61.5t-67 95.5q-23 -56 -63.5 -99t-98.5 -67q-114 44 -163 163q-24 -53 -67.5 -93t-104.5 -61l-52 79q84 28 128 87.5zM512 791h101v-208h79v227h104v-526h-104v211h-79v-204h-101v500z" />
    <glyph glyph-name="uniAD2D" unicode="&#xad2d;" 
d="M444 746v-58q0 -63 -2.5 -116.5t-13.5 -118.5l-100 7q15 95 15 200h-274v86h375zM159 386v161h99v-158q140 8 214 19l7 -74q-94 -20 -203.5 -26.5t-239.5 -7.5l-13 85q86 0 136 1zM251 195.5q83 41.5 231 41.5t231.5 -41.5t83.5 -117.5t-83.5 -117.5t-231.5 -41.5
t-231 41.5t-83 117.5t83 117.5zM331 20.5q52 -19.5 151 -19.5t151 19.5t52 57.5t-52 57.5t-151 19.5t-151 -19.5t-52 -57.5t52 -57.5zM513 792h101v-215h79v232h104v-559h-104v241h-79v-212h-101v513z" />
    <glyph glyph-name="uniAD34" unicode="&#xad34;" 
d="M552 709v-58q0 -83 -4 -159t-20 -175l-107 12q25 144 25 293h-351v87h457zM219 190v250h106v-247q176 7 292 22l9 -79q-133 -22 -274.5 -29.5t-301.5 -7.5l-13 89q118 0 182 2zM669 810h108v-893h-108v893z" />
    <glyph glyph-name="uniAD35" unicode="&#xad35;" 
d="M543 751v-55q0 -65 -3.5 -122t-17.5 -126l-106 12q20 93 22 203h-337v88h442zM220 378v169h105v-166q172 7 283 22l6 -77q-128 -21 -263.5 -28t-300.5 -8l-14 87q119 0 184 1zM160 220h613v-302h-108v214h-505v88zM665 810h108v-548h-108v548z" />
    <glyph glyph-name="uniAD38" unicode="&#xad38;" 
d="M547 746v-63q0 -69 -3.5 -126t-18.5 -125l-105 13q22 102 22 213h-347v88h452zM223 357v178h105v-175q153 5 279 19l6 -78q-224 -34 -565 -34l-13 88q122 0 188 2zM186 197h108v-173h501v-88h-609v261zM665 809h108v-670h-108v670z" />
    <glyph glyph-name="uniAD3C" unicode="&#xad3c;" 
d="M541 765v-49q0 -58 -4 -110.5t-18 -114.5l-105 11q18 82 20 177h-335v86h442zM221 434v150h105v-147q167 7 281 21l6 -76q-130 -20 -270 -26.5t-294 -6.5l-14 84q121 0 186 1zM169 292h604v-216h-495v-68h527v-81h-634v225h495v62h-497v78zM665 809h108v-478h-108v478z
" />
    <glyph glyph-name="uniAD44" unicode="&#xad44;" 
d="M773 809v-535h-108v535h108zM220 397v154h105v-150q162 7 283 23l5 -75q-128 -23 -264 -30t-300 -8l-13 84q52 0 184 2zM101 755h442v-53q0 -62 -3 -116t-16 -119l-107 9q11 53 14.5 97.5t4.5 95.5h-335v86zM175 234h598v-304h-598v304zM667 16v132h-385v-132h385z" />
    <glyph glyph-name="uniAD45" unicode="&#xad45;" 
d="M773 807v-500h-108v500h108zM222 413v148h105v-145q167 7 281 21l5 -77q-128 -19 -265.5 -25.5t-298.5 -7.5l-13 85q121 0 186 1zM101 763h443v-57q0 -61 -3 -112.5t-16 -114.5l-105 10q11 51 14.5 94.5t4.5 93.5h-338v86zM175 271h106v-87h385v87h107v-341h-598v341z
M666 17v84h-385v-84h385z" />
    <glyph glyph-name="uniAD47" unicode="&#xad47;" 
d="M772 809v-613h-108v613h108zM219 390v156h104v-153q155 5 284 19l6 -77q-224 -35 -564 -35l-14 88q56 0 184 2zM101 755h441v-68q0 -67 -3 -118t-16 -110l-106 13q12 53 15.5 98.5t3.5 97.5h-335v87zM282 54q65 33 100 79.5t35 97.5v23h111v-23q0 -51 35 -97.5t100 -79.5
t152 -45l-41 -85q-105 17 -183.5 62.5t-118.5 111.5q-40 -66 -118 -111.5t-183 -62.5l-40 85q86 12 151 45z" />
    <glyph glyph-name="uniAD49" unicode="&#xad49;" 
d="M773 810v-553h-108v553h108zM220 389v157h105v-154q160 5 282 20l6 -75q-128 -21 -260.5 -27.5t-303.5 -7.5l-13 86q119 0 184 1zM101 756h442v-62q0 -68 -3.5 -122t-16.5 -118l-105 12q12 56 15.5 104t3.5 100h-336v86zM245 204.5q82 43.5 225 43.5q142 0 224 -43.5
t82 -121.5q0 -77 -82 -120.5t-224 -43.5q-143 0 -225 43.5t-82 120.5q0 78 82 121.5zM326.5 24q50.5 -20 143.5 -20t143.5 20t50.5 59q0 40 -50.5 60.5t-143.5 20.5t-143.5 -20.5t-50.5 -60.5q0 -39 50.5 -59z" />
    <glyph glyph-name="uniAD50" unicode="&#xad50;" 
d="M756 727v-91q0 -112 -5 -200.5t-25 -204.5l-107 12q20 109 25 195.5t5 197.5v4h-535v87h642zM34 121h181v287h107v-287h113v287h106v-287h298v-87h-805v87z" />
    <glyph glyph-name="uniAD54" unicode="&#xad54;" 
d="M748 760v-68q0 -73 -3 -131t-16 -129l-108 9q12 65 15.5 119.5t3.5 113.5h-517v86h625zM35 368h184v173h106v-173h119v173h106v-173h287v-87h-802v87zM132 206h108v-182h519v-87h-627v269z" />
    <glyph glyph-name="uniAD58" unicode="&#xad58;" 
d="M748 779v-61q0 -61 -2.5 -108t-13.5 -102l-106 11q14 81 14 174h-517v86h625zM35 464h186v146h106v-146h114v146h105v-146h291v-87h-802v87zM126 316h615v-229h-506v-75h529v-84h-636v235h506v69h-508v84z" />
    <glyph glyph-name="uniAD60" unicode="&#xad60;" 
d="M738 250v-319h-609v319h609zM35 413h184v154h106v-154h119v154h106v-154h287v-86h-802v86zM123 774h625v-61q0 -68 -3 -122.5t-16 -119.5l-107 10q18 95 18 207h-517v86zM632 16v149h-397v-149h397z" />
    <glyph glyph-name="uniAD61" unicode="&#xad61;" 
d="M746 777v-58q0 -66 -3.5 -121.5t-17.5 -122.5l-106 11q20 102 20 205h-518v86h625zM36 429h184v154h106v-154h111v154h107v-154h293v-87h-801v87zM134 286h107v-94h389v94h106v-356h-602v356zM630 16v94h-389v-94h389z" />
    <glyph glyph-name="uniAD63" unicode="&#xad63;" 
d="M755 770v-75q0 -74 -3.5 -127t-16.5 -115l-107 10q13 58 16.5 107.5t3.5 114.5h-523v85h630zM34 397h188v172h106v-172h112v172h106v-172h293v-88h-805v88zM241 49.5q66 31.5 101.5 77t35.5 96.5v32h108v-32q0 -51 35 -96.5t101.5 -77t156.5 -42.5l-40 -84
q-106 16 -185.5 59t-120.5 108q-41 -65 -121 -108t-187 -59l-39 84q89 11 155 42.5z" />
    <glyph glyph-name="uniAD65" unicode="&#xad65;" 
d="M748 769v-64q0 -68 -3 -123t-16 -122l-107 10q18 97 18 212h-517v87h625zM35 399h184v161h106v-161h119v161h106v-161h287v-86h-802v86zM158 174.5q38 37.5 108.5 57.5t165.5 20t165.5 -20t109 -57.5t38.5 -88.5q0 -78 -84.5 -122t-228.5 -44t-228 44t-84 122
q0 51 38 88.5zM281 24.5q54 -21.5 151 -21.5t151.5 22t54.5 61q0 40 -54.5 62t-151.5 22t-151 -22t-54 -62t54 -61.5z" />
    <glyph glyph-name="uniAD6C" unicode="&#xad6c;" 
d="M739 755v-78q0 -87 -4 -153t-19 -150h123v-87h-352v-368h-109v368h-344v87h574q16 81 20.5 147.5t4.5 147.5h-502v86h608z" />
    <glyph glyph-name="uniAD6D" unicode="&#xad6d;" 
d="M741 769v-68q0 -69 -3 -123t-16 -120h118v-88h-351v-140h255v-311h-108v225h-519v86h265v140h-348v88h580q13 62 17 114t4 110h-500v87h606z" />
    <glyph glyph-name="uniAD70" unicode="&#xad70;" 
d="M742 765v-74q0 -76 -3.5 -134t-16.5 -130h118v-87h-344v-199h-108v199h-354v87h579q14 69 18 126t4 126h-500v86h607zM131 220h107v-196h518v-87h-625v283z" />
    <glyph glyph-name="uniAD73" unicode="&#xad73;" 
d="M741 769v-68q0 -68 -3 -121t-15 -117h117v-87h-351v-128h254v-85h-505v-147h515v-85h-622v317h251v128h-348v87h581q12 60 16 111.5t4 108.5h-500v86h606z" />
    <glyph glyph-name="uniAD74" unicode="&#xad74;" 
d="M741 774v-58q0 -61 -3 -110.5t-14 -108.5h116v-85h-351v-95h252v-231h-506v-74h528v-84h-635v234h506v70h-508v85h256v95h-348v85h582q19 93 19 192h-500v85h606z" />
    <glyph glyph-name="uniAD75" unicode="&#xad75;" 
d="M741 775v-58q0 -62 -3 -112.5t-14 -110.5h116v-87h-351v-113h257v-372h-105v286h-180v80h-47v-213h-190v-68q98 1 151 5t102 16l12 -80q-58 -13 -120.5 -17t-191.5 -4h-58v225h192v61h-193v81h264v113h-348v87h581q20 94 20 195h-500v86h606z" />
    <glyph glyph-name="uniAD76" unicode="&#xad76;" 
d="M741 775v-59q0 -62 -3 -113.5t-15 -112.5h117v-87h-352v-108h260v-368h-291v350h-52v-198h-182v-72q72 1 113.5 3.5t84.5 10.5l8 -79q-51 -10 -102.5 -12.5t-158.5 -2.5h-50v226h182v63h-184v79h265v108h-347v87h580q21 96 21 199h-500v86h606zM657 7v209h-109v-209h109z
" />
    <glyph glyph-name="uniAD7B" unicode="&#xad7b;" 
d="M741 776v-55q0 -61 -3 -112t-14 -113h116v-86h-355v-119h-92v-211h-176v-67q78 0 122 3t88 12l10 -79q-53 -11 -105.5 -13.5t-165.5 -2.5h-50v223h175v61h-177v78h262v115h-342v86h582q11 55 14.5 99.5t4.5 95.5h-500v85h606zM424 258h135v75h106v-75h138v-80h-379v80z
M501 123q43 32 112 32t112 -32t43 -86t-43 -86t-112 -32t-112 32t-43 86t43 86zM566.5 1q17.5 -13 46.5 -13q28 0 45 13t17 36t-17 36t-45 13t-46 -13t-18 -36t17.5 -36z" />
    <glyph glyph-name="uniAD7C" unicode="&#xad7c;" 
d="M740 772v-68q0 -68 -3 -121.5t-16 -118.5h119v-87h-351v-130h251v-316h-609v316h251v130h-348v87h578q14 62 18 113t4 109h-502v86h608zM634 16v147h-398v-147h398z" />
    <glyph glyph-name="uniAD7D" unicode="&#xad7d;" 
d="M740 774v-67q0 -68 -3 -120.5t-15 -116.5h118v-86h-353v-135h-108v135h-345v86h579q13 60 17 110.5t4 107.5h-502v86h608zM131 294h108v-99h392v99h107v-363h-607v363zM631 16v95h-392v-95h392z" />
    <glyph glyph-name="uniAD7F" unicode="&#xad7f;" 
d="M741 773v-58q0 -67 -3 -123t-16 -125h118v-87h-352v-126h-107v126h-347v87h579q22 107 22 220h-500v86h606zM242.5 43q65.5 28 101 67t35.5 81v28h110v-28q0 -44 35 -83t100.5 -66t153.5 -37l-37 -82q-108 13 -187.5 52t-120.5 99q-41 -59 -120.5 -98.5t-185.5 -52.5
l-37 82q87 10 152.5 38z" />
    <glyph glyph-name="uniAD81" unicode="&#xad81;" 
d="M741 775v-68q0 -70 -3.5 -124t-16.5 -120h119v-87h-351v-121q122 -8 189.5 -51.5t67.5 -115.5q0 -80 -82.5 -124.5t-228.5 -44.5q-145 0 -227.5 44.5t-82.5 124.5q0 72 68 115.5t189 51.5v121h-348v87h579q14 62 18 114t4 111h-500v87h606zM285.5 27q52.5 -21 149.5 -21
q98 0 150.5 21t52.5 61q0 41 -52.5 62t-150.5 21t-150 -21t-52 -62q0 -40 52.5 -61z" />
    <glyph glyph-name="uniAD82" unicode="&#xad82;" 
d="M741 771v-55q0 -64 -3.5 -120t-16.5 -125h119v-85h-351v-119h257v-86h-252q12 -65 88.5 -113t198.5 -63l-37 -82q-108 13 -187.5 54.5t-120.5 103.5q-41 -62 -120.5 -103.5t-186.5 -54.5l-38 82q122 15 198.5 63t88.5 113h-252v86h256v119h-348v85h581q11 59 15 108.5
t5 105.5h-500v86h606z" />
    <glyph glyph-name="uniAD88" unicode="&#xad88;" 
d="M781 809v-890h-108v243h-188v85h188v562h108zM399 407q20 117 22 246h-322v88h429v-55q0 -69 -3.5 -131t-17.5 -141q68 6 101 10l7 -78q-117 -17 -253 -25v-359h-109v354q-101 -4 -214 -4l-14 86q247 2 374 9z" />
    <glyph glyph-name="uniAD89" unicode="&#xad89;" 
d="M782 810v-570h-109v61h-182v79h182v430h109zM403 506q18 89 20 175h-312v87h417v-43q0 -53 -3 -102.5t-14 -109.5l93 9l7 -77q-115 -17 -252 -25v-179h-108v173q-112 -3 -211 -3l-13 86q248 2 376 9zM163 203h618v-283h-109v198h-509v85z" />
    <glyph glyph-name="uniAD8C" unicode="&#xad8c;" 
d="M780 809v-670h-108v107h-181v84h181v479h108zM402 476q17 102 19 198h-311v86h420v-32q0 -57 -3.5 -114t-15.5 -130q31 3 91 11l7 -77q-107 -18 -233 -28v-196h-107v190q-101 -5 -227 -5l-14 88q226 0 374 9zM154 207h108v-183h539v-88h-647v271z" />
    <glyph glyph-name="uniAD90" unicode="&#xad90;" 
d="M781 809v-500h-109v44h-182v71h182v385h109zM402 536q14 74 18 154h-304v86h409v-30q0 -110 -17 -201q37 3 99 11l8 -74q-119 -20 -257 -28v-144h-108v138q-111 -3 -205 -3l-14 81q244 2 371 10zM171 279h610v-210h-502v-63h532v-79h-639v215h502v58h-503v79z" />
    <glyph glyph-name="uniAD9C" unicode="&#xad9c;" 
d="M780 809v-535h-108v49h-182v80h182v406h108zM404 525q15 86 17 163h-311v86h417v-42q0 -50 -2.5 -96t-12.5 -102q31 3 91 11l6 -77q-126 -22 -251 -29v-163h-108v157q-94 -5 -211 -5l-13 87q249 2 378 10zM221.5 98q42.5 57 42.5 125v21h104v-21q0 -55 26 -106.5
t77 -86.5q52 36 78.5 87.5t26.5 105.5v21h107v-21q0 -70 42 -127t123 -82l-52 -80q-120 42 -168 151q-46 -115 -156 -158q-109 43 -156 155q-23 -51 -65 -89t-101 -59l-52 80q81 27 123.5 84z" />
    <glyph glyph-name="uniAD9D" unicode="&#xad9d;" 
d="M781 810v-564h-109v58h-181v78h181v428h109zM403 504q19 89 21 178h-311v86h417v-47q0 -53 -3 -101t-15 -107l94 12l7 -76q-115 -21 -255 -29v-167h-108v161q-99 -4 -207 -4l-13 85q225 0 373 9zM253 196q82 42 227 42t226.5 -41.5t81.5 -117.5t-81.5 -118t-226.5 -42
t-227 42t-82 118q0 75 82 117zM480 3q197 0 197 76q0 37 -50 56t-147 19t-147.5 -19t-50.5 -56q0 -76 198 -76z" />
    <glyph glyph-name="uniADA4" unicode="&#xada4;" 
d="M802 810v-891h-103v891h103zM305 415q21 105 23 213h-258v87h360v-43q0 -61 -3.5 -119t-17.5 -131q27 2 70 8l8 -76q-73 -14 -182 -23v-338h-104v332q-81 -4 -167 -4l-11 87q164 0 282 7zM378 256h147v535h101v-827h-101v206h-147v86z" />
    <glyph glyph-name="uniADB7" unicode="&#xadb7;" 
d="M795 810v-637h-103v637h103zM304 495q17 85 19 167h-245v86h349v-39q0 -51 -3 -99t-15 -108q28 2 72 8l7 -76q-71 -14 -180 -23v-209h-102v202q-84 -4 -171 -4l-12 88q163 0 281 7zM289.5 41.5q65.5 27.5 100 67.5t34.5 87v17h109v-17q0 -47 34 -87t98.5 -67.5
t153.5 -37.5l-39 -83q-106 14 -184 53t-118 98q-41 -59 -120.5 -98t-186.5 -53l-38 83q91 10 156.5 37.5zM373 371h149v420h101v-572h-101v73h-149v79z" />
    <glyph glyph-name="uniADB8" unicode="&#xadb8;" 
d="M794 810v-549h-103v549h103zM303 510q18 81 20 161h-246v86h350v-37q0 -50 -3 -97t-15 -105q28 2 72 8l7 -75q-91 -16 -180 -22v-162h-102v156q-84 -4 -172 -4l-11 84q162 0 280 7zM201.5 90.5q44.5 55.5 44.5 121.5v19h104v-19q0 -54 28 -104.5t82 -83.5q55 35 83 85
t28 103v19h106v-19q0 -68 44.5 -123.5t127.5 -78.5l-51 -79q-125 39 -175 149q-22 -53 -62.5 -94.5t-99.5 -63.5q-60 22 -100.5 62t-62.5 93q-25 -51 -68.5 -88.5t-105.5 -57.5l-50 79q83 25 127.5 80.5zM373 392h148v401h101v-526h-101v47h-148v78z" />
    <glyph glyph-name="uniADC0" unicode="&#xadc0;" 
d="M783 810v-891h-108v891h108zM396 402q23 126 25 255h-317v88h424v-45q0 -69 -4 -136t-19 -155q75 6 114 10l8 -80q-106 -15 -256 -24v-346h-109v341q-101 -4 -218 -4l-14 88q197 0 366 8z" />
    <glyph glyph-name="uniADC1" unicode="&#xadc1;" 
d="M770 810v-533h-108v533h108zM397 474q19 96 21 205h-307v86h414v-55q0 -61 -3 -112.5t-15 -114.5q52 5 101 12l6 -79q-111 -20 -240 -28v-152h396v-320h-108v232h-502v88h105v146q-99 -5 -220 -5l-14 87q220 0 366 10z" />
    <glyph glyph-name="uniADC4" unicode="&#xadc4;" 
d="M408 453q18 108 20 212h-316v86h423v-41q0 -60 -3 -117.5t-15 -131.5q35 3 92 11l7 -76q-103 -18 -222 -28v-189h-108v182q-107 -5 -239 -5l-14 88q224 0 375 9zM155 208h107v-184h531v-88h-638v272zM662 809h108v-665h-108v665z" />
    <glyph glyph-name="uniADC8" unicode="&#xadc8;" 
d="M769 809v-459h-107v459h107zM403 512q17 90 19 175h-307v86h414v-41q0 -53 -3 -102.5t-14 -110.5q63 6 96 10l6 -76q-102 -15 -245 -24v-118h400v-227h-486v-74h517v-83h-625v234h486v68h-488v82h89v113q-72 -3 -215 -5l-14 85q221 0 370 8z" />
    <glyph glyph-name="uniADD0" unicode="&#xadd0;" 
d="M770 809v-515h-108v515h108zM401 470q17 101 17 203h-307v87h414v-59q0 -61 -2.5 -111t-11.5 -111q48 4 97 12l6 -78q-106 -19 -238 -29v-135h394v-319h-588v319h86v129q-100 -5 -223 -5l-14 87q223 0 370 10zM664 16v148h-375v-148h375z" />
    <glyph glyph-name="uniADD1" unicode="&#xadd1;" 
d="M770 809v-505h-108v505h108zM402 505q11 52 15 95t5 92h-311v87h419v-56q0 -57 -3 -105.5t-15 -105.5l94 9l7 -77q-111 -17 -243 -25v-139h-108v133q-73 -3 -218 -5l-14 89q223 0 372 8zM170 266h108v-82h385v82h107v-336h-600v336zM663 16v86h-385v-86h385z" />
    <glyph glyph-name="uniADD3" unicode="&#xadd3;" 
d="M768 809v-626h-109v626h109zM401 471q11 58 15 105.5t5 101.5h-305v87h411v-56q0 -62 -3 -114t-14 -116q32 3 94 11l7 -78q-118 -20 -249 -28v-184h-109v179q-97 -4 -205 -4l-14 87q221 0 367 9zM306.5 49.5q65.5 31.5 100 76.5t34.5 97v27h110v-27q0 -52 34 -97
t97 -76.5t149 -42.5l-41 -85q-103 17 -178.5 60.5t-114.5 107.5q-40 -64 -119 -107.5t-185 -60.5l-41 85q89 11 154.5 42.5z" />
    <glyph glyph-name="uniADD5" unicode="&#xadd5;" 
d="M769 809v-553h-109v553h109zM402 464q19 106 19 212h-304v86h411v-56q0 -62 -3 -115.5t-15 -118.5q36 3 95 11l7 -78q-117 -20 -250 -28v-130q56 7 106 7q143 0 224.5 -44.5t81.5 -123.5q0 -78 -81.5 -122t-224.5 -44q-144 0 -225 44t-81 122q0 42 23.5 74.5t68.5 54.5
v157q-97 -4 -205 -4l-14 88q218 0 367 8zM324.5 26q50.5 -21 143.5 -21t144 21t51 60q0 41 -50.5 62.5t-144.5 21.5q-93 0 -143.5 -21.5t-50.5 -62.5q0 -39 50.5 -60z" />
    <glyph glyph-name="uniADDC" unicode="&#xaddc;" 
d="M733 756v-60q0 -84 -4.5 -156.5t-21.5 -168.5h132v-87h-199v-365h-109v365h-197v-365h-109v365h-191v87h564q17 87 22.5 157.5t5.5 140.5h-494v87h601z" />
    <glyph glyph-name="uniADE0" unicode="&#xade0;" 
d="M742 764v-72q0 -74 -3 -131t-16 -127h117v-87h-210v-201h-105v201h-117v-201h-106v201h-268v87h580q13 68 17 123t4 122h-503v85h610zM124 223h108v-199h534v-87h-642v286z" />
    <glyph glyph-name="uniADE4" unicode="&#xade4;" 
d="M741 775v-58q0 -61 -2.5 -110t-13.5 -108h115v-86h-206v-96h107v-231h-506v-74h528v-84h-635v234h506v70h-508v85h113v96h-205v86h582q19 93 19 191h-500v85h606zM526 317v96h-180v-96h180z" />
    <glyph glyph-name="uniADEC" unicode="&#xadec;" 
d="M740 772v-68q0 -68 -3 -121.5t-16 -117.5h119v-86h-206v-132h106v-316h-609v316h108v132h-205v86h578q14 61 18 112t4 109h-502v86h608zM634 16v147h-398v-147h398zM526 247v132h-180v-132h180z" />
    <glyph glyph-name="uniADF8" unicode="&#xadf8;" 
d="M736 721v-98q0 -121 -5.5 -213.5t-27.5 -216.5l-108 9q23 117 28.5 209t5.5 212v12h-511v86h618zM34 130h805v-88h-805v88z" />
    <glyph glyph-name="uniADF9" unicode="&#xadf9;" 
d="M741 769v-62q0 -71 -3 -130.5t-16 -134.5h118v-86h-806v86h579q22 117 22 240h-500v87h606zM119 239h626v-321h-108v235h-518v86z" />
    <glyph glyph-name="uniADFC" unicode="&#xadfc;" 
d="M742 758v-73q0 -78 -3.5 -138.5t-17.5 -136.5h119v-88h-806v88h578q15 72 19 131t4 130h-500v87h607zM137 236h108v-211h523v-88h-631v299z" />
    <glyph glyph-name="uniADFF" unicode="&#xadff;" 
d="M741 766v-68q0 -72 -3.5 -128t-17.5 -125h120v-87h-806v87h578q14 66 18.5 120t4.5 115h-501v86h607zM131 255h612v-86h-505v-153h515v-86h-622v325z" />
    <glyph glyph-name="uniAE00" unicode="&#xae00;" 
d="M741 773v-59q0 -62 -3 -113t-15 -112h117v-87h-806v87h581q20 94 20 197h-500v87h606zM126 330h615v-240h-506v-78h528v-84h-635v242h506v76h-508v84z" />
    <glyph glyph-name="uniAE01" unicode="&#xae01;" 
d="M741 770v-61q0 -67 -3.5 -120t-16.5 -121h119v-87h-806v87h578q23 102 23 216h-500v86h606zM118 299h296v-221h-190v-70q101 1 153 5t100 16l12 -81q-58 -12 -120.5 -16t-191.5 -4h-58v227h192v64h-193v80zM461 299h285v-377h-105v291h-180v86z" />
    <glyph glyph-name="uniAE02" unicode="&#xae02;" 
d="M405 304v-221h-182v-76q72 1 113.5 3.5t84.5 10.5l8 -79q-51 -10 -102.5 -12.5t-158.5 -2.5h-50v231h182v66h-184v80h289zM34 470h579q22 102 22 214h-500v86h606v-61q0 -66 -3.5 -119t-16.5 -120h119v-86h-806v86zM457 304h291v-377h-291v377zM657 7v216h-109v-216h109z
" />
    <glyph glyph-name="uniAE07" unicode="&#xae07;" 
d="M559 264v69h106v-69h138v-79h-379v79h135zM34 470h579q22 102 22 214h-500v86h606v-61q0 -66 -3.5 -119t-16.5 -120h119v-85h-806v85zM114 304h279v-220h-176v-74q78 0 122 3t88 12l10 -80q-52 -10 -102.5 -12t-168.5 -2h-50v229h175v65h-177v79zM501 124q43 32 112 32
t112 -32t43 -86t-43.5 -86.5t-111.5 -32.5q-69 0 -112 32.5t-43 86.5t43 86zM566.5 2.5q17.5 -12.5 46.5 -12.5q28 0 45 12.5t17 35.5t-17 35t-45 12q-29 0 -46.5 -12t-17.5 -35t17.5 -35.5z" />
    <glyph glyph-name="uniAE08" unicode="&#xae08;" 
d="M741 766v-69q0 -72 -3.5 -128t-18.5 -126h121v-86h-806v86h577q15 65 19.5 120t4.5 116h-500v87h606zM131 252h609v-321h-609v321zM634 16v151h-398v-151h398z" />
    <glyph glyph-name="uniAE09" unicode="&#xae09;" 
d="M240 301v-102h393v102h107v-370h-606v370h106zM34 456h579q14 64 18 117t4 112h-500v86h606v-68q0 -70 -3.5 -124t-17.5 -123h120v-88h-806v88zM633 17v97h-393v-97h393z" />
    <glyph glyph-name="uniAE0B" unicode="&#xae0b;" 
d="M737 765v-62q0 -75 -4 -138t-20 -144h123v-87h-801v87h571q24 125 24 258h-498v86h605zM242 50.5q66 32.5 101 78.5t35 97v33h108v-33q0 -51 35 -97t101.5 -78.5t155.5 -44.5l-40 -83q-106 16 -185 59.5t-120 108.5q-41 -65 -120.5 -108.5t-185.5 -59.5l-39 83
q88 12 154 44.5z" />
    <glyph glyph-name="uniAE0D" unicode="&#xae0d;" 
d="M741 765v-68q0 -73 -3.5 -130.5t-18.5 -128.5h120v-87h-805v87h576q16 67 20.5 122.5t4.5 118.5h-500v86h606zM208 217q83 45 227 45q146 0 228.5 -44.5t82.5 -125.5t-82.5 -126t-228.5 -45q-144 0 -227 45t-83 126q0 80 83 125zM286 29q53 -22 149 -22q97 0 150 22
t53 63q0 42 -52.5 63t-150.5 21q-97 0 -149.5 -21.5t-52.5 -62.5t53 -63z" />
    <glyph glyph-name="uniAE13" unicode="&#xae13;" 
d="M381 282v75h108v-75h275v-81h-657v81h274zM34 489h581q20 94 20 197h-500v87h606v-59q0 -62 -3 -113t-15 -112h117v-87h-806v87zM235 136.5q69 31.5 200 31.5q130 0 199.5 -31.5t69.5 -92.5q0 -60 -69.5 -92t-199.5 -32t-199.5 31.5t-69.5 92.5t69 92.5zM435 -5
q156 0 156 49t-156 49q-157 0 -157 -49t157 -49z" />
    <glyph glyph-name="uniAE14" unicode="&#xae14;" 
d="M542 707v-73q0 -89 -4.5 -162t-22.5 -166l-106 13q17 85 22 153.5t5 148.5h-340v86h446zM340.5 226.5q141.5 5.5 266.5 22.5l6 -80q-128 -23 -264.5 -30t-300.5 -8l-12 90q163 0 304.5 5.5zM655 810h109v-891h-109v891z" />
    <glyph glyph-name="uniAE30" unicode="&#xae30;" 
d="M771 810v-891h-108v891h108zM298.5 359q86.5 115 100.5 270h-313v87h422q0 -212 -95 -372.5t-315 -267.5l-57 86q171 82 257.5 197z" />
    <glyph glyph-name="uniAE31" unicode="&#xae31;" 
d="M394 463q-109 -119 -310 -173l-42 85q155 40 243 116t102 178h-294v86h410q0 -173 -109 -292zM169 252h600v-334h-108v247h-492v87zM661 809h108v-519h-108v519z" />
    <glyph glyph-name="uniAE34" unicode="&#xae34;" 
d="M768 809v-646h-109v646h109zM290 468q90 81 104 186h-297v89h413q0 -177 -109 -302t-311 -185l-42 85q152 46 242 127zM183 216h108v-193h497v-87h-605v280z" />
    <glyph glyph-name="uniAE37" unicode="&#xae37;" 
d="M388 465.5q-106 -118.5 -304 -172.5l-42 85q150 40 236.5 115t100.5 175h-291v87h406q0 -171 -106 -289.5zM194 265h582v-87h-472v-161h488v-87h-598v335zM666 809h109v-501h-109v501z" />
    <glyph glyph-name="uniAE38" unicode="&#xae38;" 
d="M768 809v-449h-108v449h108zM291 525q82 66 92 159h-288v87h408q0 -175 -104.5 -280.5t-312.5 -149.5l-37 87q160 31 242 97zM183 320h585v-231h-475v-76h502v-85h-610v240h475v68h-477v84z" />
    <glyph glyph-name="uniAE3A" unicode="&#xae3a;" 
d="M769 809v-465h-109v465h109zM289 520.5q84 67.5 95 161.5h-291v86h410q0 -172 -106 -280.5t-310 -152.5l-38 85q156 33 240 100.5zM142 302h295v-218h-191v-72q71 1 114.5 4t88.5 12l9 -83q-56 -10 -109.5 -13t-154.5 -3h-50v230h190v62h-192v81zM481 302h288v-373h-288
v373zM677 8v215h-104v-215h104z" />
    <glyph glyph-name="uniAE40" unicode="&#xae40;" 
d="M392.5 464.5q-109.5 -118.5 -309.5 -170.5l-42 86q154 39 242.5 114.5t102.5 174.5h-294v86h410q0 -172 -109.5 -290.5zM187 270h582v-340h-582v340zM663 16v169h-369v-169h369zM661 809h108v-498h-108v498z" />
    <glyph glyph-name="uniAE41" unicode="&#xae41;" 
d="M769 809v-483h-108v483h108zM291 508.5q83 69.5 94 166.5h-292v87h411q0 -347 -420 -443l-38 85q162 35 245 104.5zM186 290h108v-96h368v96h107v-360h-583v360zM662 17v92h-368v-92h368z" />
    <glyph glyph-name="uniAE43" unicode="&#xae43;" 
d="M767 809v-592h-108v592h108zM288.5 468.5q87.5 79.5 101.5 185.5h-295v88h409q0 -178 -107 -300.5t-310 -183.5l-41 86q155 45 242.5 124.5zM282 53.5q65 34.5 100 83.5t35 105v31h113v-31q0 -55 34.5 -104t99 -84t151.5 -48l-42 -84q-105 18 -183 65.5t-117 117.5
q-40 -70 -118.5 -117.5t-182.5 -65.5l-41 84q86 13 151 47.5z" />
    <glyph glyph-name="uniAE44" unicode="&#xae44;" 
d="M391.5 465q-109.5 -119 -309.5 -171l-42 86q154 39 242.5 114.5t102.5 174.5h-295v86h411q0 -171 -109.5 -290zM198 98.5q44 61.5 44 130.5v51h105v-51q0 -60 27 -114t82 -90q55 39 83 94.5t28 109.5v51h107v-51q0 -73 43.5 -133.5t127.5 -88.5l-53 -78q-123 43 -173 159
q-22 -56 -62.5 -100t-98.5 -68q-60 23 -101 66t-63 99q-24 -53 -66.5 -93.5t-102.5 -62.5l-54 78q83 30 127 91.5zM659 810h109v-502h-109v502z" />
    <glyph glyph-name="uniAE45" unicode="&#xae45;" 
d="M767 809v-528h-109v528h109zM281.5 479q90.5 79 104.5 181h-294v88h409q0 -174 -110.5 -296.5t-307.5 -178.5l-42 84q150 43 240.5 122zM250 226q81 47 221 47t220.5 -47t80.5 -129q0 -83 -80.5 -130t-220.5 -47t-221 47t-81 130q0 82 81 129zM327.5 29.5
q50.5 -23.5 143.5 -23.5q92 0 143 23.5t51 67.5t-51 67t-143 23q-94 0 -144 -23t-50 -67t50.5 -67.5z" />
    <glyph glyph-name="uniAE46" unicode="&#xae46;" 
d="M393.5 467q-108.5 -115 -311.5 -165l-37 86q154 38 241 111t99 169h-294v86h411q0 -172 -108.5 -287zM292.5 40q61.5 27 95 64.5t35.5 78.5h-237v87h590v-87h-242q2 -42 36 -79t96.5 -64t146.5 -37l-37 -82q-104 14 -181 53t-116 97q-39 -58 -115.5 -97t-179.5 -53
l-36 82q83 10 144.5 37zM658 809h109v-496h-109v496z" />
    <glyph glyph-name="uniAE4A" unicode="&#xae4a;" 
d="M402.5 467q-109.5 -113 -308.5 -160l-43 86q155 34 243.5 105t100.5 165h-299v87h416q0 -170 -109.5 -283zM171 19h120v178h-111v85h599v-85h-111v-178h121v-86h-618v86zM562 19v178h-166v-178h166zM659 809h109v-481h-109v481z" />
    <glyph glyph-name="uniAE4C" unicode="&#xae4c;" 
d="M737 810v-356h123v-91h-123v-444h-108v891h108zM150 377.5q39 108.5 45 250.5h-139v88h242q0 -128 -15.5 -230.5t-57.5 -196.5t-118 -177l-86 61q90 96 129 204.5zM397.5 344.5q36.5 123.5 42.5 283.5h-113v88h214q0 -137 -14 -248t-54 -216.5t-115 -197.5l-86 60
q89 107 125.5 230.5z" />
    <glyph glyph-name="uniAE4D" unicode="&#xae4d;" 
d="M730 809v-231h123v-90h-123v-209h-108v530h108zM145.5 513.5q38.5 60.5 48.5 146.5h-135v87h237q0 -142 -44.5 -239.5t-155.5 -175.5l-68 68q79 53 117.5 113.5zM143 241h587v-323h-108v235h-479v88zM395.5 492q38.5 72 47.5 168h-113v87h215q0 -149 -43 -257t-148 -196
l-76 64q79 62 117.5 134z" />
    <glyph glyph-name="uniAE4E" unicode="&#xae4e;" 
d="M730 809v-213h123v-90h-123v-209h-108v512h108zM145.5 520.5q38.5 60.5 48.5 146.5h-135v86h237q0 -142 -44.5 -239t-153.5 -173l-70 66q79 53 117.5 113.5zM116 256h291v-338h-107v251h-184v87zM395.5 500q38.5 71 47.5 167h-113v86h215q0 -147 -43 -254t-148 -194
l-76 62q79 62 117.5 133zM445 256h285v-338h-107v251h-178v87z" />
    <glyph glyph-name="uniAE50" unicode="&#xae50;" 
d="M251.5 479q-44.5 -108 -152.5 -194l-70 67q78 62 117 131t48 165h-135v88h237q0 -149 -44.5 -257zM157 213h108v-189h497v-88h-605v277zM395.5 462.5q39.5 79.5 47.5 185.5h-115v88h217q0 -160 -44 -277.5t-156 -211.5l-71 67q82 69 121.5 148.5zM622 809h108v-274h123
v-89h-123v-287h-108v650z" />
    <glyph glyph-name="uniAE54" unicode="&#xae54;" 
d="M730 809v-181h123v-89h-123v-181h-108v451h108zM140.5 546q37.5 53 48.5 131h-134v86h238q0 -133 -45 -222.5t-149 -163.5l-70 67q74 49 111.5 102zM149 319h581v-231h-473v-73h505v-85h-612v237h473v68h-474v84zM393.5 528q37.5 62 47.5 149h-115v86h218
q0 -140 -43 -238t-147 -178l-75 64q77 55 114.5 117z" />
    <glyph glyph-name="uniAE56" unicode="&#xae56;" 
d="M730 809v-185h123v-88h-123v-193h-108v466h108zM141.5 545q37.5 53 47.5 130h-134v86h238q0 -133 -45 -222t-149 -163l-69 67q74 49 111.5 102zM105 298h288v-217h-182v-72q65 1 108.5 4t89.5 12l8 -82q-55 -10 -108 -12.5t-153 -2.5h-50v229h182v61h-183v80zM395 522.5
q38 63.5 47 152.5h-117v86h219q0 -143 -42.5 -242t-147.5 -180l-75 63q78 57 116 120.5zM442 298h288v-370h-288v370zM636 7v212h-101v-212h101z" />
    <glyph glyph-name="uniAE5C" unicode="&#xae5c;" 
d="M252 512.5q-44 -98.5 -154 -176.5l-69 66q78 54 116.5 116t48.5 149h-135v87h237q0 -143 -44 -241.5zM160 260h570v-330h-570v330zM623 16v159h-356v-159h356zM394 496.5q39 72.5 47 170.5h-113v87h215q0 -150 -42.5 -259t-146.5 -197l-78 63q79 63 118 135.5zM622 808
h108v-205h123v-88h-123v-215h-108v508z" />
    <glyph glyph-name="uniAE5D" unicode="&#xae5d;" 
d="M251.5 519q-44.5 -96 -153.5 -173l-69 67q78 54 116.5 113.5t47.5 143.5h-134v87h237q0 -142 -44.5 -238zM157 284h108v-92h358v92h107v-354h-573v354zM623 17v90h-358v-90h358zM394 504q38 70 47 166h-113v87h215q0 -148 -42 -254t-145 -193l-77 62q77 62 115 132z
M622 808h108v-193h123v-88h-123v-203h-108v484z" />
    <glyph glyph-name="uniAE5F" unicode="&#xae5f;" 
d="M250.5 501q-42.5 -99 -149.5 -181l-70 67q77 55 114 117.5t46 151.5h-135v88h237q0 -144 -42.5 -243zM264.5 54.5q64.5 33.5 99.5 81.5t35 102v20h107v-20q0 -54 35 -102t100 -81.5t151 -46.5l-41 -85q-103 17 -180 62.5t-118 112.5q-41 -67 -118 -112.5t-180 -62.5
l-42 85q87 13 151.5 46.5zM394.5 483.5q38.5 73.5 46.5 172.5h-115v88h217q0 -152 -42 -262.5t-147 -198.5l-78 62q80 65 118.5 138.5zM622 809h108v-239h123v-89h-123v-266h-108v594z" />
    <glyph glyph-name="uniAE60" unicode="&#xae60;" 
d="M256 512q-44 -97 -154 -176l-69 68q78 53 115.5 113.5t47.5 147.5h-133v87h237q0 -143 -44 -240zM188.5 97q43.5 61 43.5 131v39h105v-39q0 -60 27 -114t82 -90q55 38 83.5 94t28.5 110v39h107v-39q0 -74 42.5 -134t126.5 -88l-54 -78q-62 22 -105 62.5t-66 95.5
q-22 -56 -62.5 -100t-98.5 -68q-115 45 -164 165q-24 -53 -66 -93t-101 -62l-55 78q83 30 126.5 91zM397.5 496.5q38.5 71.5 46.5 168.5h-113v87h217q0 -150 -43 -258t-148 -196l-77 64q79 63 117.5 134.5zM622 810h108v-207h123v-89h-123v-207h-108v503z" />
    <glyph glyph-name="uniAE61" unicode="&#xae61;" 
d="M252 512.5q-44 -98.5 -154 -176.5l-69 66q78 54 116.5 116t48.5 149h-135v87h237q0 -143 -44 -241.5zM225 219q80 46 217 46q138 0 217.5 -46t79.5 -127q0 -80 -79.5 -126t-217.5 -46q-137 0 -217 46t-80 126q0 81 80 127zM301.5 28q49.5 -22 140.5 -22t140.5 22t49.5 64
q0 43 -49 65t-141 22t-141 -22t-49 -65q0 -42 49.5 -64zM394 499q38 71 47 168h-113v87h215q0 -149 -42.5 -257t-146.5 -195l-77 63q79 63 117 134zM622 809h108v-209h123v-89h-123v-222h-108v520z" />
    <glyph glyph-name="uniAE65" unicode="&#xae65;" 
d="M248 535.5q-45 -89.5 -149 -163.5l-70 67q73 48 111 101.5t49 131.5h-134v87h238q0 -134 -45 -223.5zM160 291h576v-77h-468v-64h458v-75h-458v-68h485v-77h-593v361zM393.5 523.5q37.5 61.5 47.5 148.5h-115v87h218q0 -141 -43 -239t-147 -177l-75 64q77 55 114.5 116.5
zM622 808h108v-192h123v-90h-123v-193h-108v475z" />
    <glyph glyph-name="uniAE68" unicode="&#xae68;" 
d="M812 810v-891h-104v456h-84v-414h-102v831h102v-329h84v347h104zM125.5 381q30.5 105 36.5 236h-109v87h201q0 -175 -30.5 -314.5t-112.5 -256.5l-84 48q68 95 98.5 200zM337 347q29 120 32 270h-87v87h180q0 -194 -28.5 -347t-113.5 -281l-85 47q73 104 102 224z" />
    <glyph glyph-name="uniAE69" unicode="&#xae69;" 
d="M799 809v-522h-102v221h-81v-216h-101v502h101v-198h81v213h102zM120 515.5q29 60.5 36 146.5h-103v87h203q0 -93 -12.5 -162.5t-45 -131t-92.5 -118.5l-79 60q64 58 93 118.5zM176 248h623v-330h-107v243h-516v87zM328.5 487q30.5 74 36.5 175h-85v87h186
q0 -153 -31.5 -260.5t-119.5 -198.5l-85 55q68 68 98.5 142z" />
    <glyph glyph-name="uniAE6C" unicode="&#xae6c;" 
d="M799 809v-655h-102v306h-81v-280h-102v613h102v-245h81v261h102zM122.5 496q29.5 64 35.5 155h-104v87h204q0 -96 -12 -168t-45 -135.5t-93 -123.5l-80 60q65 61 94.5 125zM184 222h108v-198h532v-88h-640v286zM331 469.5q29 76.5 34 181.5h-85v87h184q0 -157 -29.5 -266
t-114.5 -204l-84 54q66 71 95 147.5z" />
    <glyph glyph-name="uniAE6F" unicode="&#xae6f;" 
d="M805 254v-86h-522v-151h532v-87h-641v324h631zM119.5 523.5q28.5 59.5 35.5 145.5h-104v87h205q0 -93 -12.5 -162.5t-44.5 -129.5t-91 -117l-80 59q63 58 91.5 117.5zM330 496q28 72 34 173h-84v87h184q0 -101 -11 -177.5t-41.5 -145.5t-87.5 -133l-86 56q64 68 92 140z
M514 794h102v-198h81v213h102v-509h-102v208h-81v-203h-102v489z" />
    <glyph glyph-name="uniAE70" unicode="&#xae70;" 
d="M799 809v-457h-102v178h-82v-174h-101v438h101v-177h82v192h102zM121 547q29 51 37 127h-104v87h202q0 -88 -12.5 -152t-45.5 -119t-93 -107l-75 62q62 51 91 102zM200 315h599v-229h-488v-71h517v-85h-626v235h488v65h-490v85zM329.5 522q29.5 63 35.5 152h-87v87h187
q0 -96 -12 -166.5t-44.5 -133.5t-93.5 -121l-80 59q65 60 94.5 123z" />
    <glyph glyph-name="uniAE78" unicode="&#xae78;" 
d="M799 809v-509h-102v208h-81v-203h-101v489h101v-198h81v213h102zM120.5 523.5q28.5 59.5 35.5 145.5h-105v87h205q0 -93 -12.5 -162.5t-44.5 -129.5t-91 -117l-79 59q63 58 91.5 117.5zM200 261h599v-331h-599v331zM330 496q28 72 34 173h-84v87h185q0 -101 -11 -177.5
t-42 -145.5t-88 -133l-86 56q64 68 92 140zM694 16v160h-388v-160h388z" />
    <glyph glyph-name="uniAE79" unicode="&#xae79;" 
d="M799 809v-484h-103v193h-78v-187h-102v461h102v-187h78v204h103zM125.5 533.5q29.5 58.5 36.5 143.5h-106v87h205q0 -93 -12.5 -162t-45.5 -128.5t-94 -115.5l-77 59q64 58 93.5 116.5zM200 288h107v-90h385v90h107v-358h-599v358zM335.5 510q26.5 69 31.5 167h-84v87
h183q0 -100 -9.5 -173t-38.5 -140t-85 -129l-86 52q62 67 88.5 136zM692 17v97h-385v-97h385z" />
    <glyph glyph-name="uniAE7B" unicode="&#xae7b;" 
d="M799 810v-578h-103v269h-80v-195h-101v487h101v-205h80v222h103zM122 503.5q28 63.5 35 154.5h-104v87h202q0 -97 -11.5 -168t-42.5 -134t-89 -122l-80 58q62 61 90 124.5zM306.5 54.5q66.5 34.5 103 83t36.5 101.5v31h108v-31q0 -53 36 -101.5t102 -83t152 -46.5
l-42 -86q-104 17 -183 64t-120 116q-41 -69 -120 -116t-183 -64l-42 86q86 12 152.5 46.5zM331 473.5q29 78.5 34 184.5h-87v87h186q0 -157 -29.5 -268t-114.5 -208l-85 54q67 72 96 150.5z" />
    <glyph glyph-name="uniAE7C" unicode="&#xae7c;" 
d="M798 809v-510h-102v208h-79v-200h-102v486h102v-199h79v215h102zM121.5 517q28.5 59 35.5 143h-105v87h205q0 -92 -12.5 -160.5t-44.5 -128.5t-92 -116l-78 60q63 56 91.5 115zM215.5 97q44.5 61 44.5 129v38h105v-38q0 -59 27 -112.5t81 -89.5q55 38 83.5 93.5
t28.5 108.5v38h106v-38q0 -73 44 -132.5t127 -86.5l-53 -79q-62 22 -105.5 63t-66.5 96q-50 -122 -162 -167q-116 45 -163 162q-25 -52 -68 -92t-102 -62l-53 79q82 29 126.5 90zM330.5 491.5q27.5 70.5 33.5 168.5h-85v87h185q0 -99 -11 -173.5t-41.5 -142.5t-87.5 -131
l-84 56q63 65 90.5 135.5z" />
    <glyph glyph-name="uniAE7D" unicode="&#xae7d;" 
d="M800 809v-538h-103v224h-78v-195h-102v493h102v-209h78v225h103zM123 505q29 60 36 147h-105v88h204q0 -94 -12 -163.5t-44 -130.5t-91 -118l-80 59q63 58 92 118zM230.5 179q37.5 38 107 58.5t163.5 20.5q93 0 162.5 -20.5t107 -58.5t37.5 -90t-37.5 -90t-107 -58.5
t-162.5 -20.5q-94 0 -163.5 20.5t-107 58.5t-37.5 90t37.5 90zM330 481q29 72 35 171h-85v88h184q0 -101 -11.5 -176.5t-43 -144t-89.5 -131.5l-83 55q64 66 93 138zM353.5 25q52.5 -22 147.5 -22q94 0 146 22t52 64t-52 64t-146 22q-95 0 -147.5 -22t-52.5 -64t52.5 -64z
" />
    <glyph glyph-name="uniAE84" unicode="&#xae84;" 
d="M737 810v-229h122v-89h-122v-176h122v-90h-122v-307h-108v891h108zM150 377.5q39 108.5 45 250.5h-139v88h242q0 -128 -15.5 -230.5t-57.5 -196.5t-118 -177l-86 61q90 96 129 204.5zM397.5 344.5q36.5 123.5 42.5 283.5h-113v88h214q0 -137 -14 -248t-54 -216.5
t-115 -197.5l-86 60q89 107 125.5 230.5z" />
    <glyph glyph-name="uniAE85" unicode="&#xae85;" 
d="M730 809v-122h119v-90h-119v-99h119v-88h-119v-131h-108v530h108zM145.5 513.5q38.5 60.5 48.5 146.5h-135v87h237q0 -142 -44.5 -239.5t-155.5 -175.5l-68 68q79 53 117.5 113.5zM143 241h587v-323h-108v235h-479v88zM395.5 492q38.5 72 47.5 168h-112v87h214
q0 -149 -42.5 -257t-148.5 -196l-76 64q79 62 117.5 134z" />
    <glyph glyph-name="uniAE86" unicode="&#xae86;" 
d="M295 754q0 -143 -43.5 -240t-148.5 -176l-78 68q75 55 112 113.5t47 142.5h-129v92h240zM104 261h305v-343h-109v255h-196v88zM391.5 497q35.5 69 45.5 165h-110v92h220q0 -148 -40 -255.5t-134 -197.5l-88 63q71 64 106.5 133zM447 261h298v-343h-109v255h-189v88z
M638 809h108v-121h106v-91h-106v-106h106v-92h-106v-106h-108v516z" />
    <glyph glyph-name="uniAE8C" unicode="&#xae8c;" 
d="M730 809v-97h118v-85h-118v-80h118v-86h-118v-103h-108v451h108zM140.5 546q37.5 53 48.5 131h-134v86h238q0 -133 -45 -222.5t-149 -163.5l-70 67q74 49 111.5 102zM149 319h581v-231h-473v-73h505v-85h-612v237h473v68h-474v84zM393.5 528q37.5 62 47.5 149h-115v86
h218q0 -141 -43 -238.5t-147 -177.5l-75 64q77 55 114.5 117z" />
    <glyph glyph-name="uniAE8D" unicode="&#xae8d;" 
d="M745 308v-389h-113v302h-182v87h295zM138 549q38 50 49 124h-130v90h241q0 -131 -45.5 -219t-147.5 -162l-76 70q71 47 109 97zM106 308h308v-227h-198v-74q88 1 142 4.5t111 14.5l9 -84q-68 -12 -132.5 -15.5t-180.5 -3.5h-58v234h199v67h-200v84zM398 530.5
q34 58.5 43 142.5h-109v90h221q0 -138 -39 -234t-131 -175l-87 61q68 57 102 115.5zM638 809h108v-104h105v-87h-105v-90h105v-88h-105v-89h-108v458z" />
    <glyph glyph-name="uniAEBC" unicode="&#xaebc;" 
d="M769 810v-891h-108v466h-148q-40 -191 -156 -331l-84 60q88 107 124.5 231t41.5 283h-112v88h215q0 -143 -14 -244h133v338h108zM151 377.5q39 108.5 45 250.5h-138v88h241q0 -128 -15.5 -230.5t-57 -196.5t-117.5 -177l-86 61q89 96 128 204.5z" />
    <glyph glyph-name="uniAEBD" unicode="&#xaebd;" 
d="M769 241v-322h-108v234h-495v88h603zM148 513q38 62 47 151h-132v86h235q0 -144 -44 -242.5t-153 -178.5l-70 67q79 55 117 117zM397 492q38 73 46 172h-113v86h215q0 -95 -14 -166h130v225h108v-530h-108v219h-155q-45 -117 -150 -207l-76 63q79 65 117 138z" />
    <glyph glyph-name="uniAEBE" unicode="&#xaebe;" 
d="M769 809v-517h-108v208h-156q-44 -112 -148 -200l-76 62q78 64 116 135.5t46 169.5h-114v86h216q0 -96 -15 -166h131v222h108zM147 519q38 61 48 148h-132v86h235q0 -142 -44 -239.5t-153 -176.5l-70 67q78 54 116 115zM139 255h297v-336h-108v249h-189v87zM474 255h295
v-336h-107v249h-188v87z" />
    <glyph glyph-name="uniAEC0" unicode="&#xaec0;" 
d="M769 806v-649h-109v307h-151q-45 -118 -153 -209l-72 66q81 67 118.5 146t45.5 184h-113v88h215q0 -111 -16 -188h126v255h109zM152.5 490.5q38.5 67.5 47.5 160.5h-132v88h235q0 -149 -44 -254t-154 -189l-70 68q79 59 117.5 126.5zM181 213h108v-189h502v-88h-610v277z
" />
    <glyph glyph-name="uniAEC4" unicode="&#xaec4;" 
d="M255 548.5q-44 -87.5 -148 -161.5l-69 67q72 49 109 100t48 127h-131v87h235q0 -132 -44 -219.5zM178 314h590v-230h-481v-74h505v-85h-612v238h480v66h-482v85zM399.5 532q36.5 62 45.5 149h-116v87h218q0 -90 -14 -156h127v197h108v-456h-108v173h-155
q-42 -97 -143 -175l-75 63q76 56 112.5 118z" />
    <glyph glyph-name="uniAECC" unicode="&#xaecc;" 
d="M254 514q-44 -97 -153 -176l-70 68q78 54 116 114t47 146h-131v87h235q0 -142 -44 -239zM180 269h589v-339h-589v339zM397.5 499q37.5 71 45.5 167h-112v87h214q0 -89 -13 -161h129v216h108v-501h-108v197h-154q-42 -112 -147 -202l-77 63q77 63 114.5 134zM663 16v167
h-377v-167h377z" />
    <glyph glyph-name="uniAECD" unicode="&#xaecd;" 
d="M769 808v-476h-108v177h-152q-45 -110 -143 -194l-77 61q76 62 112 132t44 167h-111v86h215q0 -94 -14 -164h126v211h108zM151 530.5q38 59.5 47 144.5h-131v86h235q0 -141 -44 -237t-152 -174l-70 67q77 54 115 113.5zM186 290h107v-95h369v95h107v-360h-583v360z
M662 17v94h-369v-94h369z" />
    <glyph glyph-name="uniAECF" unicode="&#xaecf;" 
d="M768 809v-603h-108v278h-153q-44 -112 -145 -198l-78 61q78 64 115 137.5t45 172.5h-112v88h216q0 -96 -16 -175h128v239h108zM149.5 507q38.5 62 48.5 150h-133v88h235q0 -144 -44 -243t-152 -179l-71 67q78 55 116.5 117zM285.5 56q64.5 35 99.5 85t35 106v26h108v-26
q0 -56 34.5 -105t99 -84t151.5 -49l-43 -85q-103 19 -179.5 66t-117.5 115q-40 -70 -117 -117.5t-180 -66.5l-41 86q86 14 150.5 49z" />
    <glyph glyph-name="uniAED0" unicode="&#xaed0;" 
d="M252.5 514q-44.5 -97 -153.5 -176l-69 68q78 55 116 115t47 146h-132v86h236q0 -142 -44.5 -239zM197.5 97.5q44.5 61.5 44.5 130.5v42h105v-42q0 -59 27 -113t81 -91q55 38 83.5 94t28.5 110v42h107v-42q0 -74 43.5 -134t126.5 -87l-53 -79q-62 22 -105.5 62.5
t-66.5 95.5q-23 -56 -63.5 -99t-97.5 -67q-60 23 -101 65.5t-63 98.5q-24 -53 -66.5 -93.5t-102.5 -62.5l-54 79q82 29 126.5 90.5zM397 501q37 70 45 166h-112v86h214q0 -95 -15 -165h130v221h109v-508h-109v199h-156q-43 -108 -144 -195l-75 63q76 63 113 133z" />
    <glyph glyph-name="uniAED1" unicode="&#xaed1;" 
d="M769 809v-531h-108v216h-160q-44 -106 -144 -190l-75 62q77 62 115 133.5t46 166.5h-113v87h215q0 -97 -17 -172h133v228h108zM147 519q38 61 47 147h-131v87h235q0 -143 -44.5 -240.5t-154.5 -175.5l-69 67q79 54 117 115zM212.5 187.5q36.5 39.5 104.5 60.5t158 21
q91 0 158.5 -21t104.5 -60.5t37 -92.5q0 -54 -36.5 -93.5t-104.5 -60.5t-159 -21t-158.5 21t-104 60.5t-36.5 93.5q0 53 36.5 92.5zM334 28q51 -24 141 -24q91 0 142 24t51 67t-51 66.5t-142 23.5t-141.5 -23.5t-50.5 -66.5t51 -67z" />
    <glyph glyph-name="uniAED3" unicode="&#xaed3;" 
d="M253.5 532q-43.5 -92 -151.5 -167l-70 68q77 49 114.5 105t47.5 138h-132v86h235q0 -138 -43.5 -230zM272 33q62 22 99.5 53.5t46.5 66.5h-250v81h253v86h110v-86h254v-81h-250q9 -34 46 -65.5t98 -54t139 -29.5l-35 -82q-106 12 -186 50.5t-121 94.5q-40 -56 -121 -94.5
t-188 -50.5l-35 82q78 7 140 29zM397.5 518.5q36.5 65.5 44.5 157.5h-112v86h214q0 -93 -15 -160h131v206h108v-506h-108v213h-158q-43 -103 -141 -182l-76 61q76 59 112.5 124.5z" />
    <glyph glyph-name="uniAED5" unicode="&#xaed5;" 
d="M290 766q0 -132 -42 -221t-142 -163l-75 69q69 48 104.5 98.5t45.5 125.5h-125v91h234zM160 306h621v-80h-513v-70h505v-76h-505v-71h527v-80h-635v377zM384 529.5q33 59.5 42 145.5h-112v91h223q0 -78 -12 -144h142v187h108v-458h-108v183h-166q-40 -103 -131 -187
l-87 63q68 60 101 119.5z" />
    <glyph glyph-name="uniAED8" unicode="&#xaed8;" 
d="M222 382q-30 -144 -111 -265l-83 45q68 100 97.5 209t34.5 247h-108v88h200q0 -180 -30 -324zM326 341.5q27 121.5 30 276.5h-77v88h170q0 -137 -10 -237h90v320h101v-827h-101v420h-101q-32 -186 -119 -314l-83 46q73 106 100 227.5zM697 809h104v-891h-104v891z" />
    <glyph glyph-name="uniAED9" unicode="&#xaed9;" 
d="M797 809v-525h-102v525h102zM122 518q29 59 36 144h-102v87h200q0 -137 -30.5 -230.5t-113.5 -176.5l-79 57q60 60 89 119zM172 245h625v-327h-108v240h-517v87zM325 487.5q29 73.5 35 174.5h-82v87h180q0 -95 -9 -159h79v201h101v-500h-101v212h-96q-33 -119 -118 -211
l-84 54q66 68 95 141.5z" />
    <glyph glyph-name="uniAEDC" unicode="&#xaedc;" 
d="M293 217v-187h525v-88h-632v275h107zM122 494q29 65 36 158h-102v87h200q0 -96 -12 -168t-43.5 -136.5t-89.5 -124.5l-82 56q64 63 93 128zM324.5 466q28.5 78 34.5 186h-81v87h180q0 -111 -11 -181h82v233h101v-621h-101v301h-100q-33 -117 -117 -210l-84 55
q68 72 96.5 150zM695 808h102v-655h-102v655z" />
    <glyph glyph-name="uniAEE8" unicode="&#xaee8;" 
d="M797 808v-511h-102v511h102zM122.5 518q28.5 61 35.5 150h-102v86h200q0 -140 -30.5 -234.5t-114.5 -177.5l-80 55q63 60 91.5 121zM200 261h596v-331h-596v331zM325 493.5q29 73.5 35 174.5h-82v86h180q0 -93 -10 -169h80v206h101v-489h-101v195h-100
q-32 -109 -115 -199l-83 54q66 68 95 141.5zM691 16v160h-385v-160h385z" />
    <glyph glyph-name="uniAEEB" unicode="&#xaeeb;" 
d="M797 808v-587h-103v587h103zM121.5 506.5q28.5 62.5 35.5 152.5h-102v88h201q0 -143 -30.5 -239t-115.5 -180l-80 57q63 59 91.5 121.5zM299 60q66 34 102 81.5t36 100.5v27h113v-27q0 -52 36 -100t102 -82t152 -46l-42 -85q-105 16 -184 63.5t-120 116.5
q-41 -69 -120.5 -116.5t-183.5 -63.5l-43 85q86 12 152 46zM325 478.5q29 76.5 34 180.5h-81v88h180q0 -99 -9 -166h77v210h102v-491h-102v194h-94q-33 -121 -117 -216l-84 53q65 71 94 147.5z" />
    <glyph glyph-name="uniAEED" unicode="&#xaeed;" 
d="M797 809v-537h-102v537h102zM122.5 514.5q28.5 60.5 35.5 149.5h-101v87h199q0 -142 -30.5 -236t-114.5 -178l-80 57q63 60 91.5 120.5zM250 209.5q85 44.5 235 44.5t235 -44.5t85 -123.5t-85 -123t-235 -44t-235 44t-85 123t85 123.5zM327 488.5q28 73.5 33 175.5h-82
v87h180q0 -101 -9 -168h79v208h101v-491h-101v195h-97q-34 -115 -113 -204l-84 54q65 70 93 143.5zM329.5 24.5q53.5 -20.5 155.5 -20.5t155.5 20.5t53.5 61.5t-54 62.5t-155 21.5q-102 0 -155.5 -21.5t-53.5 -62.5t53.5 -61.5z" />
    <glyph glyph-name="uniAEF4" unicode="&#xaef4;" 
d="M769 810v-891h-108v338h-189q-42 -109 -114 -198l-87 58q85 108 123.5 231.5t44.5 278.5h-110v89h212q0 -75 -4 -135h124v229h108zM151 383q40 107 47 244h-138v89h241q0 -189 -42 -333t-151 -264l-83 62q86 95 126 202zM661 344v150h-132q-9 -73 -29 -150h161z" />
    <glyph glyph-name="uniAEF8" unicode="&#xaef8;" 
d="M660 427v126h-133q-17 -88 -58 -161t-113 -137l-74 65q79 69 115.5 147.5t44.5 183.5h-109v88h209q0 -56 -4 -99h122v166h109v-651h-109v186h-146v86h146zM152.5 490.5q37.5 67.5 46.5 160.5h-131v88h234q0 -149 -43.5 -253.5t-152.5 -189.5l-70 68q79 59 116.5 126.5z
M181 212h108v-188h502v-88h-610v276z" />
    <glyph glyph-name="uniAEFC" unicode="&#xaefc;" 
d="M660 519v92h-131q-17 -78 -57 -140.5t-111 -117.5l-76 62q76 56 112 117.5t45 148.5h-114v87h216q0 -39 -3 -75h119v116h108v-456h-108v84h-140v82h140zM147 555q37 51 48 126h-131v87h235q0 -131 -44.5 -218.5t-147.5 -160.5l-69 68q72 47 109 98zM178 314h590v-230
h-481v-74h505v-85h-612v238h480v66h-482v85z" />
    <glyph glyph-name="uniAF07" unicode="&#xaf07;" 
d="M660 457v110h-133q-17 -83 -57 -152.5t-109 -130.5l-79 61q78 66 114.5 139t44.5 173h-110v88h212q0 -52 -4 -91h121v155h108v-606h-108v166h-144v88h144zM149.5 507q38.5 62 48.5 150h-133v88h235q0 -144 -44 -243t-152 -179l-71 67q78 55 116.5 117zM285.5 54
q64.5 34 99.5 82.5t35 103.5v21h108v-21q0 -55 34.5 -103t99 -82t151.5 -47l-42 -84q-103 17 -180 62.5t-118 113.5q-40 -68 -117 -114.5t-181 -63.5l-40 85q86 13 150.5 47z" />
    <glyph glyph-name="uniAF08" unicode="&#xaf08;" 
d="M659 481v102h-135q-18 -82 -58 -149.5t-109 -127.5l-77 62q76 63 112.5 133t44.5 166h-107v86h209q0 -42 -3 -83h123v139h109v-508h-109v92h-144v88h144zM146 521q38 60 47 146h-132v86h236q0 -142 -44.5 -239t-153.5 -176l-69 68q78 55 116 115zM197.5 97.5
q44.5 61.5 44.5 130.5v42h105v-42q0 -59 27 -113t81 -91q55 38 83.5 94t28.5 110v42h107v-42q0 -74 43.5 -134t126.5 -87l-53 -79q-62 22 -105.5 62.5t-66.5 95.5q-23 -56 -63.5 -99t-97.5 -67q-60 23 -101 65.5t-63 98.5q-24 -53 -66.5 -93.5t-102.5 -62.5l-54 79
q82 29 126.5 90.5z" />
    <glyph glyph-name="uniAF09" unicode="&#xaf09;" 
d="M769 809v-531h-108v118h-145v88h145v98h-132q-19 -83 -60 -151t-112 -127l-75 62q77 62 115 133.5t46 166.5h-113v87h215q0 -43 -3 -84h119v140h108zM147 519q38 61 47 147h-131v87h235q0 -143 -44.5 -240.5t-154.5 -175.5l-69 67q79 54 117 115zM212.5 187.5
q36.5 39.5 104.5 60.5t158 21q91 0 158.5 -21t104.5 -60.5t37 -92.5q0 -54 -36.5 -93.5t-104.5 -60.5t-159 -21t-158.5 21t-104 60.5t-36.5 93.5q0 53 36.5 92.5zM334 28q51 -24 141 -24q91 0 142 24t51 67t-51 66.5t-142 23.5t-141.5 -23.5t-50.5 -66.5t51 -67z" />
    <glyph glyph-name="uniAF0D" unicode="&#xaf0d;" 
d="M772 295v-81h-478v-62h465v-77h-465v-65h492v-80h-600v365h586zM149 534.5q37 58.5 47 143.5h-129v86h233q0 -141 -43.5 -236t-151.5 -172l-70 67q77 53 114 111.5zM390 513q37 69 45 165h-105v86h206q0 -42 -3 -81h127v125h109v-475h-109v82h-145v85h145v98h-139
q-17 -82 -57.5 -149t-112.5 -126l-77 61q79 60 116 129z" />
    <glyph glyph-name="uniAF10" unicode="&#xaf10;" 
d="M222 382q-30 -144 -111 -265l-83 45q68 100 97.5 209t34.5 247h-108v88h200q0 -180 -30 -324zM326 341.5q27 121.5 30 276.5h-77v88h170q0 -87 -2 -132h83v215h102v-827h-102v299h-131q-32 -106 -90 -193l-83 46q73 106 100 227.5zM530 348v138h-89q-6 -64 -20 -138h109z
M697 809h104v-891h-104v891z" />
    <glyph glyph-name="uniAF2C" unicode="&#xaf2c;" 
d="M375 725v-41q0 -94 -10 -188.5t-50 -232.5l-107 18q56 182 60 357h-174v87h281zM34 130h365v275h107v-275h332v-88h-804v88zM443 725h309v-60q0 -100 -5 -188t-26 -210l-107 13q32 174 32 358h-203v87z" />
    <glyph glyph-name="uniAF2D" unicode="&#xaf2d;" 
d="M754 771v-48q0 -67 -4.5 -127t-21.5 -136l-105 12q24 105 26 213h-205v86h310zM35 397h363v164h107v-164h332v-87h-802v87zM101 771h273v-35q0 -65 -7.5 -130t-35.5 -147l-104 15q37 114 41 211h-167v86zM122 229h615v-305h-108v219h-507v86z" />
    <glyph glyph-name="uniAF30" unicode="&#xaf30;" 
d="M754 765v-50q0 -70 -4.5 -132.5t-21.5 -142.5l-106 12q25 111 27 228h-205v85h310zM35 375h363v167h107v-167h332v-86h-802v86zM101 765h273v-39q0 -69 -8 -136t-37 -152l-104 18q39 116 43 224h-167v85zM138 216h109v-192h505v-87h-614v279z" />
    <glyph glyph-name="uniAF32" unicode="&#xaf32;" 
d="M540 253v65h106v-65h148v-80h-405v80h151zM35 438h363v144h107v-144h332v-87h-802v87zM101 775h273v-42q0 -61 -7.5 -119.5t-36.5 -129.5l-104 17q38 99 42 188h-167v86zM124 263h105v-232q92 5 167 27l13 -87q-60 -17 -117.5 -23t-119.5 -6h-48v321zM478 119
q45 32 114 32t114 -32t45 -83q0 -52 -45 -84t-114 -32t-114 32t-45 84q0 51 45 83zM444 775h310v-44q0 -62 -4.5 -118.5t-21.5 -126.5l-105 11q22 90 26 192h-205v86zM543.5 2.5q18.5 -11.5 48.5 -11.5t48.5 11.5t18.5 33.5q0 20 -18.5 31.5t-48.5 11.5q-29 0 -48 -11.5
t-19 -31.5q0 -22 18.5 -33.5z" />
    <glyph glyph-name="uniAF33" unicode="&#xaf33;" 
d="M754 771v-47q0 -65 -4.5 -124t-21.5 -133l-105 11q24 107 26 207h-205v86h310zM35 410h363v159h107v-159h332v-88h-802v88zM101 771h273v-35q0 -63 -7.5 -126.5t-35.5 -143.5l-104 15q37 110 41 204h-167v86zM131 232h606v-87h-498v-128h510v-86h-618v301z" />
    <glyph glyph-name="uniAF34" unicode="&#xaf34;" 
d="M754 784v-44q0 -59 -4.5 -113.5t-20.5 -122.5l-106 13q22 89 26 180h-205v87h310zM35 460h362v135h107v-135h333v-87h-802v87zM101 784h273v-42q0 -59 -7.5 -115.5t-36.5 -125.5l-104 17q38 97 42 179h-167v87zM137 311h597v-228h-489v-71h519v-85h-625v236h488v64h-490
v84z" />
    <glyph glyph-name="uniAF3C" unicode="&#xaf3c;" 
d="M753 773v-47q0 -67 -4.5 -127t-20.5 -135l-106 11q25 106 27 213h-206v85h310zM35 411h363v156h107v-156h332v-88h-802v88zM101 773h273v-35q0 -64 -7.5 -128t-35.5 -146l-104 15q37 114 41 209h-167v85zM133 242h604v-311h-604v311zM631 16v141h-392v-141h392z" />
    <glyph glyph-name="uniAF3D" unicode="&#xaf3d;" 
d="M753 776v-48q0 -66 -4.5 -125.5t-20.5 -133.5l-106 11q25 103 27 211h-206v85h310zM35 420h363v149h107v-149h332v-87h-802v87zM101 776h273v-35q0 -64 -7.5 -128t-35.5 -145l-104 15q37 113 41 208h-167v85zM137 278h107v-86h384v86h107v-348h-598v348zM628 17v91h-384
v-91h384z" />
    <glyph glyph-name="uniAF3F" unicode="&#xaf3f;" 
d="M753 767v-48q0 -68 -4.5 -128t-20.5 -136l-106 12q25 103 27 214h-206v86h310zM35 398h363v160h107v-160h332v-87h-802v87zM244.5 51.5q66.5 32.5 102 78.5t35.5 98v31h107v-31q0 -52 35.5 -98t102 -78.5t155.5 -44.5l-39 -84q-107 17 -186.5 60.5t-121.5 108.5
q-41 -65 -121 -108.5t-187 -60.5l-38 84q89 12 155.5 44.5zM101 767h273v-35q0 -65 -7.5 -130t-35.5 -148l-104 15q37 115 41 212h-167v86z" />
    <glyph glyph-name="uniAF41" unicode="&#xaf41;" 
d="M661.5 211.5q82.5 -44.5 82.5 -124.5q0 -78 -82.5 -122.5t-227.5 -44.5q-144 0 -226.5 44t-82.5 123q0 80 82 124.5t227 44.5t227.5 -44.5zM35 402h363v161h107v-161h332v-87h-802v87zM101 771h273v-35q0 -64 -7.5 -128.5t-35.5 -145.5l-104 14q37 114 41 210h-167v85z
M287.5 25.5q51.5 -21.5 146.5 -21.5q96 0 147.5 21.5t51.5 61.5q0 42 -51.5 63t-147.5 21t-147 -21t-51 -63q0 -40 51.5 -61.5zM443 771h310v-48q0 -67 -4.5 -127t-20.5 -134l-106 11q25 104 27 213h-206v85z" />
    <glyph glyph-name="uniAF42" unicode="&#xaf42;" 
d="M753 774v-48q0 -66 -4.5 -125.5t-20.5 -133.5l-106 11q25 107 27 210h-206v86h310zM35 416h363v155h107v-155h332v-87h-802v87zM272.5 64q72.5 43 96.5 103h-240v85h616v-85h-242q24 -60 96.5 -103t180.5 -58l-39 -84q-107 17 -186 60.5t-119 109.5q-40 -65 -119 -108.5
t-185 -60.5l-40 84q108 14 180.5 57zM101 774h273v-35q0 -64 -7.5 -127.5t-35.5 -145.5l-104 15q37 111 41 207h-167v86z" />
    <glyph glyph-name="uniAF43" unicode="&#xaf43;" 
d="M754 778v-45q0 -62 -4.5 -118.5t-21.5 -128.5l-105 13q22 90 26 192h-206v87h311zM35 442h363v136h107v-136h332v-87h-802v87zM237 36q60 23 96.5 56t45.5 70h-243v84h245v80h109v-80h246v-84h-244q9 -37 45.5 -70t97 -56t137.5 -31l-38 -82q-103 13 -180.5 51t-118.5 95
q-40 -57 -118 -95.5t-180 -50.5l-37 82q77 8 137 31zM101 778h273v-42q0 -62 -7.5 -120.5t-36.5 -130.5l-105 17q39 103 43 189h-167v87z" />
    <glyph glyph-name="uniAF45" unicode="&#xaf45;" 
d="M754 784v-44q0 -59 -4.5 -114t-20.5 -123l-106 12q22 90 26 182h-205v87h310zM35 452h362v137h107v-137h333v-86h-802v86zM101 784h273v-42q0 -60 -7.5 -116.5t-36.5 -125.5l-104 17q38 99 42 180h-167v87zM133 293h610v-79h-502v-62h482v-77h-482v-66h509v-80h-617v364z
" />
    <glyph glyph-name="uniAF48" unicode="&#xaf48;" 
d="M259 711v-56q0 -86 -8 -163t-39 -180l-99 21q26 85 35 153t10 137h-108v88h209zM268 192v245h100v-240q107 6 214 20l6 -80q-213 -38 -549 -38l-10 89q124 0 239 4zM305 711h246v-65q0 -85 -4 -157.5t-19 -164.5l-99 13q21 135 21 286h-145v88zM629 809h108v-365h118v-90
h-118v-436h-108v891z" />
    <glyph glyph-name="uniAF49" unicode="&#xaf49;" 
d="M259 751v-49q0 -67 -6 -127t-30 -135l-100 15q33 108 35 209h-101v87h202zM264 378v165h98v-161q115 5 217 18l7 -78q-123 -21 -257.5 -27.5t-289.5 -6.5l-9 87q151 0 234 3zM133 220h607v-297h-108v210h-499v87zM304 751h237v-56q0 -66 -4.5 -123t-22.5 -127l-102 12
q15 58 20 106.5t6 100.5h-134v87zM632 808h108v-239h108v-90h-108v-221h-108v550z" />
    <glyph glyph-name="uniAF50" unicode="&#xaf50;" 
d="M259 763v-44q0 -60 -6 -115t-29 -122l-100 14q31 96 33 180h-100v87h202zM264 432v141h98v-138q123 6 222 19l7 -76q-125 -20 -261 -26.5t-292 -6.5l-10 84q152 0 236 3zM139 293h601v-218h-491v-66h519v-82h-627v225h490v61h-492v80zM304 763h237v-51q0 -59 -4.5 -111.5
t-20.5 -115.5l-102 13q22 86 24 178h-134v87zM632 809h108v-203h108v-88h-108v-189h-108v480z" />
    <glyph glyph-name="uniAF5C" unicode="&#xaf5c;" 
d="M259 755v-48q0 -66 -6 -125.5t-30 -133.5l-100 14q33 105 35 207h-101v86h202zM264 386v161h98v-157q122 7 217 19l7 -76q-123 -21 -256 -27t-292 -6l-8 84q150 0 234 2zM187.5 95q41.5 57 41.5 124v25h104v-25q0 -56 27.5 -107.5t81.5 -85.5q55 35 83.5 87t28.5 106v25
h107v-25q0 -70 41 -126.5t121 -81.5l-53 -80q-118 42 -164 149q-23 -54 -64 -95t-99 -63q-59 22 -99.5 63t-62.5 94q-23 -51 -64.5 -89.5t-98.5 -58.5l-52 80q80 27 121.5 84zM304 755h237v-54q0 -66 -4.5 -122.5t-20.5 -126.5l-102 12q13 58 18 106t6 99h-134v86zM632 808
h108v-222h108v-90h-108v-218h-108v530z" />
    <glyph glyph-name="uniAF5D" unicode="&#xaf5d;" 
d="M666.5 203.5q79.5 -42.5 79.5 -119.5q0 -76 -80 -118.5t-221 -42.5t-221.5 42.5t-80.5 118.5q0 77 80 119.5t222 42.5t221.5 -42.5zM264 388v163h98v-159q135 9 217 21l7 -78q-124 -22 -261 -29.5t-286 -7.5l-9 87q149 0 234 3zM57 755h202v-48q0 -66 -6 -125.5
t-30 -133.5l-100 14q33 105 35 207h-101v86zM300.5 25.5q49.5 -19.5 144.5 -19.5q94 0 143.5 19.5t49.5 58.5t-49.5 59t-143.5 20t-144 -20t-50 -59t49.5 -58.5zM304 755h237v-53q0 -66 -4.5 -122.5t-22.5 -125.5l-102 12q24 97 26 203h-134v86zM632 808h108v-230h108v-89
h-108v-231h-108v550z" />
    <glyph glyph-name="uniAF64" unicode="&#xaf64;" 
d="M311 435v-217q96 5 176 15l6 -76q-164 -33 -456 -33l-14 88q125 0 197 2v221h91zM42 708h180v-49q0 -77 -7 -148.5t-33 -165.5l-94 13q38 132 40 262h-86v88zM262 708h207v-69q0 -81 -3.5 -147.5t-16.5 -147.5l-92 13q11 73 14.5 133t3.5 130h-113v88zM522 792h102v-339
h74v357h104v-891h-104v447h-74v-405h-102v831z" />
    <glyph glyph-name="uniAF65" unicode="&#xaf65;" 
d="M317 548v-159q108 5 172 14l8 -77q-166 -29 -458 -31l-14 87q91 0 200 3v163h92zM47 752h179v-41q0 -67 -6.5 -126.5t-32.5 -133.5l-87 24q33 102 35 190h-88v87zM186 228h614v-310h-108v222h-506v88zM264 752h206v-55q0 -65 -3 -120.5t-16 -122.5l-90 8q16 89 18 203
h-115v87zM527 791h100v-214h70v232h103v-546h-103v227h-70v-222h-100v523z" />
    <glyph glyph-name="uniAF78" unicode="&#xaf78;" 
d="M316 548v-158q88 4 172 14l8 -76q-172 -30 -458 -32l-13 87q90 0 199 3v162h92zM46 752h179v-41q0 -67 -6.5 -126.5t-32.5 -133.5l-87 24q33 102 35 190h-88v87zM209 78q44 57 44 125v25h105v-25q0 -56 27.5 -108t82.5 -86q55 35 83.5 87.5t28.5 106.5v25h105v-25
q0 -70 44 -126.5t127 -82.5l-53 -78q-62 21 -105 59.5t-67 90.5q-23 -54 -63.5 -95.5t-99.5 -63.5q-59 22 -99.5 63t-62.5 94q-24 -51 -67 -89.5t-103 -58.5l-53 78q82 27 126 84zM263 752h207v-55q0 -65 -3.5 -120.5t-16.5 -122.5l-90 8q11 56 14.5 103t4.5 100h-116v87z
M526 791h100v-213h70v231h103v-550h-103v231h-70v-222h-100v523z" />
    <glyph glyph-name="uniAF79" unicode="&#xaf79;" 
d="M800 809v-555h-103v236h-70v-206h-101v507h101v-214h70v232h103zM225 388v162h92v-157q106 7 172 17l8 -78q-170 -34 -458 -34l-14 87q89 0 200 3zM47 752h179v-40q0 -67 -6.5 -126t-32.5 -133l-87 23q33 102 35 190h-88v86zM260 205q83 43 230 43q148 0 232 -43t84 -121
t-84 -121.5t-232 -43.5q-147 0 -230 43.5t-83 121.5t83 121zM264 752h206v-54q0 -65 -3 -120.5t-16 -123.5l-90 10q16 89 18 202h-115v86zM339.5 22.5q52.5 -21.5 150.5 -21.5q99 0 151.5 21.5t52.5 61.5q0 41 -52 61.5t-152 20.5q-99 0 -151 -20.5t-52 -61.5
q0 -40 52.5 -61.5z" />
    <glyph glyph-name="uniAF80" unicode="&#xaf80;" 
d="M270 711v-56q0 -87 -7.5 -164.5t-36.5 -180.5l-99 19q25 87 33.5 156t9.5 138h-110v88h210zM288 191v253h100v-249q142 9 228 21l6 -79q-131 -23 -272 -30.5t-301 -7.5l-9 89q160 0 248 3zM322 711h251v-65q0 -86 -4 -159.5t-20 -165.5l-99 14q15 82 19.5 149.5
t4.5 138.5h-152v88zM665 809h107v-891h-107v891z" />
    <glyph glyph-name="uniAF84" unicode="&#xaf84;" 
d="M386 528v-168q119 6 223 18l8 -77q-128 -21 -267.5 -28t-301.5 -8l-8 88q115 0 247 3v172h99zM71 738h206v-49q0 -67 -6.5 -127t-30.5 -134l-100 14q21 62 28.5 112t8.5 98h-106v86zM173 197h109v-173h514v-88h-623v261zM324 738h250v-56q0 -66 -4 -122.5t-20 -126.5
l-98 11q21 96 23 208h-151v86zM663 808h108v-657h-108v657z" />
    <glyph glyph-name="uniAF88" unicode="&#xaf88;" 
d="M275 765v-44q0 -61 -5.5 -116.5t-27.5 -123.5l-99 14q30 91 34 184h-107v86h205zM285 430v149h100v-145q124 7 224 19l7 -75q-128 -21 -265.5 -27.5t-303.5 -7.5l-14 84q163 0 252 3zM166 292h606v-217h-496v-66h523v-82h-631v224h495v62h-497v79zM324 765h249v-50
q0 -61 -4.5 -113.5t-20.5 -116.5l-97 12q20 90 22 182h-149v86zM663 809h109v-481h-109v481z" />
    <glyph glyph-name="uniAF90" unicode="&#xaf90;" 
d="M772 809v-532h-108v532h108zM287 391v164h100v-160q125 6 225 19l6 -77q-129 -22 -270.5 -29t-299.5 -7l-8 86q130 0 247 4zM71 750h206v-48q0 -63 -6 -120t-29 -129l-99 14q18 56 25 102.5t9 93.5h-106v87zM174 234h598v-304h-598v304zM666 16v132h-385v-132h385z
M324 750h250v-53q0 -63 -4.5 -118t-20.5 -122l-98 12q23 95 25 194h-152v87z" />
    <glyph glyph-name="uniAF91" unicode="&#xaf91;" 
d="M281 267v-85h384v85h107v-337h-599v337h108zM287 404v158h100v-154q125 6 225 19l6 -77q-129 -22 -270.5 -29.5t-299.5 -7.5l-8 87q130 0 247 4zM71 756h206v-47q0 -64 -6 -122t-29 -128l-99 14q18 57 25 103t9 93h-106v87zM665 16v85h-384v-85h384zM324 756h250v-54
q0 -63 -4.5 -118t-20.5 -121l-98 12q23 94 25 194h-152v87zM664 809h108v-512h-108v512z" />
    <glyph glyph-name="uniAF95" unicode="&#xaf95;" 
d="M695.5 205.5q80.5 -43.5 80.5 -121.5q0 -77 -81 -120.5t-223 -43.5t-223 43.5t-81 120.5q0 78 80.5 121.5t223.5 43.5t223.5 -43.5zM287 387v165h100v-161q129 7 225 20l6 -78q-129 -22 -270.5 -29.5t-299.5 -7.5l-8 87q130 0 247 4zM71 748h206v-48q0 -63 -6 -120.5
t-29 -128.5l-99 13q18 57 25 103.5t9 93.5h-106v87zM327 23.5q51 -20.5 145 -20.5q95 0 145.5 20.5t50.5 60.5q0 41 -50 61.5t-146 20.5q-95 0 -145.5 -20.5t-50.5 -61.5q0 -40 51 -60.5zM324 748h250v-54q0 -63 -4.5 -118t-21.5 -121l-97 11q23 96 25 195h-152v87zM664 809
h108v-549h-108v549z" />
    <glyph glyph-name="uniAF9C" unicode="&#xaf9c;" 
d="M350 725v-48q0 -72 -6 -135t-29 -149h91v-264h89v264h105v-264h238v-88h-804v88h267v217q-10 -33 -27 -79l-103 30q41 102 55.5 182.5t16.5 156.5h-160v89h267zM424 725h336v-60q0 -97 -6 -188t-30 -215l-105 13q35 181 35 361h-230v89z" />
    <glyph glyph-name="uniAFB8" unicode="&#xafb8;" 
d="M242 388q38 139 40 278h-184v86h289v-45q0 -76 -6 -149t-29 -170h259q18 80 24.5 146.5t7.5 131.5h-193v86h299v-53q0 -76 -5 -147t-24 -164h118v-88h-351v-379h-108v379h-345v88h208z" />
    <glyph glyph-name="uniAFB9" unicode="&#xafb9;" 
d="M398 772v-39q0 -67 -6 -131t-29 -146h245q30 115 32 230h-184v86h288v-48q0 -67 -5 -128t-23 -140h123v-87h-351v-136h246v-312h-108v225h-498v87h253v136h-347v87h221q35 120 37 230h-185v86h291z" />
    <glyph glyph-name="uniAFBC" unicode="&#xafbc;" 
d="M253 426q36 124 40 246h-186v87h291v-41q0 -69 -6.5 -136.5t-30.5 -155.5h244q33 125 35 246h-184v87h288v-47q0 -71 -5.5 -136.5t-25.5 -149.5h126v-87h-336v-201h-108v201h-361v87h219zM138 222h109v-197h504v-88h-613v285z" />
    <glyph glyph-name="uniAFC0" unicode="&#xafc0;" 
d="M260 498q18 57 24.5 103t8.5 92h-186v86h291v-47q0 -60 -5 -114t-23 -120h241q25 94 29 195h-184v86h288v-43q0 -59 -4.5 -113.5t-20.5 -124.5h120v-87h-350v-88h249v-236h-502v-75h527v-85h-634v240h501v71h-503v85h255v88h-348v87h226z" />
    <glyph glyph-name="uniAFC7" unicode="&#xafc7;" 
d="M259 496q18 57 25 103.5t9 94.5h-186v87h291v-48q0 -61 -5 -116t-23 -121h240q26 95 30 198h-184v87h288v-44q0 -60 -4.5 -115.5t-21.5 -125.5h121v-86h-354v-117h-86v-213h-186v-70q80 0 126.5 3t93.5 13l10 -80q-53 -10 -105.5 -12.5t-174.5 -2.5h-54v224h187v62h-188
v80h268v113h-343v86h226zM428 256h136v76h104v-76h138v-79h-378v79zM505 122q43 32 110 32q68 0 111.5 -31.5t43.5 -84.5q0 -54 -43 -86t-112 -32q-67 0 -110 32t-43 86q0 52 43 84zM570 3q17 -12 45 -12q29 0 46 12t17 35q0 21 -17.5 32.5t-45.5 11.5t-45 -11.5t-17 -32.5
q0 -23 17 -35z" />
    <glyph glyph-name="uniAFC8" unicode="&#xafc8;" 
d="M398 769v-40q0 -64 -5.5 -124.5t-25.5 -138.5h244q27 107 29 216h-184v87h288v-47q0 -65 -4.5 -123.5t-20.5 -132.5h120v-87h-351v-128h249v-320h-604v320h248v128h-347v87h225q32 113 34 216h-185v87h290zM631 16v150h-392v-150h392z" />
    <glyph glyph-name="uniAFC9" unicode="&#xafc9;" 
d="M398 773v-37q0 -62 -5.5 -122t-25.5 -137h244q27 109 29 210h-184v86h288v-44q0 -63 -4.5 -120.5t-20.5 -131.5h121v-87h-353v-142h-108v142h-345v87h224q31 107 35 210h-185v86h290zM131 294h107v-98h392v98h108v-363h-607v363zM630 16v95h-392v-95h392z" />
    <glyph glyph-name="uniAFCB" unicode="&#xafcb;" 
d="M257 458q34 116 36 222h-185v87h290v-40q0 -65 -5.5 -127.5t-26.5 -141.5h244q28 111 30 222h-184v87h288v-48q0 -66 -4.5 -125.5t-22.5 -135.5h123v-88h-353v-124h-106v124h-347v88h223zM241 41.5q66 27.5 101.5 66t35.5 79.5v25h111v-25q0 -43 35 -81.5t101 -65
t155 -35.5l-36 -83q-109 13 -189.5 51t-121.5 97q-42 -58 -122 -97t-187 -51l-35 83q86 9 152 36.5z" />
    <glyph glyph-name="uniAFCD" unicode="&#xafcd;" 
d="M398 765v-39q0 -65 -5.5 -127t-26.5 -141h244q28 111 30 221h-184v86h288v-47q0 -66 -4.5 -125t-21.5 -135h121v-87h-351v-108q120 -8 187 -52.5t67 -116.5q0 -81 -82 -125.5t-226 -44.5t-226 44.5t-82 125.5q0 73 67.5 117t187.5 52v108h-347v87h224q33 116 35 221h-185
v86h290zM286 31q52 -22 148 -22t148.5 22t52.5 63q0 42 -52 64t-149 22q-96 0 -148 -22t-52 -64q0 -41 52 -63z" />
    <glyph glyph-name="uniAFCE" unicode="&#xafce;" 
d="M259 468q32 115 34 216h-185v86h290v-39q0 -64 -5 -124.5t-25 -138.5h243q27 108 29 216h-184v86h288v-47q0 -65 -4.5 -123t-20.5 -132h120v-86h-350v-121h256v-87h-244q22 -63 95.5 -107.5t183.5 -58.5l-41 -84q-106 17 -184.5 60.5t-118.5 109.5q-40 -66 -118.5 -109.5
t-184.5 -59.5l-41 84q110 15 183.5 59t95.5 106h-242v87h254v121h-349v86h225z" />
    <glyph glyph-name="uniAFD4" unicode="&#xafd4;" 
d="M779 809v-891h-108v242h-191v84h191v565h108zM166 392q19 74 25 133t7 123h-124v88h227v-60q0 -73 -5 -137t-24 -144q108 4 162 7q18 71 23.5 128.5t5.5 117.5h-119v88h221v-63q0 -71 -4 -130t-19 -133l74 8l8 -80q-94 -14 -245 -25v-369h-108v364q-137 -5 -234 -5
l-14 88z" />
    <glyph glyph-name="uniAFD8" unicode="&#xafd8;" 
d="M308 752v-54q0 -66 -4.5 -122.5t-22.5 -125.5q114 2 171 5q11 57 15 105t5 103h-125v89h231v-58q0 -62 -3 -115t-14 -118l57 5l7 -81q-128 -15 -258 -21v-195h-109v-158h554v-89h-666v270h109v168q-72 -2 -212 -2l-13 90h143q29 107 31 215h-125v89h229zM491 309h196v500
h103v-684h-103v107h-196v77z" />
    <glyph glyph-name="uniAFDC" unicode="&#xafdc;" 
d="M774 809v-493h-108v39h-176v74h176v380h108zM171 533q23 85 25 154h-118v86h223v-43q0 -49 -4 -94.5t-18 -100.5q102 4 147 7q22 74 24 145h-112v86h215v-43q0 -46 -3 -88.5t-15 -92.5l72 7l7 -75q-105 -15 -256 -24v-140h-108v135q-68 -3 -206 -5l-14 85q92 0 141 1z
M164 286h610v-215h-500v-64h528v-80h-636v219h501v61h-503v79z" />
    <glyph glyph-name="uniAFE8" unicode="&#xafe8;" 
d="M774 810v-544h-108v48h-176v77h176v419h108zM168 498q24 84 28 177h-119v87h223v-45q0 -56 -4 -106.5t-20 -110.5q98 4 148 8q21 82 25 167h-112v87h214v-45q0 -52 -3.5 -98t-16.5 -102q49 6 75 10l8 -77q-113 -19 -257 -29v-149h-109v144q-97 -4 -205 -4l-13 85
q89 0 138 1zM202 94.5q44 57.5 44 128.5v17h104v-17q0 -56 28 -109.5t82 -88.5q55 36 83 89t28 109v17h106v-17q0 -72 44 -130t128 -83l-52 -79q-124 40 -174 153q-49 -119 -163 -163q-59 23 -99.5 65t-62.5 97q-24 -53 -67.5 -92.5t-105.5 -59.5l-51 79q84 27 128 84.5z
" />
    <glyph glyph-name="uniAFE9" unicode="&#xafe9;" 
d="M774 809v-561h-107v59h-176v78h176v424h107zM168 497q25 86 29 180h-119v87h223v-46q0 -57 -4.5 -107t-20.5 -112q98 4 148 7q23 84 27 171h-113v87h216v-46q0 -52 -4 -99t-18 -104l74 9l8 -75q-115 -18 -256 -28v-165h-108v159q-97 -4 -206 -4l-13 85q89 0 137 1z
M245 197q81 42 226 42q146 0 227 -41.5t81 -117.5t-81 -118t-227 -42q-145 0 -226 42t-81 118q0 75 81 117zM324.5 21q50.5 -20 146.5 -20q98 0 148.5 20t50.5 59q0 38 -50.5 58t-148.5 20q-96 0 -146.5 -20t-50.5 -58q0 -39 50.5 -59z" />
    <glyph glyph-name="uniAFF0" unicode="&#xaff0;" 
d="M802 810v-891h-103v891h103zM114 403q31 114 33 229h-92v87h187v-53q0 -67 -4.5 -126.5t-22.5 -133.5q58 2 114 6q15 62 20.5 113.5t6.5 106.5h-84v87h180v-56q0 -65 -4 -120t-19 -123q39 4 61 7l7 -75q-85 -16 -188 -24v-338h-102v331q-87 -4 -178 -4l-12 85zM378 259
h149v532h102v-827h-102v211h-149v84z" />
    <glyph glyph-name="uniAFF1" unicode="&#xaff1;" 
d="M797 808v-558h-104v558h104zM124 491q21 83 23 170h-88v86h180v-49q0 -54 -3.5 -101.5t-16.5 -103.5q40 1 122 5q18 76 20 163h-92v86h183v-58q0 -52 -2.5 -93t-12.5 -89q12 1 28 3l24 3l7 -73q-79 -17 -177 -25v-160h-103v154q-67 -3 -181 -3l-13 84zM151 214h646v-293
h-109v208h-537v85zM386 381h140v412h103v-541h-103v54h-140v75z" />
    <glyph glyph-name="uniAFF4" unicode="&#xaff4;" 
d="M796 808v-671h-103v671h103zM121 466q22 90 26 185h-89v87h181v-42q0 -56 -4 -109t-19 -119q41 1 120 5q22 87 24 178h-91v87h182v-51q0 -55 -3 -102t-16 -104q38 4 57 7l7 -75q-74 -15 -177 -23v-157h-104v151q-89 -4 -181 -4l-12 85zM169 195h108v-171h542v-88h-650
v259zM385 342h141v451h102v-638h-102v108h-141v79z" />
    <glyph glyph-name="uniAFF8" unicode="&#xaff8;" 
d="M796 808v-498h-103v498h103zM126 531q18 72 20 145h-88v85h181v-42q0 -48 -3 -91.5t-15 -94.5q62 2 121 6q16 63 18 137h-91v85h182v-52q0 -46 -2.5 -83t-11.5 -80q18 1 52 5l7 -72q-75 -14 -177 -22v-145h-104v139q-112 -5 -181 -5l-12 84q66 0 104 1zM165 281h631v-211
h-522v-63h546v-80h-653v217h522v58h-524v79zM385 430h141v364h102v-479h-102v39h-141v76z" />
    <glyph glyph-name="uniB000" unicode="&#xb000;" 
d="M797 808v-548h-104v548h104zM124 498q21 82 23 170h-88v86h180v-47q0 -54 -3.5 -102t-16.5 -105q42 1 121 5q19 76 21 163h-92v86h184v-52q0 -51 -2.5 -94t-13.5 -94q12 1 28 3l24 3l7 -74q-83 -16 -177 -24v-160h-103v154q-89 -4 -181 -4l-13 85zM162 227h635v-297h-635
v297zM689 16v125h-420v-125h420zM386 385h140v408h103v-527h-103v44h-140v75z" />
    <glyph glyph-name="uniB001" unicode="&#xb001;" 
d="M797 808v-529h-104v529h104zM125 505q20 83 22 168h-88v86h180v-48q0 -54 -3 -100.5t-16 -103.5q62 2 121 6q11 44 15 80t5 80h-92v86h184v-59q0 -51 -2.5 -91.5t-13.5 -87.5l52 6l7 -74q-74 -15 -177 -23v-149h-103v143q-89 -4 -181 -4l-13 85h103zM162 247h107v-73h419
v73h109v-317h-635v317zM688 16v76h-419v-76h419zM386 402h140v391h103v-511h-103v43h-140v77z" />
    <glyph glyph-name="uniB004" unicode="&#xb004;" 
d="M355 232v-21q0 -54 27 -105t81 -85q54 35 82.5 86t28.5 104v21h106v-21q0 -68 45 -124t129 -80l-52 -79q-64 20 -108 58.5t-68 91.5q-22 -54 -62.5 -95t-99.5 -63q-59 22 -99.5 62.5t-61.5 94.5q-25 -52 -69.5 -90.5t-106.5 -58.5l-51 79q84 25 129 81.5t45 122.5v21h105
zM123 498q21 82 23 170h-88v86h180v-47q0 -54 -3.5 -102t-16.5 -105q42 1 121 5q19 76 21 163h-92v86h184v-52q0 -51 -2.5 -94t-13.5 -94q12 1 28 3l24 3l7 -74q-82 -16 -177 -24v-160h-103v154q-89 -4 -181 -4l-13 85zM385 385h141v408h102v-527h-102v44h-141v75zM692 809
h104v-549h-104v549z" />
    <glyph glyph-name="uniB00C" unicode="&#xb00c;" 
d="M783 809v-890h-109v890h109zM171 390q20 77 26.5 138.5t7.5 124.5h-124v88h229v-59q0 -75 -5 -141t-25 -148q79 2 158 6q18 74 24.5 134t6.5 120h-119v88h224v-62q0 -73 -4.5 -134t-21.5 -138l74 8l7 -79q-111 -17 -241 -25v-353h-108v347q-140 -5 -237 -5l-14 89z" />
    <glyph glyph-name="uniB010" unicode="&#xb010;" 
d="M775 809v-665h-108v665h108zM173 432q19 65 25.5 116.5t7.5 105.5h-116v87h220v-54q0 -66 -5 -123t-23 -129q100 4 149 8q16 61 22 110.5t7 100.5h-117v87h223v-57q0 -63 -4 -115.5t-19 -116.5l72 9l7 -78q-107 -18 -233 -28v-171h-107v165q-126 -6 -235 -6l-15 88z
M145 217h108v-193h546v-88h-654v281z" />
    <glyph glyph-name="uniB014" unicode="&#xb014;" 
d="M309 761v-49q0 -57 -4 -106t-18 -109q74 2 147 6q22 87 24 171h-112v87h217v-48q0 -54 -3 -100t-16 -102l69 7l7 -74q-109 -17 -236 -25v-107h391v-226h-496v-76h528v-82h-636v236h495v66h-497v82h106v101q-108 -4 -228 -4l-14 84l145 1q24 92 26 180h-115v87h220z
M667 808h108v-461h-108v461z" />
    <glyph glyph-name="uniB01C" unicode="&#xb01c;" 
d="M776 809v-527h-108v527h108zM177 462q27 95 29 200h-115v87h219v-53q0 -60 -4 -113t-20 -119q102 4 150 8q23 92 25 190h-118v87h223v-55q0 -57 -3.5 -105.5t-16.5 -107.5l70 9l7 -78q-110 -18 -239 -28v-139h391v-313h-605v313h106v133q-137 -5 -228 -5l-14 88
q92 0 143 1zM669 18v142h-393v-142h393z" />
    <glyph glyph-name="uniB01D" unicode="&#xb01d;" 
d="M776 808v-495h-108v495h108zM177 472q27 98 29 196h-115v87h219v-51q0 -61 -4 -113.5t-20 -115.5q74 2 149 6q24 89 26 187h-118v87h223v-54q0 -58 -3.5 -106t-17.5 -106q48 4 71 7l7 -78q-112 -16 -234 -24v-141h-108v135q-111 -4 -233 -4l-14 87zM155 277h106v-94h407
v94h108v-347h-621v347zM668 16v85h-407v-85h407z" />
    <glyph glyph-name="uniB028" unicode="&#xb028;" 
d="M242 390q38 137 40 276h-184v86h289v-45q0 -75 -6 -148t-29 -169h259q18 80 24.5 145.5t7.5 130.5h-193v86h299v-53q0 -76 -5 -146.5t-24 -162.5h118v-88h-195v-382h-108v382h-201v-382h-108v382h-192v88h208z" />
    <glyph glyph-name="uniB030" unicode="&#xb030;" 
d="M236 314v96h-207v85h221q21 96 23 196h-171v88h287v-46q0 -59 -3.5 -114t-16.5 -124h243q13 84 18 196h-180v88h295v-34q0 -59 -3 -117t-14 -133h107v-85h-206v-96h110v-227h-503v-74h521v-87h-632v238h503v65h-505v85h113zM518 314v96h-171v-96h171z" />
    <glyph glyph-name="uniB03C" unicode="&#xb03c;" 
d="M391 776v-56q0 -67 -4 -126.5t-20 -133.5h245q19 116 21 230h-177v86h293v-43q0 -66 -3.5 -129t-17.5 -144h105v-84h-204v-139h-109v139h-177v-139h-109v139h-204v84h218q15 66 20.5 119.5t6.5 110.5h-170v86h286zM178.5 76.5q45.5 49.5 45.5 105.5v19h105v-19
q0 -47 26 -90.5t75 -71.5q50 30 76.5 74.5t26.5 87.5v19h107v-19q0 -59 44.5 -107.5t127.5 -68.5l-52 -79q-62 17 -105.5 52t-68.5 82q-21 -48 -60 -85t-95 -56q-112 36 -157 139q-25 -46 -68 -80.5t-103 -51.5l-51 78q81 22 126.5 71.5z" />
    <glyph glyph-name="uniB044" unicode="&#xb044;" 
d="M389 721v-46q0 -101 -10.5 -202.5t-52.5 -253.5l-107 18q36 120 49 216t14 181h-188v87h295zM34 135h804v-89h-804v89zM448 721h304v-66q0 -110 -6 -205.5t-31 -229.5l-108 12q24 119 31.5 214t7.5 188h-198v87z" />
    <glyph glyph-name="uniB045" unicode="&#xb045;" 
d="M401 768v-41q0 -70 -6.5 -137t-30.5 -153h242q31 120 33 244h-184v87h288v-48q0 -71 -5 -135.5t-24 -147.5h125v-86h-805v86h220q37 122 41 244h-186v87h292zM120 250h621v-329h-108v243h-513v86z" />
    <glyph glyph-name="uniB048" unicode="&#xb048;" 
d="M250 404q40 137 44 267h-185v87h292v-34q0 -73 -7 -146.5t-34 -173.5h245q30 132 34 267h-182v87h288v-38q0 -76 -5.5 -147t-27.5 -169h127v-87h-805v87h216zM135 236h107v-208h519v-87h-626v295z" />
    <glyph glyph-name="uniB04A" unicode="&#xb04a;" 
d="M261 463q32 110 34 224h-186v87h292v-51q0 -67 -5 -126.5t-25 -133.5h240q27 113 29 224h-183v87h288v-49q0 -67 -4.5 -126.5t-21.5 -135.5h120v-86h-805v86h227zM124 276h105v-245q93 5 167 27l13 -87q-60 -17 -117.5 -23t-119.5 -6h-48v334zM389 270h152v68h105v-68
h148v-78h-405v78zM478.5 128.5q44.5 33.5 114.5 33.5t114.5 -33.5t44.5 -88.5t-44.5 -88t-114.5 -33t-114.5 33t-44.5 88t44.5 88.5zM544.5 5q18.5 -13 48.5 -13t48.5 13t18.5 35q0 24 -18 36t-49 12t-49 -12t-18 -36q0 -22 18.5 -35z" />
    <glyph glyph-name="uniB04C" unicode="&#xb04c;" 
d="M256 489q19 59 26 107t9 97h-187v86h292v-48q0 -62 -5 -117.5t-24 -124.5h239q26 98 30 204h-185v86h289v-43q0 -61 -4.5 -118t-21.5 -129h125v-86h-805v86h222zM127 331h611v-236h-502v-80h527v-85h-634v245h501v72h-503v84z" />
    <glyph glyph-name="uniB04E" unicode="&#xb04e;" 
d="M255 465q21 66 29 119.5t9 104.5h-187v87h292v-49q0 -67 -5.5 -127.5t-26.5 -134.5h239q29 106 33 224h-185v87h289v-46q0 -65 -5 -126t-23 -139h125v-87h-805v87h221zM116 303h289v-217h-186v-76q74 0 116.5 3t85.5 12l8 -80q-50 -10 -99.5 -12.5t-161.5 -2.5h-50v231
h186v63h-188v79zM457 303h291v-373h-291v373zM657 10v215h-109v-215h109z" />
    <glyph glyph-name="uniB053" unicode="&#xb053;" 
d="M260 472q34 113 36 221h-187v86h293v-49q0 -67 -5.5 -126t-25.5 -132h239q29 115 31 221h-184v86h289v-46q0 -65 -5 -125t-23 -136h121v-85h-805v85h226zM108 311h291v-224h-186v-76q80 0 126.5 3.5t93.5 12.5l10 -81q-53 -10 -105.5 -12.5t-173.5 -2.5h-55v231h187v68
h-188v81zM428 272h136v75h104v-75h138v-78h-378v78zM505.5 132q43.5 34 110.5 34q68 0 111.5 -34t43.5 -89q0 -56 -43 -89.5t-112 -33.5q-68 0 -111 33.5t-43 89.5q0 55 43.5 89zM570.5 6.5q17.5 -13.5 45.5 -13.5t45.5 13t17.5 37q0 23 -17 36t-46 13q-28 0 -45.5 -13
t-17.5 -36t17.5 -36.5z" />
    <glyph glyph-name="uniB054" unicode="&#xb054;" 
d="M257 452q34 114 38 235h-186v86h292v-41q0 -68 -6 -132.5t-28 -147.5h242q28 118 30 235h-184v86h288v-49q0 -68 -4.5 -130.5t-21.5 -141.5h122v-87h-805v87h223zM131 258h609v-324h-609v324zM634 19v154h-398v-154h398z" />
    <glyph glyph-name="uniB055" unicode="&#xb055;" 
d="M259 467q32 109 36 224h-186v87h292v-42q0 -66 -5.5 -127.5t-26.5 -141.5h242q26 107 28 224h-184v87h288v-50q0 -67 -4.5 -126.5t-20.5 -134.5h121v-85h-805v85h225zM133 309h106v-105h393v105h107v-379h-606v379zM632 17v102h-393v-102h393z" />
    <glyph glyph-name="uniB057" unicode="&#xb057;" 
d="M252 429q38 130 42 253h-185v86h292v-32q0 -69 -7 -140.5t-32 -166.5h246q27 121 31 253h-182v86h288v-37q0 -73 -5 -141t-25 -161h124v-87h-805v87h218zM245 50q66 32 101.5 78.5t35.5 99.5v33h107v-33q0 -53 35.5 -99.5t101.5 -78.5t156 -43l-40 -85
q-106 17 -185.5 60.5t-121.5 108.5q-41 -65 -120 -108.5t-186 -60.5l-40 85q90 11 156 43z" />
    <glyph glyph-name="uniB059" unicode="&#xb059;" 
d="M255 437q36 123 40 244h-186v87h292v-41q0 -70 -6 -137t-30 -153h242q30 121 32 244h-184v87h288v-49q0 -71 -5 -135t-23 -147h124v-87h-805v87h221zM163 189.5q38 39.5 108 61t163 21.5q94 0 164 -21.5t108 -61t38 -93.5t-38 -94t-108 -61.5t-164 -21.5t-163.5 21.5
t-107.5 61.5t-38 94t38 93.5zM288 29.5q53 -23.5 146 -23.5q94 0 146.5 23.5t52.5 66.5t-52 66t-147 23q-93 0 -146 -23t-53 -66t53 -66.5z" />
    <glyph glyph-name="uniB05D" unicode="&#xb05d;" 
d="M259 475q33 115 35 216h-185v86h292v-38q0 -62 -6 -124t-28 -140h242q17 62 23 113t7 103h-184v86h288v-51q0 -66 -4.5 -123t-21.5 -128h122v-85h-805v85h225zM133 315h610v-80h-502v-72h482v-77h-482v-74h509v-82h-617v385z" />
    <glyph glyph-name="uniB07C" unicode="&#xb07c;" 
d="M770 810v-891h-108v891h108zM160 382.5q41 107.5 49 245.5h-139v88h241q0 -189 -42.5 -334t-152.5 -265l-84 63q87 95 128 202.5zM412 348.5q38 123.5 44 279.5h-115v88h217q0 -205 -38 -365.5t-144 -291.5l-87 59q85 107 123 230.5z" />
    <glyph glyph-name="uniB07D" unicode="&#xb07d;" 
d="M769 241v-322h-108v234h-495v88h603zM155.5 512q37.5 61 47.5 148h-133v87h236q0 -142 -44 -240t-151 -178l-71 68q78 54 115.5 115zM413 492q36 71 44 168h-119v87h221q0 -150 -39 -257t-140 -195l-79 62q76 64 112 135zM661 809h108v-530h-108v530z" />
    <glyph glyph-name="uniB080" unicode="&#xb080;" 
d="M768 806v-643h-108v643h108zM157 485q38 68 46 163h-134v88h238q0 -150 -43.5 -256t-152.5 -190l-71 67q79 60 117 128zM177 213h109v-189h507v-88h-616v277zM414.5 462.5q36.5 78.5 44.5 185.5h-120v88h221q0 -107 -15.5 -190t-57 -157t-115.5 -138l-75 65
q81 68 117.5 146.5z" />
    <glyph glyph-name="uniB084" unicode="&#xb084;" 
d="M259 539.5q-46 -89.5 -152 -164.5l-68 69q74 50 112 102.5t49 130.5h-134v86h239q0 -134 -46 -223.5zM178 319h590v-231h-481v-73h512v-85h-619v237h481v68h-483v84zM408.5 528q36.5 62 45.5 149h-118v86h221q0 -143 -41 -239.5t-146 -176.5l-74 64q76 55 112.5 117z
M660 809h107v-451h-107v451z" />
    <glyph glyph-name="uniB08C" unicode="&#xb08c;" 
d="M261 514q-44 -97 -153 -176l-69 67q77 53 115 114t48 148h-133v87h236q0 -143 -44 -240zM179 260h589v-330h-589v330zM662 16v159h-377v-159h377zM412 499.5q37 70.5 45 167.5h-119v87h221q0 -149 -41 -255.5t-144 -194.5l-77 62q78 63 115 133.5zM661 808h107v-509h-107
v509z" />
    <glyph glyph-name="uniB08D" unicode="&#xb08d;" 
d="M768 808v-478h-107v478h107zM158 527.5q39 60.5 49 147.5h-133v86h236q0 -143 -45 -240t-155 -175l-70 68q79 53 118 113.5zM184 288h108v-95h370v95h106v-358h-584v358zM662 17v92h-370v-92h370zM413 507q37 71 45 168h-116v86h219q0 -150 -41 -256.5t-144 -192.5
l-78 62q78 62 115 133z" />
    <glyph glyph-name="uniB08F" unicode="&#xb08f;" 
d="M767 809v-600h-108v600h108zM155 507q38 62 47 149h-132v88h235q0 -143 -44 -242t-152 -179l-70 66q78 56 116 118zM291.5 51.5q65.5 33.5 100.5 81.5t35 103v22h111v-22q0 -55 35 -103t100.5 -81.5t153.5 -46.5l-42 -84q-106 18 -184.5 63.5t-118.5 114.5
q-39 -68 -117.5 -114t-185.5 -64l-42 84q89 13 154.5 46.5zM410.5 484.5q36.5 72.5 44.5 171.5h-117v88h219q0 -151 -40 -259.5t-142 -197.5l-78 61q77 64 113.5 136.5z" />
    <glyph glyph-name="uniB091" unicode="&#xb091;" 
d="M769 809v-524h-109v524h109zM157.5 520.5q38.5 60.5 47.5 146.5h-132v87h235q0 -143 -44.5 -240.5t-154.5 -175.5l-68 67q78 55 116.5 115.5zM243.5 216q82.5 46 224.5 46q94 0 164 -20.5t107.5 -59.5t37.5 -92q0 -81 -83.5 -127t-225.5 -46t-224.5 46t-82.5 127
q0 80 82.5 126zM322.5 25q52.5 -23 145.5 -23q94 0 147 23t53 65t-52.5 64.5t-147.5 22.5q-94 0 -146 -22.5t-52 -64.5t52.5 -65zM413.5 499.5q36.5 70.5 44.5 167.5h-117v87h219q0 -149 -40.5 -255.5t-141.5 -194.5l-78 62q77 63 113.5 133.5z" />
    <glyph glyph-name="uniB098" unicode="&#xb098;" 
d="M725 810v-344h132v-91h-132v-455h-109v890h109zM63 724h108v-493q207 4 377 38l11 -89q-192 -39 -421 -39h-75v583z" />
    <glyph glyph-name="uniB099" unicode="&#xb099;" 
d="M729 810v-213h123v-90h-123v-210h-108v513h108zM72 759h107v-320q196 3 364 36l12 -87q-198 -39 -411 -39h-72v410zM147 253h582v-335h-108v248h-474v87z" />
    <glyph glyph-name="uniB09A" unicode="&#xb09a;" 
d="M729 810v-206h123v-89h-123v-203h-108v498h108zM72 759h107v-304q186 3 360 37l12 -88q-191 -39 -407 -39h-72v394zM129 269h279v-351h-107v264h-172v87zM449 269h280v-351h-107v264h-173v87z" />
    <glyph glyph-name="uniB09C" unicode="&#xb09c;" 
d="M179 748v-339q196 2 365 37l13 -89q-194 -38 -412 -38h-73v429h107zM165 229h109v-205h485v-88h-594v293zM621 808h108v-255h123v-92h-123v-293h-108v640z" />
    <glyph glyph-name="uniB09F" unicode="&#xb09f;" 
d="M729 809v-198h123v-89h-123v-208h-108v495h108zM72 761h107v-311q189 3 361 37l13 -89q-193 -38 -409 -38h-72v401zM159 268h574v-87h-467v-164h480v-87h-587v338z" />
    <glyph glyph-name="uniB0A0" unicode="&#xb0a0;" 
d="M729 809v-174h123v-88h-123v-182h-108v444h108zM72 769h107v-281q193 3 361 35l13 -87q-191 -39 -409 -39h-72v372zM152 326h577v-234h-468v-76h496v-86h-603v243h467v69h-469v84z" />
    <glyph glyph-name="uniB0A1" unicode="&#xb0a1;" 
d="M729 809v-187h123v-88h-123v-188h-108v463h108zM72 769h107v-292q189 3 361 37l13 -89q-188 -37 -409 -37h-72v381zM116 304h295v-221h-188v-72q96 1 146 4.5t98 14.5l11 -80q-56 -13 -115.5 -16.5t-187.5 -3.5h-57v229h188v63h-190v82zM448 304h281v-382h-107v297h-174
v85z" />
    <glyph glyph-name="uniB0A2" unicode="&#xb0a2;" 
d="M729 809v-187h124v-87h-124v-189h-108v463h108zM72 769h107v-289q194 3 361 36l13 -89q-190 -39 -409 -39h-72v381zM107 305h286v-220h-180v-73q64 1 107 4t89 12l9 -81q-56 -11 -108 -14t-151 -3h-51v231h179v63h-180v81zM441 305h288v-375h-288v375zM635 10v215h-101
v-215h101z" />
    <glyph glyph-name="uniB0A8" unicode="&#xb0a8;" 
d="M729 809v-195h124v-88h-124v-220h-108v503h108zM72 766h107v-315q196 3 364 36l12 -87q-191 -39 -411 -39h-72v405zM158 263h571v-333h-571v333zM622 16v162h-358v-162h358z" />
    <glyph glyph-name="uniB0A9" unicode="&#xb0a9;" 
d="M730 809v-189h123v-88h-123v-189h-109v466h109zM72 769h107v-304q197 3 364 37l12 -88q-191 -39 -411 -39h-72v394zM155 299h107v-101h360v101h107v-369h-574v369zM622 17v95h-360v-95h360z" />
    <glyph glyph-name="uniB0AB" unicode="&#xb0ab;" 
d="M729 809v-232h123v-89h-123v-264h-108v585h108zM72 748h107v-321q184 3 364 38l12 -88q-186 -38 -411 -38h-72v409zM263.5 54.5q64.5 34.5 99.5 83.5t35 105v31h108v-31q0 -55 34.5 -104t99 -83.5t151.5 -47.5l-42 -84q-102 17 -179 63t-118 114q-41 -68 -118.5 -114.5
t-179.5 -63.5l-42 84q87 13 151.5 47.5z" />
    <glyph glyph-name="uniB0AC" unicode="&#xb0ac;" 
d="M729 809v-199h124v-88h-124v-207h-108v494h108zM188.5 97.5q44.5 61.5 44.5 130.5v51h105v-51q0 -59 27 -113.5t81 -90.5q55 38 83 94t28 110v51h107v-51q0 -73 43 -133t126 -88l-53 -79q-62 22 -105 63t-66 96q-22 -56 -62.5 -100.5t-98.5 -68.5q-117 46 -164 167
q-23 -53 -65.5 -93.5t-101.5 -63.5l-55 79q82 29 126.5 90.5zM72 755h108v-302q198 3 363 37l12 -89q-193 -38 -411 -38h-72v392z" />
    <glyph glyph-name="uniB0AD" unicode="&#xb0ad;" 
d="M730 810v-213h122v-89h-122v-222h-109v524h109zM72 756h107v-317q188 3 364 36l12 -87q-186 -38 -411 -38h-72v406zM179 190q37 40 104.5 62t156.5 22q90 0 157.5 -22t104 -62t36.5 -94t-36.5 -94t-104 -61.5t-157.5 -21.5q-89 0 -156.5 21.5t-104.5 61.5t-37 94t37 94z
M300 29q51 -24 140 -24t140.5 24t51.5 67q0 44 -51 67.5t-141 23.5t-140.5 -23.5t-50.5 -67.5q0 -43 51 -67z" />
    <glyph glyph-name="uniB0AE" unicode="&#xb0ae;" 
d="M729 810v-205h123v-88h-123v-202h-108v495h108zM72 764h107v-305q194 2 364 36l12 -89q-194 -37 -411 -37h-72v395zM255.5 45q59.5 27 94 65t39.5 79h-237v85h589v-85h-235q6 -41 40.5 -78.5t94 -65.5t137.5 -39l-40 -82q-101 15 -176.5 58t-114.5 104q-38 -61 -113 -103
t-177 -58l-40 83q79 10 138.5 37z" />
    <glyph glyph-name="uniB0AF" unicode="&#xb0af;" 
d="M730 810v-193h122v-88h-122v-203h-109v484h109zM72 763h107v-280q194 3 361 36l13 -88q-186 -38 -409 -38h-72v370zM252.5 38q60.5 25 95.5 60.5t41 74.5h-245v85h246v92h110v-92h244v-85h-243q6 -39 41 -74.5t95.5 -60.5t139.5 -34l-37 -82q-103 14 -179.5 53.5
t-114.5 97.5q-39 -58 -115.5 -97.5t-180.5 -53.5l-37 82q79 9 139.5 34z" />
    <glyph glyph-name="uniB0B1" unicode="&#xb0b1;" 
d="M729 809v-189h123v-88h-123v-191h-108v468h108zM72 764h107v-292q194 3 361 36l13 -90q-191 -38 -409 -38h-72v384zM156 302h577v-80h-468v-65h459v-77h-459v-69h487v-80h-596v371z" />
    <glyph glyph-name="uniB0B3" unicode="&#xb0b3;" 
d="M729 810v-174h123v-89h-123v-195h-108v458h108zM72 769h107v-264q187 3 361 36l13 -87q-188 -37 -409 -37h-72v352zM135 300h258v80h108v-80h256v-82h-622v82zM261.5 151.5q66.5 34.5 184.5 34.5t184.5 -34.5t66.5 -97.5t-66.5 -98.5t-184.5 -35.5t-184.5 35.5
t-66.5 98.5t66.5 97.5zM343.5 12q35.5 -14 102.5 -14q66 0 102 14t36 42q0 27 -36.5 41t-101.5 14q-66 0 -102 -14t-36 -41q0 -28 35.5 -42z" />
    <glyph glyph-name="uniB0B4" unicode="&#xb0b4;" 
d="M793 810v-891h-104v451h-99v-406h-101v828h101v-334h99v352h104zM72 707h109v-471q125 2 253 25l10 -93q-80 -15 -154.5 -20t-157.5 -5h-60v564z" />
    <glyph glyph-name="uniB0B5" unicode="&#xb0b5;" 
d="M789 809v-519h-104v216h-94v-211h-101v498h101v-199h94v215h104zM72 750h109v-305q143 3 252 26l11 -87q-76 -16 -148.5 -21.5t-163.5 -5.5h-60v393zM184 250h605v-332h-108v245h-497v87z" />
    <glyph glyph-name="uniB0B8" unicode="&#xb0b8;" 
d="M788 809v-659h-103v318h-94v-291h-101v615h101v-236h94v253h103zM72 734h108v-326q147 3 253 25l11 -87q-76 -16 -148.5 -21.5t-163.5 -5.5h-60v415zM194 237h109v-207h509v-88h-618v295z" />
    <glyph glyph-name="uniB0BB" unicode="&#xb0bb;" 
d="M796 252v-87h-504v-146h509v-89h-620v322h615zM72 747h110v-305q76 2 134 7.5t117 19.5l11 -90q-71 -16 -141 -22t-171 -6h-60v396zM493 792h102v-200h92v217h104v-521h-104v216h-92v-212h-102v500z" />
    <glyph glyph-name="uniB0BC" unicode="&#xb0bc;" 
d="M788 809v-453h-103v182h-94v-179h-101v433h101v-168h94v185h103zM73 759h108v-278q142 3 251 24l10 -87q-77 -14 -148 -19t-163 -5h-58v365zM191 320h597v-231h-487v-73h518v-86h-626v239h488v66h-490v85z" />
    <glyph glyph-name="uniB0C4" unicode="&#xb0c4;" 
d="M789 809v-503h-104v202h-94v-196h-101v480h101v-196h94v213h104zM72 752h109v-303q140 2 252 24l11 -88q-79 -14 -152 -19.5t-160 -5.5h-60v392zM192 267h597v-337h-597v337zM683 16v165h-385v-165h385z" />
    <glyph glyph-name="uniB0C5" unicode="&#xb0c5;" 
d="M789 809v-484h-104v192h-94v-183h-101v458h101v-189h94v206h104zM73 752h108v-290q144 3 252 25l11 -88q-77 -15 -149.5 -20t-162.5 -5h-59v378zM193 286h107v-93h383v93h106v-356h-596v356zM683 17v93h-383v-93h383z" />
    <glyph glyph-name="uniB0C7" unicode="&#xb0c7;" 
d="M788 809v-578h-103v264h-95v-189h-100v487h100v-210h95v226h103zM72 729h108v-317q71 2 130.5 9.5t118.5 23.5l13 -84q-73 -19 -145.5 -26t-166.5 -7h-58v401zM296.5 53.5q66.5 34.5 102.5 82.5t36 100v29h107v-29q0 -52 36 -100t102.5 -82.5t152.5 -46.5l-41 -85
q-104 17 -183.5 63.5t-120.5 113.5q-41 -67 -120 -113.5t-183 -63.5l-42 85q87 12 153.5 46.5z" />
    <glyph glyph-name="uniB0C8" unicode="&#xb0c8;" 
d="M788 809v-507h-104v208h-95v-200h-102v483h102v-195h95v211h104zM72 744h108v-300q144 3 250 24l12 -88q-77 -15 -149 -20.5t-162 -5.5h-59v390zM210.5 96q44.5 61 44.5 129v48h104v-48q0 -58 27.5 -112t81.5 -90q55 38 83.5 93t28.5 109v48h106v-48q0 -73 44 -132.5
t128 -86.5l-54 -79q-62 22 -105.5 62.5t-67.5 95.5q-22 -56 -62.5 -99t-98.5 -67q-117 45 -164 163q-24 -53 -66.5 -93t-102.5 -62l-53 79q82 29 126.5 90z" />
    <glyph glyph-name="uniB0C9" unicode="&#xb0c9;" 
d="M789 809v-534h-104v224h-95v-195h-102v489h102v-206h95v222h104zM73 739h108v-309q136 3 252 27l13 -89q-78 -15 -151.5 -21t-162.5 -6h-59v398zM226 183.5q37 38.5 105 59.5t160 21q91 0 159.5 -21t105.5 -60t37 -91q0 -53 -37 -92t-105.5 -59.5t-159.5 -20.5
q-139 0 -220.5 46t-81.5 126q0 53 37 91.5zM348 28q52 -23 143 -23t142.5 23t51.5 64q0 42 -51 64.5t-143 22.5t-143.5 -22.5t-51.5 -64.5q0 -41 52 -64z" />
    <glyph glyph-name="uniB0D0" unicode="&#xb0d0;" 
d="M725 810v-216h126v-89h-126v-171h126v-90h-126v-324h-109v890h109zM64 724h107v-493q207 4 377 38l11 -91q-192 -39 -421 -39h-74v585z" />
    <glyph glyph-name="uniB0D1" unicode="&#xb0d1;" 
d="M729 810v-117h122v-88h-122v-102h122v-88h-122v-118h-108v513h108zM72 759h108v-320q196 3 363 36l12 -87q-198 -39 -411 -39h-72v410zM147 253h582v-335h-108v248h-474v87z" />
    <glyph glyph-name="uniB0D4" unicode="&#xb0d4;" 
d="M180 748v-339q204 4 364 37l13 -89q-194 -38 -412 -38h-73v429h108zM165 229h109v-205h485v-88h-594v293zM621 808h108v-149h121v-89h-121v-128h121v-89h-121v-185h-108v640z" />
    <glyph glyph-name="uniB0D7" unicode="&#xb0d7;" 
d="M732 254v-87h-474v-148h483v-89h-593v324h584zM67 763h109v-304q204 2 364 37l14 -92q-99 -21 -197.5 -29t-215.5 -8h-74v396zM615 809h111v-120h125v-92h-125v-107h125v-90h-125v-107h-111v516z" />
    <glyph glyph-name="uniB0D8" unicode="&#xb0d8;" 
d="M729 809v-97h123v-85h-123v-80h123v-87h-123v-95h-108v444h108zM72 769h107v-281q193 3 361 35l13 -87q-191 -39 -409 -39h-72v372zM152 326h577v-234h-468v-76h496v-86h-603v243h467v69h-469v84z" />
    <glyph glyph-name="uniB0E0" unicode="&#xb0e0;" 
d="M729 809v-114h122v-89h-122v-98h122v-89h-122v-113h-108v503h108zM72 766h107v-315q196 3 364 36l12 -87q-191 -39 -411 -39h-72v405zM158 263h571v-333h-571v333zM622 16v162h-358v-162h358z" />
    <glyph glyph-name="uniB0E1" unicode="&#xb0e1;" 
d="M259 279v-89h355v89h112v-351h-578v351h111zM68 767h108v-300q198 3 363 37l16 -91q-186 -38 -414 -38h-73v392zM614 15v91h-355v-91h355zM615 809h111v-115h125v-90h-125v-98h125v-89h-125v-101h-111v493z" />
    <glyph glyph-name="uniB0E3" unicode="&#xb0e3;" 
d="M729 809v-131h122v-89h-122v-113h122v-88h-122v-164h-108v585h108zM72 748h107v-321q184 3 364 38l12 -88q-186 -38 -411 -38h-72v409zM263.5 54.5q64.5 34.5 99.5 83.5t35 105v31h108v-31q0 -55 34.5 -104t99 -83.5t151.5 -47.5l-42 -84q-102 17 -179 63t-118 114
q-41 -68 -118.5 -114.5t-179.5 -63.5l-42 84q87 13 151.5 47.5z" />
    <glyph glyph-name="uniB0E5" unicode="&#xb0e5;" 
d="M730 810v-122h121v-90h-121v-100h121v-89h-121v-123h-109v524h109zM72 756h107v-317q188 3 364 36l12 -87q-186 -38 -411 -38h-72v406zM179 190q37 40 104.5 62t156.5 22q90 0 157.5 -22t104 -62t36.5 -94t-36.5 -94t-104 -61.5t-157.5 -21.5q-89 0 -156.5 21.5
t-104.5 61.5t-37 94t37 94zM300 29q51 -24 140 -24t140.5 24t51.5 67q0 44 -51 67.5t-141 23.5t-140.5 -23.5t-50.5 -67.5q0 -43 51 -67z" />
    <glyph glyph-name="uniB0EC" unicode="&#xb0ec;" 
d="M181 707v-470q74 1 135 6.5t123 17.5l12 -97q-74 -16 -145.5 -21.5t-172.5 -5.5h-62v570h110zM494 792h101v-192h98v209h103v-892h-103v323h-98v-278h-101v830zM693 331v177h-98v-177h98z" />
    <glyph glyph-name="uniB108" unicode="&#xb108;" 
d="M775 810v-893h-109v522h-253v87h253v284h109zM82 712h107v-492q201 2 362 35l11 -90q-188 -36 -408 -36h-72v583z" />
    <glyph glyph-name="uniB109" unicode="&#xb109;" 
d="M192 758v-335q202 3 356 35l12 -90q-96 -20 -192.5 -27t-210.5 -7h-73v424h108zM172 243h601v-325h-108v238h-493v87zM434 649h231v161h108v-527h-108v278h-231v88z" />
    <glyph glyph-name="uniB10B" unicode="&#xb10b;" 
d="M191 762v-321q201 3 354 35l13 -90q-98 -20 -194 -27.5t-208 -7.5h-73v411h108zM130 267h297v-343h-107v256h-190v87zM433 664h231v146h108v-497h-108v263h-231v88zM552 85.5q38 57.5 38 128.5v66h108v-66q0 -72 37 -129t112 -84l-54 -83q-105 40 -150 140
q-45 -101 -150 -141l-55 83q76 28 114 85.5z" />
    <glyph glyph-name="uniB10C" unicode="&#xb10c;" 
d="M773 809v-640h-108v370h-232v88h232v182h108zM84 746h108v-354q198 3 353 34l15 -90q-97 -20 -194 -27.5t-210 -7.5h-72v445zM193 220h108v-196h494v-88h-602v284z" />
    <glyph glyph-name="uniB10F" unicode="&#xb10f;" 
d="M776 255v-88h-495v-148h502v-90h-612v326h605zM74 761h108v-341q94 1 176.5 7.5t169.5 21.5l12 -84q-100 -17 -193.5 -23t-203.5 -6h-69v425zM426 648h233v161h111v-514h-111v263h-233v90z" />
    <glyph glyph-name="uniB110" unicode="&#xb110;" 
d="M192 770v-298q193 2 355 32l14 -87q-101 -19 -199 -27t-206 -8h-72v388h108zM191 319h582v-231h-472v-72h498v-86h-605v238h471v65h-474v86zM434 675h230v134h109v-453h-109v232h-230v87z" />
    <glyph glyph-name="uniB112" unicode="&#xb112;" 
d="M192 768v-312q201 2 356 32l13 -88q-184 -34 -404 -34h-73v402h108zM139 299h294v-218h-188v-71q67 1 111 4t91 12l10 -82q-57 -10 -111 -12.5t-156 -2.5h-50v229h188v61h-189v80zM434 668h231v141h107v-473h-107v245h-231v87zM479 299h293v-372h-293v372zM678 7v213
h-106v-213h106z" />
    <glyph glyph-name="uniB113" unicode="&#xb113;" 
d="M192 767v-305q195 2 356 33l13 -89q-184 -34 -404 -34h-73v395h108zM139 299h294v-218h-188v-71q67 1 111 4t91 12l10 -82q-57 -10 -111 -12.5t-156 -2.5h-50v229h188v61h-189v80zM434 675h231v134h108v-468h-108v246h-231v88zM479 308h98v-103h98v103h98v-379h-294v379z
M675 12v111h-98v-111h98z" />
    <glyph glyph-name="uniB118" unicode="&#xb118;" 
d="M773 259v-329h-583v329h583zM84 759h108v-327q202 3 356 35l12 -90q-98 -20 -195.5 -28t-207.5 -8h-73v418zM667 16v158h-372v-158h372zM434 653h231v156h108v-510h-108v267h-231v87z" />
    <glyph glyph-name="uniB119" unicode="&#xb119;" 
d="M192 765v-314q193 2 356 35l12 -90q-98 -20 -195.5 -28t-207.5 -8h-73v405h108zM188 289h107v-97h371v97h107v-359h-585v359zM666 17v91h-371v-91h371zM434 663h231v146h108v-483h-108v248h-231v89z" />
    <glyph glyph-name="uniB11B" unicode="&#xb11b;" 
d="M191 755v-342q201 2 356 35l12 -91q-97 -19 -194 -26.5t-209 -7.5h-73v432h108zM289 53.5q65 33.5 100 82t35 102.5v31h108v-31q0 -55 35 -103t99.5 -81.5t151.5 -45.5l-42 -86q-103 18 -180 63.5t-118 112.5q-41 -67 -119 -113t-181 -63l-40 86q86 12 151 45.5zM431 637
h233v173h109v-600h-109v338h-233v89z" />
    <glyph glyph-name="uniB11C" unicode="&#xb11c;" 
d="M191 756v-319q196 2 354 33l13 -89q-97 -20 -192.5 -27t-209.5 -7h-73v409h108zM207.5 101q44.5 62 44.5 130v47h104v-47q0 -60 27 -114t82 -90q55 38 83 94t28 110v47h107v-47q0 -73 43.5 -133.5t127.5 -87.5l-54 -79q-62 22 -105 63t-67 96q-48 -121 -161 -168
q-60 23 -101 65.5t-63 98.5q-24 -53 -66.5 -93t-101.5 -62l-54 79q82 29 126.5 91zM432 653h230v157h109v-508h-109v263h-230v88z" />
    <glyph glyph-name="uniB11D" unicode="&#xb11d;" 
d="M192 750v-320q198 2 356 34l12 -89q-98 -20 -195.5 -28t-207.5 -8h-73v411h108zM255.5 220.5q80.5 46.5 219.5 46.5q140 0 220.5 -46.5t80.5 -127.5t-80.5 -127.5t-220.5 -46.5q-139 0 -219.5 46.5t-80.5 127.5t80.5 127.5zM332 27q50 -23 143 -23t143 23t50 66
q0 44 -49.5 66.5t-143.5 22.5q-93 0 -143 -22.5t-50 -66.5q0 -43 50 -66zM434 650h231v160h108v-533h-108v284h-231v89z" />
    <glyph glyph-name="uniB122" unicode="&#xb122;" 
d="M182 761v-341q192 2 346 29l11 -84q-99 -17 -193 -23t-203 -6h-70v425h109zM154 12h128v167h-119v86h616v-86h-120v-167h131v-85h-636v85zM551 12v167h-162v-167h162zM426 648h236v161h108v-514h-108v263h-236v90z" />
    <glyph glyph-name="uniB123" unicode="&#xb123;" 
d="M192 766v-269q199 2 354 32l14 -88q-184 -34 -404 -34h-73v359h109zM156 297h263v79h108v-79h263v-83h-634v83zM288 149.5q67 34.5 185 34.5t184.5 -34.5t66.5 -97.5t-66.5 -98t-184.5 -35t-185 35t-67 98t67 97.5zM365.5 10q37.5 -14 107.5 -14q143 0 143 56
q0 27 -37 41t-106 14q-70 0 -107.5 -14t-37.5 -41q0 -28 37.5 -42zM430 688h235v122h108v-467h-108v258h-235v87z" />
    <glyph glyph-name="uniB124" unicode="&#xb124;" 
d="M178 719v-490q137 3 259 26l14 -90q-78 -15 -153 -21t-166 -6h-60v581h106zM319 520h185v271h102v-829h-102v471h-185v87zM693 810h103v-891h-103v891z" />
    <glyph glyph-name="uniB125" unicode="&#xb125;" 
d="M794 809v-524h-103v524h103zM78 745h107v-327q144 3 255 27l13 -87q-78 -16 -152 -22t-165 -6h-58v415zM187 244h607v-326h-109v239h-498v87zM341 635h170v156h101v-498h-101v254h-170v88z" />
    <glyph glyph-name="uniB128" unicode="&#xb128;" 
d="M793 809v-655h-102v655h102zM78 734h106v-346q72 2 132.5 7t123.5 18l13 -87q-78 -15 -151.5 -20.5t-165.5 -5.5h-58v434zM206 230h108v-205h505v-89h-613v294zM341 610h170v182h100v-615h-100v346h-170v87z" />
    <glyph glyph-name="uniB12B" unicode="&#xb12b;" 
d="M798 252v-87h-505v-146h508v-89h-620v322h617zM72 751h109v-320q74 2 133.5 7t121.5 16l10 -89q-74 -13 -144.5 -17.5t-169.5 -4.5h-60v408zM344 640h171v151h102v-498h-102v258h-171v89zM687 809h104v-517h-104v517z" />
    <glyph glyph-name="uniB12C" unicode="&#xb12c;" 
d="M793 809v-457h-102v457h102zM78 759h106v-287q139 3 257 25l13 -88q-78 -14 -151 -19t-167 -5h-58v374zM196 316h597v-228h-486v-74h517v-84h-627v237h488v65h-489v84zM340 665h171v126h100v-434h-100v222h-171v86z" />
    <glyph glyph-name="uniB134" unicode="&#xb134;" 
d="M794 264v-334h-592v334h592zM78 753h107v-313q72 1 131.5 6t121.5 17l12 -87q-78 -15 -151 -20t-163 -5h-58v402zM688 16v163h-380v-163h380zM341 646h170v145h101v-481h-101v248h-170v88zM691 809h103v-507h-103v507z" />
    <glyph glyph-name="uniB135" unicode="&#xb135;" 
d="M794 809v-489h-103v489h103zM78 754h107v-311q144 3 256 26l13 -86q-77 -17 -151 -23t-166 -6h-59v400zM203 285h107v-94h377v94h107v-355h-591v355zM687 17v89h-377v-89h377zM341 653h170v138h101v-464h-101v239h-170v87z" />
    <glyph glyph-name="uniB137" unicode="&#xb137;" 
d="M510 614v178h101v-505h-101v242h-169v85h169zM78 730h106v-332q130 2 252 28l11 -86q-77 -17 -150 -23.5t-161 -6.5h-58v420zM297 50.5q66 32.5 102 78.5t36 97v26h107v-26q0 -51 36 -97t101.5 -78.5t152.5 -44.5l-38 -84q-105 16 -184.5 61t-121.5 110
q-41 -65 -120.5 -110t-184.5 -61l-39 84q87 12 153 44.5zM691 809h102v-601h-102v601z" />
    <glyph glyph-name="uniB138" unicode="&#xb138;" 
d="M793 809v-516h-103v516h103zM77 752h107v-322q136 3 252 27l13 -87q-76 -16 -149 -21.5t-165 -5.5h-58v409zM210.5 100q44.5 61 44.5 129v37h104v-37q0 -59 27.5 -113t81.5 -90q55 38 83.5 93.5t28.5 109.5v37h106v-37q0 -73 44 -132.5t128 -86.5l-54 -79
q-62 21 -105.5 62t-67.5 96q-22 -56 -62.5 -99.5t-98.5 -67.5q-117 45 -164 163q-24 -53 -66.5 -92.5t-102.5 -61.5l-53 79q82 29 126.5 90zM340 638h170v154h101v-488h-101v246h-170v88z" />
    <glyph glyph-name="uniB139" unicode="&#xb139;" 
d="M794 809v-540h-103v540h103zM78 742h107v-330q136 2 253 25l12 -88q-77 -15 -148.5 -20t-165.5 -5h-58v418zM229.5 181.5q37.5 38.5 106 59t159.5 20.5t159 -20.5t105.5 -59t37.5 -90.5t-37.5 -90t-105.5 -58.5t-159 -20.5q-92 0 -160 20.5t-105.5 58.5t-37.5 90
t37.5 90.5zM352 28q52 -22 143 -22t142 22t51 63t-51 63t-142 22t-143 -22t-52 -63t52 -63zM341 624h170v167h101v-491h-101v238h-170v86z" />
    <glyph glyph-name="uniB140" unicode="&#xb140;" 
d="M775 810v-893h-109v409h-247v88h247v113h-247v87h247v196h109zM82 715h107v-509q105 1 184.5 7t158.5 22l11 -89q-89 -17 -179 -23.5t-213 -6.5h-69v599z" />
    <glyph glyph-name="uniB141" unicode="&#xb141;" 
d="M192 758v-363q96 1 173 7t156 21l14 -88q-89 -17 -177 -23.5t-206 -6.5h-68v453h108zM170 235h603v-317h-108v230h-495v87zM437 553h228v76h-228v83h228v98h108v-535h-108v195h-228v83z" />
    <glyph glyph-name="uniB144" unicode="&#xb144;" 
d="M773 809v-657h-108v297h-231v86h231v82h-231v86h231v106h108zM84 749h108v-385q93 1 173.5 7.5t163.5 21.5l11 -89q-96 -17 -187.5 -23.5t-199.5 -6.5h-69v475zM193 210h108v-186h494v-88h-602v274z" />
    <glyph glyph-name="uniB147" unicode="&#xb147;" 
d="M778 254v-87h-496v-148h503v-90h-615v325h608zM74 761h108v-354q95 1 173.5 6.5t160.5 18.5l9 -83q-94 -15 -182.5 -20t-201.5 -5h-67v437zM427 559h233v77h-233v81h233v92h111v-514h-111v183h-233v81z" />
    <glyph glyph-name="uniB148" unicode="&#xb148;" 
d="M192 774v-327q111 1 184.5 6t146.5 18l13 -87q-85 -15 -169 -20t-215 -5h-68v415h108zM191 307h582v-225h-472v-67h494v-85h-601v231h471v62h-474v84zM438 591h227v63h-227v83h227v72h108v-465h-108v164h-227v83z" />
    <glyph glyph-name="uniB150" unicode="&#xb150;" 
d="M195 768v-364q94 1 169.5 7t154.5 20l13 -86q-89 -17 -177 -23.5t-201 -6.5h-67v453h108zM192 249h581v-319h-581v319zM666 16v148h-369v-148h369zM437 564h228v75h-228v82h228v88h108v-522h-108v195h-228v82z" />
    <glyph glyph-name="uniB151" unicode="&#xb151;" 
d="M302 281v-89h364v89h107v-351h-578v351h107zM87 773h108v-350q102 1 178.5 6.5t154.5 20.5l9 -88q-88 -15 -175.5 -20.5t-206.5 -5.5h-68v437zM666 17v90h-364v-90h364zM437 577h228v68h-228v83h228v81h108v-489h-108v174h-228v83z" />
    <glyph glyph-name="uniB154" unicode="&#xb154;" 
d="M194 761v-353q94 1 170.5 7t156.5 21l10 -86q-89 -17 -176.5 -23t-201.5 -6h-67v440h108zM207.5 101q44.5 62 44.5 131v34h104v-34q0 -60 27 -114t82 -90q55 38 83 94t28 110v34h107v-34q0 -73 43.5 -133.5t127.5 -88.5l-54 -78q-61 21 -104.5 62t-67.5 96
q-22 -56 -62.5 -99.5t-98.5 -67.5q-60 23 -101 65t-63 98q-24 -53 -66.5 -92.5t-101.5 -61.5l-54 78q82 29 126.5 91zM436 569h226v71h-226v83h226v86h109v-517h-109v194h-226v83z" />
    <glyph glyph-name="uniB155" unicode="&#xb155;" 
d="M195 760v-354q110 1 187.5 6.5t156.5 21.5l14 -86q-89 -18 -177.5 -24.5t-218.5 -6.5h-70v443h108zM255 215.5q80 45.5 220 45.5t220.5 -45.5t80.5 -125.5q0 -81 -80.5 -126t-220.5 -45t-220 45t-80 126q0 80 80 125.5zM332 26q50 -22 143 -22t143 22t50 64t-50 64
t-143 22t-143 -22t-50 -64t50 -64zM437 565h228v71h-228v83h228v91h108v-540h-108v211h-228v84z" />
    <glyph glyph-name="uniB158" unicode="&#xb158;" 
d="M195 761v-345q101 1 175.5 7t148.5 21l12 -87q-85 -17 -170.5 -23t-206.5 -6h-67v433h108zM665 114v64h-494v87h602v-346h-108v117l-501 -24l-12 82zM437 572h228v71h-228v82h228v85h108v-506h-108v185h-228v83z" />
    <glyph glyph-name="uniB15C" unicode="&#xb15c;" 
d="M178 709v-483q72 2 132 7t122 18l13 -91q-77 -15 -151 -21t-162 -6h-60v576h106zM337 427h167v103h-167v87h167v174h102v-829h-102v378h-167v87zM693 810h103v-891h-103v891z" />
    <glyph glyph-name="uniB160" unicode="&#xb160;" 
d="M793 809v-662h-102v662h102zM78 732h106v-372q71 1 128.5 6t119.5 16l12 -86q-71 -14 -140.5 -19.5t-167.5 -5.5h-58v461zM206 210h108v-186h505v-88h-613v274zM350 518h161v76h-161v84h161v114h100v-624h-100v266h-161v84z" />
    <glyph glyph-name="uniB171" unicode="&#xb171;" 
d="M794 809v-551h-103v551h103zM78 747h107v-355q74 1 131 5.5t116 16.5l13 -87q-71 -14 -139.5 -19t-169.5 -5h-58v444zM272.5 204.5q80.5 43.5 222.5 43.5q141 0 221.5 -43.5t80.5 -121.5t-80.5 -121t-221.5 -43q-142 0 -222.5 43t-80.5 121t80.5 121.5zM350.5 21.5
q50.5 -21.5 144.5 -21.5q93 0 143 21.5t50 61.5q0 41 -49.5 62t-143.5 21q-95 0 -145 -21t-50 -62q0 -40 50.5 -61.5zM350 549h161v69h-161v84h161v90h101v-505h-101v176h-161v86z" />
    <glyph glyph-name="uniB178" unicode="&#xb178;" 
d="M236 738v-321h516v-87h-262v-217h350v-88h-806v88h349v217h-254v408h107z" />
    <glyph glyph-name="uniB179" unicode="&#xb179;" 
d="M244 793v-216h505v-87h-260v-104h350v-87h-804v87h347v104h-244v303h106zM126 222h614v-303h-108v215h-506v88z" />
    <glyph glyph-name="uniB17C" unicode="&#xb17c;" 
d="M245 781v-224h502v-86h-257v-116h349v-88h-804v88h349v116h-246v310h107zM132 206h108v-182h515v-88h-623v270z" />
    <glyph glyph-name="uniB180" unicode="&#xb180;" 
d="M244 798v-178h502v-86h-256v-81h350v-87h-806v87h350v81h-246v264h106zM129 307h613v-222h-504v-72h532v-83h-640v231h504v64h-505v82z" />
    <glyph glyph-name="uniB181" unicode="&#xb181;" 
d="M424 299v-222h-197v-72q85 1 140 4.5t112 13.5l10 -81q-68 -13 -134.5 -16.5t-181.5 -3.5h-58v230h197v65h-200v82h312zM30 440h346v75h-243v279h110v-192h500v-87h-256v-75h349v-86h-806v86zM460 299h293v-379h-111v294h-182v85z" />
    <glyph glyph-name="uniB182" unicode="&#xb182;" 
d="M244 794v-191h502v-86h-255v-83h349v-86h-806v86h350v83h-246v277h106zM117 288h289v-210h-186v-69q75 1 118 3.5t86 10.5l8 -78q-51 -10 -100.5 -12.5t-161.5 -2.5h-51v222h186v59h-188v77zM457 288h290v-358h-290v358zM656 9v201h-108v-201h108z" />
    </font>
</defs>
</svg>
